<?xml version="1.0" encoding="iso-8859-1"?>
<!-- Generator: Adobe Illustrator 16.0.3, SVG Export Plug-In . SVG Version: 6.00 Build 0)  -->
<!DOCTYPE svg PUBLIC "-//W3C//DTD SVG 1.1//EN" "http://www.w3.org/Graphics/SVG/1.1/DTD/svg11.dtd">
<svg version="1.1" id="Layer_1" xmlns="http://www.w3.org/2000/svg" xmlns:xlink="http://www.w3.org/1999/xlink" x="0px" y="0px"
	 width="35px" height="35px" viewBox="0 0 35 35" style="enable-background:new 0 0 35 35;" xml:space="preserve">
<g>
	<g>
		<polygon style="fill:#FFFFFF;" points="3.809,17.442 16.904,9.938 30,2.434 30,17.442 30,32.451 16.904,24.946 		"/>
		<g>
			<path style="fill:#FFFFFF;" d="M4.694,18.957c8.699-5.003,17.399-10.006,26.098-15.009c-0.88-0.505-1.76-1.01-2.64-1.515
				c0,10.006,0,20.012,0,30.018c0.88-0.505,1.76-1.01,2.64-1.515c-8.699-5.003-17.398-10.006-26.098-15.009
				c-1.965-1.13-3.731,1.902-1.771,3.029c8.699,5.003,17.398,10.006,26.097,15.009c1.151,0.662,2.64-0.178,2.64-1.515
				c0-10.006,0-20.012,0-30.018c0-1.337-1.488-2.177-2.64-1.515C20.321,5.921,11.622,10.924,2.923,15.928
				C0.963,17.055,2.729,20.087,4.694,18.957z"/>
		</g>
	</g>
	<g>
		<g>
			<path style="fill:#FFFFFF;" d="M2.013,2.503c0,9.999,0,19.998,0,29.997c0,2.263,3.509,2.263,3.509,0c0-9.999,0-19.998,0-29.997
				C5.522,0.24,2.013,0.24,2.013,2.503L2.013,2.503z"/>
		</g>
	</g>
</g>
</svg>
