<?xml version="1.0" encoding="utf-8"?>
<!-- Generator: Adobe Illustrator 16.0.0, SVG Export Plug-In . SVG Version: 6.00 Build 0)  -->
<!DOCTYPE svg PUBLIC "-//W3C//DTD SVG 1.1//EN" "http://www.w3.org/Graphics/SVG/1.1/DTD/svg11.dtd">
<svg version="1.1" id="Layer_1" xmlns="http://www.w3.org/2000/svg" xmlns:xlink="http://www.w3.org/1999/xlink" x="0px" y="0px"
	 width="35px" height="35px" viewBox="0 0 35 35" enable-background="new 0 0 35 35" xml:space="preserve">
<g>
	<g>
		<path fill="#FFFFFF" d="M13.32,29.797c0-7.788,0-15.576,0-23.364c0-5.146-7.98-5.146-7.98,0c0,7.788,0,15.576,0,23.364
			C5.34,34.943,13.32,34.943,13.32,29.797L13.32,29.797z"/>
	</g>
</g>
<g>
	<g>
		<path fill="#FFFFFF" d="M28.992,29.797c0-7.788,0-15.576,0-23.364c0-5.146-7.979-5.146-7.979,0c0,7.788,0,15.576,0,23.364
			C21.012,34.943,28.992,34.943,28.992,29.797L28.992,29.797z"/>
	</g>
</g>
</svg>
