<?xml version="1.0" encoding="utf-8"?>
<!-- Generator: Adobe Illustrator 15.0.2, SVG Export Plug-In . SVG Version: 6.00 Build 0)  -->
<!DOCTYPE svg PUBLIC "-//W3C//DTD SVG 1.1//EN" "http://www.w3.org/Graphics/SVG/1.1/DTD/svg11.dtd">
<svg version="1.1" id="Layer_1" xmlns="http://www.w3.org/2000/svg" xmlns:xlink="http://www.w3.org/1999/xlink" x="0px" y="0px"
	 width="24px" height="24px" viewBox="0 0 24 24" enable-background="new 0 0 24 24" xml:space="preserve">
<path id="SkipBack" fill="#FFFFFF" d="M17.145,2.417L6.49,8.569v-3.94c0-0.959-0.852-1.739-1.9-1.739c-1.047,0-1.9,0.78-1.9,1.739
	v6.7c-0.05,0.196-0.05,0.395,0,0.591v6.78c0,0.959,0.854,1.739,1.9,1.739c1.049,0,1.9-0.78,1.9-1.739V14.68l10.654,6.15
	c1.352,0.779,2.455,0.141,2.455-1.418V3.834C19.6,2.275,18.496,1.638,17.145,2.417z"/>
<line fill="none" stroke="#000000" stroke-miterlimit="10" x1="-467.5" y1="-144.5" x2="-465.5" y2="-142.5"/>
</svg>
