<?xml version="1.0" encoding="utf-8"?>
<!-- Generator: Adobe Illustrator 15.0.2, SVG Export Plug-In . SVG Version: 6.00 Build 0)  -->
<!DOCTYPE svg PUBLIC "-//W3C//DTD SVG 1.1//EN" "http://www.w3.org/Graphics/SVG/1.1/DTD/svg11.dtd">
<svg version="1.1" id="Layer_1" xmlns="http://www.w3.org/2000/svg" xmlns:xlink="http://www.w3.org/1999/xlink" x="0px" y="0px"
	 width="24px" height="24px" viewBox="0 0 24 24" enable-background="new 0 0 24 24" xml:space="preserve">
<path id="Play" fill="#FFFFFF" d="M13.475,19.629c0,1.069-0.757,1.506-1.684,0.972l-9.249-5.339c-0.926-0.535-0.926-1.409,0-1.943
	l9.249-5.339c0.927-0.534,1.684-0.097,1.684,0.972V19.629z"/>
<path fill="#FFFFFF" d="M22.146,13.108l0.016-0.001c-0.004-0.084-0.007-0.542-0.007-1.091V4.404c0-0.938-0.764-1.701-1.701-1.701
	h-0.148c-0.938,0-1.701,0.763-1.701,1.701v7.613c0,0.312-0.254,0.566-0.566,0.566h-7.586c-0.938,0-1.701,0.764-1.701,1.701v0.148
	c0,0.938,0.763,1.701,1.701,1.701h10.023c0.938,0,1.701-0.764,1.701-1.701v-0.148C22.176,13.738,22.176,13.364,22.146,13.108z"/>
</svg>
