<?xml version="1.0" encoding="utf-8"?>
<!-- Generator: Adobe Illustrator 16.0.0, SVG Export Plug-In . SVG Version: 6.00 Build 0)  -->
<!DOCTYPE svg PUBLIC "-//W3C//DTD SVG 1.1//EN" "http://www.w3.org/Graphics/SVG/1.1/DTD/svg11.dtd">
<svg version="1.1" id="Layer_1" xmlns="http://www.w3.org/2000/svg" xmlns:xlink="http://www.w3.org/1999/xlink" x="0px" y="0px"
	 width="35px" height="35px" viewBox="0 0 35 35" enable-background="new 0 0 35 35" xml:space="preserve">
<g>
	<path fill="#FFFFFF" d="M0.565,32.616c1.541-0.944,2.995-1.761,4.363-2.706c0.667-0.459,1.036-0.313,1.587,0.162
		c5.628,4.856,14.103,5.357,20.19,1.093c5.225-3.662,7.777-8.792,7.281-15.146c-0.495-6.344-3.759-11.04-9.52-13.833
		C15.395-2.217,4.372,2.614,1.366,12.228c-0.252,0.81,0.016,1.389,0.731,1.538c0.908,0.191,1.876,0.209,2.808,0.146
		c0.776-0.05,1.272-0.549,1.637-1.317c2.175-4.575,5.838-7.055,10.898-7.059c6.655-0.004,11.833,5.452,11.661,11.975
		c-0.187,6.873-5.843,11.979-12.539,11.552c-2.214-0.143-4.238-0.827-6.103-2.252c1.457-0.919,2.822-1.784,4.321-2.731
		c-1.094-0.369-2.021-0.685-2.954-0.989C9.33,22.283,6.853,21.408,4.329,20.7c-1.868-0.528-2.682,0.014-2.893,1.926
		C1.074,25.88,0.861,29.155,0.565,32.616z"/>
	<path fill="#FFFFFF" d="M0.565,32.616c0.294-3.461,0.508-6.736,0.873-9.991c0.21-1.912,1.025-2.453,2.893-1.927
		c2.523,0.71,4.999,1.584,7.497,2.39c0.932,0.304,1.859,0.624,2.954,0.992c-1.499,0.947-2.865,1.813-4.321,2.731
		c1.864,1.424,3.89,2.108,6.103,2.253c6.697,0.426,12.355-4.68,12.538-11.553c0.174-6.522-5.004-11.98-11.659-11.975
		c-5.062,0.004-8.725,2.485-10.9,7.06c-0.364,0.766-0.86,1.267-1.637,1.317c-0.932,0.063-1.9,0.045-2.808-0.146
		c-0.717-0.149-0.985-0.728-0.731-1.538C4.373,2.615,15.395-2.215,24.468,2.185c5.761,2.794,9.024,7.49,9.52,13.834
		c0.496,6.354-2.057,11.482-7.281,15.143c-6.087,4.268-14.562,3.766-20.19-1.094c-0.552-0.475-0.92-0.617-1.587-0.159
		C3.561,30.853,2.108,31.672,0.565,32.616z"/>
</g>
</svg>
