<?xml version="1.0" encoding="utf-8"?>
<!-- Generator: Adobe Illustrator 16.0.0, SVG Export Plug-In . SVG Version: 6.00 Build 0)  -->
<!DOCTYPE svg PUBLIC "-//W3C//DTD SVG 1.1//EN" "http://www.w3.org/Graphics/SVG/1.1/DTD/svg11.dtd">
<svg version="1.1" id="Layer_1" xmlns="http://www.w3.org/2000/svg" xmlns:xlink="http://www.w3.org/1999/xlink" x="0px" y="0px"
	 width="24px" height="24px" viewBox="0 0 24 24" enable-background="new 0 0 24 24" xml:space="preserve">
<g>
	<path fill="#FFFFFF" d="M1.029,22.184c1.009-0.619,1.962-1.154,2.859-1.773c0.437-0.301,0.679-0.206,1.04,0.105
		c3.689,3.184,9.243,3.512,13.232,0.717c3.424-2.399,5.097-5.762,4.771-9.925c-0.324-4.158-2.463-7.235-6.238-9.066
		c-5.946-2.886-13.17,0.28-15.14,6.581c-0.166,0.531,0.01,0.91,0.479,1.008c0.595,0.125,1.229,0.137,1.84,0.096
		c0.509-0.033,0.834-0.36,1.073-0.863c1.425-2.998,3.826-4.624,7.142-4.626c4.361-0.003,7.755,3.573,7.642,7.848
		c-0.121,4.504-3.828,7.851-8.216,7.57c-1.451-0.094-2.777-0.541-4-1.475c0.955-0.604,1.85-1.17,2.832-1.791
		c-0.717-0.242-1.325-0.449-1.936-0.648c-1.635-0.529-3.259-1.104-4.913-1.567c-1.224-0.347-1.757,0.009-1.896,1.263
		C1.362,17.77,1.222,19.915,1.029,22.184z"/>
	<path fill="#FFFFFF" d="M1.029,22.184c0.192-2.269,0.333-4.414,0.571-6.548c0.139-1.254,0.672-1.608,1.896-1.263
		c1.654,0.465,3.277,1.038,4.913,1.566c0.611,0.199,1.219,0.408,1.936,0.649c-0.982,0.621-1.877,1.188-2.832,1.791
		c1.222,0.933,2.549,1.381,4,1.476c4.389,0.279,8.096-3.066,8.215-7.571c0.114-4.274-3.279-7.851-7.641-7.848
		C8.771,4.439,6.37,6.065,4.945,9.063c-0.239,0.502-0.564,0.83-1.073,0.863C3.261,9.967,2.627,9.955,2.032,9.83
		c-0.47-0.098-0.646-0.477-0.479-1.008c1.971-6.3,9.194-9.466,15.14-6.582c3.775,1.832,5.914,4.909,6.238,9.066
		c0.325,4.165-1.348,7.526-4.771,9.924c-3.989,2.797-9.543,2.468-13.232-0.717c-0.361-0.312-0.603-0.404-1.04-0.104
		C2.991,21.027,2.039,21.564,1.029,22.184z"/>
</g>
</svg>
