<?xml version="1.0" encoding="utf-8"?>
<!-- Generator: Adobe Illustrator 22.1.0, SVG Export Plug-In . SVG Version: 6.00 Build 0)  -->
<svg version="1.1" id="Layer_1" xmlns="http://www.w3.org/2000/svg" xmlns:xlink="http://www.w3.org/1999/xlink" x="0px" y="0px"
	 viewBox="0 0 550 500" style="enable-background:new 0 0 550 500;" xml:space="preserve">
<style type="text/css">
	.st0{fill:#FFFFFF;}
	.st1{fill:none;stroke:#FFFFFF;stroke-width:39;stroke-miterlimit:10;}
</style>
<g>
	<path class="st0" d="M126,348.8H15.9c-8.8,0-15.9-7.1-15.9-15.9V156.7c0-8.8,7.1-15.9,15.9-15.9H126V348.8z"/>
</g>
<g>
	<path class="st0" d="M328.7,420L152,347.4V139.3l176.4-77.5c10.9-4.8,21.9,6.5,21.9,22.3v313.5C350.3,413.2,339.5,424.5,328.7,420z
		"/>
</g>
<path class="st1" d="M419.8,191.7c21,5.6,36.7,27.2,36.7,53.1c0,25.8-15.7,47.5-36.7,53.1"/>
<path class="st1" d="M451.9,139.3c44.5,10.7,77.7,52.3,77.7,102c0,49.6-33.1,91.2-77.6,101.9"/>
<ellipse class="st0" cx="349.9" cy="244.4" rx="53.3" ry="69.4"/>
</svg>
