<?xml version="1.0" encoding="utf-8"?>
<!-- Generator: Adobe Illustrator 22.1.0, SVG Export Plug-In . SVG Version: 6.00 Build 0)  -->
<svg version="1.1" id="Layer_1" xmlns="http://www.w3.org/2000/svg" xmlns:xlink="http://www.w3.org/1999/xlink" x="0px" y="0px"
	 viewBox="0 0 400 400" style="enable-background:new 0 0 400 400;" xml:space="preserve">
<style type="text/css">
	.st0{opacity:0.22;}
	.st1{fill:none;stroke:#000000;stroke-width:35;stroke-miterlimit:10;}
	.st2{fill:#FFFFFF;}
	.st3{fill:none;stroke:#FFFFFF;stroke-width:35;stroke-miterlimit:10;}
</style>
<g class="st0">
	<g>
		<path d="M119.6,336.3H44.7c-8.8,0-15.9-7.1-15.9-15.9V202.2c0-8.8,7.1-15.9,15.9-15.9h74.9V336.3z"/>
	</g>
	<g>
		<path d="M258.1,387.6l-119.8-52.4v-150l119.6-55.9c7.4-3.4,14.9,4.7,14.9,16.1v225.9C272.8,382.7,265.5,390.8,258.1,387.6z"/>
	</g>
	<path class="st1" d="M322.6,223c15.2,4,26.5,19.6,26.5,38.3c0,18.6-11.3,34.2-26.4,38.3"/>
	<path class="st1" d="M345.8,185.3c33.8,8.1,59,39.7,59,77.4s-25.1,69.2-58.8,77.4"/>
	<ellipse cx="273" cy="261" rx="38.4" ry="50"/>
</g>
<g>
	<path class="st2" d="M93.8,290.7H18.9c-8.8,0-15.9-7.1-15.9-15.9V156.6c0-8.8,7.1-15.9,15.9-15.9h74.9V290.7z"/>
</g>
<g>
	<path class="st2" d="M232.3,342l-119.8-52.4v-150l119.6-55.9c7.4-3.4,14.9,4.7,14.9,16.1v225.9C247,337.1,239.7,345.2,232.3,342z"
		/>
</g>
<path class="st3" d="M296.9,177.4c15.2,4,26.5,19.6,26.5,38.3c0,18.6-11.3,34.2-26.4,38.3"/>
<path class="st3" d="M320,139.7c33.8,8.1,59,39.7,59,77.4s-25.1,69.2-58.9,77.4"/>
<ellipse class="st2" cx="247.2" cy="215.4" rx="38.4" ry="50"/>
</svg>
