<?xml version="1.0" encoding="utf-8"?>
<!-- Generator: Adobe Illustrator 16.0.3, SVG Export Plug-In . SVG Version: 6.00 Build 0)  -->
<!DOCTYPE svg PUBLIC "-//W3C//DTD SVG 1.1//EN" "http://www.w3.org/Graphics/SVG/1.1/DTD/svg11.dtd">
<svg version="1.1" id="Layer_1" xmlns="http://www.w3.org/2000/svg" xmlns:xlink="http://www.w3.org/1999/xlink" x="0px" y="0px"
	 width="32.566px" height="31.968px" viewBox="1.208 3.022 32.566 31.968" enable-background="new 1.208 3.022 32.566 31.968"
	 xml:space="preserve">
<path id="previous-3-icon" fill="#FCFCFC" d="M9.337,15.049h1.725v4.391l0,0l7.079-4.893v4.886l7.067-4.886v9.782l-7.067-4.886
	v4.886l-7.079-4.893v4.393H9.337V15.049z M4.966,19.438c0,6.928,5.606,12.531,12.532,12.531c6.927,0,12.531-5.604,12.531-12.531
	c0-6.927-5.604-12.532-12.531-12.532S4.966,12.513,4.966,19.438z M33.051,19.438c0,8.589-6.963,15.553-15.553,15.553
	c-8.589,0-15.552-6.963-15.552-15.552S8.909,3.887,17.498,3.887C26.088,3.887,33.051,10.85,33.051,19.438z"/>
</svg>
