<?xml version="1.0" encoding="utf-8"?>
<!-- Generator: Adobe Illustrator 15.0.2, SVG Export Plug-In . SVG Version: 6.00 Build 0)  -->
<!DOCTYPE svg PUBLIC "-//W3C//DTD SVG 1.1//EN" "http://www.w3.org/Graphics/SVG/1.1/DTD/svg11.dtd">
<svg version="1.1" id="Layer_1" xmlns="http://www.w3.org/2000/svg" xmlns:xlink="http://www.w3.org/1999/xlink" x="0px" y="0px"
	 width="24px" height="24px" viewBox="0 0 24 24" enable-background="new 0 0 24 24" xml:space="preserve">
<line fill="none" stroke="#000000" stroke-miterlimit="10" x1="-467.5" y1="-144.5" x2="-465.5" y2="-142.5"/>
<g>
	<path fill="#FFFFFF" d="M15.223,13.404c-1.152-0.719-2.721-1.076-4.701-1.076H9.486v6.732h2.557c1.865,0,3.15-0.195,3.854-0.588
		c0.705-0.396,1.058-1.115,1.058-2.166C16.953,15.09,16.377,14.121,15.223,13.404z"/>
	<path fill="#FFFFFF" d="M16.191,7.247c0-1.07-0.367-1.793-1.105-2.166C14.35,4.706,12.924,4.52,10.807,4.52h-1.32v5.996h0.99
		C14.287,10.517,16.191,9.427,16.191,7.247z"/>
	<path fill="#FFFFFF" d="M18.79,0.667H5.835C4.275,0.667,3,1.942,3,3.501V20.08c0,1.561,1.275,2.836,2.835,2.836H18.79
		c1.56,0,2.835-1.275,2.835-2.836V3.501C21.625,1.942,20.35,0.667,18.79,0.667z M18.461,19.857c-0.65,0.561-1.393,0.932-2.227,1.111
		c-0.832,0.182-2.172,0.272-4.021,0.272H6.658v-18.9h5.943c4.309,0,6.461,1.463,6.461,4.389c0,1.121-0.369,2.086-1.111,2.896
		s-1.779,1.387-3.109,1.73c3.418,0.716,5.127,2.382,5.127,4.994C19.969,17.844,19.465,19.012,18.461,19.857z"/>
</g>
</svg>
