<?xml version="1.0" encoding="utf-8"?>
<!-- Generator: Adobe Illustrator 15.0.2, SVG Export Plug-In . SVG Version: 6.00 Build 0)  -->
<!DOCTYPE svg PUBLIC "-//W3C//DTD SVG 1.1//EN" "http://www.w3.org/Graphics/SVG/1.1/DTD/svg11.dtd">
<svg version="1.1" id="Layer_1" xmlns="http://www.w3.org/2000/svg" xmlns:xlink="http://www.w3.org/1999/xlink" x="0px" y="0px"
	 width="40px" height="40px" viewBox="0 0 40 40" enable-background="new 0 0 40 40" xml:space="preserve">
<g>
	<path fill="#FFFFFF" stroke="#FFFFFF" stroke-width="0.7678" stroke-miterlimit="10" d="M8.92,7.652h9.484
		c1.875,0,3.276,0.079,4.2,0.235c0.922,0.156,1.748,0.482,2.476,0.979c0.729,0.497,1.335,1.157,1.819,1.982
		c0.485,0.826,0.729,1.751,0.729,2.776c0,1.111-0.3,2.131-0.897,3.059c-0.599,0.928-1.41,1.624-2.437,2.087
		c1.446,0.422,2.558,1.139,3.334,2.152c0.776,1.016,1.165,2.207,1.165,3.576c0,1.08-0.251,2.129-0.752,3.148
		c-0.502,1.02-1.188,1.834-2.057,2.442c-0.868,0.609-1.938,0.984-3.211,1.125c-0.799,0.086-2.727,0.142-5.777,0.162H8.92V7.652z
		 M13.711,11.601v5.486h3.139c1.866,0,3.026-0.027,3.48-0.081c0.818-0.097,1.465-0.38,1.934-0.85
		c0.469-0.47,0.703-1.087,0.703-1.853c0-0.733-0.201-1.329-0.605-1.788c-0.404-0.458-1.008-0.736-1.805-0.833
		c-0.475-0.054-1.841-0.081-4.095-0.081H13.711z M13.711,21.035v6.344h4.434c1.726,0,2.821-0.049,3.285-0.145
		c0.713-0.131,1.293-0.445,1.739-0.947c0.447-0.502,0.673-1.174,0.673-2.016c0-0.711-0.173-1.315-0.519-1.812
		c-0.347-0.496-0.845-0.857-1.497-1.084c-0.653-0.227-2.068-0.34-4.248-0.34H13.711z"/>
</g>
<rect x="2" y="1.5" fill="none" stroke="#FFFFFF" stroke-width="1.0763" stroke-miterlimit="10" width="33" height="37"/>
</svg>
