<?xml version="1.0" standalone="no"?>
<!DOCTYPE svg PUBLIC "-//W3C//DTD SVG 20010904//EN"
 "http://www.w3.org/TR/2001/REC-SVG-20010904/DTD/svg10.dtd">
<svg version="1.0" xmlns="http://www.w3.org/2000/svg"
 width="114.000000pt" height="132.000000pt" viewBox="0 0 114.000000 132.000000"
 preserveAspectRatio="xMidYMid meet">

<g transform="translate(0.000000,132.000000) scale(0.100000,-0.100000)"
fill="#000000" stroke="none">
<path d="M250 1240 l0 -80 -125 0 -125 0 0 -580 0 -580 445 0 445 0 0 80 0 80
125 0 125 0 0 428 0 427 -153 153 -152 152 -293 0 -292 0 0 -80z m520 -132 l0
-133 -93 93 -92 92 -128 0 -127 0 0 40 0 40 220 0 220 0 0 -132z m170 -3 l85
-85 -88 0 -87 0 0 85 c0 47 1 85 3 85 1 0 40 -38 87 -85z m-420 -175 l0 -150
145 0 145 0 0 -350 0 -350 -365 0 -365 0 0 500 0 500 220 0 220 0 0 -150z
m170 15 l85 -85 -88 0 -87 0 0 85 c0 47 1 85 3 85 1 0 40 -38 87 -85z m370
-355 l0 -350 -85 0 -85 0 0 95 0 95 55 0 55 0 0 40 0 40 -55 0 -55 0 0 95 0
95 55 0 55 0 0 40 0 40 -55 0 -55 0 0 37 c0 30 -8 45 -42 80 l-42 43 127 0
127 0 0 -350z"/>
<path d="M140 850 l0 -40 110 0 110 0 0 40 0 40 -110 0 -110 0 0 -40z"/>
<path d="M140 580 l0 -40 305 0 305 0 0 40 0 40 -305 0 -305 0 0 -40z"/>
<path d="M140 310 l0 -40 305 0 305 0 0 40 0 40 -305 0 -305 0 0 -40z"/>
</g>
</svg>
