<?xml version="1.0" encoding="utf-8"?>
<!-- Generator: Adobe Illustrator 21.1.0, SVG Export Plug-In . SVG Version: 6.00 Build 0)  -->
<svg version="1.1" id="Layer_1" xmlns="http://www.w3.org/2000/svg" xmlns:xlink="http://www.w3.org/1999/xlink" x="0px" y="0px"
	 viewBox="0 0 240 240" enable-background="new 0 0 240 240" xml:space="preserve">
<g>
	<path fill="#FFFFFF" d="M154.4,24.5c-0.4,1.5-0.9,3.4-1.4,5.2c-5.4,19-10.8,38-16.3,57.1c-3.9,13.7-7.9,27.5-11.8,41.2
		c-4.6,16.1-9.2,32.3-13.8,48.4c-3.5,12.4-7,24.7-10.6,37.1c-0.5,1.8-1.6,2.4-3.4,1.9c-3.1-0.9-6.2-1.7-9.3-2.6
		c-1.3-0.4-1.9-1.7-1.4-3.2c1.7-6.1,3.5-12.3,5.3-18.4c3.7-12.9,7.4-25.8,11.1-38.8c3.2-11.4,6.5-22.7,9.7-34.1
		c3.7-12.9,7.3-25.8,11-38.6c3.2-11,6.3-22.1,9.5-33.1c2.4-8.4,4.8-16.8,7.1-25.2c0.6-2.2,1.7-2.8,3.9-2.1c2.9,0.8,5.8,1.7,8.7,2.5
		C153.9,22.1,154.5,22.9,154.4,24.5z"/>
	<path fill="#FFFFFF" d="M67,168c-0.7,0.1-1.3-0.3-1.8-0.8c-4.1-3.6-8.1-7.2-12.1-10.8c-4.7-4.2-9.5-8.3-14.2-12.5
		c-3.9-3.5-7.8-7-11.8-10.4c-4.8-4.2-9.6-8.4-14.4-12.6c-0.7-0.6-1.5-1.3-2.2-1.9c-1.1-1-1.1-2.1-0.1-3.1c2.8-2.6,5.7-5.1,8.5-7.7
		c2.4-2.1,4.9-4.2,7.3-6.4c5-4.4,10-8.8,14.9-13.2c4-3.5,8-7.1,11.9-10.6c4.2-3.7,8.4-7.4,12.6-11c0.8-0.7,2-0.6,2.8,0.2
		c2.2,2.5,4.5,5,6.6,7.6c1.2,1.5,1.2,2.2-0.2,3.5c-3,2.6-6.1,5.2-9.1,7.8c-3.6,3.1-7.3,6.2-10.9,9.2c-4.2,3.5-8.3,7-12.5,10.5
		c-3.6,3.1-7.3,6.2-10.9,9.3c-0.8,0.7-2.3,1.2-2.2,2.3c0.1,1,1.4,1.5,2.2,2.2c5.3,4.5,10.7,9,16,13.5c4.2,3.6,8.4,7.2,12.6,10.8
		c4.1,3.5,8.3,7,12.4,10.5c0.9,0.8,1.9,1.6,2.8,2.4c0.9,0.8,0.9,1.8,0.1,2.7c-2.3,2.7-4.6,5.3-7,8C68.2,167.9,67.6,168.1,67,168z"/>
	<path fill="#FFFFFF" d="M231,117.3c0.1,0.6-0.3,1-0.7,1.4c-2.8,2.6-5.7,5.1-8.6,7.7c-2.5,2.2-4.9,4.3-7.4,6.5
		c-5,4.4-9.9,8.7-14.9,13.1c-4,3.5-8,7.1-11.9,10.6c-4.1,3.6-8.2,7.3-12.4,10.9c-1,0.9-2.2,0.9-3,0c-2.2-2.5-4.5-5-6.6-7.6
		c-1.2-1.5-1.2-2.2,0.2-3.5c3.5-3,7-6,10.5-8.9c3.7-3.2,7.5-6.3,11.2-9.5c4.7-4,9.5-8,14.2-12c3-2.5,6-5.1,9-7.6
		c0.8-0.7,1-1.2,0.1-2c-4.7-3.9-9.4-7.9-14.2-11.9c-3.6-3.1-7.2-6.1-10.8-9.2c-3.6-3.1-7.3-6.2-10.9-9.2c-3.1-2.6-6.1-5.2-9.1-7.8
		c-1.4-1.2-1.4-2-0.2-3.4c2.2-2.6,4.4-5.1,6.6-7.6c0.8-0.9,2-1,3-0.2c5.2,4.6,10.3,9.1,15.5,13.7c5.7,5,11.4,10.1,17.2,15.1
		c6.5,5.7,13,11.4,19.5,17.1c0.9,0.8,1.9,1.6,2.8,2.4C230.6,115.9,231.1,116.5,231,117.3z"/>
</g>
</svg>
