<?xml version="1.0" encoding="utf-8"?>
<!-- Generator: Adobe Illustrator 16.0.4, SVG Export Plug-In . SVG Version: 6.00 Build 0)  -->
<!DOCTYPE svg PUBLIC "-//W3C//DTD SVG 1.1//EN" "http://www.w3.org/Graphics/SVG/1.1/DTD/svg11.dtd">
<svg version="1.1" id="Layer_1" xmlns="http://www.w3.org/2000/svg" xmlns:xlink="http://www.w3.org/1999/xlink" x="0px" y="0px"
	 width="16px" height="16px" viewBox="0 0 16 16" enable-background="new 0 0 16 16" xml:space="preserve">
<path d="M14.424,8.044c0-1.055,0.688-1.949,1.65-2.287c-0.159-0.553-0.37-1.08-0.632-1.579c-0.662,0.2-1.411,0.138-2.07-0.234
	c-1.139-0.645-1.626-1.992-1.193-3.151c-0.513-0.293-1.061-0.535-1.634-0.714C10.141,1.008,9.187,1.66,8.072,1.66
	c-1.12,0-2.079-0.659-2.479-1.596c-0.58,0.178-1.135,0.418-1.653,0.711c0.094,0.272,0.146,0.564,0.146,0.87
	c0,1.419-1.115,2.569-2.491,2.569c-0.31,0-0.606-0.059-0.879-0.167C0.423,4.581,0.188,5.15,0.018,5.747
	c0.988,0.34,1.701,1.304,1.701,2.438c0,1.104-0.675,2.045-1.624,2.409c0.176,0.551,0.41,1.079,0.693,1.574
	c0.253-0.091,0.524-0.137,0.807-0.137c1.376,0,2.492,1.148,2.492,2.567c0,0.257-0.037,0.504-0.105,0.737
	c0.512,0.284,1.056,0.519,1.625,0.691c0.408-0.921,1.367-1.568,2.482-1.568c1.106,0,2.057,0.637,2.471,1.545
	c0.57-0.18,1.116-0.421,1.627-0.714c-0.082-0.257-0.128-0.529-0.128-0.817c0-1.418,1.116-2.567,2.491-2.567
	c0.287,0,0.562,0.05,0.817,0.143c0.297-0.538,0.534-1.114,0.707-1.719C15.112,9.992,14.424,9.096,14.424,8.044z M8.041,11.968
	c-2.167,0-3.924-1.757-3.924-3.924c0-2.167,1.756-3.925,3.924-3.925c2.166,0,3.924,1.756,3.924,3.925
	C11.965,10.211,10.207,11.968,8.041,11.968z"/>
</svg>
