<?xml version="1.0" encoding="utf-8"?>
<!-- Generator: Adobe Illustrator 16.0.4, SVG Export Plug-In . SVG Version: 6.00 Build 0)  -->
<!DOCTYPE svg PUBLIC "-//W3C//DTD SVG 1.1//EN" "http://www.w3.org/Graphics/SVG/1.1/DTD/svg11.dtd">
<svg version="1.1" id="Layer_1" xmlns="http://www.w3.org/2000/svg" xmlns:xlink="http://www.w3.org/1999/xlink" x="0px" y="0px"
	 width="16px" height="16px" viewBox="0 0 16 16" enable-background="new 0 0 16 16" xml:space="preserve">
<path fill="#FFFFFF" d="M14.424,8.044c0-1.055,0.688-1.949,1.65-2.287c-0.159-0.553-0.37-1.08-0.633-1.579
	c-0.662,0.2-1.41,0.138-2.069-0.234c-1.14-0.645-1.626-1.992-1.192-3.151c-0.514-0.293-1.062-0.535-1.635-0.714
	C10.141,1.008,9.188,1.66,8.072,1.66c-1.12,0-2.079-0.659-2.479-1.596C5.013,0.242,4.458,0.482,3.94,0.775
	c0.094,0.272,0.146,0.564,0.146,0.87c0,1.419-1.115,2.569-2.491,2.569c-0.31,0-0.606-0.059-0.879-0.167
	c-0.293,0.534-0.528,1.103-0.698,1.7c0.988,0.34,1.701,1.304,1.701,2.438c0,1.104-0.675,2.045-1.624,2.409
	c0.176,0.551,0.41,1.079,0.693,1.574c0.253-0.091,0.524-0.137,0.807-0.137c1.376,0,2.492,1.148,2.492,2.566
	c0,0.258-0.037,0.504-0.105,0.737c0.512,0.284,1.056,0.519,1.625,0.69c0.408-0.92,1.367-1.567,2.482-1.567
	c1.106,0,2.058,0.637,2.472,1.545c0.569-0.18,1.115-0.421,1.627-0.714c-0.082-0.257-0.129-0.529-0.129-0.816
	c0-1.418,1.116-2.567,2.491-2.567c0.287,0,0.562,0.05,0.817,0.143c0.297-0.538,0.533-1.114,0.707-1.719
	C15.111,9.992,14.424,9.096,14.424,8.044z M8.041,11.968c-2.167,0-3.924-1.757-3.924-3.924s1.756-3.925,3.924-3.925
	c2.166,0,3.924,1.756,3.924,3.925C11.965,10.211,10.207,11.968,8.041,11.968z"/>
</svg>
