<svg xmlns="http://www.w3.org/2000/svg" viewBox="0 0 32.2 32">
  <defs>
    <style>
      .cls-1 {
        fill: green;
      }
    </style>
  </defs>
  <g id="complete" transform="translate(-288.001 -866)">
    <path id="Union_2" data-name="Union 2" class="cls-1" d="M9.833,30.743a16.134,16.134,0,0,1-7.084-5.8,15.9,15.9,0,0,1,0-17.891A16.187,16.187,0,0,1,21.647.975V2.986a14.194,14.194,0,1,0,8.3,9.755h1.921A16.012,16.012,0,0,1,32.2,16a15.862,15.862,0,0,1-2.75,8.946,16.184,16.184,0,0,1-19.617,5.8ZM4.428,14.781,7.345,12.4l6.47,5.175s.273-.336.738-.874c.25-.289.571-.642.9-1.009.832-.937,1.649-1.789,1.649-1.789s.873-.881,1.569-1.566,1.214-1.174,1.214-1.174l2.694-2.45,2.041-1.642,2.3-1.769,2.091-1.434,1.524-.983.743,1.623-.944.927L27.549,8.357,25.8,10.436l-.618.754-1.295,1.6-.82,1.165-.681.875-.614.857-.761,1.176-1.043,1.545-.705,1.114-.7,1.212-.736,1.3L16.848,23.9l-1.183,2.589Z" transform="translate(288.001 866)"/>
  </g>
</svg>
