<?xml version="1.0" encoding="UTF-8" standalone="no"?>
<!-- Generator: Adobe Illustrator 15.0.2, SVG Export Plug-In . SVG Version: 6.00 Build 0)  -->

<svg
   xmlns:dc="http://purl.org/dc/elements/1.1/"
   xmlns:cc="http://creativecommons.org/ns#"
   xmlns:rdf="http://www.w3.org/1999/02/22-rdf-syntax-ns#"
   xmlns:svg="http://www.w3.org/2000/svg"
   xmlns="http://www.w3.org/2000/svg"
   xmlns:sodipodi="http://sodipodi.sourceforge.net/DTD/sodipodi-0.dtd"
   xmlns:inkscape="http://www.inkscape.org/namespaces/inkscape"
   version="1.1"
   id="Layer_1"
   x="0px"
   y="0px"
   width="24px"
   height="24px"
   viewBox="0 0 24 24"
   enable-background="new 0 0 24 24"
   xml:space="preserve"
   sodipodi:docname="Copy.svg"
   inkscape:version="0.92.3 (2405546, 2018-03-11)"><metadata
   id="metadata3737"><rdf:RDF><cc:Work
       rdf:about=""><dc:format>image/svg+xml</dc:format><dc:type
         rdf:resource="http://purl.org/dc/dcmitype/StillImage" /><dc:title></dc:title></cc:Work></rdf:RDF></metadata><defs
   id="defs3735" /><sodipodi:namedview
   pagecolor="#6e6e6e"
   bordercolor="#666666"
   borderopacity="1"
   objecttolerance="10"
   gridtolerance="10"
   guidetolerance="10"
   inkscape:pageopacity="1"
   inkscape:pageshadow="2"
   inkscape:window-width="1920"
   inkscape:window-height="1017"
   id="namedview3733"
   showgrid="false"
   inkscape:zoom="12.49222"
   inkscape:cx="7.1344348"
   inkscape:cy="5.2271422"
   inkscape:window-x="-8"
   inkscape:window-y="-8"
   inkscape:window-maximized="1"
   inkscape:current-layer="Layer_1" />
<path
   style="fill:#ffffff;stroke-width:0.70890903"
   d="m 10.01324,1.3965409 c -1.1073152,0 -2.0140962,0.9038842 -2.0140962,2.0090734 v 2.6335604 h 2.6268642 0.04688 l 6.380482,6.8074103 v 4.321182 h 2.151384 c 1.105189,0 2.009073,-0.902466 2.009073,-2.009073 V 8.2039513 l -4.507022,-0.00167 c -1.105189,0 -2.009073,-0.9048499 -2.009073,-2.0107476 V 1.3965409 Z M 7.9991438,6.9265155 v 8.2321785 c 0,1.106607 0.906781,2.009073 2.0140962,2.009073 h 6.154462 V 13.7356 l -4.507021,-0.0017 c -1.105189,0 -2.0090782,-0.90485 -2.0090732,-2.010748 V 6.9265155 Z"
   id="path4549"
   inkscape:connector-curvature="0" /><line
   stroke-miterlimit="10"
   x1="-467.5"
   y1="-144.5"
   x2="-465.5"
   y2="-142.5"
   id="line3726"
   stroke="#000000"
   fill="none" />

<path
   d="m 10.666889,6.9272337 h -0.04041 v 3.9103423 c 0,1.105898 0.902441,2.009757 2.010466,2.009757 h 3.529658 z"
   id="path3730"
   inkscape:connector-curvature="0"
   style="fill:#ffffff;stroke-width:0.70890903" />
<path
   style="fill:#ffffff;stroke-width:0.70890903"
   inkscape:connector-curvature="0"
   id="path4551"
   d="m 15.713075,1.3958376 h -0.04041 v 3.9103423 c 0,1.105898 0.902441,2.0097568 2.010467,2.0097568 h 3.529657 z" /><path
   d="m 11.660779,13.733469 c -1.105189,0 -2.0090482,-0.903859 -2.0090482,-2.009756 V 6.9272337 h -4.68518 c -1.1073159,0 -2.0133017,0.903859 -2.0133017,2.0090482 V 20.690702 c 0,1.106608 0.9059858,2.009049 2.0133017,2.009049 h 9.1917142 c 1.10519,0 2.009049,-0.902441 2.009049,-2.009049 v -6.955815 l -4.506535,-0.0015 z"
   id="path3728"
   style="fill:#ffffff;stroke-width:0.70890903"
   inkscape:connector-curvature="0" /></svg>