<svg xmlns="http://www.w3.org/2000/svg" version="1.0" width="900.000000" height="780.000000" preserveAspectRatio="xMidYMid meet"><rect id="backgroundrect" width="100%" height="100%" x="0" y="0" fill="none" stroke="none"/>
<metadata>
Created by potrace 1.15, written by Peter Selinger 2001-2017
</metadata>

<g class="currentLayer" style=""><title>Layer 1</title><g transform="translate(0,780) scale(0.10000000149011612,-0.10000000149011612) " fill="#ffffff" stroke="none" id="svg_1" class="selected" fill-opacity="1">
<path d="M6002 7781 c-73 -25 -140 -85 -179 -160 -29 -55 -33 -72 -33 -139 0 -139 -9 -127 513 -650 l462 -462 -1657 -1658 c-1481 -1481 -1657 -1661 -1663 -1695 -17 -90 -20 -86 328 -434 355 -354 358 -357 449 -333 39 10 207 175 1695 1663 l1653 1652 467 -466 c444 -442 471 -468 528 -489 47 -17 75 -21 130 -18 123 8 213 67 272 180 l28 53 3 1352 2 1351 -21 59 c-30 79 -112 162 -192 192 l-58 21 -1337 0 c-1267 -1 -1340 -2 -1390 -19z" id="svg_2" fill="#ffffff" fill-opacity="1"/>
<path d="M1279 7149 c-147 -15 -321 -65 -456 -130 -142 -68 -259 -153 -394 -288 -219 -220 -333 -424 -401 -719 l-22 -97 -4 -2225 c-2 -1610 0 -2253 8 -2325 37 -327 179 -615 422 -856 203 -202 429 -325 716 -391 l97 -22 2225 -4 c1609 -2 2253 0 2325 8 160 19 312 62 449 128 407 198 699 563 798 1000 22 96 22 109 25 1025 4 1028 8 971 -61 1020 -29 21 -43 22 -236 25 -236 4 -267 -2 -307 -55 l-28 -36 -5 -906 c-5 -805 -8 -912 -23 -960 -76 -250 -221 -425 -441 -532 -165 -80 40 -74 -2436 -74 -2118 0 -2208 1 -2275 19 -233 62 -436 229 -536 442 -80 169 -73 -50 -77 2374 -2 1487 1 2190 8 2246 26 199 118 367 277 507 95 83 238 154 358 177 43 8 580 12 1900 13 1836 2 1840 2 1875 23 19 11 45 35 57 54 22 32 23 42 23 243 0 197 -1 212 -22 248 -14 25 -37 46 -63 59 -41 20 -60 20 -1871 19 -1006 -1 -1863 -5 -1905 -10z" id="svg_3" fill="#ffffff" fill-opacity="1"/>
</g></g></svg>