<?xml version="1.0" encoding="utf-8"?>
<!-- Generator: Adobe Illustrator 15.1.0, SVG Export Plug-In . SVG Version: 6.00 Build 0)  -->
<!DOCTYPE svg PUBLIC "-//W3C//DTD SVG 1.1//EN" "http://www.w3.org/Graphics/SVG/1.1/DTD/svg11.dtd">
<svg version="1.1" id="Lager_1" xmlns="http://www.w3.org/2000/svg" xmlns:xlink="http://www.w3.org/1999/xlink" x="0px" y="0px"
	 width="24px" height="24px" viewBox="0 0 24 24" enable-background="new 0 0 24 24" xml:space="preserve">
<g id="XMLID_1_">
	<g>
		<circle fill="#83AE55" cx="12.002" cy="11.999" r="11.998"/>
	</g>
	<g>
	</g>
</g>
<g>
	<path fill="#FFFFFF" d="M9.75,16.521V15.81c-0.019-0.06-0.023-0.128-0.015-0.195c-0.003-0.03-0.005-0.059-0.001-0.09
		c-0.014-0.061-0.016-0.126-0.005-0.189c-0.003-0.013-0.005-0.029-0.007-0.045c-0.009-0.017-0.021-0.033-0.027-0.054
		c-0.006,0.054-0.012,0.105-0.016,0.158c-0.003-0.077-0.006-0.157-0.008-0.233c-0.012-0.053-0.013-0.109-0.005-0.163
		c-0.011-0.374-0.012-0.753-0.001-1.119c-0.005-0.044-0.004-0.088,0.003-0.13c0.007-0.19,0.017-0.375,0.032-0.555
		c0.033-0.425,0.303-2.244,0.052-2.571c-0.033-0.044-0.053-0.1-0.058-0.16c-0.252,0.002-0.506-0.024-0.759-0.078
		c-0.151-0.029-0.3-0.066-0.447-0.112C7.75,10.04,7.058,9.581,6.496,8.911C6.41,8.831,6.326,8.75,6.241,8.667
		c-0.083-0.083-0.167-0.168-0.25-0.253C5.9,8.472,5.813,8.538,5.729,8.606C5.468,8.827,5.237,9.078,5.034,9.353
		C4.931,9.488,4.835,9.631,4.747,9.777c-0.09,0.156-0.175,0.313-0.253,0.474c-0.081,0.16-0.156,0.323-0.228,0.488
		c-0.7,1.59-1.081,3.37-1.211,5.165c-0.002,0.146,0.002,0.291,0.013,0.433c0.043,0.569,0.192,1.114,0.5,1.603
		c0.079,0.079,0.167,0.148,0.262,0.213c0.134,0.081,0.271,0.15,0.411,0.211c0.139,0.059,0.278,0.111,0.419,0.156
		c0.142,0.049,0.286,0.09,0.429,0.127c0.142,0.041,0.286,0.078,0.429,0.11c0.144,0.029,0.289,0.059,0.433,0.081
		c0.148,0.032,0.294,0.062,0.441,0.082c0.147,0.021,0.293,0.036,0.442,0.048c0.149,0.021,0.297,0.034,0.445,0.044
		s0.294,0.016,0.442,0.017c0.218,0.021,0.436,0.033,0.655,0.042c0.107,0.004,0.216,0.004,0.325,0.005
		c0.35,0.01,0.7,0.012,1.049,0.008c0,0,0-0.931,0-2.175c-0.011-0.061-0.011-0.125,0-0.185c-0.012-0.063-0.011-0.129,0.001-0.189
		C9.75,16.531,9.75,16.525,9.75,16.521z"/>
</g>
<g>
	<path fill="#FFFFFF" d="M9.564,16.513L9.577,15.8c0.02-0.058,0.025-0.126,0.018-0.193c0.005-0.03,0.005-0.061,0.004-0.092
		c0.015-0.058,0.017-0.126,0.007-0.188c0.004-0.014,0.006-0.03,0.008-0.046c0.009-0.014,0.021-0.03,0.028-0.05
		c0.004,0.054,0.01,0.103,0.012,0.156c0.005-0.074,0.009-0.155,0.014-0.231c0.012-0.053,0.013-0.108,0.008-0.163
		c0.017-0.376,0.023-0.753,0.021-1.118c0.004-0.044,0.004-0.089-0.003-0.133c-0.002-0.188-0.01-0.372-0.021-0.554
		c-0.026-0.426-0.265-2.256-0.009-2.572c0.035-0.043,0.055-0.098,0.061-0.16c0.251,0.013,0.506-0.001,0.76-0.045
		c0.15-0.022,0.302-0.053,0.449-0.093c0.74-0.202,1.439-0.632,2.013-1.278c0.084-0.076,0.172-0.153,0.256-0.233
		c0.087-0.08,0.172-0.161,0.257-0.243c0.088,0.064,0.177,0.131,0.258,0.205C13.976,9,14.201,9.261,14.4,9.543
		c0.101,0.141,0.194,0.287,0.281,0.438c0.086,0.159,0.167,0.32,0.245,0.484c0.075,0.163,0.149,0.329,0.218,0.497
		c0.673,1.618,1.024,3.414,1.124,5.215c-0.001,0.143-0.009,0.289-0.021,0.43c-0.054,0.569-0.21,1.104-0.527,1.583
		c-0.081,0.075-0.171,0.142-0.265,0.202c-0.138,0.074-0.277,0.139-0.417,0.193c-0.138,0.053-0.277,0.098-0.418,0.138
		c-0.146,0.043-0.29,0.081-0.433,0.11c-0.146,0.033-0.288,0.066-0.431,0.089c-0.144,0.025-0.29,0.047-0.434,0.065
		c-0.147,0.025-0.297,0.05-0.444,0.062c-0.148,0.016-0.294,0.025-0.444,0.033c-0.146,0.012-0.298,0.02-0.446,0.024
		c-0.146,0.002-0.293,0.001-0.44-0.003c-0.218,0.013-0.437,0.016-0.654,0.014c-0.109-0.001-0.217-0.002-0.326-0.009
		c-0.351-0.005-0.7-0.017-1.049-0.034c0,0,0.016-0.932,0.037-2.174c0.013-0.062,0.014-0.127,0.003-0.187
		c0.013-0.063,0.015-0.128,0.001-0.19C9.563,16.521,9.563,16.518,9.564,16.513z"/>
</g>
<ellipse fill="#FFFFFF" cx="9.856" cy="5.615" rx="3.91" ry="3.899"/>
<rect x="8.906" y="12.819" fill="#FFFFFF" width="2.816" height="3.407"/>
<ellipse fill="#8CC63F" stroke="#FFFFFF" stroke-miterlimit="10" cx="18.752" cy="12.818" rx="3.976" ry="4.688"/>
<path fill="#FFFFFF" d="M18.772,15.988c-0.352,0.008-0.656-0.388-0.669-0.881L18,10.563c-0.01-0.495,0.276-0.902,0.63-0.911
	l0.104-0.001c0.354-0.008,0.656,0.387,0.669,0.881l0.103,4.543c0.011,0.493-0.274,0.902-0.629,0.911L18.772,15.988z"/>
<path fill="#FFFFFF" d="M21.921,12.752c0,0.351-0.401,0.648-0.896,0.65l-4.545,0.004c-0.494-0.001-0.896-0.296-0.896-0.649v-0.104
	c0-0.354,0.402-0.648,0.896-0.65L21.024,12c0.493,0,0.896,0.294,0.896,0.649V12.752z"/>
</svg>
