<?xml version="1.0" encoding="UTF-8" standalone="no"?>
<svg
   viewBox="162.869 142.875 51.033 72.059"
   version="1.1"
   id="svg16"
   sodipodi:docname="diagram_zoomin.svg"
   inkscape:version="1.1 (c68e22c387, 2021-05-23)"
   xmlns:inkscape="http://www.inkscape.org/namespaces/inkscape"
   xmlns:sodipodi="http://sodipodi.sourceforge.net/DTD/sodipodi-0.dtd"
   xmlns="http://www.w3.org/2000/svg"
   xmlns:svg="http://www.w3.org/2000/svg">
  <defs
     id="defs20" />
  <sodipodi:namedview
     id="namedview18"
     pagecolor="#000000"
     bordercolor="#666666"
     borderopacity="1.0"
     inkscape:pageshadow="2"
     inkscape:pageopacity="0"
     inkscape:pagecheckerboard="0"
     showgrid="false"
     inkscape:zoom="5.4261093"
     inkscape:cx="-7.3717645"
     inkscape:cy="27.828411"
     inkscape:window-width="1675"
     inkscape:window-height="1020"
     inkscape:window-x="-358"
     inkscape:window-y="69"
     inkscape:window-maximized="0"
     inkscape:current-layer="svg16" />
  <rect
     style="fill:none;stroke:#ffffff;stroke-width:4.29892;stroke-miterlimit:4;stroke-dasharray:none;stroke-opacity:1;paint-order:stroke fill markers"
     id="rect1620"
     width="30.661667"
     height="1.5427253"
     x="258.14963"
     y="-74.598701"
     transform="rotate(59.39125)" />
  <circle
     style="fill:none;stroke:#ffffff;stroke-width:4.3318;stroke-miterlimit:4;stroke-dasharray:none;stroke-opacity:1;paint-order:stroke fill markers"
     id="path1372"
     cx="184.76944"
     cy="165.15216"
     r="18.533739" />
  <rect
     style="fill:#ffffff;fill-opacity:1;stroke:none;stroke-width:3.79941;stroke-miterlimit:4;stroke-dasharray:none;stroke-opacity:1;paint-order:stroke fill markers"
     id="rect1724"
     width="17.327236"
     height="4.331809"
     x="176.10585"
     y="162.98627" />
  <rect
     style="fill:#ffffff;fill-opacity:1;stroke:none;stroke-width:3.79941;stroke-miterlimit:4;stroke-dasharray:none;stroke-opacity:1;paint-order:stroke fill markers"
     id="rect1724-3"
     width="17.327236"
     height="4.331809"
     x="156.48856"
     y="-186.93535"
     transform="rotate(90)" />
  <path
     style="fill:#ffffff;fill-opacity:1;stroke-width:0.184294;paint-order:stroke fill markers"
     d="M 44.699487,68.501655 C 34.676854,51.518424 28.827893,41.748652 28.699895,41.776847 c -0.08547,0.01883 -0.789003,0.200188 -1.563411,0.403024 -4.844996,1.269025 -9.670936,0.780255 -14.235896,-1.44181 C 7.5559405,38.136473 3.6097618,33.382282 2.0157288,27.624442 1.4198887,25.472194 1.1987392,21.281057 1.562082,19.027106 2.9795793,10.233843 10.037348,3.2686336 18.890147,1.9262913 c 4.252474,-0.644799 8.053604,-0.035059 12.071264,1.9363544 5.591821,2.7438336 9.439675,7.5564613 11.00713,13.7669453 0.348395,1.380394 0.409588,2.107514 0.400781,4.762144 -0.0092,2.779507 -0.0649,3.336306 -0.493507,4.934908 -1.129701,4.213545 -3.572468,8.016626 -7.077238,11.018368 l -0.95448,0.817488 8.576348,14.467088 c 4.716991,7.956898 8.606996,14.55002 8.644455,14.651382 0.03746,0.101362 -1.007534,0.822663 -2.322207,1.602892 l -2.390315,1.418601 z M 24.603264,38.506827 C 33.110522,37.142208 39.205089,29.111072 38.247866,20.526614 37.811231,16.610827 36.355932,13.596701 33.541529,10.779133 30.971632,8.2063457 28.543351,6.8534849 25.302137,6.1887441 23.521395,5.8235316 20.239314,5.8125115 18.558408,6.1661012 12.419477,7.4574653 7.6426754,12.001722 5.9581326,18.15297 c -0.5744961,2.097822 -0.5715839,6.164207 0.00594,8.293235 1.6566095,6.107056 6.5479584,10.704092 12.7417804,11.975105 1.472461,0.302158 4.291948,0.343044 5.897411,0.08552 z"
     id="path3123"
     transform="translate(162.869,142.875)" />
  <path
     style="fill:#ffffff;fill-opacity:1;stroke-width:0.184294;paint-order:stroke fill markers"
     d="M 19.811617,27.55197 V 24.326823 H 16.58647 13.361323 v -2.027235 -2.027236 h 3.225147 3.225147 v -3.317294 -3.317294 h 2.119382 2.119383 v 3.317294 3.317294 h 3.225147 3.225147 v 2.027236 2.027235 h -3.225147 -3.225147 v 3.225147 3.225147 h -2.119383 -2.119382 z"
     id="path3162"
     transform="translate(162.869,142.875)" />
  <path
     style="fill:#ffffff;fill-opacity:1;stroke-width:0.184294;paint-order:stroke fill markers"
     d="M 19.811617,27.55197 V 24.326823 H 16.58647 13.361323 v -2.027235 -2.027236 h 3.225147 3.225147 v -3.317294 -3.317294 h 2.119382 2.119383 v 3.317294 3.317294 h 3.225147 3.225147 v 2.027236 2.027235 h -3.225147 -3.225147 v 3.225147 3.225147 h -2.119383 -2.119382 z"
     id="path3201"
     transform="translate(162.869,142.875)" />
  <path
     style="fill:#ffffff;fill-opacity:1;stroke-width:0.184294;paint-order:stroke fill markers"
     d="M 44.262252,67.762382 C 43.108831,65.817646 39.318723,59.416422 35.83979,53.53744 32.360859,47.658458 29.347859,42.591573 29.144232,42.277698 L 28.774006,41.707015 27.93262,41.966716 C 25.403198,42.747449 22.38817,43.04328 19.839471,42.76081 11.312039,41.81572 4.3021726,35.86326 2.0142489,27.624442 1.3631589,25.279865 1.1883154,20.982187 1.6453237,18.556207 2.4495047,14.2873 4.5688676,10.408322 7.746053,7.3903069 15.74352,-0.20650439 27.81213,-0.21805418 36.080606,7.3631904 c 2.353382,2.1577811 4.620349,5.8608966 5.544154,9.0564386 0.691555,2.39216 0.920015,4.350633 0.802235,6.877126 -0.270939,5.811824 -3.007513,11.178734 -7.720331,15.140948 l -0.862103,0.724796 8.57687,14.467088 c 4.717278,7.956898 8.607178,14.55002 8.644223,14.651382 0.03704,0.101362 -1.00671,0.821719 -2.319458,1.600795 l -2.386811,1.416501 z M 26.229912,38.158713 C 34.100061,35.899961 39.172442,28.444915 38.239478,20.507853 37.456037,13.842804 32.784402,8.2845065 26.412111,6.4356794 24.52732,5.8888353 20.615713,5.7422704 18.666167,6.1454449 11.225688,7.6841686 5.9327972,13.844194 5.4985929,21.470264 c -0.2530782,4.444892 1.2839056,8.663078 4.3466636,11.929233 2.5309115,2.698989 5.2852295,4.263826 8.8605955,5.034056 1.750747,0.377156 5.762966,0.230598 7.52406,-0.27484 z"
     id="path3240"
     transform="translate(162.869,142.875)" />
</svg>
