<?xml version="1.0" encoding="UTF-8" standalone="no"?>
<svg version="1.0" width="200.000000pt" height="200.000000pt" viewBox="0 0 200.000000 200.000000" preserveAspectRatio="xMidYMid meet" id="svg20" sodipodi:docname="diagram_grid.svg" inkscape:version="1.1 (c68e22c387, 2021-05-23)" xmlns:inkscape="http://www.inkscape.org/namespaces/inkscape" xmlns:sodipodi="http://sodipodi.sourceforge.net/DTD/sodipodi-0.dtd" xmlns="http://www.w3.org/2000/svg" xmlns:svg="http://www.w3.org/2000/svg">
   <defs id="defs24" />
   <sodipodi:namedview id="namedview22" pagecolor="#ffffff" bordercolor="#666666" borderopacity="1.0" inkscape:pageshadow="2" inkscape:pageopacity="0.0" inkscape:pagecheckerboard="0" inkscape:document-units="pt" showgrid="false" inkscape:zoom="0.90509668" inkscape:cx="-117.66699" inkscape:cy="155.78446" inkscape:window-width="1920" inkscape:window-height="986" inkscape:window-x="-11" inkscape:window-y="-11" inkscape:window-maximized="1" inkscape:current-layer="svg20" />
   <g id="g1261" style="fill:#ffffff">
      <path d="M 44.6,18.2 C 43.4,19.9 43,23 43,30.7 V 41 h -9.7 c -12,0 -14.7,1.1 -15.1,6.2 -0.5,5.6 2,6.8 14.5,6.8 H 43 V 73 92 H 32.7 C 20.6,92 18,93.1 18,98.5 c 0,5.4 2.6,6.5 14.7,6.5 H 43 v 19 19 H 32.2 C 20,143 18,144 18,149.6 c 0,4.9 1.3,5.4 13.7,5.4 H 43 v 10.9 c 0,8.4 0.3,11.3 1.5,12.5 2.5,2.5 5.4,2.9 8,1.2 L 55,178 V 98.6 C 55,23.1 54.9,19.2 53.2,17.7 50.6,15.3 46.4,15.6 44.6,18.2 Z" style="fill:#ffffff;stroke:none;stroke-width:0.1" id="path2" />
      <path d="m 95.8,18.200007 c -1.2,1.7 -1.6,4.8 -1.6,12.5 v 10.3 h -9.7 c -12,0 -14.7,1.1 -15.1,6.2 -0.5,5.6 2,6.8 14.5,6.8 h 10.3 v 19 18.999996 H 83.9 c -12.1,0 -14.7,1.1 -14.7,6.499997 0,5.4 2.6,6.5 14.7,6.5 h 10.3 v 19 19 H 83.4 c -12.2,0 -14.2,1 -14.2,6.6 0,4.9 1.3,5.4 13.7,5.4 h 11.3 v 10.9 c 0,8.4 0.3,11.3 1.5,12.5 2.5,2.5 5.4,2.9 8,1.2 l 2.5,-1.6 V 98.6 c 0,-75.499993 -0.1,-79.399993 -1.8,-80.899993 -2.6,-2.4 -6.8,-2.1 -8.6,0.5 z" style="fill:#ffffff;stroke:none;stroke-width:0.1" id="path2-3" />
      <path d="m 155.82123,17.182142 c 1.2,1.713656 1.6,4.838559 1.6,12.600415 v 10.382742 h 9.7 c 12,0 14.7,1.108836 15.1,6.249805 0.5,5.644986 -2,6.854626 -14.5,6.854626 h -10.3 v 19.152631 19.15263 h 10.3 c 12.1,0 14.7,1.108837 14.7,6.552219 0,5.44337 -2.6,6.55221 -14.7,6.55221 h -10.3 v 19.15263 19.15263 h 10.8 c 12.2,0 14.2,1.00803 14.2,6.65302 0,4.93936 -1.3,5.44338 -13.7,5.44338 h -11.3 v 10.98756 c 0,8.46748 -0.3,11.39077 -1.5,12.60041 -2.5,2.52009 -5.4,2.9233 -8,1.20964 l -2.5,-1.61285 V 98.228013 c 0,-76.106509 0.1,-80.037838 1.8,-81.549888 2.6,-2.41928 6.8,-2.11687 8.6,0.504017 z" style="fill:#ffffff;stroke:none;stroke-width:0.100401" id="path2-0" />
      <path d="M 95.7,17.8 C 94.3,19.3 94,21.8 94,30.3 V 41 L 76.8,41.2 59.5,41.5 59.2,47.7 58.9,54 H 76.5 94 V 73 92 H 76.5 58.9 l 0.3,6.2 0.3,6.3 17.4,0.3 17.3,0.2 3.8,-3.4 c 2.1,-1.9 4.8,-3.9 5.9,-4.6 2.1,-1.1 2.1,-1.6 2.1,-39.4 0,-35.8 -0.1,-38.4 -1.8,-39.9 -2.4,-2.2 -6.5,-2.1 -8.5,0.1 z" style="fill:#ffffff;stroke:none;stroke-width:0.1" id="path4" />
      <path d="m 146.7,68.6 c -1.4,1.5 -1.7,4 -1.7,12.5 v 10.7 l -17.2,0.2 -17.3,0.3 -0.3,6.2 -0.3,6.3 h 17.6 17.5 v 19 19 h -17.5 -17.6 l 0.3,6.2 0.3,6.3 17.4,0.3 17.3,0.2 3.8,-3.4 c 2.1,-1.9 4.8,-3.9 5.9,-4.6 2.1,-1.1 2.1,-1.6 2.1,-39.4 0,-35.8 -0.1,-38.4 -1.8,-39.9 -2.4,-2.2 -6.5,-2.1 -8.5,0.1 z" style="fill:#ffffff;stroke:none;stroke-width:0.1" id="path4-2-4" />
      <path d="m 95.9,68.8 c -1.4,1.5 -1.7,4 -1.7,12.5 V 92 l -17.200002,0.2 -17.3,0.3 -0.3,6.2 -0.3,6.3 h 17.6 H 94.2 v 19 19 h -17.500002 -17.6 l 0.3,6.2 0.3,6.3 17.4,0.3 L 94.4,156 l 3.8,-3.4 c 2.1,-1.9 4.8,-3.9 5.9,-4.6 2.1,-1.1 2.1,-1.6 2.1,-39.4 0,-35.8 -0.1,-38.4 -1.8,-39.9 -2.4,-2.2 -6.5,-2.1 -8.5,0.1 z" style="fill:#ffffff;stroke:none;stroke-width:0.1" id="path4-2" />
      <path d="m 146.6,17.6 c -1.3,1.2 -1.6,3.9 -1.6,12.5 V 41 H 127.5 110 v 6.5 6.5 h 17.5 17.5 v 17.4 17.4 l 4.8,1.3 c 2.6,0.7 5.3,1.5 6,1.7 0.9,0.3 1.2,-7.3 1.2,-35.5 0,-30.8 -0.2,-36.2 -1.6,-38.1 -1.8,-2.6 -6.5,-3 -8.8,-0.6 z" style="fill:#ffffff;stroke:none;stroke-width:0.1" id="path6" />
      <path d="m 59,149 v 6 H 69.5 80 v -6 -6 H 69.5 59 Z" style="fill:#ffffff;stroke:none;stroke-width:0.1" id="path14" />
   </g>
</svg>