<?xml version="1.0" encoding="UTF-8" standalone="no"?>
<svg
   viewBox="162.869 142.875 51.033 72.059"
   version="1.1"
   id="svg14"
   sodipodi:docname="diagram_zoomout.svg"
   inkscape:version="1.1 (c68e22c387, 2021-05-23)"
   xmlns:inkscape="http://www.inkscape.org/namespaces/inkscape"
   xmlns:sodipodi="http://sodipodi.sourceforge.net/DTD/sodipodi-0.dtd"
   xmlns="http://www.w3.org/2000/svg"
   xmlns:svg="http://www.w3.org/2000/svg">
  <defs
     id="defs18" />
  <sodipodi:namedview
     id="namedview16"
     pagecolor="#050505"
     bordercolor="#666666"
     borderopacity="1.0"
     inkscape:pageshadow="2"
     inkscape:pageopacity="0"
     inkscape:pagecheckerboard="0"
     showgrid="false"
     inkscape:zoom="7.6736774"
     inkscape:cx="20.785341"
     inkscape:cy="37.791529"
     inkscape:window-width="1920"
     inkscape:window-height="986"
     inkscape:window-x="-11"
     inkscape:window-y="-11"
     inkscape:window-maximized="1"
     inkscape:current-layer="svg14" />
  <rect
     style="fill:none;stroke:#ffffff;stroke-width:4.29892;stroke-miterlimit:4;stroke-dasharray:none;stroke-opacity:1;paint-order:stroke fill markers"
     id="rect1620"
     width="30.661667"
     height="1.5427253"
     x="257.55835"
     y="-74.407921"
     transform="rotate(59.39125)" />
  <circle
     style="fill:none;stroke:#ffffff;stroke-width:4.3318;stroke-miterlimit:4;stroke-dasharray:none;stroke-opacity:1;paint-order:stroke fill markers"
     id="path1372"
     cx="184.30417"
     cy="164.7404"
     r="18.533739" />
  <rect
     style="fill:#ffffff;fill-opacity:1;stroke:none;stroke-width:3.79941;stroke-miterlimit:4;stroke-dasharray:none;stroke-opacity:1;paint-order:stroke fill markers"
     id="rect1724"
     width="17.327236"
     height="4.331809"
     x="175.64058"
     y="162.57451" />
  <path
     style="fill:#ffffff;fill-opacity:1;stroke-width:0.184294;paint-order:stroke fill markers"
     d="m 207.10322,210.96489 c -10.02264,-16.98323 -15.8716,-26.753 -15.9996,-26.7248 -0.0855,0.0188 -0.789,0.20018 -1.56341,0.40302 -4.84499,1.26903 -9.67093,0.78026 -14.23589,-1.44181 -5.34465,-2.60159 -9.29083,-7.35578 -10.88486,-13.11362 -0.59584,-2.15225 -0.81699,-6.34338 -0.45365,-8.59733 1.4175,-8.79327 8.47527,-15.75848 17.32807,-17.10082 4.25247,-0.6448 8.0536,-0.0351 12.07126,1.93636 5.59182,2.74383 9.43968,7.55646 11.00713,13.76694 0.3484,1.38039 0.40959,2.10751 0.40078,4.76214 -0.009,2.77951 -0.0649,3.33631 -0.49351,4.93491 -1.1297,4.21355 -3.57246,8.01663 -7.07723,11.01837 l -0.95448,0.81749 8.57634,14.46709 c 4.717,7.95689 8.607,14.55002 8.64446,14.65138 0.0375,0.10136 -1.00753,0.82266 -2.32221,1.60289 l -2.39031,1.4186 z m -20.09623,-29.99482 c 8.50726,-1.36462 14.60183,-9.39576 13.64461,-17.98022 -0.43664,-3.91578 -1.89194,-6.92991 -4.70634,-9.74748 -2.5699,-2.57278 -4.99818,-3.92565 -8.23939,-4.59039 -1.78075,-0.36521 -5.06283,-0.37623 -6.74373,-0.0226 -6.13893,1.29137 -10.91573,5.83562 -12.60028,11.98687 -0.57449,2.09782 -0.57158,6.16421 0.006,8.29323 1.65661,6.10706 6.54796,10.7041 12.74178,11.97511 1.47246,0.30216 4.29195,0.34304 5.89741,0.0855 z"
     id="path3123" />
  <path
     style="fill:#ffffff;fill-opacity:1;stroke-width:0.184294;paint-order:stroke fill markers"
     d="m 206.66598,210.22562 c -1.15342,-1.94473 -4.94353,-8.34596 -8.42246,-14.22494 -3.47893,-5.87898 -6.49193,-10.94587 -6.69556,-11.25974 l -0.37022,-0.57069 -0.84139,0.25971 c -2.52942,0.78073 -5.54445,1.07656 -8.09315,0.79409 -8.52743,-0.94509 -15.5373,-6.89755 -17.82522,-15.13637 -0.65109,-2.34458 -0.82593,-6.64225 -0.36893,-9.06823 0.80418,-4.26891 2.92355,-8.14789 6.10073,-11.1659 7.99747,-7.59681 20.06608,-7.60836 28.33456,-0.0271 2.35338,2.15778 4.62034,5.8609 5.54415,9.05644 0.69155,2.39216 0.92002,4.35063 0.80223,6.87712 -0.27093,5.81183 -3.00751,11.17874 -7.72033,15.14095 l -0.8621,0.7248 8.57687,14.46709 c 4.71728,7.95689 8.60718,14.55002 8.64422,14.65138 0.037,0.10136 -1.00671,0.82172 -2.31945,1.60079 l -2.38682,1.4165 z m -18.03234,-29.60367 c 7.87015,-2.25875 12.94253,-9.7138 12.00957,-17.65086 -0.78344,-6.66505 -5.45508,-12.22334 -11.82737,-14.07217 -1.88479,-0.54684 -5.7964,-0.69341 -7.74594,-0.29024 -7.44048,1.53873 -12.73337,7.69875 -13.16758,15.32482 -0.25308,4.4449 1.28391,8.66308 4.34667,11.92924 2.53091,2.69899 5.28523,4.26382 8.86059,5.03405 1.75075,0.37716 5.76297,0.2306 7.52406,-0.27484 z"
     id="path3240" />
</svg>
