<svg id="enrE5Go6aTq1" xmlns="http://www.w3.org/2000/svg" xmlns:xlink="http://www.w3.org/1999/xlink" viewBox="0 0 24 24" shape-rendering="geometricPrecision" text-rendering="geometricPrecision"><path d="M0,0h24v24h-24Z" fill="none"/><line x1="-1.2" y1="0" x2="19.21" y2="0" transform="matrix(0 0.902499-1 0 15.2 3.902999)" fill="none" stroke="#fff" stroke-width="2"/><line x1="-1.2" y1="0" x2="19.21" y2="0" transform="matrix(0 0.902499-1 0 8.82 3.902999)" fill="none" stroke="#fff" stroke-width="2"/><line x1="-1.2" y1="0" x2="1.208535" y2="0" transform="matrix(1.888665 0 0 1 11.980275 2)" fill="none" stroke="#fff" stroke-width="2"/><line x1="-1.2" y1="0" x2="1.208535" y2="0" transform="matrix(1.888665 0 0 1 11.980275 22)" fill="none" stroke="#fff" stroke-width="2"/><rect width="2.885593" height="3.62025" rx="0" ry="0" transform="matrix(.681303 0.477054-.237653 0.339404 14.25762 1.02025)" fill="#fff" stroke-width="0"/><rect width="2.849524" height="3.644385" rx="0" ry="0" transform="matrix(.66424-.50054 0.249354 0.330903 7.816436 2.427027)" fill="#fff" stroke-width="0"/><rect width="2.849524" height="3.644385" rx="0" ry="0" transform="matrix(.681303 0.477054-.102247 0.146025 8.688787 20.486291)" fill="#fff" stroke-width="0"/><rect width="2.849524" height="3.644385" rx="0" ry="0" transform="matrix(.681303-.477054 0.149877 0.214046 13.305803 21.721719)" fill="#fff" stroke-width="0"/><ellipse rx="2.712558" ry="2.4" transform="matrix(.458644 0.309359-.182325 0.270309 14.940862 2.043277)" fill="#fff" stroke-width="0"/><ellipse rx="2.712558" ry="2.4" transform="matrix(.458644-.309359 0.182325 0.270309 9.08168 2.047896)" fill="#fff" stroke-width="0"/><ellipse rx="2.712558" ry="2.4" transform="matrix(.458644-.309359 0.182325 0.270309 14.92168 21.987896)" fill="#fff" stroke-width="0"/><ellipse rx="2.712558" ry="2.4" transform="matrix(.458644 0.309359-.182325 0.270309 9.08168 21.987896)" fill="#fff" stroke-width="0"/></svg>
