<svg id="eViWHqdFzxa1" xmlns="http://www.w3.org/2000/svg" xmlns:xlink="http://www.w3.org/1999/xlink" viewBox="0 0 24 24" shape-rendering="geometricPrecision" text-rendering="geometricPrecision"><path d="M0,0h24v24h-24Z" fill="none"/><line x1="-1.2" y1="0" x2="19.21" y2="0" transform="matrix(0 0.902499-1 0 15.2 3.902999)" fill="none" stroke="#fff" stroke-width="2"/><line x1="-1.2" y1="0" x2="19.21" y2="0" transform="matrix(0 0.902499-1 0 8.82 3.902999)" fill="none" stroke="#fff" stroke-width="2"/><line x1="-1.2" y1="0" x2="1.208535" y2="0" transform="matrix(1.888665 0 0 1 11.980275 2)" fill="none" stroke="#fff" stroke-width="2"/><line x1="-1.2" y1="0" x2="1.208535" y2="0" transform="matrix(1.888665 0 0 1 11.980275 22)" fill="none" stroke="#fff" stroke-width="2"/><rect width="2.885593" height="3.62025" rx="0" ry="0" transform="matrix(.681303 0.477054-.237653 0.339404 14.25762 1.02025)" fill="#fff" stroke-width="0"/><rect width="2.849524" height="3.644385" rx="0" ry="0" transform="matrix(.66424-.50054 0.249354 0.330903 7.816436 2.427027)" fill="#fff" stroke-width="0"/><rect width="2.849524" height="3.644385" rx="0" ry="0" transform="matrix(.681303 0.477054-.237653 0.339404 8.646101 20.4)" fill="#fff" stroke-width="0"/><rect width="2.849524" height="3.644385" rx="0" ry="0" transform="matrix(.681303-.477054 0.237653 0.339404 13.397255 21.759377)" fill="#fff" stroke-width="0"/><rect width="2.4" height="2.4" rx="0" ry="0" transform="matrix(.210899 0 0 1 15.717426 2.425562)" fill="#fff" stroke-width="0"/><rect width="2.4" height="2.4" rx="0" ry="0" transform="matrix(.210899 0 0 1 7.81 2.396584)" fill="#fff" stroke-width="0"/><rect width="2.4" height="2.4" rx="0" ry="0" transform="matrix(.210899 0 0 1 7.81 19.25)" fill="#fff" stroke-width="0"/><rect width="2.4" height="2.4" rx="0" ry="0" transform="matrix(.210899 0 0 1 15.7 19.25)" fill="#fff" stroke-width="0"/></svg>
