<?xml version="1.0" encoding="utf-8"?>
<!-- Generator: Adobe Illustrator 19.2.1, SVG Export Plug-In . SVG Version: 6.00 Build 0)  -->
<svg version="1.1" id="Layer_1" xmlns="http://www.w3.org/2000/svg" xmlns:xlink="http://www.w3.org/1999/xlink" x="0px" y="0px"
	 viewBox="0 0 114.2 114.3" style="enable-background:new 0 0 114.2 114.3;" xml:space="preserve">
<style type="text/css">
	.st0{fill:#2E53A1;stroke:#1E1E1C;stroke-linecap:round;stroke-miterlimit:10;}
	.st1{fill:#C0C0C0;}
</style>
<path class="st0" d="M83.5,49.5"/>
<polygon class="st1" points="96.5,43.5 96.5,43.6 90.1,36.8 90.1,52.1 64.8,52.1 64.8,24.4 79.3,24.2 71.2,16.9 71.2,16.9 56.6,2.6 
	39.8,19 39.8,19 34.4,24.4 48.8,24.4 48.8,52.1 24.8,52.1 24.6,35 17.4,43.3 17.4,43.2 1.4,59.6 17.8,76.4 24.8,83.8 24.8,68.1 
	48.8,68.1 48.8,90.9 34.2,91 40,96.5 40,96.5 56.7,112.1 72.6,97.2 72.5,97.2 79.2,90.8 64.8,90.8 64.8,68.1 90.2,68.1 90.4,83.4 
	96.9,76.7 112.9,60.3 "/>
</svg>
