<?xml version="1.0" encoding="UTF-8" standalone="no"?>
<svg width="100%" height="100%" viewBox="0 0 24 24" version="1.1"
     xmlns="http://www.w3.org/2000/svg"
     xml:space="preserve"
     style="fill:#fff;fill-rule:evenodd;clip-rule:evenodd;stroke-linejoin:round;stroke-miterlimit:2;">
    <path d="M12,-0C18.623,-0 24,5.377 24,12C24,18.623 18.623,24 12,24C5.377,24 -0,18.623 -0,12C-0,5.377 5.377,-0 12,-0ZM12,2C17.519,2 22,6.481 22,12C22,17.519 17.519,22 12,22C6.481,22 2,17.519 2,12C2,6.481 6.481,2 12,2Z"/>
    <g transform="matrix(1.06667,0,0,1.06667,-3.46667,-3.46667)">
        <circle cx="14.5" cy="14.5" r="5.5"/>
    </g>
</svg>
