<?xml version="1.0" encoding="utf-8"?>
<svg viewBox="92.315 62.366 116.248 93.701" xmlns="http://www.w3.org/2000/svg" xmlns:bx="https://boxy-svg.com">
  <line style="stroke: rgb(255, 246, 246); stroke-width: 3px;" x1="94.724" y1="125.155" x2="95.124" y2="156.021"/>
  <line style="stroke: rgb(255, 246, 246); stroke-width: 3px;" x1="93.728" y1="155.71" x2="133.553" y2="155.748" transform="matrix(1, -0.000575, 0.000575, 1, -0.089525, 0.065369)"/>
  <line style="stroke: rgb(255, 246, 246); stroke-width: 3px;" x1="93.561" y1="125.009" x2="132.756" y2="124.953"/>
  <line style="stroke: rgb(255, 246, 246); stroke-width: 3px;" x1="131.593" y1="124.953" x2="132.387" y2="155.487"/>
  <line style="stroke: rgb(255, 246, 246); stroke-width: 3px;" x1="136.111" y1="125.312" x2="136.512" y2="156.067"/>
  <line style="stroke: rgb(255, 246, 246); stroke-width: 3px;" x1="135.349" y1="156.067" x2="175.251" y2="155.794"/>
  <line style="stroke: rgb(255, 246, 246); stroke-width: 3px;" x1="134.949" y1="125.242" x2="174.143" y2="125.344"/>
  <line style="stroke: rgb(255, 246, 246); stroke-width: 3px;" x1="172.98" y1="125.111" x2="173.775" y2="155.534"/>
  <line style="stroke: rgb(255, 246, 246); stroke-width: 3px;" x1="93.478" y1="88.19" x2="93.876" y2="119.392"/>
  <line style="stroke: rgb(255, 246, 246); stroke-width: 3px;" x1="92.635" y1="119.237" x2="132.331" y2="119.116"/>
  <line style="stroke: rgb(255, 246, 246); stroke-width: 3px;" x1="92.315" y1="88.201" x2="131.305" y2="87.987"/>
  <line style="stroke: rgb(255, 246, 246); stroke-width: 3px;" x1="130.22" y1="87.987" x2="131.011" y2="118.852"/>
  <line style="stroke: rgb(255, 246, 246); stroke-width: 3px;" x1="169.346" y1="62.722" x2="169.747" y2="93.477"/>
  <line style="stroke: rgb(255, 246, 246); stroke-width: 3px;" x1="168.196" y1="93.321" x2="208.563" y2="93.204"/>
  <line style="stroke: rgb(255, 246, 246); stroke-width: 3px;" x1="167.862" y1="62.808" x2="207.611" y2="62.366"/>
  <line style="stroke: rgb(255, 246, 246); stroke-width: 3px;" x1="206.215" y1="62.521" x2="207.01" y2="92.944"/>
  <path d="M 161.157 92.515 H 179.591 L 164.724 84.516 L 193.721 94.515 L 164.724 104.513 L 179.591 96.514 H 161.157 V 92.515 Z" style="fill: rgb(216, 216, 216); paint-order: fill; stroke: rgb(255, 255, 255);" transform="matrix(-0.700786, 0.713372, -0.713193, -0.700967, 344.284034, 44.350701)" bx:shape="arrow 161.157 84.516 32.563 19.997 3.999 28.997 14.867 1@adbd1ff9"/>
</svg>