<?xml version="1.0" encoding="UTF-8" standalone="no"?>
<!-- Created with Inkscape (http://www.inkscape.org/) -->

<svg width="24" height="24" viewBox="0 0 6.3499999 6.3500002" version="1.1" id="svg5" inkscape:version="1.1 (c68e22c387, 2021-05-23)" sodipodi:docname="diagram_ER_table.svg" xmlns:inkscape="http://www.inkscape.org/namespaces/inkscape" xmlns:sodipodi="http://sodipodi.sourceforge.net/DTD/sodipodi-0.dtd" xmlns="http://www.w3.org/2000/svg" xmlns:svg="http://www.w3.org/2000/svg">
   <sodipodi:namedview id="namedview7" pagecolor="#0f0f0f" bordercolor="#666666" borderopacity="1.0" inkscape:pageshadow="2" inkscape:pageopacity="0" inkscape:pagecheckerboard="0" inkscape:document-units="px" showgrid="false" units="px" inkscape:zoom="23.033894" inkscape:cx="13.306478" inkscape:cy="9.2038279" inkscape:window-width="1920" inkscape:window-height="986" inkscape:window-x="-11" inkscape:window-y="-11" inkscape:window-maximized="1" inkscape:current-layer="layer1" />
   <defs id="defs2" />
   <g inkscape:label="Lager 1" inkscape:groupmode="layer" id="layer1">
      <rect style="fill:none;fill-opacity:0.998339;stroke:#ffffff;stroke-width:0.580521;stroke-miterlimit:4;stroke-dasharray:none;paint-order:stroke fill markers" id="rect1252" width="5.398747" height="2.5298643" x="0.47562653" y="1.9100679" rx="1.7285864" ry="0" />
      <path id="text6723" style="font-size:4.23333px;line-height:1.25;font-family:Roboto;-inkscape-font-specification:Roboto;fill:#ffffff;stroke:#614875;stroke-width:0.327913;stroke-miterlimit:4;stroke-dasharray:none;stroke-opacity:1" d="m 4.8472904,2.796006 c -0.1313409,0 -0.2355376,0.036775 -0.3125907,0.1103261 -0.075302,0.073551 -0.1129531,0.1672402 -0.1129531,0.2810687 0,0.1155797 0.038526,0.2101452 0.1155798,0.2836955 0.078804,0.073551 0.1821259,0.1103259 0.309964,0.1103259 0.1278378,0 0.2302836,-0.036775 0.307337,-0.1103259 0.078804,-0.073549 0.1182065,-0.1681158 0.1182065,-0.2836955 0,-0.1138285 -0.038526,-0.2075181 -0.1155797,-0.2810687 C 5.0802011,2.8327816 4.9768793,2.796006 4.8472904,2.796006 Z M 4.4664026,3.9229082 V 5.8260337 H 5.2281782 V 3.9229082 Z" />
   </g>
</svg>