<?xml version="1.0" encoding="UTF-8" standalone="no" ?>

<svg fill="#ffffff" version="1.1" id="diSaIc"
     width="800px" height="800px" viewBox="0 0 407.096 407.096">
<g>
<g>
<path d="M402.115,84.008L323.088,4.981C319.899,1.792,315.574,0,311.063,0H17.005C7.613,0,0,7.614,0,17.005v373.086
			c0,9.392,7.613,17.005,17.005,17.005h373.086c9.392,0,17.005-7.613,17.005-17.005V96.032
			C407.096,91.523,405.305,87.197,402.115,84.008z M300.664,153.567H60.129V38.862h233.535V163.567z," />
<path d="M211,148.16h43.08c3.131,0,5.668-2.538,5.668-5.669V59.584c0-3.13-2.537-5.668-5.668-5.668h-43.08
			c-3.131,0-5.668,5.668v82.907C208.383,145.622,210.92,148.16,214.051,148.16z" />
	</g>
</g></svg>

