<?xml version="1.0" encoding="UTF-8" standalone="no"?>
<!-- Created with Inkscape (http://www.inkscape.org/) -->

<svg
   width="24"
   height="24"
   viewBox="0 0 6.3499999 6.35"
   version="1.1"
   id="svg9258"
   inkscape:version="1.2 (dc2aedaf03, 2022-05-15)"
   sodipodi:docname="diagram_Refresh_Button.svg"
   xmlns:inkscape="http://www.inkscape.org/namespaces/inkscape"
   xmlns:sodipodi="http://sodipodi.sourceforge.net/DTD/sodipodi-0.dtd"
   xmlns="http://www.w3.org/2000/svg"
   xmlns:svg="http://www.w3.org/2000/svg">
  <sodipodi:namedview
     id="namedview9260"
     pagecolor="#505050"
     bordercolor="#eeeeee"
     borderopacity="1"
     inkscape:showpageshadow="0"
     inkscape:pageopacity="0"
     inkscape:pagecheckerboard="0"
     inkscape:deskcolor="#505050"
     inkscape:document-units="mm"
     showgrid="false"
     inkscape:zoom="33.421469"
     inkscape:cx="16.890341"
     inkscape:cy="12.237643"
     inkscape:window-width="1920"
     inkscape:window-height="1009"
     inkscape:window-x="-8"
     inkscape:window-y="-8"
     inkscape:window-maximized="1"
     inkscape:current-layer="layer1" />
  <defs
     id="defs9255">
    <clipPath
       clipPathUnits="userSpaceOnUse"
       id="clipPath12375">
      <path
         id="path12377"
         style="fill:#ff0000;fill-opacity:1;fill-rule:nonzero;stroke:none;stroke-width:0.264583"
         d="M 0.05736084,0.01756999 V 2.146639 c 0.04869064,0.017216 0.09558431,0.04087 0.14159342,0.063562 0.031606,0.015588 0.0625901,0.031663 0.0940511,0.047542 0.093627,0.050382 0.18799188,0.1004392 0.27956949,0.1545126 0.0536285,0.031665 0.0886739,0.052734 0.13694254,0.091467 0.0185806,0.01491 0.0354292,0.031706 0.0532267,0.047542 0.0373819,0.039178 0.0738562,0.079954 0.10335287,0.1255738 0.0219932,0.034015 0.0387828,0.071336 0.0568441,0.107487 l 0.0160197,0.031006 c 0.002952,0.0058 0.005508,0.011504 0.007752,0.017052 0.0116785,0.014007 0.0199604,0.02794 0.0248047,0.041341 0.0110453,0.00687 0.0220096,0.01383 0.0330728,0.020672 0.1128535,0.069772 0.070655,0.1773544 -0.0258381,0.1586465 -0.001283,0.00291 -0.002387,0.0061 -0.004134,0.00878 0.0106474,0.05404 -0.0456609,0.1028366 -0.14004311,0.067179 -0.006216,-0.00235 -0.004704,-0.00188 -0.009302,-0.00362 3.3337e-4,0.02213 -0.0110861,0.042919 -0.0325562,0.055811 0.0177292,0.00282 0.0354792,0.0055 0.0532267,0.00827 0.0308789,0.00466 0.061622,0.00981 0.0925008,0.01447 0.0250613,0.00379 0.0455582,0.011269 0.061495,0.020672 0.12398525,0.019148 0.11372905,0.1543423 -0.0315226,0.1555459 -0.0569592,4.762e-4 -0.11391059,0.00563 -0.17053222,0.01292 -0.009393,0.0033 -0.0199493,0.00577 -0.0315226,0.00723 0.007763,8.731e-4 0.0155046,0.00159 0.0232545,0.00259 0.0763431,0.00978 0.1101856,0.052693 0.10645346,0.091467 0.006756,6.879e-4 0.0134062,0.00183 0.0201539,0.00259 0.11034431,0.012412 0.13261311,0.095699 0.081132,0.1364258 0.0414395,0.033931 0.0380172,0.087367 -0.003617,0.114205 0.0530521,0.029381 0.0533406,0.097474 -0.008268,0.129191 0.001021,0.00397 8.1228e-4,0.00818 0.001035,0.012401 0.0232187,-0.013346 0.0442138,-0.019344 0.0620117,-0.019637 0.053696,-8.731e-4 0.078036,0.050295 0.046509,0.1111044 0.012808,0.027368 0.010356,0.068174 -0.019637,0.1147218 -0.00168,0.00262 -0.00348,0.00515 -0.00517,0.00775 0.046602,0.00737 0.077002,0.066515 0.035657,0.1477947 -0.00202,0.00397 -0.00415,0.00793 -0.0062,0.011885 0.023432,-0.020281 0.046628,-0.029304 0.067178,-0.029474 0.060761,-5.027e-4 0.096035,0.074642 0.027905,0.1581298 -0.1129307,0.1384258 -0.21187801,0.2879977 -0.31057535,0.436666 -0.0722141,0.1119743 -0.14719128,0.222635 -0.20463867,0.3431315 -0.0474282,0.09948 -0.13245497,0.095049 -0.1550293,0.034623 -0.0464761,-0.00731 -0.0770234,-0.06517 -0.0361735,-0.1462442 0.008057,-0.015991 0.016324,-0.031779 0.0248047,-0.047542 -0.0541555,0.035872 -0.12507606,-0.010303 -0.10386963,-0.1188556 0.003177,-0.016261 0.006372,-0.032389 0.009818,-0.048576 -0.0251862,-0.00206 -0.0489972,-0.019934 -0.061495,-0.053227 -0.0578858,0.1029092 -0.15083827,0.031662 -0.12298992,-0.1095539 0.004687,-0.023767 0.001564,-0.00968 0.009302,-0.037724 -0.0173944,-0.018399 -0.0297558,-0.048538 -0.0304891,-0.091467 -4.4397e-4,-0.026032 -0.001804,-0.03629 0.003101,-0.065112 0.002221,-0.013049 0.005283,-0.025897 0.008268,-0.038758 -0.066595,0.048359 -0.14567261,-0.00863 -0.098702,-0.1214395 0.0161719,-0.038839 0.0350266,-0.076363 0.0552938,-0.1131713 -0.002161,0.00288 -0.00555,0.00768 -0.007235,0.00982 -0.008244,0.010464 -0.0172082,0.020341 -0.0258382,0.030489 -0.0319586,0.037579 -0.06444926,0.052516 -0.09095051,0.051677 V 6.2683514 H 6.2921224 V 3.9604818 c -0.00715,0.0013 -0.014438,0.00269 -0.021704,0.00362 -0.078101,0.01 -0.1578628,0.00267 -0.2351278,-0.010335 -0.015465,-0.00345 -0.030635,-0.00643 -0.045992,-0.010335 C 5.8922587,3.9187543 5.7994333,3.8786432 5.7071456,3.8405932 5.6282855,3.8074182 5.5487337,3.7756566 5.471501,3.7387906 5.422186,3.7152506 5.399015,3.6834536 5.396053,3.6545576 c -1.75e-5,-1.72e-4 1.64e-5,-3.44e-4 0,-5.292e-4 C 5.376982,3.6414134 5.361932,3.6291104 5.341793,3.6132044 5.251463,3.5418614 5.279977,3.4549471 5.350063,3.4524907 5.373127,3.4516705 5.400756,3.4599607 5.430161,3.4809127 5.437291,3.4644027 5.45123,3.4523087 5.469435,3.4468067 5.44056,3.3959027 5.447223,3.3550047 5.472025,3.3351856 5.415219,3.2591286 5.444511,3.1930749 5.49838,3.1873909 5.4986975,3.1731829 5.50278,3.1600929 5.510781,3.1496669 5.495978,3.1218309 5.498658,3.0937849 5.515431,3.0742189 5.484686,3.0468949 5.469014,3.0189479 5.469439,2.9961879 V 2.9956587 C 5.438248,2.9425907 5.446733,2.9006097 5.474609,2.8819704 5.465359,2.8686694 5.46184,2.8524794 5.464789,2.8359784 5.390816,2.7708924 5.412018,2.6917522 5.475642,2.6850831 c 0.021482,-0.00225 0.048445,0.00459 0.077514,0.022222 0.00705,-0.00406 0.014872,-0.00784 0.023254,-0.011369 7.144e-4,-2.91e-4 0.00135,-7.408e-4 0.00206,-0.00103 C 5.4966595,2.6597046 5.41625,2.6211666 5.3417983,2.5719146 5.2437543,2.5070567 5.267847,2.4168958 5.3423275,2.4122345 c 0.00918,-5.795e-4 0.019336,7.831e-4 0.029972,0.0031 0.00865,-0.0096 0.019359,-0.018939 0.032556,-0.027388 -0.091032,-0.011127 -0.1140841,-0.092969 -0.044958,-0.1343587 0.00249,-0.00409 0.00578,-0.00833 0.00878,-0.012402 -0.061186,0.075819 -0.1632516,0.021419 -0.1224732,-0.1043864 0.0051,-0.01574 0.010438,-0.031118 0.016536,-0.046509 0.00392,-0.0089 0.00809,-0.017675 0.012401,-0.026355 -0.017354,-0.014678 -0.025514,-0.038663 -0.020153,-0.066146 -0.080376,0.0283 -0.1340747,-0.042895 -0.081132,-0.1178223 3.175e-4,-5.477e-4 6.879e-4,-0.001 0.00103,-0.00155 0.00108,-0.00175 0.00241,-0.00342 0.00362,-0.00517 0.00127,-0.0016 0.00225,-0.00305 0.00362,-0.00465 0.00217,-0.00289 0.00369,-0.00588 0.0062,-0.00879 -0.026329,-0.011351 -0.040414,-0.03642 -0.037207,-0.065629 -0.029187,0.016108 -0.05859,0.031424 -0.087333,0.048059 -0.0235,0.014067 -0.04499,0.030524 -0.067179,0.046509 -0.099355,0.071577 -0.177428,0.00885 -0.1462442,-0.065629 -0.053657,-0.031124 -0.045973,-0.1131121 0.056327,-0.1477946 0.017219,-0.00584 0.016931,-0.00579 0.025839,-0.00878 0.00303,-0.029369 0.024754,-0.062682 0.070797,-0.088883 0.01456,-0.00829 0.029365,-0.016515 0.043925,-0.024805 0.038019,-0.022656 0.060371,-0.034711 0.096635,-0.060978 0.079524,-0.057642 0.1494245,-0.1267354 0.2211753,-0.1932698 0.1164918,-0.1119679 0.2304799,-0.22645 0.3389974,-0.3462321 0.031241,-0.0344853 0.063361,-0.0489479 0.089917,-0.0490926 0.062894,-3.4396e-4 0.09616,0.0794802 0.02222,0.1612304 -0.00797,0.00881 -0.016259,0.017603 -0.024289,0.026355 0.013449,-0.00489 0.026574,-0.00737 0.03824,-0.00723 0.010671,1.252e-4 0.020362,0.00201 0.028939,0.00568 0.049323,0.00102 0.079934,0.053831 0.037207,0.1369425 -0.00376,0.00732 -0.00778,0.014575 -0.011885,0.021704 0.00177,-0.00222 0.00309,-0.00486 0.00465,-0.00723 0.02957,-0.04504 0.064533,-0.065772 0.094051,-0.067696 0.056353,-0.00367 0.093845,0.060589 0.041858,0.149345 -0.00441,0.00752 -0.00945,0.014201 -0.014986,0.020671 -5.292e-4,0.0138 -0.00463,0.028687 -0.01292,0.043925 0.038413,0.00205 0.1043051,-0.085048 0.1271238,-0.08785 0.00869,-0.00107 0.011015,0.010047 0.0031,0.043408 -0.00331,0.013941 -0.00521,0.028291 -0.00982,0.041858 -0.0051,0.01502 -0.013843,0.03052 -0.023254,0.044958 0.003,-4.286e-4 0.00588,-0.001 0.00878,-0.00103 0.046136,-9.578e-4 0.078475,0.043059 0.060461,0.1033529 0.027791,0.035161 0.01393,0.096697 -0.065112,0.1343587 -0.011875,0.00566 -0.023783,0.010959 -0.035657,0.016536 -0.017153,0.021841 -0.034629,0.043592 -0.052193,0.065112 0.050307,-0.021313 0.1011623,-0.040819 0.1534789,-0.056844 0.016391,-0.00502 0.031747,-0.00808 0.045475,-0.00878 0.04084,-0.00207 0.069356,0.013321 0.082682,0.035657 V 0.01756999 Z M 6.2921224,1.9538859 c -0.010911,0.014439 -0.02231,0.028667 -0.034106,0.042375 -0.00201,0.00749 -0.0042,0.014957 -0.00672,0.022221 0.021741,0.017799 0.036814,0.052438 0.034623,0.1033529 -5.028e-4,0.011884 -9.79e-4,0.023773 -0.00156,0.035657 0.00291,0.00282 0.00547,0.00594 0.00775,0.0093 z m -0.892452,0.223759 c -8.202e-4,0.00259 -0.00177,0.00515 -0.00259,0.00775 -0.0059,0.018682 -0.013639,0.034351 -0.02222,0.047026 4.762e-4,-5.953e-4 0.00106,-9.498e-4 0.00156,-0.00155 0.014026,-0.017124 0.027775,-0.034447 0.042375,-0.05116 -0.00676,2.77e-5 -0.013139,-4.974e-4 -0.019121,-0.00207 z m 0.892452,0.06873 c -0.00334,0.00672 -0.00737,0.013276 -0.012401,0.020154 v 5.16e-4 c -9.525e-4,0.052838 -0.00146,0.1058451 -5.292e-4,0.1586466 0.00209,0.048684 0.0072,0.097026 0.00878,0.1457276 -7.673e-4,0.029656 2.91e-4,0.015339 -0.00156,0.042375 -0.00108,0.016014 -0.00389,0.030361 -0.00775,0.042892 0.00512,0.00639 0.00979,0.012848 0.013436,0.019119 z M 0.05736084,2.7915608 v 0.013435 c 6.9374e-4,-1.447e-4 0.0013734,-3.704e-4 0.0020669,-5.291e-4 0.01437513,-0.00198 0.02896351,-0.00348 0.0434082,-0.00517 -0.01520441,-0.00259 -0.03024881,-0.00529 -0.04547526,-0.00775 z M 6.212024,3.6710937 c 0.00225,3.44e-4 0.00446,6.88e-4 0.00672,0.00103 0.03184,0.00488 0.056224,0.015542 0.073381,0.028939 v -0.023254 c -0.026812,-0.00169 -0.053369,-0.00422 -0.080098,-0.00672 z" />
    </clipPath>
  </defs>
  <g
     inkscape:label="Lager 1"
     inkscape:groupmode="layer"
     id="layer1">
    <path
       style="fill:#ffffff;fill-opacity:0;stroke:#f7f7f7;stroke-width:0.66145833;stroke-dasharray:none"
       id="path10112"
       sodipodi:type="arc"
       sodipodi:cx="3.1745436"
       sodipodi:cy="3.1428776"
       sodipodi:rx="2.7866318"
       sodipodi:ry="2.7945483"
       sodipodi:start="0"
       sodipodi:end="6.2730432"
       sodipodi:open="true"
       sodipodi:arc-type="arc"
       d="M 5.9611754,3.1428776 A 2.7866318,2.7945483 0 0 1 3.1816092,5.9374169 2.7866318,2.7945483 0 0 1 0.38794763,3.1570488 2.7866318,2.7945483 0 0 1 3.1533471,0.34841015 2.7866318,2.7945483 0 0 1 5.9610321,3.1145355"
       clip-path="url(#clipPath12375)" />
    <path
       sodipodi:type="star"
       style="fill:#ffffff;fill-opacity:0;stroke:#f7f7f7;stroke-width:0.661458;stroke-dasharray:none"
       id="path10450"
       inkscape:flatsided="true"
       sodipodi:sides="3"
       sodipodi:cx="4.2591133"
       sodipodi:cy="1.8445603"
       sodipodi:r1="0.73334086"
       sodipodi:r2="0.36667043"
       sodipodi:arg1="0.7930316"
       sodipodi:arg2="1.8402292"
       inkscape:rounded="0"
       inkscape:randomized="0"
       d="M 4.7736902,2.3670537 3.5493322,2.0289502 4.4543175,1.1376769 Z"
       inkscape:transform-center-x="0.17206763"
       inkscape:transform-center-y="-0.012880175"
       transform="rotate(12.549578,6.4624294,5.646483)" />
    <path
       sodipodi:type="star"
       style="fill:#ffffff;fill-opacity:0;stroke:#f7f7f7;stroke-width:0.661458;stroke-dasharray:none"
       id="path10450-3"
       inkscape:flatsided="true"
       sodipodi:sides="3"
       sodipodi:cx="4.2591133"
       sodipodi:cy="1.8445603"
       sodipodi:r1="0.73334086"
       sodipodi:r2="0.36667043"
       sodipodi:arg1="0.7930316"
       sodipodi:arg2="1.8402292"
       inkscape:rounded="0"
       inkscape:randomized="0"
       d="M 4.7736902,2.3670537 3.5493322,2.0289502 4.4543175,1.1376769 Z"
       inkscape:transform-center-x="-0.16002657"
       inkscape:transform-center-y="0.026366517"
       transform="rotate(70.439056,0.56099352,1.2571324)" />
  </g>
</svg>
