<?xml version="1.0" encoding="utf-8"?>
<svg version="1.0" width="200.000000pt" height="200.000000pt" viewBox="0 0 200.000000 200.000000" preserveAspectRatio="xMidYMid meet" xmlns="http://www.w3.org/2000/svg">
  <g transform="translate(0.000000,200.000000) scale(0.100000,-0.100000)" fill="#000000" stroke="none">
    <path d="M446 1818 c-12 -17 -16 -48 -16 -125 l0 -103 -97 0 c-120 0 -147 -11 -151 -62 -5 -56 20 -68 145 -68 l103 0 0 -190 0 -190 -103 0 c-121 0 -147 -11 -147 -65 0 -54 26 -65 147 -65 l103 0 0 -190 0 -190 -108 0 c-122 0 -142 -10 -142 -66 0 -49 13 -54 137 -54 l113 0 0 -109 c0 -84 3 -113 15 -125 25 -25 54 -29 80 -12 l25 16 0 794 c0 755 -1 794 -18 809 -26 24 -68 21 -86 -5z" style="fill: rgb(255, 255, 255);"/>
    <path d="M957 1822 c-14 -15 -17 -40 -17 -125 l0 -107 -172 -2 -173 -3 -3 -62 -3 -63 176 0 175 0 0 -190 0 -190 -175 0 -176 0 3 -62 3 -63 174 -3 173 -2 38 34 c21 19 48 39 59 46 21 11 21 16 21 394 0 358 -1 384 -18 399 -24 22 -65 21 -85 -1z" style="fill: rgb(255, 255, 255);"/>
    <path d="M1466 1824 c-13 -12 -16 -39 -16 -125 l0 -109 -175 0 -175 0 0 -65 0 -65 175 0 175 0 0 -174 0 -174 48 -13 c26 -7 53 -15 60 -17 9 -3 12 73 12 355 0 308 -2 362 -16 381 -18 26 -65 30 -88 6z" style="fill: rgb(255, 255, 255);"/>
    <path d="M1600 1525 l0 -65 88 0 c109 0 135 14 130 68 -4 49 -32 62 -135 62 l-83 0 0 -65z" style="fill: rgb(255, 255, 255);"/>
    <path d="M1600 1072 c0 -12 147 -122 163 -122 30 0 57 31 57 65 0 52 -27 65 -132 65 -49 0 -88 -4 -88 -8z" style="fill: rgb(255, 255, 255);"/>
    <path d="M1223 1035 c-157 -42 -285 -167 -333 -322 -18 -58 -20 -93 -20 -309 l0 -244 150 0 150 0 0 213 c0 117 5 229 11 250 21 77 117 137 194 123 44 -9 94 -44 122 -85 22 -33 23 -41 23 -267 l0 -234 155 0 155 0 0 228 c0 254 -9 316 -62 414 -36 69 -133 163 -202 197 -104 51 -235 65 -343 36z m-143 -670 l0 -125 -65 0 -65 0 0 125 0 125 65 0 65 0 0 -125z m650 0 l0 -125 -60 0 -60 0 0 125 0 125 60 0 60 0 0 -125z" style="fill: rgb(255, 255, 255);"/>
    <path d="M590 510 l0 -60 105 0 105 0 0 60 0 60 -105 0 -105 0 0 -60z" style="fill: rgb(255, 255, 255);"/>
    <path d="M1240 510 l0 -60 105 0 105 0 0 60 0 60 -105 0 -105 0 0 -60z" style="fill: rgb(255, 255, 255);"/>
  </g>
</svg>