<?xml version="1.0" encoding="utf-8"?>
<!-- Generator: Adobe Illustrator 15.0.2, SVG Export Plug-In . SVG Version: 6.00 Build 0)  -->
<!DOCTYPE svg PUBLIC "-//W3C//DTD SVG 1.1//EN" "http://www.w3.org/Graphics/SVG/1.1/DTD/svg11.dtd">
<svg version="1.1" id="Layer_1" xmlns="http://www.w3.org/2000/svg" xmlns:xlink="http://www.w3.org/1999/xlink" x="0px" y="0px"
	 width="24px" height="24px" viewBox="0 0 24 24" enable-background="new 0 0 24 24" xml:space="preserve">
<line fill="none" stroke="#000000" stroke-miterlimit="10" x1="-467.5" y1="-144.5" x2="-465.5" y2="-142.5"/>
<g>
	<path fill="#FFFFFF" d="M11.125,16.176c0-0.623-0.51-1.134-1.134-1.134H8.509c-0.624,0-1.134,0.511-1.134,1.134v3.732
		c0,0.623,0.51,1.134,1.134,1.134h1.482c0.624,0,1.134-0.511,1.134-1.134V16.176z"/>
</g>
<g>
	<path fill="#FFFFFF" d="M6.577,10.573h10.642c0.312,0,0.567-0.255,0.567-0.567V2.292H6.01v7.714
		C6.01,10.318,6.265,10.573,6.577,10.573z"/>
	<path fill="#FFFFFF" d="M19.354,2.292h-0.832l0.014,8.526c0.001,0.312-0.253,0.567-0.564,0.567H5.849
		c-0.312,0-0.567-0.255-0.567-0.567V2.292H4.585c-1.56,0-2.835,1.275-2.835,2.835v13.33c0,1.561,1.275,2.835,2.835,2.835h0.968
		c-0.103-0.171-0.178-0.358-0.178-0.571v-5.42c0-0.623,0.51-1.134,1.134-1.134h8.482c0.624,0,1.134,0.511,1.134,1.134v5.42
		c0,0.213-0.075,0.4-0.178,0.571h3.404c1.561,0,2.836-1.274,2.836-2.835V5.127C22.188,3.567,20.912,2.292,19.354,2.292z"/>
</g>
</svg>
