<?xml version="1.0" encoding="utf-8"?>
<!-- Generator: Adobe Illustrator 16.0.3, SVG Export Plug-In . SVG Version: 6.00 Build 0)  -->
<!DOCTYPE svg PUBLIC "-//W3C//DTD SVG 1.1//EN" "http://www.w3.org/Graphics/SVG/1.1/DTD/svg11.dtd">
<svg version="1.1" id="Layer_1" xmlns="http://www.w3.org/2000/svg" xmlns:xlink="http://www.w3.org/1999/xlink" x="0px" y="0px"
	 width="89.5px" height="100px" viewBox="10.5 9.5 89.5 100" enable-background="new 10.5 9.5 89.5 100" xml:space="preserve">
<path fill="none" stroke="#929292" stroke-width="8" stroke-miterlimit="10" d="M27.632,44.853
	c0-16.794,12.242-30.384,27.372-30.384"/>
<path fill="#929292" d="M85.513,43.408H25.231c-6.549,0-11.858,5.057-11.858,11.294v41.411c0,6.237,5.311,11.295,11.858,11.295
	h60.282c6.549,0,11.857-5.058,11.857-11.295V54.702C97.371,48.465,92.061,43.408,85.513,43.408z M56.82,74.638h0.051v12.206h-3.452
	V74.638h0.004c-4.687-1.587-4.121-9.73,1.698-9.73C60.941,64.908,61.507,73.052,56.82,74.638z"/>
<path fill="none" stroke="#929292" stroke-width="8" stroke-miterlimit="10" d="M83.111,44.853
	c0-16.794-12.851-30.384-28.732-30.384"/>
</svg>
