<?xml version="1.0" encoding="utf-8"?>
<!-- Generator: Adobe Illustrator 16.0.4, SVG Export Plug-In . SVG Version: 6.00 Build 0)  -->
<!DOCTYPE svg PUBLIC "-//W3C//DTD SVG 1.1//EN" "http://www.w3.org/Graphics/SVG/1.1/DTD/svg11.dtd">
<svg version="1.1" id="Layer_1" xmlns="http://www.w3.org/2000/svg" xmlns:xlink="http://www.w3.org/1999/xlink" x="0px" y="0px"
	 width="84px" height="84px" viewBox="0 0 84 84" enable-background="new 0 0 84 84" xml:space="preserve">
<g opacity="0.5">
	<path d="M66.882,30.667h-1.025v-3.788c0-13.177-10.682-23.859-23.859-23.859c-13.177,0-23.854,10.682-23.854,23.859v3.788h-1.025
		c-2.91,0-5.269,2.095-5.269,4.679v44.179c0,2.582,2.359,4.678,5.269,4.678h49.764c2.91,0,5.27-2.096,5.27-4.678V35.347
		C72.151,32.763,69.792,30.667,66.882,30.667z M25.422,26.879h0.037c0-9.136,7.406-16.543,16.543-16.543
		c9.137,0,16.543,7.407,16.543,16.543h0.033v3.788H25.422V26.879z M65.003,71.619c0,2.352-2.094,4.258-4.678,4.258h-36.65
		c-2.584,0-4.679-1.906-4.679-4.258V43.25c0-2.349,2.095-4.257,4.679-4.257h36.65c2.584,0,4.678,1.908,4.678,4.257V71.619z"/>
	<path d="M48.362,53.311c0-3.631-2.943-6.574-6.574-6.574c-3.632,0-6.575,2.943-6.575,6.574c0,2.293,1.174,4.307,2.952,5.482
		l-1.754,9.332h5.312h0.129h5.314l-1.754-9.332C47.192,57.617,48.362,55.602,48.362,53.311z"/>
</g>
<g>
	<path fill="#FFFFFF" d="M64.035,27.852H63.01v-3.788c0-13.177-10.683-23.859-23.859-23.859S15.296,10.886,15.296,24.063v3.788
		h-1.025c-2.91,0-5.269,2.095-5.269,4.679v44.181c0,2.583,2.359,4.678,5.269,4.678h49.765c2.91,0,5.269-2.095,5.269-4.678V32.531
		C69.304,29.947,66.945,27.852,64.035,27.852z M22.575,24.063h0.037c0-9.136,7.406-16.543,16.544-16.543
		c9.136,0,16.542,7.407,16.542,16.543h0.033v3.788H22.575V24.063z M62.156,68.806c0,2.353-2.094,4.258-4.678,4.258h-36.65
		c-2.584,0-4.679-1.905-4.679-4.258v-28.37c0-2.351,2.095-4.259,4.679-4.259h36.65c2.584,0,4.678,1.908,4.678,4.259V68.806z"/>
	<path fill="#FFFFFF" d="M45.515,50.497c0-3.63-2.943-6.573-6.573-6.573c-3.633,0-6.576,2.943-6.576,6.573
		c0,2.294,1.174,4.307,2.952,5.483l-1.754,9.332h5.312h0.13h5.314l-1.755-9.332C44.345,54.804,45.515,52.788,45.515,50.497z"/>
</g>
</svg>
