<?xml version="1.0" encoding="utf-8"?>
<!-- Generator: Adobe Illustrator 22.1.0, SVG Export Plug-In . SVG Version: 6.00 Build 0)  -->
<svg version="1.1" id="Layer_1" xmlns="http://www.w3.org/2000/svg" xmlns:xlink="http://www.w3.org/1999/xlink" x="0px" y="0px"
	 viewBox="0 0 400 400" style="enable-background:new 0 0 400 400;" xml:space="preserve">
<style type="text/css">
	.st0{fill:none;stroke:#FFFFFF;stroke-width:35;stroke-miterlimit:10;}
	.st1{fill:#FFFFFF;}
</style>
<path class="st0" d="M327,137.4v73.9"/>
<path class="st0" d="M327,211.2v122.3c0.1,13.3-10,24.1-22.4,24.1H112.2c-12.5,0-22.4-10.8-22.4-24v-248c0-13.1,10.2-24,22.4-24
	l157.2-1.9"/>
<path class="st1" d="M244.9,64l24-21.9c0.1-0.1,0.4-0.1,0.5,0l74.9,94.5c0.2,0.3,0.2,0.8,0.1,1.2l-6.3,35.5c0,0.3-0.4,0.4-0.6,0.2
	l-92.8-109C244.8,64.3,244.8,64.1,244.9,64z"/>
<rect x="238" y="61.5" class="st1" width="19" height="17.2"/>
<path class="st0" d="M324.2,177.7h-91.4c-4.2,0-7.5-3.3-7.5-7.5V74.5"/>
</svg>
