<svg height="512pt" viewBox="-61 0 512 512" width="512pt" xmlns="http://www.w3.org/2000/svg"><path d="m244.339844 253.867188c4.773437 1.726562 10.101562.921874 14.152344-2.144532 4.050781-3.066406 6.273437-7.972656 5.910156-13.039062l-3.664063-50.777344 31.261719-40.175781c3.117188-4.011719 3.996094-9.328125 2.335938-14.125-1.664063-4.800781-5.648438-8.429688-10.578126-9.648438l-49.421874-12.210937-28.550782-42.144532c-2.851562-4.207031-7.632812-6.6875-12.714844-6.582031-5.078124.097657-9.761718 2.761719-12.441406 7.074219l-26.882812 43.230469-48.90625 14.128906c-4.878906 1.410156-8.714844 5.195313-10.191406 10.058594-1.472657 4.859375-.386719 10.136719 2.882812 14.019531l32.808594 38.925781-1.671875 50.878907c-.167969 5.078124 2.246093 9.894531 6.414062 12.800781 4.175781 2.90625 9.527344 3.5 14.226563 1.589843l47.160156-19.175781zm-53.835938-47.273438-31.09375 12.640625 1.105469-33.546875c.121094-3.707031-1.132813-7.324219-3.523437-10.160156l-21.632813-25.664063 32.246094-9.316406c3.5625-1.027344 6.617187-3.339844 8.574219-6.488281l17.722656-28.503906 18.828125 27.789062c2.078125 3.066406 5.222656 5.257812 8.820312 6.148438l32.585938 8.046874-20.609375 26.492188c-2.277344 2.925781-3.390625 6.589844-3.125 10.289062l2.414062 33.476563-31.5625-11.414063c-3.488281-1.261718-7.316406-1.1875-10.75.210938zm0 0"/><path d="m332.734375 407.421875c-24.511719-6.796875-55.976563-11.589844-90.492187-13.882813 55.21875-81.933593 83.734374-123.082031 99.621093-153.925781 15.246094-29.605469 18.136719-49.0625 18.136719-74.613281 0-90.980469-74.019531-165-165-165s-165 74.019531-165 165c0 57.894531 15.015625 76.050781 117.761719 228.539062-34.519531 2.292969-65.980469 7.085938-90.496094 13.882813-24.183594 6.707031-57.265625 19.441406-57.265625 44.578125 0 26.960938 37.867188 39.816406 64.082031 46.371094 35.152344 8.789062 81.648438 13.628906 130.917969 13.628906s95.765625-4.839844 130.917969-13.628906c26.207031-6.550782 64.082031-19.410156 64.082031-46.371094 0-25.136719-33.085938-37.871094-57.265625-44.578125zm-272.734375-242.421875c0-74.4375 60.5625-135 135-135s135 60.5625 135 135c0 44.953125-10.5625 60.59375-92.765625 182.324219-12.578125 18.625-26.492187 39.230469-42.234375 62.710937-15.542969-23.183594-29.304688-43.566406-41.746094-62-82.636718-122.417968-93.253906-138.148437-93.253906-183.035156zm251.648438 305.921875c-31.96875 7.144531-73.394532 11.078125-116.648438 11.078125s-84.679688-3.933594-116.648438-11.078125c-34.496093-7.710937-44.941406-16.019531-47.675781-18.921875 2.546875-2.707031 11.816407-10.113281 41.195313-17.394531 25.800781-6.394531 59.417968-10.628907 95.398437-12.058594 4.902344 7.308594 9.984375 14.894531 15.257813 22.789063 2.785156 4.164062 7.464844 6.664062 12.472656 6.664062s9.6875-2.5 12.472656-6.664062c5.273438-7.898438 10.355469-15.484376 15.257813-22.789063 35.984375 1.429687 69.597656 5.660156 95.398437 12.058594 29.378906 7.28125 38.648438 14.6875 41.195313 17.394531-2.730469 2.902344-13.179688 11.210938-47.675781 18.921875zm0 0"/></svg>