<?xml version="1.0" encoding="utf-8"?>
<!-- Generator: Adobe Illustrator 22.1.0, SVG Export Plug-In . SVG Version: 6.00 Build 0)  -->
<svg version="1.1" id="Layer_1" xmlns="http://www.w3.org/2000/svg" xmlns:xlink="http://www.w3.org/1999/xlink" x="0px" y="0px"
	 viewBox="0 0 400 400" style="enable-background:new 0 0 400 400;" xml:space="preserve">
<style type="text/css">
	.st0{fill:#FFFFFF;}
	.st1{fill:#614875;}
</style>
<g>
	<path class="st0" d="M116.2,295.4l-50.1-0.8c-33.8,0-61.5-27.7-61.5-61.5V130.5C4.6,96.7,32.2,69,66.1,69h249.8
		c33.8,0,61.5,27.7,61.5,61.5V233c0,33.8-27.7,61.5-61.5,61.5l-130.6,0.8"/>
	<path class="st0" d="M86.2,280.4l-4.4,78.3c-0.2,3.8,7.4,6.4,10.5,3.6l91.1-81.1l0.3-0.2"/>
</g>
<path class="st1" d="M46.4,146v-29c0-6.6,5.4-12,12-12h228c6.6,0,12,5.4,12,12v29c0,6.6-5.4,12-12,12h-228
	C51.8,158,46.4,152.6,46.4,146z"/>
<path class="st1" d="M46.4,223v-29c0-6.6,5.4-12,12-12h116c6.6,0,12,5.4,12,12v29c0,6.6-5.4,12-12,12h-116
	C51.8,235,46.4,229.6,46.4,223z"/>
<path class="st1" d="M216.4,223v-29c0-6.6,5.4-12,12-12h36c6.6,0,12,5.4,12,12v29c0,6.6-5.4,12-12,12h-36
	C221.8,235,216.4,229.6,216.4,223z"/>
</svg>
