<?xml version="1.0" encoding="utf-8"?>
<!-- Generator: Adobe Illustrator 16.0.4, SVG Export Plug-In . SVG Version: 6.00 Build 0)  -->
<!DOCTYPE svg PUBLIC "-//W3C//DTD SVG 1.1//EN" "http://www.w3.org/Graphics/SVG/1.1/DTD/svg11.dtd">
<svg version="1.1" id="Layer_1" xmlns="http://www.w3.org/2000/svg" xmlns:xlink="http://www.w3.org/1999/xlink" x="0px" y="0px"
	 width="37.678px" height="37.463px" viewBox="0 0 37.678 37.463" enable-background="new 0 0 37.678 37.463" xml:space="preserve">
<path fill="#FFFFFF" d="M30.781,11.482h-4.967V3.715c0-1.009-0.918-1.827-2.051-1.827s-2.05,0.818-2.05,1.827v7.767h-6.256V3.715
	c0-1.009-0.918-1.827-2.052-1.827c-1.132,0-2.051,0.818-2.051,1.827v7.767H6.995v7.708H7c-0.001,0.026-0.004,0.053-0.004,0.077
	c0,1.348,1.227,2.441,2.741,2.441v0.029h1.763l1.266,4.942c-0.007,0.043-0.015,0.086-0.015,0.131c0,0.503,0.458,0.91,1.023,0.91
	h3.283c-0.626,2.658-3.276,4.658-6.442,4.658c-0.071,0-0.137,0.012-0.206,0.019H6.141v2.998h4.135
	c0.11,0.018,0.222,0.029,0.338,0.029c5.056,0,9.26-3.358,9.923-7.704h2.998l0,0l0,0c0.563,0,1.021-0.407,1.021-0.91h0.028
	l1.298-5.073h2.156v-0.029c1.514,0,2.74-1.095,2.74-2.441c0-0.024-0.004-0.051-0.005-0.077h0.006V11.482z"/>
</svg>
