<?xml version="1.0" encoding="utf-8"?>
<!-- Generator: Adobe Illustrator 16.0.4, SVG Export Plug-In . SVG Version: 6.00 Build 0)  -->
<!DOCTYPE svg PUBLIC "-//W3C//DTD SVG 1.1//EN" "http://www.w3.org/Graphics/SVG/1.1/DTD/svg11.dtd">
<svg version="1.1" id="Layer_1" xmlns="http://www.w3.org/2000/svg" xmlns:xlink="http://www.w3.org/1999/xlink" x="0px" y="0px"
	 width="37.678px" height="37.463px" viewBox="0.823 1.269 37.678 37.463" enable-background="new 0.823 1.269 37.678 37.463"
	 xml:space="preserve">
<g>
	<path fill="#FFFFFF" d="M22.181,2.39h-9.619c-1.866,0-3.385,1.298-3.385,2.895v26.62c0,1.598,1.519,2.896,3.385,2.896H28.15
		c-0.052,0.617-0.654,1.107-1.389,1.107H9.516c-0.77,0-1.395-0.535-1.395-1.191V8.095c0-0.558,0.45-1.026,1.056-1.155V5.214
		C7.469,5.36,6.13,6.596,6.13,8.095v26.622c0,1.596,1.519,2.895,3.386,2.895h17.246c1.838,0,3.336-1.262,3.38-2.826
		c1.71-0.143,3.052-1.381,3.052-2.881V11.679L22.181,2.39z M22.181,4.781l8.177,6.897h-6.783c-0.768,0-1.394-0.535-1.394-1.192
		V4.781z M31.201,31.904c0,0.658-0.625,1.193-1.394,1.193H12.562c-0.768,0-1.394-0.535-1.394-1.193V5.284
		c0-0.657,0.626-1.192,1.394-1.192h7.629v6.394c0,1.597,1.519,2.896,3.384,2.896h7.627V31.904z"/>
	<path fill="#FFFFFF" d="M29.15,24.365H13.22c-0.549,0-0.996,0.381-0.996,0.852c0,0.469,0.447,0.852,0.996,0.852H29.15
		c0.549,0,0.995-0.383,0.995-0.852C30.146,24.746,29.699,24.365,29.15,24.365z"/>
	<path fill="#FFFFFF" d="M12.224,17.609c0,0.47,0.447,0.852,0.996,0.852h11.157c0.551,0,0.995-0.382,0.995-0.852
		c0-0.471-0.444-0.852-0.995-0.852H13.22C12.671,16.757,12.224,17.139,12.224,17.609z"/>
	<path fill="#FFFFFF" d="M12.224,21.412c0,0.471,0.447,0.852,0.996,0.852H29.15c0.549,0,0.995-0.381,0.995-0.852
		c0-0.469-0.446-0.852-0.995-0.852H13.22C12.671,20.561,12.224,20.943,12.224,21.412z"/>
</g>
</svg>
