<?xml version="1.0" encoding="utf-8"?>
<!-- Generator: Adobe Illustrator 22.1.0, SVG Export Plug-In . SVG Version: 6.00 Build 0)  -->
<svg version="1.1"
	 id="svg3742" inkscape:version="0.92.5 (2060ec1f9f, 2020-04-08)" sodipodi:docname="filter_icon.svg" xmlns:cc="http://creativecommons.org/ns#" xmlns:dc="http://purl.org/dc/elements/1.1/" xmlns:inkscape="http://www.inkscape.org/namespaces/inkscape" xmlns:rdf="http://www.w3.org/1999/02/22-rdf-syntax-ns#" xmlns:sodipodi="http://sodipodi.sourceforge.net/DTD/sodipodi-0.dtd" xmlns:svg="http://www.w3.org/2000/svg"
	 xmlns="http://www.w3.org/2000/svg" xmlns:xlink="http://www.w3.org/1999/xlink" x="0px" y="0px" viewBox="0 0 13.9 12.6"
	 style="enable-background:new 0 0 13.9 12.6;" xml:space="preserve">
<style type="text/css">
	.st0{opacity:0.22;}
	.st1{fill:#FFFFFF;}
</style>
<sodipodi:namedview  bordercolor="#666666" borderopacity="1" fit-margin-bottom="0" fit-margin-left="0" fit-margin-right="0" fit-margin-top="0" gridtolerance="10" guidetolerance="10" id="namedview3744" inkscape:current-layer="svg3742" inkscape:cx="21.89238" inkscape:cy="-0.92326974" inkscape:pageopacity="0" inkscape:pageshadow="2" inkscape:window-height="1017" inkscape:window-maximized="1" inkscape:window-width="1920" inkscape:window-x="1912" inkscape:window-y="-8" inkscape:zoom="6.9532167" objecttolerance="10" pagecolor="#ffffff" showgrid="false" showguides="false">
	</sodipodi:namedview>
<title  id="title3734">Foundation / Icon / 24 / Control / Filter / Default</title>
<path id="path3873-6_1_" inkscape:connector-curvature="0" class="st0" d="M4.5,1.2C3.8,1.2,3.2,1.8,3,2.6H1.9v1.1h1.2
	c0.2,0.7,0.8,1.1,1.5,1.1S5.8,4.4,6,3.7h8.7V2.6H6.2C6,1.8,5.4,1.2,4.5,1.2z M10.1,5.6C9.4,5.6,8.7,6.2,8.5,7H2v1.1h6.6
	c0.2,0.7,0.8,1.1,1.6,1.1c0.6,0,1.3-0.4,1.6-1.1h3.2V7h-3C11.5,6.2,10.8,5.6,10.1,5.6z M6.9,10c-0.6,0-1.3,0.6-1.5,1.2H2v1.1h3.5
	c0.2,0.7,0.8,1.2,1.5,1.2c0.7,0,1.4-0.6,1.6-1.2h6.2v-1.1H8.5C8.3,10.6,7.7,10,6.9,10z"/>
<path id="path3873-6" inkscape:connector-curvature="0" class="st1" d="M3.1,0.1c-0.7,0-1.4,0.5-1.6,1.3H0.4v1.1h1.2
	C1.8,3,2.4,3.5,3.1,3.5S4.3,3,4.5,2.4h8.7V1.4H4.7C4.5,0.6,3.9,0.1,3.1,0.1z M8.6,4.2c-0.7,0-1.4,0.5-1.6,1.3H0.5v1.1h6.6
	C7.4,7.1,8,7.6,8.7,7.6c0.6,0,1.3-0.4,1.6-1.1h3.2V5.5h-3C10,4.7,9.4,4.2,8.6,4.2z M5.5,8.3C4.8,8.3,4.2,8.8,4,9.4H0.5v1.1H4
	c0.2,0.6,0.8,1.2,1.5,1.2c0.7,0,1.4-0.5,1.6-1.2h6.2V9.4H7.1C6.8,8.8,6.2,8.3,5.5,8.3z"/>
</svg>
