<?xml version="1.0" encoding="utf-8"?>
<!-- Generator: Adobe Illustrator 16.0.4, SVG Export Plug-In . SVG Version: 6.00 Build 0)  -->
<!DOCTYPE svg PUBLIC "-//W3C//DTD SVG 1.1//EN" "http://www.w3.org/Graphics/SVG/1.1/DTD/svg11.dtd">
<svg version="1.1" id="Layer_1" xmlns="http://www.w3.org/2000/svg" xmlns:xlink="http://www.w3.org/1999/xlink" x="0px" y="0px"
	 width="16px" height="16px" viewBox="0 0 16 16" enable-background="new 0 0 16 16" xml:space="preserve">
<g id="Layer_1_1_">
</g>
<g id="Layer_2">
	<path d="M15.666,6.697c-0.238-0.553-0.589-0.827-0.912-0.963c0.102-0.091,0.186-0.186,0.251-0.286
		c0.185-0.278,0.174-0.518,0.161-0.604c-0.014-0.111-0.011-0.236-0.006-0.374c0.011-0.397,0.024-0.892-0.345-1.306
		c-0.346-0.391-0.937-0.582-1.86-0.601l-0.453-0.005c-1.218,0-2.103,0.105-2.601,0.186C9.772,2.542,9.668,2.38,9.646,2.339
		C9.148,1.423,8.457,1.116,7.809,0.93c-0.287-0.113-0.589-0.171-0.9-0.171c-1.007,0-1.911,0.607-2.304,1.546
		c-0.263,0.63-0.674,1.135-1.109,1.667L3.25,4.274c-0.142,0.18-0.25,0.354-0.395,0.588L2.823,4.913L2.606,4.914
		C2.312,4.848,2.062,4.815,1.84,4.815c-1.419,0-1.542,1.355-1.583,1.8c-0.21,2.314-0.184,4.334,0.08,6.178
		c0.125,0.866,0.673,1.051,1.189,1.051c0.003,0,0.005,0,0.008,0c0.023,0,0.549,0.001,1.529,0.09
		c0.301,0.396,0.724,0.646,1.257,0.746c0.46,0.088,0.74,0.202,1.041,0.326c0.378,0.156,0.77,0.317,1.462,0.387
		c1.021,0.099,2.136,0.145,3.508,0.145c0.366,0,0.767-0.002,1.224-0.01c0.505-0.006,1.072-0.2,1.689-0.576
		c0.73-0.445,1.026-1.265,0.807-2.22c0.447-0.401,0.745-0.771,0.94-1.171l0.078-0.175c0.209-0.531,0.228-1.098,0.054-1.687
		c-0.044-0.147-0.098-0.289-0.159-0.441l0.513-0.342c0.118-0.064,0.406-0.26,0.524-0.688C16.123,7.776,16.004,7.25,15.666,6.697z
		 M12.502,3.651l0.434,0.004c0.817,0.018,1.048,0.18,1.109,0.249c0.081,0.091,0.074,0.306,0.065,0.565
		c-0.003,0.127-0.006,0.256,0.004,0.386c-0.109,0.117-0.55,0.47-2.055,0.778c-0.088-0.396-0.412-0.735-0.863-1.204
		c-0.181-0.188-0.384-0.402-0.601-0.647c-0.006-0.006-0.013-0.016-0.022-0.028C11.051,3.699,11.698,3.651,12.502,3.651z
		 M6.315,4.829c-0.14,0.32,0.092,0.51,0.167,0.552C7.18,5.773,6.923,5.773,7.37,6.481l0.095,0.149
		C7.838,7.217,7.95,7.851,7.774,8.37c-0.155,0.457-0.515,0.797-1.04,0.984C6.359,9.487,5.966,9.561,5.549,9.636L5.117,9.719
		C4.984,9.746,4.85,9.764,4.701,9.782L4.424,9.819l-0.036,0.542l0.5,0.142c0.347,0.096,0.672,0.187,0.992,0.293
		c1.208,0.401,1.708,1.082,1.782,2.423C7.684,13.59,7.97,14.084,8.3,14.4c-0.485-0.022-0.941-0.056-1.381-0.098
		c-0.54-0.053-0.819-0.168-1.173-0.314c-0.298-0.123-0.669-0.275-1.239-0.384c-0.333-0.062-0.555-0.211-0.697-0.462l-0.133-0.247
		l-0.272-0.029c-1.132-0.111-1.758-0.117-1.872-0.117H1.511L1.409,12.77c-0.001-0.003-0.018-0.032-0.033-0.142
		c-0.255-1.776-0.278-3.653-0.073-5.911C1.376,5.908,1.57,5.908,1.84,5.908c0.152,0,0.342,0.026,0.624,0.085l0.893,0.018
		l0.163-0.223c0.1-0.14,0.182-0.273,0.272-0.42c0.084-0.136,0.165-0.266,0.267-0.394l0.253-0.312C4.772,4.096,5.248,3.51,5.569,2.74
		C5.795,2.2,6.32,1.851,6.909,1.851c0.183,0,0.364,0.034,0.583,0.122C7.959,2.107,8.406,2.277,8.73,2.88
		c0.068,0.121,0.954,1.487,1.086,1.638c0.227,0.255,0.895,0.995,1.099,1.208c0.303,0.313,0.349,0.409,0.351,0.438
		c-0.021,0.166-0.295,0.452-0.443,0.606c-0.217,0.226-0.392,0.336-0.536,0.336c-0.132,0-0.294-0.088-0.532-0.293
		c-0.627-0.54-1.119-0.826-1.431-1.585C8.237,5.022,8.01,4.826,7.797,4.773C7.434,4.68,7.814,4.834,7.327,4.618
		C6.841,4.402,6.315,4.829,6.315,4.829z M12.748,13.911c-0.022,0.013-0.107,0.041-0.169,0.049l-0.486-0.014
		c-0.277-0.006-0.536-0.012-0.587-0.017c-0.212-0.021-0.425-0.037-0.639-0.054c-0.468-0.037-0.952-0.075-1.41-0.164
		c-0.653-0.129-0.688-0.479-0.647-0.768c0.064-0.435,0.185-0.548,0.585-0.548L9.508,12.4c0.171,0.01,0.39,0.014,0.639,0.018
		c0.871,0.013,2.493,0.037,2.834,0.514c0.013,0.026,0.036,0.088,0.041,0.104C13.121,13.436,13.108,13.693,12.748,13.911z
		 M14.066,11.038c-0.089,0.193-0.089,0.193-0.282,0.378l-0.028,0.037c-0.078,0.043-0.403,0.143-0.486,0.145
		c-1.094-0.039-2.628-0.188-3.731-0.364c-0.268-0.042-0.625-0.375-0.797-0.742c-0.113-0.243-0.087-0.527,0.071-0.78
		c0.162-0.258,0.426-0.418,0.691-0.418h0.001c0.587,0.004,1.143,0.041,1.697,0.078c0.587,0.039,1.173,0.078,1.788,0.078l0.184-0.001
		c0.248,0,0.532,0.028,0.744,0.313l0.064,0.142C14.112,10.173,14.29,10.542,14.066,11.038z M14.974,7.958l-0.356,0.246
		c-0.355,0.13-0.837,0.196-1.434,0.196c-0.317,0-0.609-0.018-0.856-0.033l-0.535-0.029c-0.844-0.044-1.717-0.09-2.555-0.232
		C8.97,8.06,8.794,7.954,8.715,7.793c-0.076-0.155-0.068-0.37,0.019-0.622c0.014,0.01,0.027,0.02,0.04,0.03
		c0.354,0.271,1.225,0.946,1.615,0.946c0.444,0,0.847-0.193,1.136-0.545c0.005-0.006,0.052-0.058,0.185-0.139
		c0.174,0,0.143-0.337,0.512-0.698c0.156-0.153,0.504-0.111,0.553-0.118c0.431,0.025,0.816,0.039,1.176,0.039
		c0.376,0,0.598,0.072,0.802,0.543C14.968,7.584,15.016,7.826,14.974,7.958z"/>
</g>
</svg>
