<?xml version="1.0" encoding="utf-8"?>
<!-- Generator: Adobe Illustrator 16.0.4, SVG Export Plug-In . SVG Version: 6.00 Build 0)  -->
<!DOCTYPE svg PUBLIC "-//W3C//DTD SVG 1.1//EN" "http://www.w3.org/Graphics/SVG/1.1/DTD/svg11.dtd">
<svg version="1.1" xmlns="http://www.w3.org/2000/svg" xmlns:xlink="http://www.w3.org/1999/xlink" x="0px" y="0px" width="16px"
	 height="16px" viewBox="0 0 16 16" enable-background="new 0 0 16 16" xml:space="preserve">
<g id="Layer_1">
</g>
<g id="Layer_2">
	<path d="M15.537,6.634c-0.348-0.802-0.932-0.94-1.426-0.953c0.371-0.179,0.629-0.376,0.771-0.592
		c0.133-0.199,0.129-0.361,0.121-0.421c-0.016-0.128-0.014-0.272-0.008-0.425c0.01-0.374,0.021-0.797-0.283-1.136
		c-0.299-0.335-0.842-0.5-1.707-0.518c-1.645-0.034-2.754,0.119-3.27,0.213C9.551,2.518,9.389,2.266,9.359,2.213
		c-0.482-0.882-1.151-1.14-1.744-1.31C7.353,0.8,7.077,0.748,6.793,0.748c-0.921,0-1.748,0.551-2.107,1.403
		C4.4,2.832,3.964,3.362,3.502,3.923c-0.084,0.101-0.167,0.202-0.25,0.304C3.114,4.4,3.009,4.569,2.908,4.732
		C2.854,4.818,2.803,4.901,2.748,4.984L2.308,4.979C2.025,4.916,1.788,4.886,1.582,4.886c-1.064,0-1.278,0.843-1.345,1.578
		c-0.214,2.341-0.187,4.379,0.08,6.233c0.081,0.561,0.367,0.832,0.872,0.832c0.024,0,0.051,0,0.068-0.002h0.01
		c0.065,0,0.654,0.004,1.727,0.104c0.269,0.402,0.669,0.656,1.19,0.754c0.502,0.094,0.818,0.223,1.125,0.348
		c0.39,0.16,0.757,0.309,1.423,0.375c1.048,0.1,2.185,0.146,3.581,0.146c0.375,0,0.785-0.002,1.254-0.01
		c0.471-0.006,1.006-0.191,1.594-0.547c0.639-0.387,0.896-1.105,0.688-1.924c-0.041-0.158-0.029-0.195,0.1-0.309
		c0.43-0.383,0.715-0.732,0.896-1.1l0.076-0.166c0.191-0.479,0.207-0.994,0.047-1.533c-0.064-0.211-0.146-0.41-0.227-0.602
		c-0.006-0.012-0.01-0.025-0.016-0.037l0.744-0.492c0.076-0.041,0.307-0.19,0.4-0.525C15.973,7.628,15.863,7.166,15.537,6.634z
		 M12.996,3.136c0.699,0.015,1.152,0.131,1.346,0.348c0.156,0.174,0.15,0.438,0.141,0.743c-0.004,0.16-0.01,0.325,0.012,0.489
		c-0.027,0.068-0.318,0.634-2.68,1.062c0.004-0.026,0.01-0.05,0.012-0.077c0.027-0.412-0.295-0.744-0.828-1.295
		c-0.188-0.194-0.4-0.415-0.631-0.673c-0.035-0.041-0.154-0.214-0.299-0.432C10.633,3.214,11.627,3.107,12.996,3.136z
		 M10.312,14.706c-1.381,0-2.503-0.047-3.535-0.146c-0.596-0.057-0.915-0.188-1.286-0.34c-0.312-0.127-0.668-0.271-1.219-0.375
		c-0.424-0.08-0.723-0.281-0.913-0.615L3.293,13.11l-0.13-0.014c-1.149-0.113-1.782-0.119-1.897-0.119H1.243
		c-0.019,0.002-0.037,0.002-0.054,0.002c-0.23,0-0.32-0.055-0.365-0.367c-0.265-1.832-0.29-3.769-0.076-6.096
		C0.83,5.605,1.104,5.433,1.582,5.433c0.176,0,0.388,0.028,0.646,0.087l0.771,0.015l0.079-0.107c0.099-0.137,0.18-0.267,0.258-0.394
		c0.097-0.155,0.188-0.302,0.306-0.449c0.082-0.101,0.163-0.2,0.245-0.299c0.466-0.568,0.95-1.154,1.268-1.91
		C5.431,1.72,6.074,1.295,6.793,1.295c0.225,0,0.445,0.042,0.655,0.126L7.471,1.43C7.99,1.578,8.529,1.781,8.914,2.489
		C8.98,2.607,9.879,3.98,9.994,4.11c0.24,0.268,0.457,0.491,0.648,0.689C10.994,5.162,11.1,5.32,11.08,5.478
		c-0.031,0.245-0.275,0.512-0.533,0.779C9.982,6.841,9.613,6.793,9.078,6.335C8.419,5.773,7.856,5.298,7.506,4.454
		C7.451,4.323,7.291,4.188,7.157,4.155C6.555,4.002,6.355,3.994,5.779,3.871c0.106,0.127-0.18,0.27,0.015,0.377
		C6.627,4.713,7.092,5.5,7.604,6.301c0.826,1.288,0.496,2.705-0.896,3.198C6.163,9.692,5.579,9.765,5.01,9.88
		C4.788,9.927,4.56,9.946,4.28,9.987c0.562,0.16,1.06,0.285,1.546,0.445c1.348,0.445,1.944,1.234,2.026,2.725
		c0.024,0.428,0.551,1.143,0.919,1.25c0.887,0.254,1.406,0.068,2.303,0.271c0.037,0.008,0.09,0.016,0.15,0.021
		C10.895,14.704,10.594,14.706,10.312,14.706z M12.949,14.118c-0.061,0.039-0.197,0.082-0.334,0.094
		c-0.393-0.012-1.037-0.025-1.123-0.033c-0.713-0.07-1.434-0.09-2.133-0.225c-0.607-0.119-0.985-0.459-0.891-1.102
		c0.088-0.605,0.342-0.834,1.014-0.797c0.92,0.055,3.248-0.088,3.803,0.689c0.014,0.021,0.055,0.127,0.068,0.172
		C13.438,13.251,13.537,13.765,12.949,14.118z M14.418,11.052l-0.008,0.016c-0.127,0.273-0.125,0.254-0.438,0.551
		c-0.1,0.057-0.514,0.189-0.648,0.184c-1.156-0.041-2.732-0.195-3.871-0.375c-0.396-0.062-0.83-0.488-1.031-0.916
		C8.075,9.778,8.695,8.884,9.465,8.886c1.281,0.006,2.426,0.168,3.705,0.158c0.264-0.002,0.73-0.012,1.092,0.494
		C14.371,9.802,14.742,10.337,14.418,11.052z M15.379,7.843c-0.035,0.146-0.137,0.201-0.137,0.201l0,0l-0.426,0.28
		C14.02,8.613,12.93,8.542,12.35,8.507c-1.072-0.061-2.152-0.092-3.209-0.27c-0.847-0.144-1.043-0.807-0.59-1.661
		c0.113,0.078,0.225,0.153,0.332,0.234c0.639,0.487,1.457,0.531,1.963-0.081c0.062-0.076,0.207-0.164,0.369-0.249
		c0.014,0.001,0.025,0.004,0.039,0.004c0.15,0,0.471-0.068,0.941-0.17c0.244-0.053,0.578-0.125,0.645-0.127
		c0.438,0.026,0.828,0.039,1.193,0.039c0.463,0,0.816,0.111,1.045,0.652l0.02,0.037C15.334,7.298,15.434,7.627,15.379,7.843z"/>
</g>
</svg>
