<svg id="Layer_1" data-name="Layer 1" xmlns="http://www.w3.org/2000/svg" viewBox="0 0 16 16"><defs><style>.cls-1{fill:#fff;}</style></defs><title>grade_hand</title><g id="Layer_2" data-name="Layer 2"><path class="cls-1" d="M15.67,6.7a1.72,1.72,0,0,0-.92-1A1.35,1.35,0,0,0,15,5.45a.93.93,0,0,0,.16-.61,2.19,2.19,0,0,1,0-.37,1.79,1.79,0,0,0-.34-1.31A2.45,2.45,0,0,0,13,2.56H12.5a16.77,16.77,0,0,0-2.6.18l-.25-.4A2.77,2.77,0,0,0,7.81.93a2.52,2.52,0,0,0-.9-.17A2.49,2.49,0,0,0,4.61,2.3,7.14,7.14,0,0,1,3.5,4l-.25.3a6,6,0,0,0-.39.59l0,0H2.61a4.07,4.07,0,0,0-.77-.1C.42,4.81.3,6.17.26,6.61a26.2,26.2,0,0,0,.08,6.18,1.08,1.08,0,0,0,1.19,1.05h0s.55,0,1.53.09a2,2,0,0,0,1.26.75,4.56,4.56,0,0,1,1,.33,4.81,4.81,0,0,0,1.46.38c1,.1,2.14.15,3.51.15h1.22A3.38,3.38,0,0,0,13.24,15a1.94,1.94,0,0,0,.81-2.22A3.72,3.72,0,0,0,15,11.56l.08-.17a2.51,2.51,0,0,0,0-1.69A3.89,3.89,0,0,0,15,9.26l.52-.34A1.16,1.16,0,0,0,16,8.23,2,2,0,0,0,15.67,6.7ZM12.5,3.65h.44c.81,0,1,.18,1.11.25s.07.31.06.57,0,.25,0,.38a4,4,0,0,1-2,.78,2.94,2.94,0,0,0-.86-1.2c-.19-.19-.39-.4-.61-.65l0,0A18.45,18.45,0,0,1,12.5,3.65ZM6.32,4.83a.42.42,0,0,0,.16.55c.7.39.44.39.89,1.1l.09.15a2,2,0,0,1,.31,1.74,1.55,1.55,0,0,1-1,1,7,7,0,0,1-1.18.29l-.43.08-.42.06-.28,0,0,.54.5.14c.35.1.67.19,1,.3a2.32,2.32,0,0,1,1.78,2.42A2.08,2.08,0,0,0,8.3,14.4c-.48,0-.94-.06-1.38-.1A3.59,3.59,0,0,1,5.75,14a5.53,5.53,0,0,0-1.24-.39.92.92,0,0,1-.7-.46l-.13-.25-.27,0a18,18,0,0,0-1.88-.12h0l-.1,0a.35.35,0,0,1,0-.14A25,25,0,0,1,1.3,6.72c.08-.81.27-.81.54-.81A3,3,0,0,1,2.46,6l.9,0,.16-.22c.1-.14.18-.28.27-.42S4,5.1,4.06,5l.25-.31A7.6,7.6,0,0,0,5.57,2.74a1.45,1.45,0,0,1,1.34-.89A1.47,1.47,0,0,1,7.49,2a1.79,1.79,0,0,1,1.24.91c.07.12.95,1.49,1.09,1.64l1.09,1.21c.31.31.35.4.36.43a1.78,1.78,0,0,1-.45.61.84.84,0,0,1-.53.34.88.88,0,0,1-.53-.3A4.11,4.11,0,0,1,8.32,5.23a.85.85,0,0,0-.52-.46c-.37-.09,0,.06-.47-.15A1.08,1.08,0,0,0,6.32,4.83Zm6.43,9.08-.17.05h-.49l-.58,0-.64-.06a11.06,11.06,0,0,1-1.41-.16c-.66-.13-.69-.48-.65-.77s.19-.55.59-.55h.11l.64,0c.87,0,2.49,0,2.83.51A.76.76,0,0,1,13,13C13.12,13.44,13.11,13.69,12.75,13.91ZM14.07,11a.88.88,0,0,1-.29.38l0,0a1.84,1.84,0,0,1-.49.15,33.88,33.88,0,0,1-3.73-.37,1.32,1.32,0,0,1-.8-.74.84.84,0,0,1,.07-.78.86.86,0,0,1,.69-.42h0c.58,0,1.14,0,1.69.08s1.18.08,1.79.08h.18a.85.85,0,0,1,.75.31L14,9.9A1.24,1.24,0,0,1,14.07,11ZM15,8l-.35.24a4.33,4.33,0,0,1-1.44.2c-.31,0-.61,0-.85,0l-.54,0a24.39,24.39,0,0,1-2.55-.23.65.65,0,0,1-.52-.32.83.83,0,0,1,0-.62l0,0c.36.27,1.23,1,1.62,1a1.44,1.44,0,0,0,1.13-.55,2.17,2.17,0,0,1,.19-.14c.17,0,.14-.33.51-.7.16-.15.51-.11.55-.11.44,0,.82,0,1.18,0a.72.72,0,0,1,.8.54C15,7.58,15,7.83,15,8Z"/></g></svg>