<svg id="Layer_1" data-name="Layer 1" xmlns="http://www.w3.org/2000/svg" viewBox="0 0 56.69 56.69"><defs><style>.cls-1{fill:#fff;}</style></defs><title>fist_button</title><path class="cls-1" d="M25.75,16.23c1.68.74.37.21,1.62.53a3,3,0,0,1,1.81,1.56c1.07,2.61,2.76,3.59,4.91,5.44a3.15,3.15,0,0,0,1.82,1c.5,0,1.1-.38,1.84-1.16.51-.52,1.45-1.51,1.52-2.08,0-.09-.16-.42-1.2-1.5-.7-.73-3-3.27-3.77-4.14-.46-.52-3.5-5.21-3.73-5.63a6.08,6.08,0,0,0-4.25-3.11,5.2,5.2,0,0,0-2-.42,5,5,0,0,0-4.6,3,26.61,26.61,0,0,1-4.31,6.6l-.87,1.07a14.63,14.63,0,0,0-.92,1.35c-.31.51-.59,1-.93,1.44l-.56.77L9.06,21a11,11,0,0,0-2.14-.29c-.93,0-1.59,0-1.84,2.77a85.22,85.22,0,0,0,.25,20.29,1.81,1.81,0,0,0,.11.49l.35-.07h.08c.39,0,2.54,0,6.42.4l.94.1.45.85a3.2,3.2,0,0,0,2.39,1.58,20.75,20.75,0,0,1,4.26,1.32,12.13,12.13,0,0,0,4,1.08c1.51.14,3.08.26,4.74.33a7.14,7.14,0,0,1-2.19-4c-.25-4.6-2-6.94-6.11-8.32-1.1-.36-2.22-.67-3.41-1l-1.71-.49.12-1.86.95-.13c.51-.06,1-.12,1.43-.21l1.48-.29a25.74,25.74,0,0,0,4.07-1,5.47,5.47,0,0,0,3.57-3.37,7.1,7.1,0,0,0-1.06-6l-.33-.51c-1.53-2.43-.65-2.43-3-3.77a1.46,1.46,0,0,1-.57-1.9S24.09,15.49,25.75,16.23Z"/><path class="cls-1" d="M48.38,33.88a2.89,2.89,0,0,0-2.56-1.07h-.63c-2.11,0-4.12-.13-6.14-.26s-3.81-.26-5.82-.27h0a2.92,2.92,0,0,0-2.38,1.43,2.79,2.79,0,0,0-.24,2.68,4.65,4.65,0,0,0,2.74,2.55,121.28,121.28,0,0,0,12.8,1.25,7.27,7.27,0,0,0,1.67-.5l.1-.13a2.82,2.82,0,0,0,1-1.3,4.19,4.19,0,0,0-.28-3.89Z"/><path class="cls-1" d="M39,15.58c1.55,1.61,2.66,2.77,3,4.13,5.16-1.05,6.68-2.27,7-2.67,0-.44,0-.89,0-1.32a3.31,3.31,0,0,0-.23-1.94c-.21-.24-1-.8-3.8-.86H43.52a58,58,0,0,0-6.62.35l.07.1C37.72,14.2,38.41,14.93,39,15.58Z"/><path class="cls-1" d="M45.16,44.77C44,43.13,38.42,43.05,35.43,43c-.85,0-1.6,0-2.19-.06l-.39,0c-1.37,0-1.79.39-2,1.88-.14,1,0,2.2,2.22,2.64A46.26,46.26,0,0,0,37.9,48l2.2.19,2,.06,1.67,0a2.09,2.09,0,0,0,.58-.16c1.24-.75,1.28-1.63.94-3A2.82,2.82,0,0,0,45.16,44.77Z"/><path class="cls-1" d="M44.69,0H12A12,12,0,0,0,0,12V44.69a12,12,0,0,0,12,12H44.69a12,12,0,0,0,12-12V12A12,12,0,0,0,44.69,0ZM55.53,28.62A3.82,3.82,0,0,1,53.73,31L52,32.15c.21.53.39,1,.54,1.52a8.75,8.75,0,0,1-.18,5.79l-.27.6a13.23,13.23,0,0,1-3.23,4c.75,3.28-.26,6.09-2.77,7.62a11.67,11.67,0,0,1-5.79,2l-4.21,0c-4.7,0-8.53-.16-12-.5a15.6,15.6,0,0,1-5-1.33,17.51,17.51,0,0,0-3.58-1.12,6.75,6.75,0,0,1-4.31-2.56c-3.37-.3-5.17-.3-5.25-.3h0c-1.77,0-3.65-.64-4.08-3.61a91.44,91.44,0,0,1-.27-21.21c.14-1.52.56-6.18,5.43-6.18a12.55,12.55,0,0,1,2.63.34h.74l.11-.17a20.18,20.18,0,0,1,1.36-2l.84-1a23,23,0,0,0,3.81-5.72A8.58,8.58,0,0,1,24.32,3a8.36,8.36,0,0,1,3.09.59,9.48,9.48,0,0,1,6.3,4.84c.08.14.44.69.88,1.39a56.25,56.25,0,0,1,8.93-.64h1.55c3.17.07,5.2.73,6.39,2.07a6,6,0,0,1,1.18,4.48,7.64,7.64,0,0,0,0,1.28,3.07,3.07,0,0,1-.55,2.08,5.17,5.17,0,0,1-.86,1,6,6,0,0,1,3.13,3.3A6.84,6.84,0,0,1,55.53,28.62Z"/><path class="cls-1" d="M48.49,23.33c-1.24,0-2.56,0-4-.14-.16,0-1.36-.12-1.89.41C41.29,24.84,41.4,26,40.8,26a3,3,0,0,0-.64.48,5,5,0,0,1-3.9,1.87c-1.33,0-4.32-2.32-5.54-3.25l-.14-.1a2.84,2.84,0,0,0-.06,2.14,2.26,2.26,0,0,0,1.79,1.07,76.21,76.21,0,0,0,8.77.8l1.84.1c.85,0,1.85.11,2.94.11a14.9,14.9,0,0,0,4.92-.67L52,27.69c.15-.45,0-1.28-.76-2.5A2.5,2.5,0,0,0,48.49,23.33Z"/></svg>