<?xml version="1.0" encoding="utf-8"?>
<!-- Generator: Adobe Illustrator 16.0.3, SVG Export Plug-In . SVG Version: 6.00 Build 0)  -->
<!DOCTYPE svg PUBLIC "-//W3C//DTD SVG 1.1//EN" "http://www.w3.org/Graphics/SVG/1.1/DTD/svg11.dtd">
<svg version="1.1" id="Layer_1" xmlns="http://www.w3.org/2000/svg" xmlns:xlink="http://www.w3.org/1999/xlink" x="0px" y="0px"
	 width="32.566px" height="31.968px" viewBox="0 1.506 32.566 31.968" enable-background="new 0 1.506 32.566 31.968"
	 xml:space="preserve">
<path id="previous-3-icon" fill="#FCFCFC" d="M24.444,22.312h-1.725v-4.394l-7.079,4.894v-4.887l-7.068,4.887v-9.783l7.068,4.886
	v-4.886l7.079,4.893l0,0v-4.391h1.725V22.312z M16.283,5.39c-6.927,0-12.532,5.605-12.532,12.532
	c0,6.928,5.605,12.531,12.532,12.531c6.926,0,12.532-5.604,12.532-12.531C28.815,10.996,23.21,5.39,16.283,5.39z M16.283,2.37
	c8.589,0,15.552,6.964,15.552,15.553s-6.963,15.552-15.552,15.552c-8.59,0-15.553-6.964-15.553-15.553S7.693,2.37,16.283,2.37z"/>
</svg>
