<?xml version="1.0" encoding="iso-8859-1"?>
<!-- Generator: Adobe Illustrator 16.0.3, SVG Export Plug-In . SVG Version: 6.00 Build 0)  -->
<!DOCTYPE svg PUBLIC "-//W3C//DTD SVG 1.1//EN" "http://www.w3.org/Graphics/SVG/1.1/DTD/svg11.dtd">
<svg version="1.1" id="Layer_1" xmlns="http://www.w3.org/2000/svg" xmlns:xlink="http://www.w3.org/1999/xlink" x="0px" y="0px"
	 width="40px" height="40px" viewBox="0 0 40 40" style="enable-background:new 0 0 40 40;" xml:space="preserve">
<path style="fill:#FFFFFF;stroke:#FFFFFF;stroke-width:0.2896;stroke-miterlimit:10;" d="M34.492,19.996
	c0-2.448,1.598-4.53,3.831-5.314c-0.365-1.283-0.859-2.511-1.467-3.67c-1.539,0.464-3.276,0.318-4.809-0.546
	c-2.651-1.497-3.78-4.63-2.777-7.326c-1.193-0.682-2.465-1.24-3.799-1.658c-0.939,2.158-3.158,3.674-5.748,3.674
	c-2.604,0-4.833-1.533-5.762-3.71c-1.35,0.414-2.638,0.972-3.845,1.655c0.219,0.631,0.34,1.311,0.34,2.02
	c0,3.298-2.592,5.973-5.792,5.973c-0.72,0-1.409-0.137-2.045-0.385C1.942,11.948,1.396,13.271,1,14.657
	c2.298,0.792,3.955,3.028,3.955,5.665c0,2.567-1.572,4.756-3.776,5.6c0.412,1.284,0.953,2.511,1.61,3.662
	c0.589-0.208,1.22-0.321,1.877-0.321c3.199,0,5.792,2.674,5.792,5.972c0,0.596-0.085,1.17-0.242,1.712
	c1.188,0.663,2.452,1.206,3.775,1.609c0.951-2.144,3.177-3.646,5.77-3.646c2.571,0,4.779,1.478,5.744,3.591
	c1.329-0.42,2.598-0.978,3.786-1.659c-0.193-0.596-0.3-1.233-0.3-1.896c0-3.299,2.593-5.973,5.792-5.973
	c0.666,0,1.306,0.117,1.902,0.331c0.686-1.253,1.239-2.592,1.639-3.994C36.09,24.526,34.492,22.443,34.492,19.996z M19.651,29.117
	c-5.037,0-9.123-4.084-9.123-9.122c0-5.038,4.085-9.122,9.123-9.122c5.038,0,9.122,4.083,9.122,9.122
	C28.773,25.033,24.689,29.117,19.651,29.117z"/>
</svg>
