<svg id="Layer_3" data-name="Layer 3" xmlns="http://www.w3.org/2000/svg" viewBox="0 0 800 800"><defs><style>.cls-1{fill:#fff;}</style></defs><path class="cls-1" d="M696.06,284.71h0L427.4,16.06a39.64,39.64,0,0,0-56,0L315.57,71.85l70.77,70.77a47.06,47.06,0,0,1,59.6,60l68.21,68.2a47.1,47.1,0,1,1-28.25,26.59l-63.6-63.6V401.19a47.11,47.11,0,0,1,12.47,75.61,47.15,47.15,0,1,1-51.24-77V230.88a46.65,46.65,0,0,1-15.44-10.29A47.16,47.16,0,0,1,357.92,169L288.16,99.26,103.94,283.47a39.64,39.64,0,0,0,0,56.06L311.88,547.45V508.74H488.12v40L696.06,340.78A39.65,39.65,0,0,0,696.06,284.71Z"/><path class="cls-1" d="M339.38,533.19v68.26H267.05L399.49,723.7,533,601.45H460.62V533.19Z"/><polygon class="cls-1" points="572.17 746.63 227.83 746.63 227.83 687.03 176.89 687.03 176.89 746.63 176.89 795.02 176.89 795.53 623.11 795.53 623.11 795.02 623.11 746.63 623.11 687.03 572.17 687.03 572.17 746.63"/></svg>