<svg width="440" height="440" xmlns="http://www.w3.org/2000/svg">
 <style type="text/css">.st0{fill:#2E3192;}
	.st1{fill:#FFFFFF;}</style>

 <g>
  <title>background</title>
  <rect fill="none" id="canvas_background" height="442" width="442" y="-1" x="-1"/>
 </g>
 <g>
  <title>Layer 1</title>
  <g id="svg_1">
   <ellipse id="svg_2" ry="214.5" rx="205.8" cy="219.5" cx="214.2" class="st0"/>
   <g id="svg_3">
    <path id="svg_4" d="m415,219.5c-0.099976,43.299988 -12.900024,85.799988 -37.299988,121.700012c-23.200012,34 -56.700012,61 -95.299988,75.5c-39.600037,14.799988 -83.400024,16.299988 -123.900024,4.200012c-39.400024,-11.800049 -74.200012,-36.300049 -99.599976,-68.5c-53.900024,-68.300049 -60.100037,-166.700012 -16.300049,-241.700012c20.700012,-35.5 51.800049,-64.600006 89,-82.200012c38,-18 81.800049,-23.100006 122.900024,-14.300003c83.299988,17.900009 145.5,89.500015 158.099976,172.800003c1.700012,10.799988 2.400024,21.600006 2.400024,32.5c0,6.399994 10,6.399994 10,0c-0.099976,-45.200012 -13.400024,-90 -39,-127.299988c-24.5,-35.700012 -59.200012,-63.600006 -99.700012,-79.100006c-41.399963,-15.800003 -88,-17.400009 -130.399963,-4.700012c-40.900024,12.300003 -77.5,37.600006 -104,71.100006c-56.800018,71.799988 -64,174.699982 -17.900024,253.799988c21.700012,37.200012 54.600037,68.100037 93.799988,86.299988c39.900024,18.600037 85.100037,23.900024 128.200012,15c87.5,-18.099976 153.900024,-94 166.600037,-181.399963c1.599976,-11.200012 2.5,-22.5 2.5,-33.799988c-0.100037,-6.300018 -10.100037,-6.300018 -10.100037,0.099976z" class="st1"/>
   </g>
  </g>
  <g id="svg_5">
   <g id="svg_6">
    <ellipse id="svg_7" ry="44.6" rx="37.6" cy="151.5" cx="120.3" class="st0"/>
    <g id="svg_8">
     <path id="svg_9" d="m162.900024,151.5c-0.299988,-19 -9.700012,-38.799988 -27.900024,-46.5c-17.599976,-7.5 -36.699951,0 -47.5,15c-11.699951,16.399994 -12.699951,39.5 -3.5,57.299988c8.400024,16.300018 26,26.800018 44.5,22.800018c22,-4.800018 34.099976,-27.600006 34.400024,-48.600006c0.099976,-6.399994 -9.900024,-6.399994 -10,0c-0.200012,14.799988 -7.099976,30.700012 -21.299988,37.100006c-13.400024,6.100006 -28.299988,-0.100006 -36.299988,-11.800018c-8.900024,-13.099976 -10.100037,-31.299988 -3,-45.5c6.299988,-12.599976 19.5,-22.199982 34.099976,-18.699982c17.299988,4.100006 26.200012,22.299988 26.5,38.899994c0,6.399994 10,6.399994 10,0z" class="st1"/>
    </g>
   </g>
   <g id="svg_10">
    <path id="svg_11" d="m120.299988,196c-34.599976,0 -62.599976,42.100006 -62.599976,94.100006c0,4 0.199951,7.899994 0.5,11.799988l93.399963,0c0.600037,-25.899994 8.100037,-49.199982 19.900024,-65.699982c-11.299988,-24.300018 -30,-40.200012 -51.200012,-40.200012z" class="st0"/>
    <g id="svg_12">
     <path id="svg_13" d="m120.299988,191c-21.599976,0.299988 -39,14.600006 -50,32.200012c-14.400024,23.099976 -19.200012,51.699982 -17.099976,78.599976c0.199951,2.700012 2.099976,5 5,5c27.299988,0 54.599976,0 81.899963,0c3.900024,0 7.700012,0 11.600037,0c2.799988,0 4.899963,-2.299988 5,-5c0.599976,-22.299988 6.299988,-44.699982 19.199951,-63.199982c1.100037,-1.5 0.700012,-3.5 0,-5c-10.599976,-22.100006 -29.599976,-42.200012 -55.599976,-42.600006c-6.400024,-0.100006 -6.400024,9.899994 0,10c22.400024,0.299988 38,18.899994 46.900024,37.600006c0,-1.700012 0,-3.399994 0,-5c-13.900024,19.799988 -19.900024,44.299988 -20.600037,68.299988c1.700012,-1.699982 3.299988,-3.299988 5,-5c-27.299988,0 -54.599976,0 -81.899963,0c-3.900024,0 -7.700012,0 -11.600037,0c1.700012,1.700012 3.299988,3.300018 5,5c-1.899963,-24.399994 1.900024,-49.899994 14.400024,-71.299988c9.099976,-15.5 23.799988,-29.300018 42.700012,-29.600006c6.5,-0.100006 6.5,-10.100006 0.099976,-10z" class="st1"/>
    </g>
   </g>
   <g id="svg_14">
    <ellipse id="svg_15" ry="44.6" rx="37.6" cy="151.5" cx="308.1" class="st0"/>
    <g id="svg_16">
     <path id="svg_17" d="m350.599976,151.5c-0.299988,-19 -9.700012,-38.799988 -27.900024,-46.5c-17.599976,-7.5 -36.699951,0 -47.5,15c-11.699951,16.399994 -12.699951,39.5 -3.5,57.299988c8.400024,16.300018 26,26.800018 44.5,22.800018c22.000061,-4.800018 34.100037,-27.600006 34.400024,-48.600006c0.099976,-6.399994 -9.900024,-6.399994 -10,0c-0.200012,14.799988 -7.099976,30.700012 -21.299988,37.100006c-13.400024,6.100006 -28.299988,-0.100006 -36.299988,-11.800018c-8.900024,-13.099976 -10.100037,-31.299988 -3,-45.5c6.299988,-12.599976 19.5,-22.199982 34.099976,-18.699982c17.299988,4.100006 26.200012,22.299988 26.5,38.899994c0.100037,6.399994 10.100037,6.399994 10,0z" class="st1"/>
    </g>
   </g>
   <g id="svg_18">
    <path id="svg_19" d="m370.700012,290.100006c0,-51.899994 -28,-94.100006 -62.599976,-94.100006c-21.200012,0 -39.900024,15.900024 -51.200012,40.100006c11.799988,16.5 19.299988,39.800018 19.899963,65.699982l93.400024,0c0.299988,-3.799988 0.5,-7.699982 0.5,-11.699982z" class="st0"/>
    <g id="svg_20">
     <path id="svg_21" d="m375.700012,290.100006c-0.200012,-28.199982 -7.799988,-58.299988 -27.200012,-79.5c-16.5,-18.100006 -41.599976,-25.399994 -63.899963,-13.399994c-14.600037,7.799988 -25.100037,21.799988 -32.100037,36.5c-0.700012,1.5 -1.099976,3.5 0,5c13,18.5 18.600037,40.899994 19.200012,63.200012c0.099976,2.699982 2.200012,5 5,5c27.299988,0 54.599976,0 81.900024,0c3.899963,0 7.699951,0 11.599976,0c2.900024,0 4.799988,-2.300018 5,-5c0.299988,-4.000031 0.399963,-7.900024 0.5,-11.800018c0,-6.399994 -10,-6.399994 -10,0c0,3.899994 -0.200012,7.800018 -0.5,11.800018c1.700012,-1.700012 3.299988,-3.300018 5,-5c-27.299988,0 -54.599976,0 -81.900024,0c-3.899963,0 -7.699951,0 -11.599976,0c1.700012,1.699982 3.299988,3.299988 5,5c-0.700012,-24 -6.700012,-48.400024 -20.599976,-68.300018c0,1.699982 0,3.399994 0,5c9.799988,-20.5 29.099976,-42.100006 54.299988,-36.899994c21.099976,4.399994 35.099976,24.299988 42.299988,43.299988c5.400024,14.399994 7.900024,29.700012 7.900024,45c0.099976,6.5 10.099976,6.5 10.099976,0.100006z" class="st1"/>
    </g>
   </g>
   <g id="svg_22">
    <ellipse id="svg_23" ry="44.6" rx="37.6" cy="166.3" cx="214.2" class="st0"/>
    <g id="svg_24">
     <path id="svg_25" d="m256.700012,166.299988c-0.299988,-19 -9.700012,-38.799988 -27.900024,-46.5c-17.599976,-7.5 -36.699951,0 -47.5,15c-11.699951,16.399994 -12.699951,39.5 -3.5,57.299988c8.400024,16.300018 26,26.800018 44.5,22.800018c22.100037,-4.699982 34.200012,-27.5 34.400024,-48.600006c0.099976,-6.399994 -9.900024,-6.399994 -10,0c-0.200012,14.799988 -7.099976,30.700012 -21.299988,37.100006c-13.400024,6.100006 -28.299988,-0.100006 -36.299988,-11.800018c-8.900024,-13.099976 -10.100037,-31.299988 -3,-45.5c6.299988,-12.599976 19.5,-22.199982 34.099976,-18.699982c17.299988,4.100006 26.200012,22.299988 26.5,38.899994c0.099976,6.400024 10.099976,6.5 10,0z" class="st1"/>
    </g>
   </g>
   <g id="svg_26">
    <path id="svg_27" d="m214.200012,210.899994c-16.5,0 -31.5,9.600006 -42.599976,25.199982c-11.800049,16.5 -19.300049,39.800018 -19.900024,65.700012c0,1 -0.099976,2.100006 -0.099976,3.100006c0,4 0.199951,7.899994 0.5,11.800018l124.199951,0c0.300049,-3.900024 0.5,-7.800018 0.5,-11.800018c0,-1 0,-2.100006 -0.099976,-3.100006c-0.599976,-25.899994 -8.099976,-49.200012 -19.900024,-65.700012c-11.099976,-15.599976 -26.099976,-25.199982 -42.599976,-25.199982z" class="st0"/>
    <g id="svg_28">
     <path id="svg_29" d="m214.200012,205.899994c-23.299988,0.399994 -41.5,16.799988 -52.400024,36.299988c-12.5,22.5 -16.699951,49.100006 -14.699951,74.500031c0.199951,2.699951 2.099976,5 5,5c36.299988,0 72.599976,0 108.899963,0c5.100037,0 10.200012,0 15.299988,0c2.900024,0 4.800049,-2.300049 5,-5c2,-25.400024 -2.199951,-52.000031 -14.699951,-74.500031c-10.900024,-19.499969 -29.200012,-35.899994 -52.400024,-36.299988c-6.400024,-0.100006 -6.400024,9.899994 0,10c20.799988,0.299988 36.200012,16.600006 45.200012,34c10.599976,20.399994 13.700012,44.100006 11.899963,66.800018c1.700012,-1.700012 3.300049,-3.300018 5,-5c-36.299988,0 -72.599976,0 -108.899963,0c-5.100037,0 -10.200012,0 -15.299988,0c1.699951,1.699982 3.299988,3.299988 5,5c-1.700012,-22.700012 1.399963,-46.400024 11.899963,-66.800018c9,-17.399994 24.299988,-33.600006 45.200012,-34c6.399963,-0.100006 6.399963,-10.100006 0,-10z" class="st1"/>
    </g>
   </g>
  </g>
 </g>
</svg>