<?xml version="1.0" encoding="utf-8"?>
<!-- Generator: Adobe Illustrator 21.1.0, SVG Export Plug-In . SVG Version: 6.00 Build 0)  -->
<svg version="1.1" id="Layer_1" xmlns="http://www.w3.org/2000/svg" xmlns:xlink="http://www.w3.org/1999/xlink" x="0px" y="0px"
	 viewBox="0 0 96 96" style="enable-background:new 0 0 96 96;" xml:space="preserve">
<style type="text/css">
	.st0{fill:#FFFFFF;}
</style>
<g id="XMLID_2_">
	<path id="XMLID_10_" class="st0" d="M31.9,48c-4.7,0.2-8.6,2-11.6,5.6h-5.8c-2.4,0-4.5-0.6-6.2-1.9c-1.7-1.3-2.4-3-2.4-5.2
		c0-10.2,1.8-15.5,5.5-15.5c0.2,0,0.8,0.3,1.9,0.9s2.4,1.3,4.3,1.9c1.7,0.6,3.5,0.9,5.2,0.9c2,0,3.8-0.3,5.8-1.1
		c-0.2,1.1-0.2,2-0.2,3C28.4,40.8,29.5,44.6,31.9,48z M79,75.9c0,3.5-1.1,6.3-3.2,8.3c-2.1,2-4.9,3-8.6,3H28.8c-3.5,0-6.4-1.1-8.6-3
		c-2.1-2-3.2-4.7-3.2-8.3c0-1.5,0-3,0.2-4.6c0.2-1.5,0.3-3,0.6-4.7c0.3-1.7,0.8-3.4,1.3-4.7c0.4-1.5,1.1-3,1.9-4.3
		c0.8-1.3,1.7-2.6,2.8-3.5c1.1-0.9,2.3-1.9,3.7-2.3c1.3-0.4,3-0.9,4.9-0.9c0.3,0,0.9,0.3,1.9,0.9c0.9,0.6,2,1.3,3.2,2.1
		c1.3,0.8,2.8,1.5,4.7,2.1c2,0.6,4,0.9,6,0.9c2,0,4-0.3,6-0.9c2-0.6,3.5-1.3,4.7-2.1c1.3-0.8,2.3-1.5,3.2-2.1s1.5-0.9,1.9-0.9
		c1.9,0,3.4,0.3,4.9,0.9c1.5,0.6,2.8,1.3,3.7,2.3c1.1,0.9,2,2.1,2.8,3.5s1.3,2.8,1.9,4.3c0.4,1.5,0.9,3,1.3,4.7
		c0.3,1.7,0.4,3.4,0.6,4.7C78.9,72.9,79,74.4,79,75.9z M33.9,19.9c0,3-1.1,5.8-3.2,8s-4.9,3.2-8,3.2s-5.8-1.1-8-3.2s-3.2-4.9-3.2-8
		s1.1-5.8,3.2-8s4.9-3.2,8-3.2s5.8,1.1,8,3.2S33.9,16.7,33.9,19.9z M64.9,36.8c0,4.6-1.7,8.6-4.9,12c-3.2,3.4-7.3,4.9-12,4.9
		s-8.6-1.7-12-4.9c-3.4-3.2-4.9-7.3-4.9-12s1.7-8.6,4.9-12s7.2-4.9,12-4.9s8.6,1.7,12,4.9C63.4,28,64.9,32.1,64.9,36.8z M90.2,46.7
		c0,2.3-0.8,4-2.4,5.2c-1.7,1.3-3.7,1.9-6.2,1.9h-5.8c-3-3.5-6.9-5.5-11.6-5.6c2.3-3.4,3.5-7.2,3.5-11.2c0-0.9,0-1.9-0.2-3
		c2,0.6,3.8,1.1,5.8,1.1c1.7,0,3.5-0.3,5.2-0.9c1.7-0.6,3.2-1.3,4.3-1.9c1.1-0.6,1.7-0.9,1.9-0.9C88.4,31.1,90.2,36.4,90.2,46.7z
		 M84.5,19.9c0,3-1.1,5.8-3.2,8s-4.9,3.2-8,3.2c-3,0-5.8-1.1-8-3.2c-2.1-2.1-3.2-4.9-3.2-8s1.1-5.8,3.2-8c2.1-2.1,4.9-3.2,8-3.2
		c3,0,5.8,1.1,8,3.2C83.4,14.1,84.5,16.7,84.5,19.9z"/>
</g>
</svg>
