<?xml version="1.0" encoding="utf-8"?>
<!-- Generator: Adobe Illustrator 22.1.0, SVG Export Plug-In . SVG Version: 6.00 Build 0)  -->
<svg version="1.1" id="Layer_1" xmlns="http://www.w3.org/2000/svg" xmlns:xlink="http://www.w3.org/1999/xlink" x="0px" y="0px"
	 viewBox="0 0 400 400" style="enable-background:new 0 0 400 400;" xml:space="preserve">
<style type="text/css">
	.st0{fill:#FFFFFF;}
</style>
<g>
	<path class="st0" d="M370.5,117h-341C13.3,117,0,103.7,0,87.5v0C0,71.3,13.3,58,29.5,58h341c16.2,0,29.5,13.3,29.5,29.5v0
		C400,103.7,386.7,117,370.5,117z"/>
</g>
<g>
	<path class="st0" d="M370.5,333h-341C13.3,333,0,319.7,0,303.5v0C0,287.3,13.3,274,29.5,274h341c16.2,0,29.5,13.3,29.5,29.5v0
		C400,319.7,386.7,333,370.5,333z"/>
</g>
<g>
	<path class="st0" d="M370.5,225h-341C13.3,225,0,211.7,0,195.5v0C0,179.3,13.3,166,29.5,166h341c16.2,0,29.5,13.3,29.5,29.5v0
		C400,211.7,386.7,225,370.5,225z"/>
</g>
</svg>
