<?xml version="1.0" encoding="utf-8"?>
<!-- Generator: Adobe Illustrator 21.1.0, SVG Export Plug-In . SVG Version: 6.00 Build 0)  -->
<svg version="1.1" id="Layer_1" xmlns="http://www.w3.org/2000/svg" xmlns:xlink="http://www.w3.org/1999/xlink" x="0px" y="0px"
	 viewBox="0 0 240 240" enable-background="new 0 0 240 240" xml:space="preserve">
<g>
	<path fill="#FFFFFF" d="M138.8,120.2c0,25.9,0,51.8,0,77.6c0,0.8-0.2,1-1,1c-16.8,0-33.6,0-50.5,0c-0.8,0-1-0.2-1-1
		c0-16.8,0-33.6,0-50.5c0-0.8-0.2-1-1-1c-8.1,0-16.2,0-24.4,0c-0.7,0-0.9,0.2-0.9,0.9c0,16.9,0,33.7,0,50.6c0,0.8-0.2,1-1,1
		c-16.8,0-33.6,0-50.5,0c-0.8,0-1-0.2-1-1c0-51.8,0-103.5,0-155.3c0-0.8,0.2-1,1-1c16.8,0,33.6,0,50.5,0c0.8,0,1,0.2,1,1
		c0,16.8,0,33.6,0,50.5c0,0.8,0.2,1,1,1c8.1,0,16.2,0,24.4,0c0.7,0,0.9-0.2,0.9-0.9c0-16.9,0-33.7,0-50.6c0-0.8,0.2-1,1-1
		c16.8,0,33.6,0,50.5,0c0.8,0,1,0.2,1,1C138.8,68.4,138.8,94.3,138.8,120.2z M121.4,120.2c0-20.1,0-40.2,0-60.3
		c0-0.7-0.2-0.9-0.9-0.9c-5.2,0-10.4,0-15.6,0c-0.8,0-1,0.2-1,1c0,16.8,0,33.6,0,50.5c0,0.8-0.2,1-1,1c-19.7,0-39.5,0-59.2,0
		c-0.8,0-1-0.2-1-1c0-16.9,0-33.7,0-50.6c0-0.7-0.2-0.9-0.9-0.9c-5.3,0-10.5,0-15.8,0c-0.7,0-0.8,0.2-0.8,0.8c0,40.2,0,80.5,0,120.7
		c0,0.6,0.1,0.8,0.8,0.8c5.2,0,10.5,0,15.7,0c0.8,0,1-0.2,1-1c0-16.8,0-33.6,0-50.5c0-0.8,0.2-1,1-1c19.7,0,39.5,0,59.2,0
		c0.8,0,1,0.2,1,1c0,16.9,0,33.7,0,50.6c0,0.7,0.2,0.9,0.9,0.9c5.2,0,10.4,0,15.6,0c0.8,0,1-0.2,1-1
		C121.4,160.3,121.4,140.2,121.4,120.2z"/>
	<path fill="#FFFFFF" d="M234.9,120.2c0,25.9,0,51.7,0,77.6c0,0.8-0.2,1-1,1c-13.9,0-27.9,0-41.8,0c-0.7,0-0.9-0.2-0.9-0.9
		c0-31.4,0-62.8,0-94.1c0-0.9-0.2-1.1-1.1-1.1c-8.1,0-16.2,0-24.3,0c-0.7,0-0.9-0.1-0.9-0.9c0-11.1,0-22.1,0-33.2
		c0-0.7,0.1-0.9,0.9-0.9c3.4,0,6.8,0.2,10.1-0.1c4.6-0.4,8.8-2.2,12.4-5c6-4.7,10.2-10.7,13-17.8c0.3-0.9,0.7-1.7,1-2.6
		c0.2-0.6,0.5-0.7,1.1-0.7c7,0,13.9,0,20.9,0c3.2,0,6.5,0,9.7,0c0.8,0,0.9,0.2,0.9,0.9C234.9,68.4,234.9,94.3,234.9,120.2z
		 M217.4,120.2c0-20,0-40,0-60c0-0.2,0-0.4,0-0.6c0.1-0.4-0.1-0.6-0.5-0.5c-0.9,0-1.9,0-2.8,0c-0.6,0-0.9,0.1-1.1,0.7
		c-6.4,12-16.2,19.5-29.2,23.1c-1.2,0.3-1.2,0.3-1.3,1.6c0,0.7,0.2,0.9,0.9,0.9c8.2,0,16.4,0,24.5,0c0.7,0,0.8,0.1,0.8,0.8
		c0,3,0,6.1,0,9.1c0,28.4,0,56.9,0,85.3c0,0.7,0.2,0.9,0.9,0.9c2.3-0.1,4.6-0.1,6.9,0c0.8,0,1-0.2,1-1
		C217.4,160.3,217.4,140.2,217.4,120.2z"/>
</g>
</svg>
