<?xml version="1.0" encoding="utf-8"?>
<!-- Generator: Adobe Illustrator 16.0.3, SVG Export Plug-In . SVG Version: 6.00 Build 0)  -->
<!DOCTYPE svg PUBLIC "-//W3C//DTD SVG 1.1//EN" "http://www.w3.org/Graphics/SVG/1.1/DTD/svg11.dtd">
<svg version="1.1" id="Layer_1" xmlns="http://www.w3.org/2000/svg" xmlns:xlink="http://www.w3.org/1999/xlink" x="0px" y="0px"
	 width="14px" height="14px" viewBox="0 0 62 62" enable-background="new 0 0 62 62" xml:space="preserve">
<g>
	<path fill-rule="evenodd" clip-rule="evenodd" fill="#403151" d="M31.004,14.254c1.372-3.322,3.063-6.306,5.369-8.79
		c2.534-2.729,5.474-4.691,8.938-5.256c4.05-0.661,7.76,0.425,10.991,3.454c3.122,2.926,4.793,6.789,5.422,11.19
		c0.771,5.393-0.145,10.619-1.872,15.661c-1.661,4.85-4.019,9.26-6.934,13.236c-3.155,4.305-6.703,8.202-10.794,11.326
		c-3.245,2.479-6.698,4.605-10.054,6.901c-0.722,0.494-1.382,0.448-2.14,0.029c-4.325-2.382-8.44-5.18-12.184-8.596
		c-2.532-2.313-4.948-4.835-7.183-7.516c-3.344-4.012-6.034-8.591-7.991-13.682C1.201,28.643,0.33,24.94-0.034,21.026
		C-0.433,16.746,0.138,12.73,1.8,8.942C3.921,4.11,7.418,1.13,12.065,0.223c2.773-0.542,5.54-0.086,8.189,1.247
		c2.191,1.102,4.126,2.606,5.765,4.521c1.864,2.184,3.423,4.672,4.601,7.44C30.728,13.686,30.854,13.933,31.004,14.254z
		 M60.418,18.826c-0.062-3.302-0.554-6.376-1.883-9.231c-2.546-5.47-7.569-8.655-13.015-7.613
		c-4.238,0.811-7.563,3.479-10.062,7.354c-1.392,2.163-2.39,4.654-3.601,6.974c-0.187,0.36-0.577,0.865-0.823,0.833
		c-0.336-0.043-0.742-0.476-0.914-0.86c-1.118-2.48-2.223-4.949-3.803-7.126c-3.501-4.824-7.696-7.822-13.438-7.219
		c-2.542,0.267-4.691,1.468-6.589,3.301c-3.26,3.149-4.547,7.401-4.881,12.079c-0.209,2.923,0.222,5.818,0.872,8.643
		c1.06,4.605,2.941,8.792,5.254,12.729c2.744,4.677,6.138,8.687,9.947,12.222c3.948,3.664,8.222,6.782,12.84,9.252
		c0.364,0.196,0.957,0.216,1.307,0.011c1.883-1.106,3.764-2.229,5.568-3.493c4.977-3.495,9.513-7.6,13.381-12.649
		c2.986-3.896,5.478-8.127,7.327-12.853C59.463,27.21,60.266,23.053,60.418,18.826z"/>
	<linearGradient id="SVGID_1_" gradientUnits="userSpaceOnUse" x1="1.3579" y1="31.0508" x2="60.418" y2="31.0508">
		<stop  offset="0.0172" style="stop-color:#614875"/>
		<stop  offset="0.1392" style="stop-color:#644A7A"/>
		<stop  offset="0.3342" style="stop-color:#6D4D88"/>
		<stop  offset="0.4995" style="stop-color:#755097"/>
		<stop  offset="0.5166" style="stop-color:#745095"/>
		<stop  offset="0.7116" style="stop-color:#6A4C84"/>
		<stop  offset="0.8795" style="stop-color:#644979"/>
		<stop  offset="1" style="stop-color:#614875"/>
	</linearGradient>
	<path fill-rule="evenodd" clip-rule="evenodd" fill="url(#SVGID_1_)" d="M60.418,18.826c-0.152,4.228-0.955,8.384-2.511,12.351
		c-1.85,4.726-4.341,8.957-7.327,12.853c-3.868,5.05-8.404,9.154-13.381,12.649c-1.805,1.264-3.686,2.387-5.568,3.493
		c-0.35,0.205-0.942,0.186-1.307-0.011c-4.618-2.47-8.892-5.588-12.84-9.252c-3.81-3.535-7.203-7.545-9.947-12.222
		c-2.313-3.938-4.194-8.124-5.254-12.729c-0.65-2.825-1.081-5.72-0.872-8.643c0.334-4.678,1.621-8.929,4.881-12.079
		c1.897-1.833,4.047-3.034,6.589-3.301c5.741-0.603,9.937,2.396,13.438,7.219c1.58,2.177,2.685,4.646,3.803,7.126
		c0.172,0.384,0.578,0.817,0.914,0.86c0.246,0.033,0.637-0.472,0.823-0.833c1.211-2.32,2.209-4.812,3.601-6.974
		c2.498-3.875,5.823-6.543,10.062-7.354c5.445-1.042,10.469,2.143,13.015,7.613C59.864,12.45,60.356,15.523,60.418,18.826z"/>
</g>
</svg>
