<?xml version="1.0" encoding="utf-8"?>
<!-- Generator: Adobe Illustrator 16.0.3, SVG Export Plug-In . SVG Version: 6.00 Build 0)  -->
<!DOCTYPE svg PUBLIC "-//W3C//DTD SVG 1.1//EN" "http://www.w3.org/Graphics/SVG/1.1/DTD/svg11.dtd">
<svg version="1.1" id="Layer_1" xmlns="http://www.w3.org/2000/svg" xmlns:xlink="http://www.w3.org/1999/xlink" x="0px" y="0px"
	 width="40px" height="40px" viewBox="0 0 40 40" enable-background="new 0 0 40 40" xml:space="preserve">
<g>
	<rect x="3" y="1" fill="none" stroke="#FFFFFF" stroke-miterlimit="10" width="33" height="37"/>
	<g>
		<path fill="#FFFFFF" d="M8.543,7.152h1.055v3.622h0.024c0.168-0.3,0.432-0.563,0.756-0.743c0.312-0.18,0.684-0.3,1.079-0.3
			c0.779,0,2.026,0.479,2.026,2.482v3.454h-1.055v-3.334c0-0.936-0.348-1.727-1.344-1.727c-0.684,0-1.224,0.479-1.415,1.055
			c-0.06,0.144-0.072,0.3-0.072,0.504v3.502H8.543V7.152z"/>
		<path fill="#FFFFFF" d="M16.378,8.231c0.012,0.36-0.252,0.648-0.672,0.648c-0.371,0-0.636-0.288-0.636-0.648
			c0-0.372,0.276-0.66,0.66-0.66C16.126,7.572,16.378,7.86,16.378,8.231z M15.203,15.667V9.863h1.055v5.805H15.203z"/>
		<path fill="#FFFFFF" d="M23.012,9.863c-0.024,0.419-0.048,0.887-0.048,1.595v3.37c0,1.331-0.264,2.146-0.828,2.65
			c-0.563,0.528-1.379,0.696-2.11,0.696c-0.696,0-1.464-0.168-1.931-0.48l0.264-0.804c0.384,0.24,0.983,0.456,1.703,0.456
			c1.079,0,1.871-0.564,1.871-2.027v-0.648h-0.024c-0.324,0.54-0.947,0.972-1.847,0.972c-1.439,0-2.471-1.223-2.471-2.831
			c0-1.967,1.283-3.082,2.614-3.082c1.008,0,1.56,0.527,1.811,1.007h0.024l0.048-0.875H23.012z M21.92,12.153
			c0-0.18-0.012-0.336-0.06-0.479c-0.192-0.612-0.708-1.116-1.476-1.116c-1.007,0-1.727,0.852-1.727,2.195
			c0,1.14,0.575,2.087,1.715,2.087c0.647,0,1.235-0.408,1.463-1.079c0.061-0.18,0.084-0.384,0.084-0.564V12.153z"/>
		<path fill="#FFFFFF" d="M24.719,7.152h1.055v3.622h0.024c0.168-0.3,0.432-0.563,0.756-0.743c0.312-0.18,0.684-0.3,1.079-0.3
			c0.779,0,2.026,0.479,2.026,2.482v3.454h-1.055v-3.334c0-0.936-0.348-1.727-1.344-1.727c-0.684,0-1.224,0.479-1.415,1.055
			c-0.06,0.144-0.072,0.3-0.072,0.504v3.502h-1.055V7.152z"/>
		<path fill="#FFFFFF" d="M8.398,18.152h1.823v8.516H8.398V18.152z"/>
		<path fill="#FFFFFF" d="M13.581,19.172c0,0.504-0.384,0.911-0.983,0.911c-0.575,0-0.959-0.407-0.947-0.911
			c-0.012-0.527,0.372-0.924,0.96-0.924C13.197,18.248,13.569,18.645,13.581,19.172z M11.698,26.668v-5.865h1.823v5.865H11.698z"/>
		<path fill="#FFFFFF" d="M20.587,20.803c-0.023,0.371-0.048,0.863-0.048,1.738v3.275c0,1.127-0.228,2.051-0.887,2.639
			c-0.648,0.551-1.523,0.719-2.387,0.719c-0.768,0-1.584-0.156-2.111-0.455l0.36-1.379c0.371,0.215,1.019,0.443,1.702,0.443
			c0.864,0,1.523-0.469,1.523-1.547v-0.385h-0.023c-0.349,0.492-0.912,0.768-1.583,0.768c-1.452,0-2.483-1.175-2.483-2.866
			c0-1.883,1.224-3.082,2.663-3.082c0.804,0,1.307,0.348,1.606,0.827h0.024l0.06-0.695H20.587z M18.717,23.189
			c0-0.12-0.013-0.24-0.036-0.336c-0.132-0.479-0.479-0.804-0.983-0.804c-0.66,0-1.199,0.601-1.199,1.667
			c0,0.876,0.432,1.56,1.199,1.56c0.468,0,0.839-0.312,0.959-0.743c0.048-0.133,0.061-0.324,0.061-0.48V23.189z"/>
		<path fill="#FFFFFF" d="M22.006,18.152h1.823v3.346h0.023c0.192-0.252,0.433-0.443,0.72-0.6c0.265-0.144,0.612-0.228,0.948-0.228
			c1.163,0,2.051,0.804,2.051,2.566v3.431h-1.823v-3.227c0-0.768-0.264-1.295-0.947-1.295c-0.48,0-0.78,0.312-0.912,0.635
			c-0.048,0.12-0.06,0.276-0.06,0.408v3.479h-1.823V18.152z"/>
		<path fill="#FFFFFF" d="M31.005,19.123v1.68h1.308v1.344h-1.308v2.123c0,0.707,0.168,1.031,0.72,1.031
			c0.228,0,0.407-0.024,0.54-0.049l0.012,1.379c-0.24,0.097-0.672,0.156-1.188,0.156c-0.588,0-1.079-0.203-1.367-0.504
			c-0.336-0.348-0.504-0.911-0.504-1.738v-2.398h-0.779v-1.344h0.779v-1.271L31.005,19.123z"/>
	</g>
</g>
</svg>
