<?xml version="1.0" encoding="iso-8859-1"?>
<!-- Generator: Adobe Illustrator 16.0.3, SVG Export Plug-In . SVG Version: 6.00 Build 0)  -->
<!DOCTYPE svg PUBLIC "-//W3C//DTD SVG 1.1//EN" "http://www.w3.org/Graphics/SVG/1.1/DTD/svg11.dtd">
<svg version="1.1" id="Layer_1" xmlns="http://www.w3.org/2000/svg" xmlns:xlink="http://www.w3.org/1999/xlink" x="0px" y="0px"
	 width="40px" height="40px" viewBox="0 0 40 40" style="enable-background:new 0 0 40 40;" xml:space="preserve">
<g>
	<polygon style="fill:#FFFFFF;" points="37.025,18 28.62,10.683 20.215,3.337 11.809,10.668 3.403,18 8,18 8,38 15.83,38 15.881,27 
		24.699,27 24.75,38 32,38 32,18 	"/>
	<g>
		<path style="fill:#FFFFFF;" d="M38.101,17.419C32.513,12.391,26.909,7.38,21.29,2.386c-0.646-0.574-1.505-0.577-2.15,0
			C13.536,7.397,7.932,12.408,2.328,17.419c-1.011,0.904-0.197,2.596,1.075,2.596c1.549,0,3.098,0,4.647,0
			c-0.507-0.507-1.014-1.014-1.521-1.521c0,6.335,0,12.67,0,19.005c0,0.829,0.692,1.521,1.521,1.521c2.593,0,5.186,0,7.779,0
			c0.832,0,1.517-0.691,1.521-1.521c0.017-3.599,0.034-7.196,0.051-10.795c-0.507,0.507-1.014,1.014-1.521,1.521
			c2.939,0,5.879,0,8.818,0c-0.507-0.507-1.014-1.014-1.521-1.521c0.017,3.599,0.034,7.196,0.051,10.795
			c0.004,0.829,0.688,1.521,1.521,1.521c2.543,0,5.085,0,7.628,0c0.829,0,1.521-0.691,1.521-1.521c0-6.335,0-12.67,0-19.005
			c-0.507,0.507-1.014,1.014-1.521,1.521c1.549,0,3.099,0,4.647,0c1.961,0,1.961-3.041,0-3.041c-1.549,0-3.099,0-4.647,0
			c-0.829,0-1.521,0.692-1.521,1.521c0,6.335,0,12.67,0,19.005c0.507-0.507,1.014-1.014,1.521-1.521c-2.543,0-5.085,0-7.628,0
			c0.507,0.507,1.014,1.014,1.521,1.521c-0.017-3.599-0.034-7.196-0.051-10.795c-0.004-0.829-0.688-1.521-1.521-1.521
			c-2.939,0-5.879,0-8.818,0c-0.832,0-1.517,0.691-1.521,1.521c-0.017,3.599-0.034,7.196-0.051,10.795
			c0.507-0.507,1.014-1.014,1.521-1.521c-2.593,0-5.186,0-7.779,0c0.507,0.507,1.014,1.014,1.521,1.521c0-6.335,0-12.67,0-19.005
			c0-0.829-0.692-1.521-1.521-1.521c-1.549,0-3.098,0-4.647,0c0.358,0.865,0.717,1.73,1.075,2.596
			C10.082,14.558,15.686,9.547,21.29,4.536c-0.717,0-1.434,0-2.15,0C24.76,9.53,30.362,14.541,35.95,19.57
			C37.403,20.877,39.561,18.734,38.101,17.419z"/>
	</g>
</g>
</svg>
