<?xml version="1.0" encoding="iso-8859-1"?>
<!-- Generator: Adobe Illustrator 16.0.3, SVG Export Plug-In . SVG Version: 6.00 Build 0)  -->
<!DOCTYPE svg PUBLIC "-//W3C//DTD SVG 1.1//EN" "http://www.w3.org/Graphics/SVG/1.1/DTD/svg11.dtd">
<svg version="1.1" id="Layer_1" xmlns="http://www.w3.org/2000/svg" xmlns:xlink="http://www.w3.org/1999/xlink" x="0px" y="0px"
	 width="35px" height="35px" viewBox="0 0 35 35" style="enable-background:new 0 0 35 35;" xml:space="preserve">
<g>
	<g>
		<g>
			<path style="fill:#FFFFFF;" d="M6.25,10.522c7.5,0,15,0,22.5,0c4.837,0,4.837-7.5,0-7.5c-7.5,0-15,0-22.5,0
				C1.414,3.022,1.414,10.522,6.25,10.522L6.25,10.522z"/>
		</g>
	</g>
	<g>
		<g>
			<path style="fill:#FFFFFF;" d="M6.25,21.375c7.5,0,15,0,22.5,0c4.837,0,4.837-7.5,0-7.5c-7.5,0-15,0-22.5,0
				C1.414,13.875,1.414,21.375,6.25,21.375L6.25,21.375z"/>
		</g>
	</g>
	<g>
		<g>
			<path style="fill:#FFFFFF;" d="M6.25,31.979c7.5,0,15,0,22.5,0c4.837,0,4.837-7.5,0-7.5c-7.5,0-15,0-22.5,0
				C1.414,24.479,1.414,31.979,6.25,31.979L6.25,31.979z"/>
		</g>
	</g>
</g>
</svg>
