<?xml version="1.0" encoding="utf-8"?>
<!-- Generator: Adobe Illustrator 16.0.4, SVG Export Plug-In . SVG Version: 6.00 Build 0)  -->
<!DOCTYPE svg PUBLIC "-//W3C//DTD SVG 1.1//EN" "http://www.w3.org/Graphics/SVG/1.1/DTD/svg11.dtd">
<svg version="1.1" id="Layer_1" xmlns="http://www.w3.org/2000/svg" xmlns:xlink="http://www.w3.org/1999/xlink" x="0px" y="0px"
	 width="79.5px" height="79.25px" viewBox="0 0 79.5 79.25" enable-background="new 0 0 79.5 79.25" xml:space="preserve">
<path id="Tick" fill-rule="evenodd" clip-rule="evenodd" fill="#006838" d="M27.932,56.979C39.218,40.224,49.971,24.26,60.723,8.296
	c1.02-1.514,1.944-3.102,3.072-4.53c3.165-4.005,7.547-4.865,11.413-2.343c3.748,2.445,4.898,7.167,2.196,11.397
	c-5.095,7.977-10.507,15.751-15.797,23.604C53.44,48.547,45.303,60.69,37.08,72.774c-4.583,6.734-9.251,7.102-15.023,1.343
	C15.814,67.889,9.552,61.68,3.36,55.401c-4.149-4.207-4.441-8.688-0.958-12.288c3.276-3.387,8.489-3.259,12.442,0.566
	C19.131,47.828,23.225,52.177,27.932,56.979z"/>
</svg>
