<?xml version="1.0" encoding="UTF-8" standalone="no"?>
<!-- Generator: Adobe Illustrator 16.0.4, SVG Export Plug-In . SVG Version: 6.00 Build 0)  -->

<svg
   xmlns:osb="http://www.openswatchbook.org/uri/2009/osb"
   xmlns:dc="http://purl.org/dc/elements/1.1/"
   xmlns:cc="http://creativecommons.org/ns#"
   xmlns:rdf="http://www.w3.org/1999/02/22-rdf-syntax-ns#"
   xmlns:svg="http://www.w3.org/2000/svg"
   xmlns="http://www.w3.org/2000/svg"
   xmlns:sodipodi="http://sodipodi.sourceforge.net/DTD/sodipodi-0.dtd"
   xmlns:inkscape="http://www.inkscape.org/namespaces/inkscape"
   version="1.1"
   id="Layer_1"
   x="0px"
   y="0px"
   width="79.5px"
   height="79.25px"
   viewBox="0 0 79.5 79.25"
   enable-background="new 0 0 79.5 79.25"
   xml:space="preserve"
   sodipodi:docname="Icon_Cross_Grey.svg"
   inkscape:export-filename="C:\Users\RoperKlacks\Documents\GitHub\LenaSYS\Shared\icons\Icon_Cross_Grey.png"
   inkscape:export-xdpi="28.171"
   inkscape:export-ydpi="28.171"
   inkscape:version="0.92.4 (5da689c313, 2019-01-14)"><metadata
   id="metadata8"><rdf:RDF><cc:Work
       rdf:about=""><dc:format>image/svg+xml</dc:format><dc:type
         rdf:resource="http://purl.org/dc/dcmitype/StillImage" /><dc:title></dc:title></cc:Work></rdf:RDF></metadata><defs
   id="defs6"><linearGradient
     id="linearGradient4542"
     osb:paint="solid"><stop
       style="stop-color:#be1e2d;stop-opacity:1;"
       offset="0"
       id="stop4540" /></linearGradient><clipPath
     clipPathUnits="userSpaceOnUse"
     id="clipPath852"><rect
       style="opacity:1;fill:none;fill-opacity:1;stroke:#000000;stroke-width:6.0219841;stroke-miterlimit:4;stroke-dasharray:none;stroke-dashoffset:0;stroke-opacity:1"
       id="rect854"
       width="96.697296"
       height="56.736492"
       x="-146.23584"
       y="35.434719"
       ry="0"
       rx="0"
       clip-path="none" /></clipPath><clipPath
     clipPathUnits="userSpaceOnUse"
     id="clipPath852-5"><rect
       style="opacity:1;fill:none;fill-opacity:1;stroke:#000000;stroke-width:6.0219841;stroke-miterlimit:4;stroke-dasharray:none;stroke-dashoffset:0;stroke-opacity:1"
       id="rect854-7"
       width="96.697296"
       height="56.736492"
       x="-146.23584"
       y="35.434719"
       ry="0"
       rx="0"
       clip-path="none" /></clipPath><clipPath
     clipPathUnits="userSpaceOnUse"
     id="clipPath852-0"><rect
       style="opacity:1;fill:none;fill-opacity:1;stroke:#000000;stroke-width:6.0219841;stroke-miterlimit:4;stroke-dasharray:none;stroke-dashoffset:0;stroke-opacity:1"
       id="rect854-9"
       width="96.697296"
       height="56.736492"
       x="-146.23584"
       y="35.434719"
       ry="0"
       rx="0"
       clip-path="none" /></clipPath><clipPath
     clipPathUnits="userSpaceOnUse"
     id="clipPath995"><ellipse
       style="opacity:1;fill:#550000;fill-opacity:1;stroke:#000000;stroke-width:5;stroke-miterlimit:4;stroke-dasharray:none;stroke-dashoffset:0;stroke-opacity:1"
       id="ellipse997"
       cx="231.75125"
       cy="-86.252686"
       rx="64.586411"
       ry="65.298767" /></clipPath><clipPath
     clipPathUnits="userSpaceOnUse"
     id="clipPath1009"><ellipse
       style="opacity:1;fill:none;fill-opacity:1;stroke:#000000;stroke-width:5;stroke-miterlimit:4;stroke-dasharray:none;stroke-dashoffset:0;stroke-opacity:1"
       id="ellipse1011"
       cx="163.60309"
       cy="63.578297"
       rx="40.603958"
       ry="41.79121" /></clipPath></defs><sodipodi:namedview
   pagecolor="#ffffff"
   bordercolor="#666666"
   borderopacity="1"
   objecttolerance="10"
   gridtolerance="10"
   guidetolerance="10"
   inkscape:pageopacity="0"
   inkscape:pageshadow="2"
   inkscape:window-width="1920"
   inkscape:window-height="1001"
   id="namedview4"
   showgrid="false"
   inkscape:zoom="2.105706"
   inkscape:cx="74.803472"
   inkscape:cy="21.316532"
   inkscape:window-x="-9"
   inkscape:window-y="-9"
   inkscape:window-maximized="1"
   inkscape:current-layer="Layer_1"
   showguides="false" />
<path
   id="Cross"
   d="M67.429,57.649  c-6.034-6.167-12.076-12.343-18.171-18.573c6.095-6.23,12.137-12.406,18.171-18.573c1.276-1.305,2.645-2.531,3.814-3.925  c3.283-3.909,3.239-8.375-0.013-11.651c-3.152-3.176-8.009-3.348-11.605,0.153c-6.782,6.604-13.301,13.475-19.922,20.244  c-0.582,0.595-1.165,1.189-1.747,1.784c-0.582-0.595-1.164-1.189-1.746-1.784c-6.621-6.769-13.14-13.64-19.922-20.244  C12.693,1.58,7.836,1.751,4.684,4.928C1.432,8.204,1.388,12.67,4.671,16.579c1.17,1.394,2.538,2.62,3.814,3.925  c6.034,6.167,12.076,12.343,18.171,18.573c-6.095,6.23-12.137,12.406-18.171,18.573c-1.276,1.305-2.645,2.531-3.814,3.925  c-3.283,3.909-3.239,8.375,0.013,11.651c3.152,3.176,8.009,3.348,11.605-0.153c6.782-6.604,13.301-13.475,19.922-20.244  c0.582-0.595,1.165-1.189,1.746-1.784c0.582,0.595,1.165,1.189,1.747,1.784c6.621,6.769,13.14,13.64,19.922,20.244  c3.596,3.501,8.453,3.33,11.605,0.153c3.251-3.276,3.296-7.742,0.013-11.651C70.074,60.181,68.706,58.954,67.429,57.649z"
   style="fill-opacity:0.80000001;fill:#3e3748;fill-rule:evenodd;stroke:none;stroke-opacity:1"
   inkscape:export-xdpi="28.171"
   inkscape:export-ydpi="28.171"
   clip-rule="evenodd"
   fill-rule="evenodd"
   fill="#BE1E2D" />
<ellipse
   style="opacity:1;fill:none;fill-opacity:1;stroke:none;stroke-width:1.00157475;stroke-miterlimit:4;stroke-dasharray:none;stroke-dashoffset:0;stroke-opacity:1"
   id="path11"
   cx="-157.82838"
   cy="13.432203"
   rx="39.960804"
   ry="51.378178" /><rect
   style="opacity:1;fill:none;fill-opacity:1;stroke:#000000;stroke-width:6.15744209;stroke-miterlimit:4;stroke-dasharray:none;stroke-dashoffset:0;stroke-opacity:1"
   id="rect842"
   width="63.467159"
   height="101.85397"
   x="153.44624"
   y="-57.726097"
   clip-path="url(#clipPath995)" /><circle
   style="opacity:1;fill:none;fill-opacity:1;stroke:#000000;stroke-width:4.53979683;stroke-miterlimit:4;stroke-dasharray:none;stroke-dashoffset:0;stroke-opacity:1"
   id="path15-5"
   cx="-98.3909"
   cy="34.099049"
   r="0"
   clip-path="none" /><circle
   style="opacity:1;fill:none;fill-opacity:1;stroke:#000000;stroke-width:4.53979683;stroke-miterlimit:4;stroke-dasharray:none;stroke-dashoffset:0;stroke-opacity:1"
   id="path15-3"
   cx="-98.3909"
   cy="34.099049"
   r="0"
   clip-path="none" /><circle
   style="opacity:1;fill:none;fill-opacity:1;stroke:#000000;stroke-width:4.53979683;stroke-miterlimit:4;stroke-dasharray:none;stroke-dashoffset:0;stroke-opacity:1"
   id="path15-31"
   cx="-98.3909"
   cy="34.099049"
   r="0"
   clip-path="none" /><circle
   style="opacity:1;fill:none;fill-opacity:1;stroke:#000000;stroke-width:4.53979683;stroke-miterlimit:4;stroke-dasharray:none;stroke-dashoffset:0;stroke-opacity:1"
   id="path15-9"
   cx="-98.3909"
   cy="34.099049"
   r="0"
   clip-path="none" /><circle
   style="opacity:1;fill:none;fill-opacity:1;stroke:#000000;stroke-width:4.53979683;stroke-miterlimit:4;stroke-dasharray:none;stroke-dashoffset:0;stroke-opacity:1"
   id="path15-1"
   cx="-98.3909"
   cy="34.099049"
   r="0"
   clip-path="url(#clipPath852-5)" /><g
   id="g950"
   style="stroke-width:8.974;stroke-miterlimit:4;stroke-dasharray:none"><g
     id="g956"
     transform="rotate(-40.839344,-103.62331,54.174751)"
     style="stroke-width:8.974;stroke-miterlimit:4;stroke-dasharray:none"><circle
       style="opacity:1;fill:none;fill-opacity:1;stroke:#000000;stroke-width:8.974;stroke-miterlimit:4;stroke-dasharray:none;stroke-dashoffset:0;stroke-opacity:1"
       id="path15"
       cx="-98.3909"
       cy="34.099049"
       r="35.825443"
       clip-path="url(#clipPath852)"
       transform="translate(9.4980021,17.571304)" /><circle
       style="opacity:1;fill:none;fill-opacity:1;stroke:#000000;stroke-width:8.974;stroke-miterlimit:4;stroke-dasharray:none;stroke-dashoffset:0;stroke-opacity:1"
       id="path15-6"
       cx="-98.3909"
       cy="34.099049"
       r="35.825443"
       clip-path="url(#clipPath852-0)"
       transform="rotate(-90,-84.856247,38.1357)" /></g></g><rect
   style="opacity:1;fill:none;fill-opacity:1;stroke:#000000;stroke-width:8.97399998;stroke-miterlimit:4;stroke-dasharray:none;stroke-dashoffset:0;stroke-opacity:1"
   id="rect1003"
   width="132.74809"
   height="114.07405"
   x="177.578"
   y="76.265564"
   ry="3.0446804"
   rx="0"
   clip-path="url(#clipPath1009)"
   transform="rotate(-78.754455,-7.7368101,235.47627)" /></svg>