<?xml version="1.0" encoding="utf-8"?>
<!-- Generator: Adobe Illustrator 15.1.0, SVG Export Plug-In . SVG Version: 6.00 Build 0)  -->
<!DOCTYPE svg PUBLIC "-//W3C//DTD SVG 1.1//EN" "http://www.w3.org/Graphics/SVG/1.1/DTD/svg11.dtd">
<svg version="1.1" id="Lager_1" xmlns="http://www.w3.org/2000/svg" xmlns:xlink="http://www.w3.org/1999/xlink" x="0px" y="0px"
	 width="24px" height="24px" viewBox="0 0 24 24" enable-background="new 0 0 24 24" xml:space="preserve">
<g>
	<path fill="#FFFFFF" d="M15.178,17.263v-0.712c-0.02-0.06-0.023-0.128-0.016-0.195c-0.004-0.03-0.006-0.059-0.002-0.09
		c-0.014-0.061-0.016-0.126-0.004-0.189c-0.004-0.013-0.006-0.029-0.008-0.045c-0.01-0.017-0.021-0.033-0.027-0.054
		c-0.006,0.054-0.012,0.105-0.016,0.158c-0.004-0.077-0.006-0.157-0.008-0.233c-0.012-0.053-0.014-0.109-0.006-0.163
		c-0.012-0.374-0.012-0.753-0.002-1.119c-0.004-0.044-0.004-0.088,0.004-0.13c0.006-0.19,0.016-0.375,0.031-0.555
		c0.033-0.425,0.303-2.244,0.053-2.571c-0.033-0.044-0.053-0.1-0.059-0.16c-0.252,0.002-0.506-0.023-0.76-0.078
		c-0.15-0.029-0.299-0.066-0.447-0.112c-0.735-0.232-1.426-0.692-1.989-1.362c-0.086-0.08-0.17-0.16-0.255-0.244
		c-0.083-0.083-0.167-0.168-0.25-0.252c-0.091,0.059-0.179,0.123-0.263,0.191c-0.261,0.222-0.491,0.473-0.695,0.748
		c-0.102,0.135-0.198,0.277-0.287,0.424c-0.09,0.156-0.175,0.313-0.253,0.474c-0.081,0.16-0.156,0.323-0.228,0.488
		c-0.7,1.591-1.081,3.37-1.211,5.165c-0.002,0.146,0.002,0.291,0.013,0.433c0.043,0.569,0.192,1.114,0.5,1.603
		c0.079,0.079,0.167,0.148,0.262,0.213c0.134,0.081,0.271,0.15,0.411,0.211c0.139,0.059,0.278,0.111,0.419,0.156
		c0.142,0.049,0.286,0.09,0.429,0.127c0.142,0.041,0.286,0.078,0.429,0.11c0.145,0.029,0.289,0.059,0.434,0.081
		c0.147,0.032,0.293,0.062,0.441,0.082c0.146,0.021,0.293,0.036,0.441,0.048c0.148,0.021,0.297,0.034,0.445,0.044
		c0.147,0.01,0.294,0.016,0.441,0.017c0.219,0.021,0.437,0.033,0.655,0.042c0.107,0.004,0.217,0.004,0.326,0.005
		c0.35,0.01,0.699,0.012,1.049,0.008c0,0,0-0.931,0-2.175c-0.012-0.061-0.012-0.125,0-0.185c-0.012-0.063-0.012-0.129,0-0.189
		C15.178,17.272,15.178,17.267,15.178,17.263z"/>
</g>
<g>
	<path fill="#FFFFFF" d="M14.992,17.254l0.012-0.713c0.02-0.058,0.025-0.126,0.018-0.193c0.006-0.03,0.006-0.061,0.006-0.092
		c0.014-0.058,0.016-0.126,0.006-0.188c0.004-0.014,0.006-0.03,0.008-0.046c0.01-0.014,0.021-0.03,0.029-0.05
		c0.004,0.054,0.01,0.103,0.012,0.156c0.006-0.074,0.01-0.155,0.014-0.231c0.012-0.053,0.014-0.108,0.008-0.163
		c0.018-0.376,0.023-0.753,0.021-1.118c0.004-0.044,0.004-0.089-0.002-0.133c-0.004-0.188-0.01-0.372-0.021-0.554
		c-0.025-0.427-0.266-2.257-0.01-2.571c0.035-0.043,0.055-0.099,0.063-0.16c0.25,0.014,0.506-0.001,0.76-0.045
		c0.15-0.023,0.301-0.054,0.447-0.094c0.741-0.201,1.438-0.632,2.013-1.277c0.086-0.076,0.174-0.154,0.258-0.234
		c0.086-0.079,0.172-0.16,0.256-0.242c0.088,0.064,0.178,0.131,0.258,0.205c0.258,0.23,0.482,0.492,0.682,0.773
		c0.102,0.141,0.195,0.287,0.281,0.438c0.086,0.159,0.168,0.32,0.246,0.484c0.074,0.162,0.148,0.329,0.217,0.497
		c0.674,1.618,1.025,3.414,1.125,5.215c-0.002,0.143-0.01,0.289-0.021,0.43c-0.053,0.569-0.209,1.104-0.527,1.583
		c-0.08,0.075-0.17,0.142-0.264,0.202c-0.139,0.074-0.277,0.139-0.418,0.193c-0.137,0.053-0.277,0.098-0.418,0.138
		c-0.145,0.043-0.289,0.081-0.432,0.11c-0.146,0.033-0.289,0.066-0.432,0.089c-0.143,0.025-0.289,0.047-0.434,0.065
		c-0.146,0.025-0.297,0.05-0.443,0.062c-0.148,0.016-0.295,0.025-0.443,0.033c-0.146,0.012-0.299,0.02-0.447,0.024
		c-0.145,0.002-0.293,0.001-0.438-0.003c-0.219,0.013-0.438,0.016-0.654,0.014c-0.109-0.001-0.217-0.002-0.326-0.009
		c-0.352-0.005-0.699-0.017-1.049-0.034c0,0,0.016-0.932,0.037-2.174c0.012-0.062,0.014-0.127,0.002-0.187
		c0.014-0.063,0.016-0.128,0.002-0.19C14.99,17.263,14.99,17.259,14.992,17.254z"/>
</g>
<ellipse fill="#FFFFFF" cx="15.254" cy="6.417" rx="3.909" ry="3.898"/>
<rect x="13.04" y="13.616" fill="#FFFFFF" width="2.815" height="3.407"/>
<rect x="-1.966" y="8.602" fill="#FFFFFF" width="7.172" height="1.408"/>
<polygon fill="#FFFFFF" points="4.308,12.807 4.275,5.805 10.152,9.619 "/>
</svg>
