<?xml version="1.0" encoding="UTF-8" standalone="no"?>
<!DOCTYPE svg PUBLIC "-//W3C//DTD SVG 1.1//EN" "http://www.w3.org/Graphics/SVG/1.1/DTD/svg11.dtd">
<svg version="1.1" xmlns="http://www.w3.org/2000/svg" xmlns:xlink="http://www.w3.org/1999/xlink" preserveAspectRatio="xMidYMid meet" viewBox="-0.8815919999999999 -0.2410000000000001 19.927916 18.779" width="15.93" height="14.78"><defs><path d="M7.09 0.77L7.19 0.77L7.28 0.79L7.37 0.8L7.46 0.82L7.55 0.84L7.64 0.87L7.72 0.9L7.81 0.93L8 0.99L8.2 1.06L8.4 1.14L8.59 1.24L8.78 1.36L8.97 1.5L9.15 1.67L9.33 1.86L9.49 2.08L9.65 2.34L9.66 2.35L9.67 2.38L9.69 2.41L9.71 2.44L9.73 2.48L9.76 2.53L9.79 2.58L9.83 2.63L9.9 2.74L10.06 2.72L10.25 2.69L10.45 2.67L10.68 2.64L10.93 2.62L11.2 2.6L11.5 2.58L11.81 2.57L12.15 2.56L12.5 2.56L12.95 2.56L13.22 2.57L13.47 2.6L13.7 2.63L13.91 2.67L14.1 2.72L14.28 2.79L14.44 2.87L14.58 2.95L14.7 3.05L14.81 3.16L14.91 3.29L14.99 3.42L15.05 3.55L15.1 3.69L15.13 3.82L15.15 3.96L15.16 4.09L15.16 4.22L15.16 4.35L15.16 4.47L15.16 4.51L15.16 4.55L15.16 4.59L15.16 4.63L15.16 4.67L15.16 4.7L15.16 4.74L15.16 4.78L15.16 4.81L15.17 4.84L15.17 4.87L15.17 4.91L15.17 4.96L15.17 5.01L15.16 5.07L15.15 5.14L15.12 5.21L15.09 5.29L15.05 5.37L15.01 5.45L14.98 5.48L14.96 5.51L14.94 5.54L14.92 5.57L14.89 5.59L14.87 5.62L14.84 5.65L14.81 5.68L14.78 5.71L14.75 5.73L14.85 5.78L14.95 5.83L15.05 5.9L15.15 5.97L15.24 6.06L15.34 6.16L15.43 6.27L15.51 6.4L15.59 6.54L15.67 6.7L15.76 6.86L15.84 7.03L15.91 7.19L15.97 7.34L16.01 7.5L16.03 7.65L16.05 7.8L16.05 7.95L16.03 8.09L16 8.23L15.96 8.35L15.91 8.46L15.86 8.55L15.8 8.64L15.74 8.71L15.68 8.77L15.62 8.82L15.57 8.86L15.52 8.89L15.48 8.92L14.96 9.26L14.98 9.3L15 9.35L15.02 9.39L15.03 9.44L15.05 9.48L15.07 9.52L15.08 9.57L15.1 9.61L15.11 9.66L15.12 9.7L15.17 9.88L15.2 10.05L15.23 10.22L15.24 10.39L15.24 10.56L15.23 10.73L15.21 10.9L15.17 11.06L15.13 11.23L15.07 11.39L14.99 11.56L14.93 11.68L14.86 11.8L14.79 11.91L14.7 12.03L14.62 12.15L14.52 12.26L14.41 12.38L14.3 12.49L14.18 12.61L14.05 12.73L14.1 13.01L14.12 13.29L14.11 13.55L14.07 13.8L14 14.03L13.91 14.25L13.78 14.46L13.63 14.64L13.45 14.81L13.24 14.95L13.06 15.06L12.88 15.16L12.7 15.24L12.53 15.32L12.36 15.38L12.19 15.43L12.03 15.47L11.87 15.5L11.71 15.52L11.56 15.53L11.42 15.53L11.29 15.53L11.16 15.53L11.03 15.53L10.91 15.54L10.79 15.54L10.67 15.54L10.55 15.54L10.44 15.54L10.33 15.54L9.93 15.54L9.54 15.53L9.16 15.53L8.8 15.52L8.45 15.5L8.1 15.49L7.77 15.47L7.45 15.45L7.13 15.42L6.82 15.39L6.62 15.37L6.44 15.34L6.27 15.31L6.12 15.27L5.97 15.23L5.84 15.19L5.71 15.15L5.59 15.1L5.48 15.05L5.36 15.01L5.27 14.97L5.18 14.93L5.09 14.9L5 14.86L4.9 14.83L4.8 14.8L4.69 14.77L4.58 14.74L4.45 14.71L4.32 14.68L4.16 14.65L4.01 14.6L3.87 14.55L3.73 14.49L3.6 14.42L3.48 14.34L3.37 14.25L3.26 14.15L3.16 14.05L3.06 13.93L2.78 13.91L2.53 13.89L2.3 13.88L2.11 13.86L1.94 13.86L1.8 13.85L1.69 13.85L1.61 13.84L1.56 13.84L1.53 13.84L1.37 13.84L1.22 13.82L1.07 13.78L0.92 13.72L0.78 13.64L0.66 13.54L0.55 13.4L0.46 13.23L0.39 13.03L0.34 12.79L0.26 12.23L0.21 11.66L0.16 11.08L0.13 10.49L0.12 9.88L0.12 9.26L0.13 8.62L0.16 7.97L0.2 7.3L0.26 6.62L0.27 6.46L0.3 6.26L0.35 6.03L0.42 5.79L0.53 5.55L0.68 5.32L0.88 5.12L1.13 4.96L1.45 4.85L1.84 4.82L1.91 4.82L1.98 4.82L2.05 4.82L2.12 4.83L2.2 4.84L2.27 4.85L2.35 4.86L2.43 4.88L2.52 4.9L2.61 4.91L2.82 4.91L2.86 4.86L2.9 4.79L2.94 4.73L2.98 4.67L3.02 4.61L3.05 4.55L3.09 4.49L3.13 4.44L3.17 4.38L3.21 4.33L3.25 4.27L3.5 3.97L3.63 3.81L3.75 3.65L3.88 3.5L4 3.34L4.12 3.18L4.23 3.01L4.33 2.84L4.43 2.67L4.52 2.49L4.61 2.31L4.74 2.03L4.9 1.78L5.09 1.56L5.3 1.36L5.53 1.18L5.78 1.03L6.04 0.92L6.32 0.83L6.61 0.78L6.91 0.76L7 0.76L7.09 0.77ZM6.53 1.9L6.35 1.96L6.18 2.04L6.03 2.15L5.89 2.27L5.76 2.41L5.66 2.57L5.57 2.74L5.46 2.99L5.33 3.23L5.2 3.45L5.06 3.67L4.92 3.88L4.77 4.08L4.62 4.28L4.47 4.47L4.31 4.66L4.06 4.97L4.03 5.02L3.99 5.06L3.96 5.1L3.93 5.15L3.9 5.19L3.88 5.23L3.85 5.28L3.82 5.32L3.79 5.37L3.76 5.42L3.73 5.46L3.7 5.51L3.67 5.56L3.64 5.6L3.61 5.65L3.58 5.7L3.55 5.74L3.52 5.79L3.36 6.01L2.46 5.99L2.37 5.97L2.29 5.96L2.21 5.94L2.14 5.93L2.07 5.92L2.01 5.92L1.95 5.91L1.89 5.91L1.84 5.91L1.75 5.91L1.67 5.92L1.6 5.94L1.53 5.98L1.47 6.05L1.41 6.15L1.37 6.29L1.33 6.48L1.3 6.72L1.24 7.46L1.2 8.17L1.17 8.86L1.17 9.53L1.17 10.18L1.2 10.81L1.24 11.43L1.3 12.03L1.38 12.63L1.38 12.66L1.39 12.69L1.39 12.71L1.4 12.73L1.4 12.75L1.4 12.76L1.41 12.76L1.41 12.77L1.51 12.75L1.53 12.75L1.59 12.75L1.68 12.75L1.82 12.75L1.99 12.76L2.2 12.77L2.44 12.79L2.73 12.81L3.05 12.83L3.41 12.87L3.68 12.9L3.81 13.14L3.86 13.22L3.92 13.29L3.98 13.36L4.05 13.42L4.13 13.47L4.21 13.51L4.3 13.55L4.4 13.58L4.51 13.6L4.69 13.64L4.86 13.68L5.02 13.72L5.16 13.77L5.29 13.81L5.42 13.86L5.54 13.9L5.64 13.95L5.75 13.99L5.86 14.04L5.97 14.08L6.09 14.12L6.2 14.16L6.32 14.2L6.45 14.23L6.59 14.26L6.75 14.28L6.92 14.3L7.07 14.32L7.21 14.33L7.36 14.34L7.52 14.35L7.67 14.36L7.82 14.37L7.98 14.38L8.14 14.39L8.3 14.4L8.19 14.29L8.09 14.17L7.99 14.04L7.91 13.9L7.83 13.76L7.76 13.62L7.71 13.48L7.68 13.35L7.66 13.22L7.62 12.8L7.55 12.42L7.44 12.08L7.29 11.79L7.1 11.53L6.86 11.3L6.58 11.11L6.26 10.94L5.88 10.8L5.77 10.76L5.67 10.73L5.56 10.69L5.45 10.66L5.34 10.63L5.23 10.6L5.12 10.57L5 10.53L4.89 10.5L4.39 10.36L4.42 9.82L4.7 9.78L4.75 9.78L4.8 9.77L4.85 9.76L4.89 9.76L4.94 9.75L4.98 9.74L5.03 9.74L5.07 9.73L5.12 9.72L5.55 9.64L5.69 9.61L5.82 9.59L5.96 9.56L6.09 9.53L6.22 9.5L6.35 9.47L6.48 9.43L6.61 9.4L6.73 9.35L6.9 9.29L7.06 9.21L7.2 9.12L7.33 9.02L7.45 8.91L7.55 8.79L7.64 8.66L7.71 8.52L7.77 8.37L7.82 8.19L7.85 8.01L7.86 7.82L7.84 7.62L7.81 7.43L7.75 7.23L7.67 7.03L7.58 6.83L7.47 6.63L7.37 6.48L7.24 6.27L7.16 6.1L7.1 5.97L7.05 5.86L6.99 5.77L6.92 5.68L6.82 5.6L6.68 5.5L6.48 5.38L6.45 5.36L6.41 5.33L6.37 5.29L6.34 5.24L6.3 5.18L6.28 5.11L6.27 5.02L6.28 4.93L6.32 4.83L6.33 4.81L6.39 4.78L6.47 4.73L6.58 4.67L6.7 4.62L6.85 4.58L7 4.56L7.16 4.57L7.33 4.62L7.46 4.68L7.54 4.71L7.58 4.73L7.6 4.74L7.61 4.74L7.62 4.74L7.65 4.74L7.7 4.75L7.8 4.77L7.87 4.8L7.94 4.83L8.01 4.87L8.08 4.92L8.14 4.97L8.2 5.03L8.25 5.09L8.29 5.16L8.32 5.23L8.43 5.46L8.56 5.67L8.69 5.86L8.84 6.02L9 6.18L9.17 6.33L9.36 6.48L9.55 6.64L9.76 6.81L9.83 6.88L9.9 6.93L9.97 6.98L10.03 7.02L10.09 7.05L10.14 7.08L10.19 7.09L10.24 7.1L10.29 7.11L10.34 7.1L10.39 7.09L10.44 7.07L10.5 7.04L10.56 7L10.62 6.96L10.68 6.9L10.75 6.84L10.82 6.77L10.88 6.71L10.94 6.65L11 6.58L11.06 6.51L11.12 6.43L11.17 6.36L11.22 6.29L11.25 6.22L11.27 6.16L11.26 6.15L11.26 6.13L11.24 6.11L11.22 6.07L11.19 6.03L11.14 5.97L11.08 5.9L11.01 5.82L10.92 5.73L10.83 5.64L10.72 5.52L10.59 5.37L10.45 5.22L10.3 5.06L10.16 4.9L10.02 4.75L9.91 4.62L9.82 4.52L9.75 4.43L9.63 4.26L9.49 4.05L9.33 3.81L9.17 3.56L9.01 3.32L8.88 3.12L8.78 2.96L8.73 2.88L8.62 2.69L8.5 2.54L8.37 2.41L8.23 2.3L8.09 2.21L7.95 2.13L7.8 2.07L7.65 2.02L7.49 1.97L7.42 1.95L7.35 1.92L7.28 1.9L7.22 1.89L7.16 1.87L7.09 1.86L7.03 1.86L6.97 1.85L6.91 1.85L6.72 1.86L6.53 1.9ZM8.98 12.51L8.87 12.67L8.81 12.94L8.8 13.17L8.87 13.39L9.07 13.58L9.46 13.71L9.8 13.77L10.16 13.81L10.51 13.85L10.87 13.88L11.03 13.89L11.19 13.9L11.35 13.91L11.51 13.93L11.58 13.93L11.71 13.94L11.89 13.94L12.09 13.95L12.58 13.96L12.63 13.95L12.68 13.94L12.72 13.92L12.75 13.91L12.96 13.74L13.06 13.54L13.07 13.31L13.02 13.04L13.02 13.02L13 12.99L12.99 12.96L12.98 12.93L12.52 12.65L11.76 12.5L10.91 12.44L10.15 12.42L9.97 12.41L9.8 12.41L9.64 12.41L9.51 12.4L9.4 12.4L9.14 12.42L8.98 12.51ZM9.31 9.32L9.12 9.41L8.95 9.54L8.81 9.71L8.72 9.91L8.68 10.11L8.68 10.3L8.74 10.49L8.9 10.76L9.1 10.98L9.33 11.15L9.54 11.23L10.43 11.36L11.41 11.47L12.38 11.55L13.27 11.6L13.37 11.58L13.51 11.54L13.66 11.49L13.76 11.45L13.78 11.42L13.9 11.31L13.96 11.23L14.01 11.15L14.07 11.04L14.17 10.69L14.16 10.39L14.08 10.12L13.98 9.9L13.92 9.76L13.75 9.59L13.56 9.5L13.37 9.46L13.17 9.45L12.99 9.45L12.53 9.44L12.09 9.43L11.64 9.4L11.2 9.37L10.79 9.34L10.37 9.32L9.94 9.3L9.5 9.29L9.5 9.29L9.31 9.32ZM12.37 6.68L12.22 6.77L12.01 7.03L11.89 7.25L11.81 7.4L11.71 7.46L11.63 7.52L11.57 7.56L11.54 7.59L11.52 7.6L11.29 7.84L11.02 8.01L10.71 8.11L10.39 8.15L10.02 8.04L9.57 7.78L9.12 7.46L8.77 7.2L8.75 7.19L8.74 7.18L8.73 7.17L8.68 7.35L8.66 7.52L8.67 7.67L8.72 7.79L8.79 7.9L8.91 7.99L9.05 8.06L9.24 8.11L9.87 8.2L10.51 8.26L11.16 8.3L11.79 8.34L12.33 8.37L12.52 8.38L12.73 8.39L12.95 8.4L13.18 8.4L13.61 8.39L13.99 8.35L14.33 8.29L14.62 8.2L14.97 7.96L14.99 7.84L14.96 7.68L14.88 7.47L14.75 7.23L14.59 6.95L14.42 6.78L14.21 6.7L13.95 6.69L13.68 6.68L13.39 6.68L13.09 6.66L12.78 6.65L12.69 6.65L12.54 6.65L12.37 6.68ZM11.42 3.68L10.96 3.71L10.57 3.75L10.58 3.76L10.59 3.77L10.59 3.78L10.6 3.78L10.76 3.96L10.91 4.13L11.06 4.28L11.2 4.43L11.51 4.76L11.76 5.06L11.95 5.34L12.06 5.63L13 5.4L13.61 5.17L13.96 4.98L14.11 4.85L14.11 4.76L14.11 4.66L14.11 4.56L14.11 4.47L14.12 4.28L14.11 4.12L14.09 3.99L14.05 3.9L13.96 3.84L13.77 3.76L13.45 3.69L12.94 3.66L12.5 3.65L11.93 3.66L11.42 3.68Z" id="cc1XxbXBH"></path></defs><g><g><use xlink:href="#cc1XxbXBH" opacity="1" fill="#ffffff" fill-opacity="1"></use><g><use xlink:href="#cc1XxbXBH" opacity="1" fill-opacity="0" stroke="#000000" stroke-width="1" stroke-opacity="0"></use></g></g></g></svg>