<?xml version="1.0" encoding="iso-8859-1"?>
<!-- Generator: Adobe Illustrator 17.1.0, SVG Export Plug-In . SVG Version: 6.00 Build 0)  -->
<!DOCTYPE svg PUBLIC "-//W3C//DTD SVG 1.1//EN" "http://www.w3.org/Graphics/SVG/1.1/DTD/svg11.dtd">
<svg version="1.1" id="Capa_1" xmlns="http://www.w3.org/2000/svg" xmlns:xlink="http://www.w3.org/1999/xlink" x="0px" y="0px"
	 viewBox="0 0 382.275 382.275" style="enable-background:new 0 0 382.275 382.275;" xml:space="preserve">
<path d="M175.466,84.275c0-4.971,4.029-9,9-9h10.001c4.971,0,9,4.029,9,9s-4.029,9-9,9h-10.001
	C179.496,93.275,175.466,89.246,175.466,84.275z M204.009,204.002c12.328,0.96,24.51,6.007,33.263,13.908
	c3.69,3.331,9.382,3.04,12.711-0.65c3.331-3.689,3.04-9.16-0.65-12.49c-12.982-11.719-31.524-18.494-49.599-18.494h-1.237
	c-3.844,0-7.264,2.221-8.512,5.856c-2.12,6.174-10.586,12.313-22.667,12.313c-12.081,0-20.546-6.083-22.665-12.256
	c-1.248-3.636-4.668-5.913-8.513-5.913h-1.239c-30.6,0-59.204,18.84-65.12,43.174L43.354,338.046
	c-0.118,0.441-0.204,0.839-0.254,1.304c-0.124,1.12-0.034,2.199,0.241,3.244c0.247,0.938,0.641,1.804,1.156,2.596
	c1.071,1.65,2.68,2.948,4.653,3.616c0.292,0.1,0.59,0.18,0.895,0.249c0.673,0.154,1.346,0.226,2.01,0.226
	c0.09,0,0.18-0.003,0.27-0.006h54.021c4.971,0,9-4.029,9-9s-4.029-9-9-9H63.498l23.774-97.795
	c3.653-15.024,22.955-27.869,43.357-29.477c6.951,11.05,21.07,18.33,36.689,18.33C182.937,222.334,197.058,215.053,204.009,204.002z
	 M159.17,84.275c0-4.971-4.029-9-9-9h-10.001c-4.971,0-9,4.029-9,9s4.029,9,9,9h10.001C155.141,93.275,159.17,89.246,159.17,84.275z
	 M96.296,104.189c2.605,0.43,5.506-0.304,7.523-2.014s3.411-4.221,3.411-6.865V78.087C107.23,44.955,134.065,18,167.197,18
	c1.61,0,3.145,0.063,4.723,0.188c-8.34,12.947-20.495,22.306-34.146,26.124c-4.787,1.339-7.597,6.305-6.258,11.092
	c1.339,4.786,6.298,7.588,11.084,6.242c19.757-5.526,36.934-19.669,47.566-39.035c21.707,9.067,36.999,30.52,36.999,55.476
	c0,25.727-16.182,48.437-40,56.835c-2.833-2.39-6.491-3.647-10.479-3.647h-19.217c-8.971,0-16.27,7.029-16.27,15.999
	c0,8.971,7.299,16.001,16.27,16.001h19.217c7.277,0,13.453-4.719,15.526-11.321c23.191-7.843,41.083-25.89,48.827-48.374
	c10.454-2.538,17.19-8.972,17.19-16.953V66.679c0-8.283-7.242-14.944-18.385-17.265C228.392,20.501,200.084,0,167.144,0
	c-32.981,0-61.509,20.557-72.935,49.527C83.371,51.946,76.23,58.526,76.23,66.679v19.948
	C76.23,95.296,84.242,102.189,96.296,104.189z M265.536,327.275h0.453c4.971,0,9-4.029,9-9s-4.029-9-9-9h-0.453
	c-4.971,0-9,4.029-9,9S260.565,327.275,265.536,327.275z M329.914,208.275h-41.692c-4.971,0-9,4.029-9,9s4.029,9,9,9h33.009v117.037
	c0,4.971,4.029,9,9,9s9-4.029,9-9V216.946C339.23,211.976,334.885,208.275,329.914,208.275z M308.23,373.275c0,4.971-4.029,9-9,9
	h-101c-4.971,0-9-4.029-9-9v-126c0-4.971,4.029-9,9-9h101c4.971,0,9,4.029,9,9V373.275z M290.23,256.275h-83v17h28.253
	c4.971,0,9,4.029,9,9s-4.029,9-9,9H207.23v18h28.253c4.971,0,9,4.029,9,9s-4.029,9-9,9H207.23v37h83V256.275z M265.536,291.275
	h0.453c4.971,0,9-4.029,9-9s-4.029-9-9-9h-0.453c-4.971,0-9,4.029-9,9S260.565,291.275,265.536,291.275z"/>
<g>
</g>
<g>
</g>
<g>
</g>
<g>
</g>
<g>
</g>
<g>
</g>
<g>
</g>
<g>
</g>
<g>
</g>
<g>
</g>
<g>
</g>
<g>
</g>
<g>
</g>
<g>
</g>
<g>
</g>
</svg>
