<svg id="Layer_1" data-name="Layer 1" xmlns="http://www.w3.org/2000/svg" viewBox="0 0 141.73 141.73"><defs><style>.cls-1{fill:#fff;}</style></defs><title>Artboard 1</title><path class="cls-1" d="M112.78,58.3V40.69h0a41.58,41.58,0,0,0-83.15,0h0V58.3A14.21,14.21,0,0,0,19,72v55.58a14.21,14.21,0,0,0,14.17,14.17h75.95a14.2,14.2,0,0,0,14.17-14.17V72A14.21,14.21,0,0,0,112.78,58.3ZM71.19,14.64A27,27,0,0,1,98.13,40.89V57.81H44.25V40.89A26.94,26.94,0,0,1,71.19,14.64Zm7,90.28v11.76a7.06,7.06,0,1,1-14.11,0V104.92a11,11,0,1,1,14.11,0Z"/></svg>