<svg xmlns="http://www.w3.org/2000/svg" viewBox="0 0 84.74 118.89"><defs><style>.cls-1{fill:#fff;}</style></defs><title>Asset 1</title><g id="Layer_2" data-name="Layer 2"><g id="Layer_1-2" data-name="Layer 1"><path class="cls-1" d="M68,39.73V30.28C68,13.56,56.52,0,42.37,0S16.75,13.56,16.75,30.28v9.45A19.54,19.54,0,0,0,0,59V99.4a19.55,19.55,0,0,0,19.49,19.49H65.25A19.55,19.55,0,0,0,84.74,99.4V59A19.54,19.54,0,0,0,68,39.73ZM42.37,8.44c10.21,0,18.48,9.78,18.48,21.84v9.23h-37V30.28C23.89,18.22,32.17,8.44,42.37,8.44ZM52,86.28V98.91h0c0,.21,0,.42,0,.64a9.67,9.67,0,0,1-19.34,0c0-.22,0-.43,0-.64h0V86.28a14.63,14.63,0,1,1,19.34,0Z"/></g></g></svg>