<svg xmlns="http://www.w3.org/2000/svg" viewBox="0 0 88.33 120.05"><defs><style>.cls-1{fill:#fff;}</style></defs><title>Asset 2</title><g id="Layer_2" data-name="Layer 2"><g id="Layer_1-2" data-name="Layer 1"><path class="cls-1" d="M79.4,49.38V34.46h0A35.22,35.22,0,0,0,9,34.46h0V49.38A12,12,0,0,0,0,61v47.09a12,12,0,0,0,12,12H76.33a12,12,0,0,0,12-12V61A12,12,0,0,0,79.4,49.38Zm-35.23-37A22.81,22.81,0,0,1,67,34.63V49H21.35V34.63A22.83,22.83,0,0,1,44.17,12.4Zm6,76.47v10a6,6,0,1,1-12,0v-10a9.3,9.3,0,1,1,12,0Z"/></g></g></svg>