<?xml version="1.0" encoding="utf-8"?>
<!-- Generator: Adobe Illustrator 16.0.3, SVG Export Plug-In . SVG Version: 6.00 Build 0)  -->
<!DOCTYPE svg PUBLIC "-//W3C//DTD SVG 1.1//EN" "http://www.w3.org/Graphics/SVG/1.1/DTD/svg11.dtd">
<svg version="1.1" id="Layer_2_xA0_Image_1_" xmlns="http://www.w3.org/2000/svg" xmlns:xlink="http://www.w3.org/1999/xlink"
	 x="0px" y="0px" width="24px" height="24px" viewBox="0 0 24 24" enable-background="new 0 0 24 24" xml:space="preserve">
<path fill="#ffffff" d="M3,3.094c0,0-0.063-0.938,0.5-1.5S5,1,5,1h13.969c0,0,0.814-0.029,1.501,0.657S21,3.094,21,3.094v18.844
	c0,0-0.298,1.202-0.578,1.484C20.146,23.699,18.969,24,18.969,24H5.031C5.031,24,3,23.875,3,21.906s0-3.875,0-3.875h3l0.063,3H18V4
	L5.969,4.031L5.938,7L3,7.031V3.094z"/>
<path fill="#ffffff" d="M13.764,12c0,0-3.938-4-4.938-5S7.732,7,7.732,7v3.094L1.764,10v5h6v3.094c0,0-0.009,0.959,0.938,0s4.531-4.594,5.063-5.125
	S13.764,12,13.764,12z"/>
</svg>
