<?xml version="1.0" encoding="utf-8"?>
<!-- Generator: Adobe Illustrator 15.0.2, SVG Export Plug-In . SVG Version: 6.00 Build 0)  -->
<!DOCTYPE svg PUBLIC "-//W3C//DTD SVG 1.1//EN" "http://www.w3.org/Graphics/SVG/1.1/DTD/svg11.dtd">
<svg version="1.1" id="Layer_1" xmlns="http://www.w3.org/2000/svg" xmlns:xlink="http://www.w3.org/1999/xlink" x="0px" y="0px"
	 width="24px" height="24px" viewBox="0 0 24 24" enable-background="new 0 0 24 24" xml:space="preserve">
<line fill="none" stroke="#000000" stroke-miterlimit="10" x1="-467.5" y1="-144.5" x2="-465.5" y2="-142.5"/>
<path fill="#FFFFFF" d="M21.415,15.5c0-2.55-3.054-4.687-7.177-5.29c-0.334-0.279-0.746-0.496-1.211-0.635
	C14.764,9.036,16.04,7.34,16.04,5.31c0-2.463-1.865-4.459-4.167-4.459c-2.301,0-4.167,1.996-4.167,4.459
	c0,2.031,1.277,3.726,3.014,4.265c-0.464,0.139-0.876,0.356-1.21,0.635c-4.124,0.604-7.178,2.74-7.178,5.29
	c0,0.059,0.012,0.115,0.015,0.174H2.335v4.592c0,1.561,1.308,2.836,2.905,2.836h13.267c1.595,0,2.899-1.275,2.899-2.836v-4.592
	h-0.008C21.402,15.615,21.415,15.559,21.415,15.5z"/>
</svg>
