<?xml version="1.0" encoding="utf-8"?>
<!-- Generator: Adobe Illustrator 22.1.0, SVG Export Plug-In . SVG Version: 6.00 Build 0)  -->
<svg version="1.1" id="Layer_1" xmlns="http://www.w3.org/2000/svg" xmlns:xlink="http://www.w3.org/1999/xlink" x="0px" y="0px"
	 viewBox="0 0 400 400" style="enable-background:new 0 0 400 400;" xml:space="preserve">
<style type="text/css">
	.st0{fill:none;stroke:#FFFFFF;stroke-width:40;stroke-miterlimit:10;}
	.st1{fill:#FFFFFF;stroke:#FFFFFF;stroke-miterlimit:10;}
	.st2{fill:#FFFFFF;}
	.st3{fill:none;stroke:#FFFFFF;stroke-width:26;stroke-miterlimit:10;}
	.st4{stroke:#FFFFFF;stroke-miterlimit:10;}
</style>
<path class="st0" d="M327,215"/>
<path class="st0" d="M327,203.3v143.4c0.1,15.6-11.7,28.3-26.2,28.3H75.3C60.7,375,49,362.3,49,346.9V56.1C49,40.7,60.9,28,75.3,28
	h225.4c14.6,0,26.3,12.7,26.3,28.1V70"/>
<line class="st0" x1="223" y1="97" x2="91" y2="98"/>
<line class="st0" x1="176" y1="160" x2="91" y2="160"/>
<line class="st0" x1="123" y1="221" x2="91" y2="221"/>
<polygon class="st1" points="346.9,167.7 341.8,164.2 356.6,144.6 361.8,148.2 "/>
<rect x="341.2" y="87.3" class="st1" width="5.8" height="5.8"/>
<rect x="322.8" y="184.6" class="st2" width="24.2" height="18.7"/>
<rect x="338.7" y="173.2" class="st1" width="8.2" height="11.5"/>
<g>
	<path class="st3" d="M206.5,309.6l-65.2-61.8c-0.1-0.1-0.1-0.3,0-0.2l141-149.2c0.1-0.1,0.3-0.1,0.2,0l65.2,61.8
		c0.1,0.1,0.1,0.3,0,0.2L206.9,309.6C206.8,309.6,206.7,309.7,206.5,309.6z"/>
	<path class="st3" d="M343.1,155.7l-55.8-53c-2.7-2.5-2.8-6.7-0.2-9.4l29-30.6c2.5-2.7,6.7-2.8,9.3-0.2l55.8,53
		c2.7,2.5,2.8,6.7,0.2,9.4l-29,30.6C350,158.1,345.8,158.2,343.1,155.7z"/>
	<polygon class="st2" points="286.5,88.1 292.4,93.8 275.4,111.8 269.4,106.1 	"/>
	<polygon class="st2" points="355,147 360.9,152.6 338.7,176.2 332.7,170.5 	"/>
	<path class="st3" d="M120.6,338.2l83.3-25.6c3.2-1,4.1-4.9,1.7-7.1l-60.9-54.7c-2.4-2.2-6.5-1.2-7.4,2l-22.4,80.3
		C113.8,336.2,117.1,339.3,120.6,338.2z"/>
</g>
<rect x="337.8" y="169.6" class="st2" width="9.2" height="18.7"/>
<rect x="307" y="66" class="st2" width="5" height="7"/>
<polygon class="st2" points="183.4,180 195.5,140 171.2,140 "/>
<rect x="170" y="155" class="st2" width="13" height="25"/>
<polygon class="st2" points="126.4,241 138.5,201 114.2,201 "/>
<rect x="113" y="216" class="st2" width="13" height="25"/>
<polygon class="st2" points="227.4,117 239.5,77 215.2,77 "/>
<rect x="214" y="92" class="st2" width="13" height="25"/>
<rect x="181.4" y="178" class="st4" width="2" height="2"/>
<rect x="225.4" y="115" class="st4" width="2" height="2"/>
<rect x="124.4" y="239" class="st4" width="2" height="2"/>
<g>
	<g>
		<path d="M336.6-141.9c1.9,0,1.9-3,0-3C334.7-144.9,334.7-141.9,336.6-141.9L336.6-141.9z"/>
	</g>
</g>
</svg>
