<svg id="Layer_1" data-name="Layer 1" xmlns="http://www.w3.org/2000/svg" viewBox="0 0 63.85 66.49"><defs><style>.cls-1{fill:#fff;}.cls-1,.cls-2{stroke:#fff;stroke-miterlimit:10;}.cls-2{fill:none;stroke-width:8px;}</style></defs><title>MaxButton</title><path class="cls-1" d="M31.26,25.66H24.42V17.83a2.15,2.15,0,0,0-1.76-2.43,2.09,2.09,0,0,0-2.33,1.8v0a2,2,0,0,0,0,.6v7.83H13.51a2.26,2.26,0,0,0,0,4.45h6.85V37.3a2.12,2.12,0,0,0,1.75,2.42,2.06,2.06,0,0,0,2.32-1.78,1.51,1.51,0,0,0,0-.6V30.15h6.86a2.25,2.25,0,0,0,0-4.44Z" transform="translate(-1.83 -5.83)"/><path class="cls-1" d="M32.46,38.29h0a5,5,0,0,1,7.07-.06l.06.06L63.71,63a5.27,5.27,0,0,1,0,7.32h0a5,5,0,0,1-7.07.07l-.07-.07L32.46,45.6A5.26,5.26,0,0,1,32.46,38.29Z" transform="translate(-1.83 -5.83)"/><ellipse class="cls-2" cx="20.57" cy="21.73" rx="16.57" ry="17.73"/></svg>