<svg id="Layer_1" data-name="Layer 1" xmlns="http://www.w3.org/2000/svg" viewBox="0 0 65.69 72.33"><defs><style>.cls-1{fill:#fff;}.cls-1,.cls-2,.cls-3{stroke:#fff;stroke-miterlimit:10;}.cls-2{fill:none;stroke-width:8px;}.cls-3{fill:#f9f9f9;}</style></defs><title>MaxButton</title><path class="cls-1" d="M48.34,33h-7.8V24.19a2.41,2.41,0,0,0-2-2.73,2.36,2.36,0,0,0-2.66,2.05,2.58,2.58,0,0,0,0,.68V33H28.11a2.53,2.53,0,0,0,0,5h7.8v8.09a2.4,2.4,0,0,0,2,2.72,2.35,2.35,0,0,0,2.65-2,1.94,1.94,0,0,0,0-.68V38.05h7.81a2.53,2.53,0,0,0,0-5Z" transform="translate(-18 -9)"/><ellipse class="cls-2" cx="20.21" cy="26.16" rx="16.21" ry="22.16"/><path class="cls-3" d="M50.46,47.29h0a5,5,0,0,1,7.13,0L81.71,72a5.27,5.27,0,0,1,0,7.32h0a5,5,0,0,1-7.14,0L50.46,54.6A5.26,5.26,0,0,1,50.46,47.29Z" transform="translate(-18 -9)"/></svg>