<svg id="Lager_1" data-name="Lager 1" xmlns="http://www.w3.org/2000/svg" viewBox="0 0 401 401"><defs><style>.cls-1{fill:#8a7a9a;}.cls-2{fill:#fff;}</style></defs><title>Message_icon</title><circle class="cls-1" cx="200.5" cy="200.5" r="200"/><path class="cls-1" d="M230.5,16a199.55,199.55,0,0,1,77.65,383.32A199.55,199.55,0,0,1,152.85,31.68,198.09,198.09,0,0,1,230.5,16m0-1C119.77,15,30,104.77,30,215.5S119.77,416,230.5,416,431,326.23,431,215.5,341.23,15,230.5,15Z" transform="translate(-30 -15)"/><rect class="cls-2" x="54.46" y="95.92" width="292.08" height="209.72" rx="7.65" ry="7.65"/><path class="cls-2" d="M368.9,111.42a7.15,7.15,0,0,1,7.14,7.15V313a7.15,7.15,0,0,1-7.14,7.15H92.1A7.15,7.15,0,0,1,85,313V118.57a7.15,7.15,0,0,1,7.14-7.15H368.9m0-1H92.1A8.17,8.17,0,0,0,84,118.57V313a8.17,8.17,0,0,0,8.14,8.15H368.9A8.17,8.17,0,0,0,377,313V118.57a8.17,8.17,0,0,0-8.14-8.15Z" transform="translate(-30 -15)"/><rect class="cls-2" x="104.91" y="251.22" width="112.6" height="101.24" transform="translate(-159.32 106.04) rotate(-30)"/><path class="cls-2" d="M184.47,230.53l50.12,86.81-96.65,55.8L87.82,286.33l96.65-55.8m.37-1.37L86.46,286l51.12,88.54L236,317.71l-51.11-88.55Z" transform="translate(-30 -15)"/><rect class="cls-1" x="72.63" y="114.67" width="255.16" height="171.67" rx="6.17" ry="6.17"/><path class="cls-1" d="M351.62,130.17a5.68,5.68,0,0,1,5.68,5.67V295.16a5.68,5.68,0,0,1-5.68,5.67H108.81a5.68,5.68,0,0,1-5.68-5.67V135.84a5.68,5.68,0,0,1,5.68-5.67H351.62m0-1H108.81a6.7,6.7,0,0,0-6.68,6.67V295.16a6.7,6.7,0,0,0,6.68,6.67H351.62a6.7,6.7,0,0,0,6.68-6.67V135.84a6.7,6.7,0,0,0-6.68-6.67Z" transform="translate(-30 -15)"/><rect class="cls-2" x="78.31" y="237.92" width="243.24" height="29.67" rx="0.69" ry="0.69"/><path class="cls-1" d="M350.86,253.42a.19.19,0,0,1,.19.18v28.31a.19.19,0,0,1-.19.18H109a.19.19,0,0,1-.19-.18V253.6a.19.19,0,0,1,.19-.18H350.86m0-1H109a1.19,1.19,0,0,0-1.19,1.18v28.31a1.19,1.19,0,0,0,1.19,1.18H350.86a1.18,1.18,0,0,0,1.19-1.18V253.6a1.18,1.18,0,0,0-1.19-1.18Z" transform="translate(-30 -15)"/><rect class="cls-2" x="78.31" y="185.66" width="243.24" height="29.67" rx="0.69" ry="0.69"/><path class="cls-1" d="M350.86,201.16a.2.2,0,0,1,.19.19v28.3a.2.2,0,0,1-.19.19H109a.2.2,0,0,1-.19-.19v-28.3a.2.2,0,0,1,.19-.19H350.86m0-1H109a1.2,1.2,0,0,0-1.19,1.19v28.3a1.2,1.2,0,0,0,1.19,1.19H350.86a1.19,1.19,0,0,0,1.19-1.19v-28.3a1.19,1.19,0,0,0-1.19-1.19Z" transform="translate(-30 -15)"/><rect class="cls-2" x="76.61" y="133.41" width="243.24" height="29.67" rx="0.69" ry="0.69"/><path class="cls-1" d="M349.16,148.91a.19.19,0,0,1,.19.18V177.4a.19.19,0,0,1-.19.18H107.3a.19.19,0,0,1-.19-.18V149.09a.19.19,0,0,1,.19-.18H349.16m0-1H107.3a1.18,1.18,0,0,0-1.19,1.18V177.4a1.18,1.18,0,0,0,1.19,1.18H349.16a1.19,1.19,0,0,0,1.19-1.18V149.09a1.19,1.19,0,0,0-1.19-1.18Z" transform="translate(-30 -15)"/></svg>