<svg id="Layer_1" data-name="Layer 1" xmlns="http://www.w3.org/2000/svg" viewBox="0 0 63.85 66.49"><defs><style>.cls-1{fill:#fff;}.cls-1,.cls-2{stroke:#fff;stroke-miterlimit:10;}.cls-2{fill:none;stroke-width:8px;}</style></defs><title>MinButton</title><path class="cls-1" d="M14.62,23.44H30.18a2.21,2.21,0,0,1,2.29,2.12h0a2.21,2.21,0,0,1-2.29,2.13H14.62a2.21,2.21,0,0,1-2.29-2.13h0A2.21,2.21,0,0,1,14.62,23.44Z" transform="translate(-1.83 -3.83)"/><path class="cls-1" d="M32.46,36.29h0a5,5,0,0,1,7.07-.06l.06.06L63.71,61a5.27,5.27,0,0,1,0,7.32h0a5,5,0,0,1-7.07.07l-.07-.07L32.46,43.6A5.26,5.26,0,0,1,32.46,36.29Z" transform="translate(-1.83 -3.83)"/><ellipse class="cls-2" cx="20.57" cy="21.73" rx="16.57" ry="17.73"/></svg>