<?xml version="1.0" encoding="utf-8"?>
<!-- Generator: Adobe Illustrator 21.1.0, SVG Export Plug-In . SVG Version: 6.00 Build 0)  -->
<svg version="1.1" id="Layer_1" xmlns="http://www.w3.org/2000/svg" xmlns:xlink="http://www.w3.org/1999/xlink" x="0px" y="0px"
	 viewBox="0 0 240 240" enable-background="new 0 0 240 240" xml:space="preserve">
<g>
	<path fill="#FFFFFF" d="M138.1,0.2c0.6,0.3,1.3,0.2,1.9,0.4c4.2,0.9,7.8,3.1,11.2,5.6c5.4,4,10.1,8.7,14.9,13.4
		c1.4,1.3,2.8,2.6,4.1,4.1c2.3,2.7,4.8,5.2,6.9,8c0.3,0.4,0.7,0.7,1.1,1c1.9,1.4,3.4,3.2,5.3,4.7c3.4,2.7,6.2,6,9.3,9.1
		c3.5,3.5,6.9,7.2,9.9,11.1c2.5,3.2,4.7,6.6,5.8,10.6c0.4,1.6,0.7,3.2,0.7,4.8c0,42.6,0.1,85.1-0.1,127.7c0,11.5-5,20.9-13.9,28.1
		c-4.9,3.9-10.5,6.3-16.6,7.4c-1.9,0.3-3.8,0.5-5.7,0.5c-36.4,0-72.9,0.1-109.3,0c-10.9,0-20-4.3-27.2-12.5
		c-4.5-5.1-7.3-11-8.5-17.6c-0.3-1.8-0.5-3.6-0.5-5.4c0-55.2,0-110.3,0-165.5c0-7.2,2.3-13.7,6.4-19.6C39.2,8.3,46.4,3.4,55.4,1.1
		c1.8-0.4,3.6-0.7,5.4-0.8c0.1,0,0.3,0,0.3-0.1C86.8,0.2,112.5,0.2,138.1,0.2z M45.6,118.3c0,27.3,0,54.7,0,82
		c0,1.2,0.1,2.3,0.4,3.4c1.9,8.7,9.1,14.5,18.1,14.6c36.2,0,72.3,0,108.5,0c1.5,0,2.9-0.1,4.3-0.5c8.5-2.1,14.2-9.3,14.2-18.1
		c0-39.1,0-78.3,0-117.4c0-0.3,0-0.6,0-0.8c-0.2-3.9-1.9-6.2-5.6-7.5c-2.7-0.9-5.6-1.1-8.4-1.1c-9,0-18.1,0-27.1,0
		c-1.6,0-3.2,0-4.7,0c-2.5-0.1-4.8-0.9-6.5-2.9c-1.6-1.8-2.1-4-2.1-6.4c0-8.8,0-17.6,0-26.5c0-3.1,0.1-6.3-0.3-9.4
		c-0.3-2.2-0.6-4.4-1.9-6.2c-1.3-2-3-3.1-5.5-3.1c-21.5,0-42.9,0-64.4,0c-1.2,0-2.4,0.1-3.6,0.3c-8.6,1.4-15.2,9.1-15.2,17.8
		C45.6,63.7,45.6,91,45.6,118.3z"/>
	<path fill="#FFFFFF" d="M103.5,146.6c-4.9,0.2-9.8,0.4-14.7,0.7c-1.8,0.1-3.7,0.2-5.5,0.3c-0.4,0-0.5,0.2-0.6,0.5
		c-1.3,5.1-2.6,10.2-3.6,15.3c-0.2,1.2-0.4,2.4-0.6,3.6c-0.5,4-4.2,7-8.2,6.7c-4.2-0.3-7.3-3.8-7.2-7.9c0.1-1.9,0.6-3.8,1-5.7
		c1.1-5.7,2.3-11.4,3.8-17.1c0.2-0.7-0.1-1.3-0.2-2c-0.2-2.4,0.5-4.5,2.2-6.2c0.3-0.3,0.4-0.6,0.5-0.9c3-11.4,6.4-22.7,10.2-33.8
		c1.6-4.7,3.2-9.4,5.1-13.9c0.8-1.9,1.8-3.6,3.2-5.1c2.3-2.7,7-3.1,10-0.9c1.1,0.8,2,1.9,2.6,3.2c4,8.8,7.6,17.8,10.8,26.9
		c3.8,10.9,7.2,22,10,33.2c1.4,5.6,2.6,11.3,3.6,16.9c0.8,4.4-2,8.4-6.3,9.2c-4.1,0.8-8.1-2-9-6.3c-1.1-5.4-2.2-10.8-3.6-16.2
		c-0.1-0.5-0.3-0.6-0.8-0.6c-0.9,0.1-1.9,0-2.8,0C103.5,146.5,103.5,146.6,103.5,146.6z M94.5,107.8c-0.1,0.3-0.1,0.4-0.1,0.4
		c-2.6,7.6-5,15.4-7.1,23.2c-0.1,0.5,0,0.5,0.4,0.5c4.7-0.3,9.4-0.6,14.1-0.8c0.6,0,0.7-0.1,0.5-0.7c-2-6.4-4.2-12.7-6.4-19
		C95.4,110.3,95,109.2,94.5,107.8z"/>
	<path fill="#FFFFFF" d="M173,144.2c-2.2,0.1-5.2,0.4-8.2,0.5c-0.5,0-0.4,0.4-0.4,0.6c0.2,2.4,0.4,4.7,0.7,7.1
		c0.2,1.9,0.4,3.7-0.4,5.6c-1.4,3.3-4.9,5.3-8.5,4.7c-3.5-0.6-6.2-3.7-6.4-7.3c-0.2-3.1-0.5-6.2-0.8-9.3c0-0.5-0.2-0.5-0.7-0.5
		c-3.7,0.2-7.4,0.3-11.2,0.5c-4.3,0.2-7.8-2.4-8.5-6.7c-0.7-4.1,2.4-8.4,6.6-8.8c3.6-0.4,7.1-0.4,10.7-0.6c0.2,0,0.5,0,0.7,0
		c0.6,0.1,0.6-0.2,0.5-0.7c-0.4-3.9-0.8-7.8-1.1-11.6c-0.3-3.7,2.1-7.3,5.7-8.1c4.9-1,9,2.1,9.5,6.3c0.4,3.2,0.6,6.4,0.9,9.5
		c0.1,1.2,0.2,2.3,0.3,3.5c0,0.4,0.2,0.5,0.5,0.4c2.7-0.2,5.4-0.3,8.2-0.5c1.7-0.1,3.5-0.3,5.2,0.3c3.4,1.3,5.6,4.9,5,8.4
		C180.7,141.5,177.6,144.2,173,144.2z"/>
</g>
</svg>
