<?xml version="1.0" encoding="UTF-8" standalone="no"?>
<!DOCTYPE svg PUBLIC "-//W3C//DTD SVG 1.1//EN" "http://www.w3.org/Graphics/SVG/1.1/DTD/svg11.dtd">
<svg version="1.1" xmlns="http://www.w3.org/2000/svg" xmlns:xlink="http://www.w3.org/1999/xlink" preserveAspectRatio="xMidYMid meet" viewBox="0 0 24 24" width="24" height="24"><defs><path d="M2.82 19.71L3.45 16.91L5.59 18.97L7.73 21.02L4.96 21.76L2.18 22.51L2.82 19.71Z" id="bj9Dvif0"></path><path d="M15.72 3.97L20.01 8.05L7.91 20.78L3.61 16.69L15.72 3.97Z" id="a28FMshW0z"></path><path d="M17.92 1.67L22.22 5.76L20.23 7.85L15.94 3.76L17.92 1.67Z" id="a1JTJgT8DF"></path><path d="M22.77 3.38C23.26 3.85 23.28 4.63 22.81 5.13C22.31 5.66 21.64 6.38 21.13 6.92C20.67 7.41 19.89 7.43 19.4 6.96C18.73 6.31 17.58 5.21 16.9 4.55C16.41 4.08 16.39 3.3 16.86 2.81C17.37 2.27 18.04 1.55 18.54 1.02C19.01 0.52 19.78 0.5 20.27 0.97C20.95 1.62 22.09 2.73 22.77 3.38Z" id="aI05oFFJf"></path></defs><g><g><g><use xlink:href="#bj9Dvif0" opacity="1" fill="#ffffff" fill-opacity="1"></use></g><g><use xlink:href="#a28FMshW0z" opacity="1" fill="#ffffff" fill-opacity="1"></use></g><g><use xlink:href="#a1JTJgT8DF" opacity="1" fill="#ffffff" fill-opacity="1"></use></g><g><use xlink:href="#aI05oFFJf" opacity="1" fill="#ffffff" fill-opacity="1"></use></g></g></g></svg>