<?xml version="1.0" encoding="utf-8"?>
<!-- Generator: Adobe Illustrator 15.0.2, SVG Export Plug-In . SVG Version: 6.00 Build 0)  -->
<!DOCTYPE svg PUBLIC "-//W3C//DTD SVG 1.1//EN" "http://www.w3.org/Graphics/SVG/1.1/DTD/svg11.dtd">
<svg version="1.1" id="Layer_1" xmlns="http://www.w3.org/2000/svg" xmlns:xlink="http://www.w3.org/1999/xlink" x="0px" y="0px"
	 width="40px" height="40px" viewBox="0 0 40 40" enable-background="new 0 0 40 40" xml:space="preserve">
<rect x="5" y="1.5" fill="none" stroke="#FFFFFF" stroke-width="2" stroke-miterlimit="10" width="30.949" height="35.5"/>
<g>
	<path fill="#FFFFFF" d="M19.261,10.546v17.99H15.16l-2.433-8.179v8.179H8.815v-17.99h3.912l2.622,8.101v-8.101H19.261z"/>
	<path fill="#FFFFFF" d="M21.139,10.546h3.312c2.208,0,3.701,0.085,4.482,0.255c0.78,0.17,1.418,0.605,1.912,1.306
		c0.491,0.7,0.736,1.817,0.736,3.35c0,1.4-0.174,2.341-0.521,2.822c-0.348,0.482-1.033,0.771-2.056,0.867
		c0.927,0.229,1.548,0.537,1.866,0.922c0.318,0.386,0.518,0.739,0.596,1.061c0.076,0.322,0.115,1.21,0.115,2.662v4.745h-4.344
		v-5.979c0-0.961-0.076-1.559-0.229-1.787c-0.151-0.229-0.551-0.346-1.192-0.346v8.112h-4.678V10.546L21.139,10.546z M25.816,13.624
		v4c0.523,0,0.895-0.071,1.104-0.216c0.211-0.144,0.314-0.612,0.314-1.405v-0.989c0-0.57-0.102-0.945-0.305-1.123
		C26.729,13.712,26.355,13.624,25.816,13.624z"/>
</g>
<line fill="none" stroke="#FFFFFF" stroke-width="3" stroke-miterlimit="10" x1="5" y1="1.5" x2="35.949" y2="37"/>
</svg>
