<svg xmlns="http://www.w3.org/2000/svg" viewBox="0 0 431.077 365.463">
  <defs>
    <style>
      .cls-1 {
        fill: orange;
      }
    </style>
  </defs>
  <g id="oldFeedback" transform="translate(-990 -561.245)">
    <path id="Union_1" data-name="Union 1" class="cls-1" d="M826.924,203.234,781.179,21l152.9,182.234-152.9,183.229ZM688,204.755c0-25.405,20.819-46,46.5-46s46.5,20.595,46.5,46-20.819,46-46.5,46S688,230.16,688,204.755Zm-108,0a31,31,0,1,1,31,31A31,31,0,0,1,580,204.755Zm-77,0a16,16,0,1,1,16,16A16,16,0,0,1,503,204.755Z" transform="translate(487 540.246)"/>
  </g>
</svg>
