<?xml version="1.0" encoding="UTF-8" standalone="no"?>
<!DOCTYPE svg PUBLIC "-//W3C//DTD SVG 1.1//EN" "http://www.w3.org/Graphics/SVG/1.1/DTD/svg11.dtd">
<svg version="1.1" xmlns="http://www.w3.org/2000/svg" xmlns:xlink="http://www.w3.org/1999/xlink" preserveAspectRatio="xMidYMid meet" viewBox="0 0 640 640" width="16" height="16"><defs><path d="M119.73 121.43C119.73 134.83 119.73 145.71 119.73 145.71C119.73 145.71 119.73 134.83 119.73 121.43C119.73 108.02 119.73 97.14 119.73 97.14C119.73 102 119.73 108.02 119.73 121.43Z" id="aBxXK6OYC"></path><path d="M189.39 135.71C189.39 210.62 153.3 271.43 108.84 271.43C64.39 271.43 28.3 210.62 28.3 135.71C28.3 60.81 64.39 0 108.84 0C153.3 0 189.39 60.81 189.39 135.71Z" id="ba4hJTLpP"></path><path d="M172.23 271.43C194.93 271.43 213.33 289.83 213.33 312.53C213.33 378.03 213.33 533.4 213.33 598.9C213.33 621.6 194.93 640 172.23 640C137.78 640 75.55 640 41.1 640C18.4 640 0 621.6 0 598.9C0 533.4 0 378.03 0 312.53C0 289.83 18.4 271.43 41.1 271.43C75.55 271.43 137.78 271.43 172.23 271.43Z" id="b228WLX0K2"></path><path d="M333.06 121.43C333.06 134.83 333.06 145.71 333.06 145.71C333.06 145.71 333.06 134.83 333.06 121.43C333.06 108.02 333.06 97.14 333.06 97.14C333.06 102 333.06 108.02 333.06 121.43Z" id="c19rbRUzEb"></path><path d="M402.72 135.71C402.72 210.62 366.63 271.43 322.18 271.43C277.72 271.43 241.63 210.62 241.63 135.71C241.63 60.81 277.72 0 322.18 0C366.63 0 402.72 60.81 402.72 135.71Z" id="aL0GXzwK1"></path><path d="M385.56 271.43C408.26 271.43 426.67 289.83 426.67 312.53C426.67 378.03 426.67 533.4 426.67 598.9C426.67 621.6 408.26 640 385.56 640C351.12 640 288.88 640 254.44 640C231.74 640 213.33 621.6 213.33 598.9C213.33 533.4 213.33 378.03 213.33 312.53C213.33 289.83 231.74 271.43 254.44 271.43C288.88 271.43 351.12 271.43 385.56 271.43Z" id="c46AOp1bvY"></path><path d="M546.39 121.43C546.39 134.83 546.39 145.71 546.39 145.71C546.39 145.71 546.39 134.83 546.39 121.43C546.39 108.02 546.39 97.14 546.39 97.14C546.39 102 546.39 108.02 546.39 121.43Z" id="c12AmgPxYd"></path><path d="M616.05 135.71C616.05 210.62 579.96 271.43 535.51 271.43C491.06 271.43 454.97 210.62 454.97 135.71C454.97 60.81 491.06 0 535.51 0C579.96 0 616.05 60.81 616.05 135.71Z" id="a1w6pqF6W0"></path><path d="M598.9 271.43C621.6 271.43 640 289.83 640 312.53C640 378.03 640 533.4 640 598.9C640 621.6 621.6 640 598.9 640C564.45 640 502.22 640 467.77 640C445.07 640 426.67 621.6 426.67 598.9C426.67 533.4 426.67 378.03 426.67 312.53C426.67 289.83 445.07 271.43 467.77 271.43C502.22 271.43 564.45 271.43 598.9 271.43Z" id="a3yeTd60E"></path></defs><g><g><g><use xlink:href="#aBxXK6OYC" opacity="1" fill="#209910" fill-opacity="1"></use></g><g><use xlink:href="#ba4hJTLpP" opacity="1" fill="#000000" fill-opacity="1"></use></g><g><use xlink:href="#b228WLX0K2" opacity="1" fill="#000000" fill-opacity="1"></use></g><g><use xlink:href="#c19rbRUzEb" opacity="1" fill="#209910" fill-opacity="1"></use></g><g><use xlink:href="#aL0GXzwK1" opacity="1" fill="#000000" fill-opacity="1"></use></g><g><use xlink:href="#c46AOp1bvY" opacity="1" fill="#000000" fill-opacity="1"></use></g><g><use xlink:href="#c12AmgPxYd" opacity="1" fill="#209910" fill-opacity="1"></use></g><g><use xlink:href="#a1w6pqF6W0" opacity="1" fill="#000000" fill-opacity="1"></use></g><g><use xlink:href="#a3yeTd60E" opacity="1" fill="#000000" fill-opacity="1"></use></g></g></g></svg>