<?xml version="1.0" encoding="iso-8859-1"?>
<!-- Generator: Adobe Illustrator 16.0.3, SVG Export Plug-In . SVG Version: 6.00 Build 0)  -->
<!DOCTYPE svg PUBLIC "-//W3C//DTD SVG 1.1//EN" "http://www.w3.org/Graphics/SVG/1.1/DTD/svg11.dtd">
<svg version="1.1" id="Layer_1" xmlns="http://www.w3.org/2000/svg" xmlns:xlink="http://www.w3.org/1999/xlink" x="0px" y="0px"
	 width="35px" height="35px" viewBox="0 0 35 35" style="enable-background:new 0 0 35 35;" xml:space="preserve">
<g>
	<g>
		<path style="fill:#FFFFFF;" d="M14.621,29.797c0-7.788,0-15.576,0-23.364c0-5.146-7.98-5.146-7.98,0c0,7.788,0,15.576,0,23.364
			C6.641,34.943,14.621,34.943,14.621,29.797L14.621,29.797z"/>
	</g>
</g>
<g>
	<g>
		<path style="fill:#FFFFFF;" d="M30.294,29.797c0-7.788,0-15.576,0-23.364c0-5.146-7.98-5.146-7.98,0c0,7.788,0,15.576,0,23.364
			C22.313,34.943,30.294,34.943,30.294,29.797L30.294,29.797z"/>
	</g>
</g>
</svg>
