<?xml version="1.0" encoding="utf-8"?>
<!-- Generator: Adobe Illustrator 16.0.4, SVG Export Plug-In . SVG Version: 6.00 Build 0)  -->
<!DOCTYPE svg PUBLIC "-//W3C//DTD SVG 1.1//EN" "http://www.w3.org/Graphics/SVG/1.1/DTD/svg11.dtd">
<svg version="1.1" id="Layer_1" xmlns="http://www.w3.org/2000/svg" xmlns:xlink="http://www.w3.org/1999/xlink" x="0px" y="0px"
	 width="16px" height="16px" viewBox="0 0 16 16" enable-background="new 0 0 16 16" xml:space="preserve">
<path fill-rule="evenodd" clip-rule="evenodd" d="M10.438,2.916c0.279,0.262,0.435,0.407,0.664,0.622
	c-0.646,0.623-1.27,1.217-1.885,1.821c-0.75,0.737-1.484,1.492-2.246,2.217C6.594,7.936,6.334,8.337,6.227,8.85
	C6.155,9.192,6.027,9.521,5.949,9.862c-0.088,0.384,0.188,0.67,0.564,0.575c0.976-0.24,1.875-0.549,2.601-1.364
	c1.164-1.309,2.46-2.5,3.71-3.75c0.19,0.208,0.371,0.406,0.489,0.534c-1.177,1.217-2.418,2.433-3.575,3.723
	c-0.727,0.809-1.575,1.292-2.621,1.514c-0.579,0.123-1.138,0.335-1.71,0.491c-0.545,0.15-0.761-0.074-0.604-0.623
	c0.289-1.009,0.585-2.016,0.885-3.021C5.722,7.83,5.776,7.708,5.857,7.625C7.374,6.06,8.896,4.499,10.438,2.916z"/>
<path fill-rule="evenodd" clip-rule="evenodd" d="M7.653,9.279C7.224,8.915,7.376,9.007,7.074,8.687
	c1.504-1.495,3.031-3.013,4.541-4.512c0.143,0.13,0.383,0.35,0.606,0.554C10.706,6.238,9.188,7.749,7.653,9.279z"/>
<path fill-rule="evenodd" clip-rule="evenodd" d="M12.199,1.405c0.322-0.355,0.663-0.77,1.273-0.583
	C13.653,0.876,13.83,0.99,13.97,1.12c0.379,0.351,0.74,0.721,1.105,1.088c0.759,0.764,0.72,1.295-0.136,1.983
	C14.037,3.274,13.136,2.357,12.199,1.405z"/>
<path fill-rule="evenodd" clip-rule="evenodd" d="M13.892,5.386c-0.979-0.984-1.912-1.923-2.882-2.898
	c0.203-0.171,0.408-0.344,0.604-0.509c0.92,0.934,1.875,1.904,2.846,2.889C14.315,4.999,14.116,5.181,13.892,5.386z"/>
<path fill-rule="evenodd" clip-rule="evenodd" d="M10.916,9.91v3.956c0,0.658-0.504,1.161-1.127,1.161H2.307
	c-0.622,0-1.126-0.503-1.126-1.126V6.856c0-0.622,0.504-1.126,1.126-1.126H6.37l0.87-0.71H1.736c-0.717,0-1.298,0.582-1.298,1.299
	v8.121c0,0.718,0.582,1.299,1.298,1.299h8.625c0.716,0,1.298-0.581,1.298-1.299V9.04L10.916,9.91z"/>
</svg>
