<?xml version="1.0" encoding="utf-8"?>
<!-- Generator: Adobe Illustrator 16.0.4, SVG Export Plug-In . SVG Version: 6.00 Build 0)  -->
<!DOCTYPE svg PUBLIC "-//W3C//DTD SVG 1.1//EN" "http://www.w3.org/Graphics/SVG/1.1/DTD/svg11.dtd">
<svg version="1.1" id="Layer_1" xmlns="http://www.w3.org/2000/svg" xmlns:xlink="http://www.w3.org/1999/xlink" x="0px" y="0px"
	 width="16px" height="16px" viewBox="0 0 16 16" enable-background="new 0 0 16 16" xml:space="preserve">
<path fill-rule="evenodd" clip-rule="evenodd" d="M4.919,11.736c-0.286,0-0.441-0.125-0.521-0.232
	c-0.141-0.186-0.162-0.455-0.063-0.797C4.623,9.697,4.92,8.689,5.22,7.683c0.055-0.184,0.135-0.33,0.238-0.435
	c1.239-1.279,2.484-2.557,3.74-3.846l1.034-1.062l1.084,1.016l-0.783,0.754c-0.445,0.428-0.882,0.847-1.314,1.271
	C8.937,5.66,8.657,5.939,8.377,6.219C7.912,6.684,7.446,7.149,6.97,7.603C6.606,7.948,6.396,8.306,6.307,8.73
	C6.267,8.92,6.211,9.104,6.155,9.289C6.11,9.441,6.063,9.592,6.028,9.748C6.01,9.828,6.019,9.9,6.054,9.943
	c0.027,0.033,0.067,0.051,0.12,0.051c1.117-0.268,1.892-0.57,2.531-1.287c0.825-0.929,1.729-1.811,2.604-2.664
	c0.373-0.364,0.747-0.729,1.117-1.099l0.21-0.21l0.869,0.949c0,0-0.889,0.913-1.244,1.275c-0.835,0.85-1.699,1.728-2.51,2.632
	c-0.757,0.844-1.665,1.367-2.773,1.602c-0.347,0.074-0.687,0.182-1.026,0.287c-0.222,0.07-0.444,0.139-0.667,0.201
	C5.151,11.719,5.028,11.736,4.919,11.736z"/>
<path fill-rule="evenodd" clip-rule="evenodd" d="M7.449,8.259C7.048,7.918,7.322,8.241,7.04,7.941
	c1.406-1.397,2.833-2.815,4.244-4.217c0.133,0.122,0.082,0.076,0.291,0.267C10.159,5.401,8.884,6.829,7.449,8.259z"/>
<path fill-rule="evenodd" clip-rule="evenodd" d="M11.85,0.921l0.18-0.198C12.343,0.376,12.683,0,13.222,0
	c0.121,0,0.247,0.02,0.374,0.059c0.208,0.063,0.424,0.192,0.606,0.361c0.316,0.293,0.621,0.6,0.926,0.907l0.188,0.189
	c0.444,0.448,0.642,0.837,0.62,1.226c-0.022,0.394-0.27,0.769-0.779,1.179l-0.2,0.161L11.85,0.921z"/>
<polygon fill-rule="evenodd" clip-rule="evenodd" points="10.54,2.041 11.537,1.199 11.764,1.351 14.815,4.45 13.83,5.35 "/>
<path fill-rule="evenodd" clip-rule="evenodd" d="M1.643,15.697c-0.872,0-1.582-0.711-1.582-1.582V5.994
	c0-0.873,0.71-1.583,1.582-1.583h5.618L5.955,5.688H2.214c-0.465,0-0.843,0.378-0.843,0.843v7.045c0,0.465,0.378,0.844,0.843,0.844
	h7.482c0.473,0,0.844-0.387,0.844-0.879l-0.07-3.486l1.38-1.559v5.62c0,0.871-0.709,1.582-1.581,1.582H1.643z"/>
</svg>
