<?xml version="1.0" encoding="utf-8"?>
<!-- Generator: Adobe Illustrator 16.0.3, SVG Export Plug-In . SVG Version: 6.00 Build 0)  -->
<!DOCTYPE svg PUBLIC "-//W3C//DTD SVG 1.1//EN" "http://www.w3.org/Graphics/SVG/1.1/DTD/svg11.dtd">
<svg version="1.1" id="Layer_1" xmlns="http://www.w3.org/2000/svg" xmlns:xlink="http://www.w3.org/1999/xlink" x="0px" y="0px"
	 width="32.57px" height="31.975px" viewBox="1.215 3.019 32.57 31.975" enable-background="new 1.215 3.019 32.57 31.975"
	 xml:space="preserve">
<path id="video-play-3-icon" fill="#FFFFFF" d="M17.5,6.943c3.356,0,6.504,1.307,8.872,3.673c2.357,2.36,3.656,5.493,3.656,8.823
	s-1.299,6.462-3.656,8.823c-2.367,2.369-5.52,3.669-8.872,3.669c-3.354,0-6.507-1.3-8.876-3.669
	c-2.358-2.359-3.659-5.493-3.659-8.823c0-3.331,1.3-6.465,3.659-8.823C10.993,8.252,14.145,6.943,17.5,6.943 M17.5,3.888
	c-8.588,0-15.552,6.962-15.552,15.552S8.911,34.993,17.5,34.993S33.053,28.03,33.053,19.44S26.088,3.888,17.5,3.888L17.5,3.888z
	 M13.765,27.17V12.091l12.149,7.541L13.765,27.17z"/>
</svg>

