<?xml version="1.0" encoding="utf-8"?>
<!-- Generator: Adobe Illustrator 16.0.4, SVG Export Plug-In . SVG Version: 6.00 Build 0)  -->
<!DOCTYPE svg PUBLIC "-//W3C//DTD SVG 1.1//EN" "http://www.w3.org/Graphics/SVG/1.1/DTD/svg11.dtd">
<svg version="1.1" id="Layer_1" xmlns="http://www.w3.org/2000/svg" xmlns:xlink="http://www.w3.org/1999/xlink" x="0px" y="0px"
	 width="16px" height="16px" viewBox="0 0 16 16" enable-background="new 0 0 16 16" xml:space="preserve">
<path d="M14.963,6.32H9.68V1.038c0-0.445-0.365-0.809-0.81-0.809H7.129c-0.445,0-0.809,0.365-0.809,0.809V6.32H1.037
	c-0.445,0-0.809,0.365-0.809,0.809v1.742c0,0.445,0.364,0.809,0.809,0.809H6.32v5.283c0,0.447,0.364,0.809,0.809,0.809H8.87
	c0.446,0,0.81-0.363,0.81-0.809V9.68h5.281c0.447,0,0.811-0.363,0.811-0.809V7.129C15.771,6.685,15.408,6.32,14.963,6.32z"/>
</svg>
