<?xml version="1.0" encoding="utf-8"?>
<!-- Generator: Adobe Illustrator 15.0.2, SVG Export Plug-In . SVG Version: 6.00 Build 0)  -->
<!DOCTYPE svg PUBLIC "-//W3C//DTD SVG 1.1//EN" "http://www.w3.org/Graphics/SVG/1.1/DTD/svg11.dtd">
<svg version="1.1" id="Layer_1" xmlns="http://www.w3.org/2000/svg" xmlns:xlink="http://www.w3.org/1999/xlink" x="0px" y="0px"
	 width="16px" height="16px" viewBox="0 0 16 16" enable-background="new 0 0 16 16" xml:space="preserve">
<g>
	<path fill="#FFFFFF" d="M15.771,8.871c0,0.445-0.363,0.809-0.809,0.809H1.037c-0.445,0-0.809-0.363-0.809-0.809V7.13
		c0-0.444,0.364-0.809,0.809-0.809h13.926c0.445,0,0.809,0.364,0.809,0.809V8.871z"/>
</g>
<g>
	<path fill="#FFFFFF" d="M8.87,0.229c0.445,0,0.809,0.364,0.809,0.809v13.925c0,0.445-0.363,0.809-0.809,0.809H7.129
		c-0.445,0-0.809-0.363-0.809-0.809V1.038c0-0.444,0.364-0.809,0.809-0.809H8.87z"/>
</g>
</svg>
