<?xml version="1.0" encoding="utf-8"?>
<!-- Generator: Adobe Illustrator 15.0.2, SVG Export Plug-In . SVG Version: 6.00 Build 0)  -->
<!DOCTYPE svg PUBLIC "-//W3C//DTD SVG 1.1//EN" "http://www.w3.org/Graphics/SVG/1.1/DTD/svg11.dtd">
<svg version="1.1" id="Layer_1" xmlns="http://www.w3.org/2000/svg" xmlns:xlink="http://www.w3.org/1999/xlink" x="0px" y="0px"
	 width="40px" height="40px" viewBox="0 0 40 40" enable-background="new 0 0 40 40" xml:space="preserve">
<rect x="2.5" y="1" fill="none" stroke="#FFFFFF" stroke-width="1.046" stroke-miterlimit="10" width="33" height="37"/>
<g>
	<path fill="#FFFFFF" d="M7.121,15.52h1.538c1.024,0,1.718,0.04,2.081,0.118c0.363,0.08,0.659,0.282,0.887,0.606
		c0.229,0.325,0.343,0.843,0.343,1.555c0,0.65-0.08,1.087-0.243,1.312c-0.162,0.223-0.479,0.355-0.954,0.402
		c0.43,0.104,0.718,0.248,0.866,0.428c0.148,0.178,0.24,0.342,0.277,0.492c0.036,0.149,0.054,0.562,0.054,1.235v2.201H9.953v-2.774
		c0-0.447-0.035-0.724-0.105-0.83c-0.071-0.105-0.256-0.16-0.555-0.16v3.766H7.121V15.52z M9.293,16.949v1.855
		c0.244,0,0.415-0.031,0.513-0.101c0.098-0.065,0.147-0.284,0.147-0.652v-0.46c0-0.264-0.047-0.438-0.142-0.521
		C9.717,16.99,9.544,16.949,9.293,16.949z"/>
	<path fill="#FFFFFF" d="M12.812,15.52h3.621v1.671h-1.449v1.584h1.356v1.588h-1.356v1.838h1.594v1.67h-3.766V15.52z"/>
	<path fill="#FFFFFF" d="M21.803,18.047h-2.016v-0.618c0-0.29-0.027-0.474-0.078-0.553c-0.052-0.079-0.139-0.119-0.258-0.119
		c-0.13,0-0.23,0.053-0.297,0.16c-0.066,0.107-0.1,0.269-0.1,0.486c0,0.278,0.038,0.488,0.113,0.629
		c0.072,0.141,0.276,0.312,0.614,0.51c0.968,0.574,1.576,1.045,1.828,1.414c0.25,0.367,0.375,0.961,0.375,1.778
		c0,0.597-0.068,1.033-0.209,1.316c-0.137,0.281-0.407,0.518-0.807,0.709c-0.398,0.191-0.863,0.285-1.394,0.285
		c-0.58,0-1.077-0.109-1.488-0.328c-0.411-0.221-0.68-0.502-0.807-0.842c-0.127-0.342-0.191-0.824-0.191-1.449V20.88h2.017v1.017
		c0,0.313,0.029,0.517,0.085,0.604c0.057,0.09,0.157,0.133,0.302,0.133s0.252-0.057,0.323-0.17c0.071-0.112,0.106-0.28,0.106-0.506
		c0-0.49-0.068-0.813-0.202-0.963c-0.137-0.152-0.476-0.404-1.016-0.761s-0.898-0.616-1.074-0.777
		c-0.175-0.162-0.32-0.385-0.435-0.671c-0.116-0.285-0.173-0.65-0.173-1.093c0-0.64,0.082-1.107,0.246-1.404
		c0.164-0.295,0.427-0.526,0.792-0.694c0.364-0.166,0.804-0.25,1.32-0.25c0.564,0,1.046,0.091,1.442,0.274
		c0.396,0.182,0.66,0.412,0.789,0.688s0.193,0.747,0.193,1.412v0.328H21.803z"/>
	<path fill="#FFFFFF" d="M22.664,15.52h3.622v1.671h-1.45v1.584h1.355v1.588h-1.355v1.838h1.594v1.67h-3.766V15.52z"/>
	<path fill="#FFFFFF" d="M31.29,15.52v1.671H30v6.68h-2.171v-6.68h-1.285V15.52H31.29z"/>
</g>
</svg>
