<?xml version="1.0" encoding="utf-8"?>
<!-- Generator: Adobe Illustrator 16.0.3, SVG Export Plug-In . SVG Version: 6.00 Build 0)  -->
<!DOCTYPE svg PUBLIC "-//W3C//DTD SVG 1.1//EN" "http://www.w3.org/Graphics/SVG/1.1/DTD/svg11.dtd">
<svg version="1.1" xmlns="http://www.w3.org/2000/svg" xmlns:xlink="http://www.w3.org/1999/xlink" x="0px" y="0px" width="14px"
	 height="14px" viewBox="0 0 62 62" enable-background="new 0 0 62 62" xml:space="preserve">
<g id="Layer_1">
	<radialGradient id="SVGID_1_" cx="30.7813" cy="25.0811" r="38.6099" fx="28.1584" fy="18.7901" gradientUnits="userSpaceOnUse">
		<stop  offset="0.0545" style="stop-color:#E3CC9F"/>
		<stop  offset="0.0956" style="stop-color:#E3C99A"/>
		<stop  offset="0.3804" style="stop-color:#E1B579"/>
		<stop  offset="0.5363" style="stop-color:#E0AE6C"/>
		<stop  offset="0.6797" style="stop-color:#DFA967"/>
		<stop  offset="1" style="stop-color:#DEA261"/>
	</radialGradient>
	<circle fill="url(#SVGID_1_)" stroke="#614875" stroke-width="2" stroke-miterlimit="10" cx="31" cy="31" r="30"/>
</g>
<g id="Layer_2" display="none">
	<radialGradient id="SVGID_2_" cx="31.2227" cy="45.2354" r="16.0566" gradientUnits="userSpaceOnUse">
		<stop  offset="0.0545" style="stop-color:#755096"/>
		<stop  offset="0.1965" style="stop-color:#755096"/>
		<stop  offset="0.4188" style="stop-color:#755096"/>
		<stop  offset="0.4951" style="stop-color:#714E8F"/>
		<stop  offset="0.7624" style="stop-color:#654A7C"/>
		<stop  offset="0.947" style="stop-color:#614875"/>
	</radialGradient>
	<path display="inline" fill="url(#SVGID_2_)" stroke="#403151" stroke-miterlimit="10" d="M52.445,39.71C45,47,38,55,27,53
		c-8-2-13-8-17-14C24,42,39,33,52.445,39.71L52.445,39.71z"/>
</g>
<g id="Layer_5" display="none">
	<path display="inline" fill="none" stroke="#403151" stroke-width="4" stroke-miterlimit="10" d="M13.805,38.13
		c5.513,9.27,20.949,10.243,34.513,2.177"/>
</g>
<g id="Layer_5_copy">
	<path fill="none" stroke="#403151" stroke-width="4" stroke-miterlimit="10" d="M48.318,46.772
		c-5.514-9.27-20.949-10.243-34.514-2.177"/>
</g>
<g id="Layer_3" display="none">
	<path display="inline" fill="#614875" stroke="#403151" stroke-miterlimit="10" d="M27.229,28.594
		c0.188-0.873,0.313-1.785,0.313-2.752c0-5.235-2.829-9.479-6.319-9.479c-3.49,0-6.319,4.244-6.319,9.479
		c0,1.129,0.156,2.193,0.405,3.191c0.111,0.063,0.216,0.131,0.319,0.202c0.1-0.021,0.2-0.042,0.301-0.063
		c0.06-0.039,0.118-0.08,0.181-0.116c0.121-0.19,0.254-0.371,0.399-0.544c0-0.001,0.001-0.002,0.002-0.003
		c0.044-0.054,0.076-0.116,0.123-0.168c0.159-0.414,0.348-0.813,0.612-1.163c0.785-1.19,2.111-2.028,3.978-2.028
		c1.866,0,3.192,0.838,3.977,2.027c0.233,0.31,0.41,0.656,0.563,1.015c0.11,0.142,0.213,0.288,0.306,0.442
		c0.104,0.097,0.21,0.192,0.301,0.301c0.134,0.069,0.271,0.131,0.401,0.209c0.023-0.002,0.047-0.002,0.071-0.004
		c0.087-0.043,0.174-0.084,0.261-0.127C27.14,28.873,27.182,28.732,27.229,28.594z"/>
</g>
<g id="Layer_3_copy" display="none">
	<path display="inline" fill="#614875" stroke="#403151" stroke-miterlimit="10" d="M47.23,28.594
		c0.186-0.873,0.313-1.785,0.313-2.752c0-5.235-2.83-9.479-6.32-9.479s-6.319,4.244-6.319,9.479c0,1.129,0.156,2.193,0.405,3.191
		c0.111,0.063,0.217,0.131,0.319,0.202c0.101-0.021,0.2-0.042,0.301-0.063c0.06-0.039,0.118-0.08,0.181-0.116
		c0.121-0.19,0.254-0.371,0.398-0.544c0.001-0.001,0.002-0.002,0.002-0.003c0.045-0.054,0.076-0.116,0.123-0.168
		c0.159-0.414,0.348-0.813,0.613-1.163c0.785-1.19,2.11-2.028,3.977-2.028c1.867,0,3.191,0.838,3.977,2.027
		c0.234,0.31,0.411,0.656,0.563,1.015c0.11,0.142,0.212,0.288,0.306,0.442c0.104,0.097,0.21,0.192,0.301,0.301
		c0.134,0.069,0.271,0.131,0.401,0.209c0.023-0.002,0.048-0.002,0.071-0.004c0.086-0.043,0.174-0.084,0.261-0.127
		C47.14,28.873,47.182,28.732,47.23,28.594z"/>
</g>
<g id="Layer_7">
	<path fill="#614875" stroke="#403151" stroke-miterlimit="10" d="M26.5,25.5c0,2.209-1.791,4-4,4l0,0c-2.209,0-4-1.791-4-4v-5
		c0-2.209,1.791-4,4-4l0,0c2.209,0,4,1.791,4,4V25.5z"/>
</g>
<g id="Layer_7_copy">
	<path fill="#614875" stroke="#403151" stroke-miterlimit="10" d="M43.5,25.5c0,2.209-1.791,4-4,4l0,0c-2.209,0-4-1.791-4-4v-5
		c0-2.209,1.791-4,4-4l0,0c2.209,0,4,1.791,4,4V25.5z"/>
</g>
</svg>
