<?xml version="1.0" encoding="utf-8"?>
<!-- Generator: Adobe Illustrator 21.1.0, SVG Export Plug-In . SVG Version: 6.00 Build 0)  -->
<svg version="1.1" id="Layer_1" xmlns="http://www.w3.org/2000/svg" xmlns:xlink="http://www.w3.org/1999/xlink" x="0px" y="0px"
	 viewBox="0 0 240 240" enable-background="new 0 0 240 240" xml:space="preserve">
<g>
	<path fill="#FFFFFF" d="M122.1,0.2c0.7,0.3,1.4,0.2,2.2,0.3c6.7,0.6,13.1,2.2,19.3,4.8c9.5,4.1,17.4,10.2,23.1,19
		c4.1,6.3,6.2,13.3,6.3,20.8c0,0.5-0.1,0.6-0.6,0.6c-5.7,0-11.3,0-17,0c-0.4,0-0.6,0-0.6-0.5c-0.1-5.5-2.3-10.1-5.8-14.2
		c-4.4-5.1-10-8.4-16.4-10.4c-5.5-1.7-11.1-2.3-16.9-2c-6.3,0.3-12.3,1.8-17.9,4.7c-5.9,3.1-10.7,7.3-13.5,13.4
		c-2.6,5.5-2.9,11.2-0.7,16.9c1.1,2.8,3.3,4.9,5.6,6.6c4.3,3.2,9.1,5.4,14.1,7.3c7.8,2.9,15.9,5.2,23.9,7.6c6.5,2,13,4.1,19.2,7
		c4.8,2.3,9.5,4.8,13.5,8.4c6.4,5.6,10.7,12.3,12.5,20.7c1,4.6,0.9,9.2,0.2,13.9c-0.9,6.2-3.2,12-6.8,17.1
		c-4.2,6-9.7,10.6-16.2,14.1c-0.1,0.1-0.2,0.1-0.4,0.2c0.6,0.3,1.1,0.6,1.7,0.8c8.4,4.2,14.7,10.3,18.8,18.8
		c2.6,5.3,3.6,11,3.3,16.8c-0.6,11.5-5.5,20.9-13.8,28.6c-8.1,7.5-17.7,11.8-28.5,13.9c-6.1,1.2-12.3,1.5-18.5,0.9
		c-11-1.1-21.1-4.6-30-11.1c-8.2-6-14.1-13.7-16.9-23.6c-0.9-3.2-1.3-6.5-1.4-9.8c0-0.5,0.1-0.6,0.6-0.6c5.7,0,11.3,0,17,0
		c0.4,0,0.6,0,0.6,0.5c0.3,7.5,3.9,13.2,9.5,17.9c5.2,4.4,11.3,6.9,18,8.1c5.4,1,10.9,1.1,16.3,0.3c8-1.2,15.2-4.2,21.1-9.8
		c4.3-4.1,7.2-9,7.7-15.1c0.4-4.4-0.1-8.6-2.8-12.3c-1.8-2.4-4.1-4.1-6.5-5.6c-4.7-3-9.9-5-15.2-6.9c-7.5-2.6-15.1-4.7-22.7-7.1
		c-7.1-2.2-14.1-4.8-20.8-8.3c-5.7-3-10.8-6.8-14.8-11.8c-4.2-5.2-6.8-11.1-7.7-17.7c-0.9-7.4,0.1-14.6,3.1-21.5
		c4-9.3,10.9-16,19.7-20.9c0.2-0.1,0.4-0.2,0.7-0.4c-0.1-0.3-0.4-0.3-0.6-0.4C79,76.2,72.7,70.7,68.4,63c-3.4-6-4.9-12.5-4.5-19.5
		c0.7-11.7,5.8-21.2,14.4-28.9c7.5-6.7,16.4-10.9,26.2-13c3.2-0.7,6.5-1.2,9.8-1.4c0.1,0,0.3,0,0.4-0.1
		C117.1,0.2,119.6,0.2,122.1,0.2z M82,118.5c0,0.9,0,2.1,0.2,3.4c0.5,3.6,2,6.7,4.7,9.1c3.3,3,7.1,5.2,11.2,7
		c6.2,2.8,12.7,4.9,19.2,6.9c1.4,0.4,2.7,0.8,4.2,0.5c1.7-0.3,3.4-0.4,5-0.7c6.2-1.1,12.1-3,17.6-6.2c4.3-2.5,7.6-6,9.2-10.8
		c1.5-4.4,1.7-8.8,1.1-13.4c-0.5-3.8-2.3-6.9-5.3-9.4c-3.3-2.8-7.1-4.9-11-6.7c-5.7-2.5-11.7-4.5-17.6-6.3c-1.7-0.5-3.4-1.3-5.2-0.9
		c-0.7,0.2-1.5,0.2-2.2,0.3c-7,0.9-13.7,2.8-19.9,6.4c-4,2.2-7.2,5.2-9.1,9.4C82.5,110.7,82,114.4,82,118.5z"/>
</g>
</svg>
