<?xml version="1.0" encoding="iso-8859-1"?>
<!-- Generator: Adobe Illustrator 16.0.0, SVG Export Plug-In . SVG Version: 6.00 Build 0)  -->
<!DOCTYPE svg PUBLIC "-//W3C//DTD SVG 1.1//EN" "http://www.w3.org/Graphics/SVG/1.1/DTD/svg11.dtd">
<svg version="1.1" id="Capa_1" xmlns="http://www.w3.org/2000/svg" xmlns:xlink="http://www.w3.org/1999/xlink" x="0px" y="0px"
	 width="24" height="24" viewBox="0 0 593.65 593.65" style="enable-background:new 0 0 593.65 593.65;"
	 xml:space="preserve">
<g>
	<g>
		<path fill="white" d="M566.104,323.594h-21.531c-5.826,0-12.619-5.272-14.834-11.515c-2.053-5.786-4.465-11.545-7.16-17.121
			c-2.871-5.93-1.814-14.418,2.305-18.537l15.326-15.328c10.738-10.737,10.738-28.21,0-38.948l-24.877-24.877
			c-5.203-5.202-12.117-8.066-19.475-8.066c-7.355,0-14.271,2.864-19.473,8.066l-15.328,15.328
			c-2.461,2.46-6.559,3.929-10.957,3.929c-2.754,0-5.375-0.563-7.574-1.628c-5.578-2.699-11.346-5.113-17.145-7.176
			c-6.24-2.215-11.512-9.008-11.512-14.832v-21.533c0-15.184-12.354-27.54-27.541-27.54h-35.189
			c-15.188,0-27.541,12.356-27.541,27.54v21.533c0,5.826-5.271,12.62-11.512,14.832c-5.791,2.057-11.557,4.465-17.129,7.158
			c-2.163,1.046-4.847,1.622-7.558,1.622c-4.416,0-8.525-1.472-10.992-3.938l-15.303-15.297c-5.202-5.202-12.118-8.066-19.477-8.066
			c-7.356,0-14.272,2.864-19.474,8.063l-24.902,24.887c-5.205,5.199-8.069,12.114-8.072,19.471c0,7.356,2.864,14.272,8.066,19.474
			l15.328,15.328c4.122,4.122,5.181,12.616,2.311,18.55c-2.69,5.566-5.098,11.322-7.151,17.111
			c-2.215,6.239-9.005,11.512-14.832,11.512h-21.53c-15.187,0-27.54,12.356-27.54,27.54v35.19c0,15.184,12.353,27.54,27.54,27.54
			h21.53c5.827,0,12.62,5.269,14.835,11.509c2.05,5.773,4.458,11.532,7.157,17.111c2.868,5.93,1.806,14.425-2.319,18.55
			l-15.328,15.327c-10.737,10.737-10.737,28.21,0,38.947l24.912,24.915c5.202,5.202,12.118,8.066,19.474,8.066
			c7.356,0,14.272-2.864,19.474-8.066l15.328-15.327c2.466-2.467,6.573-3.938,10.985-3.938c2.751,0,5.364,0.56,7.558,1.622
			c5.576,2.695,11.333,5.104,17.115,7.157c6.238,2.215,11.512,9.008,11.512,14.835v21.533c0,15.184,12.354,27.539,27.539,27.539
			h35.191c15.186,0,27.539-12.355,27.539-27.539v-21.533c0-5.827,5.273-12.62,11.512-14.832c5.793-2.057,11.559-4.465,17.131-7.157
			c2.162-1.047,4.846-1.622,7.557-1.622c4.416,0,8.523,1.472,10.99,3.938l15.326,15.327c5.203,5.202,12.115,8.066,19.471,8.066
			c7.359,0,14.275-2.867,19.477-8.072l24.889-24.902c10.73-10.74,10.73-28.213-0.004-38.951l-15.314-15.321
			c-4.119-4.118-5.176-12.613-2.309-18.547c2.693-5.569,5.098-11.331,7.154-17.12c2.213-6.239,9.004-11.509,14.83-11.509h21.529
			c15.188,0,27.541-12.356,27.541-27.54v-35.19C593.643,335.948,581.287,323.594,566.104,323.594z M449.441,368.729
			c0,44.502-36.207,80.708-80.709,80.708c-44.5,0-80.707-36.206-80.707-80.708c0-44.501,36.207-80.707,80.707-80.707
			C413.234,288.022,449.441,324.225,449.441,368.729z"/>
		<path fill="white" d="M201.868,146.904c0.521-1.466,2.262-2.702,3.082-2.702h10.784c10.123,0,18.36-8.234,18.36-18.36v-17.595
			c0-10.125-8.237-18.36-18.36-18.36h-10.781c-0.82,0-2.561-1.236-3.081-2.702c-1.083-3.051-2.353-6.089-3.776-9.024
			c-0.664-1.374-0.312-3.446,0.263-4.021l7.666-7.665c7.157-7.161,7.157-18.807,0-25.964l-12.439-12.439
			c-3.467-3.467-8.079-5.376-12.983-5.376c-4.905,0-9.517,1.913-12.984,5.379l-7.662,7.663c-0.239,0.239-1.059,0.621-2.237,0.621
			c-0.67,0-1.319-0.128-1.784-0.355c-2.94-1.423-5.976-2.693-9.024-3.773c-1.469-0.52-2.705-2.265-2.705-3.082V18.366
			c0-10.126-8.237-18.36-18.36-18.36h-17.595c-10.123,0-18.36,8.234-18.36,18.36v10.783c0,0.82-1.236,2.558-2.702,3.079
			c-3.063,1.086-6.102,2.359-9.03,3.776c-0.462,0.223-1.114,0.352-1.784,0.352c-1.178,0-1.995-0.379-2.233-0.618l-7.666-7.663
			c-3.467-3.467-8.078-5.376-12.983-5.376s-9.514,1.909-12.98,5.376L28.073,40.514c-7.157,7.161-7.157,18.81,0,25.967l7.662,7.662
			c0.575,0.575,0.93,2.647,0.266,4.018c-1.423,2.938-2.693,5.976-3.776,9.027c-0.52,1.466-2.265,2.705-3.082,2.705H18.36
			C8.238,89.893,0,98.127,0,108.253v17.595c0,10.123,8.235,18.36,18.357,18.36h10.784c0.82,0,2.561,1.236,3.082,2.702
			c1.083,3.054,2.353,6.089,3.776,9.024c0.664,1.374,0.312,3.445-0.263,4.021l-7.666,7.666c-3.467,3.467-5.376,8.079-5.376,12.983
			c0,4.905,1.909,9.514,5.379,12.984l12.439,12.436c3.467,3.467,8.078,5.376,12.983,5.376s9.514-1.909,12.98-5.376l7.666-7.665
			c0.238-0.239,1.059-0.621,2.237-0.621c0.67,0,1.319,0.128,1.784,0.354c2.941,1.423,5.977,2.693,9.024,3.773
			c1.469,0.52,2.705,2.264,2.705,3.081v10.784c0,10.125,8.238,18.36,18.36,18.36h17.595c10.123,0,18.36-8.234,18.36-18.36v-10.781
			c0-0.82,1.236-2.558,2.702-3.078c3.051-1.083,6.086-2.353,9.024-3.776c0.465-0.227,1.117-0.355,1.787-0.355
			c1.178,0,1.995,0.382,2.237,0.621l7.666,7.665c3.467,3.467,8.078,5.376,12.983,5.376s9.514-1.909,12.98-5.376l12.439-12.438
			c7.157-7.161,7.157-18.807,0-25.964l-7.662-7.662c-0.576-0.575-0.931-2.65-0.267-4.021
			C199.519,152.987,200.788,149.952,201.868,146.904z M152.811,117.044c0,19.719-16.043,35.765-35.762,35.765
			c-19.722,0-35.765-16.043-35.765-35.765s16.043-35.765,35.765-35.765C136.767,81.279,152.811,97.323,152.811,117.044z"/>
	</g>
</g>
<g>
</g>
<g>
</g>
<g>
</g>
<g>
</g>
<g>
</g>
<g>
</g>
<g>
</g>
<g>
</g>
<g>
</g>
<g>
</g>
<g>
</g>
<g>
</g>
<g>
</g>
<g>
</g>
<g>
</g>
</svg>
