<?xml version="1.0" encoding="utf-8"?>
<!-- Generator: Adobe Illustrator 22.1.0, SVG Export Plug-In . SVG Version: 6.00 Build 0)  -->
<svg version="1.1" id="Layer_1" xmlns="http://www.w3.org/2000/svg" xmlns:xlink="http://www.w3.org/1999/xlink" x="0px" y="0px"
	 viewBox="0 0 16 16" style="enable-background:new 0 0 16 16;" xml:space="preserve">
<style type="text/css">
	.st0{opacity:0.22;}
	.st1{fill:#FFFFFF;}
</style>
<path class="st0" d="M5.6,8.8C5.1,8.8,4.9,8.5,5.3,8l4.1-5.1c0.4-0.4,0.9-0.4,1.3,0L14.7,8c0.4,0.4,0.2,0.8-0.4,0.8H5.6z"/>
<path class="st1" d="M3.6,7.3C3.1,7.3,2.9,7,3.3,6.6l4.1-4.8c0.4-0.4,0.9-0.4,1.3,0l4.1,4.8c0.4,0.4,0.2,0.8-0.4,0.8H3.6z"/>
<path class="st0" d="M5.6,10.2c-0.6,0-0.7,0.3-0.4,0.8l4.1,4.8c0.4,0.4,0.9,0.4,1.3,0l4.1-4.8c0.4-0.4,0.2-0.8-0.4-0.8H5.6z"/>
<path class="st1" d="M3.6,9.1c-0.5,0-0.7,0.3-0.4,0.8l4.1,4.8c0.4,0.4,0.9,0.4,1.3,0l4.1-4.8c0.4-0.4,0.2-0.8-0.4-0.8H3.6z"/>
</svg>
