<svg id="Layer_1" data-name="Layer 1" xmlns="http://www.w3.org/2000/svg" viewBox="0 0 24 24"><defs><style>.cls-1{fill:#fff;}</style></defs><title>Artboard 5</title><path class="cls-1" d="M12,11.3a2,2,0,0,1,1.4-1.9,13.44,13.44,0,0,0-2-.45,3.38,3.38,0,0,0-1.16-.61,4.21,4.21,0,0,0,2.88-4.08A4.13,4.13,0,0,0,9.12,0a4.13,4.13,0,0,0-4,4.26A4.21,4.21,0,0,0,8,8.34,3.38,3.38,0,0,0,6.86,9C2.92,9.53,0,11.57,0,14c0,.06,0,.11,0,.17H0v4.39a2.75,2.75,0,0,0,2.78,2.71H12Z"/><path class="cls-1" d="M20.18,16a1.71,1.71,0,0,1-1.7-1.7V10.22h-4a1.7,1.7,0,0,0-1.7,1.7v10a1.7,1.7,0,0,0,1.7,1.7H22.3a1.7,1.7,0,0,0,1.7-1.7V16Z"/><path class="cls-1" d="M19.34,10.22h0v3.32a1.7,1.7,0,0,0,1.7,1.7h3Z"/></svg>