<?xml version="1.0" encoding="utf-8"?>
<!-- Generator: Adobe Illustrator 19.2.1, SVG Export Plug-In . SVG Version: 6.00 Build 0)  -->
<svg version="1.1" id="Layer_1" xmlns="http://www.w3.org/2000/svg" xmlns:xlink="http://www.w3.org/1999/xlink" x="0px" y="0px"
	 viewBox="0 0 24 24" style="enable-background:new 0 0 24 24;" xml:space="preserve">
<style type="text/css">
	.st0{fill:none;stroke:#000000;stroke-miterlimit:10;}
	.st1{fill:#FFFFFF;}
</style>
<line class="st0" x1="-467.5" y1="-144.5" x2="-465.5" y2="-142.5"/>
<g>
	<g>
		<g>
			<path class="st1" d="M1.8,9.7c0,0.1,0,0.2,0,0.3c0,0,0,0,0,0c0,0,0,0.1,0,0.1c0,0,0,0,0,0c0-0.1,0-0.3,0.1-0.4
				c0-0.1,0.1-0.2,0.1-0.3C2,9.7,1.9,9.7,1.8,9.7z"/>
			<path class="st1" d="M18,13.7c-1.2-0.4-2.2-1.2-3-2.4c-1-1.6-2-3.3-3.1-4.8c-0.6-0.9-1.3-1.8-1.9-2.6C9.5,3.2,9,3.3,8.4,3.7
				c-1.5,1-2.8,2.3-4,4C4.2,7.9,4,8.1,3.7,8.3c0,0,0,0,0,0C3.1,8.7,2.6,9,2.1,9.5c0,0,0,0,0,0C2.1,9.7,2,9.7,2,9.8
				c-0.1,0.1-0.1,0.2-0.1,0.4c0,0,0,0.1,0,0.1c0,0,0,0,0,0c0,0,0.1,0.1,0.1,0.1c0.1,0,0.2,0,0.2,0C3.1,10.1,4,9.9,4.7,9
				c0.1-0.1,0.2-0.2,0.4-0.3c1.1-0.7,2.2-1.4,3.2-2c0.6-0.4,0.8-0.4,1.2,0.3c0.7,1.1,1.1,2.3,1.4,3.7c0,0.2,0.1,0.4,0.1,0.6
				c0,0.2-0.1,0.5-0.2,0.6c-0.3,0.3-0.7,0.6-1.1,0.9c2.7,2,5.6,1.5,8.4,0.9C18.1,13.7,18,13.7,18,13.7z"/>
			<path class="st1" d="M24.1,13.6c-0.2,0-0.3-0.1-0.5-0.1c-1.1-0.2-2.2,0.1-3.2,0.6c-2.3,1.3-4.7,2-7.2,1.9c-1.5,0-2.8-0.6-4.1-1.6
				c-1.4-1.1-2.9-1.4-4.4-1.2c-1.5,0.2-2.9,0.6-4.4,0.9c-0.1,0-0.2,0-0.3,0c0,0,0.1-0.1,0.1-0.1c1.8-1.1,3.5-2,5.5-2.1
				c1.6-0.1,3,0.4,4.3,1.6c1,0.9,2,1.4,3.1,1.5c2.5,0.3,5-0.3,7.4-1.4c1.2-0.5,2.3-0.6,3.5-0.2C24,13.4,24,13.5,24.1,13.6
				C24.1,13.5,24.1,13.6,24.1,13.6z"/>
		</g>
		<path class="st1" d="M17.5,7.3c1.4,0,2,1.5,1.4,3.1c-0.5,1.3-1.8,2.1-2.8,1.9c-1-0.2-1.5-1.4-1.1-2.8C15.3,8.2,16.4,7.3,17.5,7.3z
			"/>
	</g>
	<path class="st1" d="M24.1,16.1c-0.2,0-0.3-0.1-0.5-0.1c-1.1-0.2-2.2,0.1-3.2,0.6c-2.3,1.3-4.7,2-7.2,1.9c-1.5,0-2.8-0.6-4.1-1.6
		c-1.4-1.1-2.9-1.4-4.4-1.2c-1.5,0.2-2.9,0.6-4.4,0.9c-0.1,0-0.2,0-0.3,0c0,0,0.1-0.1,0.1-0.1c1.8-1.1,3.5-2,5.5-2.1
		c1.6-0.1,3,0.4,4.3,1.6c1,0.9,2,1.4,3.1,1.5c2.5,0.3,5-0.3,7.4-1.4c1.2-0.5,2.3-0.6,3.5-0.2C24,15.9,24,16,24.1,16.1
		C24.1,16,24.1,16,24.1,16.1z"/>
	<path class="st1" d="M24.1,18.6c-0.2,0-0.3-0.1-0.5-0.1c-1.1-0.2-2.2,0.1-3.2,0.6c-2.3,1.3-4.7,2-7.2,1.9c-1.5,0-2.8-0.6-4.1-1.6
		c-1.4-1.1-2.9-1.4-4.4-1.2c-1.5,0.2-2.9,0.6-4.4,0.9c-0.1,0-0.2,0-0.3,0C0,19.1,0,19,0,19c1.8-1.1,3.5-2,5.5-2.1
		c1.6-0.1,3,0.4,4.3,1.6c1,0.9,2,1.4,3.1,1.5c2.5,0.3,5-0.3,7.4-1.4c1.2-0.5,2.3-0.6,3.5-0.2C24,18.4,24,18.4,24.1,18.6
		C24.1,18.5,24.1,18.5,24.1,18.6z"/>
</g>
</svg>
