<?xml version="1.0" encoding="utf-8"?>
<!-- Generator: Adobe Illustrator 15.0.0, SVG Export Plug-In . SVG Version: 6.00 Build 0)  -->
<!DOCTYPE svg PUBLIC "-//W3C//DTD SVG 1.1//EN" "http://www.w3.org/Graphics/SVG/1.1/DTD/svg11.dtd">
<svg version="1.1" id="Layer_1" xmlns="http://www.w3.org/2000/svg" xmlns:xlink="http://www.w3.org/1999/xlink" x="0px" y="0px"
	 width="841.89px" height="595.281px" viewBox="0 0 841.89 595.281" enable-background="new 0 0 841.89 595.281"
	 xml:space="preserve">
<line fill="none" stroke="#000000" stroke-miterlimit="10" x1="-11472.259" y1="-3584.083" x2="-11422.653" y2="-3534.477"/>
<path fill="#FFFFFF" d="M424.212,74.843c-125.017,0-226.358,101.341-226.358,226.357c0,1.324,0.011,2.645,0.034,3.963
	c2.115,123.188,102.631,222.395,226.324,222.395c125.016,0,226.356-101.341,226.356-226.357
	C650.569,176.185,549.228,74.843,424.212,74.843z M421.432,480.437c-101.31,0-183.437-81.919-183.437-182.979
	c0-101.056,82.127-182.979,183.437-182.979c101.312,0,183.439,81.924,183.439,182.979
	C604.872,398.518,522.744,480.437,421.432,480.437z"/>
<path fill="#FFFFFF" d="M434.339,132.388c0-2.814-4.722-5.096-10.549-5.096l0,0c-5.825,0-10.548,2.281-10.548,5.096v142.976
	c0,2.814,4.723,5.095,10.548,5.095l0,0c5.827,0,10.549-2.281,10.549-5.095V132.388z"/>
<path fill="#FFFFFF" d="M500.471,392.191c1.376,1.51,5.981-0.445,10.289-4.369l0,0c4.308-3.923,6.685-8.326,5.311-9.836
	l-69.837-76.688c-1.374-1.511-5.981,0.447-10.289,4.369l0,0c-4.308,3.923-6.686,8.325-5.309,9.835L500.471,392.191z"/>
<path fill="#FFFFFF" d="M642.124,543.331c-4.044,4.207-10.736,4.339-14.943,0.294l-64.763-62.265
	c-4.208-4.045-4.338-10.737-0.292-14.944l5.492-5.714c4.046-4.208,10.738-4.34,14.944-0.294l64.762,62.264
	c4.208,4.046,4.341,10.737,0.295,14.945L642.124,543.331z"/>
<path fill="#FFFFFF" d="M194.624,536.852c-3.97-4.278-3.72-10.967,0.559-14.937l65.856-61.105
	c4.278-3.971,10.966-3.721,14.937,0.559l5.391,5.811c3.97,4.279,3.72,10.968-0.559,14.937l-65.856,61.106
	c-4.279,3.97-10.967,3.72-14.937-0.56L194.624,536.852z"/>
<path fill="#FFFFFF" d="M434.339,34.895c0-0.985-4.722-1.784-10.549-1.784l0,0c-5.825,0-10.548,0.799-10.548,1.784V84.95
	c0,0.986,4.723,1.784,10.548,1.784l0,0c5.827,0,10.549-0.798,10.549-1.784V34.895z"/>
<path fill="#FFFFFF" d="M689.437,164.769c2.151,2.361,7.384,1.095,11.691-2.828l0,0c4.308-3.923,6.057-9.017,3.908-11.376
	L595.856,30.672c-2.148-2.361-7.384-1.092-11.69,2.83l0,0c-4.308,3.923-6.059,9.014-3.907,11.375L689.437,164.769z"/>
<path fill="#FFFFFF" d="M643.557,175.445c1.474,1.616,6.156-0.253,10.464-4.175l0,0c4.308-3.924,6.606-8.414,5.135-10.03
	L584.39,79.139c-1.471-1.617-6.156,0.255-10.464,4.177l0,0c-4.308,3.923-6.606,8.412-5.134,10.028L643.557,175.445z"/>
<path fill="#FFFFFF" d="M262.81,53.115c2.175-2.338,0.481-7.448-3.782-11.418l0,0c-4.266-3.969-9.486-5.293-11.661-2.957
	L136.883,157.433c-2.176,2.335-0.48,7.448,3.784,11.417l0,0c4.265,3.97,9.482,5.295,11.658,2.956L262.81,53.115z"/>
<path fill="#FFFFFF" d="M277.231,97.958c1.488-1.602-0.76-6.114-5.023-10.084l0,0c-4.266-3.969-8.93-5.89-10.419-4.29
	l-75.658,81.279c-1.49,1.599,0.761,6.115,5.025,10.084l0,0c4.265,3.97,8.928,5.891,10.417,4.289L277.231,97.958z"/>
<rect x="385.493" y="29.484" fill="#FFFFFF" width="78.388" height="30.438"/>
<ellipse fill="#FFFFFF" cx="426.889" cy="292.811" rx="21.138" ry="21.161"/>
</svg>
