<?xml version="1.0" encoding="utf-8"?>
<!-- Generator: Adobe Illustrator 19.2.1, SVG Export Plug-In . SVG Version: 6.00 Build 0)  -->
<svg version="1.1" id="Layer_1" xmlns="http://www.w3.org/2000/svg" xmlns:xlink="http://www.w3.org/1999/xlink" x="0px" y="0px"
	 viewBox="0 0 595.3 841.9" style="enable-background:new 0 0 595.3 841.9;" xml:space="preserve">
<style type="text/css">
	.st0{fill:#FFFFFF;}
	.st1{fill:none;stroke:#FFFFFF;stroke-miterlimit:10;}
</style>
<g>
	<path class="st0" d="M107.1,307.9c0.6,1.3,0.8,2.7,0.8,4.1c0,0.1,0,0.1,0,0.2c0.2,0.5,0.3,1,0.5,1.5c0.1,0.2,0.3,0.3,0.4,0.5
		c0.4-1.8,0.7-3.6,1.7-4.9c0.9-1.2,1.8-2.4,2.8-3.5C111.4,307.4,109.2,308.1,107.1,307.9z"/>
	<g>
		<path class="st0" d="M13,102.7c0,148.1,0,296.1,0,444.2h571V102.7H13z M358.5,308.5c7.3-17.7,27.5-30.8,47.3-30.7
			c25,0.1,37.4,20.7,25.8,42.8c-9.5,18-32.3,29.3-52.3,26C360.2,343.4,351,326.6,358.5,308.5z"/>
	</g>
	<path class="st1" d="M405.4,362.4c-21.8-5.4-40-16.2-54.4-33.8c-18.5-22.5-37.3-44.9-56.7-66.7c-11.2-12.6-23.2-24.5-35.7-35.8
		c-8.7-7.9-18.8-7.2-29.4-1.7c-27.5,14.3-52.3,31.9-73.5,54.5c-3.8,4.1-8.2,6.9-13,8.8c-0.3,0.2-0.6,0.4-0.9,0.6
		c-9.5,5.7-20.4,9-28.2,17.1c-0.1,0.1-0.2,0.2-0.3,0.3c-0.9,1.2-1.9,2.4-2.8,3.5c-1,1.3-1.3,3.2-1.7,4.9c0.3,0.4,0.6,0.8,0.9,1.3
		c0,0,0,0,0,0c0.6,0.3,1.1,0.7,1.6,1.2c1.5,0.3,2.9,0.5,4.2,0.2c15.9-3.9,32.5-6.2,45.2-18.3c1.9-1.8,4.6-3,7-4.2
		c19.9-9.4,39.8-18.6,59.6-28.1c11.3-5.4,14.8-5.1,22.8,4.8c12.2,15.1,21,32.2,26.6,50.8c0.8,2.8,1.8,6,1.3,8.7
		c-0.6,3.2-2,7-4.4,8.8c-5.7,4.3-12.1,7.7-19.7,12.3c50.6,28,102.5,20.8,154.5,12.6C407.5,363.1,406.5,362.6,405.4,362.4z"/>
	<path class="st1" d="M518,361.4c-3-0.4-6.1-0.9-9.1-1.3c-20.5-2.8-40.1,0.7-59.3,8.9c-42.4,18-86.5,27-132.2,26.6
		c-27.2-0.3-52.4-7.8-76.3-22.2C216,358.2,188,354,159.7,357.1c-26.9,3-53.5,8.2-80.3,12.4c-2,0.3-4,0.6-6.4-0.3
		c0.7-0.5,1.3-1.3,2.1-1.6c32.3-15.2,65.3-27.6,101-29.5c28.7-1.6,55.5,5.2,79.3,22.7c17.6,12.9,37.3,18.7,57.9,20.4
		c46.7,3.8,92.3-3.7,136.7-19.4c21.3-7.5,42.6-8.6,64.3-3.1c1.4,0.4,2.7,1,4,1.5C518.2,360.6,518.1,361,518,361.4z"/>
	<path class="st1" d="M404,277.8c25,0.1,37.4,20.7,25.8,42.8c-9.5,18-32.3,29.3-52.3,26c-19.1-3.2-28.2-20-20.8-38
		C364,290.9,384.2,277.7,404,277.8z"/>
</g>
</svg>
