<?xml version="1.0" encoding="utf-8"?>
<!-- Generator: Adobe Illustrator 15.0.2, SVG Export Plug-In . SVG Version: 6.00 Build 0)  -->
<!DOCTYPE svg PUBLIC "-//W3C//DTD SVG 1.1//EN" "http://www.w3.org/Graphics/SVG/1.1/DTD/svg11.dtd">
<svg version="1.1" id="Layer_1" xmlns="http://www.w3.org/2000/svg" xmlns:xlink="http://www.w3.org/1999/xlink" x="0px" y="0px"
	 width="40px" height="40px" viewBox="0 0 40 40" enable-background="new 0 0 40 40" xml:space="preserve">
<path fill="#FFFFFF" d="M27.059,9.806c-7.646-4.231-15.862,3.568-17.203,10.801c-0.407,2.199-0.288,5.253,0.856,7.616l0.138,0.273
	c0.452,0.852,1.047,1.603,1.808,2.172c2.471,1.847,2.938-0.658,4.184-2.284c2.24-2.924,4.261-2.217,7.507-2.43
	c2.409-0.158,4.238-1.076,5.495-2.415C33.356,19.793,32.387,12.754,27.059,9.806z M13.295,29.801
	c-0.941-0.021-1.679-1.055-1.648-2.311c0.029-1.255,0.816-2.252,1.758-2.229c0.941,0.024,1.678,1.057,1.649,2.312
	C15.024,28.827,14.236,29.825,13.295,29.801z M25.797,13.637c-0.799-0.607-1.153-1.483-0.793-1.958c0.359-0.474,1.3-0.366,2.1,0.241
	c0.8,0.608,1.153,1.484,0.795,1.958C27.536,14.353,26.597,14.247,25.797,13.637z M26.239,23.584
	c-0.867,0.506-1.852,0.433-2.198-0.164c-0.349-0.597,0.073-1.488,0.94-1.995c0.866-0.505,1.852-0.432,2.198,0.165
	C27.527,22.187,27.106,23.079,26.239,23.584z M27.948,19.591c-0.663-0.19-0.978-1.126-0.698-2.091
	c0.276-0.965,1.039-1.592,1.701-1.402c0.664,0.19,0.976,1.127,0.699,2.092C29.373,19.154,28.609,19.781,27.948,19.591z"/>
<g>
	<polygon fill="#D6D6D6" points="24.63,35.707 27.278,34.22 15.938,17.41 14.377,18.654 	"/>
	<path fill="#D6D6D6" d="M14.887,17.496c6.204-6.225-8.517-12.671-8.517-12.672C9.076,21.811,14.887,17.496,14.887,17.496z
		 M8.34,6.366C8.201,6.273,8.083,6.184,7.938,6.092C7.938,6.092,8.094,6.191,8.34,6.366c8.372,5.61,6.608,9.238,6.608,9.238
		C13.987,10.715,9.67,7.313,8.34,6.366z"/>
</g>
<rect x="4.301" y="2" fill="none" stroke="#FFFFFF" stroke-width="2" stroke-miterlimit="10" width="30.949" height="35.5"/>
</svg>
