<?xml version="1.0" encoding="utf-8"?>
<!-- Generator: Adobe Illustrator 15.0.2, SVG Export Plug-In . SVG Version: 6.00 Build 0)  -->
<!DOCTYPE svg PUBLIC "-//W3C//DTD SVG 1.1//EN" "http://www.w3.org/Graphics/SVG/1.1/DTD/svg11.dtd">
<svg version="1.1" id="Layer_1" xmlns="http://www.w3.org/2000/svg" xmlns:xlink="http://www.w3.org/1999/xlink" x="0px" y="0px"
	 width="35px" height="35px" viewBox="0 0 35 35" enable-background="new 0 0 35 35" xml:space="preserve">
<g>
	<polygon fill="#FFFFFF" points="30.314,17.492 17.157,24.996 4,32.5 4,17.492 4,2.484 17.157,9.988 	"/>
	<g>
		<path fill="#FFFFFF" d="M29.43,15.978c-8.699,5-17.397,10.004-26.097,15.006c0.88,0.506,1.76,1.011,2.64,1.516
			c0-10.005,0-20.01,0-30.016c-0.88,0.505-1.76,1.01-2.64,1.515C12.032,9.002,20.73,14.004,29.43,19.007
			c1.965,1.13,3.73-1.902,1.771-3.029C22.501,10.975,13.802,5.972,5.103,0.97c-1.151-0.662-2.64,0.178-2.64,1.515
			c0,10.005,0,20.011,0,30.016c0,1.337,1.488,2.177,2.64,1.515C13.802,29.012,22.501,24.01,31.2,19.007
			C33.16,17.88,31.395,14.848,29.43,15.978z"/>
	</g>
</g>
</svg>
