<?xml version="1.0" encoding="utf-8"?>
<!-- Generator: Adobe Illustrator 22.1.0, SVG Export Plug-In . SVG Version: 6.00 Build 0)  -->
<svg version="1.1" id="Layer_1" xmlns="http://www.w3.org/2000/svg" xmlns:xlink="http://www.w3.org/1999/xlink" x="0px" y="0px"
	 viewBox="0 0 400 400" style="enable-background:new 0 0 400 400;" xml:space="preserve">
<style type="text/css">
	.st0{fill:none;stroke:#FFFFFF;stroke-width:40;stroke-miterlimit:10;}
	.st1{fill:#FFFFFF;}
	.st2{fill:none;stroke:#FFFFFF;stroke-width:33;stroke-miterlimit:10;}
</style>
<path class="st0" d="M345.5,117.8l0,86.6"/>
<path class="st0" d="M345.5,204.3v143.4c0.1,15.6-11.7,28.3-26.2,28.3H93.8c-14.6,0-26.3-12.7-26.3-28.1V57.1
	C67.5,41.7,79.4,29,93.8,29h155.4"/>
<rect x="287.4" y="2.4" transform="matrix(0.7505 -0.6608 0.6608 0.7505 26.5647 219.9877)" class="st1" width="34.6" height="144.7"/>
<rect x="247.6" y="9" class="st1" width="22.3" height="20.2"/>
<rect x="241.2" y="28.8" class="st1" width="22.3" height="20.2"/>
<path class="st2" d="M342.3,143.7h-87.5c-4,0-7.2-3.2-7.2-7.2V49"/>
<path class="st1" d="M131.6,334.2l-15.6-6.6c-4.9-2.1-7.2-7.7-5.1-12.6l48.4-114.2c2.1-4.9,7.7-7.2,12.6-5.1l15.6,6.6
	c4.9,2.1,7.2,7.7,5.1,12.6l-48.4,114.2C142.1,334,136.4,336.3,131.6,334.2z"/>
<path class="st1" d="M232,334.2l15.6-6.6c4.9-2.1,7.2-7.7,5.1-12.6l-48.6-114.7c-2.1-4.9-7.7-7.2-12.6-5.1l-15.6,6.6
	c-4.9,2.1-7.2,7.7-5.1,12.6l48.6,114.7C221.5,334,227.2,336.3,232,334.2z"/>
<circle class="st1" cx="181.9" cy="207.2" r="23.6"/>
<rect x="153.1" y="278" class="st1" width="57.6" height="21"/>
</svg>
