<svg id="Layer_1" data-name="Layer 1" xmlns="http://www.w3.org/2000/svg" viewBox="0 0 31.13 31.13">
  <defs>
    <style>
      .cls-1 {
        fill: #5d4a72;
        fill-rule: evenodd;
      }

      .cls-2 {
        fill: #fff;
      }
    </style>
  </defs>
  <title>ThemeToggle</title>
  <g id="Layer_2" data-name="Layer 2">
    <path class="cls-1" d="M0,15.57c0,.07,0,.13,0,.2v-.4C0,15.44,0,15.5,0,15.57Z" transform="translate(0.02 -0.01)"/>
  </g>
  <path class="cls-2" d="M0,15.57c0,.54,0,1.07.08,1.59a.5.5,0,0,1,0,.12A13.13,13.13,0,0,0,.3,18.7a15.56,15.56,0,1,0,0-6.26A15.39,15.39,0,0,0,0,15.57ZM24.43,6.74a12.51,12.51,0,0,1-8.88,21.34h0v-25h0A12.46,12.46,0,0,1,24.43,6.74Z" transform="translate(0.02 -0.01)"/>
</svg>
