<?xml version="1.0" encoding="utf-8"?>
<!-- Generator: Adobe Illustrator 16.0.0, SVG Export Plug-In . SVG Version: 6.00 Build 0)  -->
<!DOCTYPE svg PUBLIC "-//W3C//DTD SVG 1.1//EN" "http://www.w3.org/Graphics/SVG/1.1/DTD/svg11.dtd">
<svg version="1.1" id="Layer_1" xmlns="http://www.w3.org/2000/svg" xmlns:xlink="http://www.w3.org/1999/xlink" x="0px" y="0px"
	 width="24px" height="24px" viewBox="788 588 24 24" enable-background="new 788 588 24 24" xml:space="preserve">
<g>
	<title>Layer 1</title>
	<g id="g857">
		<path id="path851" fill="#FFFFFF" stroke="#000000" stroke-linejoin="round" d="M795.213,600.197
			c-2.724-2.396-10.77-5.45-6.082-9.104c12.48-8.624,27.431,9.883,22.047,16.471C801.168,618.524,800.218,603.491,795.213,600.197z
			 M797.714,599.151c1.773-1.318,4.561,0.539,3.104,2.275C798.728,603.044,796.257,600.888,797.714,599.151z"/>
		<path id="path796" opacity="0.8" fill="none" stroke="#000000" stroke-linejoin="round" enable-background="new    " d="
			M789.987,591.867c1.791-1.335,4.606,0.547,3.135,2.307C791.011,595.812,788.516,593.628,789.987,591.867z"/>
		<path id="path797" fill="none" stroke="#000000" stroke-linejoin="round" d="M797.152,590.714
			c1.792-1.336,4.606,0.546,3.136,2.307C798.176,594.659,795.681,592.475,797.152,590.714z"/>
		<path id="path798" fill="none" stroke="#000000" stroke-linejoin="round" d="M803.423,594.417
			c1.791-1.336,4.605,0.546,3.135,2.307C804.446,598.362,801.951,596.177,803.423,594.417z"/>
		<path id="path799" fill="none" stroke="#000000" stroke-linejoin="round" d="M807.069,600.184
			c1.791-1.336,4.606,0.547,3.135,2.307C808.093,604.13,805.598,601.944,807.069,600.184z"/>
		<path id="path800" fill="none" stroke="#000000" stroke-linejoin="round" d="M804.766,607.468
			c1.792-1.335,4.606,0.547,3.136,2.308C805.79,611.414,803.294,609.229,804.766,607.468z"/>
		<path id="path568" stroke="#000000" d="M791.146,611.327c0,0,1.224-0.092,2.582-2.208c0.679-0.46,1.066-0.46,1.6-1.059
			c0.679-1.15,0.098-1.656-0.437-1.84c-0.679,0-0.388-0.23-1.697,0.092c-1.309,0.966-1.212,1.059-1.26,2.254
			C792.08,610.085,791.583,611.005,791.146,611.327z"/>
		<path id="path855" fill="#FFFFFF" fill-opacity="0.25" d="M805.364,594.521c-0.951-0.902-3.234,0.902-1.475,2.121
			C805.412,596.508,802.891,594.792,805.364,594.521z"/>
		<path id="path582" stroke="#000000" stroke-linejoin="round" d="M795.177,602.297c0.824-3.589,11.83-13.756,11.83-13.756
			c0,0.092,0,0,0,0l0.049-0.046c-0.049,0-4.17,11.455-8.97,15.182c-0.728-0.782-0.873-0.506-1.406-0.966
			C796.292,602.572,795.128,602.343,795.177,602.297z"/>
		<g id="g575">
			<path id="path573" fill="none" stroke="#000000" stroke-linejoin="round" d="M793.486,605.622c1.551-2.852,1.6-3.036,1.6-3.036
				s0.437-0.138,1.164-0.184c0.679,0.229,0.872,0.275,1.357,0.598c0.29,0.553,0.63,0.874,0.63,0.874l-2.424,2.99
				C795.813,606.864,794.892,605.622,793.486,605.622z"/>
			<path id="path570" fill="none" stroke="#000000" stroke-linejoin="round" d="M793.194,606.129c0.049,0,1.019,0.092,1.358,0.184
				c0.339,0.092,1.066,0.69,1.115,0.782c0.048,0.092,0.097,0,0.242,0.092s0.34-0.229,0.34-0.368
				c-0.194-0.414-0.396-0.842-1.124-0.979c-0.727-0.229-1.862-0.512-2.008-0.235c-0.097,0.184-0.263,0.341-0.214,0.387
				C792.952,606.036,793.243,606.221,793.194,606.129z"/>
			<path id="path574" fill="none" stroke="#000000" stroke-linejoin="round" d="M795.231,602.632c0,0,0.45-0.013,0.984,0.125
				c0.436,0.092,0.906,0.217,1.343,0.631c0.242,0.321,0.437,0.486,0.776,0.486c0.339,0,0.339-0.046,0.339-0.321
				c-0.097-0.276-0.339-0.553-0.728-0.921c-0.388-0.275-1.018-0.506-1.6-0.689c-0.582-0.046-1.213-0.185-1.552,0.184
				c-0.049,0.23,0.049,0.414,0.049,0.414L795.231,602.632z"/>
		</g>
		<path id="path583" fill="#FFFFFF" fill-opacity="0.3481" d="M795.813,601.62c-0.242-1.013,8.683-10.629,10.282-11.917
			c1.601-1.288-9.362,10.126-9.362,11.921C796.637,601.716,795.765,601.666,795.813,601.62z"/>
		<path id="path584" fill="#FFFFFF" d="M791.472,610.927c0,0,0.851-0.428,0.705-1.486c-0.146-1.058-0.146-1.334,0.146-2.023
			c0.437-0.599,0.872-0.967,1.018-0.874c0.389,0.321-0.242,0.414-0.532,1.149c-0.291,0.736-0.098,1.196-0.291,2.024
			C792.274,610.591,791.472,610.973,791.472,610.927z"/>
		<path id="path852" fill="#FFFFFF" fill-opacity="0.25" d="M791.888,591.895c-0.951-0.902-3.234,0.903-1.475,2.121
			C791.936,593.881,789.415,592.166,791.888,591.895z"/>
		<path id="path853" fill="#FFFFFF" fill-opacity="0.25" d="M809.026,600.254c-0.951-0.903-3.234,0.902-1.475,2.121
			C809.074,602.239,806.554,600.524,809.026,600.254z"/>
		<path id="path854" fill="#FFFFFF" fill-opacity="0.25" d="M806.601,607.565c-0.951-0.903-3.234,0.902-1.475,2.121
			C806.648,609.551,804.127,607.836,806.601,607.565z"/>
		<path id="path856" fill="#FFFFFF" fill-opacity="0.25" d="M799.133,590.73c-0.951-0.902-3.234,0.902-1.475,2.121
			C799.181,592.716,796.659,591.001,799.133,590.73z"/>
	</g>
</g>
</svg>
