<?xml version="1.0" encoding="utf-8"?>
<!-- Generator: Adobe Illustrator 16.0.3, SVG Export Plug-In . SVG Version: 6.00 Build 0)  -->
<!DOCTYPE svg PUBLIC "-//W3C//DTD SVG 1.1//EN" "http://www.w3.org/Graphics/SVG/1.1/DTD/svg11.dtd">
<svg version="1.1" id="Layer_2" xmlns="http://www.w3.org/2000/svg" xmlns:xlink="http://www.w3.org/1999/xlink" x="0px" y="0px"
	 width="14px" height="14px" viewBox="0 0 64 64" enable-background="new 0 0 64 64" xml:space="preserve">
<path fill="#614875" stroke="#403151" stroke-width="2" stroke-miterlimit="10" d="M44.18,63c-0.438,0-0.872,0-1.313,0
	c-0.635-0.108-1.274-0.313-1.909-0.311c-7.117,0.032-14.058-1.348-21-2.718c-0.756-0.152-1.186-0.401-1.184-1.271
	c0.016-7.625,0-15.25,0.042-22.874c0.001-0.344,0.422-0.934,0.719-0.986c1.63-0.286,2.921-1.181,3.706-2.549
	c1.81-3.153,3.586-6.344,5.092-9.653c1.004-2.206,2.092-4.194,4.063-5.623c2.045-1.484,3.354-3.564,3.897-6.038
	c0.524-2.394,0.816-4.841,1.167-7.272c0.146-1.014,0.131-2.07,1.211-2.612c0.176,0,0.352,0,0.527,0
	c0.311,0.137,0.613,0.313,0.938,0.407c2.805,0.814,4.403,2.704,4.969,5.628c0.63,3.26,0.041,6.28-1.306,9.258
	c-1.101,2.423-2.106,4.905-2.927,7.439c-0.514,1.585,0.061,2.116,1.652,2.144c4.323,0.075,8.645,0.178,12.966,0.247
	c1.398,0.02,2.643,0.465,3.428,1.633c0.958,1.419,1.729,2.971,2.579,4.467c0,0.087,0,0.179,0,0.267
	c-0.38,0.54-0.76,1.081-1.138,1.62c-1.354,1.925-1.371,2.251-0.222,4.201c1.413,2.398,1.475,2.454-0.368,4.647
	c-1.063,1.265-1.303,2.529-0.564,3.935c1.148,2.19,0.683,3.926-1.175,5.414c-1.23,0.984-1.764,2.303-1.573,3.908
	c0.151,1.262-0.386,2.219-1.176,3.142c-1.82,2.123-4.115,3.069-6.821,3.185C47.03,62.697,45.606,62.876,44.18,63z"/>
<path fill="#614875" stroke="#403151" stroke-width="2" stroke-miterlimit="10" d="M16.081,56.407c0,3.111-2.508,5.634-5.601,5.634
	l0,0c-3.094,0-5.602-2.522-5.602-5.634V38.524c0-3.111,2.508-5.634,5.602-5.634l0,0c3.093,0,5.601,2.522,5.601,5.634V56.407z"/>
</svg>
