<?xml version="1.0" encoding="utf-8"?>
<!-- Generator: Adobe Illustrator 16.0.3, SVG Export Plug-In . SVG Version: 6.00 Build 0)  -->
<!DOCTYPE svg PUBLIC "-//W3C//DTD SVG 1.1//EN" "http://www.w3.org/Graphics/SVG/1.1/DTD/svg11.dtd">
<svg version="1.1" xmlns="http://www.w3.org/2000/svg" xmlns:xlink="http://www.w3.org/1999/xlink" x="0px" y="0px" width="14px"
	 height="14px" viewBox="0 0 62 62" enable-background="new 0 0 62 62" xml:space="preserve">
<g id="Layer_1">
	<radialGradient id="SVGID_1_" cx="30.7813" cy="25.0811" r="38.6099" fx="28.1584" fy="18.7901" gradientUnits="userSpaceOnUse">
		<stop  offset="0.0545" style="stop-color:#E3CC9F"/>
		<stop  offset="0.0956" style="stop-color:#E3C99A"/>
		<stop  offset="0.3804" style="stop-color:#E1B579"/>
		<stop  offset="0.5363" style="stop-color:#E0AE6C"/>
		<stop  offset="0.6797" style="stop-color:#DFA967"/>
		<stop  offset="1" style="stop-color:#DEA261"/>
	</radialGradient>
	<circle fill="url(#SVGID_1_)" stroke="#614875" stroke-width="2" stroke-miterlimit="10" cx="31" cy="31" r="30"/>
</g>
<g id="Layer_2" display="none">
	<radialGradient id="SVGID_2_" cx="31.2227" cy="45.2354" r="16.0566" gradientUnits="userSpaceOnUse">
		<stop  offset="0.0545" style="stop-color:#755096"/>
		<stop  offset="0.1965" style="stop-color:#755096"/>
		<stop  offset="0.4188" style="stop-color:#755096"/>
		<stop  offset="0.4951" style="stop-color:#714E8F"/>
		<stop  offset="0.7624" style="stop-color:#654A7C"/>
		<stop  offset="0.947" style="stop-color:#614875"/>
	</radialGradient>
	<path display="inline" fill="url(#SVGID_2_)" stroke="#403151" stroke-miterlimit="10" d="M52.445,39.71C45,47,38,55,27,53
		c-8-2-13-8-17-14C24,42,39,33,52.445,39.71L52.445,39.71z"/>
</g>
<g id="Layer_23">
	<path fill="#BA7BAA" d="M51.802,43.254c-0.282-0.294-0.585-0.562-0.902-0.817c-1.393-1.055-2.785-2.175-3.502-3.818
		c-0.215-0.491-0.395-0.963-0.515-1.436c-0.142-0.016-0.284-0.031-0.432-0.032c-1.233-0.01-2.363,1.297-1.929,2.531
		c0.015,0.043,0.037,0.079,0.053,0.121c-0.629,0.107-1.211,0.475-1.484,1.107c-1.153-0.445-2.178,0.488-2.392,1.605
		c-0.891-0.226-1.798,0.256-2.259,0.979c-0.354-0.244-0.757-0.337-1.154-0.323c0.101,0.243,0.184,0.495,0.234,0.763
		c0.215,1.142,0.301,2.238,0.322,3.39c0.002,0.124,0.023,0.291,0.048,0.446c0.314,0.717,0.438,1.479,0.42,2.228
		c2.011,2.527,4.431,4.771,7.471,5.627c3.133,0.882,7.438,0.358,8.627-3.124c0.649-1.898,0.176-4.214-0.554-6.332
		C52.783,45.505,52.098,44.437,51.802,43.254z"/>
</g>
<g id="Layer_5" display="none">
	<path display="inline" fill="none" stroke="#403151" stroke-width="4" stroke-miterlimit="10" d="M13.805,38.13
		c5.513,9.27,20.949,10.243,34.513,2.177"/>
</g>
<g id="Layer_22">
</g>
<g id="Layer_20">
	<path fill="#403151" d="M47.531,34.863c-0.703-1.184-2.567-0.111-1.86,1.077c2.688,4.519,6.199,8.542,7.923,13.582
		c1.407,4.112-1.291,6.104-5.406,5.503c-5.161-0.756-10.133-6.1-10.754-11.11c-0.167-1.347-2.324-1.364-2.153,0
		c0.66,5.341,4.379,9.466,9.033,11.991c2.947,1.601,8.791,2.464,10.99-0.917C59.296,48.85,50.442,39.76,47.531,34.863z"/>
</g>
<g id="Layer_5_copy_4">
	<path fill="none" stroke="#403151" stroke-width="4" stroke-miterlimit="10" d="M47.318,36.13
		c-5.514,9.27-20.949,10.243-34.514,2.177"/>
</g>
<g id="Layer_21">
</g>
<g id="Layer_5_copy" display="none">
	<path display="inline" fill="none" stroke="#403151" stroke-width="4" stroke-miterlimit="10" d="M48.318,48.772
		c-5.514-9.27-20.949-10.243-34.514-2.177"/>
</g>
<g id="Layer_3" display="none">
	<path display="inline" fill="#614875" stroke="#403151" stroke-miterlimit="10" d="M27.229,28.594
		c0.188-0.873,0.313-1.785,0.313-2.752c0-5.235-2.829-9.479-6.319-9.479c-3.49,0-6.319,4.244-6.319,9.479
		c0,1.129,0.156,2.193,0.405,3.191c0.111,0.063,0.216,0.131,0.319,0.202c0.1-0.021,0.2-0.042,0.301-0.063
		c0.06-0.039,0.118-0.08,0.181-0.116c0.121-0.19,0.254-0.371,0.399-0.544c0-0.001,0.001-0.002,0.002-0.003
		c0.044-0.054,0.076-0.116,0.123-0.168c0.159-0.414,0.348-0.813,0.612-1.163c0.785-1.19,2.111-2.028,3.978-2.028
		c1.866,0,3.192,0.838,3.977,2.027c0.233,0.31,0.41,0.656,0.563,1.015c0.11,0.142,0.213,0.288,0.306,0.442
		c0.104,0.097,0.21,0.192,0.301,0.301c0.134,0.069,0.271,0.131,0.401,0.209c0.023-0.002,0.047-0.002,0.071-0.004
		c0.087-0.043,0.174-0.084,0.261-0.127C27.14,28.873,27.182,28.732,27.229,28.594z"/>
</g>
<g id="Layer_3_copy" display="none">
	<path display="inline" fill="#614875" stroke="#403151" stroke-miterlimit="10" d="M47.23,28.594
		c0.186-0.873,0.313-1.785,0.313-2.752c0-5.235-2.83-9.479-6.32-9.479s-6.319,4.244-6.319,9.479c0,1.129,0.156,2.193,0.405,3.191
		c0.111,0.063,0.217,0.131,0.319,0.202c0.101-0.021,0.2-0.042,0.301-0.063c0.06-0.039,0.118-0.08,0.181-0.116
		c0.121-0.19,0.254-0.371,0.398-0.544c0.001-0.001,0.002-0.002,0.002-0.003c0.045-0.054,0.076-0.116,0.123-0.168
		c0.159-0.414,0.348-0.813,0.613-1.163c0.785-1.19,2.11-2.028,3.977-2.028c1.867,0,3.191,0.838,3.977,2.027
		c0.234,0.31,0.411,0.656,0.563,1.015c0.11,0.142,0.212,0.288,0.306,0.442c0.104,0.097,0.21,0.192,0.301,0.301
		c0.134,0.069,0.271,0.131,0.401,0.209c0.023-0.002,0.048-0.002,0.071-0.004c0.086-0.043,0.174-0.084,0.261-0.127
		C47.14,28.873,47.182,28.732,47.23,28.594z"/>
</g>
<g id="Layer_7">
	<path fill="#614875" stroke="#403151" stroke-miterlimit="10" d="M26.913,25.667c0.433,2.166-0.972,4.273-3.138,4.707l0,0
		c-2.166,0.433-4.273-0.972-4.707-3.138l-0.98-4.903c-0.433-2.166,0.972-4.273,3.138-4.707l0,0c2.166-0.433,4.273,0.972,4.707,3.138
		L26.913,25.667z"/>
</g>
<g id="Layer_7_copy">
	<path fill="#614875" stroke="#403151" stroke-miterlimit="10" d="M43.036,27.121c-0.361,2.179-2.422,3.653-4.601,3.291l0,0
		c-2.18-0.362-3.652-2.422-3.291-4.601l0.819-4.932c0.361-2.179,2.422-3.653,4.601-3.291l0,0c2.18,0.362,3.652,2.422,3.291,4.601
		L43.036,27.121z"/>
</g>
<g id="Layer_7_copy_3" display="none">
	<path display="inline" fill="#614875" stroke="#403151" stroke-miterlimit="10" d="M26.502,26.496
		c0.002,2.209-1.787,4.002-3.996,4.004l0,0c-2.209,0.002-4.001-1.787-4.004-3.996l-0.005-5c-0.002-2.209,1.787-4.002,3.996-4.004
		l0,0c2.209-0.002,4.001,1.787,4.004,3.996L26.502,26.496z"/>
</g>
<g id="Layer_7_copy_2" display="none">
	<path display="inline" fill="#614875" stroke="#403151" stroke-miterlimit="10" d="M43.494,26.508
		c-0.004,2.209-1.799,3.997-4.007,3.992l0,0c-2.21-0.004-3.996-1.799-3.992-4.008l0.01-5c0.005-2.209,1.799-3.997,4.008-3.992l0,0
		c2.21,0.004,3.996,1.799,3.992,4.008L43.494,26.508z"/>
</g>
<g id="Layer_7_copy_5" display="none">
	<path display="inline" fill="#614875" stroke="#403151" stroke-miterlimit="10" d="M44.46,25.724
		c-0.003,1.526-2.236,2.759-4.986,2.753l0,0c-2.753-0.005-4.979-1.247-4.977-2.773l0.006-3.454c0.004-1.526,2.236-2.759,4.988-2.753
		l0,0c2.752,0.005,4.979,1.247,4.976,2.773L44.46,25.724z"/>
</g>
<g id="Layer_7_copy_6" display="none">
	<path display="inline" fill="#614875" stroke="#403151" stroke-miterlimit="10" d="M45.463,25.015
		c-0.002,0.833-2.705,1.503-6.036,1.497l0,0c-3.334-0.006-6.033-0.687-6.031-1.521l0.002-1.886c0.002-0.833,2.705-1.504,6.039-1.498
		l0,0c3.333,0.006,6.03,0.688,6.029,1.522L45.463,25.015z"/>
</g>
<g id="Layer_7_copy_4" display="none">
	<path display="inline" fill="#614875" stroke="#403151" stroke-miterlimit="10" d="M46.321,24.663
		c0.001,0.281-3.07,0.503-6.909,0.496l0,0c-3.841-0.008-6.912-0.242-6.912-0.523v-0.637c0-0.281,3.074-0.503,6.914-0.496l0,0
		c3.84,0.007,6.932,0.242,6.93,0.523L46.321,24.663z"/>
</g>
<g id="Layer_14" display="none">
	
		<line display="inline" fill="none" stroke="#403151" stroke-width="3" stroke-miterlimit="10" x1="14.36" y1="36.74" x2="45.639" y2="47.637"/>
</g>
<g id="Layer_15" display="none">
	<linearGradient id="SVGID_3_" gradientUnits="userSpaceOnUse" x1="23.1475" y1="43.9277" x2="39.1123" y2="43.9277">
		<stop  offset="0" style="stop-color:#403151"/>
		<stop  offset="0.0406" style="stop-color:#463658"/>
		<stop  offset="0.1655" style="stop-color:#554068"/>
		<stop  offset="0.3052" style="stop-color:#5E4672"/>
		<stop  offset="0.4888" style="stop-color:#614875"/>
		<stop  offset="0.684" style="stop-color:#5E4672"/>
		<stop  offset="0.8278" style="stop-color:#564069"/>
		<stop  offset="0.9547" style="stop-color:#473659"/>
		<stop  offset="1" style="stop-color:#403151"/>
	</linearGradient>
	
		<ellipse display="inline" fill="url(#SVGID_3_)" stroke="#403151" stroke-width="2" stroke-miterlimit="10" cx="31.13" cy="43.926" rx="7.982" ry="6.995"/>
</g>
<g id="Layer_9" display="none">
	<g display="inline">
		<path fill="#8FB7DB" d="M19.68,28.894c-0.09-0.15-0.18-0.3-0.258-0.455c-4.239,8.629-19.332,24.773-9.286,29.921
			c11.347,5.332,10.143-22.367,9.397-28.833L19.68,28.894z"/>
		<g>
			<path fill="#403151" d="M20.975,28.137c-0.086-0.152-0.172-0.304-0.258-0.455c-0.536-0.944-2.072-1.008-2.591,0
				c-3.783,7.357-9.617,13.586-12.262,21.533c-1.804,5.419,1.217,11.793,7.606,11.272c5.445-0.442,6.805-8.021,7.41-12.194
				c0.528-3.643,0.625-7.337,0.59-11.012c-0.022-2.406-0.888-5.663-0.345-7.989c0.439-1.882-2.454-2.681-2.893-0.798
				c-0.813,3.485,0.274,7.996,0.236,11.598c-0.054,5.155-0.225,11.23-2.983,15.758c-1.632,2.68-5.005,1.721-6.617-0.491
				c-2.002-2.749,0.581-7.427,1.847-9.897c2.909-5.675,7.085-10.598,10-16.267c-0.864,0-1.727,0-2.591,0
				c0.086,0.152,0.172,0.304,0.258,0.455C19.339,31.333,21.931,29.821,20.975,28.137z"/>
		</g>
	</g>
</g>
<g id="Layer_5_copy_2" display="none">
	<path display="inline" fill="none" stroke="#403151" stroke-width="2" stroke-miterlimit="10" d="M27.003,12.821
		c-1.932-2.39-7.84-0.814-13.209,3.525"/>
</g>
<g id="Layer_5_copy_3" display="none">
	<path display="inline" fill="none" stroke="#403151" stroke-width="2" stroke-miterlimit="10" d="M34.795,12.821
		c1.933-2.39,7.841-0.814,13.209,3.525"/>
</g>
</svg>
