<?xml version="1.0" encoding="utf-8"?>
<!-- Generator: Adobe Illustrator 16.0.4, SVG Export Plug-In . SVG Version: 6.00 Build 0)  -->
<!DOCTYPE svg PUBLIC "-//W3C//DTD SVG 1.1//EN" "http://www.w3.org/Graphics/SVG/1.1/DTD/svg11.dtd">
<svg version="1.1" id="Layer_1" xmlns="http://www.w3.org/2000/svg" xmlns:xlink="http://www.w3.org/1999/xlink" x="0px" y="0px"
	 width="16px" height="16px" viewBox="0 0 16 16" enable-background="new 0 0 16 16" xml:space="preserve">
<path fill-rule="evenodd" clip-rule="evenodd" d="M15.038,2.929c-0.005-0.715-0.452-1.103-1.273-1.105
	c-0.28,0-1.329-0.001-2.688-0.001c0.001-0.304,0.003-0.069,0-0.633c-0.005-0.714-0.451-1.102-1.272-1.104
	c-0.943-0.003-2.635-0.005-3.587,0C5.47,0.09,5.019,0.491,5.017,1.143C5.014,1.728,5.015,1.473,5.016,1.822
	c-1.392,0-2.473,0.001-2.761,0.003c-0.746,0.004-1.197,0.405-1.2,1.057C1.053,3.563,1.054,4.244,1.056,4.925
	c0,0.083,0.011,0.166,0.021,0.28c0.285,0,0.547,0,0.841,0c0,0.32,0,0.631,0,0.937c0,0.309,0,0.614,0,0.917v3.683
	c-0.004,1.197-0.006,2.396-0.007,3.594c0,0.953,0.734,1.58,1.838,1.58c2.839,0.002,5.68,0.002,8.519,0.002
	c1.207,0,1.904-0.605,1.904-1.654c0-2.266,0-4.531,0-6.795c0-0.655-0.002-1.311,0-1.967c0.001-0.092,0.009-0.184,0.014-0.303
	c0.289,0,0.553,0,0.837,0c0.006-0.102,0.013-0.177,0.013-0.252C15.038,4.274,15.041,3.602,15.038,2.929z M7.312,1.079
	c0.953-0.005,0.44-0.003,1.383,0c0.67,0.002,1.09,0.261,1.224,0.743c-1.212,0-2.547,0-3.764,0C6.282,1.358,6.696,1.083,7.312,1.079z
	 M12.972,14.375c-0.003,0.305-0.198,0.475-0.55,0.5c-0.069,0.004-0.14,0.002-0.208,0.002c-2.769,0-5.537,0-8.306-0.002
	c-0.66,0-0.8-0.123-0.8-0.701c0-2.879,0-5.758,0-8.637c0-0.338,0.001-0.338,0.388-0.338c3.036-0.001,6.072-0.001,9.109-0.001
	c0.106,0,0.214,0,0.37,0c0,0.146-0.001,0.248,0.001,0.35c0.018,0.954,0.054,1.908,0.051,2.862
	C13.021,10.396,12.995,12.387,12.972,14.375z M13.801,4.138c-0.102,0.006-0.207,0.018-0.313,0.018
	c-3.594,0-7.188,0.002-10.782-0.001c-0.511,0-0.454,0.047-0.457-0.408c-0.001-0.275,0-0.551,0-0.859c3.869,0,7.698,0,11.552,0
	C13.801,3.294,13.801,3.703,13.801,4.138z"/>
<g>
	<path d="M5.337,13.965c-0.345,0-0.625-0.242-0.625-0.543V6.797c0-0.3,0.28-0.543,0.625-0.543s0.625,0.243,0.625,0.543v6.625
		C5.962,13.723,5.682,13.965,5.337,13.965z"/>
</g>
<g>
	<path d="M10.779,13.922c-0.345,0-0.625-0.242-0.625-0.543V6.754c0-0.3,0.28-0.543,0.625-0.543s0.625,0.243,0.625,0.543v6.625
		C11.404,13.68,11.124,13.922,10.779,13.922z"/>
</g>
<g>
	<path d="M8.059,13.965c-0.346,0-0.626-0.242-0.626-0.543V6.797c0-0.3,0.28-0.543,0.626-0.543c0.344,0,0.625,0.243,0.625,0.543
		v6.625C8.684,13.723,8.403,13.965,8.059,13.965z"/>
</g>
</svg>
