<?xml version="1.0" encoding="utf-8"?>
<!-- Generator: Adobe Illustrator 16.0.4, SVG Export Plug-In . SVG Version: 6.00 Build 0)  -->
<!DOCTYPE svg PUBLIC "-//W3C//DTD SVG 1.1//EN" "http://www.w3.org/Graphics/SVG/1.1/DTD/svg11.dtd">
<svg version="1.1" id="Layer_1" xmlns="http://www.w3.org/2000/svg" xmlns:xlink="http://www.w3.org/1999/xlink" x="0px" y="0px"
	 width="16px" height="16px" viewBox="0 0 16 16" enable-background="new 0 0 16 16" xml:space="preserve">
<path fill="#FFFFFF" d="M14.26,2.875H2.554c-0.51,0-0.685,0.34-0.389,0.755L6.57,9.816c0.296,0.415,0.538,1.172,0.538,1.683v3.864
	c0,0.511,0.319,0.659,0.71,0.331l0.914-0.769c0.39-0.328,0.727-1.014,0.748-1.523l0.074-1.748c0.021-0.481,0.255-1.174,0.53-1.601
	c0.426,0.276,0.932,0.44,1.478,0.44c1.51,0,2.734-1.225,2.734-2.734c0-0.875-0.419-1.646-1.06-2.146l1.412-1.983
	C14.945,3.215,14.771,2.875,14.26,2.875z M13.109,7.76c0,0.855-0.693,1.547-1.547,1.547c-0.292,0-0.562-0.086-0.795-0.227
	l1.782-2.501C12.889,6.862,13.109,7.283,13.109,7.76z"/>
<g>
	<path fill="#FFFFFF" d="M14.809,0.982c0-0.265-0.217-0.482-0.482-0.482H2.507c-0.265,0-0.482,0.217-0.482,0.482v0.702
		c0,0.265,0.217,0.482,0.482,0.482h11.819c0.266,0,0.482-0.217,0.482-0.482V0.982z"/>
</g>
</svg>
