<svg xmlns="http://www.w3.org/2000/svg" viewBox="0 0 32.3 32">
  <defs>
    <style>
      .cls-1 {
        fill: red;
      }
    </style>
  </defs>
  <path id="uncomplete" class="cls-1" d="M9.864,30.743a16.167,16.167,0,0,1-7.106-5.8,15.981,15.981,0,0,1-1.49-2.718,15.917,15.917,0,0,1,0-12.456,15.976,15.976,0,0,1,1.49-2.718,16.217,16.217,0,0,1,26.783,0,15.976,15.976,0,0,1,1.49,2.718,15.917,15.917,0,0,1,0,12.456,15.981,15.981,0,0,1-1.49,2.718,16.266,16.266,0,0,1-19.678,5.8Zm-8-14.665A14.287,14.287,0,1,0,16.15,1.864,14.266,14.266,0,0,0,1.863,16.078Zm9.429,7.907L9.456,22.55a.778.778,0,0,1-.134-1.09L13.5,16.105l-4.886-4.72a.777.777,0,0,1-.019-1.1L10.217,8.61a.776.776,0,0,1,1.1-.019l4.593,4.437L19.839,8a.776.776,0,0,1,1.09-.134L22.765,9.3a.778.778,0,0,1,.134,1.09l-4.183,5.355,4.886,4.72a.777.777,0,0,1,.019,1.1L22,23.236a.776.776,0,0,1-1.1.019l-4.593-4.437-3.932,5.033a.775.775,0,0,1-1.089.134Z"/>
</svg>
