<?xml version="1.0" encoding="utf-8"?>
<!-- Generator: Adobe Illustrator 22.1.0, SVG Export Plug-In . SVG Version: 6.00 Build 0)  -->
<svg version="1.1" id="Layer_1" xmlns="http://www.w3.org/2000/svg" xmlns:xlink="http://www.w3.org/1999/xlink" x="0px" y="0px"
	 viewBox="0 0 24 24" style="enable-background:new 0 0 24 24;" xml:space="preserve">
<style type="text/css">
	.st0{opacity:0.22;}
	.st1{filter:url(#Adobe_OpacityMaskFilter);}
	.st2{mask:url(#SVGID_1_);}
	.st3{fill:#FFFFFF;}
</style>
<g class="st0">
	<defs>
		<filter id="Adobe_OpacityMaskFilter" filterUnits="userSpaceOnUse" x="3.3" y="5.9" width="20.3" height="18.1">
			<feFlood  style="flood-color:white;flood-opacity:1" result="back"/>
			<feBlend  in="SourceGraphic" in2="back" mode="normal"/>
		</filter>
	</defs>
	<mask maskUnits="userSpaceOnUse" x="3.3" y="5.9" width="20.3" height="18.1" id="SVGID_1_">
		<g class="st1">
			<image style="overflow:visible;" width="25" height="23" xlink:href="9F71F152.jpg"  transform="matrix(1 0 0 1 1 3)">
			</image>
		</g>
	</mask>
	<g class="st2">
		<g>
			<path id="Play_10_" d="M14.9,22.8c0,1.1-0.8,1.5-1.7,1L4,18.4c-0.9-0.5-0.9-1.4,0-1.9l9.2-5.3c0.9-0.5,1.7-0.1,1.7,1V22.8z"/>
			<path d="M23.6,16.3L23.6,16.3c0-0.1,0-0.5,0-1.1V7.6c0-0.9-0.8-1.7-1.7-1.7h-0.1c-0.9,0-1.7,0.8-1.7,1.7v7.6
				c0,0.3-0.3,0.6-0.6,0.6h-7.6c-0.9,0-1.7,0.8-1.7,1.7v0.1c0,0.9,0.8,1.7,1.7,1.7h10c0.9,0,1.7-0.8,1.7-1.7v-0.1
				C23.6,16.9,23.6,16.5,23.6,16.3z"/>
		</g>
	</g>
</g>
<g>
	<path id="Play" class="st3" d="M13.5,19.6c0,1.1-0.8,1.5-1.7,1l-9.2-5.3c-0.9-0.5-0.9-1.4,0-1.9L11.8,8c0.9-0.5,1.7-0.1,1.7,1V19.6
		z"/>
	<path class="st3" d="M22.1,13.1L22.1,13.1c0-0.1,0-0.5,0-1.1V4.4c0-0.9-0.8-1.7-1.7-1.7h-0.1c-0.9,0-1.7,0.8-1.7,1.7V12
		c0,0.3-0.3,0.6-0.6,0.6h-7.6c-0.9,0-1.7,0.8-1.7,1.7v0.1c0,0.9,0.8,1.7,1.7,1.7h10c0.9,0,1.7-0.8,1.7-1.7v-0.1
		C22.2,13.7,22.2,13.4,22.1,13.1z"/>
</g>
</svg>
