<?xml version="1.0" standalone="no"?>
<!DOCTYPE svg PUBLIC "-//W3C//DTD SVG 20010904//EN"
 "http://www.w3.org/TR/2001/REC-SVG-20010904/DTD/svg10.dtd">
<svg version="1.0" xmlns="http://www.w3.org/2000/svg"
 width="960.000000pt" height="602.000000pt" viewBox="0 0 960.000000 602.000000"
 preserveAspectRatio="xMidYMid meet">
<metadata>
Created by potrace 1.13, written by Peter Selinger 2001-2015
</metadata>
<g transform="translate(0.000000,602.000000) scale(0.100000,-0.100000)"
fill="#000000" stroke="none">
<path d="M0 5876 l0 -144 700 -439 c385 -241 702 -443 704 -450 3 -7 0 -15 -6
-19 -7 -4 -8 -3 -4 4 15 25 -12 11 -40 -20 l-29 -33 30 25 30 25 -25 -28 c-13
-15 -29 -26 -36 -23 -6 2 -31 -14 -56 -37 -24 -23 -33 -33 -19 -22 l26 20 -25
-28 c-13 -15 -29 -26 -36 -23 -6 2 -29 -14 -50 -37 l-39 -42 45 40 45 40 -40
-43 c-22 -23 -45 -40 -51 -38 -16 6 -270 -239 -414 -399 -111 -123 -144 -166
-104 -135 12 9 10 4 -5 -13 -27 -30 -41 -37 -20 -9 7 9 1 6 -14 -7 -30 -27
-38 -52 -9 -30 14 11 13 9 -2 -9 -11 -12 -21 -20 -24 -17 -7 6 -32 -15 -32
-27 0 -5 6 -6 13 -2 6 4 3 -2 -7 -14 -23 -26 -34 -29 -15 -4 7 9 1 6 -14 -7
-30 -27 -38 -52 -10 -30 16 13 17 12 4 -4 -8 -9 -16 -15 -19 -12 -7 7 -32 -15
-32 -27 0 -6 8 -4 18 3 15 13 16 12 3 -4 -8 -9 -16 -15 -19 -12 -7 7 -32 -15
-32 -27 0 -6 8 -4 17 3 16 13 17 12 4 -4 -8 -9 -16 -15 -19 -12 -7 7 -32 -15
-32 -27 0 -6 8 -4 18 3 15 11 15 11 4 -1 -7 -8 -18 -15 -24 -15 -6 0 -13 -6
-16 -14 -3 -9 0 -11 8 -6 9 6 11 4 6 -4 -5 -7 -11 -10 -14 -7 -7 7 -32 -13
-32 -26 0 -6 8 -4 17 3 16 13 17 12 5 -3 -8 -10 -19 -16 -24 -15 -6 1 -13 -4
-16 -12 -3 -9 0 -11 9 -6 8 5 11 4 6 -1 -5 -5 -14 -9 -20 -9 -5 0 -12 -6 -15
-14 -3 -9 0 -11 8 -6 9 5 11 4 6 -4 -4 -6 -11 -9 -16 -6 -5 3 -16 -5 -24 -17
-19 -27 -21 -42 -4 -32 8 4 10 3 5 -2 -5 -5 -14 -9 -20 -9 -5 0 -12 -6 -15
-14 -3 -9 0 -11 9 -6 8 5 11 4 6 -1 -5 -5 -14 -9 -20 -9 -5 0 -12 -6 -15 -14
-3 -9 0 -11 9 -6 8 5 11 4 6 -1 -5 -5 -14 -9 -20 -9 -5 0 -12 -6 -15 -14 -3
-9 0 -11 8 -6 9 5 11 4 6 -4 -4 -6 -11 -9 -16 -6 -5 3 -14 -3 -19 -14 -14 -26
-14 -34 1 -25 7 4 8 3 4 -5 -4 -6 -11 -9 -16 -6 -5 3 -14 -3 -19 -14 -14 -26
-14 -34 1 -25 7 4 8 3 4 -5 -4 -6 -11 -9 -16 -6 -5 3 -14 -3 -19 -14 -14 -26
-14 -34 1 -25 7 4 8 3 4 -5 -4 -6 -11 -9 -16 -6 -5 3 -16 -8 -25 -24 -18 -36
-19 -45 -3 -35 7 4 8 3 4 -5 -4 -6 -11 -9 -16 -6 -5 3 -16 -7 -24 -22 -18 -36
-23 -322 -5 -354 8 -15 8 -19 0 -15 -16 10 -14 1 14 -55 16 -30 30 -47 37 -43
7 4 8 3 4 -4 -9 -14 62 -144 74 -137 5 3 12 0 16 -6 4 -8 3 -9 -4 -5 -15 9
-15 1 -1 -25 5 -11 14 -17 19 -14 5 3 12 0 16 -6 5 -8 3 -9 -6 -4 -8 5 -11 3
-8 -6 3 -8 10 -14 16 -14 5 0 14 -4 19 -9 5 -5 3 -6 -4 -2 -16 9 -16 1 -2 -25
5 -11 14 -17 19 -14 5 3 12 0 16 -6 5 -8 3 -9 -6 -4 -8 5 -11 3 -8 -6 3 -8 10
-14 16 -14 5 0 14 -4 19 -9 5 -5 2 -6 -6 -1 -9 5 -12 3 -9 -6 3 -8 10 -14 16
-14 5 0 14 -4 19 -9 5 -5 2 -6 -6 -1 -9 5 -12 3 -9 -6 3 -8 10 -14 16 -14 5 0
14 -4 19 -9 5 -5 2 -6 -6 -1 -9 5 -12 3 -9 -6 3 -8 10 -14 16 -14 5 0 14 -4
19 -9 5 -5 2 -6 -6 -1 -9 5 -12 3 -9 -6 3 -8 10 -14 16 -14 5 0 14 -4 19 -9 5
-5 2 -6 -6 -1 -9 5 -12 3 -9 -6 3 -8 10 -14 16 -14 5 0 14 -4 19 -9 5 -5 3 -6
-4 -2 -19 11 -16 -9 4 -25 15 -12 16 -12 8 1 -8 13 -7 13 8 1 19 -15 23 -26 6
-15 -7 4 -10 1 -7 -7 3 -8 10 -13 16 -12 5 1 16 -5 24 -15 12 -15 11 -16 -4
-3 -10 7 -18 9 -18 3 0 -12 25 -34 32 -27 3 3 11 -3 19 -12 13 -16 12 -17 -3
-4 -10 7 -18 9 -18 3 0 -12 25 -34 32 -27 3 3 11 -3 19 -12 13 -16 12 -17 -3
-4 -26 20 -22 -2 4 -25 13 -12 18 -13 13 -4 -8 13 -7 13 8 1 18 -15 23 -26 7
-16 -5 3 -10 2 -10 -3 0 -12 25 -33 32 -27 3 3 11 -2 19 -12 9 -11 10 -14 2
-9 -19 11 -16 -9 4 -25 15 -12 16 -12 8 1 -5 9 0 8 13 -4 25 -21 31 -36 7 -16
-37 30 -8 -10 77 -108 196 -226 572 -591 602 -584 7 1 25 -13 42 -30 l29 -33
-31 25 c-17 14 -8 4 19 -22 27 -25 55 -44 61 -42 7 3 21 -6 32 -18 l19 -23
-25 20 -25 20 18 -22 c11 -12 24 -19 31 -17 7 3 19 -3 27 -13 13 -17 13 -17
-6 -3 -18 14 -19 14 -7 -2 8 -9 19 -15 26 -12 7 3 21 -6 32 -18 l19 -23 -25
20 -25 20 18 -22 c11 -12 24 -19 31 -17 7 3 19 -3 27 -13 13 -17 13 -17 -6 -3
-18 14 -19 14 -7 -2 8 -9 19 -15 25 -12 7 2 23 -6 37 -18 14 -13 19 -18 10
-13 -13 9 -13 8 -2 -7 8 -9 19 -15 26 -12 7 3 19 -3 27 -13 13 -17 13 -17 -6
-3 -18 14 -19 14 -7 -2 8 -9 19 -15 27 -12 7 3 16 0 21 -7 5 -8 3 -10 -6 -4
-8 5 -11 4 -6 -3 4 -6 13 -9 20 -6 8 3 17 0 22 -7 5 -8 3 -10 -6 -4 -8 5 -11
4 -6 -3 4 -6 13 -9 20 -6 8 3 17 0 22 -7 5 -8 3 -10 -6 -4 -8 5 -11 4 -6 -3 4
-6 12 -9 19 -7 7 3 23 -5 37 -17 14 -13 19 -18 11 -13 -11 7 -13 7 -7 -2 4 -7
16 -18 28 -24 16 -8 19 -8 13 1 -6 9 -2 9 14 1 11 -7 21 -14 21 -17 0 -3 -5
-2 -12 2 -7 4 -8 3 -4 -4 4 -6 12 -9 19 -7 7 3 23 -5 37 -16 14 -11 19 -18 13
-14 -7 3 -13 4 -13 1 0 -3 10 -10 21 -17 16 -8 20 -8 14 1 -6 9 -2 9 14 1 11
-7 21 -14 21 -17 0 -3 -5 -2 -12 2 -7 4 -8 3 -4 -4 4 -6 12 -9 19 -6 7 2 21
-3 32 -12 11 -8 14 -12 6 -8 -9 4 -12 3 -7 -4 4 -6 12 -9 19 -6 7 2 21 -3 32
-12 11 -8 14 -12 6 -8 -9 4 -12 3 -7 -4 4 -6 12 -9 19 -6 7 2 21 -3 32 -12 11
-8 14 -12 6 -8 -9 4 -12 3 -7 -4 4 -6 14 -8 23 -5 11 4 14 3 9 -5 -5 -8 -1
-10 10 -5 12 4 15 3 10 -5 -5 -8 -1 -10 10 -5 12 4 15 3 10 -5 -4 -7 -2 -10 6
-7 8 3 22 -2 33 -11 11 -8 14 -12 6 -8 -9 4 -12 3 -7 -4 4 -6 14 -8 23 -5 11
4 14 3 9 -5 -5 -8 -1 -10 10 -5 12 4 15 3 10 -5 -5 -8 -1 -10 10 -5 12 4 15 3
10 -5 -5 -8 -1 -10 10 -5 12 4 15 3 10 -5 -5 -8 -1 -10 10 -5 12 4 15 3 10 -5
-5 -8 -1 -10 10 -5 12 4 15 3 10 -5 -5 -8 -1 -10 10 -5 12 4 15 3 10 -5 -5 -8
-1 -10 10 -5 12 4 15 3 10 -5 -5 -8 -1 -10 10 -5 12 4 15 3 10 -5 -5 -8 -1
-10 10 -5 12 4 15 3 10 -5 -5 -8 -1 -10 10 -5 12 4 15 3 10 -5 -5 -8 -1 -10
10 -5 12 4 15 3 10 -5 -5 -8 -1 -10 10 -5 12 4 15 3 10 -5 -5 -8 -1 -10 10 -5
12 4 15 3 10 -5 -5 -8 -1 -10 10 -5 12 4 15 3 10 -5 -5 -8 -1 -10 10 -5 12 4
15 3 10 -5 -5 -8 -1 -10 10 -5 13 5 15 3 9 -7 -5 -9 -4 -11 4 -6 15 9 53 -3
46 -15 -3 -5 2 -6 11 -2 12 4 15 3 10 -5 -5 -8 -1 -10 10 -5 13 5 15 3 9 -7
-5 -9 -4 -11 4 -6 15 9 53 -3 46 -15 -3 -5 2 -6 11 -2 11 4 15 3 11 -4 -5 -7
1 -9 15 -5 14 3 19 1 14 -6 -5 -8 -1 -10 10 -5 13 5 15 3 9 -7 -5 -9 -4 -11 4
-6 14 9 53 -2 46 -14 -3 -4 5 -6 17 -2 14 3 19 1 14 -6 -5 -8 -1 -10 10 -5 11
4 15 3 11 -4 -5 -7 1 -9 15 -5 14 3 19 1 14 -6 -5 -8 -1 -10 10 -5 11 4 15 3
11 -4 -5 -7 1 -9 15 -5 13 3 19 1 15 -5 -5 -7 1 -9 15 -5 13 3 19 1 15 -5 -5
-7 1 -9 15 -5 16 4 19 2 13 -8 -5 -9 -4 -11 4 -6 14 9 53 -2 46 -14 -3 -4 5
-6 17 -2 13 3 19 1 15 -5 -5 -7 1 -9 15 -5 13 3 19 1 15 -5 -5 -7 1 -9 15 -5
13 3 19 1 15 -5 -5 -7 1 -9 15 -5 16 4 19 2 13 -8 -5 -9 -4 -11 4 -6 15 9 73
-3 66 -14 -3 -4 5 -6 17 -2 13 3 19 1 15 -5 -5 -7 1 -9 15 -5 13 3 19 1 15 -5
-4 -6 4 -8 20 -5 19 4 24 2 18 -8 -5 -9 -4 -11 4 -6 14 9 73 -3 66 -13 -2 -5
7 -6 22 -3 19 4 24 2 18 -8 -5 -9 -4 -11 4 -6 14 9 122 -14 116 -24 -2 -4 7
-5 22 -2 16 3 24 1 20 -5 -4 -6 4 -8 20 -5 15 3 24 1 20 -5 -4 -5 7 -8 25 -5
18 3 28 1 25 -5 -4 -5 7 -8 25 -5 18 3 28 1 25 -5 -4 -5 7 -8 25 -5 18 3 28 1
25 -5 -4 -5 7 -8 25 -5 17 3 28 1 25 -5 -3 -5 10 -7 30 -5 20 3 33 1 30 -5 -3
-5 10 -7 30 -5 27 4 34 1 28 -8 -5 -9 -4 -11 4 -6 14 9 222 -14 217 -23 -5 -7
3 -7 480 -16 311 -6 385 -5 545 11 101 10 205 19 231 19 25 0 44 4 41 9 -3 4
13 7 35 4 22 -2 38 1 35 6 -3 4 10 7 30 4 20 -2 33 0 30 5 -3 6 10 8 30 5 20
-2 33 0 30 5 -3 6 8 8 25 5 18 -3 29 0 25 5 -3 6 7 8 25 5 18 -3 29 0 25 5 -3
6 7 8 25 5 18 -3 29 0 25 5 -3 6 7 8 25 5 18 -3 29 0 25 5 -4 6 5 8 20 5 15
-3 24 -2 22 3 -7 10 71 22 86 13 8 -5 9 -3 4 6 -6 10 -1 12 18 8 16 -3 24 -1
20 5 -4 6 4 8 20 5 15 -3 24 -2 22 3 -7 10 52 22 66 13 8 -5 9 -3 4 6 -6 10
-1 12 18 8 16 -3 24 -1 20 5 -4 6 2 8 15 5 14 -4 20 -2 16 4 -5 7 2 9 19 6 16
-3 24 -1 20 5 -4 6 2 8 15 5 14 -4 20 -2 15 5 -4 6 2 8 15 5 14 -4 20 -2 15 5
-4 6 2 8 15 5 14 -4 20 -2 16 4 -5 7 2 9 19 6 16 -3 24 -1 20 5 -4 6 2 8 15 5
14 -4 20 -2 15 5 -4 6 2 8 15 5 12 -4 20 -2 17 2 -7 12 32 23 46 14 8 -5 9 -3
4 6 -6 10 -3 12 13 8 14 -4 20 -2 15 5 -4 6 2 8 15 5 14 -4 20 -2 15 5 -4 6 2
8 15 5 14 -4 20 -2 15 5 -4 7 0 8 11 4 11 -5 15 -3 10 5 -5 7 0 9 14 6 14 -4
20 -2 15 5 -4 6 2 8 15 5 14 -4 20 -2 15 5 -4 7 0 8 11 4 11 -5 15 -3 10 5 -5
7 0 9 14 6 14 -4 20 -2 15 5 -4 7 0 8 11 4 11 -5 15 -3 10 5 -5 7 0 9 14 6 14
-4 20 -2 15 5 -4 7 0 8 11 4 11 -5 15 -3 10 5 -5 7 0 9 14 6 14 -4 20 -2 15 5
-4 7 0 8 11 4 9 -4 14 -3 11 2 -7 12 31 24 46 15 8 -5 9 -3 4 6 -6 10 -4 12 9
7 11 -5 15 -3 10 5 -5 8 -2 9 10 5 9 -4 14 -3 11 2 -7 12 31 24 46 15 8 -5 9
-3 4 6 -6 10 -4 12 9 7 11 -5 15 -3 10 5 -5 8 -2 9 10 5 11 -5 15 -3 10 5 -5
8 -2 9 10 5 11 -5 15 -3 10 5 -5 8 -2 9 10 5 9 -4 15 -3 12 1 -7 11 143 84
156 76 7 -5 8 -2 3 6 -6 10 -4 12 9 7 11 -5 15 -3 10 5 -5 8 -2 9 10 5 11 -5
15 -3 10 5 -5 8 -2 9 10 5 11 -5 15 -3 10 5 -5 8 -2 9 10 5 11 -5 15 -3 10 5
-5 8 -2 9 10 5 11 -5 15 -3 10 5 -5 8 -2 9 9 5 10 -4 16 -2 14 6 -1 7 6 11 15
11 10 -1 15 3 11 9 -4 6 0 8 11 4 11 -5 15 -3 10 5 -5 8 -2 9 10 5 11 -5 15
-3 10 5 -5 8 -2 9 9 5 9 -3 19 -1 23 5 5 7 2 8 -7 4 -8 -4 -5 0 6 8 11 9 25
14 33 11 8 -3 10 0 6 7 -5 8 -2 9 9 5 9 -3 19 -1 23 5 5 7 2 8 -7 4 -8 -4 -5
0 6 8 11 9 25 14 32 12 7 -3 15 0 19 6 5 7 2 8 -7 4 -8 -4 -5 0 6 8 11 9 25
14 32 12 7 -3 15 0 19 6 5 7 2 8 -6 3 -9 -6 -11 -4 -6 4 5 7 14 10 22 7 7 -3
16 0 20 6 5 7 2 8 -7 4 -8 -4 -5 0 6 8 11 9 25 14 32 12 7 -3 15 0 19 6 5 7 2
8 -6 3 -9 -6 -11 -4 -6 4 5 7 15 10 23 6 9 -3 328 -201 709 -440 l693 -435
231 0 231 0 -3 152 -3 152 -701 440 c-386 242 -701 446 -700 453 3 20 39 54
52 49 6 -2 31 14 56 37 24 23 33 33 19 22 l-26 -20 25 28 c13 15 29 26 36 23
6 -2 29 14 50 37 l39 42 -45 -40 -45 -40 40 42 c21 24 45 42 52 40 18 -3 252
222 401 385 121 133 159 181 116 148 -12 -9 -10 -4 5 13 27 30 41 37 20 10 -7
-10 -1 -7 14 6 30 27 38 52 10 30 -15 -11 -14 -10 1 9 21 24 31 29 20 9 -4 -6
2 -3 14 7 26 23 30 44 5 25 -10 -7 -7 -1 6 14 27 30 41 37 20 10 -7 -10 -1 -7
14 6 30 27 38 52 10 30 -16 -13 -17 -12 -4 4 8 9 16 15 19 12 7 -7 32 15 32
27 0 6 -8 4 -17 -3 -16 -13 -17 -12 -4 4 8 9 16 15 19 12 7 -7 32 15 32 27 0
6 -8 4 -18 -3 -15 -13 -16 -12 -3 4 8 9 16 15 19 12 7 -7 32 15 32 27 0 6 -8
4 -17 -3 -16 -13 -17 -12 -5 3 8 10 19 16 24 15 6 -1 13 4 16 12 3 9 0 11 -8
6 -9 -6 -11 -4 -6 4 5 7 11 10 14 7 7 -7 32 13 32 26 0 6 -8 4 -17 -3 -16 -13
-17 -12 -5 3 8 10 19 16 24 15 6 -1 13 4 16 12 3 9 0 11 -9 6 -8 -5 -11 -4 -6
1 5 5 14 9 19 9 6 0 13 6 16 14 3 9 0 11 -8 6 -9 -5 -11 -4 -6 4 4 6 11 9 16
6 5 -3 16 5 24 17 19 27 21 42 4 32 -8 -4 -10 -3 -5 2 5 5 14 9 19 9 6 0 13 6
16 14 3 9 0 11 -9 6 -8 -5 -11 -4 -6 1 5 5 14 9 19 9 6 0 13 6 16 14 3 9 0 11
-9 6 -8 -5 -11 -4 -6 1 5 5 14 9 19 9 6 0 13 6 16 14 3 9 0 11 -8 6 -9 -5 -11
-4 -6 4 4 6 11 9 16 6 5 -3 14 3 19 14 14 26 14 34 -1 25 -7 -4 -8 -3 -4 5 4
6 11 9 16 6 5 -3 14 3 19 14 14 26 14 34 -1 25 -7 -4 -8 -3 -4 5 4 6 11 9 16
6 5 -3 14 3 19 14 14 26 14 34 -1 25 -7 -4 -8 -3 -4 5 4 6 11 9 16 6 12 -8 53
73 44 87 -4 7 -3 8 4 4 6 -4 18 6 27 23 18 36 19 44 3 35 -8 -4 -10 -3 -5 2 5
5 14 9 20 9 8 0 13 27 15 78 2 57 0 77 -9 72 -8 -6 -8 -2 0 14 7 12 11 56 10
98 -2 68 -6 85 -36 140 -19 35 -39 61 -43 58 -5 -3 -12 0 -16 6 -4 8 -3 9 4 5
17 -10 15 -2 -9 38 -12 20 -25 34 -29 31 -5 -3 -12 0 -16 6 -4 8 -3 9 4 5 15
-9 15 -1 1 25 -5 11 -14 17 -19 14 -5 -3 -12 0 -16 6 -5 8 -3 9 6 4 8 -5 11
-3 8 6 -3 8 -10 14 -16 14 -5 0 -14 4 -19 9 -5 5 -2 6 6 1 9 -5 12 -3 9 6 -3
8 -10 14 -16 14 -5 0 -14 4 -19 9 -5 5 -3 6 5 2 15 -9 15 -1 1 25 -5 11 -14
17 -19 14 -5 -3 -12 0 -16 6 -5 8 -3 9 6 4 8 -5 11 -3 8 6 -3 8 -10 14 -16 14
-5 0 -14 4 -19 9 -5 5 -2 6 6 1 9 -5 12 -3 9 6 -3 8 -10 13 -16 12 -5 -1 -16
5 -24 15 -12 15 -11 16 5 3 9 -7 17 -9 17 -3 0 11 -30 38 -39 35 -3 -1 -8 1
-11 4 -3 4 1 3 9 -2 9 -5 12 -3 9 6 -3 8 -10 13 -16 12 -5 -1 -16 5 -24 15
-12 15 -11 16 5 3 9 -7 17 -9 17 -3 0 11 -22 31 -32 29 -3 -1 -10 2 -15 7 -5
5 -2 6 6 1 9 -5 12 -3 9 6 -3 8 -10 13 -16 12 -5 -1 -16 5 -24 15 -12 15 -11
16 5 3 9 -7 17 -9 17 -3 0 12 -25 34 -32 27 -3 -3 -11 3 -19 12 -13 16 -12 17
4 4 9 -7 17 -9 17 -3 0 12 -25 34 -32 27 -3 -3 -11 3 -19 12 -13 16 -12 17 4
4 25 -20 21 2 -5 25 -12 10 -18 13 -14 7 10 -19 1 -16 -15 4 -10 11 -10 14 -1
9 6 -4 12 -3 12 2 0 12 -25 33 -32 27 -3 -3 -13 5 -24 17 -15 18 -16 20 -1 9
25 -19 21 2 -5 25 -13 12 -18 13 -13 4 5 -9 0 -8 -13 4 -25 21 -31 36 -7 16
35 -29 10 10 -43 66 -31 33 -51 52 -43 42 23 -30 7 -20 -25 14 -16 18 -21 26
-11 19 11 -9 17 -10 17 -2 0 20 -458 471 -472 466 -8 -3 -31 13 -53 37 l-40
43 45 -40 45 -40 -39 42 c-21 23 -44 39 -50 37 -7 -3 -23 8 -36 23 l-25 28 30
-25 30 -25 -24 27 c-13 15 -28 24 -35 22 -7 -3 -23 8 -36 23 l-25 28 26 -20
c14 -11 5 -1 -19 22 -25 23 -50 39 -57 37 -6 -3 -18 3 -26 13 -13 17 -13 17 6
3 18 -14 19 -14 7 2 -8 9 -19 15 -26 12 -7 -3 -21 6 -32 18 l-19 23 25 -20 25
-20 -18 22 c-11 12 -24 19 -31 17 -7 -3 -19 3 -27 13 -13 17 -13 17 6 3 18
-14 19 -14 7 2 -8 9 -19 15 -26 12 -7 -3 -19 3 -27 13 -13 17 -13 17 6 3 19
-14 19 -14 6 3 -8 10 -24 23 -35 29 -20 11 -20 10 -6 -7 12 -15 8 -15 -17 4
-18 12 -33 25 -33 28 0 3 8 -1 18 -8 15 -13 16 -12 4 3 -8 9 -19 15 -25 12 -7
-2 -23 6 -37 18 -14 13 -20 19 -13 14 29 -19 11 4 -19 25 -27 19 -30 20 -18 4
15 -18 14 -18 -12 -1 -26 17 -41 35 -16 20 7 -4 8 -3 4 4 -4 6 -13 9 -20 6 -8
-3 -17 0 -22 7 -5 8 -3 10 6 4 8 -5 11 -4 6 3 -4 6 -13 9 -20 6 -8 -3 -17 0
-22 7 -5 8 -3 10 6 4 8 -5 11 -4 6 3 -4 6 -13 9 -20 6 -8 -3 -17 0 -22 7 -5 8
-3 10 6 4 8 -5 11 -4 6 3 -4 6 -12 9 -19 6 -7 -2 -21 3 -32 12 -11 8 -14 12
-6 8 9 -4 12 -3 7 4 -4 6 -13 9 -20 6 -8 -3 -17 0 -22 7 -5 8 -3 10 6 4 8 -5
11 -4 6 3 -4 6 -12 9 -19 6 -7 -2 -21 3 -32 12 -11 8 -14 12 -6 8 9 -4 12 -3
7 4 -4 6 -12 9 -19 6 -7 -2 -21 3 -32 12 -11 8 -14 12 -6 8 9 -4 12 -3 7 4 -4
6 -12 9 -19 6 -7 -2 -21 3 -32 12 -11 8 -14 12 -6 8 9 -4 12 -3 7 4 -4 6 -12
9 -19 6 -7 -2 -21 3 -32 12 -11 8 -14 12 -6 8 9 -4 12 -3 7 4 -4 6 -14 8 -23
5 -11 -4 -14 -3 -9 5 5 8 1 10 -10 5 -12 -4 -15 -3 -10 5 5 8 1 10 -10 5 -12
-4 -15 -3 -10 5 4 7 2 10 -6 7 -8 -3 -22 2 -33 11 -11 8 -14 12 -6 8 9 -4 12
-3 7 4 -4 6 -14 8 -23 5 -11 -4 -14 -3 -9 5 5 8 1 10 -10 5 -12 -4 -15 -3 -10
5 5 8 1 10 -10 5 -12 -4 -15 -3 -10 5 5 8 1 10 -10 5 -12 -4 -15 -3 -10 5 5 8
1 10 -10 5 -12 -4 -15 -3 -10 5 5 8 1 10 -10 5 -12 -4 -15 -3 -10 5 5 8 1 10
-10 5 -12 -4 -15 -3 -10 5 5 8 1 10 -10 5 -12 -4 -15 -3 -10 5 5 8 1 10 -10 5
-12 -4 -15 -3 -10 5 5 8 1 10 -10 5 -12 -4 -15 -3 -10 5 5 8 1 10 -10 5 -12
-4 -15 -3 -10 5 5 8 1 10 -10 5 -12 -4 -15 -3 -10 5 5 8 1 10 -10 5 -12 -4
-15 -3 -10 5 5 8 1 10 -10 5 -12 -4 -15 -3 -10 5 5 8 1 10 -10 5 -12 -4 -15
-3 -10 5 5 8 1 10 -10 5 -13 -5 -15 -3 -9 7 5 9 4 11 -4 6 -15 -9 -53 3 -46
15 3 5 -2 6 -11 2 -12 -4 -15 -3 -10 5 5 8 1 10 -10 5 -13 -5 -15 -3 -9 7 5 9
4 11 -4 6 -15 -9 -53 3 -46 15 3 5 -2 6 -11 2 -13 -5 -15 -3 -9 7 5 9 4 11 -4
6 -15 -9 -53 3 -46 15 3 5 -2 6 -11 2 -11 -4 -15 -3 -11 4 5 7 -1 9 -15 5 -14
-3 -19 -1 -14 6 5 8 1 10 -10 5 -11 -4 -15 -3 -11 4 5 7 -1 9 -15 5 -16 -4
-19 -2 -13 8 5 9 4 11 -4 6 -14 -9 -53 2 -46 14 3 4 -5 6 -17 2 -14 -3 -19 -1
-14 6 5 8 1 10 -10 5 -11 -4 -15 -3 -11 4 5 7 -1 9 -15 5 -13 -3 -19 -1 -15 5
5 7 -1 9 -15 5 -13 -3 -19 -1 -15 5 5 7 -1 9 -15 5 -13 -3 -19 -1 -15 5 5 7
-1 9 -15 5 -13 -3 -19 -1 -15 5 5 7 -1 9 -15 5 -16 -4 -19 -2 -13 8 5 9 4 11
-3 6 -14 -8 -93 14 -87 25 3 4 -5 5 -17 1 -13 -3 -19 -1 -15 5 5 7 -1 9 -15 5
-16 -4 -19 -2 -13 8 5 9 4 11 -4 6 -15 -9 -73 3 -66 14 3 4 -5 6 -17 2 -13 -3
-19 -1 -15 5 4 6 -4 8 -20 5 -16 -3 -24 -1 -20 5 4 6 -4 8 -20 5 -17 -3 -24
-1 -19 6 4 6 -2 8 -16 4 -13 -3 -19 -1 -15 5 4 6 -4 8 -20 5 -16 -3 -24 -1
-20 5 4 6 -4 8 -20 5 -19 -4 -24 -2 -18 8 5 9 4 11 -4 6 -15 -9 -93 3 -86 13
2 5 -7 6 -22 3 -15 -3 -24 -1 -20 5 4 5 -7 8 -25 5 -18 -3 -28 -1 -25 5 4 5
-7 8 -25 5 -18 -3 -28 -1 -25 5 4 5 -7 8 -25 5 -18 -3 -28 -1 -25 5 4 5 -7 8
-25 5 -17 -3 -28 -1 -25 5 3 5 -10 7 -30 5 -20 -3 -33 -1 -30 5 3 5 -10 7 -30
5 -20 -3 -33 0 -30 4 3 5 -13 8 -35 6 -22 -3 -38 0 -35 4 3 5 -18 9 -46 10
-29 0 -126 8 -216 17 -225 23 -707 23 -932 0 -90 -9 -187 -17 -216 -17 -28 -1
-49 -5 -46 -10 3 -4 -13 -7 -35 -4 -22 2 -38 -1 -35 -6 3 -4 -10 -7 -30 -4
-20 2 -33 0 -30 -5 3 -6 -10 -8 -30 -5 -20 2 -33 0 -30 -5 3 -6 -8 -8 -25 -5
-18 3 -29 0 -25 -5 3 -6 -7 -8 -25 -5 -18 3 -29 0 -25 -5 3 -6 -7 -8 -25 -5
-18 3 -29 0 -25 -5 3 -6 -7 -8 -25 -5 -18 3 -29 0 -25 -5 4 -6 -5 -8 -20 -5
-15 3 -24 2 -22 -3 7 -10 -71 -22 -86 -13 -8 5 -9 3 -4 -6 6 -10 1 -12 -18 -8
-16 3 -24 1 -20 -5 4 -6 -4 -8 -20 -5 -15 3 -24 2 -22 -3 7 -10 -52 -22 -66
-13 -8 5 -9 3 -4 -6 6 -10 1 -12 -18 -8 -15 3 -24 2 -22 -3 7 -10 -52 -22 -66
-13 -8 5 -9 3 -4 -6 6 -10 3 -12 -13 -8 -14 4 -20 2 -15 -5 4 -6 -2 -8 -15 -5
-14 4 -20 2 -15 -5 4 -6 -2 -8 -15 -5 -14 4 -20 2 -16 -4 5 -7 -2 -9 -19 -6
-16 3 -24 1 -20 -5 4 -6 -2 -8 -15 -5 -14 4 -20 2 -15 -5 4 -6 -2 -8 -15 -5
-12 4 -20 2 -17 -2 7 -12 -32 -23 -46 -14 -8 5 -9 3 -4 -6 6 -10 3 -12 -13 -8
-14 4 -20 2 -15 -5 4 -6 -2 -8 -15 -5 -14 4 -20 2 -15 -5 4 -6 -2 -8 -15 -5
-12 4 -20 2 -17 -2 7 -12 -32 -23 -46 -14 -8 5 -9 3 -4 -6 6 -10 3 -12 -13 -8
-14 4 -20 2 -15 -5 4 -7 0 -8 -11 -4 -11 5 -15 3 -10 -5 5 -7 0 -9 -14 -6 -14
4 -20 2 -15 -5 4 -7 0 -8 -11 -4 -11 5 -15 3 -10 -5 5 -7 0 -9 -14 -6 -14 4
-20 2 -15 -5 4 -7 0 -8 -11 -4 -11 5 -15 3 -10 -5 5 -7 0 -9 -14 -6 -14 4 -20
2 -15 -5 4 -7 0 -8 -11 -4 -9 4 -14 3 -11 -2 7 -12 -31 -24 -46 -15 -8 5 -9 3
-4 -6 6 -10 4 -12 -9 -7 -11 5 -15 3 -10 -5 5 -8 2 -9 -10 -5 -9 4 -14 3 -11
-2 7 -12 -31 -24 -46 -15 -8 5 -9 3 -4 -6 6 -10 4 -12 -9 -7 -11 5 -15 3 -10
-5 5 -8 2 -9 -10 -5 -11 5 -15 3 -10 -5 5 -8 2 -9 -10 -5 -11 5 -15 3 -10 -5
5 -8 2 -9 -10 -5 -9 4 -15 3 -12 -1 7 -11 -163 -94 -176 -86 -7 5 -8 2 -3 -6
6 -10 4 -12 -9 -7 -11 5 -15 3 -10 -5 5 -8 2 -9 -10 -5 -11 5 -15 3 -10 -5 5
-8 2 -9 -10 -5 -11 5 -15 3 -10 -5 5 -8 2 -9 -10 -5 -11 5 -15 3 -10 -5 5 -8
2 -9 -10 -5 -11 5 -15 3 -10 -5 5 -8 2 -9 -9 -5 -9 3 -19 1 -23 -5 -5 -7 -2
-8 7 -4 8 4 5 0 -6 -8 -11 -9 -25 -14 -33 -11 -8 3 -10 0 -6 -7 5 -8 2 -9 -10
-5 -11 5 -15 3 -10 -5 5 -8 2 -9 -9 -5 -9 3 -19 1 -23 -5 -5 -7 -2 -8 7 -4 8
4 5 0 -6 -8 -11 -9 -25 -14 -32 -12 -7 3 -15 0 -19 -6 -5 -7 -2 -8 7 -4 8 4 5
0 -6 -8 -11 -9 -25 -14 -32 -12 -7 3 -15 0 -19 -6 -5 -7 -2 -8 7 -4 8 4 5 0
-6 -8 -11 -9 -25 -14 -32 -12 -7 3 -15 0 -19 -6 -5 -7 -2 -8 6 -3 9 6 11 4 6
-4 -5 -7 -14 -10 -22 -7 -7 3 -16 0 -20 -6 -5 -7 -2 -8 7 -4 8 4 5 1 -5 -8
-10 -8 -26 -14 -35 -13 -9 1 -323 195 -698 430 l-681 427 -241 0 -241 0 0
-144z m5090 -476 c127 -9 246 -22 412 -46 29 -4 45 -11 41 -17 -3 -6 -1 -7 6
-3 15 9 113 -3 107 -13 -3 -4 9 -5 26 -3 18 3 28 1 25 -5 -4 -5 7 -8 25 -5 19
3 28 1 25 -5 -4 -6 4 -8 20 -5 19 4 24 2 18 -8 -5 -9 -4 -11 4 -6 15 9 93 -3
86 -13 -2 -5 7 -6 22 -3 19 4 24 2 18 -8 -5 -9 -4 -11 4 -6 14 9 73 -3 66 -13
-2 -5 7 -6 22 -3 19 4 24 2 18 -8 -5 -9 -4 -11 4 -6 15 9 73 -3 66 -14 -3 -4
5 -6 17 -2 16 4 19 2 13 -8 -5 -9 -4 -11 4 -6 15 9 73 -3 66 -14 -3 -4 5 -6
17 -2 13 3 19 1 15 -5 -5 -7 1 -9 15 -5 13 3 19 1 15 -5 -5 -7 1 -9 15 -5 13
3 19 1 15 -5 -5 -7 1 -9 15 -5 16 4 19 2 13 -8 -5 -9 -4 -11 4 -6 14 9 53 -2
46 -14 -3 -4 5 -6 17 -2 16 4 19 2 13 -8 -5 -9 -4 -11 4 -6 14 9 53 -2 46 -14
-3 -4 5 -6 17 -2 16 4 19 2 13 -8 -5 -9 -4 -11 4 -6 15 9 53 -3 46 -15 -3 -5
2 -6 11 -2 13 5 15 3 9 -7 -5 -9 -4 -11 4 -6 16 10 53 -3 45 -16 -4 -7 -2 -8
5 -4 15 9 53 -3 46 -15 -3 -5 2 -6 11 -2 13 5 15 3 9 -7 -5 -9 -4 -11 4 -6 15
10 73 -13 65 -25 -3 -5 3 -6 12 -2 13 5 15 3 9 -7 -5 -9 -4 -11 4 -6 16 10 53
-3 45 -16 -4 -7 -2 -8 4 -4 11 6 252 -108 252 -120 0 -3 -5 -2 -12 2 -7 4 -8
3 -4 -5 4 -6 11 -9 16 -6 12 7 41 -6 34 -16 -3 -5 3 -6 12 -2 11 4 15 2 11 -4
-4 -6 1 -10 11 -9 9 0 16 -4 15 -11 -2 -8 4 -10 14 -6 11 4 14 3 9 -5 -4 -7
-2 -10 6 -7 8 3 22 -2 33 -11 11 -8 14 -12 6 -8 -9 4 -12 3 -7 -4 4 -6 12 -9
19 -6 7 2 21 -3 32 -12 11 -8 14 -12 6 -8 -9 5 -12 3 -7 -5 4 -6 12 -9 17 -5
9 5 109 -52 109 -63 0 -2 -5 -1 -12 3 -7 4 -8 3 -4 -5 4 -6 12 -9 17 -5 10 6
149 -80 149 -92 0 -4 -8 0 -17 7 -16 13 -17 12 -5 -3 8 -9 19 -15 25 -12 25 9
466 -341 552 -437 16 -19 3 -9 -30 21 -58 53 -58 53 10 -18 38 -39 74 -72 79
-72 5 0 1 9 -9 20 -10 11 -16 20 -14 20 2 0 49 -46 104 -102 55 -56 88 -92 73
-78 -54 46 -27 3 34 -55 35 -33 47 -43 28 -22 -18 20 -32 37 -29 37 3 0 25
-21 49 -47 25 -26 37 -41 28 -34 -33 25 -18 -5 19 -40 21 -18 29 -24 19 -11
-29 34 -14 26 20 -10 16 -18 21 -26 12 -19 -29 22 -21 -3 9 -30 15 -13 21 -16
14 -6 -21 27 -7 20 20 -10 13 -15 16 -21 7 -14 -26 19 -22 -2 4 -25 12 -10 18
-13 14 -6 -11 19 -1 14 20 -10 15 -19 16 -20 2 -9 -26 19 -22 -2 4 -25 12 -10
18 -13 14 -6 -11 19 -1 14 20 -10 15 -19 16 -20 2 -9 -10 7 -18 9 -18 3 0 -12
25 -34 32 -27 3 3 11 -3 19 -12 13 -16 12 -17 -3 -4 -10 7 -18 9 -18 3 0 -12
25 -34 32 -27 3 3 11 -3 19 -12 13 -16 12 -17 -3 -4 -10 7 -18 9 -18 3 0 -12
25 -34 32 -27 3 3 11 -3 19 -12 13 -16 12 -17 -3 -4 -10 7 -18 9 -18 3 0 -13
25 -33 32 -26 3 3 9 0 14 -7 5 -8 3 -10 -6 -4 -8 5 -11 3 -8 -6 3 -8 10 -14
16 -14 5 0 14 -4 19 -9 5 -5 3 -6 -4 -2 -19 11 -16 -9 4 -25 11 -10 14 -10 9
-1 -11 18 -1 15 15 -5 12 -14 12 -16 0 -9 -9 6 -12 4 -9 -5 3 -8 10 -14 16
-14 5 0 14 -4 19 -9 5 -5 2 -6 -6 -1 -9 5 -12 3 -9 -6 3 -8 10 -14 16 -14 5 0
14 -4 19 -9 5 -5 2 -6 -6 -1 -9 5 -12 3 -9 -6 3 -8 10 -14 16 -14 5 0 14 -4
19 -9 5 -5 2 -6 -6 -1 -9 5 -12 3 -9 -6 3 -8 10 -14 16 -14 5 0 14 -4 19 -9 5
-5 3 -6 -4 -2 -16 9 -16 1 -2 -25 5 -11 14 -17 19 -14 5 3 12 0 16 -6 5 -8 3
-9 -6 -4 -8 5 -11 3 -8 -6 3 -8 10 -13 16 -12 6 2 9 -3 6 -10 -3 -8 5 -25 16
-38 12 -13 19 -17 15 -9 -4 8 1 6 9 -4 20 -24 20 -28 0 -52 -8 -10 -13 -12 -9
-4 4 8 -3 4 -15 -9 -11 -13 -19 -30 -16 -38 3 -7 0 -12 -6 -10 -6 1 -13 -4
-16 -12 -3 -9 0 -11 8 -6 9 5 11 4 6 -4 -4 -6 -11 -9 -16 -6 -5 3 -14 -3 -19
-14 -14 -26 -14 -34 2 -25 7 4 9 3 4 -2 -5 -5 -14 -9 -19 -9 -6 0 -13 -6 -16
-14 -3 -9 0 -11 9 -6 8 5 11 4 6 -1 -5 -5 -14 -9 -19 -9 -6 0 -13 -6 -16 -14
-3 -9 0 -11 9 -6 8 5 11 4 6 -1 -5 -5 -14 -9 -19 -9 -6 0 -13 -6 -16 -14 -3
-9 0 -11 9 -6 8 5 11 4 6 -1 -5 -5 -14 -9 -19 -9 -6 0 -13 -6 -16 -14 -3 -9 0
-11 9 -5 12 7 12 5 0 -9 -16 -20 -26 -23 -15 -4 5 8 2 8 -9 -2 -20 -16 -23
-36 -4 -25 7 4 9 3 4 -2 -5 -5 -14 -9 -19 -9 -6 0 -13 -6 -16 -14 -3 -9 0 -11
9 -6 8 5 12 6 9 2 -3 -3 -8 -5 -11 -4 -9 3 -39 -24 -39 -35 0 -6 8 -4 18 3 15
13 16 12 3 -4 -8 -9 -16 -15 -19 -12 -7 7 -32 -15 -32 -27 0 -6 8 -4 18 3 15
13 16 12 3 -4 -8 -9 -16 -15 -19 -12 -7 7 -32 -15 -32 -27 0 -6 8 -4 18 3 15
13 16 12 3 -4 -8 -9 -16 -15 -19 -12 -7 7 -32 -15 -32 -27 0 -6 7 -5 15 2 24
20 18 5 -7 -16 -13 -12 -18 -13 -13 -4 5 9 0 8 -13 -4 -24 -21 -31 -46 -7 -26
24 20 18 5 -7 -16 -13 -12 -18 -13 -13 -4 5 9 0 8 -13 -4 -24 -21 -31 -46 -7
-26 26 22 16 4 -12 -21 -21 -18 -24 -19 -13 -4 11 15 8 14 -13 -4 -30 -27 -38
-52 -9 -30 9 7 4 -1 -12 -19 -34 -36 -49 -44 -20 -9 10 12 2 6 -19 -12 -37
-35 -52 -65 -19 -40 9 7 -3 -8 -28 -34 -24 -26 -46 -47 -49 -47 -3 0 11 17 29
37 19 21 7 11 -28 -22 -34 -33 -62 -64 -62 -69 0 -5 11 1 25 14 14 13 25 21
25 19 0 -2 -46 -49 -102 -104 -56 -55 -94 -90 -84 -77 11 12 15 22 10 22 -5 0
-41 -33 -79 -72 -68 -71 -69 -72 -10 -18 47 43 51 46 20 12 -90 -97 -446 -382
-472 -378 -23 4 -891 550 -897 564 -4 8 -1 21 5 30 9 15 10 14 4 -3 -4 -13 -3
-16 3 -10 5 6 13 21 17 35 5 19 4 21 -4 10 -6 -8 -11 -10 -11 -4 0 5 7 19 16
30 8 10 12 12 8 4 -5 -10 -4 -12 3 -5 6 6 14 21 18 35 7 24 7 24 -9 5 -14 -19
-15 -18 -4 12 7 17 15 30 19 27 4 -2 5 6 1 18 -3 13 -1 19 5 15 7 -5 9 1 5 15
-3 13 -1 19 5 15 7 -5 9 1 5 15 -3 13 -1 19 5 15 6 -4 8 4 5 20 -3 17 -1 24 6
19 6 -4 8 2 4 16 -3 13 -1 19 5 15 6 -4 8 4 5 20 -3 16 -1 24 5 20 6 -4 8 4 5
20 -3 15 -1 24 5 20 5 -4 8 7 5 25 -3 18 -1 28 5 25 5 -4 8 7 5 25 -3 17 -1
28 5 25 5 -3 7 10 5 30 -3 20 -1 33 4 30 5 -2 11 41 14 97 11 219 2 558 -14
549 -5 -3 -7 10 -4 30 2 20 0 33 -5 30 -6 -3 -8 8 -5 25 3 18 0 29 -5 25 -6
-3 -8 7 -5 25 3 18 0 29 -5 25 -6 -4 -8 5 -5 20 3 16 1 24 -5 20 -6 -4 -8 4
-5 20 3 16 1 24 -5 20 -6 -4 -8 2 -5 15 4 14 2 20 -4 16 -7 -5 -9 2 -6 19 3
16 1 24 -5 20 -6 -4 -8 2 -5 15 4 14 2 20 -5 15 -6 -4 -8 2 -5 15 4 14 2 20
-5 15 -6 -4 -8 2 -5 15 4 12 3 20 -1 18 -4 -3 -12 10 -19 27 -11 30 -10 31 4
12 16 -19 16 -19 9 5 -4 14 -12 30 -18 35 -7 7 -8 5 -3 -5 4 -8 0 -6 -8 4 -9
11 -16 25 -16 30 0 6 5 4 11 -4 8 -11 9 -9 4 10 -4 14 -12 30 -17 35 -6 6 -7
3 -2 -10 13 -36 -3 -11 -35 55 -18 36 -25 56 -16 46 27 -35 16 -5 -31 81 -25
46 -49 81 -54 78 -5 -3 -12 0 -16 6 -5 8 -3 9 6 4 8 -5 11 -3 8 6 -3 8 -10 14
-15 14 -6 0 -15 4 -20 9 -5 5 -2 6 6 1 9 -5 12 -3 9 6 -3 8 -10 14 -15 14 -6
0 -15 4 -20 9 -5 5 -2 6 6 1 9 -5 12 -3 9 6 -3 8 -10 14 -15 14 -6 0 -15 4
-20 9 -5 5 -3 6 5 2 18 -11 15 9 -5 25 -11 10 -14 10 -9 2 11 -19 1 -16 -15 4
-10 11 -10 14 -1 9 18 -11 15 9 -5 25 -11 10 -14 10 -9 2 12 -20 1 -15 -20 9
-15 19 -16 20 -1 9 25 -19 21 2 -5 25 -12 10 -18 13 -14 7 11 -20 1 -15 -20 9
-15 19 -16 20 -1 9 34 -27 16 6 -25 44 -31 29 -36 32 -18 10 14 -17 4 -10 -23
15 -26 24 -47 46 -47 49 0 2 11 -6 25 -19 47 -44 25 -6 -27 47 -54 54 -91 74
-47 26 13 -15 -6 0 -44 35 -37 34 -92 80 -122 103 -30 23 -55 44 -55 46 0 3 8
-1 18 -8 15 -13 16 -12 3 3 -7 10 -17 15 -22 13 -7 -5 -149 82 -149 92 0 2 5
1 12 -3 7 -4 8 -3 4 5 -4 6 -11 9 -16 6 -10 -6 -70 21 -70 31 0 3 5 2 12 -2 7
-4 8 -3 4 5 -4 6 -11 9 -16 6 -12 -7 -100 37 -94 47 3 4 -3 5 -12 1 -13 -5
-15 -3 -9 7 5 9 4 11 -4 6 -15 -9 -53 3 -46 15 3 5 -2 6 -11 2 -12 -4 -15 -3
-10 5 5 8 1 10 -10 5 -11 -4 -15 -3 -11 4 5 7 -1 9 -15 5 -16 -4 -19 -2 -13 8
5 9 4 11 -4 6 -14 -9 -53 2 -46 14 3 4 -5 6 -17 2 -13 -3 -19 -1 -15 5 5 7 -1
9 -15 5 -13 -3 -19 -1 -15 5 5 7 -1 9 -15 5 -13 -3 -19 -1 -15 5 5 7 -1 9 -15
5 -13 -3 -19 -1 -15 5 4 6 -4 8 -20 5 -17 -3 -24 -1 -19 6 4 6 -2 8 -16 4 -13
-3 -19 -1 -15 5 4 6 -4 8 -20 5 -15 -3 -24 -1 -20 5 4 5 -7 8 -25 5 -23 -4
-29 -2 -23 8 5 9 4 11 -3 6 -14 -9 -104 3 -98 13 2 3 -14 5 -36 3 -24 -3 -38
-1 -35 5 4 6 -102 10 -288 10 -186 0 -292 -4 -288 -10 3 -6 -11 -8 -35 -5 -22
2 -38 0 -36 -3 6 -10 -84 -22 -98 -13 -7 5 -8 3 -3 -6 6 -10 0 -12 -23 -8 -18
3 -29 0 -25 -5 4 -6 -5 -8 -20 -5 -16 3 -24 1 -20 -5 4 -6 -2 -8 -15 -5 -14 4
-20 2 -16 -4 5 -7 -2 -9 -19 -6 -16 3 -24 1 -20 -5 4 -6 -2 -8 -15 -5 -14 4
-20 2 -15 -5 4 -6 -2 -8 -15 -5 -14 4 -20 2 -15 -5 4 -6 -2 -8 -15 -5 -14 4
-20 2 -15 -5 4 -6 -2 -8 -15 -5 -14 4 -20 2 -15 -5 4 -6 -2 -8 -15 -5 -12 4
-20 2 -17 -2 7 -12 -32 -23 -46 -14 -8 5 -9 3 -4 -6 6 -10 4 -12 -9 -7 -11 5
-15 3 -10 -5 5 -8 2 -9 -10 -5 -9 4 -14 3 -11 -2 7 -12 -31 -24 -46 -15 -8 5
-9 3 -4 -6 6 -10 4 -12 -9 -7 -9 4 -15 3 -12 -1 6 -10 -82 -54 -94 -47 -5 3
-12 0 -16 -6 -4 -8 -3 -9 4 -5 7 4 12 5 12 2 0 -10 -60 -37 -70 -31 -5 3 -12
0 -16 -6 -4 -8 -3 -9 4 -5 7 4 12 5 12 3 0 -10 -142 -97 -149 -92 -5 2 -15 -3
-22 -13 -13 -15 -12 -16 4 -3 9 7 17 11 17 8 0 -2 -25 -23 -55 -46 -30 -23
-85 -69 -122 -103 -38 -35 -57 -50 -44 -35 43 47 9 29 -46 -25 -52 -51 -77
-94 -28 -48 14 13 25 21 25 19 0 -3 -24 -27 -52 -54 -34 -32 -42 -37 -23 -15
29 34 28 33 -13 -5 -41 -38 -60 -71 -24 -44 15 13 16 12 3 -3 -7 -10 -18 -15
-25 -11 -71 40 -656 410 -670 423 -17 17 -12 21 143 99 89 45 167 79 173 75 6
-4 8 -3 4 4 -8 13 29 26 45 16 8 -5 9 -3 4 6 -6 10 -4 12 9 7 9 -4 14 -3 11 2
-7 12 31 24 46 15 8 -5 9 -3 4 6 -6 10 -4 12 9 7 9 -4 14 -3 11 2 -7 12 31 24
46 15 7 -4 9 -3 5 4 -8 13 29 26 45 16 7 -4 9 -3 5 4 -8 13 29 26 45 16 7 -4
9 -3 5 4 -8 13 29 26 45 16 8 -5 9 -3 4 6 -6 10 -3 12 13 8 12 -4 20 -2 17 2
-7 12 32 23 46 14 8 -5 9 -3 4 6 -6 10 -3 12 13 8 14 -4 20 -2 15 5 -4 6 2 8
15 5 14 -4 20 -2 15 5 -4 6 2 8 15 5 14 -4 20 -2 15 5 -4 6 2 8 15 5 14 -4 20
-2 15 5 -4 6 2 8 15 5 14 -4 20 -2 15 5 -4 6 2 8 15 5 12 -4 20 -2 17 2 -7 11
51 23 66 14 8 -5 9 -3 4 6 -6 10 -3 12 13 8 14 -4 20 -2 16 4 -5 7 2 9 19 6
15 -3 24 -2 22 3 -7 10 52 22 66 13 8 -5 9 -3 4 6 -6 10 -1 12 18 8 16 -3 24
-1 20 5 -4 6 4 8 20 5 16 -3 24 -1 20 5 -4 6 4 8 20 5 16 -3 24 -1 20 5 -3 6
6 8 25 5 18 -3 29 0 25 5 -4 6 5 8 20 5 16 -3 24 -1 20 5 -3 6 6 8 25 5 18 -3
29 0 25 5 -3 6 7 8 25 5 17 -2 29 -1 26 3 -6 10 92 22 107 13 7 -4 9 -3 6 3
-8 13 106 29 124 17 7 -4 9 -3 5 4 -7 12 136 28 155 17 8 -6 10 -4 4 4 -6 10
7 12 53 9 33 -1 58 0 56 4 -10 16 474 22 676 8z m-2665 -1189 c239 -150 435
-277 435 -282 0 -6 5 -7 11 -3 6 3 3 -9 -6 -27 -21 -40 -31 -52 -21 -24 5 13
4 16 -2 10 -5 -5 -13 -21 -17 -35 -5 -19 -4 -21 4 -10 6 8 11 10 11 4 0 -5 -7
-19 -16 -30 -8 -10 -12 -12 -8 -4 5 10 4 12 -3 5 -6 -5 -14 -21 -18 -35 -7
-24 -7 -24 9 -5 14 19 15 18 4 -12 -7 -17 -15 -30 -19 -27 -4 2 -5 -6 -1 -18
3 -13 1 -19 -5 -15 -7 5 -9 -1 -5 -15 3 -13 1 -19 -5 -15 -7 5 -9 -1 -5 -15 3
-13 1 -19 -5 -15 -6 4 -8 -4 -5 -20 3 -17 1 -24 -6 -19 -6 4 -8 -2 -4 -16 3
-13 1 -19 -5 -15 -6 4 -8 -4 -5 -20 3 -16 1 -24 -5 -20 -6 4 -8 -4 -5 -20 3
-15 1 -24 -5 -20 -5 4 -8 -7 -5 -25 3 -18 1 -28 -5 -25 -5 4 -8 -7 -5 -25 3
-17 1 -28 -5 -25 -5 3 -7 -10 -5 -30 3 -20 1 -33 -4 -30 -5 2 -11 -41 -14 -97
-11 -219 -2 -558 14 -549 5 3 7 -10 4 -30 -2 -20 0 -33 5 -30 6 3 8 -8 5 -25
-3 -18 0 -29 5 -25 6 3 8 -7 5 -25 -3 -18 0 -29 5 -25 6 4 8 -5 5 -20 -3 -16
-1 -24 5 -20 6 4 8 -4 5 -20 -3 -16 -1 -24 5 -20 6 4 8 -2 5 -15 -4 -14 -2
-20 4 -16 7 5 9 -2 6 -19 -3 -16 -1 -24 5 -20 6 4 8 -2 5 -15 -4 -14 -2 -20 5
-15 6 4 8 -2 5 -15 -4 -14 -2 -20 5 -15 6 4 8 -2 5 -15 -4 -12 -3 -20 1 -18 4
3 12 -10 19 -27 11 -30 10 -31 -4 -12 -16 19 -16 19 -9 -5 4 -14 12 -29 18
-35 7 -7 8 -5 3 5 -4 8 0 6 8 -4 9 -11 16 -25 16 -30 0 -6 -5 -4 -11 4 -8 11
-9 9 -4 -10 4 -14 12 -29 17 -35 6 -6 7 -3 2 10 -13 36 3 11 35 -55 18 -36 25
-56 16 -46 -27 35 -16 5 31 -81 25 -46 49 -81 54 -78 5 3 12 0 16 -6 5 -8 3
-9 -6 -4 -8 5 -11 3 -8 -6 3 -8 10 -14 15 -14 6 0 15 -4 20 -9 5 -5 2 -6 -6
-1 -9 5 -12 3 -9 -6 3 -8 10 -14 15 -14 6 0 15 -4 20 -9 5 -5 2 -6 -6 -1 -9 5
-12 3 -9 -6 3 -8 10 -14 15 -14 6 0 15 -4 20 -9 5 -5 3 -6 -4 -2 -19 11 -16
-9 4 -25 11 -10 14 -10 9 -1 -11 18 -1 15 15 -5 10 -11 10 -14 2 -9 -19 11
-16 -9 4 -25 11 -10 14 -10 9 -1 -12 19 -1 14 20 -10 15 -19 16 -20 2 -9 -26
19 -22 -2 4 -25 12 -10 18 -13 14 -6 -11 19 -1 14 20 -10 15 -19 16 -20 2 -9
-35 27 -17 -6 24 -44 31 -29 35 -31 14 -8 -48 53 -25 38 29 -19 28 -29 38 -42
23 -29 -48 42 -31 9 24 -46 54 -54 91 -74 47 -26 -13 15 6 0 44 -35 37 -34 92
-80 122 -103 30 -23 55 -44 55 -46 0 -3 -8 1 -17 8 -16 13 -17 12 -4 -3 7 -10
17 -15 22 -13 7 5 149 -82 149 -92 0 -2 -5 -1 -12 3 -7 4 -8 3 -4 -5 4 -6 11
-9 16 -6 10 6 70 -21 70 -31 0 -3 -5 -2 -12 2 -7 4 -8 3 -4 -5 4 -6 11 -9 16
-6 12 7 100 -37 94 -47 -3 -4 3 -5 12 -1 13 5 15 3 9 -7 -5 -9 -4 -11 4 -6 15
9 53 -3 46 -15 -3 -5 2 -6 11 -2 12 4 15 3 10 -5 -5 -8 -1 -10 10 -5 13 5 15
3 9 -7 -5 -9 -4 -11 4 -6 14 9 53 -2 46 -14 -3 -4 5 -6 17 -2 13 3 19 1 15 -5
-5 -7 1 -9 15 -5 13 3 19 1 15 -5 -5 -7 1 -9 15 -5 13 3 19 1 15 -5 -5 -7 1
-9 15 -5 13 3 19 1 15 -5 -5 -7 1 -9 15 -5 13 3 19 1 15 -5 -4 -6 4 -8 20 -5
17 3 24 1 19 -6 -4 -6 2 -8 16 -4 13 3 19 1 15 -5 -4 -6 4 -8 20 -5 15 3 24 1
20 -5 -4 -5 7 -8 25 -5 23 4 29 2 23 -8 -5 -9 -4 -11 3 -6 14 9 104 -3 98 -13
-2 -3 14 -5 36 -3 24 3 38 1 35 -5 -4 -6 102 -10 288 -10 186 0 292 4 288 10
-3 6 11 8 35 5 22 -2 38 0 36 3 -6 10 84 22 98 13 7 -5 8 -3 3 6 -6 10 0 12
23 8 18 -3 29 0 25 5 -4 6 5 8 20 5 16 -3 24 -1 20 5 -4 6 2 8 15 5 14 -4 20
-2 16 4 -5 7 2 9 19 6 16 -3 24 -1 20 5 -4 6 2 8 15 5 14 -4 20 -2 15 5 -4 6
2 8 15 5 14 -4 20 -2 15 5 -4 6 2 8 15 5 14 -4 20 -2 15 5 -4 6 2 8 15 5 12
-4 20 -2 17 2 -7 12 32 23 46 14 8 -5 9 -3 4 6 -6 10 -3 12 13 8 14 -4 20 -2
15 5 -4 7 0 8 11 4 11 -5 15 -3 10 5 -5 8 -2 9 10 5 9 -4 14 -3 11 2 -7 12 31
24 46 15 8 -5 9 -3 4 6 -6 10 -4 12 9 7 9 -4 15 -3 12 1 -6 10 82 54 94 47 5
-3 12 0 16 6 4 8 3 9 -4 5 -7 -4 -12 -5 -12 -2 0 10 60 37 70 31 5 -3 12 0 16
6 4 8 3 9 -4 5 -7 -4 -12 -5 -12 -3 0 10 142 97 149 92 5 -2 15 3 22 13 13 15
12 16 -3 3 -10 -7 -18 -11 -18 -8 0 2 25 23 55 46 30 23 85 69 122 103 38 35
57 50 44 35 -43 -47 -9 -29 46 25 55 54 74 90 26 47 -16 -13 -8 -2 17 24 47
50 69 65 29 20 -13 -16 -5 -10 19 12 41 38 59 71 25 44 -17 -13 -17 -13 0 7 9
11 25 21 35 21 9 0 171 -97 360 -215 l344 -216 -36 -18 c-20 -10 -41 -16 -46
-13 -5 3 -12 0 -16 -6 -4 -8 -3 -9 4 -5 7 4 12 5 12 2 0 -12 -241 -126 -252
-120 -6 4 -8 3 -4 -4 8 -13 -29 -26 -45 -16 -8 5 -9 3 -4 -6 6 -10 4 -12 -9
-7 -9 4 -15 3 -12 -2 8 -12 -50 -35 -65 -25 -8 5 -9 3 -4 -6 6 -10 4 -12 -9
-7 -9 4 -14 3 -11 -2 7 -12 -31 -24 -46 -15 -7 4 -9 3 -5 -4 8 -13 -29 -26
-45 -16 -8 5 -9 3 -4 -6 6 -10 4 -12 -9 -7 -9 4 -14 3 -11 -2 7 -12 -31 -24
-46 -15 -8 5 -9 3 -4 -6 6 -10 3 -12 -13 -8 -12 4 -20 2 -17 -2 7 -12 -32 -23
-46 -14 -8 5 -9 3 -4 -6 6 -10 3 -12 -13 -8 -12 4 -20 2 -17 -2 7 -12 -32 -23
-46 -14 -8 5 -9 3 -4 -6 6 -10 3 -12 -13 -8 -14 4 -20 2 -15 -5 4 -6 -2 -8
-15 -5 -14 4 -20 2 -15 -5 4 -6 -2 -8 -15 -5 -14 4 -20 2 -15 -5 4 -6 -2 -8
-15 -5 -12 4 -20 2 -17 -2 7 -11 -51 -23 -66 -14 -8 5 -9 3 -4 -6 6 -10 3 -12
-13 -8 -12 4 -20 2 -17 -2 7 -11 -51 -23 -66 -14 -8 5 -9 3 -4 -6 6 -10 1 -12
-18 -8 -15 3 -24 2 -22 -3 7 -10 -52 -22 -66 -13 -8 5 -9 3 -4 -6 6 -10 1 -12
-18 -8 -15 3 -24 2 -22 -3 7 -10 -71 -22 -86 -13 -8 5 -9 3 -4 -6 6 -10 1 -12
-18 -8 -16 3 -24 1 -20 -5 3 -6 -6 -8 -25 -5 -18 3 -29 0 -25 -5 3 -6 -7 -8
-25 -5 -17 2 -29 1 -26 -3 6 -10 -92 -22 -107 -13 -7 4 -9 3 -6 -3 7 -11 -1
-12 -193 -38 -275 -37 -739 -44 -999 -15 -183 20 -270 33 -267 39 3 4 -11 5
-31 3 -27 -4 -34 -1 -28 8 5 9 4 11 -4 6 -15 -9 -113 3 -107 13 3 4 -9 5 -26
3 -18 -3 -28 -1 -25 5 4 5 -7 8 -25 5 -19 -3 -28 -1 -25 5 4 6 -4 8 -20 5 -19
-4 -24 -2 -18 8 5 9 4 11 -4 6 -15 -9 -93 3 -86 13 2 5 -7 6 -22 3 -19 -4 -24
-2 -18 8 5 9 4 11 -4 6 -14 -9 -73 3 -66 13 2 5 -7 6 -22 3 -19 -4 -24 -2 -18
8 5 9 4 11 -4 6 -15 -9 -73 3 -66 14 3 4 -5 6 -17 2 -16 -4 -19 -2 -13 8 5 9
4 11 -4 6 -15 -9 -73 3 -66 14 3 4 -5 6 -17 2 -13 -3 -19 -1 -15 5 5 7 -1 9
-15 5 -13 -3 -19 -1 -15 5 5 7 -1 9 -15 5 -13 -3 -19 -1 -15 5 5 7 -1 9 -15 5
-16 -4 -19 -2 -13 8 5 9 4 11 -4 6 -14 -9 -53 2 -46 14 3 4 -5 6 -17 2 -16 -4
-19 -2 -13 8 5 9 4 11 -4 6 -14 -9 -53 2 -46 14 3 4 -5 6 -17 2 -16 -4 -19 -2
-13 8 5 9 4 11 -4 6 -16 -10 -53 3 -45 16 4 7 2 8 -5 4 -15 -9 -53 3 -46 15 3
5 -2 6 -11 2 -13 -5 -15 -3 -9 7 5 9 4 11 -4 6 -15 -9 -53 3 -46 15 3 5 -2 6
-11 2 -13 -5 -15 -3 -9 7 5 9 4 11 -4 6 -15 -10 -73 13 -65 25 3 5 -3 6 -12 2
-13 -5 -15 -3 -9 7 5 9 4 11 -4 6 -16 -10 -53 3 -45 16 4 7 2 8 -4 4 -11 -6
-252 108 -252 120 0 3 5 2 12 -2 7 -4 8 -3 4 5 -4 6 -11 9 -16 6 -9 -6 -90 31
-90 41 0 3 5 2 12 -2 7 -4 8 -3 4 5 -4 6 -11 9 -16 6 -10 -6 -70 21 -70 31 0
3 5 2 12 -2 7 -4 8 -3 4 4 -4 6 -12 9 -19 6 -7 -2 -21 3 -32 12 -11 8 -14 12
-6 8 9 -5 12 -3 7 5 -4 6 -12 9 -17 5 -9 -5 -109 52 -109 63 0 2 5 1 12 -3 7
-4 8 -3 4 5 -4 6 -12 9 -17 5 -10 -6 -149 80 -149 92 0 4 8 0 18 -7 15 -13 16
-12 4 3 -8 9 -19 15 -25 12 -25 -9 -466 341 -552 437 -16 19 -3 9 30 -21 58
-53 58 -53 -10 18 -38 39 -74 72 -79 72 -5 0 -1 -9 9 -20 10 -11 16 -20 14
-20 -2 0 -49 46 -104 102 -55 56 -90 94 -77 84 46 -39 20 2 -35 54 -41 39 -47
43 -23 15 l35 -40 -48 45 c-44 42 -65 67 -32 40 32 -27 13 8 -22 41 -24 21
-30 25 -18 9 17 -21 15 -20 -13 4 -32 30 -45 50 -17 26 27 -22 16 6 -12 31
-15 13 -21 16 -14 7 21 -28 7 -21 -20 9 -13 15 -16 21 -6 14 25 -19 21 2 -5
25 -12 10 -18 13 -14 7 11 -20 1 -15 -20 9 -15 19 -16 20 -1 9 25 -19 21 2 -5
25 -12 10 -18 13 -14 7 11 -20 1 -15 -20 9 -15 19 -16 20 -1 9 9 -7 17 -9 17
-3 0 12 -25 34 -32 27 -3 -3 -11 3 -19 12 -13 16 -12 17 4 4 9 -7 17 -9 17 -3
0 12 -25 34 -32 27 -3 -3 -11 3 -19 12 -13 16 -12 17 3 4 10 -7 18 -9 18 -3 0
12 -25 34 -32 27 -3 -3 -11 3 -19 12 -13 16 -12 17 4 4 9 -7 17 -9 17 -3 0 13
-25 33 -32 26 -3 -3 -9 0 -14 7 -5 8 -3 10 6 4 8 -5 11 -3 8 6 -3 8 -10 14
-16 14 -5 0 -14 4 -19 9 -5 5 -3 6 5 2 18 -11 15 9 -5 25 -11 10 -14 10 -9 2
11 -19 1 -16 -15 4 -12 14 -12 16 0 9 9 -6 12 -4 9 5 -3 8 -10 14 -16 14 -5 0
-14 4 -19 9 -5 5 -2 6 6 1 9 -5 12 -3 9 6 -3 8 -10 14 -16 14 -5 0 -14 4 -19
9 -5 5 -2 6 6 1 9 -5 12 -3 9 6 -3 8 -10 14 -16 14 -5 0 -14 4 -19 9 -5 5 -2
6 6 1 9 -5 12 -3 9 6 -3 8 -10 14 -16 14 -5 0 -14 4 -19 9 -5 5 -3 6 4 2 16
-9 16 -1 2 25 -5 11 -14 17 -19 14 -5 -3 -12 0 -16 6 -4 8 -3 9 4 5 18 -11 15
0 -13 44 -23 37 -44 56 -30 28 4 -7 -1 -4 -9 6 -20 24 -20 28 0 52 8 10 13 13
9 7 -14 -29 7 -10 30 27 28 44 31 55 13 44 -7 -4 -8 -3 -4 5 4 6 11 9 16 6 5
-3 14 3 19 14 14 26 14 34 -1 25 -8 -4 -10 -3 -5 2 5 5 14 9 19 9 6 0 13 6 16
14 3 9 0 11 -9 6 -8 -5 -11 -4 -6 1 5 5 14 9 19 9 6 0 13 6 16 14 3 9 0 11 -9
6 -8 -5 -11 -4 -6 1 5 5 14 9 19 9 6 0 13 6 16 14 3 9 0 11 -9 6 -8 -5 -11 -4
-6 1 5 5 14 9 20 9 5 0 12 6 15 14 3 9 0 11 -9 6 -8 -5 -11 -5 -7 -1 3 4 8 6
11 4 6 -5 37 23 37 34 0 6 -8 4 -17 -3 -16 -13 -17 -12 -5 3 8 10 19 16 24 15
6 -1 13 4 16 12 3 9 0 11 -9 6 -8 -5 -11 -4 -6 1 5 5 14 9 19 9 6 0 13 6 16
14 3 8 0 11 -7 7 -17 -11 -13 0 6 15 15 12 16 12 8 -1 -8 -13 -7 -13 8 -1 18
14 24 36 7 26 -16 -10 -11 1 7 16 15 12 16 12 8 -1 -8 -13 -7 -13 8 -1 18 14
24 36 7 26 -16 -10 -11 1 7 16 15 12 16 12 8 -1 -8 -13 -7 -13 8 -1 18 14 24
36 7 26 -16 -10 -11 1 7 16 15 12 16 12 8 -1 -5 -9 0 -8 13 4 24 21 31 46 7
26 -24 -20 -18 -5 7 16 13 12 18 13 13 4 -5 -9 0 -8 13 4 24 21 31 46 7 26
-26 -22 -16 -4 12 21 21 18 24 19 13 4 -11 -15 -8 -14 13 4 30 27 38 52 10 30
-10 -7 -7 -1 6 14 14 15 27 25 29 22 7 -7 42 25 42 38 0 5 -7 4 -15 -3 -30
-25 -14 -3 22 31 34 31 36 31 13 4 -14 -17 -3 -10 23 15 44 42 70 84 27 45
-11 -10 -20 -16 -20 -14 0 2 71 74 157 159 86 85 151 147 144 138 -30 -40 8
-14 59 39 l55 58 -50 -45 c-27 -25 -41 -34 -30 -21 20 24 147 133 240 206 31
25 42 30 30 15 l-20 -24 31 22 c17 11 37 29 45 39 11 15 9 14 -10 -2 -14 -11
-21 -15 -17 -8 3 7 21 22 39 35 26 18 29 19 17 3 -14 -17 -14 -18 6 -7 11 6
27 19 35 29 12 16 12 17 -1 8 -9 -5 -5 0 8 11 14 12 31 21 38 20 7 -1 209
-125 449 -275z m2269 -17 c25 -4 44 -10 41 -13 -2 -4 12 -5 32 -3 22 3 33 1
30 -5 -4 -6 4 -8 20 -5 16 3 24 1 20 -5 -4 -6 4 -8 20 -5 16 3 24 1 20 -5 -4
-6 4 -8 20 -5 17 3 24 1 19 -6 -4 -6 2 -8 16 -4 13 3 19 1 15 -5 -5 -7 1 -9
15 -5 13 3 19 1 15 -5 -5 -7 1 -9 15 -5 16 4 19 2 13 -8 -5 -9 -4 -11 4 -6 15
9 53 -3 46 -15 -3 -5 0 -6 8 -3 14 5 197 -80 197 -92 0 -3 -6 -2 -12 2 -7 4
-10 3 -5 -1 4 -5 16 -9 26 -10 25 -2 169 -106 212 -153 l34 -37 -45 40 c-25
22 -9 3 34 -42 44 -45 83 -80 86 -78 4 2 20 -10 36 -27 16 -18 21 -26 12 -19
-26 19 -22 -2 4 -25 12 -10 18 -13 14 -6 -10 18 -1 15 15 -5 10 -11 10 -14 2
-9 -19 11 -16 -9 4 -25 15 -12 16 -12 8 1 -8 13 -7 13 8 1 19 -15 23 -26 6
-15 -7 4 -10 1 -7 -7 3 -8 10 -14 16 -14 5 0 14 -4 19 -9 5 -5 2 -6 -6 -1 -9
5 -12 3 -9 -6 3 -8 10 -14 16 -14 5 0 14 -4 19 -9 5 -5 2 -6 -6 -1 -9 5 -12 3
-9 -6 3 -8 10 -14 16 -14 5 0 14 -4 19 -9 5 -5 3 -6 -4 -2 -7 4 -13 4 -13 -1
0 -11 38 -73 45 -73 4 0 3 5 0 10 -3 6 -4 10 -1 10 3 0 15 -19 26 -42 13 -26
15 -35 5 -24 -8 11 -15 18 -15 15 0 -11 68 -170 75 -177 5 -4 5 -1 0 7 -6 10
-4 12 4 6 7 -4 11 -16 8 -26 -3 -12 -1 -17 6 -12 6 4 8 -2 5 -15 -4 -12 -2
-20 3 -16 5 3 9 -2 9 -11 0 -9 -4 -14 -9 -11 -4 3 -6 -6 -3 -19 2 -14 8 -27
12 -30 5 -3 6 5 4 17 -4 21 -3 20 6 -2 6 -14 9 -35 7 -47 -2 -12 -1 -20 3 -18
15 9 32 -123 37 -293 l6 -173 -109 69 c-60 38 -563 354 -1119 701 -555 348
-1015 639 -1021 647 -6 7 -14 11 -17 7 -4 -3 -7 -3 -7 0 0 13 182 98 197 93 8
-3 11 -2 8 3 -7 12 31 24 46 15 8 -5 9 -3 4 6 -6 10 -3 12 13 8 14 -4 20 -2
15 5 -4 6 2 8 15 5 14 -4 20 -2 15 5 -4 6 2 8 15 5 12 -4 20 -3 17 2 -7 11 91
34 111 26 8 -3 13 -2 10 3 -5 8 54 18 194 35 43 5 262 -2 324 -10z m-124
-1328 c674 -423 1231 -774 1238 -781 12 -10 11 -18 -2 -43 -20 -39 -21 -51 -1
-26 14 17 14 15 0 -13 -8 -18 -18 -33 -21 -33 -3 0 -2 6 1 13 4 6 -3 1 -14
-12 -23 -26 -28 -46 -8 -35 7 4 9 3 4 -2 -5 -5 -14 -9 -19 -9 -6 0 -13 -6 -16
-14 -3 -9 0 -11 9 -6 8 5 11 4 6 -1 -5 -5 -14 -9 -19 -9 -6 0 -13 -6 -16 -14
-3 -9 0 -11 9 -6 8 5 11 4 6 -1 -5 -5 -14 -9 -19 -9 -6 0 -13 -6 -16 -14 -3
-9 0 -11 9 -5 12 7 12 5 0 -9 -16 -20 -26 -23 -15 -4 5 8 2 8 -9 -2 -18 -14
-24 -36 -7 -26 16 10 11 -1 -7 -16 -15 -12 -16 -12 -8 1 5 9 0 8 -13 -4 -24
-21 -31 -46 -7 -26 28 24 15 4 -17 -26 -18 -16 -24 -19 -14 -6 42 49 5 16 -89
-80 -55 -57 -82 -87 -60 -68 39 34 39 34 11 3 -38 -42 -183 -146 -207 -148
-10 -1 -22 -5 -26 -10 -5 -4 -2 -5 5 -1 6 4 12 5 12 2 0 -12 -161 -86 -172
-80 -6 4 -8 3 -4 -4 8 -13 -29 -26 -45 -16 -8 5 -9 3 -4 -6 6 -10 3 -12 -13
-8 -12 4 -20 2 -17 -2 7 -12 -32 -23 -46 -14 -7 4 -9 3 -5 -4 8 -13 -48 -27
-65 -16 -8 5 -9 3 -4 -6 6 -10 1 -12 -18 -8 -16 3 -24 1 -20 -5 4 -6 -4 -8
-20 -5 -15 3 -24 2 -22 -3 7 -10 -100 -23 -116 -14 -7 5 -10 4 -6 -3 10 -15
-165 -26 -277 -18 -124 10 -176 17 -171 26 2 3 -10 4 -27 2 -19 -3 -28 -1 -25
5 4 6 -4 8 -20 5 -16 -3 -24 -1 -20 5 4 6 -4 8 -20 5 -16 -3 -24 -1 -20 5 4 6
-4 8 -20 5 -17 -3 -24 -1 -19 6 4 6 -2 8 -16 4 -13 -3 -19 -1 -15 5 5 7 -1 9
-15 5 -16 -4 -19 -2 -13 8 5 9 4 11 -4 6 -16 -10 -53 3 -45 16 5 7 2 8 -5 4
-15 -10 -73 13 -65 25 3 5 -3 6 -12 2 -12 -4 -15 -3 -10 5 4 8 2 10 -8 6 -18
-7 -59 14 -51 26 4 6 -1 7 -11 3 -12 -4 -15 -3 -10 5 4 7 2 10 -7 6 -14 -5
-189 104 -203 128 -4 7 3 4 17 -7 l24 -20 -24 28 c-25 27 -49 38 -35 15 11
-19 -105 83 -146 128 -19 21 -27 32 -17 25 9 -7 17 -9 17 -4 0 13 -35 45 -42
38 -2 -3 -15 7 -29 22 -13 15 -16 21 -6 14 25 -19 21 2 -5 25 -13 12 -18 13
-13 4 8 -13 7 -13 -8 -1 -19 15 -23 26 -6 15 7 -4 10 -1 7 7 -3 8 -10 14 -16
14 -6 0 -17 7 -24 15 -11 12 -11 12 5 1 10 -8 17 -9 17 -3 0 11 -19 27 -32 27
-3 0 -10 4 -15 9 -5 5 -2 6 6 1 9 -5 12 -3 9 6 -3 8 -10 14 -16 14 -5 0 -14 4
-19 9 -5 5 -2 6 6 1 7 -4 12 -4 10 1 -13 29 -122 240 -126 244 -4 3 -3 -1 2
-9 5 -9 4 -12 -2 -8 -6 4 -16 21 -22 38 -9 27 -9 29 3 20 12 -10 13 -8 9 9 -3
11 -10 23 -16 27 -6 4 -7 1 -2 -7 6 -9 4 -11 -4 -5 -7 4 -11 16 -8 26 3 12 1
17 -6 12 -6 -4 -8 2 -5 15 4 14 2 20 -4 16 -7 -5 -9 2 -6 19 3 16 1 24 -5 20
-6 -4 -8 4 -5 20 3 16 1 24 -5 20 -6 -3 -8 6 -5 25 2 17 1 29 -3 26 -10 -6
-23 101 -15 121 3 9 2 13 -4 10 -6 -4 -10 51 -10 155 0 89 3 159 8 157 4 -3 5
15 3 40 -2 26 1 43 6 40 5 -3 7 10 5 30 -3 22 -1 33 5 30 6 -4 8 4 5 20 -3 15
-1 24 5 20 5 -4 8 7 5 25 -3 20 -1 29 6 24 6 -4 8 2 4 16 -3 13 -1 19 5 15 6
-4 8 3 6 17 -3 13 1 27 8 31 8 6 10 4 4 -6 -5 -9 -5 -11 2 -4 5 6 20 39 33 75
13 36 41 100 62 143 21 43 36 83 32 89 -4 6 -3 8 4 4 5 -3 20 9 31 28 24 38
26 50 9 40 -8 -4 -10 -3 -5 2 5 5 10 7 11 4 4 -8 36 21 36 32 0 6 -8 4 -17 -3
-16 -13 -17 -12 -5 3 8 10 19 16 24 15 6 -1 13 4 16 12 3 10 0 11 -9 5 -12 -6
-12 -5 -1 8 7 9 23 15 35 14 13 -2 574 -348 1247 -770z"/>
</g>
</svg>
