<?xml version="1.0" standalone="no"?>
<!DOCTYPE svg PUBLIC "-//W3C//DTD SVG 20010904//EN"
 "http://www.w3.org/TR/2001/REC-SVG-20010904/DTD/svg10.dtd">
<svg version="1.0" xmlns="http://www.w3.org/2000/svg"
 width="300.000000pt" height="300.000000pt" viewBox="0 0 300.000000 300.000000"
 preserveAspectRatio="xMidYMid meet">
<metadata>
Created by potrace 1.10, written by Peter Selinger 2001-2011
</metadata>
<g transform="translate(0.000000,300.000000) scale(0.100000,-0.100000)"
fill="#000000" stroke="none">
<path d="M2295 2451 c-16 -10 -94 -84 -173 -163 l-143 -145 -82 30 c-302 107
-638 86 -931 -59 -242 -120 -480 -331 -641 -568 -52 -77 -57 -89 -52 -125 6
-48 21 -69 130 -180 90 -92 205 -185 310 -251 l69 -43 -115 -116 c-63 -64
-120 -126 -126 -138 -46 -92 60 -198 152 -152 31 16 1745 1728 1763 1761 54
102 -63 211 -161 149z m-756 -476 c33 -16 41 -33 41 -80 0 -44 -33 -70 -101
-79 -122 -16 -209 -103 -225 -226 -9 -65 -37 -101 -81 -102 -75 -2 -104 54
-83 158 34 163 156 290 315 330 68 17 101 17 134 -1z m-522 -128 c-51 -86 -70
-163 -70 -277 0 -118 23 -202 81 -295 l31 -50 -51 -52 -52 -53 -55 32 c-64 36
-150 93 -202 134 -84 68 -159 140 -159 153 0 35 199 245 320 338 50 38 168
113 178 113 2 0 -7 -19 -21 -43z"/>
<path d="M2212 1867 c-39 -40 -72 -77 -72 -84 0 -6 12 -18 26 -28 78 -51 294
-285 294 -318 0 -8 -37 -47 -82 -87 -285 -249 -583 -366 -915 -359 l-124 3
-91 -92 c-51 -50 -89 -94 -85 -98 37 -37 385 -55 552 -29 331 52 641 219 898
483 153 159 154 169 13 357 -72 96 -300 325 -324 325 -10 0 -50 -33 -90 -73z"/>
<path d="M1705 1360 c-181 -181 -326 -333 -322 -337 5 -4 56 -7 115 -7 84 1
121 6 172 23 172 60 302 190 360 361 25 71 34 260 15 279 -7 7 -114 -93 -340
-319z"/>
</g>
</svg>
