<?xml version="1.0" encoding="utf-8"?>
<!-- Generator: Adobe Illustrator 21.1.0, SVG Export Plug-In . SVG Version: 6.00 Build 0)  -->
<svg version="1.1" id="Layer_1" xmlns="http://www.w3.org/2000/svg" xmlns:xlink="http://www.w3.org/1999/xlink" x="0px" y="0px"
	 viewBox="0 0 240 240" enable-background="new 0 0 240 240" xml:space="preserve">
<g>
	<g>
		<g>
			<path d="M105.6,49.2c8.3-14.2,22-14.2,30.3,0l80.5,137.7c8.3,14.2,1.6,25.9-14.9,25.9H40c-16.5,0-23.2-11.7-14.9-25.9L105.6,49.2
				z M129.4,113.6c-0.1-4.2-0.2-10-0.2-12.9c0-2.9,0.5-16.8,0.5-23.7c0,0,0,0,0.1-6.3c0-2,0-2,0-2c-1.5-0.9-5.9-2-9.7-2.4
				c0,0,0,0-3.4,0.5c-2.3,0.3-2.3,0.3-2.3,0.3c-0.5,2.2-0.9,6.7-0.9,9.9s0.4,16.5,0.5,22.2c0,5.7,0.5,26.1,0.5,32.8
				c0,6.7,1.2,25.7,1.8,27.3c0,0,0,0,1.7,0.1c2.5,0.2,5.1,0.2,7.6,0c1.2-0.1,2.7-0.4,2.6-2.1c-0.1-2.1-0.1-2.1-0.1-2.1
				c0.3-2.2,0.5-14.4,0.4-27c0,0,0,0,0.8-11.5C129.4,113.6,129.4,113.6,129.4,113.6z M131.2,185.6c-0.2-2.3-0.3-5.4-0.3-6.9
				c0,0,0,0-0.1-1.3c-0.2-1.9-0.8-3.7-2.3-4.7c-3.9-2.7-8.1-2-12.2-0.9c-1.3,0.4-2.2,1.3-2.9,2.7c-1.8,3.8-1,7.8-0.7,11.6
				c0.1,1.4,0.1,1.4,0.1,1.4c1.6,1.4,4.1,2.8,5.7,3c1.6,0.2,7.7,0.1,10-0.6c0,0,0,0,1.4-2.2C131.2,185.6,131.2,185.6,131.2,185.6z"
				/>
		</g>
	</g>
</g>
<g>
	<g>
		<g>
			<path fill="#FFFFFF" d="M140,181.9c0,5.5-4.5,10-10,10h-12.8c-5.5,0-10-4.5-10-10V79.2c0-5.5,4.5-10,10-10H130
				c5.5,0,10,4.5,10,10V181.9z"/>
		</g>
		<g>
			<path fill="#E1121D" d="M110.7,50.2c5.6-9.5,14.6-9.5,20.2,0l81.6,139.6c5.6,9.5,1.1,17.3-9.9,17.3H39c-11,0-15.5-7.8-9.9-17.3
				L110.7,50.2z M128.7,116c-0.1-3.9-0.2-9.2-0.2-11.9c0-2.7,0.5-15.4,0.5-21.8c0,0,0,0,0.1-5.7c0-1.8,0-1.8,0-1.8
				c-1.4-0.9-5.4-1.8-8.9-2.2c0,0,0,0-3.2,0.5c-2.2,0.3-2.2,0.3-2.2,0.3c-0.5,2-0.9,6.1-0.8,9.1c0,3,0.4,15.2,0.4,20.4
				c0,5.2,0.5,24,0.5,30.1s1.1,23.6,1.7,25.1c0,0,0,0,1.6,0.1c2.3,0.1,4.7,0.1,7,0c1.1-0.1,2.4-0.4,2.4-1.9
				c-0.1-1.9-0.1-1.9-0.1-1.9c0.3-2,0.5-12.7,0.4-23.7c0,0,0-1.1,0.7-11.6C128.7,116,128.7,116,128.7,116z M130.3,182.1
				c-0.2-2.1-0.3-5-0.2-6.3c0,0,0,0-0.1-1.2c-0.1-1.7-0.7-3.4-2.2-4.4c-3.5-2.5-7.4-1.9-11.2-0.8c-1.2,0.3-2.1,1.2-2.7,2.5
				c-1.7,3.5-0.9,7.1-0.6,10.7c0.1,1.3,0.1,1.3,0.1,1.3c1.4,1.3,3.8,2.6,5.3,2.7c1.5,0.2,7,0,9.2-0.6c0,0,0,0,1.3-2
				C130.3,182.1,130.3,182.1,130.3,182.1z"/>
		</g>
	</g>
</g>
</svg>
