<?xml version="1.0" encoding="utf-8"?>
<!-- Generator: Adobe Illustrator 16.0.3, SVG Export Plug-In . SVG Version: 6.00 Build 0)  -->
<!DOCTYPE svg PUBLIC "-//W3C//DTD SVG 1.1//EN" "http://www.w3.org/Graphics/SVG/1.1/DTD/svg11.dtd">
<svg version="1.1" id="Layer_1" xmlns="http://www.w3.org/2000/svg" xmlns:xlink="http://www.w3.org/1999/xlink" x="0px" y="0px"
	 width="40px" height="40px" viewBox="0 0 40 40" enable-background="new 0 0 40 40" xml:space="preserve">
<g>
	<g>
		<g>
			<path fill="#FFFFFF" stroke="#FFFFFF" stroke-width="0.3926" stroke-miterlimit="10" d="M13.082,22.851l-0.087-0.766h-0.039
				c-0.338,0.477-0.991,0.902-1.859,0.902c-1.229,0-1.856-0.866-1.856-1.745c0-1.469,1.305-2.272,3.652-2.261v-0.125
				c0-0.502-0.137-1.407-1.381-1.407c-0.564,0-1.155,0.176-1.581,0.453l-0.252-0.729c0.503-0.327,1.23-0.54,1.996-0.54
				c1.859,0,2.311,1.269,2.311,2.486v2.272c0,0.528,0.026,1.043,0.102,1.458H13.082z M12.919,19.748
				c-1.205-0.025-2.574,0.188-2.574,1.368c0,0.717,0.477,1.056,1.043,1.056c0.789,0,1.293-0.503,1.469-1.017
				c0.036-0.114,0.063-0.239,0.063-0.354V19.748z"/>
			<path fill="#FFFFFF" stroke="#FFFFFF" stroke-width="0.3926" stroke-miterlimit="10" d="M15.721,22.851
				c0.026-0.415,0.052-1.029,0.052-1.57v-7.347h1.092v3.818h0.024c0.39-0.679,1.094-1.118,2.072-1.118
				c1.508,0,2.575,1.256,2.563,3.102c0,2.173-1.371,3.252-2.726,3.252c-0.879,0-1.583-0.339-2.035-1.142h-0.037l-0.051,1.005H15.721
				z M16.864,20.414c0,0.139,0.024,0.275,0.051,0.402c0.213,0.766,0.854,1.293,1.658,1.293c1.155,0,1.846-0.942,1.846-2.336
				c0-1.219-0.628-2.261-1.809-2.261c-0.753,0-1.458,0.515-1.683,1.356c-0.024,0.125-0.063,0.276-0.063,0.451V20.414z"/>
			<path fill="#FFFFFF" stroke="#FFFFFF" stroke-width="0.3926" stroke-miterlimit="10" d="M27.254,22.624
				c-0.288,0.15-0.93,0.352-1.745,0.352c-1.832,0-3.025-1.244-3.025-3.102c0-1.871,1.28-3.229,3.265-3.229
				c0.652,0,1.229,0.164,1.532,0.314l-0.252,0.854c-0.264-0.15-0.678-0.29-1.28-0.29c-1.394,0-2.147,1.03-2.147,2.299
				c0,1.407,0.903,2.273,2.109,2.273c0.629,0,1.043-0.164,1.356-0.303L27.254,22.624z"/>
		</g>
	</g>
	<rect x="1" y="1" fill="none" stroke="#FFFFFF" stroke-miterlimit="10" width="33" height="37"/>
</g>
</svg>
