<?xml version="1.0" standalone="no"?>
<!DOCTYPE svg PUBLIC "-//W3C//DTD SVG 20010904//EN"
 "http://www.w3.org/TR/2001/REC-SVG-20010904/DTD/svg10.dtd">
<svg version="1.0" xmlns="http://www.w3.org/2000/svg"
 width="30.000000pt" height="30.000000pt" viewBox="0 0 30.000000 30.000000"
 preserveAspectRatio="xMidYMid meet">
<metadata>
Created by potrace 1.10, written by Peter Selinger 2001-2011
</metadata>
<g transform="translate(0.000000,30.000000) scale(0.100000,-0.100000)"
fill="#0ac31d" stroke="none">
<path d="M229 242 c-31 -34 -69 -89 -85 -121 -16 -33 -31 -60 -34 -60 -7 0
-50 68 -50 80 0 5 -4 9 -10 9 -21 0 -9 -51 23 -94 17 -25 34 -45 37 -45 3 -1
20 28 38 63 18 36 59 91 91 123 47 47 56 62 51 82 -5 23 -9 21 -61 -37z"/>
</g>
</svg>
