<?xml version="1.0" encoding="utf-8"?>
<!-- Generator: Adobe Illustrator 16.0.4, SVG Export Plug-In . SVG Version: 6.00 Build 0)  -->
<!DOCTYPE svg PUBLIC "-//W3C//DTD SVG 1.1//EN" "http://www.w3.org/Graphics/SVG/1.1/DTD/svg11.dtd">
<svg version="1.1" xmlns="http://www.w3.org/2000/svg" xmlns:xlink="http://www.w3.org/1999/xlink" x="0px" y="0px" width="16px"
	 height="16px" viewBox="0 0 16 16" enable-background="new 0 0 16 16" xml:space="preserve">
<g id="Layer_3">
	<circle fill-rule="evenodd" clip-rule="evenodd" fill="#010000" cx="8.001" cy="8.039" r="8"/>
	<circle fill-rule="evenodd" clip-rule="evenodd" fill="#FFFFFF" cx="8.001" cy="8.039" r="6.628"/>
</g>
<g id="Layer_2_1_">
	<g>
		<ellipse fill-rule="evenodd" clip-rule="evenodd" fill="#FF5D15" cx="8.057" cy="8.111" rx="5.443" ry="5.237"/>
		<path fill-rule="evenodd" clip-rule="evenodd" fill="#A72812" d="M5.275,12.631c-0.24-0.101-0.441-0.262-0.646-0.417
			c0.015-0.013,0.028-0.028,0.043-0.045c0.212,0.142,0.424,0.282,0.635,0.424C5.297,12.606,5.286,12.619,5.275,12.631z"/>
		<path fill-rule="evenodd" clip-rule="evenodd" fill="#A72812" d="M5.584,12.8c-0.072-0.036-0.142-0.072-0.213-0.106
			c0.015-0.016,0.028-0.032,0.042-0.047c0.08,0.017,0.151,0.049,0.209,0.107C5.61,12.77,5.597,12.784,5.584,12.8z"/>
		<path fill-rule="evenodd" clip-rule="evenodd" fill="#A72812" d="M5.371,12.693c-0.031-0.021-0.064-0.042-0.096-0.062
			c0.011-0.012,0.022-0.024,0.033-0.038c0.035,0.018,0.071,0.036,0.106,0.054C5.399,12.661,5.386,12.678,5.371,12.693z"/>
		<path fill-rule="evenodd" clip-rule="evenodd" fill="#A72812" d="M4.629,12.214c-0.026-0.024-0.052-0.053-0.078-0.079
			c0.012-0.016,0.025-0.028,0.039-0.04c0.027,0.024,0.056,0.049,0.083,0.074C4.657,12.186,4.644,12.201,4.629,12.214z"/>
		<path fill-rule="evenodd" clip-rule="evenodd" fill="#D80F25" d="M12.869,6.342c-0.148,0.198,0.01,0.392,0.008,0.586
			c-0.002,0.097,0.057,0.2-0.1,0.216c-0.252-0.536-0.502-1.072-0.754-1.607c-0.088-0.186-0.291-0.305-0.312-0.53
			c-0.02-0.029-0.039-0.058-0.059-0.086l0.004,0.006c0.002-0.082-0.031-0.138-0.111-0.162l0.004,0.004
			c-0.018-0.02-0.037-0.039-0.057-0.059l0.006,0.006c-0.037-0.038-0.072-0.075-0.109-0.113l0.006,0.003
			c-0.02-0.002-0.037-0.004-0.057-0.006c-0.291-0.241-0.553-0.513-0.879-0.713c-0.588-0.36-1.188-0.694-1.903-0.682
			C8.13,3.214,7.71,3.119,7.288,3.131C6.795,3.145,6.319,3.282,5.87,3.498c-0.064,0.031-0.128,0.06-0.192,0.09
			C5.629,3.61,5.568,3.639,5.534,3.585c-0.051-0.08,0.029-0.104,0.08-0.133c0.379-0.216,0.788-0.363,1.211-0.445
			C7.768,2.825,8.7,2.873,9.613,3.199c0.316,0.113,0.619,0.257,0.906,0.428c0.477,0.283,1.002,0.49,1.354,0.964
			C12.281,5.135,12.707,5.662,12.869,6.342z"/>
		<path fill-rule="evenodd" clip-rule="evenodd" fill="#D80F25" d="M10.613,8.159c0.131-0.074,0.305-0.032,0.418-0.155
			c0.234-0.021,0.471-0.061,0.705-0.057c0.201,0.003,0.303-0.14,0.373-0.259c0.072-0.122-0.021-0.24-0.178-0.29
			c-0.092-0.028-0.064-0.131-0.049-0.208c0.062,0.048,0.076,0.028,0.078-0.044c0-0.318,0.059-0.63,0.121-0.94
			c0.262,0.498,0.35,1.027,0.297,1.582c-0.012,0.143,0.047,0.295-0.039,0.432c-0.029,0.001-0.062,0.002-0.094,0.003
			c-0.064-0.148-0.164-0.057-0.256-0.034c0.084,0.02,0.164,0.041,0.248,0.061c0.004,0.04-0.018,0.065-0.057,0.072
			c-0.059,0.138-0.059,0.274,0.008,0.414c0.049,0.008,0.096,0.015,0.145,0.024c0.025,0.189-0.201,0.24-0.225,0.405
			c-0.025,0-0.051,0-0.076,0.002c0-0.254,0-0.51,0-0.775c-0.16,0.046-0.014,0.277-0.146,0.245C11.74,8.6,11.844,8.418,11.811,8.308
			c-0.008-0.016-0.002-0.035-0.004-0.052c-0.002-0.048,0.033-0.118-0.047-0.127c-0.064-0.009-0.154-0.042-0.189,0.039
			c-0.033,0.081-0.123,0.13-0.113,0.232c0.037,0.393-0.062,0.771-0.107,1.154c0.01,0.282-0.057,0.562-0.002,0.843
			c0.047,0.258-0.207,0.292-0.328,0.381c-0.072,0.054-0.17,0.15-0.305,0.167c-0.182,0.02-0.203-0.022-0.164-0.178
			c0.119-0.465,0.049-0.938,0.051-1.406c0-0.028-0.002-0.072-0.016-0.076c-0.328-0.121-0.16-0.424-0.236-0.638
			c0.102-0.079,0.277,0.142,0.352-0.096c0.018-0.06,0.135,0.002,0.111,0.066c-0.086,0.224,0.023,0.425,0.039,0.637
			c-0.16,0.03-0.119,0.159-0.127,0.264c-0.002-0.079,0.041-0.171-0.057-0.233c-0.078,0.095-0.061,0.183-0.006,0.27
			c0.088,0.161-0.01,0.362,0.096,0.524C10.9,9.967,10.727,9.77,10.9,9.671c0,0.237,0.002,0.465-0.002,0.69
			c-0.002,0.043-0.131,0.083-0.006,0.13c0.104,0.04,0.117-0.037,0.125-0.111c0.027-0.28,0.066-0.561,0.006-0.843
			c0.014-0.029,0.025-0.06,0.037-0.09c0.002-0.004-0.012-0.011-0.016-0.017c-0.008,0.032-0.018,0.064-0.025,0.099
			c-0.053-0.072-0.051-0.157-0.059-0.241c0.061-0.104,0.104-0.226,0.184-0.312c0.305-0.324,0.311-0.531,0.002-0.797
			c0.059-0.085,0.162-0.013,0.24-0.063c-0.088-0.063-0.199-0.076-0.244-0.008C10.98,8.358,10.797,8.219,10.613,8.159z
			 M11.217,10.075c0.008-0.171,0.016-0.344,0.023-0.518C11.102,9.723,11.145,9.898,11.217,10.075z M11.262,9.097l-0.008,0.016
			l0.012,0.002L11.262,9.097z"/>
		<path fill-rule="evenodd" clip-rule="evenodd" fill="#D80F25" d="M3.043,8.845C2.91,8.902,2.983,9.012,2.997,9.086
			c0.049,0.246,0.109,0.49,0.182,0.731c0.039,0.129,0.014,0.182-0.121,0.178c-0.449-0.951-0.511-1.948-0.34-2.968
			c0.098-0.588,0.311-1.138,0.611-1.652C3.53,5.03,3.739,4.693,4.163,4.584c0.013,0.013,0.026,0.026,0.04,0.04
			C4.095,4.917,3.853,5.121,3.688,5.376C3.438,5.761,3.281,6.176,3.165,6.603c-0.186,0.682-0.26,1.38-0.123,2.085
			C3.052,8.739,3.043,8.794,3.043,8.845z"/>
		<path fill-rule="evenodd" clip-rule="evenodd" fill="#D80F25" d="M3.636,6.952C3.713,6.995,3.79,6.92,3.864,6.946
			c0.085,0.029,0.101,0.067-0.006,0.091C3.747,7.051,3.66,7.15,3.539,7.129c-0.018,0.147-0.034,0.298,0.06,0.426
			C3.683,7.671,3.76,7.679,3.816,7.527c0.048-0.134,0.058-0.271,0.06-0.41c0.096,0,0.177-0.021,0.194-0.134
			C4.083,6.898,4.133,6.86,4.218,6.873c0.097,0.016,0.086,0.095,0.093,0.164c0.008,0.07,0.017,0.14,0.027,0.208
			c0.065,0.439,0.065,0.438-0.365,0.489C3.931,7.739,3.891,7.766,3.85,7.783C3.827,7.888,3.987,7.856,3.964,7.97
			c-0.19,0.042-0.389,0.031-0.587,0.02C3.38,7.683,3.461,7.385,3.5,7.083C3.511,7.003,3.552,6.955,3.636,6.952z"/>
		<path fill-rule="evenodd" clip-rule="evenodd" fill="#D80F25" d="M4.499,4.902c0,0.348-0.1,0.638-0.384,0.876
			c-0.129,0.107-0.083,0.339-0.193,0.5C3.847,6.388,3.78,6.417,3.668,6.399C3.736,6.165,3.733,5.838,3.889,5.72
			C4.188,5.496,4.313,5.187,4.499,4.902z"/>
		<path fill-rule="evenodd" clip-rule="evenodd" fill="#D80F25" d="M4.009,10.435c-0.078,0.148,0.051,0.22,0.116,0.316
			c0.002,0.108,0.088,0.167,0.139,0.245c0.096,0.149,0.255,0.271,0.229,0.477c-0.347-0.309-0.614-0.684-0.868-1.068
			C3.755,10.374,3.886,10.357,4.009,10.435z"/>
		<path fill-rule="evenodd" clip-rule="evenodd" fill="#D80F25" d="M11.49,10.687c-0.125-0.379-0.068-0.752,0.018-1.123
			c-0.002,0,0.012,0.005,0.012,0.005v0.016c0.137,0.165-0.018,0.389,0.107,0.555c-0.049-0.189,0.123-0.411-0.082-0.579
			c0.092-0.042,0.184-0.01,0.275,0.004c-0.049,0.244-0.057,0.492-0.059,0.742C11.537,10.338,11.596,10.569,11.49,10.687z"/>
		<path fill-rule="evenodd" clip-rule="evenodd" fill="#D80F25" d="M9.477,12.506c-0.271,0.24-0.6,0.153-0.912,0.159
			c-0.04,0.002-0.069-0.032-0.054-0.068c0.012-0.026,0.052-0.051,0.082-0.055c0.084-0.008,0.167-0.006,0.255-0.03
			c0.148-0.042,0.256-0.082,0.168-0.286c0.104,0.105,0.182,0.222,0.334,0.184C9.391,12.441,9.434,12.474,9.477,12.506z"/>
		<path fill-rule="evenodd" clip-rule="evenodd" fill="#D80F25" d="M4.477,4.388C4.461,4.38,4.422,4.372,4.42,4.359
			C4.416,4.328,4.418,4.284,4.438,4.264C4.699,3.988,5.02,3.793,5.342,3.599c0.017-0.009,0.054,0,0.072,0.013
			C5.447,3.64,5.438,3.685,5.411,3.703c-0.308,0.214-0.62,0.423-0.9,0.675C4.505,4.383,4.494,4.383,4.477,4.388z"/>
		<path fill-rule="evenodd" clip-rule="evenodd" fill="#FF5D15" d="M11.762,10.306c0.002-0.25,0.01-0.498,0.059-0.742
			c0.088-0.125,0.174-0.249,0.213-0.398c0.025-0.002,0.051-0.002,0.076-0.002c-0.053,0.153-0.104,0.31-0.156,0.465
			c-0.186,0.134-0.098,0.312-0.078,0.48C11.838,10.175,11.855,10.275,11.762,10.306z"/>
		<path fill-rule="evenodd" clip-rule="evenodd" fill="#FF5D15" d="M12.246,8.221c0.031-0.001,0.064-0.002,0.094-0.003
			c-0.002,0.179-0.004,0.357-0.006,0.54c-0.049-0.01-0.096-0.017-0.145-0.024c0.043-0.14,0.07-0.277-0.008-0.414
			c0.039-0.007,0.061-0.032,0.057-0.072C12.242,8.24,12.244,8.23,12.246,8.221z"/>
		<path fill-rule="evenodd" clip-rule="evenodd" fill="#D80F25" d="M11.984,6.003c0,0.106,0,0.214,0,0.321c-0.027,0-0.053,0-0.078,0
			c-0.094-0.177-0.016-0.374-0.031-0.561C11.936,5.833,11.898,5.945,11.984,6.003z"/>
		<path fill-rule="evenodd" clip-rule="evenodd" fill="#D80F25" d="M4.666,9.842c0.009-0.106,0.067-0.224,0.015-0.298
			C4.595,9.455,4.606,9.764,4.512,9.54c-0.03-0.069-0.104-0.057-0.101,0.012c0.01,0.21-0.092,0.429,0.052,0.633
			C4.25,10.104,4.202,9.429,4.364,8.966c0.079-0.252-0.005-0.518,0.069-0.77c0.027-0.093,0.023-0.195,0.152-0.205
			C4.268,7.834,4.194,7.863,4.161,8.145c-0.106-0.171-0.241-0.02-0.362-0.02C3.814,8.276,3.83,8.426,3.641,8.495
			c-0.086,0.032-0.108,0.124-0.106,0.2C3.537,8.868,3.56,9.04,3.575,9.213C3.597,9.262,3.621,9.31,3.644,9.358
			C3.612,9.499,3.766,9.56,3.776,9.705c0.018,0.246,0.02,0.542,0.344,0.643c0.014,0.004,0.009,0.066,0.014,0.101
			c0.108,0.093,0.226-0.222,0.333,0.008c0.036,0.077,0.102,0.1,0.173,0.053c0.067-0.046,0.075-0.125,0.042-0.189
			C4.604,10.16,4.653,10.003,4.666,9.842z"/>
		<path fill-rule="evenodd" clip-rule="evenodd" fill="#D80F25" d="M12.828,8.017c0.066,0.112,0.062,0.222-0.012,0.328
			C12.752,8.233,12.721,8.122,12.828,8.017z"/>
		<path fill-rule="evenodd" clip-rule="evenodd" fill="#D80F25" d="M12.82,7.582c0.047,0.029,0.041,0.059,0.004,0.09
			c-0.031,0.026-0.062,0.074-0.092,0.074c-0.049-0.002-0.057-0.057-0.049-0.099C12.701,7.567,12.758,7.568,12.82,7.582z"/>
		<path fill-rule="evenodd" clip-rule="evenodd" fill="#D80F25" d="M3.633,6.479c0,0.022,0,0.044,0,0.067
			C3.597,6.523,3.6,6.501,3.633,6.479z"/>
		<polygon fill-rule="evenodd" clip-rule="evenodd" fill="#D80F25" points="3.085,10.076 3.104,10.086 3.102,10.107 3.084,10.098 		
			"/>
		<path fill-rule="evenodd" clip-rule="evenodd" fill="#FF5D15" d="M11.652,4.92c0.02,0.029,0.039,0.057,0.059,0.086
			C11.691,4.978,11.672,4.949,11.652,4.92z"/>
		<path fill-rule="evenodd" clip-rule="evenodd" fill="#D80F25" d="M4.163,4.584c0.019-0.017,0.04-0.028,0.055,0
			c0.004,0.008-0.01,0.026-0.015,0.04C4.189,4.61,4.176,4.598,4.163,4.584z"/>
		<path fill-rule="evenodd" clip-rule="evenodd" fill="#FF5D15" d="M11.338,4.6c0.02,0.002,0.037,0.004,0.057,0.006
			C11.375,4.604,11.357,4.602,11.338,4.6z"/>
		<path fill-rule="evenodd" clip-rule="evenodd" fill="#D80F25" d="M7.338,7.706c0.019,0.132,0.026,0.21,0.042,0.287
			c0.011,0.056,0.047,0.095,0.109,0.095c0.046,0,0.086-0.014,0.11-0.059c0.025-0.048-0.002-0.081-0.03-0.118
			c-0.146-0.19,0.042-0.348,0.062-0.524c0.004-0.032,0.12-0.076,0.189-0.035c0.074,0.044,0.054,0.12,0.048,0.191
			c-0.017,0.208-0.104,0.418,0,0.638c0.265-0.155,0.056-0.396,0.133-0.587c0.057-0.145,0.142-0.28,0.301-0.199
			C8.432,7.458,8.556,7.509,8.7,7.501c0.056-0.004,0.083,0.026,0.087,0.074C8.795,7.63,8.785,7.676,8.726,7.707
			C8.465,7.85,8.466,7.85,8.547,8.174c0.108,0.042,0.086-0.125,0.198-0.108c0,0.083,0.003,0.17-0.001,0.256
			C8.74,8.354,8.732,8.4,8.71,8.414C8.496,8.545,8.494,8.543,8.413,8.816c-0.018-0.191-0.031-0.34-0.048-0.52
			c-0.153,0.174-0.062,0.38-0.176,0.527C8.145,8.798,8.097,8.691,8.09,8.709C8.014,8.917,7.852,8.637,7.77,8.771
			C7.655,8.615,7.531,8.778,7.409,8.766C7.224,8.744,7.047,8.754,7.088,8.482c0.007-0.04-0.035-0.077-0.097-0.093
			C6.945,8.477,7.064,8.547,7.02,8.629C6.997,8.673,6.955,8.764,6.923,8.712C6.694,8.355,6.728,8.917,6.565,8.778
			C6.469,8.754,6.604,8.577,6.458,8.556C6.386,8.543,6.462,8.677,6.372,8.682c-0.081-0.145-0.081-0.303-0.076-0.46
			C6.3,8.083,6.269,7.922,6.517,7.995C6.602,8.02,6.718,7.923,6.743,7.826c0.042-0.16,0.118-0.106,0.178-0.04
			C7.15,8.041,7.146,8.044,7.338,7.706z M8.329,8.228c0.085-0.21,0.162-0.362,0.036-0.548C8.255,7.85,8.233,8,8.329,8.228z"/>
		<path fill-rule="evenodd" clip-rule="evenodd" fill="#D80F25" d="M9.867,11.061c-0.422,0.057-0.842,0.028-1.26-0.044
			c-0.015-0.002-0.024-0.024-0.04-0.034C8.484,10.932,8.355,11.026,8.29,10.9c0.118-0.039,0.208-0.166,0.358-0.113
			c0.075,0.028,0.107-0.024,0.145-0.077c0.166-0.237,0.285-0.229,0.436,0.049c0.035-0.167,0.117-0.29,0.064-0.449
			c-0.021-0.061,0-0.138,0.01-0.208c0.02-0.106,0.115-0.097,0.188-0.116c0.105-0.028,0.086,0.061,0.1,0.112
			c0.018,0.061,0.025,0.129,0.1,0.138c0.082,0.014,0.105-0.062,0.109-0.119c0.01-0.125,0.166-0.061,0.191-0.231
			c0.025,0.262,0.045,0.449,0.068,0.677c0.119-0.136,0.068-0.274,0.115-0.39l0.014,0.019c-0.033,0.298-0.004,0.593,0.018,0.889
			c-0.068,0.034-0.127,0.002-0.188-0.021c-0.012-0.097-0.021-0.191-0.033-0.315C9.887,10.857,9.906,10.967,9.867,11.061z"/>
		<path fill-rule="evenodd" clip-rule="evenodd" fill="#A72812" d="M11.883,7.189c-0.016,0.078-0.043,0.181,0.049,0.208
			c0.156,0.049,0.25,0.168,0.178,0.29c-0.07,0.119-0.172,0.262-0.373,0.259c-0.234-0.004-0.471,0.036-0.705,0.057
			c-0.168-0.015-0.094-0.217-0.211-0.273c0-0.029,0.002-0.059,0.002-0.089l-0.012-0.009l0.012,0.01
			c0.031,0.022,0.082,0.027,0.086-0.008c0.021-0.205,0.172-0.372,0.139-0.595c-0.023-0.163,0.012-0.329,0.145-0.456
			c0.18,0.031,0.312,0.222,0.426,0.251C11.852,6.896,11.855,7.027,11.883,7.189z"/>
		<path fill-rule="evenodd" clip-rule="evenodd" fill="#A72812" d="M12.033,9.165c-0.039,0.149-0.125,0.273-0.213,0.398
			c-0.092-0.014-0.184-0.046-0.275-0.004c-0.01,0.008-0.018,0.015-0.025,0.024V9.568c0,0-0.014-0.005-0.012-0.005
			c-0.053-0.006-0.107-0.008-0.158-0.01c0.045-0.383,0.145-0.762,0.107-1.154c-0.01-0.103,0.08-0.152,0.113-0.232
			c0.035-0.081,0.125-0.047,0.189-0.039c0.08,0.009,0.045,0.079,0.047,0.127c0.002,0.017-0.004,0.037,0.004,0.052
			c0.033,0.11-0.07,0.292,0.076,0.327c0.133,0.032-0.014-0.199,0.146-0.245C12.033,8.655,12.033,8.911,12.033,9.165z"/>
		<path fill-rule="evenodd" clip-rule="evenodd" fill="#A72812" d="M10.852,9.254c-0.016-0.212-0.125-0.413-0.039-0.637
			c0.023-0.064-0.094-0.126-0.111-0.066c-0.074,0.237-0.25,0.017-0.352,0.096c-0.004-0.034-0.006-0.071-0.012-0.105
			c-0.033-0.217-0.051-0.422,0.275-0.382c0.184,0.061,0.367,0.2,0.529-0.051c0.045-0.068,0.156-0.056,0.244,0.008
			c-0.078,0.051-0.182-0.022-0.24,0.063c0.309,0.266,0.303,0.473-0.002,0.797c-0.08,0.087-0.123,0.209-0.184,0.312
			C10.926,9.277,10.889,9.266,10.852,9.254z"/>
		<path fill-rule="evenodd" clip-rule="evenodd" fill="#A72812" d="M5.033,11.522c0.144,0.07,0.293,0.109,0.385,0.276
			c0.073,0.133,0.233,0.205,0.406,0.173c0.005,0.14,0.062,0.182,0.214,0.224c0.311,0.079,0.604,0.23,0.902,0.353
			c-0.177,0.059-0.341,0.009-0.51-0.044c-0.665-0.208-1.223-0.597-1.771-1.01c-0.005-0.002-0.011-0.006-0.017-0.01
			c0.004,0.004,0.01,0.008,0.014,0.012c-0.008,0.038-0.017,0.073-0.025,0.111c-0.047-0.045-0.093-0.089-0.14-0.135
			c0.026-0.206-0.132-0.327-0.229-0.477c-0.051-0.078-0.137-0.137-0.139-0.245c0.098,0.028,0.197,0.057,0.295,0.084
			c0.153,0.244,0.472,0.325,0.583,0.607C5.013,11.47,5.022,11.496,5.033,11.522z"/>
		<path fill-rule="evenodd" clip-rule="evenodd" fill="#D80F25" d="M11.191,6.583c-0.133,0.126-0.168,0.293-0.145,0.456
			c0.033,0.223-0.117,0.391-0.139,0.595c-0.004,0.035-0.055,0.03-0.086,0.008c-0.252-0.166-0.312-0.42-0.326-0.697
			c-0.004-0.07-0.012-0.137-0.068-0.193c-0.113-0.11-0.102-0.172,0.07-0.19c0.184-0.02,0.104-0.279,0.279-0.314
			c0.088,0.133-0.07,0.291,0.02,0.479c0.104-0.138,0.111-0.263,0.121-0.401c0.096,0.003,0.066,0.352,0.24,0.091
			C11.217,6.463,11.174,6.529,11.191,6.583z"/>
		<path fill-rule="evenodd" clip-rule="evenodd" fill="#D80F25" d="M4.66,11.494c0.547,0.413,1.106,0.802,1.771,1.01
			c0.169,0.053,0.333,0.103,0.51,0.044c0.177-0.11,0.338,0.117,0.515,0.024c0.011,0.022,0.035,0.053,0.027,0.064
			c-0.016,0.026-0.047,0.062-0.073,0.062c-0.192,0.012-0.376,0.091-0.575,0.051c-0.765-0.153-1.429-0.528-2.068-0.955
			c-0.06-0.041-0.091-0.125-0.135-0.188c0.009-0.038,0.018-0.073,0.026-0.111L4.66,11.494z"/>
		<path fill-rule="evenodd" clip-rule="evenodd" fill="#A72812" d="M6.02,8.43c0,0.021,0.002,0.043,0.004,0.065
			c-0.19-0.03-0.33,0.115-0.505,0.149c-0.18,0.032-0.219-0.03-0.208-0.188c0.011-0.152,0.017-0.308,0.025-0.463
			c0.022-0.056,0.073-0.055,0.122-0.06c0.173,0.06,0.348,0.083,0.527,0.025c0,0,0.013,0.014,0.014,0.014
			C6.016,8.125,5.92,8.282,6.02,8.43z"/>
		<path fill-rule="evenodd" clip-rule="evenodd" fill="#D80F25" d="M7.79,4.184C7.812,4.139,7.788,4.012,7.876,4.07
			c0.284,0.19,0.298-0.037,0.359-0.208c0.01-0.03,0.033-0.055,0.05-0.081c0.09,0.035,0.059,0.09,0.038,0.134
			C8.29,3.987,8.263,4.058,8.376,4.068c0.105,0.008,0.102-0.076,0.102-0.147c0.001-0.091-0.02-0.187,0.033-0.273
			C8.599,3.677,8.577,3.74,8.572,3.785C8.549,4.021,8.66,4.116,8.883,4.081C9.057,4.055,9.18,4.16,9.336,4.223
			C9.18,4.395,9.004,4.254,8.846,4.27C8.663,4.288,8.484,4.222,8.298,4.276c-0.177,0.053-0.33-0.112-0.51-0.096L7.79,4.184z"/>
		<path fill-rule="evenodd" clip-rule="evenodd" fill="#A72812" d="M4.364,8.966c0.079-0.252-0.005-0.518,0.069-0.77
			c0.027-0.093,0.023-0.195,0.152-0.205c0.048,0.402,0.135,0.8,0.118,1.208c-0.002,0.076,0.033,0.184-0.118,0.18
			C4.449,9.376,4.368,9.334,4.381,9.185c-0.005-0.03-0.011-0.06-0.016-0.092C4.365,9.054,4.365,9.008,4.364,8.966z"/>
		<path fill-rule="evenodd" clip-rule="evenodd" fill="#D80F25" d="M5.335,7.994C5.327,8.149,5.321,8.305,5.311,8.457
			c-0.011,0.157,0.028,0.22,0.208,0.188c0.175-0.034,0.314-0.18,0.505-0.149C6.008,8.733,5.777,8.701,5.646,8.788
			C5.544,8.856,5.384,8.959,5.323,8.939c-0.126-0.041-0.235-0.174-0.32-0.291C4.892,8.497,5.088,8.132,5.335,7.994z"/>
		<path fill-rule="evenodd" clip-rule="evenodd" fill="#D80F25" d="M5.987,10.541c0.019,0.066,0.042,0.133,0.058,0.201
			C6.066,10.827,6.085,10.937,6,10.98c-0.07,0.036-0.172,0.03-0.253,0.012c-0.102-0.025-0.073-0.123-0.073-0.201
			c0-0.216,0-0.436,0.001-0.655c0-0.052,0-0.112,0.07-0.12c0.051-0.005,0.095,0.04,0.086,0.078
			c-0.039,0.182,0.049,0.294,0.186,0.387c0.002,0.002-0.021,0.039-0.032,0.062L5.987,10.541z"/>
		<path fill-rule="evenodd" clip-rule="evenodd" fill="#D80F25" d="M7.156,11.087c-0.165-0.099-0.311-0.066-0.456-0.061
			c-0.131,0.005-0.153-0.093-0.147-0.199c0.007-0.129,0.002-0.273,0.147-0.332c0.065-0.028,0.142,0.004,0.129,0.108
			C6.8,10.85,6.935,10.87,7.135,10.848c0.119-0.011,0.34-0.051,0.342,0.066C7.479,11.089,7.226,10.94,7.156,11.087z"/>
		<path fill-rule="evenodd" clip-rule="evenodd" fill="#D80F25" d="M6.634,11.357c0.1,0.103,0.089,0.237,0.117,0.417
			c0.017-0.123,0.028-0.193,0.038-0.266c0.078,0.193,0.059,0.391,0.054,0.584c-0.001,0.047,0,0.125-0.078,0.097
			c-0.064-0.024-0.144,0.028-0.193-0.046C6.478,12.01,6.515,11.507,6.634,11.357z"/>
		<path fill-rule="evenodd" clip-rule="evenodd" fill="#D80F25" d="M6.18,10.23c0.179,0.164,0.336,0.293,0.301,0.559
			c-0.023,0.171-0.114,0.199-0.233,0.22c-0.154,0.028-0.143-0.115-0.153-0.193C6.067,10.622,6.147,10.437,6.18,10.23z"/>
		<path fill-rule="evenodd" clip-rule="evenodd" fill="#D80F25" d="M5.28,10.05C5.258,9.916,5.361,9.789,5.308,9.624
			c0.022,0.14-0.011,0.295,0.134,0.325c0.092,0.02,0.077-0.107,0.095-0.176c-0.111,0.135,0.077,0.266,0.013,0.401
			c-0.167,0.201-0.018,0.465-0.123,0.687c-0.111-0.086-0.015-0.268-0.171-0.312c0.002-0.06,0.004-0.12,0.006-0.179
			C5.443,10.273,5.414,10.166,5.28,10.05z"/>
		<path fill-rule="evenodd" clip-rule="evenodd" fill="#D80F25" d="M9.152,10.223c0.002,0.087,0.033,0.204-0.127,0.186
			c-0.115-0.014-0.295-0.026-0.272-0.159c0.017-0.083-0.016-0.286,0.208-0.3C9.209,9.933,9.127,10.102,9.152,10.223z"/>
		<path fill-rule="evenodd" clip-rule="evenodd" fill="#D80F25" d="M4.377,7.464c0.012-0.056,0.026-0.144,0.05-0.229
			c0.021-0.071,0.029-0.2,0.12-0.167c0.083,0.03,0.221,0.086,0.178,0.243C4.703,7.387,4.689,7.465,4.671,7.542
			c-0.023,0.094,0.01,0.24-0.156,0.221C4.353,7.746,4.375,7.61,4.377,7.464z"/>
		<path fill-rule="evenodd" clip-rule="evenodd" fill="#D80F25" d="M9.045,11.325c0,0.184,0.012,0.37-0.004,0.552
			c-0.002,0.068,0.078,0.202-0.072,0.202c-0.057-0.002-0.176,0.072-0.193-0.061c-0.014-0.111-0.059-0.312,0.025-0.318
			C9.096,11.678,9.01,11.468,9.045,11.325z"/>
		<path fill-rule="evenodd" clip-rule="evenodd" fill="#D80F25" d="M10.174,10.172c0.031-0.143,0.174-0.072,0.258-0.118
			c0.025-0.015,0.047,0.114,0.041,0.182c-0.064,0.004-0.09,0.042-0.096,0.101c-0.016,0.254-0.033,0.504-0.049,0.756
			c-0.004,0.023-0.016,0.031-0.037,0.027c-0.033-0.31-0.068-0.618-0.104-0.929L10.174,10.172z"/>
		<path fill-rule="evenodd" clip-rule="evenodd" fill="#A72812" d="M3.876,7.117c-0.002,0.139-0.012,0.276-0.06,0.41
			C3.76,7.679,3.683,7.671,3.599,7.556c-0.094-0.128-0.078-0.279-0.06-0.426C3.66,7.15,3.747,7.051,3.857,7.037
			C3.864,7.064,3.87,7.091,3.876,7.117z"/>
		<path fill-rule="evenodd" clip-rule="evenodd" fill="#A72812" d="M5.256,10.549c0.157,0.045,0.06,0.227,0.171,0.312
			c0.105-0.222-0.044-0.485,0.123-0.687c0,0.209,0.007,0.417,0,0.624c-0.006,0.176-0.125,0.216-0.306,0.109
			c0.091-0.101-0.02-0.2-0.001-0.303C5.248,10.586,5.251,10.567,5.256,10.549z"/>
		<path fill-rule="evenodd" clip-rule="evenodd" fill="#D80F25" d="M8.555,11.78c-0.101,0.135,0.044,0.415-0.27,0.397
			c-0.051-0.002-0.129-0.019-0.086-0.087C8.283,11.964,8.215,11.674,8.555,11.78z"/>
		<path fill-rule="evenodd" clip-rule="evenodd" fill="#D80F25" d="M6.02,8.43C5.92,8.282,6.016,8.125,5.998,7.974
			c0.269-0.108,0.278,0.058,0.263,0.251C6.257,8.276,6.253,8.327,6.243,8.379C6.226,8.45,6.267,8.558,6.167,8.581
			C6.062,8.606,6.095,8.456,6.02,8.43z"/>
		<path fill-rule="evenodd" clip-rule="evenodd" fill="#D80F25" d="M5.226,6.649c-0.068,0.059,0.08,0.239-0.117,0.226
			C4.953,6.865,4.923,6.747,4.925,6.61c0.001-0.125,0.097-0.185,0.183-0.184C5.222,6.43,5.246,6.538,5.226,6.649z"/>
		<path fill-rule="evenodd" clip-rule="evenodd" fill="#A72812" d="M6.154,11.13c0.158,0.31,0.047,0.568,0.064,0.824
			c0.002,0.04-0.012,0.072-0.048,0.082c-0.064,0.017-0.069-0.032-0.073-0.078C6.073,11.695,6.127,11.439,6.154,11.13z"/>
		<path fill-rule="evenodd" clip-rule="evenodd" fill="#A72812" d="M5.915,11.861c-0.281-0.123-0.226-0.389-0.257-0.613
			c0.016-0.058,0.016-0.133,0.112-0.099c0.08,0.196-0.001,0.43,0.14,0.613C5.911,11.795,5.912,11.827,5.915,11.861z"/>
		<path fill-rule="evenodd" clip-rule="evenodd" fill="#D80F25" d="M9.889,11.644c-0.203-0.111-0.066,0.159-0.178,0.155
			c-0.016-0.109-0.025-0.22-0.045-0.327C9.633,11.276,9.688,11.18,9.9,11.242C9.898,11.377,9.895,11.509,9.889,11.644z"/>
		<path fill-rule="evenodd" clip-rule="evenodd" fill="#D80F25" d="M5.984,7.959C5.805,8.017,5.63,7.994,5.457,7.934
			C5.412,7.578,5.693,7.8,5.811,7.754C5.915,7.71,6.049,7.784,5.984,7.959z"/>
		<path fill-rule="evenodd" clip-rule="evenodd" fill="#D80F25" d="M7.733,4.18C7.471,4.155,7.202,4.209,6.951,4.083
			c0.261,0.023,0.544-0.147,0.78,0.1L7.733,4.18z"/>
		<path fill-rule="evenodd" clip-rule="evenodd" fill="#D80F25" d="M10.277,11.599c-0.094,0.015-0.15-0.014-0.156-0.12
			c-0.004-0.093,0.041-0.151,0.113-0.189c0.123-0.064,0.244-0.064,0.369,0.059c-0.102,0.04-0.133,0.199-0.299,0.104
			c-0.041-0.022-0.016,0.097-0.031,0.149C10.273,11.6,10.277,11.599,10.277,11.599z"/>
		<path fill-rule="evenodd" clip-rule="evenodd" fill="#D80F25" d="M6.388,11.255c0.074,0.316,0.012,0.576,0.009,0.88
			C6.305,11.835,6.237,11.579,6.388,11.255z"/>
		<path fill-rule="evenodd" clip-rule="evenodd" fill="#D80F25" d="M9.25,11.962c-0.02-0.226-0.059-0.451,0.045-0.665
			C9.318,11.521,9.363,11.748,9.25,11.962z"/>
		<path fill-rule="evenodd" clip-rule="evenodd" fill="#A72812" d="M9.453,11.918c-0.027-0.227-0.02-0.448,0.051-0.667
			C9.551,11.48,9.512,11.698,9.453,11.918z"/>
		<path fill-rule="evenodd" clip-rule="evenodd" fill="#A72812" d="M10.328,11.092c0.016-0.252,0.033-0.502,0.049-0.756
			c0.006-0.059,0.031-0.097,0.096-0.101c0.002,0.034,0.002,0.066,0.004,0.099c-0.053,0.224-0.025,0.451-0.025,0.679
			C10.408,11.039,10.369,11.065,10.328,11.092z"/>
		<path fill-rule="evenodd" clip-rule="evenodd" fill="#D80F25" d="M4.635,6.494C4.71,6.543,4.779,6.597,4.77,6.7
			c-0.006,0.06-0.004,0.136-0.094,0.123C4.571,6.807,4.533,6.731,4.551,6.631C4.561,6.577,4.547,6.503,4.635,6.494z"/>
		<path fill-rule="evenodd" clip-rule="evenodd" fill="#D80F25" d="M8.279,7.197c0.064-0.038,0.084-0.058,0.109-0.062
			c0.104-0.024,0.19-0.148,0.312-0.062c0.031,0.021,0.015,0.066-0.01,0.093C8.593,7.284,8.475,7.291,8.279,7.197z"/>
		<path fill-rule="evenodd" clip-rule="evenodd" fill="#D80F25" d="M5.909,11.763c-0.141-0.184-0.06-0.417-0.14-0.613
			c0.13-0.032,0.175,0.026,0.167,0.147C5.927,11.454,5.919,11.609,5.909,11.763z"/>
		<path fill-rule="evenodd" clip-rule="evenodd" fill="#A72812" d="M10.188,10.19c0.035,0.311,0.07,0.619,0.104,0.929
			c-0.029-0.016-0.057-0.027-0.086-0.04C10.184,10.783,10.154,10.488,10.188,10.19z"/>
		<path fill-rule="evenodd" clip-rule="evenodd" fill="#A72812" d="M9.889,11.644c0.006-0.135,0.01-0.267,0.012-0.401
			c0.203-0.016,0.117,0.144,0.111,0.218c-0.002,0.091,0.039,0.212-0.08,0.274C9.918,11.702,9.902,11.674,9.889,11.644z"/>
		<path fill-rule="evenodd" clip-rule="evenodd" fill="#D80F25" d="M9.223,6.946c-0.041,0.085-0.117,0.097-0.195,0.09
			c-0.07-0.007-0.105-0.054-0.09-0.125C8.957,6.84,9.01,6.815,9.076,6.831C9.141,6.846,9.213,6.857,9.223,6.946z"/>
		<path fill-rule="evenodd" clip-rule="evenodd" fill="#A72812" d="M5.28,10.05c0.133,0.116,0.163,0.224-0.018,0.32
			C5.242,10.263,5.244,10.154,5.28,10.05z"/>
		<path fill-rule="evenodd" clip-rule="evenodd" fill="#D80F25" d="M8.918,8.463C8.838,8.325,8.83,8.198,8.93,8.067
			C8.977,8.202,9.029,8.331,8.918,8.463z"/>
		<path fill-rule="evenodd" clip-rule="evenodd" fill="#A72812" d="M9.867,11.061c0.039-0.094,0.02-0.203,0.117-0.317
			c0.012,0.124,0.021,0.219,0.033,0.315C9.967,11.059,9.918,11.059,9.867,11.061z"/>
		<path fill-rule="evenodd" clip-rule="evenodd" fill="#D80F25" d="M7.299,12.214c-0.052-0.137-0.083-0.269,0.028-0.411
			C7.407,11.96,7.314,12.089,7.299,12.214z"/>
		<path fill-rule="evenodd" clip-rule="evenodd" fill="#D80F25" d="M10.451,11.013c0-0.228-0.027-0.455,0.025-0.679
			C10.461,10.562,10.564,10.789,10.451,11.013z"/>
		<path fill-rule="evenodd" clip-rule="evenodd" fill="#D80F25" d="M10.822,7.642c0,0.03-0.002,0.06-0.002,0.089
			c-0.047,0.032-0.117,0.083-0.133-0.004C10.668,7.636,10.752,7.631,10.822,7.642z"/>
		<path fill-rule="evenodd" clip-rule="evenodd" fill="#D80F25" d="M6.832,4.105C6.805,4.127,6.787,4.141,6.77,4.153
			C6.759,4.135,6.744,4.118,6.739,4.1C6.738,4.09,6.761,4.064,6.768,4.067C6.787,4.071,6.804,4.086,6.832,4.105z"/>
		<path fill-rule="evenodd" clip-rule="evenodd" fill="#D80F25" d="M8.357,12.643c-0.014,0.004-0.028,0.015-0.04,0.015
			c-0.007-0.002-0.013-0.019-0.02-0.03c0.013-0.008,0.025-0.017,0.039-0.017C8.344,12.61,8.352,12.631,8.357,12.643z"/>
		<path fill-rule="evenodd" clip-rule="evenodd" fill="#D80F25" d="M4.365,9.093C4.37,9.125,4.375,9.154,4.381,9.185
			C4.347,9.159,4.332,9.131,4.365,9.093z"/>
		<path fill-rule="evenodd" clip-rule="evenodd" fill="#D80F25" d="M7.788,4.181C7.77,4.18,7.751,4.18,7.733,4.18L7.731,4.183
			c0.02,0,0.039,0.001,0.059,0.001L7.788,4.181z"/>
		<path fill-rule="evenodd" clip-rule="evenodd" fill="#FF5D15" d="M10.852,9.254c0.037,0.012,0.074,0.023,0.109,0.034
			c0.008,0.084,0.006,0.169,0.059,0.241l0.004,0.008c0.061,0.282,0.021,0.562-0.006,0.843c-0.008,0.074-0.021,0.151-0.125,0.111
			c-0.125-0.047,0.004-0.087,0.006-0.13c0.004-0.226,0.002-0.453,0.002-0.69c-0.174,0.099,0,0.296-0.143,0.407
			c-0.105-0.162-0.008-0.363-0.096-0.524c0.021-0.014,0.041-0.024,0.062-0.036C10.732,9.413,10.691,9.284,10.852,9.254z"/>
		<path fill-rule="evenodd" clip-rule="evenodd" fill="#FF5D15" d="M11.217,10.075c-0.072-0.177-0.115-0.353,0.023-0.518
			C11.232,9.731,11.225,9.904,11.217,10.075z"/>
		<path fill-rule="evenodd" clip-rule="evenodd" fill="#A72812" d="M12.182,8.319c0.078,0.137,0.051,0.274,0.008,0.414
			C12.123,8.594,12.123,8.457,12.182,8.319z"/>
		<path fill-rule="evenodd" clip-rule="evenodd" fill="#A72812" d="M12.246,8.221c-0.002,0.009-0.004,0.019-0.008,0.026
			c-0.084-0.02-0.164-0.041-0.248-0.061C12.082,8.164,12.182,8.073,12.246,8.221z"/>
		<path fill-rule="evenodd" clip-rule="evenodd" fill="#FF5D15" d="M10.662,9.554c-0.055-0.087-0.072-0.175,0.006-0.27
			c0.098,0.062,0.055,0.154,0.057,0.233C10.703,9.529,10.684,9.54,10.662,9.554z"/>
		<path fill-rule="evenodd" clip-rule="evenodd" fill="#A72812" d="M11.02,9.529c0.008-0.034,0.018-0.066,0.025-0.099
			c0.004,0.006,0.018,0.013,0.016,0.017c-0.012,0.03-0.023,0.061-0.037,0.09L11.02,9.529z"/>
		<polygon fill-rule="evenodd" clip-rule="evenodd" fill="#A72812" points="11.262,9.097 11.266,9.114 11.254,9.112 		"/>
		<path fill-rule="evenodd" clip-rule="evenodd" fill="#FF5D15" d="M11.545,9.56c0.205,0.168,0.033,0.39,0.082,0.579
			c-0.125-0.166,0.029-0.39-0.107-0.555C11.527,9.574,11.535,9.567,11.545,9.56z"/>
		<path fill-rule="evenodd" clip-rule="evenodd" fill="#FF5D15" d="M8.329,8.228C8.233,8,8.255,7.85,8.365,7.679
			C8.491,7.866,8.414,8.018,8.329,8.228z"/>
		<path fill-rule="evenodd" clip-rule="evenodd" fill="#D80F25" d="M5.657,11.248c-0.162,0.03-0.236-0.173-0.398-0.146
			c-0.075,0.014-0.183,0.148-0.218-0.032c-0.03-0.155,0.1-0.151,0.203-0.161c0.091-0.101-0.02-0.2-0.001-0.303
			c-0.048,0.002-0.021,0.202-0.123,0.049c-0.051-0.075-0.122-0.155-0.066-0.267c0.13-0.254,0.053-0.523,0.033-0.794
			C5.06,9.709,5.031,9.824,4.999,9.959C4.88,9.81,4.993,9.628,4.842,9.457c-0.025,0.521-0.039,0.985,0.109,1.461
			c-0.195-0.014-0.349-0.147-0.53-0.081c0.152,0.242,0.471,0.323,0.582,0.605c0.01,0.027,0.02,0.054,0.03,0.08
			c0.144,0.07,0.293,0.109,0.385,0.276c0.073,0.133,0.233,0.205,0.406,0.173c0.039-0.028,0.083-0.056,0.09-0.11
			C5.633,11.738,5.689,11.473,5.657,11.248z"/>
		<path fill-rule="evenodd" clip-rule="evenodd" fill="#D80F25" d="M4.657,11.496c-0.004-0.004-0.009-0.008-0.014-0.012
			c0.006,0.004,0.012,0.008,0.017,0.01L4.657,11.496z"/>
		<path fill-rule="evenodd" clip-rule="evenodd" fill="#FF5D15" d="M5.987,10.541l-0.002,0.002L5.987,10.541z"/>
		<g>
			<path fill-rule="evenodd" clip-rule="evenodd" fill="#A72812" d="M3.102,10.107l-0.017-0.01l0.001-0.021
				c-0.009-0.026-0.018-0.055-0.027-0.081C2.669,9.171,2.572,8.311,2.663,7.429C2.632,7.658,2.614,7.892,2.614,8.13
				c0,1.446,0.603,2.753,1.576,3.705c0.115,0.104,0.235,0.207,0.361,0.3c0.012-0.016,0.025-0.028,0.039-0.04
				c-0.217-0.231-0.433-0.459-0.65-0.688C3.577,11.026,3.314,10.583,3.102,10.107z"/>
			<path fill-rule="evenodd" clip-rule="evenodd" fill="#A72812" d="M8.039,2.874c-0.41,0-0.809,0.045-1.193,0.13
				c0.935-0.178,1.862-0.128,2.767,0.195c0.316,0.113,0.619,0.257,0.906,0.428c0.477,0.283,1.002,0.49,1.354,0.964
				c0.408,0.544,0.834,1.071,0.996,1.75c0.836,2.469-0.189,5.3-2.822,6.454c-1.463,0.643-2.954,0.615-4.424-0.042
				C5.61,12.77,5.597,12.784,5.584,12.8c0.251,0.151,0.53,0.236,0.809,0.316c1.625,0.466,3.169,0.282,4.572-0.675
				c0.939-0.639,1.678-1.451,2.154-2.461c0.223-0.576,0.346-1.198,0.346-1.85C13.465,5.227,11.037,2.874,8.039,2.874z"/>
			<path fill-rule="evenodd" clip-rule="evenodd" fill="#A72812" d="M3.043,8.845c0.111,0.469,0.29,0.912,0.5,1.344
				c0.034,0.068,0.055,0.144,0.083,0.216c0.13-0.03,0.261-0.047,0.384,0.03c0.042,0.006,0.084,0.008,0.126,0.014
				c-0.005-0.034,0-0.097-0.014-0.101c-0.324-0.101-0.326-0.396-0.344-0.643C3.766,9.56,3.612,9.499,3.644,9.358
				C3.621,9.31,3.597,9.262,3.575,9.213C3.56,9.04,3.537,8.868,3.535,8.695c-0.001-0.076,0.021-0.168,0.106-0.2
				C3.83,8.426,3.814,8.276,3.799,8.125c-0.1-0.023-0.196-0.037-0.302,0C3.373,8.17,3.315,8.126,3.377,7.99
				C3.38,7.683,3.461,7.385,3.5,7.083c0.01-0.08,0.051-0.127,0.136-0.131C3.618,6.816,3.718,6.681,3.634,6.546
				c-0.037-0.023-0.034-0.045,0-0.067c0.012-0.027,0.023-0.053,0.035-0.08C3.736,6.165,3.733,5.838,3.889,5.72
				c0.298-0.224,0.424-0.533,0.609-0.817c0.344-0.38,0.762-0.682,1.209-0.905c0.838-0.419,1.736-0.642,2.69-0.526
				C9.02,3.547,9.602,3.746,10.15,4.056c0.385,0.221,0.707,0.53,1.045,0.808c0.141,0.117,0.387,0.288,0.283,0.59
				c-0.055,0.16,0.131,0.151,0.221,0.204c0.057,0.035,0.168-0.016,0.176,0.105c0.061,0.07,0.023,0.182,0.109,0.241
				c0.086,0.04,0.09,0.123,0.098,0.201c0.262,0.497,0.35,1.027,0.297,1.582c-0.012,0.143,0.047,0.295-0.039,0.432
				c-0.002,0.179-0.004,0.357-0.006,0.54c0.025,0.189-0.201,0.24-0.225,0.405c-0.053,0.153-0.104,0.31-0.156,0.465
				c-0.186,0.134-0.098,0.312-0.078,0.48c-0.037,0.066-0.02,0.167-0.113,0.197c-0.225,0.032-0.166,0.264-0.271,0.381
				c-0.039,0.068-0.078,0.139-0.119,0.209c-0.018-0.025-0.023-0.068-0.07-0.048c-0.008,0.004-0.002,0.028-0.004,0.046
				c-0.008,0.013-0.018,0.028-0.023,0.043c-0.012-0.011-0.02-0.011-0.031,0c-0.023-0.015-0.047-0.032-0.07-0.049l0,0
				c-0.021-0.026-0.037-0.018-0.047,0.013l-0.01,0.01c-0.156,0.057-0.377,0.048-0.338,0.314c-0.023,0.021-0.068,0.04-0.07,0.061
				c-0.004,0.298-0.168,0.372-0.43,0.316c0.006,0.143-0.152,0.201-0.172,0.332c-0.002,0.016-0.047,0.038-0.049,0.034
				c-0.279-0.258-0.289,0.109-0.424,0.182c-0.018,0.008-0.045,0.08-0.045,0.036c0-0.266-0.182,0.004-0.229-0.104
				c-0.02,0.122,0.113,0.228-0.01,0.328c0.041,0.032,0.084,0.064,0.127,0.097c1.029-0.423,1.879-1.066,2.467-2.029
				c0.029-0.051,0.037-0.114,0.055-0.175c0.08,0.116,0.154,0.135,0.227-0.005c0.088-0.173,0.178-0.349,0.266-0.523
				c0.064-0.244,0.117-0.492,0.205-0.733c0.082-0.218,0.125-0.456,0.121-0.695c-0.064-0.111-0.096-0.223,0.012-0.328
				c0-0.116-0.002-0.23-0.004-0.345c-0.031,0.026-0.062,0.074-0.092,0.074c-0.049-0.002-0.057-0.057-0.049-0.099
				c0.018-0.079,0.074-0.078,0.137-0.065c-0.016-0.146-0.029-0.292-0.043-0.438c-0.252-0.536-0.502-1.072-0.754-1.607
				c-0.088-0.186-0.291-0.305-0.312-0.53c-0.02-0.028-0.037-0.056-0.055-0.083c0.002-0.08-0.033-0.136-0.111-0.16
				c-0.016-0.016-0.033-0.032-0.049-0.049c0.002,0,0.002,0,0.002,0l0,0l-0.002-0.001c-0.035-0.036-0.07-0.073-0.105-0.108
				c0,0,0.002,0,0.004,0l-0.006-0.003c0,0.001,0,0.002,0,0.003l0,0c0,0.001,0.002,0.002,0.002,0.004
				c0-0.001-0.002-0.002-0.002-0.004c-0.018-0.002-0.035-0.003-0.051-0.006c-0.291-0.241-0.553-0.513-0.879-0.713
				c-0.588-0.36-1.188-0.694-1.903-0.682C8.13,3.214,7.71,3.119,7.288,3.131C6.795,3.145,6.319,3.282,5.87,3.498
				c-0.064,0.031-0.128,0.06-0.192,0.09C5.629,3.61,5.568,3.639,5.534,3.585c-0.051-0.08,0.029-0.104,0.08-0.133
				c0.159-0.091,0.324-0.166,0.492-0.234c-0.831,0.308-1.563,0.808-2.14,1.443C4.026,4.63,4.09,4.603,4.163,4.584
				c0.019-0.017,0.04-0.028,0.055,0c0.004,0.008-0.01,0.026-0.015,0.04C4.095,4.917,3.853,5.121,3.688,5.376
				C3.438,5.761,3.281,6.176,3.165,6.603c-0.186,0.682-0.26,1.38-0.123,2.085C3.052,8.739,3.043,8.794,3.043,8.845z M4.438,4.264
				C4.699,3.988,5.02,3.793,5.342,3.599c0.017-0.009,0.054,0,0.072,0.013C5.447,3.64,5.438,3.685,5.411,3.703
				c-0.308,0.214-0.62,0.423-0.9,0.675c-0.006,0.005-0.017,0.005-0.034,0.01C4.461,4.38,4.422,4.372,4.42,4.359
				C4.416,4.328,4.418,4.284,4.438,4.264z"/>
			<polygon fill-rule="evenodd" clip-rule="evenodd" fill="#A72812" points="10.273,11.6 10.277,11.602 10.277,11.599 			"/>
		</g>
	</g>
</g>
</svg>
