<?xml version="1.0" encoding="utf-8"?>
<!-- Generator: Adobe Illustrator 16.0.3, SVG Export Plug-In . SVG Version: 6.00 Build 0)  -->
<!DOCTYPE svg PUBLIC "-//W3C//DTD SVG 1.1//EN" "http://www.w3.org/Graphics/SVG/1.1/DTD/svg11.dtd">
<svg version="1.1" id="Layer_1" xmlns="http://www.w3.org/2000/svg" xmlns:xlink="http://www.w3.org/1999/xlink" x="0px" y="0px"
	 width="40px" height="40px" viewBox="0 0 40 40" enable-background="new 0 0 40 40" xml:space="preserve">
<g>
	<g>
		<path fill="#FFFFFF" stroke="#FFFFFF" stroke-width="0.7678" stroke-miterlimit="10" d="M9.92,7.652h9.484
			c1.876,0,3.276,0.079,4.199,0.235c0.922,0.156,1.748,0.482,2.476,0.979c0.729,0.497,1.335,1.157,1.82,1.982
			c0.485,0.826,0.729,1.751,0.729,2.776c0,1.111-0.3,2.131-0.897,3.059c-0.599,0.928-1.411,1.624-2.437,2.087
			c1.446,0.422,2.558,1.139,3.334,2.152c0.776,1.015,1.165,2.207,1.165,3.576c0,1.08-0.251,2.129-0.752,3.148
			c-0.502,1.02-1.188,1.834-2.056,2.443c-0.869,0.609-1.939,0.984-3.212,1.125c-0.799,0.086-2.726,0.141-5.777,0.162H9.92V7.652z
			 M14.711,11.601v5.486h3.139c1.866,0,3.026-0.027,3.48-0.081c0.819-0.097,1.465-0.38,1.934-0.85s0.703-1.087,0.703-1.853
			c0-0.733-0.201-1.329-0.606-1.788c-0.404-0.458-1.007-0.736-1.805-0.833c-0.474-0.054-1.84-0.081-4.094-0.081H14.711z
			 M14.711,21.035v6.344h4.434c1.726,0,2.821-0.049,3.285-0.145c0.712-0.131,1.292-0.445,1.739-0.947s0.673-1.174,0.673-2.015
			c0-0.712-0.173-1.316-0.519-1.813c-0.346-0.496-0.844-0.857-1.497-1.084s-2.068-0.34-4.248-0.34H14.711z"/>
	</g>
	<rect x="3" y="3" fill="none" stroke="#FFFFFF" stroke-miterlimit="10" width="31" height="34"/>
</g>
</svg>
