<?xml version="1.0" encoding="iso-8859-1"?>
<!-- Generator: Adobe Illustrator 16.0.3, SVG Export Plug-In . SVG Version: 6.00 Build 0)  -->
<!DOCTYPE svg PUBLIC "-//W3C//DTD SVG 1.1//EN" "http://www.w3.org/Graphics/SVG/1.1/DTD/svg11.dtd">
<svg version="1.1" id="Layer_1" xmlns="http://www.w3.org/2000/svg" xmlns:xlink="http://www.w3.org/1999/xlink" x="0px" y="0px"
	 width="35px" height="35px" viewBox="0 0 35 35" style="enable-background:new 0 0 35 35;" xml:space="preserve">
<g>
	<rect x="6.5" y="2.5" style="fill:none;stroke:#FFFFFF;stroke-miterlimit:10;" width="23" height="30"/>
	<g>
		<path style="fill:#FFFFFF;stroke:#FFFFFF;stroke-width:0.5673;stroke-miterlimit:10;" d="M11.493,8.221h7.008
			c1.386,0,2.419,0.059,3.103,0.174c0.68,0.114,1.29,0.355,1.828,0.723c0.537,0.368,0.986,0.856,1.345,1.465
			c0.358,0.61,0.537,1.293,0.537,2.052c0,0.82-0.22,1.573-0.662,2.259s-1.042,1.201-1.8,1.541c1.068,0.313,1.892,0.843,2.462,1.591
			c0.575,0.75,0.861,1.632,0.861,2.645c0,0.797-0.185,1.57-0.554,2.324c-0.371,0.754-0.878,1.354-1.521,1.804
			c-0.641,0.452-1.43,0.729-2.37,0.833c-0.592,0.063-2.015,0.104-4.269,0.119h-5.968V8.221z M15.033,11.139v4.053h2.32
			c1.378,0,2.235-0.02,2.571-0.06c0.605-0.072,1.081-0.28,1.428-0.628c0.347-0.346,0.52-0.803,0.52-1.368
			c0-0.542-0.149-0.983-0.448-1.322c-0.3-0.338-0.744-0.543-1.333-0.615c-0.35-0.041-1.359-0.06-3.024-0.06H15.033z M15.033,18.108
			v4.688h3.277c1.274,0,2.083-0.035,2.425-0.107c0.527-0.096,0.955-0.328,1.287-0.7c0.328-0.369,0.496-0.866,0.496-1.486
			c0-0.527-0.128-0.974-0.384-1.34c-0.254-0.369-0.622-0.636-1.106-0.802c-0.482-0.168-1.527-0.252-3.137-0.252H15.033z"/>
	</g>
</g>
</svg>
