<?xml version="1.0" encoding="iso-8859-1"?>
<!-- Generator: Adobe Illustrator 16.0.3, SVG Export Plug-In . SVG Version: 6.00 Build 0)  -->
<!DOCTYPE svg PUBLIC "-//W3C//DTD SVG 1.1//EN" "http://www.w3.org/Graphics/SVG/1.1/DTD/svg11.dtd">
<svg version="1.1" id="Layer_1" xmlns="http://www.w3.org/2000/svg" xmlns:xlink="http://www.w3.org/1999/xlink" x="0px" y="0px"
	 width="40px" height="40px" viewBox="0 0 40 40" style="enable-background:new 0 0 40 40;" xml:space="preserve">
<g>
	<g>
		<g>
			<path style="fill:#FFFFFF;" d="M36.236,36.578c-10.745,0-21.491,0-32.236,0C4.474,37.053,4.948,37.525,5.422,38
				c0-12.01,0-24.02,0-36.03C4.948,2.444,4.474,2.918,4,3.392c10.746,0,21.491,0,32.236,0c-0.473-0.474-0.947-0.948-1.422-1.422
				c0,12.01,0,24.021,0,36.03c0,1.834,2.845,1.834,2.845,0c0-12.01,0-24.02,0-36.03c0-0.775-0.646-1.422-1.423-1.422
				c-10.745,0-21.491,0-32.236,0c-0.775,0-1.422,0.647-1.422,1.422c0,12.01,0,24.021,0,36.03c0,0.775,0.647,1.422,1.422,1.422
				c10.746,0,21.491,0,32.236,0C38.07,39.422,38.07,36.578,36.236,36.578z"/>
		</g>
	</g>
	<g>
		<path style="fill:#FFFFFF;" d="M12.811,11.658V9.732c0-0.277,0.125-0.477,0.477-0.477c0.354,0,0.477,0.2,0.477,0.477v2.403
			c0,0.343-0.229,0.477-0.477,0.477H9.531c-0.248,0-0.477-0.134-0.477-0.477c0-0.344,0.229-0.477,0.477-0.477h1.403v-5.51H9.531
			c-0.248,0-0.477-0.134-0.477-0.477c0-0.344,0.229-0.477,0.477-0.477h2.354v6.464H12.811z"/>
		<path style="fill:#FFFFFF;" d="M10.007,23.093h3.28c0.248,0,0.477,0.132,0.477,0.476c0,0.346-0.229,0.478-0.477,0.478H9.054
			v-3.106c0-0.716,0.363-1.079,1.078-1.079h2.679v-2.279h-3.28c-0.248,0-0.477-0.133-0.477-0.476c0-0.344,0.229-0.477,0.477-0.477
			h3.165c0.316,0,0.535,0.047,0.772,0.267c0.269,0.248,0.296,0.504,0.296,0.848v1.955c0,0.345-0.028,0.601-0.296,0.848
			c-0.238,0.221-0.457,0.268-0.772,0.268h-2.688L10.007,23.093L10.007,23.093z"/>
		<path style="fill:#FFFFFF;" d="M9.531,29.016c-0.248,0-0.477-0.134-0.477-0.476c0-0.345,0.229-0.478,0.477-0.478h3.28
			c0.543,0,0.954,0.41,0.954,0.953v1.83c0,0.381-0.077,0.658-0.373,0.926c0.295,0.267,0.373,0.543,0.373,0.924v1.83
			c0,0.545-0.41,0.955-0.954,0.955h-3.28c-0.248,0-0.477-0.135-0.477-0.478c0-0.344,0.229-0.478,0.477-0.478h3.28v-1.582
			c0-0.534-0.209-0.696-0.477-0.696h-1.869c-0.247,0-0.476-0.134-0.476-0.478s0.229-0.477,0.476-0.477h1.869
			c0.268,0,0.477-0.163,0.477-0.695v-1.584h-3.28V29.016z"/>
	</g>
</g>
<line style="fill:none;stroke:#FFFFFF;stroke-width:4;stroke-miterlimit:10;" x1="4" y1="3.392" x2="34.814" y2="36.578"/>
</svg>
