<?xml version="1.0" encoding="utf-8"?>
<!-- Generator: Adobe Illustrator 15.0.2, SVG Export Plug-In . SVG Version: 6.00 Build 0)  -->
<!DOCTYPE svg PUBLIC "-//W3C//DTD SVG 1.1//EN" "http://www.w3.org/Graphics/SVG/1.1/DTD/svg11.dtd">
<svg version="1.1" id="Layer_1" xmlns="http://www.w3.org/2000/svg" xmlns:xlink="http://www.w3.org/1999/xlink" x="0px" y="0px"
	 width="40px" height="40px" viewBox="0 0 40 40" enable-background="new 0 0 40 40" xml:space="preserve">
<g>
	<rect x="3.305" y="1.106" fill="none" stroke="#FFFFFF" stroke-miterlimit="10" width="33" height="37"/>
	<g>
		<g>
			<path fill="none" stroke="#FFFFFF" stroke-miterlimit="5" d="M7,24.373C7,27.48,9.52,30,12.627,30h13.746
				C29.48,30,32,27.48,32,24.373v-7.746C32,13.52,29.48,11,26.373,11H12.627C9.52,11,7,13.52,7,16.627V24.373z"/>
		</g>
		<circle fill="none" stroke="#FFFFFF" stroke-width="1.1255" stroke-miterlimit="5" cx="18.833" cy="20.834" r="6.667"/>
		<path fill="#FFFFFF" d="M17.271,27.012c-0.382-0.072-0.104-0.776-0.104-1.178c0-3.682,2.984-6.667,6.667-6.667
			c0.47,0,0.929,0.049,1.371,0.141C25.205,19.308,26.207,28.689,17.271,27.012z"/>
		<line fill="none" stroke="#FFFFFF" stroke-miterlimit="5" x1="24.5" y1="10" x2="15.5" y2="10"/>
		<circle fill="none" stroke="#FFFFFF" stroke-width="0.75" stroke-miterlimit="5" cx="26.751" cy="14.75" r="1.417"/>
	</g>
</g>
</svg>
