<?xml version="1.0" encoding="iso-8859-1"?>
<!-- Generator: Adobe Illustrator 16.0.3, SVG Export Plug-In . SVG Version: 6.00 Build 0)  -->
<!DOCTYPE svg PUBLIC "-//W3C//DTD SVG 1.1//EN" "http://www.w3.org/Graphics/SVG/1.1/DTD/svg11.dtd">
<svg version="1.1" id="Layer_1" xmlns="http://www.w3.org/2000/svg" xmlns:xlink="http://www.w3.org/1999/xlink" x="0px" y="0px"
	 width="40px" height="40px" viewBox="0 0 40 40" style="enable-background:new 0 0 40 40;" xml:space="preserve">
<g>
	<rect x="7" y="1" style="fill:none;stroke:#FFFFFF;stroke-width:2;stroke-miterlimit:10;" width="26" height="37"/>
	<g>
		<g>
			<path style="fill:#FFFFFF;" d="M15.043,7.634v2.268c-1.048,0.63-1.73,1.533-2.051,2.712c1.914,0,2.871,1.017,2.871,3.049
				c0,2.096-1.051,3.141-3.158,3.141c-2.07,0-3.104-1.243-3.104-3.728C9.602,11.211,11.416,8.729,15.043,7.634z M22.839,7.634v2.268
				c-1.048,0.63-1.726,1.533-2.034,2.712c1.903,0,2.855,1.017,2.855,3.049c0,2.096-1.051,3.141-3.158,3.141
				c-2.069,0-3.105-1.243-3.105-3.728C17.396,11.224,19.213,8.741,22.839,7.634z"/>
		</g>
		<g>
			<path style="fill:#FFFFFF;" d="M25.248,32.073v-2.267c1.047-0.63,1.729-1.533,2.051-2.712c-1.915,0-2.874-1.018-2.874-3.051
				c0-2.095,1.056-3.139,3.16-3.139c2.068,0,3.105,1.243,3.105,3.729C30.69,28.498,28.876,30.978,25.248,32.073z M17.452,32.073
				v-2.267c1.046-0.63,1.725-1.533,2.033-2.712c-1.902,0-2.855-1.018-2.855-3.051c0-2.095,1.054-3.139,3.159-3.139
				c2.069,0,3.102,1.243,3.102,3.729C22.891,28.484,21.079,30.967,17.452,32.073z"/>
		</g>
	</g>
</g>
</svg>
