<?xml version="1.0" encoding="utf-8"?>
<!-- Generator: Adobe Illustrator 15.0.2, SVG Export Plug-In . SVG Version: 6.00 Build 0)  -->
<!DOCTYPE svg PUBLIC "-//W3C//DTD SVG 1.1//EN" "http://www.w3.org/Graphics/SVG/1.1/DTD/svg11.dtd">
<svg version="1.1" id="Layer_1" xmlns="http://www.w3.org/2000/svg" xmlns:xlink="http://www.w3.org/1999/xlink" x="0px" y="0px"
	 width="40px" height="40px" viewBox="0 0 40 40" enable-background="new 0 0 40 40" xml:space="preserve">
<rect x="2.5" y="1" fill="none" stroke="#FFFFFF" stroke-width="1.0129" stroke-miterlimit="10" width="33" height="37"/>
<g>
	<g>
		<path fill="#FFFFFF" d="M14.098,5.028v2.587c-1.195,0.72-1.977,1.751-2.342,3.096c2.186,0,3.278,1.162,3.278,3.483
			c0,2.39-1.202,3.584-3.605,3.584c-2.363,0-3.544-1.418-3.544-4.257C7.885,9.108,9.956,6.277,14.098,5.028z M22.998,5.028v2.587
			c-1.195,0.72-1.971,1.751-2.322,3.096c2.174,0,3.26,1.162,3.26,3.483c0,2.39-1.201,3.584-3.604,3.584
			c-2.363,0-3.545-1.418-3.545-4.257C16.785,9.123,18.857,6.291,22.998,5.028z"/>
	</g>
	<g>
		<path fill="#FFFFFF" d="M25.748,32.928v-2.587c1.195-0.72,1.977-1.752,2.343-3.097c-2.187,0-3.28-1.16-3.28-3.482
			c0-2.391,1.203-3.585,3.605-3.585c2.361,0,3.544,1.419,3.544,4.257C31.96,28.848,29.891,31.678,25.748,32.928z M16.848,32.928
			v-2.587c1.194-0.72,1.969-1.752,2.321-3.097c-2.173,0-3.26-1.16-3.26-3.482c0-2.391,1.202-3.585,3.606-3.585
			c2.362,0,3.543,1.419,3.543,4.257C23.059,28.833,20.989,31.664,16.848,32.928z"/>
	</g>
</g>
</svg>
