<?xml version="1.0" encoding="utf-8"?>
<!-- Generator: Adobe Illustrator 15.0.2, SVG Export Plug-In . SVG Version: 6.00 Build 0)  -->
<!DOCTYPE svg PUBLIC "-//W3C//DTD SVG 1.1//EN" "http://www.w3.org/Graphics/SVG/1.1/DTD/svg11.dtd">
<svg version="1.1" id="Layer_1" xmlns="http://www.w3.org/2000/svg" xmlns:xlink="http://www.w3.org/1999/xlink" x="0px" y="0px"
	 width="40px" height="40px" viewBox="0 0 40 40" enable-background="new 0 0 40 40" xml:space="preserve">
<rect x="2.667" y="0.667" fill="none" stroke="#FFFFFF" stroke-width="2" stroke-miterlimit="10" width="33.2" height="38.083"/>
<g>
	<g>
		<path fill="none" stroke="#FFFFFF" stroke-width="0.8975" stroke-miterlimit="10" d="M14.525,20.579c0,0-4.854-2.093,4.894-10.021
			C19.419,10.559,20.731,22.222,14.525,20.579z"/>
		<polygon fill="none" stroke="#FFFFFF" stroke-width="0.8975" stroke-miterlimit="10" points="6.58,33.403 8.487,34.532 
			14.963,21.212 13.605,20.682 		"/>
	</g>
	<path fill="none" stroke="#FFFFFF" stroke-width="0.8975" stroke-miterlimit="10" d="M20.163,3.434
		c-11.508,0.001-16,14.229-12.931,23.418c0.934,2.794,3.018,6.236,5.843,8.229l0.334,0.228c1.064,0.693,2.228,1.178,3.468,1.348
		c4.026,0.553,2.966-2.631,3.364-5.299c0.716-4.798,3.495-5.272,7.1-7.589c2.674-1.718,4.196-3.943,4.79-6.287
		C33.79,10.925,28.183,3.433,20.163,3.434z M17.06,35.253c-1.098,0.574-2.608-0.146-3.374-1.612
		c-0.766-1.464-0.496-3.116,0.604-3.69c1.099-0.573,2.608,0.147,3.374,1.612C18.429,33.027,18.159,34.679,17.06,35.253z
		 M21.155,8.654c-1.308-0.19-2.277-0.974-2.165-1.75c0.113-0.776,1.266-1.252,2.574-1.062c1.309,0.19,2.275,0.975,2.164,1.75
		C23.614,8.369,22.464,8.845,21.155,8.654z M28.008,19.833c-0.677,1.135-1.858,1.679-2.639,1.214
		c-0.781-0.466-0.864-1.764-0.188-2.9c0.676-1.135,1.858-1.678,2.639-1.212C28.602,17.4,28.685,18.697,28.008,19.833z M27.43,14.142
		c-0.885,0.204-1.844-0.675-2.139-1.964c-0.297-1.288,0.183-2.498,1.066-2.701c0.886-0.204,1.844,0.676,2.14,1.964
		C28.793,12.73,28.315,13.939,27.43,14.142z"/>
</g>
</svg>
