<?xml version="1.0" encoding="utf-8"?>
<!-- Generator: Adobe Illustrator 15.0.2, SVG Export Plug-In . SVG Version: 6.00 Build 0)  -->
<!DOCTYPE svg PUBLIC "-//W3C//DTD SVG 1.1//EN" "http://www.w3.org/Graphics/SVG/1.1/DTD/svg11.dtd">
<svg version="1.1" id="Layer_1" xmlns="http://www.w3.org/2000/svg" xmlns:xlink="http://www.w3.org/1999/xlink" x="0px" y="0px"
	 width="35px" height="35px" viewBox="0 0 35 35" enable-background="new 0 0 35 35" xml:space="preserve">
<g>
	<polygon fill="#FFFFFF" points="17.259,30.549 9.755,17.392 2.251,4.234 17.259,4.234 32.268,4.234 24.764,17.392 	"/>
	<g>
		<path fill="#FFFFFF" d="M18.773,29.664c-5-8.699-10.004-17.398-15.006-26.097c-0.506,0.88-1.011,1.76-1.516,2.64
			c10.005,0,20.009,0,30.017,0c-0.506-0.88-1.012-1.76-1.517-2.64c-5.003,8.699-10.005,17.397-15.007,26.097
			c-1.13,1.965,1.902,3.73,3.029,1.771c5.002-8.699,10.006-17.398,15.008-26.099c0.662-1.151-0.178-2.64-1.516-2.64
			c-10.007,0-20.012,0-30.017,0c-1.337,0-2.177,1.488-1.515,2.64c5.004,8.699,10.006,17.397,15.009,26.099
			C16.872,33.395,19.902,31.629,18.773,29.664z"/>
	</g>
</g>
</svg>
