<?xml version="1.0" encoding="iso-8859-1"?>
<!-- Generator: Adobe Illustrator 16.0.3, SVG Export Plug-In . SVG Version: 6.00 Build 0)  -->
<!DOCTYPE svg PUBLIC "-//W3C//DTD SVG 1.1//EN" "http://www.w3.org/Graphics/SVG/1.1/DTD/svg11.dtd">
<svg version="1.1" id="Layer_1" xmlns="http://www.w3.org/2000/svg" xmlns:xlink="http://www.w3.org/1999/xlink" x="0px" y="0px"
	 width="40px" height="40px" viewBox="0 0 40 40" style="enable-background:new 0 0 40 40;" xml:space="preserve">
<g>
	<rect x="8" y="3" style="fill:none;stroke:#FFFFFF;stroke-width:2;stroke-miterlimit:10;" width="26" height="35"/>
	<g>
		<g>
			<path style="fill:#FFFFFF;stroke:#FFFFFF;stroke-width:0.3638;stroke-miterlimit:10;" d="M15.675,25.106l-0.081-0.709h-0.036
				c-0.313,0.441-0.918,0.836-1.723,0.836c-1.139,0-1.72-0.803-1.72-1.617c0-1.361,1.209-2.105,3.384-2.095v-0.116
				c0-0.465-0.126-1.304-1.279-1.304c-0.523,0-1.071,0.163-1.465,0.42l-0.233-0.676c0.466-0.303,1.14-0.5,1.85-0.5
				c1.723,0,2.141,1.176,2.141,2.304v2.106c0,0.489,0.024,0.966,0.094,1.351H15.675z M15.523,22.231
				c-1.117-0.023-2.385,0.174-2.385,1.268c0,0.664,0.441,0.979,0.966,0.979c0.731,0,1.198-0.466,1.361-0.942
				c0.033-0.105,0.058-0.222,0.058-0.327V22.231z"/>
			<path style="fill:#FFFFFF;stroke:#FFFFFF;stroke-width:0.3638;stroke-miterlimit:10;" d="M18.12,25.106
				c0.024-0.385,0.048-0.954,0.048-1.455v-6.808h1.012v3.538h0.022c0.361-0.629,1.014-1.036,1.921-1.036
				c1.396,0,2.386,1.164,2.375,2.874c0,2.014-1.271,3.014-2.526,3.014c-0.814,0-1.467-0.314-1.886-1.058h-0.035l-0.047,0.931H18.12z
				 M19.18,22.849c0,0.129,0.022,0.255,0.047,0.373c0.197,0.709,0.792,1.198,1.537,1.198c1.071,0,1.71-0.874,1.71-2.165
				c0-1.129-0.582-2.095-1.676-2.095c-0.697,0-1.351,0.477-1.559,1.257c-0.022,0.116-0.059,0.256-0.059,0.418V22.849z"/>
			<path style="fill:#FFFFFF;stroke:#FFFFFF;stroke-width:0.3638;stroke-miterlimit:10;" d="M28.808,24.896
				c-0.268,0.14-0.862,0.326-1.617,0.326c-1.698,0-2.804-1.153-2.804-2.874c0-1.734,1.187-2.992,3.025-2.992
				c0.604,0,1.139,0.152,1.42,0.291l-0.234,0.792c-0.244-0.139-0.628-0.269-1.186-0.269c-1.292,0-1.99,0.955-1.99,2.13
				c0,1.305,0.837,2.107,1.954,2.107c0.583,0,0.967-0.152,1.258-0.281L28.808,24.896z"/>
		</g>
	</g>
</g>
</svg>
