<?xml version="1.0" encoding="utf-8"?>
<!-- Generator: Adobe Illustrator 15.0.2, SVG Export Plug-In . SVG Version: 6.00 Build 0)  -->
<!DOCTYPE svg PUBLIC "-//W3C//DTD SVG 1.1//EN" "http://www.w3.org/Graphics/SVG/1.1/DTD/svg11.dtd">
<svg version="1.1" id="Layer_1" xmlns="http://www.w3.org/2000/svg" xmlns:xlink="http://www.w3.org/1999/xlink" x="0px" y="0px"
	 width="24px" height="24px" viewBox="0 0 24 24" enable-background="new 0 0 24 24" xml:space="preserve">
<line fill="none" stroke="#000000" stroke-miterlimit="10" x1="-467.5" y1="-144.5" x2="-465.5" y2="-142.5"/>
<line fill="#73CDDA" x1="-39.438" y1="12.812" x2="-39.438" y2="11.875"/>
<g>
	<defs>
		<rect id="SVGID_1_" x="31.5" y="3" width="27.297" height="17"/>
	</defs>
	<clipPath id="SVGID_2_">
		<use xlink:href="#SVGID_1_"  overflow="visible"/>
	</clipPath>
	
		<rect x="31.5" y="3" opacity="0" clip-path="url(#SVGID_2_)" fill-rule="evenodd" clip-rule="evenodd" fill="#FFFFFF" width="27.297" height="17"/>
</g>
<g>
	<defs>
		<rect id="SVGID_3_" x="31.508" y="3.018" width="27.231" height="16.95"/>
	</defs>
	<clipPath id="SVGID_4_">
		<use xlink:href="#SVGID_3_"  overflow="visible"/>
	</clipPath>
	<g clip-path="url(#SVGID_4_)">
		<defs>
			<rect id="SVGID_5_" x="31.508" y="3.018" width="27.231" height="16.95"/>
		</defs>
		<clipPath id="SVGID_6_">
			<use xlink:href="#SVGID_5_"  overflow="visible"/>
		</clipPath>
	</g>
</g>
<path fill="#FFFFFF" d="M21.151,3.924l-2.533,0.004c-1.2-0.146-1.621-1.08-2.029-1.434c-0.426-0.371-0.909-0.792-1.995-0.792
	c-0.526,0-1.183,0.948-2.047,1.159C12.539,2.864,12.48,2.882,12.47,2.89c-0.131,0.012-0.255,0.016-0.37,0.016
	c-0.403,0-0.688-0.056-0.69-0.056c-0.825-0.2-1.481-1.148-2.008-1.148c-1.086,0-1.569,0.42-1.996,0.792
	c-0.407,0.354-0.829,1.289-1.96,1.43H2.818L1.15,20.854h21.668L21.151,3.924z M16.115,4.388c0.572,0.597,1.195,1.378,3.067,1.412
	l0.061-0.002l1.093,13.151h-0.424c-2.229,0-2.817-0.474-3.337-0.893c-0.435-0.35-0.928-1.312-2.03-1.312
	c-0.298,0-0.632,0.027-1.014,0.083V4.504c0.464-0.068,0.854-0.101,1.183-0.101C15.585,4.403,15.784,4.043,16.115,4.388z
	 M3.697,18.97L4.79,5.818l0.091,0.003c1.995-0.038,2.652-0.336,3.181-0.804C8.197,4.898,8.325,4.781,8.523,4.66
	c0.181-0.129,0.417-0.248,0.92-0.248c0.295,0,0.646,0.039,1.105,0.125c0.153,0.021,0.315,0.045,0.487,0.075v12.332l-0.117-0.02
	l-0.02-0.01l-0.088-0.016c-0.514-0.089-0.945-0.132-1.32-0.132c-1.103,0-1.596,0.962-2.031,1.312
	c-0.521,0.418-1.11,0.892-3.34,0.892H3.697z"/>
</svg>
