<?xml version="1.0" encoding="iso-8859-1"?>
<!-- Generator: Adobe Illustrator 16.0.3, SVG Export Plug-In . SVG Version: 6.00 Build 0)  -->
<!DOCTYPE svg PUBLIC "-//W3C//DTD SVG 1.1//EN" "http://www.w3.org/Graphics/SVG/1.1/DTD/svg11.dtd">
<svg version="1.1" id="Layer_1" xmlns="http://www.w3.org/2000/svg" xmlns:xlink="http://www.w3.org/1999/xlink" x="0px" y="0px"
	 width="35px" height="35px" viewBox="0 0 35 35" style="enable-background:new 0 0 35 35;" xml:space="preserve">
<g>
	<g>
		<polygon style="fill:#FFFFFF;" points="31.002,17.492 18,24.996 5,32.5 5,17.492 5,2.484 18,9.988 		"/>
		<g>
			<path style="fill:#FFFFFF;" d="M30.116,15.978C21.418,20.979,12.719,25.982,4.02,30.985c0.88,0.505,1.76,1.01,2.64,1.515
				c0-10.005,0-20.01,0-30.016C5.78,2.989,4.9,3.494,4.02,3.999c8.699,5.003,17.398,10.005,26.096,15.008
				c1.965,1.13,3.731-1.902,1.771-3.029C23.188,10.975,14.489,5.972,5.791,0.97c-1.151-0.662-2.64,0.178-2.64,1.515
				c0,10.005,0,20.011,0,30.016c0,1.337,1.488,2.177,2.64,1.515c8.699-5.003,17.398-10.005,26.097-15.008
				C33.848,17.88,32.081,14.848,30.116,15.978z"/>
		</g>
	</g>
	<g>
		<g>
			<path style="fill:#FFFFFF;" d="M32.797,32.432c0-9.999,0-19.999,0-29.998c0-2.263-3.508-2.263-3.508,0c0,10,0,19.999,0,29.998
				C29.289,34.694,32.797,34.694,32.797,32.432L32.797,32.432z"/>
		</g>
	</g>
</g>
</svg>
