<?xml version="1.0" encoding="utf-8"?>
<!-- Generator: Adobe Illustrator 15.0.2, SVG Export Plug-In . SVG Version: 6.00 Build 0)  -->
<!DOCTYPE svg PUBLIC "-//W3C//DTD SVG 1.1//EN" "http://www.w3.org/Graphics/SVG/1.1/DTD/svg11.dtd">
<svg version="1.1" id="Layer_1" xmlns="http://www.w3.org/2000/svg" xmlns:xlink="http://www.w3.org/1999/xlink" x="0px" y="0px"
	 width="841.89px" height="595.28px" viewBox="0 0 841.89 595.28" enable-background="new 0 0 841.89 595.28" xml:space="preserve">
<path fill="#FFF200" d="M11,21.052c-1.048,0-1.9-0.78-1.9-1.739V5.241c0-0.959,0.853-1.739,1.9-1.739s1.9,0.78,1.9,1.739v14.072
	C12.899,20.272,12.047,21.052,11,21.052z"/>
<path fill="#FFF200" d="M12.333,19.313c0,0.647-0.597,1.172-1.333,1.172l0,0c-0.737,0-1.333-0.525-1.333-1.172V5.241
	c0-0.647,0.597-1.172,1.333-1.172l0,0c0.736,0,1.333,0.525,1.333,1.172V19.313z"/>
<path fill="#FFF200" d="M18.667,21.052c-1.048,0-1.9-0.78-1.9-1.739V5.241c0-0.959,0.853-1.739,1.9-1.739s1.9,0.78,1.9,1.739v14.072
	C20.566,20.272,19.714,21.052,18.667,21.052z"/>
<path fill="#FFF200" d="M20,19.313c0,0.647-0.597,1.172-1.333,1.172l0,0c-0.737,0-1.333-0.525-1.333-1.172V5.241
	c0-0.647,0.597-1.172,1.333-1.172l0,0C19.403,4.068,20,4.593,20,5.241V19.313z"/>
</svg>
