<?xml version="1.0" encoding="utf-8"?>
<!-- Generator: Adobe Illustrator 15.0.2, SVG Export Plug-In . SVG Version: 6.00 Build 0)  -->
<!DOCTYPE svg PUBLIC "-//W3C//DTD SVG 1.1//EN" "http://www.w3.org/Graphics/SVG/1.1/DTD/svg11.dtd">
<svg version="1.1" id="Layer_1" xmlns="http://www.w3.org/2000/svg" xmlns:xlink="http://www.w3.org/1999/xlink" x="0px" y="0px"
	 width="24px" height="24px" viewBox="0 0 24 24" enable-background="new 0 0 24 24" xml:space="preserve">
<g id="Pause">
	<path fill="#FFF100" d="M7.966,20.398c-1.048,0-1.9-0.781-1.9-1.74V4.587c0-0.959,0.853-1.739,1.9-1.739
		c1.047,0,1.9,0.78,1.9,1.739v14.071C9.866,19.617,9.014,20.398,7.966,20.398z"/>
	<path fill="#FFF100" d="M15.633,20.398c-1.047,0-1.9-0.781-1.9-1.74V4.587c0-0.959,0.854-1.739,1.9-1.739
		c1.049,0,1.9,0.78,1.9,1.739v14.071C17.533,19.617,16.682,20.398,15.633,20.398z"/>
</g>
</svg>
