<?xml version="1.0" encoding="utf-8"?>
<!-- Generator: Adobe Illustrator 15.0.2, SVG Export Plug-In . SVG Version: 6.00 Build 0)  -->
<!DOCTYPE svg PUBLIC "-//W3C//DTD SVG 1.1//EN" "http://www.w3.org/Graphics/SVG/1.1/DTD/svg11.dtd">
<svg version="1.1" id="Layer_1" xmlns="http://www.w3.org/2000/svg" xmlns:xlink="http://www.w3.org/1999/xlink" x="0px" y="0px"
	 width="24px" height="24px" viewBox="0 0 24 24" enable-background="new 0 0 24 24" xml:space="preserve">
<path id="Play" display="none" fill="#FFF100" d="M3.599,3.834c0-1.559,1.104-2.197,2.455-1.417l13.491,7.789
	c1.351,0.78,1.351,2.055,0,2.835L6.054,20.83c-1.351,0.779-2.455,0.141-2.455-1.418V3.834z"/>
<g id="Pause" display="none">
	<path display="inline" fill="#FFF100" d="M7.966,20.398c-1.048,0-1.9-0.781-1.9-1.74V4.587c0-0.959,0.853-1.739,1.9-1.739
		c1.047,0,1.9,0.78,1.9,1.739v14.071C9.866,19.617,9.014,20.398,7.966,20.398z"/>
	<path display="inline" fill="#FFF100" d="M15.633,20.398c-1.047,0-1.9-0.781-1.9-1.74V4.587c0-0.959,0.854-1.739,1.9-1.739
		c1.049,0,1.9,0.78,1.9,1.739v14.071C17.533,19.617,16.682,20.398,15.633,20.398z"/>
</g>
<path id="SkipForward" display="none" fill="#FFF100" d="M18.674,2.848c-1.047,0-1.9,0.78-1.9,1.739V9.16L5.095,2.417
	C3.745,1.638,2.64,2.275,2.64,3.834v15.578c0,1.559,1.104,2.197,2.455,1.418l11.678-6.742v4.57c0,0.959,0.854,1.74,1.9,1.74
	c1.049,0,1.9-0.781,1.9-1.74V4.587C20.574,3.628,19.723,2.848,18.674,2.848z"/>
<path id="SkipBack" display="none" fill="#FFF100" d="M17.145,2.417L6.49,8.569v-3.94c0-0.959-0.852-1.739-1.9-1.739
	c-1.047,0-1.9,0.78-1.9,1.739v6.7c-0.05,0.196-0.05,0.395,0,0.591v6.78c0,0.959,0.854,1.74,1.9,1.74c1.049,0,1.9-0.781,1.9-1.74
	v-4.021l10.654,6.151c1.352,0.779,2.455,0.141,2.455-1.418V3.834C19.6,2.275,18.496,1.638,17.145,2.417z"/>
<path id="FFRew" display="none" fill="#FFF100" d="M20.545,2.376l-2.586,1.493V3.834c0-1.559-1.104-2.197-2.455-1.417L2.013,10.206
	c-1.351,0.781-1.351,2.056,0,2.835l13.491,7.789c1.351,0.779,2.455,0.141,2.455-1.418v-0.116l2.586,1.493
	C21.896,21.568,23,20.93,23,19.371V3.793C23,2.234,21.896,1.596,20.545,2.376z"/>
<path id="FFFor" display="none" fill="#FFF100" d="M3.602,2.333l2.566,1.493V3.792c0-1.559,1.097-2.197,2.437-1.417l13.389,7.789
	c1.341,0.78,1.341,2.055,0,2.833L8.605,20.786c-1.34,0.779-2.437,0.141-2.437-1.418v-0.115l-2.566,1.492
	c-1.339,0.779-2.437,0.141-2.437-1.418V3.75C1.165,2.191,2.262,1.554,3.602,2.333z"/>
</svg>
