<?xml version="1.0" encoding="windows-1252" standalone="no"?>
<svg xmlns="http://www.w3.org/2000/svg" xmlns:xlink="http://www.w3.org/1999/xlink" contentStyleType="text/css" height="814px" preserveAspectRatio="none" style="width:891px;height:814px;background:#FFFFFF;" version="1.1" viewBox="0 0 891 814" width="891px" zoomAndPan="magnify"><defs/><g><rect fill="none" height="104.5313" style="stroke:#000000;stroke-width:1.5;" width="553" x="250.5" y="405.8906"/><rect fill="none" height="104.5313" style="stroke:#000000;stroke-width:1.5;" width="635" x="250.5" y="524.4219"/><line style="stroke:#181818;stroke-width:0.5;stroke-dasharray:5.0,5.0;" x1="27" x2="27" y1="81.2969" y2="733.3516"/><line style="stroke:#181818;stroke-width:0.5;stroke-dasharray:5.0,5.0;" x1="146.5" x2="146.5" y1="81.2969" y2="733.3516"/><line style="stroke:#181818;stroke-width:0.5;stroke-dasharray:5.0,5.0;" x1="338.5" x2="338.5" y1="81.2969" y2="733.3516"/><line style="stroke:#181818;stroke-width:0.5;stroke-dasharray:5.0,5.0;" x1="504.5" x2="504.5" y1="81.2969" y2="733.3516"/><line style="stroke:#181818;stroke-width:0.5;stroke-dasharray:5.0,5.0;" x1="751.5" x2="751.5" y1="81.2969" y2="733.3516"/><line style="stroke:#181818;stroke-width:0.5;stroke-dasharray:5.0,5.0;" x1="839.5" x2="839.5" y1="81.2969" y2="733.3516"/><text fill="#000000" font-family="sans-serif" font-size="14" lengthAdjust="spacing" textLength="39" x="5" y="77.9951">Client</text><ellipse cx="27.5" cy="13.5" fill="#E2E2F0" rx="8" ry="8" style="stroke:#181818;stroke-width:0.5;"/><path d="M27.5,21.5 L27.5,48.5 M14.5,29.5 L40.5,29.5 M27.5,48.5 L14.5,63.5 M27.5,48.5 L40.5,63.5 " fill="none" style="stroke:#181818;stroke-width:0.5;"/><text fill="#000000" font-family="sans-serif" font-size="14" lengthAdjust="spacing" textLength="39" x="5" y="745.3467">Client</text><ellipse cx="27.5" cy="757.1484" fill="#E2E2F0" rx="8" ry="8" style="stroke:#181818;stroke-width:0.5;"/><path d="M27.5,765.1484 L27.5,792.1484 M14.5,773.1484 L40.5,773.1484 M27.5,792.1484 L14.5,807.1484 M27.5,792.1484 L40.5,807.1484 " fill="none" style="stroke:#181818;stroke-width:0.5;"/><text fill="#000000" font-family="sans-serif" font-size="14" lengthAdjust="spacing" textLength="84" x="101.5" y="77.9951">installer.php</text><ellipse cx="146.5" cy="49" fill="#E2E2F0" rx="12" ry="12" style="stroke:#181818;stroke-width:0.5;"/><line style="stroke:#181818;stroke-width:0.5;" x1="134.5" x2="158.5" y1="63" y2="63"/><text fill="#000000" font-family="sans-serif" font-size="14" lengthAdjust="spacing" textLength="84" x="101.5" y="745.3467">installer.php</text><ellipse cx="146.5" cy="764.6484" fill="#E2E2F0" rx="12" ry="12" style="stroke:#181818;stroke-width:0.5;"/><line style="stroke:#181818;stroke-width:0.5;" x1="134.5" x2="158.5" y1="778.6484" y2="778.6484"/><text fill="#000000" font-family="sans-serif" font-size="14" lengthAdjust="spacing" textLength="150" x="260.5" y="77.9951">installer_frontend.php</text><ellipse cx="338.5" cy="49" fill="#E2E2F0" rx="12" ry="12" style="stroke:#181818;stroke-width:0.5;"/><line style="stroke:#181818;stroke-width:0.5;" x1="326.5" x2="350.5" y1="63" y2="63"/><text fill="#000000" font-family="sans-serif" font-size="14" lengthAdjust="spacing" textLength="150" x="260.5" y="745.3467">installer_frontend.php</text><ellipse cx="338.5" cy="764.6484" fill="#E2E2F0" rx="12" ry="12" style="stroke:#181818;stroke-width:0.5;"/><line style="stroke:#181818;stroke-width:0.5;" x1="326.5" x2="350.5" y1="778.6484" y2="778.6484"/><text fill="#000000" font-family="sans-serif" font-size="14" lengthAdjust="spacing" textLength="151" x="426.5" y="77.9951">installer_backend.php</text><ellipse cx="505" cy="49" fill="#E2E2F0" rx="12" ry="12" style="stroke:#181818;stroke-width:0.5;"/><line style="stroke:#181818;stroke-width:0.5;" x1="493" x2="517" y1="63" y2="63"/><text fill="#000000" font-family="sans-serif" font-size="14" lengthAdjust="spacing" textLength="151" x="426.5" y="745.3467">installer_backend.php</text><ellipse cx="505" cy="764.6484" fill="#E2E2F0" rx="12" ry="12" style="stroke:#181818;stroke-width:0.5;"/><line style="stroke:#181818;stroke-width:0.5;" x1="493" x2="517" y1="778.6484" y2="778.6484"/><rect fill="#E2E2F0" height="30.2969" rx="2.5" ry="2.5" style="stroke:#181818;stroke-width:0.5;" width="83" x="710.5" y="50"/><text fill="#000000" font-family="sans-serif" font-size="14" lengthAdjust="spacing" textLength="69" x="717.5" y="69.9951">filesystem</text><rect fill="#E2E2F0" height="30.2969" rx="2.5" ry="2.5" style="stroke:#181818;stroke-width:0.5;" width="83" x="710.5" y="732.3516"/><text fill="#000000" font-family="sans-serif" font-size="14" lengthAdjust="spacing" textLength="69" x="717.5" y="752.3467">filesystem</text><text fill="#000000" font-family="sans-serif" font-size="14" lengthAdjust="spacing" textLength="66" x="803.5" y="77.9951">Database</text><path d="M821.5,29 C821.5,19 839.5,19 839.5,19 C839.5,19 857.5,19 857.5,29 L857.5,55 C857.5,65 839.5,65 839.5,65 C839.5,65 821.5,65 821.5,55 L821.5,29 " fill="#E2E2F0" style="stroke:#181818;stroke-width:1.5;"/><path d="M821.5,29 C821.5,39 839.5,39 839.5,39 C839.5,39 857.5,39 857.5,29 " fill="none" style="stroke:#181818;stroke-width:1.5;"/><text fill="#000000" font-family="sans-serif" font-size="14" lengthAdjust="spacing" textLength="66" x="803.5" y="745.3467">Database</text><path d="M821.5,758.6484 C821.5,748.6484 839.5,748.6484 839.5,748.6484 C839.5,748.6484 857.5,748.6484 857.5,758.6484 L857.5,784.6484 C857.5,794.6484 839.5,794.6484 839.5,794.6484 C839.5,794.6484 821.5,794.6484 821.5,784.6484 L821.5,758.6484 " fill="#E2E2F0" style="stroke:#181818;stroke-width:1.5;"/><path d="M821.5,758.6484 C821.5,768.6484 839.5,768.6484 839.5,768.6484 C839.5,768.6484 857.5,768.6484 857.5,758.6484 " fill="none" style="stroke:#181818;stroke-width:1.5;"/><polygon fill="#181818" points="134.5,123.5625,144.5,127.5625,134.5,131.5625,138.5,127.5625" style="stroke:#181818;stroke-width:1.0;"/><line style="stroke:#181818;stroke-width:1.0;" x1="27.5" x2="140.5" y1="127.5625" y2="127.5625"/><text fill="#000000" font-family="sans-serif" font-size="13" lengthAdjust="spacing" textLength="23" x="34.5" y="107.3638">Get</text><text fill="#000000" font-family="sans-serif" font-size="13" lengthAdjust="spacing" textLength="78" x="34.5" y="122.4966">installer.php</text><polygon fill="#181818" points="326.5,167.8281,336.5,171.8281,326.5,175.8281,330.5,171.8281" style="stroke:#181818;stroke-width:1.0;"/><line style="stroke:#181818;stroke-width:1.0;" x1="146.5" x2="332.5" y1="171.8281" y2="171.8281"/><text fill="#000000" font-family="sans-serif" font-size="13" lengthAdjust="spacing" textLength="23" x="153.5" y="151.6294">Get</text><text fill="#000000" font-family="sans-serif" font-size="13" lengthAdjust="spacing" textLength="139" x="153.5" y="166.7622">installer_frontend.php</text><polygon fill="#181818" points="157.5,196.9609,147.5,200.9609,157.5,204.9609,153.5,200.9609" style="stroke:#181818;stroke-width:1.0;"/><line style="stroke:#181818;stroke-width:1.0;" x1="151.5" x2="337.5" y1="200.9609" y2="200.9609"/><text fill="#000000" font-family="sans-serif" font-size="13" lengthAdjust="spacing" textLength="95" x="163.5" y="195.895">Return content</text><polygon fill="#181818" points="38.5,226.0938,28.5,230.0938,38.5,234.0938,34.5,230.0938" style="stroke:#181818;stroke-width:1.0;"/><line style="stroke:#181818;stroke-width:1.0;" x1="32.5" x2="145.5" y1="230.0938" y2="230.0938"/><text fill="#000000" font-family="sans-serif" font-size="13" lengthAdjust="spacing" textLength="95" x="44.5" y="225.0278">Return content</text><polygon fill="#181818" points="134.5,255.2266,144.5,259.2266,134.5,263.2266,138.5,259.2266" style="stroke:#181818;stroke-width:1.0;"/><line style="stroke:#181818;stroke-width:1.0;" x1="27.5" x2="140.5" y1="259.2266" y2="259.2266"/><text fill="#000000" font-family="sans-serif" font-size="13" lengthAdjust="spacing" textLength="81" x="34.5" y="254.1606">Clicked Start</text><polygon fill="#181818" points="326.5,284.3594,336.5,288.3594,326.5,292.3594,330.5,288.3594" style="stroke:#181818;stroke-width:1.0;"/><line style="stroke:#181818;stroke-width:1.0;" x1="146.5" x2="332.5" y1="288.3594" y2="288.3594"/><text fill="#000000" font-family="sans-serif" font-size="13" lengthAdjust="spacing" textLength="32" x="153.5" y="283.2935">Start</text><polygon fill="#181818" points="157.5,313.4922,147.5,317.4922,157.5,321.4922,153.5,317.4922" style="stroke:#181818;stroke-width:1.0;"/><line style="stroke:#181818;stroke-width:1.0;stroke-dasharray:2.0,2.0;" x1="151.5" x2="337.5" y1="317.4922" y2="317.4922"/><text fill="#000000" font-family="sans-serif" font-size="13" lengthAdjust="spacing" textLength="162" x="163.5" y="312.4263">POST installation settings</text><polygon fill="#181818" points="157.5,357.7578,147.5,361.7578,157.5,365.7578,153.5,361.7578" style="stroke:#181818;stroke-width:1.0;"/><line style="stroke:#181818;stroke-width:1.0;" x1="151.5" x2="337.5" y1="361.7578" y2="361.7578"/><text fill="#000000" font-family="sans-serif" font-size="13" lengthAdjust="spacing" textLength="23" x="163.5" y="341.5591">Get</text><text fill="#000000" font-family="sans-serif" font-size="13" lengthAdjust="spacing" textLength="168" x="163.5" y="356.6919">installer.php?stream=true</text><polygon fill="#181818" points="493,386.8906,503,390.8906,493,394.8906,497,390.8906" style="stroke:#181818;stroke-width:1.0;"/><line style="stroke:#181818;stroke-width:1.0;" x1="146.5" x2="499" y1="390.8906" y2="390.8906"/><text fill="#000000" font-family="sans-serif" font-size="13" lengthAdjust="spacing" textLength="258" x="153.5" y="385.8247">Get install_backend.php (starts installer)</text><path d="M250.5,405.8906 L327.5,405.8906 L327.5,413.0234 L317.5,423.0234 L250.5,423.0234 L250.5,405.8906 " fill="#EEEEEE" style="stroke:#000000;stroke-width:1.5;"/><rect fill="none" height="104.5313" style="stroke:#000000;stroke-width:1.5;" width="553" x="250.5" y="405.8906"/><text fill="#000000" font-family="sans-serif" font-size="13" font-weight="bold" lengthAdjust="spacing" textLength="32" x="265.5" y="418.9575">loop</text><text fill="#000000" font-family="sans-serif" font-size="11" font-weight="bold" lengthAdjust="spacing" textLength="38" x="342.5" y="418.1011">[files]</text><polygon fill="#181818" points="740,440.1563,750,444.1563,740,448.1563,744,444.1563" style="stroke:#181818;stroke-width:1.0;"/><line style="stroke:#181818;stroke-width:1.0;" x1="505" x2="746" y1="444.1563" y2="444.1563"/><text fill="#000000" font-family="sans-serif" font-size="13" lengthAdjust="spacing" textLength="106" x="512" y="439.0903">copy course files</text><polygon fill="#181818" points="516,469.2891,506,473.2891,516,477.2891,512,473.2891" style="stroke:#181818;stroke-width:1.0;"/><line style="stroke:#181818;stroke-width:1.0;" x1="510" x2="751" y1="473.2891" y2="473.2891"/><text fill="#000000" font-family="sans-serif" font-size="13" lengthAdjust="spacing" textLength="117" x="522" y="468.2231">status information</text><polygon fill="#181818" points="349.5,498.4219,339.5,502.4219,349.5,506.4219,345.5,502.4219" style="stroke:#181818;stroke-width:1.0;"/><line style="stroke:#181818;stroke-width:1.0;stroke-dasharray:2.0,2.0;" x1="343.5" x2="504" y1="502.4219" y2="502.4219"/><text fill="#000000" font-family="sans-serif" font-size="13" lengthAdjust="spacing" textLength="110" x="355.5" y="497.356">status messages</text><path d="M250.5,524.4219 L327.5,524.4219 L327.5,531.5547 L317.5,541.5547 L250.5,541.5547 L250.5,524.4219 " fill="#EEEEEE" style="stroke:#000000;stroke-width:1.5;"/><rect fill="none" height="104.5313" style="stroke:#000000;stroke-width:1.5;" width="635" x="250.5" y="524.4219"/><text fill="#000000" font-family="sans-serif" font-size="13" font-weight="bold" lengthAdjust="spacing" textLength="32" x="265.5" y="537.4888">loop</text><text fill="#000000" font-family="sans-serif" font-size="11" font-weight="bold" lengthAdjust="spacing" textLength="65" x="342.5" y="536.6323">[db steps]</text><polygon fill="#181818" points="827.5,558.6875,837.5,562.6875,827.5,566.6875,831.5,562.6875" style="stroke:#181818;stroke-width:1.0;"/><line style="stroke:#181818;stroke-width:1.0;" x1="505" x2="833.5" y1="562.6875" y2="562.6875"/><text fill="#000000" font-family="sans-serif" font-size="13" lengthAdjust="spacing" textLength="75" x="512" y="557.6216">Run queries</text><polygon fill="#181818" points="516,587.8203,506,591.8203,516,595.8203,512,591.8203" style="stroke:#181818;stroke-width:1.0;"/><line style="stroke:#181818;stroke-width:1.0;" x1="510" x2="838.5" y1="591.8203" y2="591.8203"/><text fill="#000000" font-family="sans-serif" font-size="13" lengthAdjust="spacing" textLength="85" x="522" y="586.7544">Query results</text><polygon fill="#181818" points="349.5,616.9531,339.5,620.9531,349.5,624.9531,345.5,620.9531" style="stroke:#181818;stroke-width:1.0;"/><line style="stroke:#181818;stroke-width:1.0;stroke-dasharray:2.0,2.0;" x1="343.5" x2="504" y1="620.9531" y2="620.9531"/><text fill="#000000" font-family="sans-serif" font-size="13" lengthAdjust="spacing" textLength="96" x="355.5" y="615.8872">installation info</text><polygon fill="#181818" points="740,653.0859,750,657.0859,740,661.0859,744,657.0859" style="stroke:#181818;stroke-width:1.0;"/><line style="stroke:#181818;stroke-width:1.0;" x1="505" x2="746" y1="657.0859" y2="657.0859"/><text fill="#000000" font-family="sans-serif" font-size="13" lengthAdjust="spacing" textLength="223" x="512" y="652.02">save db authentication information</text><polygon fill="#181818" points="516,682.2188,506,686.2188,516,690.2188,512,686.2188" style="stroke:#181818;stroke-width:1.0;"/><line style="stroke:#181818;stroke-width:1.0;" x1="510" x2="751" y1="686.2188" y2="686.2188"/><text fill="#000000" font-family="sans-serif" font-size="13" lengthAdjust="spacing" textLength="117" x="522" y="681.1528">status information</text><polygon fill="#181818" points="349.5,711.3516,339.5,715.3516,349.5,719.3516,345.5,715.3516" style="stroke:#181818;stroke-width:1.0;"/><line style="stroke:#181818;stroke-width:1.0;stroke-dasharray:2.0,2.0;" x1="343.5" x2="504" y1="715.3516" y2="715.3516"/><text fill="#000000" font-family="sans-serif" font-size="13" lengthAdjust="spacing" textLength="110" x="355.5" y="710.2856">status messages</text><!--SRC=[bLF9JiCm4BtxAqOvmG4-00cGGWNYn5AEICXDfgr5OXlF62b_ZvrzQLLwiMBFUs_UB94P6mUFpcX6dOCaI1uAXPeJ8SAfk894QM9P5EYkxTuc4VFSlImnNzjMQmdkiXmWRMJsFUQapLrOwLXboahDa6nLWLGHOrbZXgl89SkD98HarNxLY5KgH5_QrTtW16xW2Ha-zQGqCSJ7u5vXGPhKAfQ4MSftPEyqP7MKfzb6IMQmenM4EOKcvR3cqAJJtXlO8PSptTUNzGUqDKfMHWCXiz8x4gThFD3MUsA7ihnbvt5givroIsj9urs02ugk2Nh1Io4AOsmpV06zH50RzY48PiPMuV0kB4M77G4coOCq-vXZQrnPLpmMFjBEbbGYaTm5-RYjZRLy4u9eP-vMQHojr_3ZqQdQJtYQ-7WBaGeSaY-O_c5XCgFelZ5nh2KaVp6QavxtyG_C1c9NzXaTEhC_Vm00]--></g></svg>