<svg xmlns="http://www.w3.org/2000/svg" xmlns:xlink="http://www.w3.org/1999/xlink" xmlns:lucid="lucid" width="1884.15" height="3906.71"><g transform="translate(-1249.2248014048932 -552.383136095422)" lucid:page-tab-id="0_0"><path d="M1000 500h2500v4000H1000z" fill="#fafafa"/><path d="M2558.93 578.38a6 6 0 0 1 6-6h542.44a6 6 0 0 1 6 6V4433.1a6 6 0 0 1-6 6h-542.44a6 6 0 0 1-6-6z" stroke="#5e5e5e" stroke-width="3" fill="#fff"/><path d="M2558.93 633.72h554.44" stroke="#5e5e5e" stroke-width="3" fill="none"/><path d="M1269.22 1388.05a6 6 0 0 1 6-6h411.86a6 6 0 0 1 6 6v394.32a6 6 0 0 1-6 6h-411.86a6 6 0 0 1-6-6z" stroke="#5e5e5e" stroke-width="3" fill="#fff"/><path d="M1269.22 1443.4h423.86" stroke="#5e5e5e" stroke-width="3" fill="none"/><use xlink:href="#a" transform="matrix(1,0,0,1,1293.224801404895,1398.0530761922626) translate(0 25.22222222222222)"/><path d="M1269.22 827.62a6 6 0 0 1 6-6h411.86a6 6 0 0 1 6 6v394.3a6 6 0 0 1-6 6h-411.86a6 6 0 0 1-6-6z" stroke="#5e5e5e" stroke-width="3" fill="#fff"/><path d="M1269.22 882.95h423.86" stroke="#5e5e5e" stroke-width="3" fill="none"/><use xlink:href="#b" transform="matrix(1,0,0,1,1293.224801404895,837.6170824792846) translate(0 25.22222222222222)"/><path d="M2556.92 578.38a6 6 0 0 1 6-6h544.45a6 6 0 0 1 6 6v76a6 6 0 0 1-6 6h-544.45a6 6 0 0 1-6-6z" fill="none"/><use xlink:href="#c" transform="matrix(1,0,0,1,2568.919090844813,584.383136095422) translate(0 43.16666666666667)"/><path d="M2569.32 4261a6 6 0 0 1 6-6h222a6 6 0 0 1 6 6v44.02a6 6 0 0 1-6 6h-222a6 6 0 0 1-6-6z" fill="none"/><use xlink:href="#d" transform="matrix(1,0,0,1,2581.323149603766,4267.005242479079) translate(0 21.833333333333336)"/><path d="M1269.22 1588.62a6 6 0 0 1 6-6h411.86a6 6 0 0 1 6 6v192.14a6 6 0 0 1-6 6h-411.86a6 6 0 0 1-6-6zM1269.22 1028.2a6 6 0 0 1 6-6h411.86a6 6 0 0 1 6 6v192.13a6 6 0 0 1-6 6h-411.86a6 6 0 0 1-6-6z" stroke="#5e5e5e" stroke-width="3" fill="#fff"/><path d="M2010.28 953.88h-297.2v-2h297.2zm546.15 0H2123.6v-2h432.83z" stroke="#5e5e5e" stroke-width=".05" fill="#5e5e5e"/><path d="M1712.08 957.5l-14.27-4.63 14.28-4.63z" fill="#fff"/><path d="M1713.08 958.9l-18.5-6.02 18.5-6.02zm-12.03-6.02l10.03 3.25v-6.5z" stroke="#5e5e5e" stroke-width=".05" fill="#5e5e5e"/><path d="M2557.43 953.88h-1.02v-2h1.03z" fill="#5e5e5e"/><path d="M2557.46 953.9h-1.08v-2.05h1.08zm-1.03-2v1.95h.98v-1.95z" stroke="#5e5e5e" stroke-width=".05" fill="#5e5e5e"/><use xlink:href="#e" transform="matrix(1,0,0,1,2500.415495813601,927.5418927623234) translate(0 14.222222222222223)"/><use xlink:href="#e" transform="matrix(1,0,0,1,1720.1251870445305,927.5418927623224) translate(0 14.222222222222223)"/><use xlink:href="#f" transform="matrix(1,0,0,1,2010.2811704827388,942.2085594289895) translate(0 14.222222222222223)"/><path d="M2069.34 1514.57h-356.26v-2h356.26zm487.1 0h-373.77v-2h373.76z" stroke="#5e5e5e" stroke-width=".05" fill="#5e5e5e"/><path d="M1712.08 1518.2l-14.27-4.63 14.28-4.63z" fill="#fff"/><path d="M1713.08 1519.58l-18.5-6 18.5-6.02zm-12.03-6l10.03 3.25v-6.52z" stroke="#5e5e5e" stroke-width=".05" fill="#5e5e5e"/><path d="M2557.43 1514.57h-1.02v-2h1.03z" fill="#5e5e5e"/><path d="M2557.46 1514.6h-1.08v-2.05h1.08zm-1.03-2v1.95h.98v-1.95z" stroke="#5e5e5e" stroke-width=".05" fill="#5e5e5e"/><use xlink:href="#e" transform="matrix(1,0,0,1,2500.925150631388,1488.2375075742382) translate(0 14.222222222222223)"/><use xlink:href="#e" transform="matrix(1,0,0,1,1727.605185611528,1488.2375075742386) translate(0 14.222222222222223)"/><use xlink:href="#f" transform="matrix(1,0,0,1,2069.3388464395007,1502.9041742409051) translate(0 14.222222222222223)"/><path d="M2569.32 4317.02a6 6 0 0 1 6-6h155.42a6 6 0 0 1 6 6v44a6 6 0 0 1-6 6h-155.42a6 6 0 0 1-6-6z" fill="none"/><use xlink:href="#g" transform="matrix(1,0,0,1,2581.323149603766,4323.01524247908) translate(0.2962962962963047 21.833333333333336)"/><path d="M2571.82 4363.8a6 6 0 0 1 6-6h90.23a6 6 0 0 1 6 6v44a6 6 0 0 1-6 6h-90.23a6 6 0 0 1-6-6z" fill="none"/><use xlink:href="#h" transform="matrix(1,0,0,1,2583.823149603766,4369.802614306227) translate(0 21.833333333333336)"/><path d="M2559.42 666.4a6 6 0 0 1 6-6h46a6 6 0 0 1 6 6v44a6 6 0 0 1-6 6h-46a6 6 0 0 1-6-6z" fill="none"/><use xlink:href="#i" transform="matrix(1,0,0,1,2571.4157421963587,672.3931360954219) translate(0 21.833333333333336)"/><path d="M2558.93 788.9a6 6 0 0 1 6-6h158.53a6 6 0 0 1 6 6v44.02a6 6 0 0 1-6 6h-158.53a6 6 0 0 1-6-6z" fill="none"/><use xlink:href="#j" transform="matrix(1,0,0,1,2570.9342607148774,794.9154992606653) translate(0 21.833333333333336)"/><path d="M2558.93 844.92a6 6 0 0 1 6-6h103.5a6 6 0 0 1 6 6v44a6 6 0 0 1-6 6h-103.5a6 6 0 0 1-6-6z" fill="none"/><use xlink:href="#k" transform="matrix(1,0,0,1,2570.9342607148774,850.9254992606653) translate(0 21.833333333333336)"/><path d="M2561.1 732.9a6 6 0 0 1 6-6h49.04a6 6 0 0 1 6 6v44a6 6 0 0 1-6 6h-49.05a6 6 0 0 1-6-6z" fill="none"/><use xlink:href="#l" transform="matrix(1,0,0,1,2573.088581702532,738.9054992606654) translate(0 21.833333333333336)"/><path d="M2558.93 900.93a6 6 0 0 1 6-6h131.87a6 6 0 0 1 6 6v44.02a6 6 0 0 1-6 6h-131.87a6 6 0 0 1-6-6z" fill="none"/><use xlink:href="#m" transform="matrix(1,0,0,1,2570.9342607148774,906.9354992606654) translate(0 21.833333333333336)"/><path d="M2559.42 956.95a6 6 0 0 1 6-6h161.5a6 6 0 0 1 6 6v44a6 6 0 0 1-6 6h-161.5a6 6 0 0 1-6-6z" fill="none"/><use xlink:href="#n" transform="matrix(1,0,0,1,2571.4157421963587,962.9454992606654) translate(0 21.833333333333336)"/><path d="M2558.93 1012.96a6 6 0 0 1 6-6h82.98a6 6 0 0 1 6 6v44a6 6 0 0 1-6 6h-82.97a6 6 0 0 1-6-6z" fill="none"/><use xlink:href="#o" transform="matrix(1,0,0,1,2570.9342607148774,1018.9554992606654) translate(0 21.833333333333336)"/><path d="M2558.27 1068.96a6 6 0 0 1 6-6h128.9a6 6 0 0 1 6 6v44a6 6 0 0 1-6 6h-128.9a6 6 0 0 1-6-6z" fill="none"/><use xlink:href="#p" transform="matrix(1,0,0,1,2570.2675940482104,1074.9654992606654) translate(0 21.833333333333336)"/><path d="M2559.9 1124.97a6 6 0 0 1 6-6h186.6a6 6 0 0 1 6 6v44a6 6 0 0 1-6 6h-186.6a6 6 0 0 1-6-6z" fill="none"/><use xlink:href="#q" transform="matrix(1,0,0,1,2571.89722367784,1130.9754992606654) translate(0 21.833333333333336)"/><path d="M2559.9 1180.98a6 6 0 0 1 6-6h148.23a6 6 0 0 1 6 6v44a6 6 0 0 1-6 6H2565.9a6 6 0 0 1-6-6z" fill="none"/><use xlink:href="#r" transform="matrix(1,0,0,1,2571.89722367784,1186.9854992606654) translate(0 21.833333333333336)"/><path d="M2559.42 1237a6 6 0 0 1 6-6h115.63a6 6 0 0 1 6 6v44a6 6 0 0 1-6 6h-115.63a6 6 0 0 1-6-6z" fill="none"/><use xlink:href="#s" transform="matrix(1,0,0,1,2571.4157421963587,1242.9954992606654) translate(0 21.833333333333336)"/><path d="M2558.27 1293a6 6 0 0 1 6-6h108.3a6 6 0 0 1 6 6v44.02a6 6 0 0 1-6 6h-108.3a6 6 0 0 1-6-6z" fill="none"/><use xlink:href="#t" transform="matrix(1,0,0,1,2570.2675940482104,1299.0054992606654) translate(0 21.833333333333336)"/><path d="M2562.46 4244.2h546.66M2562.48 4244.2h-1.02M3109.1 4244.2h1.02" stroke="#5e5e5e" stroke-width="2" fill="none"/><path d="M2562.68 1349.02a6 6 0 0 1 6-6h146.67a6 6 0 0 1 6 6v44a6 6 0 0 1-6 6h-146.67a6 6 0 0 1-6-6z" fill="none"/><use xlink:href="#u" transform="matrix(1,0,0,1,2574.6750014556183,1355.0154992606654) translate(0 21.833333333333336)"/><path d="M2562.2 1405.03a6 6 0 0 1 6-6h71.2a6 6 0 0 1 6 6v44a6 6 0 0 1-6 6h-71.2a6 6 0 0 1-6-6z" fill="none"/><use xlink:href="#v" transform="matrix(1,0,0,1,2574.1935199741365,1411.0254992606654) translate(0 21.833333333333336)"/><path d="M2561.53 1461.04a6 6 0 0 1 6-6h114.08a6 6 0 0 1 6 6v44a6 6 0 0 1-6 6h-114.07a6 6 0 0 1-6-6z" fill="none"/><use xlink:href="#w" transform="matrix(1,0,0,1,2573.52685330747,1467.0354992606653) translate(0 21.833333333333336)"/><path d="M2563.16 1517.05a6 6 0 0 1 6-6h233.86a6 6 0 0 1 6 6v44a6 6 0 0 1-6 6h-233.86a6 6 0 0 1-6-6z" fill="none"/><use xlink:href="#x" transform="matrix(1,0,0,1,2575.1564829370996,1523.0454992606653) translate(0 21.833333333333336)"/><path d="M2563.16 1573.06a6 6 0 0 1 6-6h84.45a6 6 0 0 1 6 6v44a6 6 0 0 1-6 6h-84.44a6 6 0 0 1-6-6z" fill="none"/><use xlink:href="#y" transform="matrix(1,0,0,1,2575.1564829370996,1579.0554992606653) translate(0 21.833333333333336)"/><path d="M2562.68 1629.07a6 6 0 0 1 6-6h86.08a6 6 0 0 1 6 6v44a6 6 0 0 1-6 6h-86.1a6 6 0 0 1-5.98-6z" fill="none"/><use xlink:href="#z" transform="matrix(1,0,0,1,2574.6750014556183,1635.0654992606653) translate(0 21.833333333333336)"/><path d="M2561.53 1685.08a6 6 0 0 1 6-6h78.6a6 6 0 0 1 6 6v44a6 6 0 0 1-6 6h-78.6a6 6 0 0 1-6-6z" fill="none"/><use xlink:href="#A" transform="matrix(1,0,0,1,2573.52685330747,1691.0754992606653) translate(0 21.833333333333336)"/><path d="M2562.05 1735.75a6 6 0 0 1 6-6h54.82a6 6 0 0 1 6 6v44a6 6 0 0 1-6 6h-54.82a6 6 0 0 1-6-6z" fill="none"/><use xlink:href="#B" transform="matrix(1,0,0,1,2574.0453718259882,1741.752165927332) translate(0 21.833333333333336)"/><path d="M2561.38 1791.76a6 6 0 0 1 6-6h130.38a6 6 0 0 1 6 6v44a6 6 0 0 1-6 6h-130.38a6 6 0 0 1-6-6z" fill="none"/><use xlink:href="#C" transform="matrix(1,0,0,1,2573.3787051593217,1797.762165927332) translate(0 21.833333333333336)"/><path d="M2563 1847.77a6 6 0 0 1 6-6h112.6a6 6 0 0 1 6 6v44a6 6 0 0 1-6 6H2569a6 6 0 0 1-6-6z" fill="none"/><use xlink:href="#D" transform="matrix(1,0,0,1,2575.0083347889513,1853.772165927332) translate(0 21.833333333333336)"/><path d="M2563 1903.78a6 6 0 0 1 6-6h54.9a6 6 0 0 1 6 6v44a6 6 0 0 1-6 6H2569a6 6 0 0 1-6-6z" fill="none"/><use xlink:href="#E" transform="matrix(1,0,0,1,2575.0083347889513,1909.782165927332) translate(0 21.833333333333336)"/><path d="M2562.53 1959.8a6 6 0 0 1 6-6h41.64a6 6 0 0 1 6 6v44a6 6 0 0 1-6 6h-41.64a6 6 0 0 1-6-6z" fill="none"/><use xlink:href="#F" transform="matrix(1,0,0,1,2574.52685330747,1965.792165927332) translate(0 21.833333333333336)"/><path d="M2561.38 2015.8a6 6 0 0 1 6-6h197.8a6 6 0 0 1 6 6v44a6 6 0 0 1-6 6h-197.8a6 6 0 0 1-6-6z" fill="none"/><use xlink:href="#G" transform="matrix(1,0,0,1,2573.3787051593217,2021.8021659273318) translate(0 21.833333333333336)"/><path d="M2558.93 2066.48a6 6 0 0 1 6-6h140.68a6 6 0 0 1 6 6v44a6 6 0 0 1-6 6h-140.67a6 6 0 0 1-6-6z" fill="none"/><use xlink:href="#H" transform="matrix(1,0,0,1,2570.9342607148774,2072.4788325939985) translate(0 21.833333333333336)"/><path d="M2560.43 2117.16a6 6 0 0 1 6-6h108.23a6 6 0 0 1 6 6v44a6 6 0 0 1-6 6h-108.23a6 6 0 0 1-6-6z" fill="none"/><use xlink:href="#I" transform="matrix(1,0,0,1,2572.4310942407337,2123.1554992606652) translate(0 21.833333333333336)"/><path d="M2559.9 2167.83a6 6 0 0 1 6-6h56.45a6 6 0 0 1 6 6v44a6 6 0 0 1-6 6h-56.45a6 6 0 0 1-6-6z" fill="none"/><use xlink:href="#J" transform="matrix(1,0,0,1,2571.89722367784,2173.832165927332) translate(0 21.833333333333336)"/><path d="M2559.95 2218.5a6 6 0 0 1 6-6h115.64a6 6 0 0 1 6 6v44.02a6 6 0 0 1-6 6h-115.65a6 6 0 0 1-6-6z" fill="none"/><use xlink:href="#s" transform="matrix(1,0,0,1,2571.949612759253,2224.5088325939987) translate(0 21.833333333333336)"/><path d="M2558.93 2269.2a6 6 0 0 1 6-6h108.3a6 6 0 0 1 6 6v44a6 6 0 0 1-6 6h-108.3a6 6 0 0 1-6-6z" fill="none"/><use xlink:href="#t" transform="matrix(1,0,0,1,2570.9342607148774,2275.1854992606654) translate(0 21.833333333333336)"/><path d="M2560.43 2325.2a6 6 0 0 1 6-6h146.68a6 6 0 0 1 6 6v44a6 6 0 0 1-6 6h-146.67a6 6 0 0 1-6-6z" fill="none"/><use xlink:href="#u" transform="matrix(1,0,0,1,2572.431094240734,2331.1954992606657) translate(0 21.833333333333336)"/><path d="M2559.42 2375.87a6 6 0 0 1 6-6h68.08a6 6 0 0 1 6 6v44a6 6 0 0 1-6 6h-68.08a6 6 0 0 1-6-6z" fill="none"/><use xlink:href="#K" transform="matrix(1,0,0,1,2571.4157421963587,2381.8721659273324) translate(0 21.833333333333336)"/><path d="M2561.1 2426.55a6 6 0 0 1 6-6h302.07a6 6 0 0 1 6 6v44a6 6 0 0 1-6 6H2567.1a6 6 0 0 1-6-6z" fill="none"/><use xlink:href="#L" transform="matrix(1,0,0,1,2573.088581702532,2432.548832593999) translate(0 21.833333333333336)"/><path d="M2562.6 2482.56a6 6 0 0 1 6-6h118.5a6 6 0 0 1 6 6v44a6 6 0 0 1-6 6h-118.5a6 6 0 0 1-6-6z" fill="none"/><use xlink:href="#M" transform="matrix(1,0,0,1,2574.5854152283887,2488.5588325939993) translate(0 21.833333333333336)"/><path d="M2561.57 2533.24a6 6 0 0 1 6-6h97.8a6 6 0 0 1 6 6v44a6 6 0 0 1-6 6h-97.8a6 6 0 0 1-6-6z" fill="none"/><use xlink:href="#N" transform="matrix(1,0,0,1,2573.570063184013,2539.235499260666) translate(0 21.833333333333336)"/><path d="M2559.95 2583.9a6 6 0 0 1 6-6h72.6a6 6 0 0 1 6 6v44.02a6 6 0 0 1-6 6h-72.6a6 6 0 0 1-6-6z" fill="none"/><use xlink:href="#O" transform="matrix(1,0,0,1,2571.949612759253,2589.912165927333) translate(0 21.833333333333336)"/><path d="M2561.57 2639.92a6 6 0 0 1 6-6h68.16a6 6 0 0 1 6 6v44a6 6 0 0 1-6 6h-68.16a6 6 0 0 1-6-6z" fill="none"/><use xlink:href="#P" transform="matrix(1,0,0,1,2573.570063184013,2645.922165927333) translate(0 21.833333333333336)"/><path d="M2561.38 2695.93a6 6 0 0 1 6-6h111.12a6 6 0 0 1 6 6v44a6 6 0 0 1-6 6h-111.12a6 6 0 0 1-6-6z" fill="none"/><use xlink:href="#Q" transform="matrix(1,0,0,1,2573.3787051593217,2701.9321659273332) translate(0 21.833333333333336)"/><path d="M2559.9 2751.94a6 6 0 0 1 6-6h78.6a6 6 0 0 1 6 6v44a6 6 0 0 1-6 6h-78.6a6 6 0 0 1-6-6z" fill="none"/><use xlink:href="#R" transform="matrix(1,0,0,1,2571.89722367784,2757.9421659273335) translate(0 21.833333333333336)"/><path d="M2558.5 2807.95a6 6 0 0 1 6-6h202.82a6 6 0 0 1 6 6v44a6 6 0 0 1-6 6H2564.5a6 6 0 0 1-6-6z" fill="none"/><use xlink:href="#S" transform="matrix(1,0,0,1,2570.489816270433,2813.9521659273337) translate(0 21.833333333333336)"/><path d="M2559.42 2863.96a6 6 0 0 1 6-6h87.4a6 6 0 0 1 6 6v44a6 6 0 0 1-6 6h-87.4a6 6 0 0 1-6-6z" fill="none"/><use xlink:href="#T" transform="matrix(1,0,0,1,2571.4157421963587,2869.962165927334) translate(0 21.833333333333336)"/><path d="M2558.27 2919.97a6 6 0 0 1 6-6h85.93a6 6 0 0 1 6 6v44a6 6 0 0 1-6 6h-85.93a6 6 0 0 1-6-6z" fill="none"/><use xlink:href="#U" transform="matrix(1,0,0,1,2570.2675940482104,2925.972165927334) translate(0 21.833333333333336)"/><path d="M2559.9 2975.98a6 6 0 0 1 6-6h114.08a6 6 0 0 1 6 6v44a6 6 0 0 1-6 6H2565.9a6 6 0 0 1-6-6z" fill="none"/><use xlink:href="#V" transform="matrix(1,0,0,1,2571.89722367784,2981.9821659273343) translate(0 21.833333333333336)"/><path d="M2558.5 3026h65.48v56h-65.5z" fill="none"/><use xlink:href="#W" transform="matrix(1,0,0,1,2570.489816270433,3037.9921659273346) translate(0 21.333333333333336)"/><path d="M2558.5 3088.2h80.15v56.02h-80.16z" fill="none"/><use xlink:href="#X" transform="matrix(1,0,0,1,2570.489816270433,3100.211367809543) translate(0 21.333333333333336)"/><path d="M2559.34 3138h152.6v56.02h-152.6z" fill="none"/><use xlink:href="#Y" transform="matrix(1,0,0,1,2571.341668122285,3150.012165927335) translate(0 21.333333333333336)"/><path d="M2560.43 3194.02h90.6v56h-90.6z" fill="none"/><use xlink:href="#Z" transform="matrix(1,0,0,1,2572.4310942407337,3206.022165927335) translate(0 21.333333333333336)"/><path d="M2561.57 3250.03h87.64v56h-87.63z" fill="none"/><use xlink:href="#aa" transform="matrix(1,0,0,1,2573.570063184013,3262.0321659273354) translate(0 21.333333333333336)"/><path d="M2559.34 3299.83h186.46v56h-186.46z" fill="none"/><use xlink:href="#ab" transform="matrix(1,0,0,1,2571.341668122285,3311.8329640451275) translate(0 21.333333333333336)"/><path d="M2560.43 3355.84h161.72v56h-161.72z" fill="none"/><use xlink:href="#ac" transform="matrix(1,0,0,1,2572.4310942407337,3367.8429640451277) translate(0 21.333333333333336)"/><path d="M2561.1 3411.85h126.07v56H2561.1z" fill="none"/><use xlink:href="#w" transform="matrix(1,0,0,1,2573.088581702532,3423.852964045128) translate(0 21.333333333333336)"/><path d="M2560.43 3461.65h103.86v56h-103.87z" fill="none"/><use xlink:href="#ad" transform="matrix(1,0,0,1,2572.4310942407337,3473.65376216292) translate(0 21.333333333333336)"/><path d="M2560.43 3517.66h129.05v56h-129.05z" fill="none"/><use xlink:href="#ae" transform="matrix(1,0,0,1,2572.4310942407337,3529.66376216292) translate(0 21.333333333333336)"/><path d="M2559.6 3567.47h223.72v56h-223.7z" fill="none"/><use xlink:href="#af" transform="matrix(1,0,0,1,2571.60710022105,3579.4645602807122) translate(0 21.333333333333336)"/><path d="M2561.38 3623.47h103.93v56.02H2561.4z" fill="none"/><use xlink:href="#ag" transform="matrix(1,0,0,1,2573.3787051593217,3635.4745602807125) translate(0 21.333333333333336)"/><path d="M2563.16 3679.5h161.56v56h-161.56z" fill="none"/><use xlink:href="#ah" transform="matrix(1,0,0,1,2575.1564829370996,3691.4845602807127) translate(0 21.333333333333336)"/><path d="M2563.5 3735.5h111.35v56H2563.5z" fill="none"/><use xlink:href="#ai" transform="matrix(1,0,0,1,2575.505406798286,3747.494560280713) translate(0 21.333333333333336)"/><path d="M2558.27 3775.94h166v56h-166z" fill="none"/><use xlink:href="#aj" transform="matrix(1,0,0,1,2570.2675940482104,3787.9359083045574) translate(0 21.333333333333336)"/><path d="M2562.2 3824.47h209.78v56h-209.8z" fill="none"/><use xlink:href="#G" transform="matrix(1,0,0,1,2574.1935199741365,3836.46903139185) translate(0 21.333333333333336)"/><path d="M2558.93 3880.48h285.72v56h-285.72z" fill="none"/><use xlink:href="#ak" transform="matrix(1,0,0,1,2570.9342607148774,3892.47903139185) translate(0 21.333333333333336)"/><path d="M2558.27 3936.5h223.7v56h-223.7z" fill="none"/><use xlink:href="#af" transform="matrix(1,0,0,1,2570.2675940482104,3948.4890313918504) translate(0 21.333333333333336)"/><path d="M2558.5 3985.02h210.37v56H2558.5z" fill="none"/><use xlink:href="#al" transform="matrix(1,0,0,1,2570.489816270433,3997.022154479143) translate(0 21.333333333333336)"/><path d="M2556.92 4041.03h103.86v56h-103.86z" fill="none"/><use xlink:href="#ad" transform="matrix(1,0,0,1,2568.919090844813,4053.032154479143) translate(0 21.333333333333336)"/><path d="M2556.92 4089.57h123.12v56h-123.12z" fill="none"/><use xlink:href="#am" transform="matrix(1,0,0,1,2568.919090844813,4101.565277566436) translate(0 21.333333333333336)"/><path d="M2558.27 4138.8h84.6v56h-84.6z" fill="none"/><use xlink:href="#an" transform="matrix(1,0,0,1,2570.2675940482104,4150.802841952385) translate(0 21.333333333333336)"/><defs><path d="M194-120c59 52 2 134-86 124-53-6-90-18-98-63l31-7c8 30 29 43 70 43 46 0 84-17 71-62-32-43-135-20-137-98-3-89 178-90 191-16l-30 9c-8-48-127-53-127 5 0 53 81 35 115 65" id="ao"/><path d="M67-158c15-20 31-36 64-36 94 0 33 127 27 194h-32l25-140c3-38-53-32-70-12C52-117 51-51 37 0H6l51-261h31" id="ap"/><path d="M165-48c-4 18 1 34 23 27l-3 20c-29 8-62 0-52-35h-2C116-14 99 4 63 4 30 4 8-16 8-49c0-68 71-67 138-67 10-26 0-56-31-54-26 1-42 9-47 31l-32-5c8-67 160-71 144 15-5 28-9 54-15 81zM42-50c3 52 80 24 89-6 7-12 7-24 11-38-47 1-103-4-100 44" id="aq"/><path d="M66-151c12-25 30-51 66-40l-6 26C45-176 58-65 38 0H6l36-190h30" id="ar"/><path d="M111-194c62-3 86 47 72 106H45c-7 38 6 69 45 68 27-1 43-14 53-32l24 11C152-15 129 4 87 4 38 3 12-23 12-71c0-70 32-119 99-123zm44 81c14-66-71-72-95-28-4 8-8 17-11 28h106" id="as"/><path d="M133-28C103 26-5 8 13-77c13-62 24-115 90-117 29-1 46 15 56 35l19-102h32L160 0h-30zM45-64c-2 27 10 43 35 43 54-1 69-50 69-103 0-29-15-46-42-46-53-1-58 58-62 106" id="at"/><path d="M-20 4l123-265h28L8 4h-28" id="au"/><path d="M68-162c25-46 127-43 121 31C183-60 169 1 98 4 69 5 53-11 43-31L36 0H5l52-261h31zm88 36c2-27-9-43-34-43-55 0-70 51-70 103 0 29 15 45 43 46 52 0 58-58 61-106" id="av"/><path d="M55-144c13 50 104 24 104 88C159 21 15 23 1-39l26-10c6 40 102 42 102-4-13-50-104-23-104-87 0-71 143-71 148-8l-29 4c-5-35-85-37-89 0" id="aw"/><path d="M50-231l6-30h32l-6 30H50zM6 0l37-190h31L37 0H6" id="ax"/><path d="M44-68c0 29 11 47 38 47 30 0 42-19 51-41l28 9C148-21 126 4 82 4 31 4 10-29 12-85c3-77 74-140 146-93 12 8 15 23 18 40l-31 5c-1-22-13-36-36-36-52 0-65 49-65 101" id="ay"/><path d="M14 0l8-38h34L48 0H14" id="az"/><path d="M67-162c32-53 139-36 121 50C175-51 163 2 97 4 68 4 52-11 42-31 38 6 28 39 22 75H-9l50-265h29c-1 10 0 20-3 28zm89 36c0-26-10-43-35-43-54 0-67 50-69 103-1 29 14 45 42 46 53 0 62-58 62-106" id="aA"/><g id="a"><use transform="matrix(0.08641975308641975,0,0,0.08641975308641975,0,0)" xlink:href="#ao"/><use transform="matrix(0.08641975308641975,0,0,0.08641975308641975,20.74074074074074,0)" xlink:href="#ap"/><use transform="matrix(0.08641975308641975,0,0,0.08641975308641975,38.02469135802469,0)" xlink:href="#aq"/><use transform="matrix(0.08641975308641975,0,0,0.08641975308641975,55.30864197530864,0)" xlink:href="#ar"/><use transform="matrix(0.08641975308641975,0,0,0.08641975308641975,65.59259259259258,0)" xlink:href="#as"/><use transform="matrix(0.08641975308641975,0,0,0.08641975308641975,82.87654320987653,0)" xlink:href="#at"/><use transform="matrix(0.08641975308641975,0,0,0.08641975308641975,100.1604938271605,0)" xlink:href="#au"/><use transform="matrix(0.08641975308641975,0,0,0.08641975308641975,108.80246913580247,0)" xlink:href="#av"/><use transform="matrix(0.08641975308641975,0,0,0.08641975308641975,126.08641975308642,0)" xlink:href="#aq"/><use transform="matrix(0.08641975308641975,0,0,0.08641975308641975,143.37037037037035,0)" xlink:href="#aw"/><use transform="matrix(0.08641975308641975,0,0,0.08641975308641975,158.9259259259259,0)" xlink:href="#ax"/><use transform="matrix(0.08641975308641975,0,0,0.08641975308641975,165.75308641975306,0)" xlink:href="#ay"/><use transform="matrix(0.08641975308641975,0,0,0.08641975308641975,181.3086419753086,0)" xlink:href="#az"/><use transform="matrix(0.08641975308641975,0,0,0.08641975308641975,189.95061728395058,0)" xlink:href="#aA"/><use transform="matrix(0.08641975308641975,0,0,0.08641975308641975,207.23456790123453,0)" xlink:href="#ap"/><use transform="matrix(0.08641975308641975,0,0,0.08641975308641975,224.51851851851848,0)" xlink:href="#aA"/></g><path d="M30-147c31-64 166-65 159 27C183-49 158 1 86 4 9 8 1-88 30-147zM88-20c53 0 68-48 68-100 0-31-11-51-44-50-52 1-68 46-68 97 0 32 13 53 44 53" id="aB"/><path d="M67-158c22-48 132-52 116 29L158 0h-32l25-140c3-38-53-32-70-12C52-117 51-52 38 0H6l36-190h30" id="aC"/><g id="b"><use transform="matrix(0.08641975308641975,0,0,0.08641975308641975,0,0)" xlink:href="#ao"/><use transform="matrix(0.08641975308641975,0,0,0.08641975308641975,20.74074074074074,0)" xlink:href="#ap"/><use transform="matrix(0.08641975308641975,0,0,0.08641975308641975,38.02469135802469,0)" xlink:href="#aq"/><use transform="matrix(0.08641975308641975,0,0,0.08641975308641975,55.30864197530864,0)" xlink:href="#ar"/><use transform="matrix(0.08641975308641975,0,0,0.08641975308641975,65.59259259259258,0)" xlink:href="#as"/><use transform="matrix(0.08641975308641975,0,0,0.08641975308641975,82.87654320987653,0)" xlink:href="#at"/><use transform="matrix(0.08641975308641975,0,0,0.08641975308641975,100.1604938271605,0)" xlink:href="#au"/><use transform="matrix(0.08641975308641975,0,0,0.08641975308641975,108.80246913580247,0)" xlink:href="#aw"/><use transform="matrix(0.08641975308641975,0,0,0.08641975308641975,124.35802469135801,0)" xlink:href="#as"/><use transform="matrix(0.08641975308641975,0,0,0.08641975308641975,141.64197530864197,0)" xlink:href="#aw"/><use transform="matrix(0.08641975308641975,0,0,0.08641975308641975,157.19753086419752,0)" xlink:href="#aw"/><use transform="matrix(0.08641975308641975,0,0,0.08641975308641975,172.75308641975306,0)" xlink:href="#ax"/><use transform="matrix(0.08641975308641975,0,0,0.08641975308641975,179.58024691358023,0)" xlink:href="#aB"/><use transform="matrix(0.08641975308641975,0,0,0.08641975308641975,196.86419753086417,0)" xlink:href="#aC"/><use transform="matrix(0.08641975308641975,0,0,0.08641975308641975,214.14814814814812,0)" xlink:href="#aw"/><use transform="matrix(0.08641975308641975,0,0,0.08641975308641975,229.70370370370364,0)" xlink:href="#az"/><use transform="matrix(0.08641975308641975,0,0,0.08641975308641975,238.3456790123456,0)" xlink:href="#aA"/><use transform="matrix(0.08641975308641975,0,0,0.08641975308641975,255.62962962962956,0)" xlink:href="#ap"/><use transform="matrix(0.08641975308641975,0,0,0.08641975308641975,272.9135802469135,0)" xlink:href="#aA"/></g><path fill="#333" d="M190-63c-7 42-38 67-86 67-59 0-84-38-90-98-12-110 154-137 174-36l-49 2c-2-19-15-32-35-32-30 0-35 28-38 64-6 74 65 87 74 30" id="aD"/><path fill="#333" d="M110-194c64 0 96 36 96 99 0 64-35 99-97 99-61 0-95-36-95-99 0-62 34-99 96-99zm-1 164c35 0 45-28 45-65 0-40-10-65-43-65-34 0-45 26-45 65 0 36 10 65 43 65" id="aE"/><path fill="#333" d="M85 4C-2 5 27-109 22-190h50c7 57-23 150 33 157 60-5 35-97 40-157h50l1 190h-47c-2-12 1-28-3-38-12 25-28 42-61 42" id="aF"/><path fill="#333" d="M135-150c-39-12-60 13-60 57V0H25l-1-190h47c2 13-1 29 3 40 6-28 27-53 61-41v41" id="aG"/><path fill="#333" d="M137-138c1-29-70-34-71-4 15 46 118 7 119 86 1 83-164 76-172 9l43-7c4 19 20 25 44 25 33 8 57-30 24-41C81-84 22-81 20-136c-2-80 154-74 161-7" id="aH"/><path fill="#333" d="M185-48c-13 30-37 53-82 52C43 2 14-33 14-96s30-98 90-98c62 0 83 45 84 108H66c0 31 8 55 39 56 18 0 30-7 34-22zm-45-69c5-46-57-63-70-21-2 6-4 13-4 21h74" id="aI"/><path fill="#333" d="M88-194c31-1 46 15 58 34l-1-101h50l1 261h-48c-2-10 0-23-3-31C134-8 116 4 84 4 32 4 16-41 15-95c0-56 19-97 73-99zm17 164c33 0 40-30 41-66 1-37-9-64-41-64s-38 30-39 65c0 43 13 65 39 65" id="aJ"/><path fill="#333" d="M128 0H69L1-190h53L99-40l48-150h52" id="aK"/><path fill="#333" d="M25-224v-37h50v37H25zM25 0v-190h50V0H25" id="aL"/><path fill="#333" d="M24 0v-54h51V0H24" id="aM"/><path fill="#333" d="M135-194c53 0 70 44 70 98 0 56-19 98-73 100-31 1-45-17-59-34 3 33 2 69 2 105H25l-1-265h48c2 10 0 23 3 31 11-24 29-35 60-35zM114-30c33 0 39-31 40-66 0-38-9-64-40-64-56 0-55 130 0 130" id="aN"/><path fill="#333" d="M114-157C55-157 80-60 75 0H25v-261h50l-1 109c12-26 28-41 61-42 86-1 58 113 63 194h-50c-7-57 23-157-34-157" id="aO"/><g id="c"><use transform="matrix(0.14814814814814817,0,0,0.14814814814814817,0,0)" xlink:href="#aD"/><use transform="matrix(0.14814814814814817,0,0,0.14814814814814817,29.629629629629633,0)" xlink:href="#aE"/><use transform="matrix(0.14814814814814817,0,0,0.14814814814814817,62.07407407407408,0)" xlink:href="#aF"/><use transform="matrix(0.14814814814814817,0,0,0.14814814814814817,94.51851851851853,0)" xlink:href="#aG"/><use transform="matrix(0.14814814814814817,0,0,0.14814814814814817,115.25925925925928,0)" xlink:href="#aH"/><use transform="matrix(0.14814814814814817,0,0,0.14814814814814817,144.8888888888889,0)" xlink:href="#aI"/><use transform="matrix(0.14814814814814817,0,0,0.14814814814814817,174.51851851851853,0)" xlink:href="#aI"/><use transform="matrix(0.14814814814814817,0,0,0.14814814814814817,204.14814814814815,0)" xlink:href="#aJ"/><use transform="matrix(0.14814814814814817,0,0,0.14814814814814817,236.59259259259264,0)" xlink:href="#aH"/><use transform="matrix(0.14814814814814817,0,0,0.14814814814814817,266.22222222222223,0)" xlink:href="#aI"/><use transform="matrix(0.14814814814814817,0,0,0.14814814814814817,295.85185185185185,0)" xlink:href="#aG"/><use transform="matrix(0.14814814814814817,0,0,0.14814814814814817,316.5925925925926,0)" xlink:href="#aK"/><use transform="matrix(0.14814814814814817,0,0,0.14814814814814817,346.22222222222223,0)" xlink:href="#aL"/><use transform="matrix(0.14814814814814817,0,0,0.14814814814814817,361.03703703703707,0)" xlink:href="#aD"/><use transform="matrix(0.14814814814814817,0,0,0.14814814814814817,390.66666666666674,0)" xlink:href="#aI"/><use transform="matrix(0.14814814814814817,0,0,0.14814814814814817,420.2962962962963,0)" xlink:href="#aM"/><use transform="matrix(0.14814814814814817,0,0,0.14814814814814817,435.11111111111114,0)" xlink:href="#aN"/><use transform="matrix(0.14814814814814817,0,0,0.14814814814814817,467.5555555555556,0)" xlink:href="#aO"/><use transform="matrix(0.14814814814814817,0,0,0.14814814814814817,500.00000000000006,0)" xlink:href="#aN"/></g><path fill="#333" d="M24 0v-261h32V0H24" id="aP"/><path fill="#333" d="M100-194c62-1 85 37 85 99 1 63-27 99-86 99S16-35 15-95c0-66 28-99 85-99zM99-20c44 1 53-31 53-75 0-43-8-75-51-75s-53 32-53 75 10 74 51 75" id="aQ"/><path fill="#333" d="M177-190C167-65 218 103 67 71c-23-6-38-20-44-43l32-5c15 47 100 32 89-28v-30C133-14 115 1 83 1 29 1 15-40 15-95c0-56 16-97 71-98 29-1 48 16 59 35 1-10 0-23 2-32h30zM94-22c36 0 50-32 50-73 0-42-14-75-50-75-39 0-46 34-46 75s6 73 46 73" id="aR"/><path fill="#333" d="M185-189c-5-48-123-54-124 2 14 75 158 14 163 119 3 78-121 87-175 55-17-10-28-26-33-46l33-7c5 56 141 63 141-1 0-78-155-14-162-118-5-82 145-84 179-34 5 7 8 16 11 25" id="aS"/><path fill="#333" d="M100-194c63 0 86 42 84 106H49c0 40 14 67 53 68 26 1 43-12 49-29l28 8c-11 28-37 45-77 45C44 4 14-33 15-96c1-61 26-98 85-98zm52 81c6-60-76-77-97-28-3 7-6 17-6 28h103" id="aT"/><path fill="#333" d="M114-163C36-179 61-72 57 0H25l-1-190h30c1 12-1 29 2 39 6-27 23-49 58-41v29" id="aU"/><path fill="#333" d="M108 0H70L1-190h34L89-25l56-165h34" id="aV"/><path fill="#333" d="M24-231v-30h32v30H24zM24 0v-190h32V0H24" id="aW"/><path fill="#333" d="M96-169c-40 0-48 33-48 73s9 75 48 75c24 0 41-14 43-38l32 2c-6 37-31 61-74 61-59 0-76-41-82-99-10-93 101-131 147-64 4 7 5 14 7 22l-32 3c-4-21-16-35-41-35" id="aX"/><path fill="#333" d="M30 0v-248h187v28H63v79h144v27H63v87h162V0H30" id="aY"/><path fill="#333" d="M117-194c89-4 53 116 60 194h-32v-121c0-31-8-49-39-48C34-167 62-67 57 0H25l-1-190h30c1 10-1 24 2 32 11-22 29-35 61-36" id="aZ"/><path fill="#333" d="M59-47c-2 24 18 29 38 22v24C64 9 27 4 27-40v-127H5v-23h24l9-43h21v43h35v23H59v120" id="ba"/><path fill="#333" d="M87 75C49 33 22-17 22-94c0-76 28-126 65-167h31c-38 41-64 92-64 168S80 34 118 75H87" id="bb"/><path fill="#333" d="M33-261c38 41 65 92 65 168S71 34 33 75H2C39 34 66-17 66-93S39-220 2-261h31" id="bc"/><g id="d"><use transform="matrix(0.07407407407407408,0,0,0.07407407407407408,0,0)" xlink:href="#aP"/><use transform="matrix(0.07407407407407408,0,0,0.07407407407407408,5.851851851851853,0)" xlink:href="#aQ"/><use transform="matrix(0.07407407407407408,0,0,0.07407407407407408,20.666666666666668,0)" xlink:href="#aR"/><use transform="matrix(0.07407407407407408,0,0,0.07407407407407408,35.48148148148149,0)" xlink:href="#aS"/><use transform="matrix(0.07407407407407408,0,0,0.07407407407407408,53.25925925925927,0)" xlink:href="#aT"/><use transform="matrix(0.07407407407407408,0,0,0.07407407407407408,68.07407407407408,0)" xlink:href="#aU"/><use transform="matrix(0.07407407407407408,0,0,0.07407407407407408,76.88888888888889,0)" xlink:href="#aV"/><use transform="matrix(0.07407407407407408,0,0,0.07407407407407408,90.22222222222223,0)" xlink:href="#aW"/><use transform="matrix(0.07407407407407408,0,0,0.07407407407407408,96.07407407407408,0)" xlink:href="#aX"/><use transform="matrix(0.07407407407407408,0,0,0.07407407407407408,109.40740740740742,0)" xlink:href="#aT"/><use transform="matrix(0.07407407407407408,0,0,0.07407407407407408,124.22222222222223,0)" xlink:href="#aY"/><use transform="matrix(0.07407407407407408,0,0,0.07407407407407408,142,0)" xlink:href="#aV"/><use transform="matrix(0.07407407407407408,0,0,0.07407407407407408,155.33333333333334,0)" xlink:href="#aT"/><use transform="matrix(0.07407407407407408,0,0,0.07407407407407408,170.14814814814812,0)" xlink:href="#aZ"/><use transform="matrix(0.07407407407407408,0,0,0.07407407407407408,184.96296296296296,0)" xlink:href="#ba"/><use transform="matrix(0.07407407407407408,0,0,0.07407407407407408,192.3703703703704,0)" xlink:href="#bb"/><use transform="matrix(0.07407407407407408,0,0,0.07407407407407408,201.1851851851852,0)" xlink:href="#bc"/></g><path fill="#333" d="M23 0v-37h61v-169l-59 37v-38l62-41h46v211h57V0H23" id="bd"/><g id="e"><use transform="matrix(0.04938271604938272,0,0,0.04938271604938272,0,0)" xlink:href="#bd"/><use transform="matrix(0.04938271604938272,0,0,0.04938271604938272,9.876543209876544,0)" xlink:href="#aM"/><use transform="matrix(0.04938271604938272,0,0,0.04938271604938272,14.814814814814817,0)" xlink:href="#aM"/><use transform="matrix(0.04938271604938272,0,0,0.04938271604938272,19.75308641975309,0)" xlink:href="#bd"/></g><path fill="#333" d="M24 0v-248h52V0H24" id="be"/><path fill="#333" d="M135-194c87-1 58 113 63 194h-50c-7-57 23-157-34-157-59 0-34 97-39 157H25l-1-190h47c2 12-1 28 3 38 12-26 28-41 61-42" id="bf"/><path fill="#333" d="M25 0v-261h50V0H25" id="bg"/><path fill="#333" d="M-4 44V30h207v14H-4" id="bh"/><g id="f"><use transform="matrix(0.04938271604938272,0,0,0.04938271604938272,0,0)" xlink:href="#be"/><use transform="matrix(0.04938271604938272,0,0,0.04938271604938272,4.938271604938272,0)" xlink:href="#bf"/><use transform="matrix(0.04938271604938272,0,0,0.04938271604938272,15.753086419753087,0)" xlink:href="#aD"/><use transform="matrix(0.04938271604938272,0,0,0.04938271604938272,25.629629629629633,0)" xlink:href="#bg"/><use transform="matrix(0.04938271604938272,0,0,0.04938271604938272,30.567901234567906,0)" xlink:href="#aF"/><use transform="matrix(0.04938271604938272,0,0,0.04938271604938272,41.38271604938272,0)" xlink:href="#aJ"/><use transform="matrix(0.04938271604938272,0,0,0.04938271604938272,52.19753086419754,0)" xlink:href="#aI"/><use transform="matrix(0.04938271604938272,0,0,0.04938271604938272,62.074074074074076,0)" xlink:href="#bh"/><use transform="matrix(0.04938271604938272,0,0,0.04938271604938272,71.95061728395063,0)" xlink:href="#aE"/><use transform="matrix(0.04938271604938272,0,0,0.04938271604938272,82.76543209876544,0)" xlink:href="#bf"/><use transform="matrix(0.04938271604938272,0,0,0.04938271604938272,93.58024691358025,0)" xlink:href="#aD"/><use transform="matrix(0.04938271604938272,0,0,0.04938271604938272,103.4567901234568,0)" xlink:href="#aI"/></g><path fill="#333" d="M106-169C34-169 62-67 57 0H25v-261h32l-1 103c12-21 28-36 61-36 89 0 53 116 60 194h-32v-121c2-32-8-49-39-48" id="bi"/><path fill="#333" d="M143 0L79-87 56-68V0H24v-261h32v163l83-92h37l-77 82L181 0h-38" id="bj"/><g id="g"><use transform="matrix(0.07407407407407408,0,0,0.07407407407407408,0,0)" xlink:href="#aX"/><use transform="matrix(0.07407407407407408,0,0,0.07407407407407408,13.333333333333336,0)" xlink:href="#bi"/><use transform="matrix(0.07407407407407408,0,0,0.07407407407407408,28.148148148148152,0)" xlink:href="#aT"/><use transform="matrix(0.07407407407407408,0,0,0.07407407407407408,42.96296296296297,0)" xlink:href="#aX"/><use transform="matrix(0.07407407407407408,0,0,0.07407407407407408,56.296296296296305,0)" xlink:href="#bj"/><use transform="matrix(0.07407407407407408,0,0,0.07407407407407408,69.62962962962965,0)" xlink:href="#aP"/><use transform="matrix(0.07407407407407408,0,0,0.07407407407407408,75.4814814814815,0)" xlink:href="#aQ"/><use transform="matrix(0.07407407407407408,0,0,0.07407407407407408,90.2962962962963,0)" xlink:href="#aR"/><use transform="matrix(0.07407407407407408,0,0,0.07407407407407408,105.11111111111111,0)" xlink:href="#aW"/><use transform="matrix(0.07407407407407408,0,0,0.07407407407407408,110.96296296296296,0)" xlink:href="#aZ"/><use transform="matrix(0.07407407407407408,0,0,0.07407407407407408,125.77777777777777,0)" xlink:href="#bb"/><use transform="matrix(0.07407407407407408,0,0,0.07407407407407408,134.59259259259258,0)" xlink:href="#bc"/></g><path fill="#333" d="M141-36C126-15 110 5 73 4 37 3 15-17 15-53c-1-64 63-63 125-63 3-35-9-54-41-54-24 1-41 7-42 31l-33-3c5-37 33-52 76-52 45 0 72 20 72 64v82c-1 20 7 32 28 27v20c-31 9-61-2-59-35zM48-53c0 20 12 33 32 33 41-3 63-29 60-74-43 2-92-5-92 41" id="bk"/><path fill="#333" d="M179-190L93 31C79 59 56 82 12 73V49c39 6 53-20 64-50L1-190h34L92-34l54-156h33" id="bl"/><g id="h"><use transform="matrix(0.07407407407407408,0,0,0.07407407407407408,0,0)" xlink:href="#bk"/><use transform="matrix(0.07407407407407408,0,0,0.07407407407407408,14.814814814814817,0)" xlink:href="#aU"/><use transform="matrix(0.07407407407407408,0,0,0.07407407407407408,23.629629629629633,0)" xlink:href="#aU"/><use transform="matrix(0.07407407407407408,0,0,0.07407407407407408,32.44444444444445,0)" xlink:href="#bk"/><use transform="matrix(0.07407407407407408,0,0,0.07407407407407408,47.25925925925927,0)" xlink:href="#bl"/><use transform="matrix(0.07407407407407408,0,0,0.07407407407407408,60.5925925925926,0)" xlink:href="#bb"/><use transform="matrix(0.07407407407407408,0,0,0.07407407407407408,69.40740740740742,0)" xlink:href="#bc"/></g><path fill="#333" d="M85-194c31 0 48 13 60 33l-1-100h32l1 261h-30c-2-10 0-23-3-31C134-8 116 4 85 4 32 4 16-35 15-94c0-66 23-100 70-100zm9 24c-40 0-46 34-46 75 0 40 6 74 45 74 42 0 51-32 51-76 0-42-9-74-50-73" id="bm"/><g id="i"><use transform="matrix(0.07407407407407408,0,0,0.07407407407407408,0,0)" xlink:href="#aX"/><use transform="matrix(0.07407407407407408,0,0,0.07407407407407408,13.333333333333336,0)" xlink:href="#aW"/><use transform="matrix(0.07407407407407408,0,0,0.07407407407407408,19.18518518518519,0)" xlink:href="#bm"/></g><path fill="#333" d="M84 4C-5 8 30-112 23-190h32v120c0 31 7 50 39 49 72-2 45-101 50-169h31l1 190h-30c-1-10 1-25-2-33-11 22-28 36-60 37" id="bn"/><path fill="#333" d="M135-143c-3-34-86-38-87 0 15 53 115 12 119 90S17 21 10-45l28-5c4 36 97 45 98 0-10-56-113-15-118-90-4-57 82-63 122-42 12 7 21 19 24 35" id="bo"/><path fill="#333" d="M210-169c-67 3-38 105-44 169h-31v-121c0-29-5-50-35-48C34-165 62-65 56 0H25l-1-190h30c1 10-1 24 2 32 10-44 99-50 107 0 11-21 27-35 58-36 85-2 47 119 55 194h-31v-121c0-29-5-49-35-48" id="bp"/><g id="j"><use transform="matrix(0.07407407407407408,0,0,0.07407407407407408,0,0)" xlink:href="#aX"/><use transform="matrix(0.07407407407407408,0,0,0.07407407407407408,13.333333333333336,0)" xlink:href="#aQ"/><use transform="matrix(0.07407407407407408,0,0,0.07407407407407408,28.148148148148152,0)" xlink:href="#bn"/><use transform="matrix(0.07407407407407408,0,0,0.07407407407407408,42.96296296296297,0)" xlink:href="#aU"/><use transform="matrix(0.07407407407407408,0,0,0.07407407407407408,51.777777777777786,0)" xlink:href="#bo"/><use transform="matrix(0.07407407407407408,0,0,0.07407407407407408,65.11111111111111,0)" xlink:href="#aT"/><use transform="matrix(0.07407407407407408,0,0,0.07407407407407408,79.92592592592592,0)" xlink:href="#aZ"/><use transform="matrix(0.07407407407407408,0,0,0.07407407407407408,94.74074074074073,0)" xlink:href="#bk"/><use transform="matrix(0.07407407407407408,0,0,0.07407407407407408,109.55555555555554,0)" xlink:href="#bp"/><use transform="matrix(0.07407407407407408,0,0,0.07407407407407408,131.7037037037037,0)" xlink:href="#aT"/></g><path fill="#333" d="M115-194c53 0 69 39 70 98 0 66-23 100-70 100C84 3 66-7 56-30L54 0H23l1-261h32v101c10-23 28-34 59-34zm-8 174c40 0 45-34 45-75 0-40-5-75-45-74-42 0-51 32-51 76 0 43 10 73 51 73" id="bq"/><g id="k"><use transform="matrix(0.07407407407407408,0,0,0.07407407407407408,0,0)" xlink:href="#aV"/><use transform="matrix(0.07407407407407408,0,0,0.07407407407407408,13.333333333333336,0)" xlink:href="#aW"/><use transform="matrix(0.07407407407407408,0,0,0.07407407407407408,19.18518518518519,0)" xlink:href="#bo"/><use transform="matrix(0.07407407407407408,0,0,0.07407407407407408,32.518518518518526,0)" xlink:href="#aW"/><use transform="matrix(0.07407407407407408,0,0,0.07407407407407408,38.37037037037038,0)" xlink:href="#bq"/><use transform="matrix(0.07407407407407408,0,0,0.07407407407407408,53.1851851851852,0)" xlink:href="#aW"/><use transform="matrix(0.07407407407407408,0,0,0.07407407407407408,59.03703703703705,0)" xlink:href="#aP"/><use transform="matrix(0.07407407407407408,0,0,0.07407407407407408,64.8888888888889,0)" xlink:href="#aW"/><use transform="matrix(0.07407407407407408,0,0,0.07407407407407408,70.74074074074075,0)" xlink:href="#ba"/><use transform="matrix(0.07407407407407408,0,0,0.07407407407407408,78.14814814814815,0)" xlink:href="#bl"/></g><path fill="#333" d="M115-194c55 1 70 41 70 98S169 2 115 4C84 4 66-9 55-30l1 105H24l-1-265h31l2 30c10-21 28-34 59-34zm-8 174c40 0 45-34 45-75s-6-73-45-74c-42 0-51 32-51 76 0 43 10 73 51 73" id="br"/><g id="l"><use transform="matrix(0.07407407407407408,0,0,0.07407407407407408,0,0)" xlink:href="#aQ"/><use transform="matrix(0.07407407407407408,0,0,0.07407407407407408,14.814814814814817,0)" xlink:href="#br"/><use transform="matrix(0.07407407407407408,0,0,0.07407407407407408,29.629629629629633,0)" xlink:href="#ba"/></g><g id="m"><use transform="matrix(0.07407407407407408,0,0,0.07407407407407408,0,0)" xlink:href="#bk"/><use transform="matrix(0.07407407407407408,0,0,0.07407407407407408,14.814814814814817,0)" xlink:href="#aX"/><use transform="matrix(0.07407407407407408,0,0,0.07407407407407408,28.148148148148152,0)" xlink:href="#ba"/><use transform="matrix(0.07407407407407408,0,0,0.07407407407407408,35.55555555555556,0)" xlink:href="#aW"/><use transform="matrix(0.07407407407407408,0,0,0.07407407407407408,41.40740740740741,0)" xlink:href="#aV"/><use transform="matrix(0.07407407407407408,0,0,0.07407407407407408,54.74074074074075,0)" xlink:href="#aT"/><use transform="matrix(0.07407407407407408,0,0,0.07407407407407408,69.55555555555557,0)" xlink:href="#aV"/><use transform="matrix(0.07407407407407408,0,0,0.07407407407407408,82.88888888888891,0)" xlink:href="#aT"/><use transform="matrix(0.07407407407407408,0,0,0.07407407407407408,97.70370370370371,0)" xlink:href="#aU"/><use transform="matrix(0.07407407407407408,0,0,0.07407407407407408,106.51851851851853,0)" xlink:href="#bo"/></g><g id="n"><use transform="matrix(0.07407407407407408,0,0,0.07407407407407408,0,0)" xlink:href="#bk"/><use transform="matrix(0.07407407407407408,0,0,0.07407407407407408,14.814814814814817,0)" xlink:href="#aX"/><use transform="matrix(0.07407407407407408,0,0,0.07407407407407408,28.148148148148152,0)" xlink:href="#ba"/><use transform="matrix(0.07407407407407408,0,0,0.07407407407407408,35.55555555555556,0)" xlink:href="#aW"/><use transform="matrix(0.07407407407407408,0,0,0.07407407407407408,41.40740740740741,0)" xlink:href="#aV"/><use transform="matrix(0.07407407407407408,0,0,0.07407407407407408,54.74074074074075,0)" xlink:href="#aT"/><use transform="matrix(0.07407407407407408,0,0,0.07407407407407408,69.55555555555557,0)" xlink:href="#aT"/><use transform="matrix(0.07407407407407408,0,0,0.07407407407407408,84.37037037037038,0)" xlink:href="#bm"/><use transform="matrix(0.07407407407407408,0,0,0.07407407407407408,99.1851851851852,0)" xlink:href="#aV"/><use transform="matrix(0.07407407407407408,0,0,0.07407407407407408,112.51851851851853,0)" xlink:href="#aT"/><use transform="matrix(0.07407407407407408,0,0,0.07407407407407408,127.33333333333336,0)" xlink:href="#aU"/><use transform="matrix(0.07407407407407408,0,0,0.07407407407407408,136.14814814814815,0)" xlink:href="#bo"/></g><g id="o"><use transform="matrix(0.07407407407407408,0,0,0.07407407407407408,0,0)" xlink:href="#aV"/><use transform="matrix(0.07407407407407408,0,0,0.07407407407407408,13.333333333333336,0)" xlink:href="#aT"/><use transform="matrix(0.07407407407407408,0,0,0.07407407407407408,28.148148148148152,0)" xlink:href="#aU"/><use transform="matrix(0.07407407407407408,0,0,0.07407407407407408,36.96296296296297,0)" xlink:href="#bo"/><use transform="matrix(0.07407407407407408,0,0,0.07407407407407408,50.296296296296305,0)" xlink:href="#aW"/><use transform="matrix(0.07407407407407408,0,0,0.07407407407407408,56.14814814814815,0)" xlink:href="#bm"/></g><g id="p"><use transform="matrix(0.07407407407407408,0,0,0.07407407407407408,0,0)" xlink:href="#aV"/><use transform="matrix(0.07407407407407408,0,0,0.07407407407407408,13.333333333333336,0)" xlink:href="#aT"/><use transform="matrix(0.07407407407407408,0,0,0.07407407407407408,28.148148148148152,0)" xlink:href="#aU"/><use transform="matrix(0.07407407407407408,0,0,0.07407407407407408,36.96296296296297,0)" xlink:href="#bo"/><use transform="matrix(0.07407407407407408,0,0,0.07407407407407408,50.296296296296305,0)" xlink:href="#aZ"/><use transform="matrix(0.07407407407407408,0,0,0.07407407407407408,65.11111111111111,0)" xlink:href="#bk"/><use transform="matrix(0.07407407407407408,0,0,0.07407407407407408,79.92592592592592,0)" xlink:href="#bp"/><use transform="matrix(0.07407407407407408,0,0,0.07407407407407408,102.07407407407408,0)" xlink:href="#aT"/></g><g id="q"><use transform="matrix(0.07407407407407408,0,0,0.07407407407407408,0,0)" xlink:href="#aX"/><use transform="matrix(0.07407407407407408,0,0,0.07407407407407408,13.333333333333336,0)" xlink:href="#aQ"/><use transform="matrix(0.07407407407407408,0,0,0.07407407407407408,28.148148148148152,0)" xlink:href="#bn"/><use transform="matrix(0.07407407407407408,0,0,0.07407407407407408,42.96296296296297,0)" xlink:href="#aU"/><use transform="matrix(0.07407407407407408,0,0,0.07407407407407408,51.777777777777786,0)" xlink:href="#bo"/><use transform="matrix(0.07407407407407408,0,0,0.07407407407407408,65.11111111111111,0)" xlink:href="#aT"/><use transform="matrix(0.07407407407407408,0,0,0.07407407407407408,79.92592592592592,0)" xlink:href="#aZ"/><use transform="matrix(0.07407407407407408,0,0,0.07407407407407408,94.74074074074073,0)" xlink:href="#bk"/><use transform="matrix(0.07407407407407408,0,0,0.07407407407407408,109.55555555555554,0)" xlink:href="#bp"/><use transform="matrix(0.07407407407407408,0,0,0.07407407407407408,131.7037037037037,0)" xlink:href="#aT"/><use transform="matrix(0.07407407407407408,0,0,0.07407407407407408,146.5185185185185,0)" xlink:href="#bk"/><use transform="matrix(0.07407407407407408,0,0,0.07407407407407408,161.33333333333331,0)" xlink:href="#aP"/><use transform="matrix(0.07407407407407408,0,0,0.07407407407407408,167.18518518518516,0)" xlink:href="#ba"/></g><g id="r"><use transform="matrix(0.07407407407407408,0,0,0.07407407407407408,0,0)" xlink:href="#aX"/><use transform="matrix(0.07407407407407408,0,0,0.07407407407407408,13.333333333333336,0)" xlink:href="#aQ"/><use transform="matrix(0.07407407407407408,0,0,0.07407407407407408,28.148148148148152,0)" xlink:href="#br"/><use transform="matrix(0.07407407407407408,0,0,0.07407407407407408,42.96296296296297,0)" xlink:href="#bl"/><use transform="matrix(0.07407407407407408,0,0,0.07407407407407408,56.296296296296305,0)" xlink:href="#aX"/><use transform="matrix(0.07407407407407408,0,0,0.07407407407407408,69.62962962962965,0)" xlink:href="#aQ"/><use transform="matrix(0.07407407407407408,0,0,0.07407407407407408,84.44444444444446,0)" xlink:href="#bn"/><use transform="matrix(0.07407407407407408,0,0,0.07407407407407408,99.25925925925927,0)" xlink:href="#aU"/><use transform="matrix(0.07407407407407408,0,0,0.07407407407407408,108.07407407407408,0)" xlink:href="#bo"/><use transform="matrix(0.07407407407407408,0,0,0.07407407407407408,121.40740740740742,0)" xlink:href="#aT"/></g><g id="s"><use transform="matrix(0.07407407407407408,0,0,0.07407407407407408,0,0)" xlink:href="#bo"/><use transform="matrix(0.07407407407407408,0,0,0.07407407407407408,13.333333333333336,0)" xlink:href="#ba"/><use transform="matrix(0.07407407407407408,0,0,0.07407407407407408,20.740740740740744,0)" xlink:href="#bk"/><use transform="matrix(0.07407407407407408,0,0,0.07407407407407408,35.55555555555556,0)" xlink:href="#aU"/><use transform="matrix(0.07407407407407408,0,0,0.07407407407407408,44.370370370370374,0)" xlink:href="#ba"/><use transform="matrix(0.07407407407407408,0,0,0.07407407407407408,51.777777777777786,0)" xlink:href="#bm"/><use transform="matrix(0.07407407407407408,0,0,0.07407407407407408,66.59259259259261,0)" xlink:href="#bk"/><use transform="matrix(0.07407407407407408,0,0,0.07407407407407408,81.40740740740742,0)" xlink:href="#ba"/><use transform="matrix(0.07407407407407408,0,0,0.07407407407407408,88.81481481481482,0)" xlink:href="#aT"/></g><g id="t"><use transform="matrix(0.07407407407407408,0,0,0.07407407407407408,0,0)" xlink:href="#aT"/><use transform="matrix(0.07407407407407408,0,0,0.07407407407407408,14.814814814814817,0)" xlink:href="#aZ"/><use transform="matrix(0.07407407407407408,0,0,0.07407407407407408,29.629629629629633,0)" xlink:href="#bm"/><use transform="matrix(0.07407407407407408,0,0,0.07407407407407408,44.44444444444445,0)" xlink:href="#bm"/><use transform="matrix(0.07407407407407408,0,0,0.07407407407407408,59.25925925925927,0)" xlink:href="#bk"/><use transform="matrix(0.07407407407407408,0,0,0.07407407407407408,74.07407407407408,0)" xlink:href="#ba"/><use transform="matrix(0.07407407407407408,0,0,0.07407407407407408,81.48148148148148,0)" xlink:href="#aT"/></g><g id="u"><use transform="matrix(0.07407407407407408,0,0,0.07407407407407408,0,0)" xlink:href="#bp"/><use transform="matrix(0.07407407407407408,0,0,0.07407407407407408,22.148148148148152,0)" xlink:href="#bk"/><use transform="matrix(0.07407407407407408,0,0,0.07407407407407408,36.96296296296297,0)" xlink:href="#bj"/><use transform="matrix(0.07407407407407408,0,0,0.07407407407407408,50.296296296296305,0)" xlink:href="#aT"/><use transform="matrix(0.07407407407407408,0,0,0.07407407407407408,65.11111111111111,0)" xlink:href="#bk"/><use transform="matrix(0.07407407407407408,0,0,0.07407407407407408,79.92592592592592,0)" xlink:href="#aX"/><use transform="matrix(0.07407407407407408,0,0,0.07407407407407408,93.25925925925927,0)" xlink:href="#ba"/><use transform="matrix(0.07407407407407408,0,0,0.07407407407407408,100.66666666666666,0)" xlink:href="#aW"/><use transform="matrix(0.07407407407407408,0,0,0.07407407407407408,106.51851851851852,0)" xlink:href="#aV"/><use transform="matrix(0.07407407407407408,0,0,0.07407407407407408,119.85185185185185,0)" xlink:href="#aT"/></g><g id="v"><use transform="matrix(0.07407407407407408,0,0,0.07407407407407408,0,0)" xlink:href="#bp"/><use transform="matrix(0.07407407407407408,0,0,0.07407407407407408,22.148148148148152,0)" xlink:href="#aQ"/><use transform="matrix(0.07407407407407408,0,0,0.07407407407407408,36.96296296296297,0)" xlink:href="#ba"/><use transform="matrix(0.07407407407407408,0,0,0.07407407407407408,44.37037037037039,0)" xlink:href="#bm"/></g><g id="w"><use transform="matrix(0.07407407407407408,0,0,0.07407407407407408,0,0)" xlink:href="#aU"/><use transform="matrix(0.07407407407407408,0,0,0.07407407407407408,8.814814814814817,0)" xlink:href="#aT"/><use transform="matrix(0.07407407407407408,0,0,0.07407407407407408,23.629629629629633,0)" xlink:href="#bk"/><use transform="matrix(0.07407407407407408,0,0,0.07407407407407408,38.44444444444445,0)" xlink:href="#bm"/><use transform="matrix(0.07407407407407408,0,0,0.07407407407407408,53.25925925925927,0)" xlink:href="#aQ"/><use transform="matrix(0.07407407407407408,0,0,0.07407407407407408,68.07407407407408,0)" xlink:href="#aZ"/><use transform="matrix(0.07407407407407408,0,0,0.07407407407407408,82.88888888888889,0)" xlink:href="#aP"/><use transform="matrix(0.07407407407407408,0,0,0.07407407407407408,88.74074074074073,0)" xlink:href="#bl"/></g><path fill="#333" d="M212-179c-10-28-35-45-73-45-59 0-87 40-87 99 0 60 29 101 89 101 43 0 62-24 78-52l27 14C228-24 195 4 139 4 59 4 22-46 18-125c-6-104 99-153 187-111 19 9 31 26 39 46" id="bs"/><g id="x"><use transform="matrix(0.07407407407407408,0,0,0.07407407407407408,0,0)" xlink:href="#aP"/><use transform="matrix(0.07407407407407408,0,0,0.07407407407407408,5.851851851851853,0)" xlink:href="#bk"/><use transform="matrix(0.07407407407407408,0,0,0.07407407407407408,20.666666666666668,0)" xlink:href="#bo"/><use transform="matrix(0.07407407407407408,0,0,0.07407407407407408,34.00000000000001,0)" xlink:href="#ba"/><use transform="matrix(0.07407407407407408,0,0,0.07407407407407408,41.40740740740742,0)" xlink:href="#bs"/><use transform="matrix(0.07407407407407408,0,0,0.07407407407407408,60.59259259259261,0)" xlink:href="#aQ"/><use transform="matrix(0.07407407407407408,0,0,0.07407407407407408,75.40740740740742,0)" xlink:href="#bn"/><use transform="matrix(0.07407407407407408,0,0,0.07407407407407408,90.22222222222223,0)" xlink:href="#aU"/><use transform="matrix(0.07407407407407408,0,0,0.07407407407407408,99.03703703703704,0)" xlink:href="#bo"/><use transform="matrix(0.07407407407407408,0,0,0.07407407407407408,112.37037037037038,0)" xlink:href="#aT"/><use transform="matrix(0.07407407407407408,0,0,0.07407407407407408,127.18518518518519,0)" xlink:href="#bs"/><use transform="matrix(0.07407407407407408,0,0,0.07407407407407408,146.37037037037038,0)" xlink:href="#aU"/><use transform="matrix(0.07407407407407408,0,0,0.07407407407407408,155.18518518518522,0)" xlink:href="#aT"/><use transform="matrix(0.07407407407407408,0,0,0.07407407407407408,170,0)" xlink:href="#bk"/><use transform="matrix(0.07407407407407408,0,0,0.07407407407407408,184.8148148148148,0)" xlink:href="#ba"/><use transform="matrix(0.07407407407407408,0,0,0.07407407407407408,192.2222222222222,0)" xlink:href="#aT"/><use transform="matrix(0.07407407407407408,0,0,0.07407407407407408,207.03703703703704,0)" xlink:href="#bm"/></g><g id="y"><use transform="matrix(0.07407407407407408,0,0,0.07407407407407408,0,0)" xlink:href="#bn"/><use transform="matrix(0.07407407407407408,0,0,0.07407407407407408,14.814814814814817,0)" xlink:href="#bo"/><use transform="matrix(0.07407407407407408,0,0,0.07407407407407408,28.148148148148152,0)" xlink:href="#aT"/><use transform="matrix(0.07407407407407408,0,0,0.07407407407407408,42.96296296296297,0)" xlink:href="#aU"/><use transform="matrix(0.07407407407407408,0,0,0.07407407407407408,51.777777777777786,0)" xlink:href="#aW"/><use transform="matrix(0.07407407407407408,0,0,0.07407407407407408,57.62962962962964,0)" xlink:href="#bm"/></g><g id="z"><use transform="matrix(0.07407407407407408,0,0,0.07407407407407408,0,0)" xlink:href="#bm"/><use transform="matrix(0.07407407407407408,0,0,0.07407407407407408,14.814814814814817,0)" xlink:href="#aT"/><use transform="matrix(0.07407407407407408,0,0,0.07407407407407408,29.629629629629633,0)" xlink:href="#bq"/><use transform="matrix(0.07407407407407408,0,0,0.07407407407407408,44.44444444444445,0)" xlink:href="#bn"/><use transform="matrix(0.07407407407407408,0,0,0.07407407407407408,59.25925925925927,0)" xlink:href="#aR"/></g><path fill="#333" d="M145-31C134-9 116 4 85 4 32 4 16-35 15-94c0-59 17-99 70-100 32-1 48 14 60 33 0-11-1-24 2-32h30l-1 268h-32zM93-21c41 0 51-33 51-76s-8-73-50-73c-40 0-46 35-46 75s5 74 45 74" id="bt"/><g id="A"><use transform="matrix(0.07407407407407408,0,0,0.07407407407407408,0,0)" xlink:href="#bt"/><use transform="matrix(0.07407407407407408,0,0,0.07407407407407408,14.814814814814817,0)" xlink:href="#bn"/><use transform="matrix(0.07407407407407408,0,0,0.07407407407407408,29.629629629629633,0)" xlink:href="#aT"/><use transform="matrix(0.07407407407407408,0,0,0.07407407407407408,44.44444444444445,0)" xlink:href="#aU"/><use transform="matrix(0.07407407407407408,0,0,0.07407407407407408,53.25925925925927,0)" xlink:href="#bl"/></g><path fill="#333" d="M206 0h-36l-40-164L89 0H53L-1-190h32L70-26l43-164h34l41 164 42-164h31" id="bu"/><g id="B"><use transform="matrix(0.07407407407407408,0,0,0.07407407407407408,0,0)" xlink:href="#aU"/><use transform="matrix(0.07407407407407408,0,0,0.07407407407407408,8.814814814814817,0)" xlink:href="#aQ"/><use transform="matrix(0.07407407407407408,0,0,0.07407407407407408,23.629629629629633,0)" xlink:href="#bu"/></g><g id="C"><use transform="matrix(0.07407407407407408,0,0,0.07407407407407408,0,0)" xlink:href="#bn"/><use transform="matrix(0.07407407407407408,0,0,0.07407407407407408,14.814814814814817,0)" xlink:href="#bo"/><use transform="matrix(0.07407407407407408,0,0,0.07407407407407408,28.148148148148152,0)" xlink:href="#aT"/><use transform="matrix(0.07407407407407408,0,0,0.07407407407407408,42.96296296296297,0)" xlink:href="#aU"/><use transform="matrix(0.07407407407407408,0,0,0.07407407407407408,51.777777777777786,0)" xlink:href="#aZ"/><use transform="matrix(0.07407407407407408,0,0,0.07407407407407408,66.59259259259261,0)" xlink:href="#bk"/><use transform="matrix(0.07407407407407408,0,0,0.07407407407407408,81.40740740740742,0)" xlink:href="#bp"/><use transform="matrix(0.07407407407407408,0,0,0.07407407407407408,103.55555555555557,0)" xlink:href="#aT"/></g><path fill="#333" d="M-5 72V49h209v23H-5" id="bv"/><g id="D"><use transform="matrix(0.07407407407407408,0,0,0.07407407407407408,0,0)" xlink:href="#aP"/><use transform="matrix(0.07407407407407408,0,0,0.07407407407407408,5.851851851851853,0)" xlink:href="#aQ"/><use transform="matrix(0.07407407407407408,0,0,0.07407407407407408,20.666666666666668,0)" xlink:href="#aR"/><use transform="matrix(0.07407407407407408,0,0,0.07407407407407408,35.48148148148149,0)" xlink:href="#bv"/><use transform="matrix(0.07407407407407408,0,0,0.07407407407407408,50.296296296296305,0)" xlink:href="#bn"/><use transform="matrix(0.07407407407407408,0,0,0.07407407407407408,65.11111111111111,0)" xlink:href="#bn"/><use transform="matrix(0.07407407407407408,0,0,0.07407407407407408,79.92592592592592,0)" xlink:href="#aW"/><use transform="matrix(0.07407407407407408,0,0,0.07407407407407408,85.77777777777777,0)" xlink:href="#bm"/></g><path fill="#333" d="M101-234c-31-9-42 10-38 44h38v23H63V0H32v-167H5v-23h27c-7-52 17-82 69-68v24" id="bw"/><g id="E"><use transform="matrix(0.07407407407407408,0,0,0.07407407407407408,0,0)" xlink:href="#aW"/><use transform="matrix(0.07407407407407408,0,0,0.07407407407407408,5.851851851851853,0)" xlink:href="#aZ"/><use transform="matrix(0.07407407407407408,0,0,0.07407407407407408,20.666666666666668,0)" xlink:href="#bw"/><use transform="matrix(0.07407407407407408,0,0,0.07407407407407408,28.074074074074076,0)" xlink:href="#aQ"/></g><g id="F"><use transform="matrix(0.07407407407407408,0,0,0.07407407407407408,0,0)" xlink:href="#bi"/><use transform="matrix(0.07407407407407408,0,0,0.07407407407407408,14.814814814814817,0)" xlink:href="#bk"/></g><path fill="#333" d="M232-93c-1 65-40 97-104 97C67 4 28-28 28-90v-158h33c8 89-33 224 67 224 102 0 64-133 71-224h33v155" id="bx"/><path fill="#333" d="M137 0h-34L2-248h35l83 218 83-218h36" id="by"/><g id="G"><use transform="matrix(0.07407407407407408,0,0,0.07407407407407408,0,0)" xlink:href="#aW"/><use transform="matrix(0.07407407407407408,0,0,0.07407407407407408,5.851851851851853,0)" xlink:href="#bo"/><use transform="matrix(0.07407407407407408,0,0,0.07407407407407408,19.18518518518519,0)" xlink:href="#aS"/><use transform="matrix(0.07407407407407408,0,0,0.07407407407407408,36.96296296296297,0)" xlink:href="#bn"/><use transform="matrix(0.07407407407407408,0,0,0.07407407407407408,51.777777777777786,0)" xlink:href="#br"/><use transform="matrix(0.07407407407407408,0,0,0.07407407407407408,66.59259259259261,0)" xlink:href="#aT"/><use transform="matrix(0.07407407407407408,0,0,0.07407407407407408,81.40740740740742,0)" xlink:href="#aU"/><use transform="matrix(0.07407407407407408,0,0,0.07407407407407408,90.22222222222223,0)" xlink:href="#bx"/><use transform="matrix(0.07407407407407408,0,0,0.07407407407407408,109.40740740740742,0)" xlink:href="#bo"/><use transform="matrix(0.07407407407407408,0,0,0.07407407407407408,122.74074074074076,0)" xlink:href="#aT"/><use transform="matrix(0.07407407407407408,0,0,0.07407407407407408,137.55555555555557,0)" xlink:href="#aU"/><use transform="matrix(0.07407407407407408,0,0,0.07407407407407408,146.37037037037038,0)" xlink:href="#by"/><use transform="matrix(0.07407407407407408,0,0,0.07407407407407408,162.14814814814812,0)" xlink:href="#bk"/><use transform="matrix(0.07407407407407408,0,0,0.07407407407407408,176.96296296296296,0)" xlink:href="#aU"/></g><g id="H"><use transform="matrix(0.07407407407407408,0,0,0.07407407407407408,0,0)" xlink:href="#bm"/><use transform="matrix(0.07407407407407408,0,0,0.07407407407407408,14.814814814814817,0)" xlink:href="#aT"/><use transform="matrix(0.07407407407407408,0,0,0.07407407407407408,29.629629629629633,0)" xlink:href="#bo"/><use transform="matrix(0.07407407407407408,0,0,0.07407407407407408,42.96296296296297,0)" xlink:href="#aX"/><use transform="matrix(0.07407407407407408,0,0,0.07407407407407408,56.296296296296305,0)" xlink:href="#aU"/><use transform="matrix(0.07407407407407408,0,0,0.07407407407407408,65.11111111111111,0)" xlink:href="#aW"/><use transform="matrix(0.07407407407407408,0,0,0.07407407407407408,70.96296296296296,0)" xlink:href="#br"/><use transform="matrix(0.07407407407407408,0,0,0.07407407407407408,85.77777777777777,0)" xlink:href="#ba"/><use transform="matrix(0.07407407407407408,0,0,0.07407407407407408,93.18518518518518,0)" xlink:href="#aW"/><use transform="matrix(0.07407407407407408,0,0,0.07407407407407408,99.03703703703701,0)" xlink:href="#aQ"/><use transform="matrix(0.07407407407407408,0,0,0.07407407407407408,113.85185185185185,0)" xlink:href="#aZ"/></g><path fill="#333" d="M27 0v-27h64v-190l-56 39v-29l58-41h29v221h61V0H27" id="bz"/><g id="I"><use transform="matrix(0.07407407407407408,0,0,0.07407407407407408,0,0)" xlink:href="#bt"/><use transform="matrix(0.07407407407407408,0,0,0.07407407407407408,14.814814814814817,0)" xlink:href="#bn"/><use transform="matrix(0.07407407407407408,0,0,0.07407407407407408,29.629629629629633,0)" xlink:href="#aT"/><use transform="matrix(0.07407407407407408,0,0,0.07407407407407408,44.44444444444445,0)" xlink:href="#aU"/><use transform="matrix(0.07407407407407408,0,0,0.07407407407407408,53.25925925925927,0)" xlink:href="#bl"/><use transform="matrix(0.07407407407407408,0,0,0.07407407407407408,66.59259259259261,0)" xlink:href="#bv"/><use transform="matrix(0.07407407407407408,0,0,0.07407407407407408,81.40740740740742,0)" xlink:href="#bz"/></g><g id="J"><use transform="matrix(0.07407407407407408,0,0,0.07407407407407408,0,0)" xlink:href="#br"/><use transform="matrix(0.07407407407407408,0,0,0.07407407407407408,14.814814814814817,0)" xlink:href="#bm"/><use transform="matrix(0.07407407407407408,0,0,0.07407407407407408,29.629629629629633,0)" xlink:href="#aQ"/></g><g id="K"><use transform="matrix(0.07407407407407408,0,0,0.07407407407407408,0,0)" xlink:href="#aT"/><use transform="matrix(0.07407407407407408,0,0,0.07407407407407408,14.814814814814817,0)" xlink:href="#aU"/><use transform="matrix(0.07407407407407408,0,0,0.07407407407407408,23.629629629629633,0)" xlink:href="#aU"/><use transform="matrix(0.07407407407407408,0,0,0.07407407407407408,32.44444444444445,0)" xlink:href="#aQ"/><use transform="matrix(0.07407407407407408,0,0,0.07407407407407408,47.25925925925927,0)" xlink:href="#aU"/></g><path fill="#333" d="M140-251c81 0 123 46 123 126C263-46 219 4 140 4 59 4 17-45 17-125s42-126 123-126zm0 227c63 0 89-41 89-101s-29-99-89-99c-61 0-89 39-89 99S79-25 140-24" id="bA"/><g id="L"><use transform="matrix(0.07407407407407408,0,0,0.07407407407407408,0,0)" xlink:href="#bk"/><use transform="matrix(0.07407407407407408,0,0,0.07407407407407408,14.814814814814817,0)" xlink:href="#aP"/><use transform="matrix(0.07407407407407408,0,0,0.07407407407407408,20.666666666666668,0)" xlink:href="#aP"/><use transform="matrix(0.07407407407407408,0,0,0.07407407407407408,26.518518518518526,0)" xlink:href="#bA"/><use transform="matrix(0.07407407407407408,0,0,0.07407407407407408,47.25925925925927,0)" xlink:href="#br"/><use transform="matrix(0.07407407407407408,0,0,0.07407407407407408,62.07407407407408,0)" xlink:href="#aT"/><use transform="matrix(0.07407407407407408,0,0,0.07407407407407408,76.8888888888889,0)" xlink:href="#aU"/><use transform="matrix(0.07407407407407408,0,0,0.07407407407407408,85.70370370370374,0)" xlink:href="#bk"/><use transform="matrix(0.07407407407407408,0,0,0.07407407407407408,100.51851851851853,0)" xlink:href="#ba"/><use transform="matrix(0.07407407407407408,0,0,0.07407407407407408,107.92592592592594,0)" xlink:href="#aW"/><use transform="matrix(0.07407407407407408,0,0,0.07407407407407408,113.7777777777778,0)" xlink:href="#aQ"/><use transform="matrix(0.07407407407407408,0,0,0.07407407407407408,128.5925925925926,0)" xlink:href="#aZ"/><use transform="matrix(0.07407407407407408,0,0,0.07407407407407408,143.40740740740742,0)" xlink:href="#bo"/><use transform="matrix(0.07407407407407408,0,0,0.07407407407407408,156.74074074074076,0)" xlink:href="#aS"/><use transform="matrix(0.07407407407407408,0,0,0.07407407407407408,174.51851851851853,0)" xlink:href="#bn"/><use transform="matrix(0.07407407407407408,0,0,0.07407407407407408,189.33333333333337,0)" xlink:href="#aX"/><use transform="matrix(0.07407407407407408,0,0,0.07407407407407408,202.66666666666669,0)" xlink:href="#aX"/><use transform="matrix(0.07407407407407408,0,0,0.07407407407407408,216.00000000000003,0)" xlink:href="#aT"/><use transform="matrix(0.07407407407407408,0,0,0.07407407407407408,230.81481481481484,0)" xlink:href="#aT"/><use transform="matrix(0.07407407407407408,0,0,0.07407407407407408,245.62962962962968,0)" xlink:href="#bm"/><use transform="matrix(0.07407407407407408,0,0,0.07407407407407408,260.44444444444446,0)" xlink:href="#aT"/><use transform="matrix(0.07407407407407408,0,0,0.07407407407407408,275.2592592592593,0)" xlink:href="#bm"/></g><g id="M"><use transform="matrix(0.07407407407407408,0,0,0.07407407407407408,0,0)" xlink:href="#bm"/><use transform="matrix(0.07407407407407408,0,0,0.07407407407407408,14.814814814814817,0)" xlink:href="#bn"/><use transform="matrix(0.07407407407407408,0,0,0.07407407407407408,29.629629629629633,0)" xlink:href="#aR"/><use transform="matrix(0.07407407407407408,0,0,0.07407407407407408,44.44444444444445,0)" xlink:href="#aR"/><use transform="matrix(0.07407407407407408,0,0,0.07407407407407408,59.25925925925927,0)" xlink:href="#bk"/><use transform="matrix(0.07407407407407408,0,0,0.07407407407407408,74.07407407407408,0)" xlink:href="#aP"/><use transform="matrix(0.07407407407407408,0,0,0.07407407407407408,79.92592592592592,0)" xlink:href="#aW"/><use transform="matrix(0.07407407407407408,0,0,0.07407407407407408,85.77777777777777,0)" xlink:href="#bo"/><use transform="matrix(0.07407407407407408,0,0,0.07407407407407408,99.11111111111111,0)" xlink:href="#ba"/></g><g id="N"><use transform="matrix(0.07407407407407408,0,0,0.07407407407407408,0,0)" xlink:href="#aQ"/><use transform="matrix(0.07407407407407408,0,0,0.07407407407407408,14.814814814814817,0)" xlink:href="#aP"/><use transform="matrix(0.07407407407407408,0,0,0.07407407407407408,20.666666666666668,0)" xlink:href="#bm"/><use transform="matrix(0.07407407407407408,0,0,0.07407407407407408,35.48148148148149,0)" xlink:href="#aV"/><use transform="matrix(0.07407407407407408,0,0,0.07407407407407408,48.814814814814824,0)" xlink:href="#aT"/><use transform="matrix(0.07407407407407408,0,0,0.07407407407407408,63.62962962962964,0)" xlink:href="#aU"/><use transform="matrix(0.07407407407407408,0,0,0.07407407407407408,72.44444444444446,0)" xlink:href="#bo"/></g><g id="O"><use transform="matrix(0.07407407407407408,0,0,0.07407407407407408,0,0)" xlink:href="#aU"/><use transform="matrix(0.07407407407407408,0,0,0.07407407407407408,8.814814814814817,0)" xlink:href="#bn"/><use transform="matrix(0.07407407407407408,0,0,0.07407407407407408,23.629629629629633,0)" xlink:href="#aT"/><use transform="matrix(0.07407407407407408,0,0,0.07407407407407408,38.44444444444445,0)" xlink:href="#aU"/><use transform="matrix(0.07407407407407408,0,0,0.07407407407407408,47.25925925925927,0)" xlink:href="#bl"/></g><g id="P"><use transform="matrix(0.07407407407407408,0,0,0.07407407407407408,0,0)" xlink:href="#aQ"/><use transform="matrix(0.07407407407407408,0,0,0.07407407407407408,14.814814814814817,0)" xlink:href="#aP"/><use transform="matrix(0.07407407407407408,0,0,0.07407407407407408,20.666666666666668,0)" xlink:href="#bm"/><use transform="matrix(0.07407407407407408,0,0,0.07407407407407408,35.48148148148149,0)" xlink:href="#aW"/><use transform="matrix(0.07407407407407408,0,0,0.07407407407407408,41.333333333333336,0)" xlink:href="#bm"/></g><g id="Q"><use transform="matrix(0.07407407407407408,0,0,0.07407407407407408,0,0)" xlink:href="#aZ"/><use transform="matrix(0.07407407407407408,0,0,0.07407407407407408,14.814814814814817,0)" xlink:href="#aT"/><use transform="matrix(0.07407407407407408,0,0,0.07407407407407408,29.629629629629633,0)" xlink:href="#bu"/><use transform="matrix(0.07407407407407408,0,0,0.07407407407407408,48.814814814814824,0)" xlink:href="#aV"/><use transform="matrix(0.07407407407407408,0,0,0.07407407407407408,62.14814814814816,0)" xlink:href="#aT"/><use transform="matrix(0.07407407407407408,0,0,0.07407407407407408,76.96296296296298,0)" xlink:href="#aU"/><use transform="matrix(0.07407407407407408,0,0,0.07407407407407408,85.7777777777778,0)" xlink:href="#bo"/></g><g id="R"><use transform="matrix(0.07407407407407408,0,0,0.07407407407407408,0,0)" xlink:href="#bq"/><use transform="matrix(0.07407407407407408,0,0,0.07407407407407408,14.814814814814817,0)" xlink:href="#bn"/><use transform="matrix(0.07407407407407408,0,0,0.07407407407407408,29.629629629629633,0)" xlink:href="#aT"/><use transform="matrix(0.07407407407407408,0,0,0.07407407407407408,44.44444444444445,0)" xlink:href="#aU"/><use transform="matrix(0.07407407407407408,0,0,0.07407407407407408,53.25925925925927,0)" xlink:href="#bl"/></g><path fill="#333" d="M141 0L90-78 38 0H4l68-98-65-92h35l48 74 47-74h35l-64 92 68 98h-35" id="bB"/><g id="S"><use transform="matrix(0.07407407407407408,0,0,0.07407407407407408,0,0)" xlink:href="#aX"/><use transform="matrix(0.07407407407407408,0,0,0.07407407407407408,13.333333333333336,0)" xlink:href="#aQ"/><use transform="matrix(0.07407407407407408,0,0,0.07407407407407408,28.148148148148152,0)" xlink:href="#bm"/><use transform="matrix(0.07407407407407408,0,0,0.07407407407407408,42.96296296296297,0)" xlink:href="#aT"/><use transform="matrix(0.07407407407407408,0,0,0.07407407407407408,57.777777777777786,0)" xlink:href="#aT"/><use transform="matrix(0.07407407407407408,0,0,0.07407407407407408,72.59259259259261,0)" xlink:href="#bB"/><use transform="matrix(0.07407407407407408,0,0,0.07407407407407408,85.92592592592595,0)" xlink:href="#bk"/><use transform="matrix(0.07407407407407408,0,0,0.07407407407407408,100.74074074074075,0)" xlink:href="#bp"/><use transform="matrix(0.07407407407407408,0,0,0.07407407407407408,122.88888888888893,0)" xlink:href="#br"/><use transform="matrix(0.07407407407407408,0,0,0.07407407407407408,137.70370370370372,0)" xlink:href="#aP"/><use transform="matrix(0.07407407407407408,0,0,0.07407407407407408,143.55555555555557,0)" xlink:href="#aT"/><use transform="matrix(0.07407407407407408,0,0,0.07407407407407408,158.37037037037038,0)" xlink:href="#aP"/><use transform="matrix(0.07407407407407408,0,0,0.07407407407407408,164.22222222222226,0)" xlink:href="#aW"/><use transform="matrix(0.07407407407407408,0,0,0.07407407407407408,170.07407407407408,0)" xlink:href="#bo"/><use transform="matrix(0.07407407407407408,0,0,0.07407407407407408,183.40740740740742,0)" xlink:href="#ba"/></g><g id="T"><use transform="matrix(0.07407407407407408,0,0,0.07407407407407408,0,0)" xlink:href="#br"/><use transform="matrix(0.07407407407407408,0,0,0.07407407407407408,14.814814814814817,0)" xlink:href="#aU"/><use transform="matrix(0.07407407407407408,0,0,0.07407407407407408,23.629629629629633,0)" xlink:href="#bn"/><use transform="matrix(0.07407407407407408,0,0,0.07407407407407408,38.44444444444445,0)" xlink:href="#aT"/><use transform="matrix(0.07407407407407408,0,0,0.07407407407407408,53.25925925925927,0)" xlink:href="#aU"/><use transform="matrix(0.07407407407407408,0,0,0.07407407407407408,62.07407407407408,0)" xlink:href="#bl"/></g><path fill="#333" d="M9 0v-24l116-142H16v-24h144v24L44-24h123V0H9" id="bC"/><g id="U"><use transform="matrix(0.07407407407407408,0,0,0.07407407407407408,0,0)" xlink:href="#bC"/><use transform="matrix(0.07407407407407408,0,0,0.07407407407407408,13.333333333333336,0)" xlink:href="#aU"/><use transform="matrix(0.07407407407407408,0,0,0.07407407407407408,22.148148148148152,0)" xlink:href="#bn"/><use transform="matrix(0.07407407407407408,0,0,0.07407407407407408,36.96296296296297,0)" xlink:href="#aT"/><use transform="matrix(0.07407407407407408,0,0,0.07407407407407408,51.777777777777786,0)" xlink:href="#aU"/><use transform="matrix(0.07407407407407408,0,0,0.07407407407407408,60.5925925925926,0)" xlink:href="#bl"/></g><g id="V"><use transform="matrix(0.07407407407407408,0,0,0.07407407407407408,0,0)" xlink:href="#bC"/><use transform="matrix(0.07407407407407408,0,0,0.07407407407407408,13.333333333333336,0)" xlink:href="#bC"/><use transform="matrix(0.07407407407407408,0,0,0.07407407407407408,26.66666666666667,0)" xlink:href="#bt"/><use transform="matrix(0.07407407407407408,0,0,0.07407407407407408,41.48148148148149,0)" xlink:href="#aU"/><use transform="matrix(0.07407407407407408,0,0,0.07407407407407408,50.296296296296305,0)" xlink:href="#bn"/><use transform="matrix(0.07407407407407408,0,0,0.07407407407407408,65.11111111111111,0)" xlink:href="#aT"/><use transform="matrix(0.07407407407407408,0,0,0.07407407407407408,79.92592592592592,0)" xlink:href="#aU"/><use transform="matrix(0.07407407407407408,0,0,0.07407407407407408,88.74074074074073,0)" xlink:href="#bl"/></g><g id="W"><use transform="matrix(0.07407407407407408,0,0,0.07407407407407408,0,0)" xlink:href="#bj"/><use transform="matrix(0.07407407407407408,0,0,0.07407407407407408,13.333333333333336,0)" xlink:href="#aT"/><use transform="matrix(0.07407407407407408,0,0,0.07407407407407408,28.148148148148152,0)" xlink:href="#bl"/></g><g id="X"><use transform="matrix(0.07407407407407408,0,0,0.07407407407407408,0,0)" xlink:href="#aU"/><use transform="matrix(0.07407407407407408,0,0,0.07407407407407408,8.814814814814817,0)" xlink:href="#aQ"/><use transform="matrix(0.07407407407407408,0,0,0.07407407407407408,23.629629629629633,0)" xlink:href="#bu"/><use transform="matrix(0.07407407407407408,0,0,0.07407407407407408,42.814814814814824,0)" xlink:href="#bC"/></g><g id="Y"><use transform="matrix(0.07407407407407408,0,0,0.07407407407407408,0,0)" xlink:href="#bp"/><use transform="matrix(0.07407407407407408,0,0,0.07407407407407408,22.148148148148152,0)" xlink:href="#aQ"/><use transform="matrix(0.07407407407407408,0,0,0.07407407407407408,36.96296296296297,0)" xlink:href="#bp"/><use transform="matrix(0.07407407407407408,0,0,0.07407407407407408,59.11111111111112,0)" xlink:href="#aT"/><use transform="matrix(0.07407407407407408,0,0,0.07407407407407408,73.92592592592594,0)" xlink:href="#aZ"/><use transform="matrix(0.07407407407407408,0,0,0.07407407407407408,88.74074074074078,0)" xlink:href="#ba"/><use transform="matrix(0.07407407407407408,0,0,0.07407407407407408,96.14814814814817,0)" xlink:href="#aP"/><use transform="matrix(0.07407407407407408,0,0,0.07407407407407408,102.00000000000001,0)" xlink:href="#aW"/><use transform="matrix(0.07407407407407408,0,0,0.07407407407407408,107.85185185185186,0)" xlink:href="#bo"/><use transform="matrix(0.07407407407407408,0,0,0.07407407407407408,121.18518518518519,0)" xlink:href="#ba"/></g><g id="Z"><use transform="matrix(0.07407407407407408,0,0,0.07407407407407408,0,0)" xlink:href="#br"/><use transform="matrix(0.07407407407407408,0,0,0.07407407407407408,14.814814814814817,0)" xlink:href="#bn"/><use transform="matrix(0.07407407407407408,0,0,0.07407407407407408,29.629629629629633,0)" xlink:href="#aT"/><use transform="matrix(0.07407407407407408,0,0,0.07407407407407408,44.44444444444445,0)" xlink:href="#aU"/><use transform="matrix(0.07407407407407408,0,0,0.07407407407407408,53.25925925925927,0)" xlink:href="#bl"/></g><g id="aa"><use transform="matrix(0.07407407407407408,0,0,0.07407407407407408,0,0)" xlink:href="#aV"/><use transform="matrix(0.07407407407407408,0,0,0.07407407407407408,13.333333333333336,0)" xlink:href="#bk"/><use transform="matrix(0.07407407407407408,0,0,0.07407407407407408,28.148148148148152,0)" xlink:href="#aP"/><use transform="matrix(0.07407407407407408,0,0,0.07407407407407408,34.00000000000001,0)" xlink:href="#bn"/><use transform="matrix(0.07407407407407408,0,0,0.07407407407407408,48.814814814814824,0)" xlink:href="#aT"/></g><path fill="#333" d="M190 0L58-211 59 0H30v-248h39L202-35l-2-213h31V0h-41" id="bD"/><g id="ab"><use transform="matrix(0.07407407407407408,0,0,0.07407407407407408,0,0)" xlink:href="#aV"/><use transform="matrix(0.07407407407407408,0,0,0.07407407407407408,13.333333333333336,0)" xlink:href="#aW"/><use transform="matrix(0.07407407407407408,0,0,0.07407407407407408,19.18518518518519,0)" xlink:href="#bo"/><use transform="matrix(0.07407407407407408,0,0,0.07407407407407408,32.518518518518526,0)" xlink:href="#aW"/><use transform="matrix(0.07407407407407408,0,0,0.07407407407407408,38.37037037037038,0)" xlink:href="#bq"/><use transform="matrix(0.07407407407407408,0,0,0.07407407407407408,53.1851851851852,0)" xlink:href="#aW"/><use transform="matrix(0.07407407407407408,0,0,0.07407407407407408,59.03703703703705,0)" xlink:href="#aP"/><use transform="matrix(0.07407407407407408,0,0,0.07407407407407408,64.8888888888889,0)" xlink:href="#aW"/><use transform="matrix(0.07407407407407408,0,0,0.07407407407407408,70.74074074074075,0)" xlink:href="#ba"/><use transform="matrix(0.07407407407407408,0,0,0.07407407407407408,78.14814814814815,0)" xlink:href="#bl"/><use transform="matrix(0.07407407407407408,0,0,0.07407407407407408,91.4814814814815,0)" xlink:href="#bD"/><use transform="matrix(0.07407407407407408,0,0,0.07407407407407408,110.66666666666669,0)" xlink:href="#bk"/><use transform="matrix(0.07407407407407408,0,0,0.07407407407407408,125.4814814814815,0)" xlink:href="#bp"/><use transform="matrix(0.07407407407407408,0,0,0.07407407407407408,147.62962962962965,0)" xlink:href="#aT"/></g><g id="ac"><use transform="matrix(0.07407407407407408,0,0,0.07407407407407408,0,0)" xlink:href="#aX"/><use transform="matrix(0.07407407407407408,0,0,0.07407407407407408,13.333333333333336,0)" xlink:href="#aQ"/><use transform="matrix(0.07407407407407408,0,0,0.07407407407407408,28.148148148148152,0)" xlink:href="#bn"/><use transform="matrix(0.07407407407407408,0,0,0.07407407407407408,42.96296296296297,0)" xlink:href="#aU"/><use transform="matrix(0.07407407407407408,0,0,0.07407407407407408,51.777777777777786,0)" xlink:href="#bo"/><use transform="matrix(0.07407407407407408,0,0,0.07407407407407408,65.11111111111111,0)" xlink:href="#aT"/><use transform="matrix(0.07407407407407408,0,0,0.07407407407407408,79.92592592592592,0)" xlink:href="#aX"/><use transform="matrix(0.07407407407407408,0,0,0.07407407407407408,93.25925925925927,0)" xlink:href="#aQ"/><use transform="matrix(0.07407407407407408,0,0,0.07407407407407408,108.07407407407408,0)" xlink:href="#bm"/><use transform="matrix(0.07407407407407408,0,0,0.07407407407407408,122.88888888888889,0)" xlink:href="#aT"/></g><g id="ad"><use transform="matrix(0.07407407407407408,0,0,0.07407407407407408,0,0)" xlink:href="#aT"/><use transform="matrix(0.07407407407407408,0,0,0.07407407407407408,14.814814814814817,0)" xlink:href="#aZ"/><use transform="matrix(0.07407407407407408,0,0,0.07407407407407408,29.629629629629633,0)" xlink:href="#ba"/><use transform="matrix(0.07407407407407408,0,0,0.07407407407407408,37.03703703703704,0)" xlink:href="#aU"/><use transform="matrix(0.07407407407407408,0,0,0.07407407407407408,45.851851851851855,0)" xlink:href="#aW"/><use transform="matrix(0.07407407407407408,0,0,0.07407407407407408,51.70370370370371,0)" xlink:href="#aT"/><use transform="matrix(0.07407407407407408,0,0,0.07407407407407408,66.51851851851853,0)" xlink:href="#bo"/></g><g id="ae"><use transform="matrix(0.07407407407407408,0,0,0.07407407407407408,0,0)" xlink:href="#bt"/><use transform="matrix(0.07407407407407408,0,0,0.07407407407407408,14.814814814814817,0)" xlink:href="#bn"/><use transform="matrix(0.07407407407407408,0,0,0.07407407407407408,29.629629629629633,0)" xlink:href="#aT"/><use transform="matrix(0.07407407407407408,0,0,0.07407407407407408,44.44444444444445,0)" xlink:href="#aU"/><use transform="matrix(0.07407407407407408,0,0,0.07407407407407408,53.25925925925927,0)" xlink:href="#bl"/><use transform="matrix(0.07407407407407408,0,0,0.07407407407407408,66.59259259259261,0)" xlink:href="#aU"/><use transform="matrix(0.07407407407407408,0,0,0.07407407407407408,75.40740740740742,0)" xlink:href="#aT"/><use transform="matrix(0.07407407407407408,0,0,0.07407407407407408,90.22222222222223,0)" xlink:href="#aR"/></g><path fill="#333" d="M233-177c-1 41-23 64-60 70L243 0h-38l-65-103H63V0H30v-248c88 3 205-21 203 71zM63-129c60-2 137 13 137-47 0-61-80-42-137-45v92" id="bE"/><g id="af"><use transform="matrix(0.07407407407407408,0,0,0.07407407407407408,0,0)" xlink:href="#bn"/><use transform="matrix(0.07407407407407408,0,0,0.07407407407407408,14.814814814814817,0)" xlink:href="#bo"/><use transform="matrix(0.07407407407407408,0,0,0.07407407407407408,28.148148148148152,0)" xlink:href="#aT"/><use transform="matrix(0.07407407407407408,0,0,0.07407407407407408,42.96296296296297,0)" xlink:href="#aU"/><use transform="matrix(0.07407407407407408,0,0,0.07407407407407408,51.777777777777786,0)" xlink:href="#bE"/><use transform="matrix(0.07407407407407408,0,0,0.07407407407407408,70.96296296296298,0)" xlink:href="#aT"/><use transform="matrix(0.07407407407407408,0,0,0.07407407407407408,85.7777777777778,0)" xlink:href="#aR"/><use transform="matrix(0.07407407407407408,0,0,0.07407407407407408,100.59259259259261,0)" xlink:href="#bs"/><use transform="matrix(0.07407407407407408,0,0,0.07407407407407408,119.7777777777778,0)" xlink:href="#aQ"/><use transform="matrix(0.07407407407407408,0,0,0.07407407407407408,134.5925925925926,0)" xlink:href="#bn"/><use transform="matrix(0.07407407407407408,0,0,0.07407407407407408,149.40740740740742,0)" xlink:href="#aU"/><use transform="matrix(0.07407407407407408,0,0,0.07407407407407408,158.22222222222226,0)" xlink:href="#bo"/><use transform="matrix(0.07407407407407408,0,0,0.07407407407407408,171.55555555555557,0)" xlink:href="#aT"/><use transform="matrix(0.07407407407407408,0,0,0.07407407407407408,186.37037037037038,0)" xlink:href="#bo"/></g><g id="ag"><use transform="matrix(0.07407407407407408,0,0,0.07407407407407408,0,0)" xlink:href="#bt"/><use transform="matrix(0.07407407407407408,0,0,0.07407407407407408,14.814814814814817,0)" xlink:href="#bn"/><use transform="matrix(0.07407407407407408,0,0,0.07407407407407408,29.629629629629633,0)" xlink:href="#aT"/><use transform="matrix(0.07407407407407408,0,0,0.07407407407407408,44.44444444444445,0)" xlink:href="#aU"/><use transform="matrix(0.07407407407407408,0,0,0.07407407407407408,53.25925925925927,0)" xlink:href="#bl"/><use transform="matrix(0.07407407407407408,0,0,0.07407407407407408,66.59259259259261,0)" xlink:href="#bC"/></g><g id="ah"><use transform="matrix(0.07407407407407408,0,0,0.07407407407407408,0,0)" xlink:href="#bn"/><use transform="matrix(0.07407407407407408,0,0,0.07407407407407408,14.814814814814817,0)" xlink:href="#bo"/><use transform="matrix(0.07407407407407408,0,0,0.07407407407407408,28.148148148148152,0)" xlink:href="#aT"/><use transform="matrix(0.07407407407407408,0,0,0.07407407407407408,42.96296296296297,0)" xlink:href="#aU"/><use transform="matrix(0.07407407407407408,0,0,0.07407407407407408,51.777777777777786,0)" xlink:href="#bs"/><use transform="matrix(0.07407407407407408,0,0,0.07407407407407408,70.96296296296298,0)" xlink:href="#aQ"/><use transform="matrix(0.07407407407407408,0,0,0.07407407407407408,85.7777777777778,0)" xlink:href="#bn"/><use transform="matrix(0.07407407407407408,0,0,0.07407407407407408,100.59259259259261,0)" xlink:href="#aU"/><use transform="matrix(0.07407407407407408,0,0,0.07407407407407408,109.40740740740742,0)" xlink:href="#bo"/><use transform="matrix(0.07407407407407408,0,0,0.07407407407407408,122.74074074074076,0)" xlink:href="#aT"/></g><g id="ai"><use transform="matrix(0.07407407407407408,0,0,0.07407407407407408,0,0)" xlink:href="#bm"/><use transform="matrix(0.07407407407407408,0,0,0.07407407407407408,14.814814814814817,0)" xlink:href="#aT"/><use transform="matrix(0.07407407407407408,0,0,0.07407407407407408,29.629629629629633,0)" xlink:href="#aP"/><use transform="matrix(0.07407407407407408,0,0,0.07407407407407408,35.48148148148149,0)" xlink:href="#aT"/><use transform="matrix(0.07407407407407408,0,0,0.07407407407407408,50.296296296296305,0)" xlink:href="#ba"/><use transform="matrix(0.07407407407407408,0,0,0.07407407407407408,57.70370370370371,0)" xlink:href="#aT"/><use transform="matrix(0.07407407407407408,0,0,0.07407407407407408,72.51851851851853,0)" xlink:href="#bm"/></g><path fill="#333" d="M205 0l-28-72H64L36 0H1l101-248h38L239 0h-34zm-38-99l-47-123c-12 45-31 82-46 123h93" id="bF"/><g id="aj"><use transform="matrix(0.07407407407407408,0,0,0.07407407407407408,0,0)" xlink:href="#bu"/><use transform="matrix(0.07407407407407408,0,0,0.07407407407407408,19.185185185185187,0)" xlink:href="#aU"/><use transform="matrix(0.07407407407407408,0,0,0.07407407407407408,28.000000000000004,0)" xlink:href="#aW"/><use transform="matrix(0.07407407407407408,0,0,0.07407407407407408,33.851851851851855,0)" xlink:href="#ba"/><use transform="matrix(0.07407407407407408,0,0,0.07407407407407408,41.25925925925927,0)" xlink:href="#aT"/><use transform="matrix(0.07407407407407408,0,0,0.07407407407407408,56.07407407407408,0)" xlink:href="#bF"/><use transform="matrix(0.07407407407407408,0,0,0.07407407407407408,73.85185185185186,0)" xlink:href="#aX"/><use transform="matrix(0.07407407407407408,0,0,0.07407407407407408,87.18518518518519,0)" xlink:href="#aX"/><use transform="matrix(0.07407407407407408,0,0,0.07407407407407408,100.51851851851853,0)" xlink:href="#aT"/><use transform="matrix(0.07407407407407408,0,0,0.07407407407407408,115.33333333333334,0)" xlink:href="#bo"/><use transform="matrix(0.07407407407407408,0,0,0.07407407407407408,128.66666666666669,0)" xlink:href="#bo"/></g><path fill="#333" d="M127-220V0H93v-220H8v-28h204v28h-85" id="bG"/><g id="ak"><use transform="matrix(0.07407407407407408,0,0,0.07407407407407408,0,0)" xlink:href="#aW"/><use transform="matrix(0.07407407407407408,0,0,0.07407407407407408,5.851851851851853,0)" xlink:href="#bo"/><use transform="matrix(0.07407407407407408,0,0,0.07407407407407408,19.18518518518519,0)" xlink:href="#bE"/><use transform="matrix(0.07407407407407408,0,0,0.07407407407407408,38.37037037037038,0)" xlink:href="#aT"/><use transform="matrix(0.07407407407407408,0,0,0.07407407407407408,53.1851851851852,0)" xlink:href="#aR"/><use transform="matrix(0.07407407407407408,0,0,0.07407407407407408,68.00000000000001,0)" xlink:href="#aW"/><use transform="matrix(0.07407407407407408,0,0,0.07407407407407408,73.85185185185186,0)" xlink:href="#bo"/><use transform="matrix(0.07407407407407408,0,0,0.07407407407407408,87.18518518518519,0)" xlink:href="#ba"/><use transform="matrix(0.07407407407407408,0,0,0.07407407407407408,94.5925925925926,0)" xlink:href="#aT"/><use transform="matrix(0.07407407407407408,0,0,0.07407407407407408,109.40740740740742,0)" xlink:href="#aU"/><use transform="matrix(0.07407407407407408,0,0,0.07407407407407408,118.22222222222221,0)" xlink:href="#aT"/><use transform="matrix(0.07407407407407408,0,0,0.07407407407407408,133.03703703703704,0)" xlink:href="#bm"/><use transform="matrix(0.07407407407407408,0,0,0.07407407407407408,147.85185185185185,0)" xlink:href="#bG"/><use transform="matrix(0.07407407407407408,0,0,0.07407407407407408,161.1111111111111,0)" xlink:href="#aQ"/><use transform="matrix(0.07407407407407408,0,0,0.07407407407407408,175.92592592592592,0)" xlink:href="#bs"/><use transform="matrix(0.07407407407407408,0,0,0.07407407407407408,195.11111111111111,0)" xlink:href="#aQ"/><use transform="matrix(0.07407407407407408,0,0,0.07407407407407408,209.92592592592592,0)" xlink:href="#bn"/><use transform="matrix(0.07407407407407408,0,0,0.07407407407407408,224.74074074074073,0)" xlink:href="#aU"/><use transform="matrix(0.07407407407407408,0,0,0.07407407407407408,233.55555555555554,0)" xlink:href="#bo"/><use transform="matrix(0.07407407407407408,0,0,0.07407407407407408,246.88888888888889,0)" xlink:href="#aT"/></g><g id="al"><use transform="matrix(0.07407407407407408,0,0,0.07407407407407408,0,0)" xlink:href="#bn"/><use transform="matrix(0.07407407407407408,0,0,0.07407407407407408,14.814814814814817,0)" xlink:href="#bo"/><use transform="matrix(0.07407407407407408,0,0,0.07407407407407408,28.148148148148152,0)" xlink:href="#aT"/><use transform="matrix(0.07407407407407408,0,0,0.07407407407407408,42.96296296296297,0)" xlink:href="#aU"/><use transform="matrix(0.07407407407407408,0,0,0.07407407407407408,51.777777777777786,0)" xlink:href="#bE"/><use transform="matrix(0.07407407407407408,0,0,0.07407407407407408,70.96296296296298,0)" xlink:href="#aT"/><use transform="matrix(0.07407407407407408,0,0,0.07407407407407408,85.7777777777778,0)" xlink:href="#aR"/><use transform="matrix(0.07407407407407408,0,0,0.07407407407407408,100.59259259259261,0)" xlink:href="#bs"/><use transform="matrix(0.07407407407407408,0,0,0.07407407407407408,119.7777777777778,0)" xlink:href="#aQ"/><use transform="matrix(0.07407407407407408,0,0,0.07407407407407408,134.5925925925926,0)" xlink:href="#bn"/><use transform="matrix(0.07407407407407408,0,0,0.07407407407407408,149.40740740740742,0)" xlink:href="#aU"/><use transform="matrix(0.07407407407407408,0,0,0.07407407407407408,158.22222222222226,0)" xlink:href="#bo"/><use transform="matrix(0.07407407407407408,0,0,0.07407407407407408,171.55555555555557,0)" xlink:href="#aT"/></g><g id="am"><use transform="matrix(0.07407407407407408,0,0,0.07407407407407408,0,0)" xlink:href="#aV"/><use transform="matrix(0.07407407407407408,0,0,0.07407407407407408,13.333333333333336,0)" xlink:href="#aT"/><use transform="matrix(0.07407407407407408,0,0,0.07407407407407408,28.148148148148152,0)" xlink:href="#aU"/><use transform="matrix(0.07407407407407408,0,0,0.07407407407407408,36.96296296296297,0)" xlink:href="#bo"/><use transform="matrix(0.07407407407407408,0,0,0.07407407407407408,50.296296296296305,0)" xlink:href="#aW"/><use transform="matrix(0.07407407407407408,0,0,0.07407407407407408,56.14814814814815,0)" xlink:href="#aQ"/><use transform="matrix(0.07407407407407408,0,0,0.07407407407407408,70.96296296296298,0)" xlink:href="#aZ"/><use transform="matrix(0.07407407407407408,0,0,0.07407407407407408,85.7777777777778,0)" xlink:href="#bo"/></g><g id="an"><use transform="matrix(0.07407407407407408,0,0,0.07407407407407408,0,0)" xlink:href="#bk"/><use transform="matrix(0.07407407407407408,0,0,0.07407407407407408,14.814814814814817,0)" xlink:href="#aU"/><use transform="matrix(0.07407407407407408,0,0,0.07407407407407408,23.629629629629633,0)" xlink:href="#aU"/><use transform="matrix(0.07407407407407408,0,0,0.07407407407407408,32.44444444444445,0)" xlink:href="#bk"/><use transform="matrix(0.07407407407407408,0,0,0.07407407407407408,47.25925925925927,0)" xlink:href="#bl"/></g></defs></g></svg>