<svg xmlns="http://www.w3.org/2000/svg" xmlns:xlink="http://www.w3.org/1999/xlink" xmlns:lucid="lucid" width="2162.23" height="1794.64"><g transform="translate(-500 149.79501172737088)" lucid:page-tab-id="0_0"><path d="M500-500h2500v2500H500z" fill="#f2f3f5"/><path d="M1399.1-122.3a6 6 0 0 1 6-6h1229.63a6 6 0 0 1 6 6v1739.65a6 6 0 0 1-6 6H1405.1a6 6 0 0 1-6-6z" stroke="#3a414a" stroke-width="3" fill="#fff"/><path d="M1917.73-23.98a6 6 0 0 1 6-6h173.87a6 6 0 0 1 6 6v29.2a6 6 0 0 1-6 6h-173.87a6 6 0 0 1-6-6z" fill="none"/><use xlink:href="#a" transform="matrix(1,0,0,1,1922.7294749823134,-24.978745092263935) translate(0 21.2)"/><path d="M1407.06 101.9h1226.06" stroke="#333" stroke-width="11.03" stroke-linecap="round" stroke-linejoin="round" fill="none"/><path d="M1432.82 150.4a6 6 0 0 1 6-6h182.68a6 6 0 0 1 6 6v746.8a6 6 0 0 1-6 6h-182.68a6 6 0 0 1-6-6z" fill="none"/><use xlink:href="#b" transform="matrix(1,0,0,1,1437.8169701570177,149.3872791628039) translate(0 20.899999999999967)"/><use xlink:href="#c" transform="matrix(1,0,0,1,1437.8169701570177,149.3872791628039) translate(0 52.099999999999966)"/><use xlink:href="#d" transform="matrix(1,0,0,1,1437.8169701570177,149.3872791628039) translate(0 83.29999999999997)"/><use xlink:href="#e" transform="matrix(1,0,0,1,1437.8169701570177,149.3872791628039) translate(0 114.49999999999997)"/><use xlink:href="#f" transform="matrix(1,0,0,1,1437.8169701570177,149.3872791628039) translate(0 145.7)"/><use xlink:href="#g" transform="matrix(1,0,0,1,1437.8169701570177,149.3872791628039) translate(80.81666666666666 145.7)"/><use xlink:href="#h" transform="matrix(1,0,0,1,1437.8169701570177,149.3872791628039) translate(0 176.89999999999998)"/><use xlink:href="#i" transform="matrix(1,0,0,1,1437.8169701570177,149.3872791628039) translate(0 208.09999999999997)"/><use xlink:href="#j" transform="matrix(1,0,0,1,1437.8169701570177,149.3872791628039) translate(0 239.29999999999995)"/><use xlink:href="#k" transform="matrix(1,0,0,1,1437.8169701570177,149.3872791628039) translate(0 270.49999999999994)"/><use xlink:href="#l" transform="matrix(1,0,0,1,1437.8169701570177,149.3872791628039) translate(0 301.69999999999993)"/><use xlink:href="#m" transform="matrix(1,0,0,1,1437.8169701570177,149.3872791628039) translate(0 332.8999999999999)"/><use xlink:href="#n" transform="matrix(1,0,0,1,1437.8169701570177,149.3872791628039) translate(0 364.0999999999999)"/><use xlink:href="#o" transform="matrix(1,0,0,1,1437.8169701570177,149.3872791628039) translate(0 395.2999999999999)"/><use xlink:href="#p" transform="matrix(1,0,0,1,1437.8169701570177,149.3872791628039) translate(0 426.4999999999999)"/><use xlink:href="#q" transform="matrix(1,0,0,1,1437.8169701570177,149.3872791628039) translate(0 457.6999999999999)"/><use xlink:href="#r" transform="matrix(1,0,0,1,1437.8169701570177,149.3872791628039) translate(0 488.89999999999986)"/><use xlink:href="#s" transform="matrix(1,0,0,1,1437.8169701570177,149.3872791628039) translate(0 520.0999999999998)"/><use xlink:href="#t" transform="matrix(1,0,0,1,1437.8169701570177,149.3872791628039) translate(0 551.2999999999997)"/><use xlink:href="#u" transform="matrix(1,0,0,1,1437.8169701570177,149.3872791628039) translate(0 582.4999999999998)"/><use xlink:href="#v" transform="matrix(1,0,0,1,1437.8169701570177,149.3872791628039) translate(0 613.6999999999998)"/><use xlink:href="#w" transform="matrix(1,0,0,1,1437.8169701570177,149.3872791628039) translate(0 644.8999999999999)"/><use xlink:href="#x" transform="matrix(1,0,0,1,1437.8169701570177,149.3872791628039) translate(0 676.0999999999999)"/><use xlink:href="#y" transform="matrix(1,0,0,1,1437.8169701570177,149.3872791628039) translate(0 707.3)"/><use xlink:href="#z" transform="matrix(1,0,0,1,1437.8169701570177,149.3872791628039) translate(0 738.5)"/><use xlink:href="#A" transform="matrix(1,0,0,1,1437.8169701570177,149.3872791628039) translate(67.81666666666666 738.5)"/><path d="M1404.63 1118.18h1230.88" stroke="#333" stroke-width="11.07" stroke-linecap="round" stroke-linejoin="round" fill="none"/><path d="M1429.25 1166a6 6 0 0 1 6-6H1874a6 6 0 0 1 6 6v311.6a6 6 0 0 1-6 6h-438.75a6 6 0 0 1-6-6z" fill="none"/><g><use xlink:href="#B" transform="matrix(1,0,0,1,1434.2479935008319,1165) translate(0 21.009523809523802)"/><use xlink:href="#C" transform="matrix(1,0,0,1,1434.2479935008319,1165) translate(0 52.2095238095238)"/><use xlink:href="#D" transform="matrix(1,0,0,1,1434.2479935008319,1165) translate(0 83.4095238095238)"/><use xlink:href="#E" transform="matrix(1,0,0,1,1434.2479935008319,1165) translate(0 114.60952380952381)"/><use xlink:href="#F" transform="matrix(1,0,0,1,1434.2479935008319,1165) translate(0 145.80952380952382)"/><use xlink:href="#G" transform="matrix(1,0,0,1,1434.2479935008319,1165) translate(0 177.0095238095238)"/><use xlink:href="#H" transform="matrix(1,0,0,1,1434.2479935008319,1165) translate(0 207.67619047619047)"/><use xlink:href="#I" transform="matrix(1,0,0,1,1434.2479935008319,1165) translate(234.75555555555553 207.67619047619047)"/><use xlink:href="#J" transform="matrix(1,0,0,1,1434.2479935008319,1165) translate(0 238.6095238095238)"/><use xlink:href="#K" transform="matrix(1,0,0,1,1434.2479935008319,1165) translate(0 269.2761904761905)"/><use xlink:href="#L" transform="matrix(1,0,0,1,1434.2479935008319,1165) translate(199.4296296296296 269.2761904761905)"/><use xlink:href="#M" transform="matrix(1,0,0,1,1434.2479935008319,1165) translate(293.58518518518514 269.2761904761905)"/><use xlink:href="#N" transform="matrix(1,0,0,1,1434.2479935008319,1165) translate(0 303.65714285714284)"/><use xlink:href="#O" transform="matrix(1,0,0,1,1434.2479935008319,1165) translate(139.26296296296297 303.65714285714284)"/></g><path d="M520-86.38a6 6 0 0 1 6-6h801.48a6 6 0 0 1 6 6v91.6a6 6 0 0 1-6 6H526a6 6 0 0 1-6-6z" fill="none"/><g><use xlink:href="#P" transform="matrix(1,0,0,1,525,-87.37874509226396) translate(0 20.999999999999996)"/><use xlink:href="#Q" transform="matrix(1,0,0,1,525,-87.37874509226396) translate(233.6388888888889 20.999999999999996)"/><use xlink:href="#R" transform="matrix(1,0,0,1,525,-87.37874509226396) translate(305.7888888888889 20.999999999999996)"/><use xlink:href="#S" transform="matrix(1,0,0,1,525,-87.37874509226396) translate(383.7166666666667 20.999999999999996)"/><use xlink:href="#T" transform="matrix(1,0,0,1,525,-87.37874509226396) translate(470.23888888888894 20.999999999999996)"/><use xlink:href="#U" transform="matrix(1,0,0,1,525,-87.37874509226396) translate(528.0166666666667 20.999999999999996)"/><use xlink:href="#V" transform="matrix(1,0,0,1,525,-87.37874509226396) translate(565.5 20.999999999999996)"/><use xlink:href="#W" transform="matrix(1,0,0,1,525,-87.37874509226396) translate(587.1666666666666 20.999999999999996)"/><use xlink:href="#X" transform="matrix(1,0,0,1,525,-87.37874509226396) translate(0 52.2)"/><use xlink:href="#Y" transform="matrix(1,0,0,1,525,-87.37874509226396) translate(118.15555555555554 52.2)"/><use xlink:href="#Z" transform="matrix(1,0,0,1,525,-87.37874509226396) translate(213.34444444444443 52.2)"/><use xlink:href="#aa" transform="matrix(1,0,0,1,525,-87.37874509226396) translate(242.23333333333332 52.2)"/><use xlink:href="#ab" transform="matrix(1,0,0,1,525,-87.37874509226396) translate(323.04999999999995 52.2)"/><use xlink:href="#ac" transform="matrix(1,0,0,1,525,-87.37874509226396) translate(424.08888888888885 52.2)"/><use xlink:href="#ad" transform="matrix(1,0,0,1,525,-87.37874509226396) translate(551.0555555555555 52.2)"/><use xlink:href="#ae" transform="matrix(1,0,0,1,525,-87.37874509226396) translate(0 83.4)"/><use xlink:href="#Z" transform="matrix(1,0,0,1,525,-87.37874509226396) translate(60.52222222222222 83.4)"/><use xlink:href="#af" transform="matrix(1,0,0,1,525,-87.37874509226396) translate(89.4111111111111 83.4)"/><use xlink:href="#ag" transform="matrix(1,0,0,1,525,-87.37874509226396) translate(152.96666666666664 83.4)"/><use xlink:href="#U" transform="matrix(1,0,0,1,525,-87.37874509226396) translate(266.7888888888889 83.4)"/><use xlink:href="#ah" transform="matrix(1,0,0,1,525,-87.37874509226396) translate(304.27222222222224 83.4)"/><use xlink:href="#ai" transform="matrix(1,0,0,1,525,-87.37874509226396) translate(374.97777777777776 83.4)"/><use xlink:href="#aj" transform="matrix(1,0,0,1,525,-87.37874509226396) translate(442.7944444444444 83.4)"/><use xlink:href="#ak" transform="matrix(1,0,0,1,525,-87.37874509226396) translate(493.34999999999997 83.4)"/><use xlink:href="#al" transform="matrix(1,0,0,1,525,-87.37874509226396) translate(581.3166666666666 83.4)"/><use xlink:href="#al" transform="matrix(1,0,0,1,525,-87.37874509226396) translate(608.6888888888889 83.4)"/><use xlink:href="#V" transform="matrix(1,0,0,1,525,-87.37874509226396) translate(636.0611111111111 83.4)"/><use xlink:href="#am" transform="matrix(1,0,0,1,525,-87.37874509226396) translate(657.7277777777778 83.4)"/><use xlink:href="#an" transform="matrix(1,0,0,1,525,-87.37874509226396) translate(734.2111111111111 83.4)"/></g><g transform="matrix(1,0,0,1,525,-87.37874509226396)"><a xlink:href="http://diagramservice.php" target="_blank"><path class="lucid-link lucid-hotspot lucid-overlay-hotspot" fill-opacity="0" d="M0 .2h226.42v31.2H0z"/></a></g><defs><path fill="#3a414a" d="M85-194c31 0 48 13 60 33l-1-100h32l1 261h-30c-2-10 0-23-3-31C134-8 116 4 85 4 32 4 16-35 15-94c0-66 23-100 70-100zm9 24c-40 0-46 34-46 75 0 40 6 74 45 74 42 0 51-32 51-76 0-42-9-74-50-73" id="ao"/><path fill="#3a414a" d="M24-231v-30h32v30H24zM24 0v-190h32V0H24" id="ap"/><path fill="#3a414a" d="M141-36C126-15 110 5 73 4 37 3 15-17 15-53c-1-64 63-63 125-63 3-35-9-54-41-54-24 1-41 7-42 31l-33-3c5-37 33-52 76-52 45 0 72 20 72 64v82c-1 20 7 32 28 27v20c-31 9-61-2-59-35zM48-53c0 20 12 33 32 33 41-3 63-29 60-74-43 2-92-5-92 41" id="aq"/><path fill="#3a414a" d="M177-190C167-65 218 103 67 71c-23-6-38-20-44-43l32-5c15 47 100 32 89-28v-30C133-14 115 1 83 1 29 1 15-40 15-95c0-56 16-97 71-98 29-1 48 16 59 35 1-10 0-23 2-32h30zM94-22c36 0 50-32 50-73 0-42-14-75-50-75-39 0-46 34-46 75s6 73 46 73" id="ar"/><path fill="#3a414a" d="M114-163C36-179 61-72 57 0H25l-1-190h30c1 12-1 29 2 39 6-27 23-49 58-41v29" id="as"/><path fill="#3a414a" d="M210-169c-67 3-38 105-44 169h-31v-121c0-29-5-50-35-48C34-165 62-65 56 0H25l-1-190h30c1 10-1 24 2 32 10-44 99-50 107 0 11-21 27-35 58-36 85-2 47 119 55 194h-31v-121c0-29-5-49-35-48" id="at"/><path fill="#3a414a" d="M135-143c-3-34-86-38-87 0 15 53 115 12 119 90S17 21 10-45l28-5c4 36 97 45 98 0-10-56-113-15-118-90-4-57 82-63 122-42 12 7 21 19 24 35" id="au"/><path fill="#3a414a" d="M100-194c63 0 86 42 84 106H49c0 40 14 67 53 68 26 1 43-12 49-29l28 8c-11 28-37 45-77 45C44 4 14-33 15-96c1-61 26-98 85-98zm52 81c6-60-76-77-97-28-3 7-6 17-6 28h103" id="av"/><path fill="#3a414a" d="M108 0H70L1-190h34L89-25l56-165h34" id="aw"/><path fill="#3a414a" d="M96-169c-40 0-48 33-48 73s9 75 48 75c24 0 41-14 43-38l32 2c-6 37-31 61-74 61-59 0-76-41-82-99-10-93 101-131 147-64 4 7 5 14 7 22l-32 3c-4-21-16-35-41-35" id="ax"/><g id="a"><use transform="matrix(0.07222222222222222,0,0,0.07222222222222222,0,0)" xlink:href="#ao"/><use transform="matrix(0.07222222222222222,0,0,0.07222222222222222,14.444444444444443,0)" xlink:href="#ap"/><use transform="matrix(0.07222222222222222,0,0,0.07222222222222222,20.15,0)" xlink:href="#aq"/><use transform="matrix(0.07222222222222222,0,0,0.07222222222222222,34.59444444444444,0)" xlink:href="#ar"/><use transform="matrix(0.07222222222222222,0,0,0.07222222222222222,49.038888888888884,0)" xlink:href="#as"/><use transform="matrix(0.07222222222222222,0,0,0.07222222222222222,57.633333333333326,0)" xlink:href="#aq"/><use transform="matrix(0.07222222222222222,0,0,0.07222222222222222,72.07777777777777,0)" xlink:href="#at"/><use transform="matrix(0.07222222222222222,0,0,0.07222222222222222,93.67222222222222,0)" xlink:href="#au"/><use transform="matrix(0.07222222222222222,0,0,0.07222222222222222,106.67222222222222,0)" xlink:href="#av"/><use transform="matrix(0.07222222222222222,0,0,0.07222222222222222,121.11666666666666,0)" xlink:href="#as"/><use transform="matrix(0.07222222222222222,0,0,0.07222222222222222,129.7111111111111,0)" xlink:href="#aw"/><use transform="matrix(0.07222222222222222,0,0,0.07222222222222222,142.7111111111111,0)" xlink:href="#ap"/><use transform="matrix(0.07222222222222222,0,0,0.07222222222222222,148.41666666666666,0)" xlink:href="#ax"/><use transform="matrix(0.07222222222222222,0,0,0.07222222222222222,161.41666666666666,0)" xlink:href="#av"/></g><path fill="#3a414a" d="M84 4C-5 8 30-112 23-190h32v120c0 31 7 50 39 49 72-2 45-101 50-169h31l1 190h-30c-1-10 1-25-2-33-11 22-28 36-60 37" id="ay"/><g id="b"><use transform="matrix(0.07222222222222222,0,0,0.07222222222222222,0,0)" xlink:href="#ay"/><use transform="matrix(0.07222222222222222,0,0,0.07222222222222222,14.444444444444443,0)" xlink:href="#au"/><use transform="matrix(0.07222222222222222,0,0,0.07222222222222222,27.444444444444443,0)" xlink:href="#av"/><use transform="matrix(0.07222222222222222,0,0,0.07222222222222222,41.888888888888886,0)" xlink:href="#as"/><use transform="matrix(0.07222222222222222,0,0,0.07222222222222222,50.48333333333333,0)" xlink:href="#ap"/><use transform="matrix(0.07222222222222222,0,0,0.07222222222222222,56.18888888888888,0)" xlink:href="#ao"/></g><path fill="#3a414a" d="M24 0v-261h32V0H24" id="az"/><path fill="#3a414a" d="M100-194c62-1 85 37 85 99 1 63-27 99-86 99S16-35 15-95c0-66 28-99 85-99zM99-20c44 1 53-31 53-75 0-43-8-75-51-75s-53 32-53 75 10 74 51 75" id="aA"/><path fill="#3a414a" d="M117-194c89-4 53 116 60 194h-32v-121c0-31-8-49-39-48C34-167 62-67 57 0H25l-1-190h30c1 10-1 24 2 32 11-22 29-35 61-36" id="aB"/><g id="c"><use transform="matrix(0.07222222222222222,0,0,0.07222222222222222,0,0)" xlink:href="#az"/><use transform="matrix(0.07222222222222222,0,0,0.07222222222222222,5.705555555555555,0)" xlink:href="#aA"/><use transform="matrix(0.07222222222222222,0,0,0.07222222222222222,20.15,0)" xlink:href="#ar"/><use transform="matrix(0.07222222222222222,0,0,0.07222222222222222,34.59444444444444,0)" xlink:href="#ap"/><use transform="matrix(0.07222222222222222,0,0,0.07222222222222222,40.3,0)" xlink:href="#aB"/><use transform="matrix(0.07222222222222222,0,0,0.07222222222222222,54.74444444444444,0)" xlink:href="#aB"/><use transform="matrix(0.07222222222222222,0,0,0.07222222222222222,69.18888888888888,0)" xlink:href="#aq"/><use transform="matrix(0.07222222222222222,0,0,0.07222222222222222,83.63333333333333,0)" xlink:href="#at"/><use transform="matrix(0.07222222222222222,0,0,0.07222222222222222,105.22777777777777,0)" xlink:href="#av"/></g><path fill="#3a414a" d="M59-47c-2 24 18 29 38 22v24C64 9 27 4 27-40v-127H5v-23h24l9-43h21v43h35v23H59v120" id="aC"/><g id="d"><use transform="matrix(0.07222222222222222,0,0,0.07222222222222222,0,0)" xlink:href="#az"/><use transform="matrix(0.07222222222222222,0,0,0.07222222222222222,5.705555555555555,0)" xlink:href="#aq"/><use transform="matrix(0.07222222222222222,0,0,0.07222222222222222,20.15,0)" xlink:href="#au"/><use transform="matrix(0.07222222222222222,0,0,0.07222222222222222,33.15,0)" xlink:href="#aC"/><use transform="matrix(0.07222222222222222,0,0,0.07222222222222222,40.37222222222222,0)" xlink:href="#aB"/><use transform="matrix(0.07222222222222222,0,0,0.07222222222222222,54.81666666666666,0)" xlink:href="#aq"/><use transform="matrix(0.07222222222222222,0,0,0.07222222222222222,69.2611111111111,0)" xlink:href="#at"/><use transform="matrix(0.07222222222222222,0,0,0.07222222222222222,90.85555555555554,0)" xlink:href="#av"/></g><path fill="#3a414a" d="M101-234c-31-9-42 10-38 44h38v23H63V0H32v-167H5v-23h27c-7-52 17-82 69-68v24" id="aD"/><g id="e"><use transform="matrix(0.07222222222222222,0,0,0.07222222222222222,0,0)" xlink:href="#aD"/><use transform="matrix(0.07222222222222222,0,0,0.07222222222222222,7.222222222222221,0)" xlink:href="#ap"/><use transform="matrix(0.07222222222222222,0,0,0.07222222222222222,12.927777777777777,0)" xlink:href="#as"/><use transform="matrix(0.07222222222222222,0,0,0.07222222222222222,21.52222222222222,0)" xlink:href="#au"/><use transform="matrix(0.07222222222222222,0,0,0.07222222222222222,34.52222222222222,0)" xlink:href="#aC"/><use transform="matrix(0.07222222222222222,0,0,0.07222222222222222,41.74444444444444,0)" xlink:href="#aB"/><use transform="matrix(0.07222222222222222,0,0,0.07222222222222222,56.18888888888888,0)" xlink:href="#aq"/><use transform="matrix(0.07222222222222222,0,0,0.07222222222222222,70.63333333333333,0)" xlink:href="#at"/><use transform="matrix(0.07222222222222222,0,0,0.07222222222222222,92.22777777777775,0)" xlink:href="#av"/></g><g id="f"><use transform="matrix(0.07222222222222222,0,0,0.07222222222222222,0,0)" xlink:href="#ap"/><use transform="matrix(0.07222222222222222,0,0,0.07222222222222222,5.705555555555555,0)" xlink:href="#au"/><use transform="matrix(0.07222222222222222,0,0,0.07222222222222222,18.705555555555552,0)" xlink:href="#au"/><use transform="matrix(0.07222222222222222,0,0,0.07222222222222222,31.70555555555555,0)" xlink:href="#ay"/><use transform="matrix(0.07222222222222222,0,0,0.07222222222222222,46.149999999999984,0)" xlink:href="#av"/><use transform="matrix(0.07222222222222222,0,0,0.07222222222222222,60.59444444444443,0)" xlink:href="#au"/></g><path fill="#3a414a" d="M26 75v-336h71v23H56V52h41v23H26" id="aE"/><path fill="#3a414a" d="M3 75V52h41v-290H3v-23h71V75H3" id="aF"/><g id="g"><use transform="matrix(0.07222222222222222,0,0,0.07222222222222222,0,0)" xlink:href="#aE"/><use transform="matrix(0.07222222222222222,0,0,0.07222222222222222,7.222222222222221,0)" xlink:href="#aF"/></g><path fill="#3a414a" d="M115-194c55 1 70 41 70 98S169 2 115 4C84 4 66-9 55-30l1 105H24l-1-265h31l2 30c10-21 28-34 59-34zm-8 174c40 0 45-34 45-75s-6-73-45-74c-42 0-51 32-51 76 0 43 10 73 51 73" id="aG"/><g id="h"><use transform="matrix(0.07222222222222222,0,0,0.07222222222222222,0,0)" xlink:href="#aA"/><use transform="matrix(0.07222222222222222,0,0,0.07222222222222222,14.444444444444443,0)" xlink:href="#aG"/><use transform="matrix(0.07222222222222222,0,0,0.07222222222222222,28.888888888888886,0)" xlink:href="#aC"/></g><g id="i"><use transform="matrix(0.07222222222222222,0,0,0.07222222222222222,0,0)" xlink:href="#ax"/><use transform="matrix(0.07222222222222222,0,0,0.07222222222222222,12.999999999999998,0)" xlink:href="#aA"/><use transform="matrix(0.07222222222222222,0,0,0.07222222222222222,27.444444444444443,0)" xlink:href="#ay"/><use transform="matrix(0.07222222222222222,0,0,0.07222222222222222,41.888888888888886,0)" xlink:href="#as"/><use transform="matrix(0.07222222222222222,0,0,0.07222222222222222,50.48333333333333,0)" xlink:href="#au"/><use transform="matrix(0.07222222222222222,0,0,0.07222222222222222,63.48333333333333,0)" xlink:href="#av"/><use transform="matrix(0.07222222222222222,0,0,0.07222222222222222,77.92777777777778,0)" xlink:href="#ap"/><use transform="matrix(0.07222222222222222,0,0,0.07222222222222222,83.63333333333333,0)" xlink:href="#ao"/></g><g id="j"><use transform="matrix(0.07222222222222222,0,0,0.07222222222222222,0,0)" xlink:href="#ax"/><use transform="matrix(0.07222222222222222,0,0,0.07222222222222222,12.999999999999998,0)" xlink:href="#aA"/><use transform="matrix(0.07222222222222222,0,0,0.07222222222222222,27.444444444444443,0)" xlink:href="#ay"/><use transform="matrix(0.07222222222222222,0,0,0.07222222222222222,41.888888888888886,0)" xlink:href="#as"/><use transform="matrix(0.07222222222222222,0,0,0.07222222222222222,50.48333333333333,0)" xlink:href="#au"/><use transform="matrix(0.07222222222222222,0,0,0.07222222222222222,63.48333333333333,0)" xlink:href="#av"/><use transform="matrix(0.07222222222222222,0,0,0.07222222222222222,77.92777777777778,0)" xlink:href="#aB"/><use transform="matrix(0.07222222222222222,0,0,0.07222222222222222,92.37222222222222,0)" xlink:href="#aq"/><use transform="matrix(0.07222222222222222,0,0,0.07222222222222222,106.81666666666666,0)" xlink:href="#at"/><use transform="matrix(0.07222222222222222,0,0,0.07222222222222222,128.4111111111111,0)" xlink:href="#av"/></g><path fill="#3a414a" d="M-5 72V49h209v23H-5" id="aH"/><g id="k"><use transform="matrix(0.07222222222222222,0,0,0.07222222222222222,0,0)" xlink:href="#az"/><use transform="matrix(0.07222222222222222,0,0,0.07222222222222222,5.705555555555555,0)" xlink:href="#aA"/><use transform="matrix(0.07222222222222222,0,0,0.07222222222222222,20.15,0)" xlink:href="#ar"/><use transform="matrix(0.07222222222222222,0,0,0.07222222222222222,34.59444444444444,0)" xlink:href="#aH"/><use transform="matrix(0.07222222222222222,0,0,0.07222222222222222,49.038888888888884,0)" xlink:href="#ay"/><use transform="matrix(0.07222222222222222,0,0,0.07222222222222222,63.48333333333333,0)" xlink:href="#ay"/><use transform="matrix(0.07222222222222222,0,0,0.07222222222222222,77.92777777777778,0)" xlink:href="#ap"/><use transform="matrix(0.07222222222222222,0,0,0.07222222222222222,83.63333333333333,0)" xlink:href="#ao"/></g><g id="l"><use transform="matrix(0.07222222222222222,0,0,0.07222222222222222,0,0)" xlink:href="#ap"/><use transform="matrix(0.07222222222222222,0,0,0.07222222222222222,5.705555555555555,0)" xlink:href="#aB"/><use transform="matrix(0.07222222222222222,0,0,0.07222222222222222,20.15,0)" xlink:href="#aD"/><use transform="matrix(0.07222222222222222,0,0,0.07222222222222222,27.37222222222222,0)" xlink:href="#aA"/></g><path fill="#3a414a" d="M115-194c53 0 69 39 70 98 0 66-23 100-70 100C84 3 66-7 56-30L54 0H23l1-261h32v101c10-23 28-34 59-34zm-8 174c40 0 45-34 45-75 0-40-5-75-45-74-42 0-51 32-51 76 0 43 10 73 51 73" id="aI"/><g id="m"><use transform="matrix(0.07222222222222222,0,0,0.07222222222222222,0,0)" xlink:href="#az"/><use transform="matrix(0.07222222222222222,0,0,0.07222222222222222,5.705555555555555,0)" xlink:href="#aA"/><use transform="matrix(0.07222222222222222,0,0,0.07222222222222222,20.15,0)" xlink:href="#ar"/><use transform="matrix(0.07222222222222222,0,0,0.07222222222222222,34.59444444444444,0)" xlink:href="#aH"/><use transform="matrix(0.07222222222222222,0,0,0.07222222222222222,49.038888888888884,0)" xlink:href="#ao"/><use transform="matrix(0.07222222222222222,0,0,0.07222222222222222,63.48333333333333,0)" xlink:href="#aI"/></g><g id="n"><use transform="matrix(0.07222222222222222,0,0,0.07222222222222222,0,0)" xlink:href="#ar"/><use transform="matrix(0.07222222222222222,0,0,0.07222222222222222,14.444444444444443,0)" xlink:href="#ap"/><use transform="matrix(0.07222222222222222,0,0,0.07222222222222222,20.15,0)" xlink:href="#aC"/><use transform="matrix(0.07222222222222222,0,0,0.07222222222222222,27.37222222222222,0)" xlink:href="#ay"/><use transform="matrix(0.07222222222222222,0,0,0.07222222222222222,41.81666666666666,0)" xlink:href="#au"/><use transform="matrix(0.07222222222222222,0,0,0.07222222222222222,54.81666666666666,0)" xlink:href="#av"/><use transform="matrix(0.07222222222222222,0,0,0.07222222222222222,69.2611111111111,0)" xlink:href="#as"/></g><path fill="#3a414a" d="M206 0h-36l-40-164L89 0H53L-1-190h32L70-26l43-164h34l41 164 42-164h31" id="aJ"/><path fill="#3a414a" d="M143 0L79-87 56-68V0H24v-261h32v163l83-92h37l-77 82L181 0h-38" id="aK"/><g id="o"><use transform="matrix(0.07222222222222222,0,0,0.07222222222222222,0,0)" xlink:href="#au"/><use transform="matrix(0.07222222222222222,0,0,0.07222222222222222,12.999999999999998,0)" xlink:href="#aC"/><use transform="matrix(0.07222222222222222,0,0,0.07222222222222222,20.22222222222222,0)" xlink:href="#aq"/><use transform="matrix(0.07222222222222222,0,0,0.07222222222222222,34.666666666666664,0)" xlink:href="#as"/><use transform="matrix(0.07222222222222222,0,0,0.07222222222222222,43.261111111111106,0)" xlink:href="#aC"/><use transform="matrix(0.07222222222222222,0,0,0.07222222222222222,50.48333333333333,0)" xlink:href="#aJ"/><use transform="matrix(0.07222222222222222,0,0,0.07222222222222222,69.18888888888888,0)" xlink:href="#av"/><use transform="matrix(0.07222222222222222,0,0,0.07222222222222222,83.63333333333333,0)" xlink:href="#av"/><use transform="matrix(0.07222222222222222,0,0,0.07222222222222222,98.07777777777777,0)" xlink:href="#aK"/></g><g id="p"><use transform="matrix(0.07222222222222222,0,0,0.07222222222222222,0,0)" xlink:href="#ax"/><use transform="matrix(0.07222222222222222,0,0,0.07222222222222222,12.999999999999998,0)" xlink:href="#ay"/><use transform="matrix(0.07222222222222222,0,0,0.07222222222222222,27.444444444444443,0)" xlink:href="#as"/><use transform="matrix(0.07222222222222222,0,0,0.07222222222222222,36.038888888888884,0)" xlink:href="#as"/><use transform="matrix(0.07222222222222222,0,0,0.07222222222222222,44.633333333333326,0)" xlink:href="#av"/><use transform="matrix(0.07222222222222222,0,0,0.07222222222222222,59.077777777777776,0)" xlink:href="#aB"/><use transform="matrix(0.07222222222222222,0,0,0.07222222222222222,73.52222222222221,0)" xlink:href="#aC"/><use transform="matrix(0.07222222222222222,0,0,0.07222222222222222,80.74444444444444,0)" xlink:href="#aJ"/><use transform="matrix(0.07222222222222222,0,0,0.07222222222222222,99.44999999999999,0)" xlink:href="#av"/><use transform="matrix(0.07222222222222222,0,0,0.07222222222222222,113.89444444444443,0)" xlink:href="#av"/><use transform="matrix(0.07222222222222222,0,0,0.07222222222222222,128.33888888888887,0)" xlink:href="#aK"/></g><g id="q"><use transform="matrix(0.07222222222222222,0,0,0.07222222222222222,0,0)" xlink:href="#ax"/><use transform="matrix(0.07222222222222222,0,0,0.07222222222222222,12.999999999999998,0)" xlink:href="#ay"/><use transform="matrix(0.07222222222222222,0,0,0.07222222222222222,27.444444444444443,0)" xlink:href="#as"/><use transform="matrix(0.07222222222222222,0,0,0.07222222222222222,36.038888888888884,0)" xlink:href="#as"/><use transform="matrix(0.07222222222222222,0,0,0.07222222222222222,44.633333333333326,0)" xlink:href="#av"/><use transform="matrix(0.07222222222222222,0,0,0.07222222222222222,59.077777777777776,0)" xlink:href="#aB"/><use transform="matrix(0.07222222222222222,0,0,0.07222222222222222,73.52222222222221,0)" xlink:href="#aC"/><use transform="matrix(0.07222222222222222,0,0,0.07222222222222222,80.74444444444444,0)" xlink:href="#aJ"/><use transform="matrix(0.07222222222222222,0,0,0.07222222222222222,99.44999999999999,0)" xlink:href="#av"/><use transform="matrix(0.07222222222222222,0,0,0.07222222222222222,113.89444444444443,0)" xlink:href="#av"/><use transform="matrix(0.07222222222222222,0,0,0.07222222222222222,128.33888888888887,0)" xlink:href="#aK"/><use transform="matrix(0.07222222222222222,0,0,0.07222222222222222,141.33888888888887,0)" xlink:href="#av"/><use transform="matrix(0.07222222222222222,0,0,0.07222222222222222,155.78333333333333,0)" xlink:href="#aB"/><use transform="matrix(0.07222222222222222,0,0,0.07222222222222222,170.22777777777776,0)" xlink:href="#ao"/></g><g id="r"><use transform="matrix(0.07222222222222222,0,0,0.07222222222222222,0,0)" xlink:href="#aJ"/><use transform="matrix(0.07222222222222222,0,0,0.07222222222222222,18.705555555555552,0)" xlink:href="#av"/><use transform="matrix(0.07222222222222222,0,0,0.07222222222222222,33.14999999999999,0)" xlink:href="#av"/><use transform="matrix(0.07222222222222222,0,0,0.07222222222222222,47.594444444444434,0)" xlink:href="#aK"/><use transform="matrix(0.07222222222222222,0,0,0.07222222222222222,60.59444444444443,0)" xlink:href="#aB"/><use transform="matrix(0.07222222222222222,0,0,0.07222222222222222,75.03888888888888,0)" xlink:href="#aA"/></g><g id="s"><use transform="matrix(0.07222222222222222,0,0,0.07222222222222222,0,0)" xlink:href="#aJ"/><use transform="matrix(0.07222222222222222,0,0,0.07222222222222222,18.705555555555552,0)" xlink:href="#av"/><use transform="matrix(0.07222222222222222,0,0,0.07222222222222222,33.14999999999999,0)" xlink:href="#av"/><use transform="matrix(0.07222222222222222,0,0,0.07222222222222222,47.594444444444434,0)" xlink:href="#aK"/><use transform="matrix(0.07222222222222222,0,0,0.07222222222222222,60.59444444444443,0)" xlink:href="#au"/></g><g id="t"><use transform="matrix(0.07222222222222222,0,0,0.07222222222222222,0,0)" xlink:href="#ao"/><use transform="matrix(0.07222222222222222,0,0,0.07222222222222222,14.444444444444443,0)" xlink:href="#av"/><use transform="matrix(0.07222222222222222,0,0,0.07222222222222222,28.888888888888886,0)" xlink:href="#aI"/><use transform="matrix(0.07222222222222222,0,0,0.07222222222222222,43.33333333333333,0)" xlink:href="#ay"/><use transform="matrix(0.07222222222222222,0,0,0.07222222222222222,57.77777777777777,0)" xlink:href="#ar"/></g><path fill="#3a414a" d="M145-31C134-9 116 4 85 4 32 4 16-35 15-94c0-59 17-99 70-100 32-1 48 14 60 33 0-11-1-24 2-32h30l-1 268h-32zM93-21c41 0 51-33 51-76s-8-73-50-73c-40 0-46 35-46 75s5 74 45 74" id="aL"/><path fill="#3a414a" d="M179-190L93 31C79 59 56 82 12 73V49c39 6 53-20 64-50L1-190h34L92-34l54-156h33" id="aM"/><g id="u"><use transform="matrix(0.07222222222222222,0,0,0.07222222222222222,0,0)" xlink:href="#aL"/><use transform="matrix(0.07222222222222222,0,0,0.07222222222222222,14.444444444444443,0)" xlink:href="#ay"/><use transform="matrix(0.07222222222222222,0,0,0.07222222222222222,28.888888888888886,0)" xlink:href="#av"/><use transform="matrix(0.07222222222222222,0,0,0.07222222222222222,43.33333333333333,0)" xlink:href="#as"/><use transform="matrix(0.07222222222222222,0,0,0.07222222222222222,51.92777777777777,0)" xlink:href="#aM"/></g><g id="v"><use transform="matrix(0.07222222222222222,0,0,0.07222222222222222,0,0)" xlink:href="#as"/><use transform="matrix(0.07222222222222222,0,0,0.07222222222222222,8.594444444444443,0)" xlink:href="#aA"/><use transform="matrix(0.07222222222222222,0,0,0.07222222222222222,23.038888888888884,0)" xlink:href="#aJ"/><use transform="matrix(0.07222222222222222,0,0,0.07222222222222222,41.74444444444444,0)" xlink:href="#au"/></g><g id="w"><use transform="matrix(0.07222222222222222,0,0,0.07222222222222222,0,0)" xlink:href="#av"/><use transform="matrix(0.07222222222222222,0,0,0.07222222222222222,14.444444444444443,0)" xlink:href="#aw"/><use transform="matrix(0.07222222222222222,0,0,0.07222222222222222,27.444444444444443,0)" xlink:href="#av"/><use transform="matrix(0.07222222222222222,0,0,0.07222222222222222,41.888888888888886,0)" xlink:href="#aB"/><use transform="matrix(0.07222222222222222,0,0,0.07222222222222222,56.33333333333333,0)" xlink:href="#aC"/><use transform="matrix(0.07222222222222222,0,0,0.07222222222222222,63.55555555555555,0)" xlink:href="#au"/></g><g id="x"><use transform="matrix(0.07222222222222222,0,0,0.07222222222222222,0,0)" xlink:href="#ax"/><use transform="matrix(0.07222222222222222,0,0,0.07222222222222222,12.999999999999998,0)" xlink:href="#aA"/><use transform="matrix(0.07222222222222222,0,0,0.07222222222222222,27.444444444444443,0)" xlink:href="#at"/><use transform="matrix(0.07222222222222222,0,0,0.07222222222222222,49.038888888888884,0)" xlink:href="#at"/><use transform="matrix(0.07222222222222222,0,0,0.07222222222222222,70.63333333333333,0)" xlink:href="#av"/><use transform="matrix(0.07222222222222222,0,0,0.07222222222222222,85.07777777777777,0)" xlink:href="#aB"/><use transform="matrix(0.07222222222222222,0,0,0.07222222222222222,99.52222222222221,0)" xlink:href="#aC"/><use transform="matrix(0.07222222222222222,0,0,0.07222222222222222,106.74444444444444,0)" xlink:href="#au"/></g><g id="y"><use transform="matrix(0.07222222222222222,0,0,0.07222222222222222,0,0)" xlink:href="#aD"/><use transform="matrix(0.07222222222222222,0,0,0.07222222222222222,7.222222222222221,0)" xlink:href="#ap"/><use transform="matrix(0.07222222222222222,0,0,0.07222222222222222,12.927777777777777,0)" xlink:href="#az"/><use transform="matrix(0.07222222222222222,0,0,0.07222222222222222,18.633333333333333,0)" xlink:href="#av"/><use transform="matrix(0.07222222222222222,0,0,0.07222222222222222,33.077777777777776,0)" xlink:href="#au"/></g><g id="z"><use transform="matrix(0.07222222222222222,0,0,0.07222222222222222,0,0)" xlink:href="#aJ"/><use transform="matrix(0.07222222222222222,0,0,0.07222222222222222,18.705555555555552,0)" xlink:href="#av"/><use transform="matrix(0.07222222222222222,0,0,0.07222222222222222,33.14999999999999,0)" xlink:href="#av"/><use transform="matrix(0.07222222222222222,0,0,0.07222222222222222,47.594444444444434,0)" xlink:href="#aK"/></g><g id="A"><use transform="matrix(0.07222222222222222,0,0,0.07222222222222222,0,0)" xlink:href="#aE"/><use transform="matrix(0.07222222222222222,0,0,0.07222222222222222,7.222222222222221,0)" xlink:href="#aF"/></g><path fill="#3a414a" d="M212-179c-10-28-35-45-73-45-59 0-87 40-87 99 0 60 29 101 89 101 43 0 62-24 78-52l27 14C228-24 195 4 139 4 59 4 22-46 18-125c-6-104 99-153 187-111 19 9 31 26 39 46" id="aN"/><path fill="#3a414a" d="M87 75C49 33 22-17 22-94c0-76 28-126 65-167h31c-38 41-64 92-64 168S80 34 118 75H87" id="aO"/><path fill="#3a414a" d="M33-261c38 41 65 92 65 168S71 34 33 75H2C39 34 66-17 66-93S39-220 2-261h31" id="aP"/><g id="B"><use transform="matrix(0.07222222222222222,0,0,0.07222222222222222,0,0)" xlink:href="#aG"/><use transform="matrix(0.07222222222222222,0,0,0.07222222222222222,14.444444444444443,0)" xlink:href="#ao"/><use transform="matrix(0.07222222222222222,0,0,0.07222222222222222,28.888888888888886,0)" xlink:href="#aA"/><use transform="matrix(0.07222222222222222,0,0,0.07222222222222222,43.33333333333333,0)" xlink:href="#aN"/><use transform="matrix(0.07222222222222222,0,0,0.07222222222222222,62.03888888888888,0)" xlink:href="#aA"/><use transform="matrix(0.07222222222222222,0,0,0.07222222222222222,76.48333333333332,0)" xlink:href="#aB"/><use transform="matrix(0.07222222222222222,0,0,0.07222222222222222,90.92777777777776,0)" xlink:href="#aB"/><use transform="matrix(0.07222222222222222,0,0,0.07222222222222222,105.3722222222222,0)" xlink:href="#av"/><use transform="matrix(0.07222222222222222,0,0,0.07222222222222222,119.81666666666665,0)" xlink:href="#ax"/><use transform="matrix(0.07222222222222222,0,0,0.07222222222222222,132.81666666666663,0)" xlink:href="#aC"/><use transform="matrix(0.07222222222222222,0,0,0.07222222222222222,140.03888888888886,0)" xlink:href="#aO"/><use transform="matrix(0.07222222222222222,0,0,0.07222222222222222,148.6333333333333,0)" xlink:href="#aP"/></g><g id="C"><use transform="matrix(0.07222222222222222,0,0,0.07222222222222222,0,0)" xlink:href="#au"/><use transform="matrix(0.07222222222222222,0,0,0.07222222222222222,12.999999999999998,0)" xlink:href="#av"/><use transform="matrix(0.07222222222222222,0,0,0.07222222222222222,27.444444444444443,0)" xlink:href="#au"/><use transform="matrix(0.07222222222222222,0,0,0.07222222222222222,40.44444444444444,0)" xlink:href="#au"/><use transform="matrix(0.07222222222222222,0,0,0.07222222222222222,53.44444444444444,0)" xlink:href="#ap"/><use transform="matrix(0.07222222222222222,0,0,0.07222222222222222,59.150000000000006,0)" xlink:href="#aA"/><use transform="matrix(0.07222222222222222,0,0,0.07222222222222222,73.59444444444443,0)" xlink:href="#aB"/><use transform="matrix(0.07222222222222222,0,0,0.07222222222222222,88.03888888888888,0)" xlink:href="#aH"/><use transform="matrix(0.07222222222222222,0,0,0.07222222222222222,102.48333333333332,0)" xlink:href="#au"/><use transform="matrix(0.07222222222222222,0,0,0.07222222222222222,115.48333333333332,0)" xlink:href="#aC"/><use transform="matrix(0.07222222222222222,0,0,0.07222222222222222,122.70555555555555,0)" xlink:href="#aq"/><use transform="matrix(0.07222222222222222,0,0,0.07222222222222222,137.14999999999998,0)" xlink:href="#as"/><use transform="matrix(0.07222222222222222,0,0,0.07222222222222222,145.7444444444444,0)" xlink:href="#aC"/><use transform="matrix(0.07222222222222222,0,0,0.07222222222222222,152.96666666666664,0)" xlink:href="#aO"/><use transform="matrix(0.07222222222222222,0,0,0.07222222222222222,161.56111111111107,0)" xlink:href="#aP"/></g><path fill="#3a414a" d="M190 0L58-211 59 0H30v-248h39L202-35l-2-213h31V0h-41" id="aQ"/><path fill="#3a414a" d="M33 0v-248h34V0H33" id="aR"/><g id="D"><use transform="matrix(0.07222222222222222,0,0,0.07222222222222222,0,0)" xlink:href="#ao"/><use transform="matrix(0.07222222222222222,0,0,0.07222222222222222,14.444444444444443,0)" xlink:href="#aA"/><use transform="matrix(0.07222222222222222,0,0,0.07222222222222222,28.888888888888886,0)" xlink:href="#aQ"/><use transform="matrix(0.07222222222222222,0,0,0.07222222222222222,47.594444444444434,0)" xlink:href="#ay"/><use transform="matrix(0.07222222222222222,0,0,0.07222222222222222,62.03888888888888,0)" xlink:href="#at"/><use transform="matrix(0.07222222222222222,0,0,0.07222222222222222,83.63333333333333,0)" xlink:href="#aI"/><use transform="matrix(0.07222222222222222,0,0,0.07222222222222222,98.07777777777777,0)" xlink:href="#av"/><use transform="matrix(0.07222222222222222,0,0,0.07222222222222222,112.52222222222221,0)" xlink:href="#as"/><use transform="matrix(0.07222222222222222,0,0,0.07222222222222222,121.11666666666666,0)" xlink:href="#aA"/><use transform="matrix(0.07222222222222222,0,0,0.07222222222222222,135.5611111111111,0)" xlink:href="#aD"/><use transform="matrix(0.07222222222222222,0,0,0.07222222222222222,142.78333333333333,0)" xlink:href="#aR"/><use transform="matrix(0.07222222222222222,0,0,0.07222222222222222,150.0055555555556,0)" xlink:href="#au"/><use transform="matrix(0.07222222222222222,0,0,0.07222222222222222,163.00555555555556,0)" xlink:href="#au"/><use transform="matrix(0.07222222222222222,0,0,0.07222222222222222,176.00555555555556,0)" xlink:href="#ay"/><use transform="matrix(0.07222222222222222,0,0,0.07222222222222222,190.45,0)" xlink:href="#av"/><use transform="matrix(0.07222222222222222,0,0,0.07222222222222222,204.89444444444445,0)" xlink:href="#au"/><use transform="matrix(0.07222222222222222,0,0,0.07222222222222222,217.89444444444445,0)" xlink:href="#aO"/><use transform="matrix(0.07222222222222222,0,0,0.07222222222222222,226.48888888888888,0)" xlink:href="#aP"/></g><path fill="#3a414a" d="M30 0v-248h187v28H63v79h144v27H63v87h162V0H30" id="aS"/><g id="E"><use transform="matrix(0.07222222222222222,0,0,0.07222222222222222,0,0)" xlink:href="#ao"/><use transform="matrix(0.07222222222222222,0,0,0.07222222222222222,14.444444444444443,0)" xlink:href="#aA"/><use transform="matrix(0.07222222222222222,0,0,0.07222222222222222,28.888888888888886,0)" xlink:href="#aN"/><use transform="matrix(0.07222222222222222,0,0,0.07222222222222222,47.594444444444434,0)" xlink:href="#aA"/><use transform="matrix(0.07222222222222222,0,0,0.07222222222222222,62.03888888888888,0)" xlink:href="#ay"/><use transform="matrix(0.07222222222222222,0,0,0.07222222222222222,76.48333333333332,0)" xlink:href="#aB"/><use transform="matrix(0.07222222222222222,0,0,0.07222222222222222,90.92777777777776,0)" xlink:href="#aC"/><use transform="matrix(0.07222222222222222,0,0,0.07222222222222222,98.14999999999998,0)" xlink:href="#aS"/><use transform="matrix(0.07222222222222222,0,0,0.07222222222222222,115.4833333333333,0)" xlink:href="#aw"/><use transform="matrix(0.07222222222222222,0,0,0.07222222222222222,128.4833333333333,0)" xlink:href="#av"/><use transform="matrix(0.07222222222222222,0,0,0.07222222222222222,142.92777777777775,0)" xlink:href="#aB"/><use transform="matrix(0.07222222222222222,0,0,0.07222222222222222,157.3722222222222,0)" xlink:href="#aC"/><use transform="matrix(0.07222222222222222,0,0,0.07222222222222222,164.59444444444443,0)" xlink:href="#au"/><use transform="matrix(0.07222222222222222,0,0,0.07222222222222222,177.59444444444443,0)" xlink:href="#aO"/><use transform="matrix(0.07222222222222222,0,0,0.07222222222222222,186.18888888888887,0)" xlink:href="#aP"/></g><path fill="#3a414a" d="M140-251c81 0 123 46 123 126C263-46 219 4 140 4 59 4 17-45 17-125s42-126 123-126zm0 227c63 0 89-41 89-101s-29-99-89-99c-61 0-89 39-89 99S79-25 140-24" id="aT"/><g id="F"><use transform="matrix(0.07222222222222222,0,0,0.07222222222222222,0,0)" xlink:href="#ao"/><use transform="matrix(0.07222222222222222,0,0,0.07222222222222222,14.444444444444443,0)" xlink:href="#aA"/><use transform="matrix(0.07222222222222222,0,0,0.07222222222222222,28.888888888888886,0)" xlink:href="#aQ"/><use transform="matrix(0.07222222222222222,0,0,0.07222222222222222,47.594444444444434,0)" xlink:href="#ay"/><use transform="matrix(0.07222222222222222,0,0,0.07222222222222222,62.03888888888888,0)" xlink:href="#at"/><use transform="matrix(0.07222222222222222,0,0,0.07222222222222222,83.63333333333333,0)" xlink:href="#aI"/><use transform="matrix(0.07222222222222222,0,0,0.07222222222222222,98.07777777777777,0)" xlink:href="#av"/><use transform="matrix(0.07222222222222222,0,0,0.07222222222222222,112.52222222222221,0)" xlink:href="#as"/><use transform="matrix(0.07222222222222222,0,0,0.07222222222222222,121.11666666666666,0)" xlink:href="#aT"/><use transform="matrix(0.07222222222222222,0,0,0.07222222222222222,141.33888888888887,0)" xlink:href="#aD"/><use transform="matrix(0.07222222222222222,0,0,0.07222222222222222,148.5611111111111,0)" xlink:href="#aN"/><use transform="matrix(0.07222222222222222,0,0,0.07222222222222222,167.26666666666665,0)" xlink:href="#aA"/><use transform="matrix(0.07222222222222222,0,0,0.07222222222222222,181.71111111111108,0)" xlink:href="#at"/><use transform="matrix(0.07222222222222222,0,0,0.07222222222222222,203.30555555555554,0)" xlink:href="#at"/><use transform="matrix(0.07222222222222222,0,0,0.07222222222222222,224.89999999999998,0)" xlink:href="#av"/><use transform="matrix(0.07222222222222222,0,0,0.07222222222222222,239.34444444444443,0)" xlink:href="#aB"/><use transform="matrix(0.07222222222222222,0,0,0.07222222222222222,253.7888888888889,0)" xlink:href="#aC"/><use transform="matrix(0.07222222222222222,0,0,0.07222222222222222,261.0111111111111,0)" xlink:href="#au"/><use transform="matrix(0.07222222222222222,0,0,0.07222222222222222,274.0111111111111,0)" xlink:href="#aO"/><use transform="matrix(0.07222222222222222,0,0,0.07222222222222222,282.60555555555555,0)" xlink:href="#aP"/></g><path fill="#3a414a" d="M30 0v-248h33v221h125V0H30" id="aU"/><path fill="#3a414a" d="M106-169C34-169 62-67 57 0H25v-261h32l-1 103c12-21 28-36 61-36 89 0 53 116 60 194h-32v-121c2-32-8-49-39-48" id="aV"/><g id="G"><use transform="matrix(0.07222222222222222,0,0,0.07222222222222222,0,0)" xlink:href="#ao"/><use transform="matrix(0.07222222222222222,0,0,0.07222222222222222,14.444444444444443,0)" xlink:href="#aA"/><use transform="matrix(0.07222222222222222,0,0,0.07222222222222222,28.888888888888886,0)" xlink:href="#aU"/><use transform="matrix(0.07222222222222222,0,0,0.07222222222222222,43.33333333333333,0)" xlink:href="#ap"/><use transform="matrix(0.07222222222222222,0,0,0.07222222222222222,49.038888888888884,0)" xlink:href="#aB"/><use transform="matrix(0.07222222222222222,0,0,0.07222222222222222,63.48333333333333,0)" xlink:href="#av"/><use transform="matrix(0.07222222222222222,0,0,0.07222222222222222,77.92777777777778,0)" xlink:href="#au"/><use transform="matrix(0.07222222222222222,0,0,0.07222222222222222,90.92777777777776,0)" xlink:href="#aN"/><use transform="matrix(0.07222222222222222,0,0,0.07222222222222222,109.63333333333333,0)" xlink:href="#aV"/><use transform="matrix(0.07222222222222222,0,0,0.07222222222222222,124.07777777777777,0)" xlink:href="#aq"/><use transform="matrix(0.07222222222222222,0,0,0.07222222222222222,138.5222222222222,0)" xlink:href="#aB"/><use transform="matrix(0.07222222222222222,0,0,0.07222222222222222,152.96666666666664,0)" xlink:href="#ar"/><use transform="matrix(0.07222222222222222,0,0,0.07222222222222222,167.4111111111111,0)" xlink:href="#av"/><use transform="matrix(0.07222222222222222,0,0,0.07222222222222222,181.85555555555553,0)" xlink:href="#ao"/><use transform="matrix(0.07222222222222222,0,0,0.07222222222222222,196.3,0)" xlink:href="#aN"/><use transform="matrix(0.07222222222222222,0,0,0.07222222222222222,215.00555555555556,0)" xlink:href="#aA"/><use transform="matrix(0.07222222222222222,0,0,0.07222222222222222,229.45,0)" xlink:href="#ao"/><use transform="matrix(0.07222222222222222,0,0,0.07222222222222222,243.89444444444445,0)" xlink:href="#av"/><use transform="matrix(0.07222222222222222,0,0,0.07222222222222222,258.3388888888889,0)" xlink:href="#aO"/><use transform="matrix(0.07222222222222222,0,0,0.07222222222222222,266.93333333333334,0)" xlink:href="#aP"/></g><path fill="#3a414a" d="M194-70c0 46-34 64-81 66v29H91V-4C42-5 12-27 4-67l30-6c5 28 25 41 57 43v-87c-38-9-76-20-76-67 1-42 33-58 76-59v-23h22v23c45 0 67 20 76 56l-31 6c-5-23-18-35-45-37v78c41 10 81 20 81 70zm-81 41c51 7 71-66 19-77-6-2-12-4-19-6v83zM91-219c-47-6-63 57-18 69 6 2 12 3 18 5v-74" id="aW"/><path fill="#3a414a" d="M68-38c1 34 0 65-14 84H32c9-13 17-26 17-46H33v-38h35" id="aX"/><g id="H"><use transform="matrix(0.07037037037037036,0,0,0.07037037037037036,0,0)" xlink:href="#aq"/><use transform="matrix(0.07037037037037036,0,0,0.07037037037037036,14.074074074074073,0)" xlink:href="#as"/><use transform="matrix(0.07037037037037036,0,0,0.07037037037037036,22.448148148148146,0)" xlink:href="#as"/><use transform="matrix(0.07037037037037036,0,0,0.07037037037037036,30.82222222222222,0)" xlink:href="#aq"/><use transform="matrix(0.07037037037037036,0,0,0.07037037037037036,44.89629629629629,0)" xlink:href="#aM"/><use transform="matrix(0.07037037037037036,0,0,0.07037037037037036,57.562962962962956,0)" xlink:href="#aH"/><use transform="matrix(0.07037037037037036,0,0,0.07037037037037036,71.63703703703703,0)" xlink:href="#aG"/><use transform="matrix(0.07037037037037036,0,0,0.07037037037037036,85.71111111111111,0)" xlink:href="#ay"/><use transform="matrix(0.07037037037037036,0,0,0.07037037037037036,99.78518518518518,0)" xlink:href="#au"/><use transform="matrix(0.07037037037037036,0,0,0.07037037037037036,112.45185185185184,0)" xlink:href="#aV"/><use transform="matrix(0.07037037037037036,0,0,0.07037037037037036,126.52592592592592,0)" xlink:href="#aO"/><use transform="matrix(0.07037037037037036,0,0,0.07037037037037036,134.89999999999998,0)" xlink:href="#aW"/><use transform="matrix(0.07037037037037036,0,0,0.07037037037037036,148.97407407407405,0)" xlink:href="#aJ"/><use transform="matrix(0.07037037037037036,0,0,0.07037037037037036,167.2,0)" xlink:href="#av"/><use transform="matrix(0.07037037037037036,0,0,0.07037037037037036,181.27407407407404,0)" xlink:href="#av"/><use transform="matrix(0.07037037037037036,0,0,0.07037037037037036,195.34814814814814,0)" xlink:href="#aK"/><use transform="matrix(0.07037037037037036,0,0,0.07037037037037036,208.0148148148148,0)" xlink:href="#au"/><use transform="matrix(0.07037037037037036,0,0,0.07037037037037036,220.68148148148146,0)" xlink:href="#aX"/></g><g id="I"><use transform="matrix(0.07037037037037036,0,0,0.07037037037037036,0,0)" xlink:href="#aW"/><use transform="matrix(0.07037037037037036,0,0,0.07037037037037036,14.074074074074073,0)" xlink:href="#aJ"/><use transform="matrix(0.07037037037037036,0,0,0.07037037037037036,32.3,0)" xlink:href="#av"/><use transform="matrix(0.07037037037037036,0,0,0.07037037037037036,46.37407407407407,0)" xlink:href="#av"/><use transform="matrix(0.07037037037037036,0,0,0.07037037037037036,60.44814814814815,0)" xlink:href="#aK"/><use transform="matrix(0.07037037037037036,0,0,0.07037037037037036,73.11481481481482,0)" xlink:href="#aP"/></g><path fill="#3a414a" d="M153-248C145-148 188 4 80 4 36 3 13-21 6-62l32-5c4 25 16 42 43 43 27 0 39-20 39-49v-147H72v-28h81" id="aY"/><path fill="#3a414a" d="M185-189c-5-48-123-54-124 2 14 75 158 14 163 119 3 78-121 87-175 55-17-10-28-26-33-46l33-7c5 56 141 63 141-1 0-78-155-14-162-118-5-82 145-84 179-34 5 7 8 16 11 25" id="aZ"/><g id="J"><use transform="matrix(0.07222222222222222,0,0,0.07222222222222222,0,0)" xlink:href="#ax"/><use transform="matrix(0.07222222222222222,0,0,0.07222222222222222,12.999999999999998,0)" xlink:href="#as"/><use transform="matrix(0.07222222222222222,0,0,0.07222222222222222,21.59444444444444,0)" xlink:href="#av"/><use transform="matrix(0.07222222222222222,0,0,0.07222222222222222,36.038888888888884,0)" xlink:href="#aq"/><use transform="matrix(0.07222222222222222,0,0,0.07222222222222222,50.48333333333333,0)" xlink:href="#aC"/><use transform="matrix(0.07222222222222222,0,0,0.07222222222222222,57.70555555555555,0)" xlink:href="#av"/><use transform="matrix(0.07222222222222222,0,0,0.07222222222222222,72.14999999999999,0)" xlink:href="#aY"/><use transform="matrix(0.07222222222222222,0,0,0.07222222222222222,85.14999999999999,0)" xlink:href="#aZ"/><use transform="matrix(0.07222222222222222,0,0,0.07222222222222222,102.48333333333332,0)" xlink:href="#aT"/><use transform="matrix(0.07222222222222222,0,0,0.07222222222222222,122.70555555555555,0)" xlink:href="#aQ"/><use transform="matrix(0.07222222222222222,0,0,0.07222222222222222,141.4111111111111,0)" xlink:href="#aO"/><use transform="matrix(0.07222222222222222,0,0,0.07222222222222222,150.00555555555553,0)" xlink:href="#aP"/></g><path fill="#3a414a" d="M30-248c118-7 216 8 213 122C240-48 200 0 122 0H30v-248zM63-27c89 8 146-16 146-99s-60-101-146-95v194" id="ba"/><g id="K"><use transform="matrix(0.07037037037037036,0,0,0.07037037037037036,0,0)" xlink:href="#ar"/><use transform="matrix(0.07037037037037036,0,0,0.07037037037037036,14.074074074074073,0)" xlink:href="#av"/><use transform="matrix(0.07037037037037036,0,0,0.07037037037037036,28.148148148148145,0)" xlink:href="#aC"/><use transform="matrix(0.07037037037037036,0,0,0.07037037037037036,35.18518518518518,0)" xlink:href="#ba"/><use transform="matrix(0.07037037037037036,0,0,0.07037037037037036,53.41111111111111,0)" xlink:href="#ap"/><use transform="matrix(0.07037037037037036,0,0,0.07037037037037036,58.97037037037037,0)" xlink:href="#aq"/><use transform="matrix(0.07037037037037036,0,0,0.07037037037037036,73.04444444444444,0)" xlink:href="#ar"/><use transform="matrix(0.07037037037037036,0,0,0.07037037037037036,87.11851851851851,0)" xlink:href="#as"/><use transform="matrix(0.07037037037037036,0,0,0.07037037037037036,95.49259259259259,0)" xlink:href="#aq"/><use transform="matrix(0.07037037037037036,0,0,0.07037037037037036,109.56666666666666,0)" xlink:href="#at"/><use transform="matrix(0.07037037037037036,0,0,0.07037037037037036,130.6074074074074,0)" xlink:href="#aO"/><use transform="matrix(0.07037037037037036,0,0,0.07037037037037036,138.98148148148147,0)" xlink:href="#aW"/><use transform="matrix(0.07037037037037036,0,0,0.07037037037037036,153.05555555555554,0)" xlink:href="#ax"/><use transform="matrix(0.07037037037037036,0,0,0.07037037037037036,165.7222222222222,0)" xlink:href="#ap"/><use transform="matrix(0.07037037037037036,0,0,0.07037037037037036,171.28148148148145,0)" xlink:href="#ao"/><use transform="matrix(0.07037037037037036,0,0,0.07037037037037036,185.35555555555553,0)" xlink:href="#aX"/></g><path fill="#3a414a" d="M9 0v-24l116-142H16v-24h144v24L44-24h123V0H9" id="bb"/><g id="L"><use transform="matrix(0.07037037037037036,0,0,0.07037037037037036,0,0)" xlink:href="#aW"/><use transform="matrix(0.07037037037037036,0,0,0.07037037037037036,14.074074074074073,0)" xlink:href="#aL"/><use transform="matrix(0.07037037037037036,0,0,0.07037037037037036,28.148148148148145,0)" xlink:href="#ay"/><use transform="matrix(0.07037037037037036,0,0,0.07037037037037036,42.222222222222214,0)" xlink:href="#ap"/><use transform="matrix(0.07037037037037036,0,0,0.07037037037037036,47.781481481481464,0)" xlink:href="#bb"/><use transform="matrix(0.07037037037037036,0,0,0.07037037037037036,60.448148148148135,0)" xlink:href="#ap"/><use transform="matrix(0.07037037037037036,0,0,0.07037037037037036,66.0074074074074,0)" xlink:href="#ao"/><use transform="matrix(0.07037037037037036,0,0,0.07037037037037036,80.08148148148148,0)" xlink:href="#aX"/></g><g id="M"><use transform="matrix(0.07037037037037036,0,0,0.07037037037037036,0,0)" xlink:href="#aW"/><use transform="matrix(0.07037037037037036,0,0,0.07037037037037036,14.074074074074073,0)" xlink:href="#aG"/><use transform="matrix(0.07037037037037036,0,0,0.07037037037037036,28.148148148148145,0)" xlink:href="#ao"/><use transform="matrix(0.07037037037037036,0,0,0.07037037037037036,42.222222222222214,0)" xlink:href="#aA"/><use transform="matrix(0.07037037037037036,0,0,0.07037037037037036,56.29629629629629,0)" xlink:href="#aP"/></g><g id="N"><use transform="matrix(0.07037037037037036,0,0,0.07037037037037036,0,0)" xlink:href="#au"/><use transform="matrix(0.07037037037037036,0,0,0.07037037037037036,12.666666666666664,0)" xlink:href="#aq"/><use transform="matrix(0.07037037037037036,0,0,0.07037037037037036,26.740740740740737,0)" xlink:href="#aw"/><use transform="matrix(0.07037037037037036,0,0,0.07037037037037036,39.407407407407405,0)" xlink:href="#av"/><use transform="matrix(0.07037037037037036,0,0,0.07037037037037036,53.48148148148148,0)" xlink:href="#aO"/><use transform="matrix(0.07037037037037036,0,0,0.07037037037037036,61.855555555555554,0)" xlink:href="#aW"/><use transform="matrix(0.07037037037037036,0,0,0.07037037037037036,75.92962962962963,0)" xlink:href="#ao"/><use transform="matrix(0.07037037037037036,0,0,0.07037037037037036,90.0037037037037,0)" xlink:href="#aq"/><use transform="matrix(0.07037037037037036,0,0,0.07037037037037036,104.07777777777778,0)" xlink:href="#aC"/><use transform="matrix(0.07037037037037036,0,0,0.07037037037037036,111.11481481481482,0)" xlink:href="#aq"/><use transform="matrix(0.07037037037037036,0,0,0.07037037037037036,125.1888888888889,0)" xlink:href="#aX"/></g><g id="O"><use transform="matrix(0.07037037037037036,0,0,0.07037037037037036,0,0)" xlink:href="#aW"/><use transform="matrix(0.07037037037037036,0,0,0.07037037037037036,14.074074074074073,0)" xlink:href="#aV"/><use transform="matrix(0.07037037037037036,0,0,0.07037037037037036,28.148148148148145,0)" xlink:href="#aq"/><use transform="matrix(0.07037037037037036,0,0,0.07037037037037036,42.222222222222214,0)" xlink:href="#au"/><use transform="matrix(0.07037037037037036,0,0,0.07037037037037036,54.88888888888888,0)" xlink:href="#aV"/><use transform="matrix(0.07037037037037036,0,0,0.07037037037037036,68.96296296296295,0)" xlink:href="#aP"/></g><path fill="#3a414a" d="M33 0v-38h34V0H33" id="bc"/><g id="P"><use transform="matrix(0.07222222222222222,0,0,0.07222222222222222,0,0)" xlink:href="#ao"/><use transform="matrix(0.07222222222222222,0,0,0.07222222222222222,14.444444444444443,0)" xlink:href="#ap"/><use transform="matrix(0.07222222222222222,0,0,0.07222222222222222,20.15,0)" xlink:href="#aq"/><use transform="matrix(0.07222222222222222,0,0,0.07222222222222222,34.59444444444444,0)" xlink:href="#ar"/><use transform="matrix(0.07222222222222222,0,0,0.07222222222222222,49.038888888888884,0)" xlink:href="#as"/><use transform="matrix(0.07222222222222222,0,0,0.07222222222222222,57.633333333333326,0)" xlink:href="#aq"/><use transform="matrix(0.07222222222222222,0,0,0.07222222222222222,72.07777777777777,0)" xlink:href="#at"/><use transform="matrix(0.07222222222222222,0,0,0.07222222222222222,93.67222222222222,0)" xlink:href="#au"/><use transform="matrix(0.07222222222222222,0,0,0.07222222222222222,106.67222222222222,0)" xlink:href="#av"/><use transform="matrix(0.07222222222222222,0,0,0.07222222222222222,121.11666666666666,0)" xlink:href="#as"/><use transform="matrix(0.07222222222222222,0,0,0.07222222222222222,129.7111111111111,0)" xlink:href="#aw"/><use transform="matrix(0.07222222222222222,0,0,0.07222222222222222,142.7111111111111,0)" xlink:href="#ap"/><use transform="matrix(0.07222222222222222,0,0,0.07222222222222222,148.41666666666666,0)" xlink:href="#ax"/><use transform="matrix(0.07222222222222222,0,0,0.07222222222222222,161.41666666666666,0)" xlink:href="#av"/><use transform="matrix(0.07222222222222222,0,0,0.07222222222222222,175.8611111111111,0)" xlink:href="#bc"/><use transform="matrix(0.07222222222222222,0,0,0.07222222222222222,183.08333333333331,0)" xlink:href="#aG"/><use transform="matrix(0.07222222222222222,0,0,0.07222222222222222,197.52777777777777,0)" xlink:href="#aV"/><use transform="matrix(0.07222222222222222,0,0,0.07222222222222222,211.97222222222223,0)" xlink:href="#aG"/><path fill="#8080ff" d="M-1.3 1.8h229.02v1.9H-1.3z"/></g><g id="Q"><use transform="matrix(0.07222222222222222,0,0,0.07222222222222222,0,0)" xlink:href="#as"/><use transform="matrix(0.07222222222222222,0,0,0.07222222222222222,8.594444444444443,0)" xlink:href="#av"/><use transform="matrix(0.07222222222222222,0,0,0.07222222222222222,23.038888888888884,0)" xlink:href="#aq"/><use transform="matrix(0.07222222222222222,0,0,0.07222222222222222,37.48333333333333,0)" xlink:href="#ao"/><use transform="matrix(0.07222222222222222,0,0,0.07222222222222222,51.92777777777777,0)" xlink:href="#au"/></g><g id="R"><use transform="matrix(0.07222222222222222,0,0,0.07222222222222222,0,0)" xlink:href="#ar"/><use transform="matrix(0.07222222222222222,0,0,0.07222222222222222,14.444444444444443,0)" xlink:href="#ap"/><use transform="matrix(0.07222222222222222,0,0,0.07222222222222222,20.15,0)" xlink:href="#aC"/><use transform="matrix(0.07222222222222222,0,0,0.07222222222222222,27.37222222222222,0)" xlink:href="#aV"/><use transform="matrix(0.07222222222222222,0,0,0.07222222222222222,41.81666666666666,0)" xlink:href="#ay"/><use transform="matrix(0.07222222222222222,0,0,0.07222222222222222,56.261111111111106,0)" xlink:href="#aI"/></g><g id="S"><use transform="matrix(0.07222222222222222,0,0,0.07222222222222222,0,0)" xlink:href="#aq"/><use transform="matrix(0.07222222222222222,0,0,0.07222222222222222,14.444444444444443,0)" xlink:href="#ax"/><use transform="matrix(0.07222222222222222,0,0,0.07222222222222222,27.444444444444443,0)" xlink:href="#aC"/><use transform="matrix(0.07222222222222222,0,0,0.07222222222222222,34.666666666666664,0)" xlink:href="#ap"/><use transform="matrix(0.07222222222222222,0,0,0.07222222222222222,40.37222222222222,0)" xlink:href="#aw"/><use transform="matrix(0.07222222222222222,0,0,0.07222222222222222,53.37222222222222,0)" xlink:href="#ap"/><use transform="matrix(0.07222222222222222,0,0,0.07222222222222222,59.077777777777776,0)" xlink:href="#aC"/><use transform="matrix(0.07222222222222222,0,0,0.07222222222222222,66.3,0)" xlink:href="#aM"/></g><g id="T"><use transform="matrix(0.07222222222222222,0,0,0.07222222222222222,0,0)" xlink:href="#ao"/><use transform="matrix(0.07222222222222222,0,0,0.07222222222222222,14.444444444444443,0)" xlink:href="#aq"/><use transform="matrix(0.07222222222222222,0,0,0.07222222222222222,28.888888888888886,0)" xlink:href="#aC"/><use transform="matrix(0.07222222222222222,0,0,0.07222222222222222,36.11111111111111,0)" xlink:href="#aq"/></g><g id="U"><use transform="matrix(0.07222222222222222,0,0,0.07222222222222222,0,0)" xlink:href="#aD"/><use transform="matrix(0.07222222222222222,0,0,0.07222222222222222,7.222222222222221,0)" xlink:href="#aA"/><use transform="matrix(0.07222222222222222,0,0,0.07222222222222222,21.666666666666664,0)" xlink:href="#as"/></g><use transform="matrix(0.07222222222222222,0,0,0.07222222222222222,0,0)" xlink:href="#aq" id="V"/><g id="W"><use transform="matrix(0.07222222222222222,0,0,0.07222222222222222,0,0)" xlink:href="#ay"/><use transform="matrix(0.07222222222222222,0,0,0.07222222222222222,14.444444444444443,0)" xlink:href="#au"/><use transform="matrix(0.07222222222222222,0,0,0.07222222222222222,27.444444444444443,0)" xlink:href="#av"/><use transform="matrix(0.07222222222222222,0,0,0.07222222222222222,41.888888888888886,0)" xlink:href="#as"/></g><g id="X"><use transform="matrix(0.07222222222222222,0,0,0.07222222222222222,0,0)" xlink:href="#aO"/><use transform="matrix(0.07222222222222222,0,0,0.07222222222222222,8.594444444444443,0)" xlink:href="#ap"/><use transform="matrix(0.07222222222222222,0,0,0.07222222222222222,14.299999999999997,0)" xlink:href="#aB"/><use transform="matrix(0.07222222222222222,0,0,0.07222222222222222,28.74444444444444,0)" xlink:href="#ax"/><use transform="matrix(0.07222222222222222,0,0,0.07222222222222222,41.74444444444444,0)" xlink:href="#az"/><use transform="matrix(0.07222222222222222,0,0,0.07222222222222222,47.449999999999996,0)" xlink:href="#ay"/><use transform="matrix(0.07222222222222222,0,0,0.07222222222222222,61.89444444444444,0)" xlink:href="#ao"/><use transform="matrix(0.07222222222222222,0,0,0.07222222222222222,76.33888888888889,0)" xlink:href="#ap"/><use transform="matrix(0.07222222222222222,0,0,0.07222222222222222,82.04444444444442,0)" xlink:href="#aB"/><use transform="matrix(0.07222222222222222,0,0,0.07222222222222222,96.48888888888887,0)" xlink:href="#ar"/></g><g id="Y"><use transform="matrix(0.07222222222222222,0,0,0.07222222222222222,0,0)" xlink:href="#aB"/><use transform="matrix(0.07222222222222222,0,0,0.07222222222222222,14.444444444444443,0)" xlink:href="#ay"/><use transform="matrix(0.07222222222222222,0,0,0.07222222222222222,28.888888888888886,0)" xlink:href="#at"/><use transform="matrix(0.07222222222222222,0,0,0.07222222222222222,50.48333333333333,0)" xlink:href="#aI"/><use transform="matrix(0.07222222222222222,0,0,0.07222222222222222,64.92777777777778,0)" xlink:href="#av"/><use transform="matrix(0.07222222222222222,0,0,0.07222222222222222,79.37222222222222,0)" xlink:href="#as"/></g><g id="Z"><use transform="matrix(0.07222222222222222,0,0,0.07222222222222222,0,0)" xlink:href="#aA"/><use transform="matrix(0.07222222222222222,0,0,0.07222222222222222,14.444444444444443,0)" xlink:href="#aD"/></g><g id="aa"><use transform="matrix(0.07222222222222222,0,0,0.07222222222222222,0,0)" xlink:href="#ap"/><use transform="matrix(0.07222222222222222,0,0,0.07222222222222222,5.705555555555555,0)" xlink:href="#au"/><use transform="matrix(0.07222222222222222,0,0,0.07222222222222222,18.705555555555552,0)" xlink:href="#au"/><use transform="matrix(0.07222222222222222,0,0,0.07222222222222222,31.70555555555555,0)" xlink:href="#ay"/><use transform="matrix(0.07222222222222222,0,0,0.07222222222222222,46.149999999999984,0)" xlink:href="#av"/><use transform="matrix(0.07222222222222222,0,0,0.07222222222222222,60.59444444444443,0)" xlink:href="#au"/></g><g id="ab"><use transform="matrix(0.07222222222222222,0,0,0.07222222222222222,0,0)" xlink:href="#ax"/><use transform="matrix(0.07222222222222222,0,0,0.07222222222222222,12.999999999999998,0)" xlink:href="#as"/><use transform="matrix(0.07222222222222222,0,0,0.07222222222222222,21.59444444444444,0)" xlink:href="#av"/><use transform="matrix(0.07222222222222222,0,0,0.07222222222222222,36.038888888888884,0)" xlink:href="#aq"/><use transform="matrix(0.07222222222222222,0,0,0.07222222222222222,50.48333333333333,0)" xlink:href="#aC"/><use transform="matrix(0.07222222222222222,0,0,0.07222222222222222,57.70555555555555,0)" xlink:href="#av"/><use transform="matrix(0.07222222222222222,0,0,0.07222222222222222,72.14999999999999,0)" xlink:href="#ao"/><use transform="matrix(0.07222222222222222,0,0,0.07222222222222222,86.59444444444443,0)" xlink:href="#aX"/></g><g id="ac"><use transform="matrix(0.07222222222222222,0,0,0.07222222222222222,0,0)" xlink:href="#ax"/><use transform="matrix(0.07222222222222222,0,0,0.07222222222222222,12.999999999999998,0)" xlink:href="#aA"/><use transform="matrix(0.07222222222222222,0,0,0.07222222222222222,27.444444444444443,0)" xlink:href="#at"/><use transform="matrix(0.07222222222222222,0,0,0.07222222222222222,49.038888888888884,0)" xlink:href="#at"/><use transform="matrix(0.07222222222222222,0,0,0.07222222222222222,70.63333333333333,0)" xlink:href="#av"/><use transform="matrix(0.07222222222222222,0,0,0.07222222222222222,85.07777777777777,0)" xlink:href="#aB"/><use transform="matrix(0.07222222222222222,0,0,0.07222222222222222,99.52222222222221,0)" xlink:href="#aC"/><use transform="matrix(0.07222222222222222,0,0,0.07222222222222222,106.74444444444444,0)" xlink:href="#au"/></g><g id="ad"><use transform="matrix(0.07222222222222222,0,0,0.07222222222222222,0,0)" xlink:href="#aG"/><use transform="matrix(0.07222222222222222,0,0,0.07222222222222222,14.444444444444443,0)" xlink:href="#aA"/><use transform="matrix(0.07222222222222222,0,0,0.07222222222222222,28.888888888888886,0)" xlink:href="#au"/><use transform="matrix(0.07222222222222222,0,0,0.07222222222222222,41.888888888888886,0)" xlink:href="#aC"/><use transform="matrix(0.07222222222222222,0,0,0.07222222222222222,49.11111111111111,0)" xlink:href="#av"/><use transform="matrix(0.07222222222222222,0,0,0.07222222222222222,63.55555555555555,0)" xlink:href="#ao"/><use transform="matrix(0.07222222222222222,0,0,0.07222222222222222,77.99999999999999,0)" xlink:href="#aX"/></g><g id="ae"><use transform="matrix(0.07222222222222222,0,0,0.07222222222222222,0,0)" xlink:href="#az"/><use transform="matrix(0.07222222222222222,0,0,0.07222222222222222,5.705555555555555,0)" xlink:href="#ap"/><use transform="matrix(0.07222222222222222,0,0,0.07222222222222222,11.41111111111111,0)" xlink:href="#aB"/><use transform="matrix(0.07222222222222222,0,0,0.07222222222222222,25.855555555555554,0)" xlink:href="#av"/><use transform="matrix(0.07222222222222222,0,0,0.07222222222222222,40.3,0)" xlink:href="#au"/></g><g id="af"><use transform="matrix(0.07222222222222222,0,0,0.07222222222222222,0,0)" xlink:href="#ax"/><use transform="matrix(0.07222222222222222,0,0,0.07222222222222222,12.999999999999998,0)" xlink:href="#aA"/><use transform="matrix(0.07222222222222222,0,0,0.07222222222222222,27.444444444444443,0)" xlink:href="#ao"/><use transform="matrix(0.07222222222222222,0,0,0.07222222222222222,41.888888888888886,0)" xlink:href="#av"/></g><g id="ag"><use transform="matrix(0.07222222222222222,0,0,0.07222222222222222,0,0)" xlink:href="#at"/><use transform="matrix(0.07222222222222222,0,0,0.07222222222222222,21.59444444444444,0)" xlink:href="#aA"/><use transform="matrix(0.07222222222222222,0,0,0.07222222222222222,36.038888888888884,0)" xlink:href="#ao"/><use transform="matrix(0.07222222222222222,0,0,0.07222222222222222,50.48333333333333,0)" xlink:href="#ap"/><use transform="matrix(0.07222222222222222,0,0,0.07222222222222222,56.18888888888888,0)" xlink:href="#aD"/><use transform="matrix(0.07222222222222222,0,0,0.07222222222222222,63.411111111111104,0)" xlink:href="#ap"/><use transform="matrix(0.07222222222222222,0,0,0.07222222222222222,69.11666666666666,0)" xlink:href="#av"/><use transform="matrix(0.07222222222222222,0,0,0.07222222222222222,83.5611111111111,0)" xlink:href="#ao"/><use transform="matrix(0.07222222222222222,0,0,0.07222222222222222,98.00555555555555,0)" xlink:href="#aP"/></g><g id="ah"><use transform="matrix(0.07222222222222222,0,0,0.07222222222222222,0,0)" xlink:href="#av"/><use transform="matrix(0.07222222222222222,0,0,0.07222222222222222,14.444444444444443,0)" xlink:href="#aw"/><use transform="matrix(0.07222222222222222,0,0,0.07222222222222222,27.444444444444443,0)" xlink:href="#av"/><use transform="matrix(0.07222222222222222,0,0,0.07222222222222222,41.888888888888886,0)" xlink:href="#as"/><use transform="matrix(0.07222222222222222,0,0,0.07222222222222222,50.48333333333333,0)" xlink:href="#aM"/></g><g id="ai"><use transform="matrix(0.07222222222222222,0,0,0.07222222222222222,0,0)" xlink:href="#aJ"/><use transform="matrix(0.07222222222222222,0,0,0.07222222222222222,18.705555555555552,0)" xlink:href="#av"/><use transform="matrix(0.07222222222222222,0,0,0.07222222222222222,33.14999999999999,0)" xlink:href="#av"/><use transform="matrix(0.07222222222222222,0,0,0.07222222222222222,47.594444444444434,0)" xlink:href="#aK"/></g><g id="aj"><use transform="matrix(0.07222222222222222,0,0,0.07222222222222222,0,0)" xlink:href="#aq"/><use transform="matrix(0.07222222222222222,0,0,0.07222222222222222,14.444444444444443,0)" xlink:href="#aB"/><use transform="matrix(0.07222222222222222,0,0,0.07222222222222222,28.888888888888886,0)" xlink:href="#ao"/></g><g id="ak"><use transform="matrix(0.07222222222222222,0,0,0.07222222222222222,0,0)" xlink:href="#as"/><use transform="matrix(0.07222222222222222,0,0,0.07222222222222222,8.594444444444443,0)" xlink:href="#av"/><use transform="matrix(0.07222222222222222,0,0,0.07222222222222222,23.038888888888884,0)" xlink:href="#aC"/><use transform="matrix(0.07222222222222222,0,0,0.07222222222222222,30.261111111111106,0)" xlink:href="#ay"/><use transform="matrix(0.07222222222222222,0,0,0.07222222222222222,44.70555555555555,0)" xlink:href="#as"/><use transform="matrix(0.07222222222222222,0,0,0.07222222222222222,53.29999999999999,0)" xlink:href="#aB"/><use transform="matrix(0.07222222222222222,0,0,0.07222222222222222,67.74444444444444,0)" xlink:href="#au"/></g><g id="al"><use transform="matrix(0.07222222222222222,0,0,0.07222222222222222,0,0)" xlink:href="#ap"/><use transform="matrix(0.07222222222222222,0,0,0.07222222222222222,5.705555555555555,0)" xlink:href="#aB"/></g><g id="am"><use transform="matrix(0.07222222222222222,0,0,0.07222222222222222,0,0)" xlink:href="#aY"/><use transform="matrix(0.07222222222222222,0,0,0.07222222222222222,12.999999999999998,0)" xlink:href="#aZ"/><use transform="matrix(0.07222222222222222,0,0,0.07222222222222222,30.333333333333332,0)" xlink:href="#aT"/><use transform="matrix(0.07222222222222222,0,0,0.07222222222222222,50.55555555555555,0)" xlink:href="#aQ"/></g><path fill="#3a414a" d="M24-231v-30h32v30H24zM-9 49c24 4 33-6 33-30v-209h32V24c2 40-23 58-65 49V49" id="bd"/><g id="an"><use transform="matrix(0.07222222222222222,0,0,0.07222222222222222,0,0)" xlink:href="#aA"/><use transform="matrix(0.07222222222222222,0,0,0.07222222222222222,14.444444444444443,0)" xlink:href="#aI"/><use transform="matrix(0.07222222222222222,0,0,0.07222222222222222,28.888888888888886,0)" xlink:href="#bd"/><use transform="matrix(0.07222222222222222,0,0,0.07222222222222222,34.59444444444444,0)" xlink:href="#av"/><use transform="matrix(0.07222222222222222,0,0,0.07222222222222222,49.038888888888884,0)" xlink:href="#ax"/><use transform="matrix(0.07222222222222222,0,0,0.07222222222222222,62.038888888888884,0)" xlink:href="#aC"/></g></defs></g></svg>