<svg xmlns="http://www.w3.org/2000/svg" xmlns:xlink="http://www.w3.org/1999/xlink" xmlns:lucid="lucid" width="1760" height="1360"><g transform="translate(0 0)" lucid:page-tab-id="HWEp-vi-RSFO"><path d="M0 0h1760v1360H0z" fill="#fff"/><path d="M588.96 888.94h300v154h-300z" stroke="#333" stroke-width="2" fill="#fff"/><path d="M588.96 926.54h300m-300 58.1h300" stroke="#333" stroke-width="2" fill="none"/><use xlink:href="#a" transform="matrix(1,0,0,1,596.9607644115014,896.943302176752) translate(94.725 14.6)"/><path d="M1090.03 587.26V494.1" stroke="#333" fill="none"/><path d="M1090.53 587.76h-1v-.5h1z" stroke="#333" stroke-width=".05" fill="#333"/><path d="M1090.03 464.42l14.85 14.85-14.85 15.15-14.85-15.15z" stroke="#333" fill="#333"/><path d="M351.95 155.6H715.4v240H351.96z" stroke="#333" stroke-width="2" fill="#fff"/><path d="M351.95 193.2H715.4m-363.45 79.7H715.4" stroke="#333" stroke-width="2" fill="none"/><use xlink:href="#b" transform="matrix(1,0,0,1,359.95356270654736,163.61040641605797) translate(146 14.6)"/><use xlink:href="#c" transform="matrix(1,0,0,1,363.95356270654736,201.21040641605796) translate(0 24.799999999999997)"/><use xlink:href="#d" transform="matrix(1,0,0,1,363.95356270654736,201.21040641605796) translate(15.5 24.799999999999997)"/><use xlink:href="#c" transform="matrix(1,0,0,1,363.95356270654736,201.21040641605796) translate(0 46.4)"/><use xlink:href="#e" transform="matrix(1,0,0,1,363.95356270654736,201.21040641605796) translate(15.5 46.4)"/><use xlink:href="#c" transform="matrix(1,0,0,1,363.95356270654736,280.910406416058) translate(0 24.69999999999999)"/><use xlink:href="#f" transform="matrix(1,0,0,1,363.95356270654736,280.910406416058) translate(15.5 24.69999999999999)"/><use xlink:href="#c" transform="matrix(1,0,0,1,363.95356270654736,280.910406416058) translate(0 46.29999999999999)"/><use xlink:href="#g" transform="matrix(1,0,0,1,363.95356270654736,280.910406416058) translate(15.5 46.29999999999999)"/><use xlink:href="#c" transform="matrix(1,0,0,1,363.95356270654736,280.910406416058) translate(0 67.89999999999999)"/><use xlink:href="#h" transform="matrix(1,0,0,1,363.95356270654736,280.910406416058) translate(15.5 67.89999999999999)"/><use xlink:href="#c" transform="matrix(1,0,0,1,363.95356270654736,280.910406416058) translate(0 89.5)"/><use xlink:href="#i" transform="matrix(1,0,0,1,363.95356270654736,280.910406416058) translate(15.5 89.5)"/><path d="M415.4 544.76h300v219h-300z" stroke="#333" stroke-width="2" fill="#fff"/><path d="M415.4 582.36h300m-300 58.1h300" stroke="#333" stroke-width="2" fill="none"/><use xlink:href="#j" transform="matrix(1,0,0,1,423.4136955969128,552.7598272831267) translate(110.525 14.6)"/><use xlink:href="#c" transform="matrix(1,0,0,1,427.4136955969128,648.4598272831267) translate(0 24.69999999999999)"/><use xlink:href="#k" transform="matrix(1,0,0,1,427.4136955969128,648.4598272831267) translate(15.5 24.69999999999999)"/><use xlink:href="#c" transform="matrix(1,0,0,1,427.4136955969128,648.4598272831267) translate(0 46.29999999999999)"/><use xlink:href="#l" transform="matrix(1,0,0,1,427.4136955969128,648.4598272831267) translate(15.5 46.29999999999999)"/><use xlink:href="#c" transform="matrix(1,0,0,1,427.4136955969128,648.4598272831267) translate(0 67.89999999999999)"/><use xlink:href="#m" transform="matrix(1,0,0,1,427.4136955969128,648.4598272831267) translate(15.5 67.89999999999999)"/><use xlink:href="#c" transform="matrix(1,0,0,1,427.4136955969128,648.4598272831267) translate(0 89.5)"/><use xlink:href="#n" transform="matrix(1,0,0,1,427.4136955969128,648.4598272831267) translate(15.5 89.5)"/><path d="M225.6 888.94h300v154h-300z" stroke="#333" stroke-width="2" fill="#fff"/><path d="M225.6 926.54h300m-300 58.1h300" stroke="#333" stroke-width="2" fill="none"/><use xlink:href="#o" transform="matrix(1,0,0,1,233.59911984804342,896.943302176752) translate(116.55 14.6)"/><path d="M908.3 100.72h363.46v362H908.3z" stroke="#333" stroke-width="2" fill="#fff"/><path d="M908.3 138.3h363.46M908.3 404.86h363.46" stroke="#333" stroke-width="2" fill="none"/><use xlink:href="#p" transform="matrix(1,0,0,1,916.2973494952985,108.7146981414947) translate(134.075 14.6)"/><use xlink:href="#q" transform="matrix(1,0,0,1,920.2973494952985,146.3146981414947) translate(0 23.997777777777763)"/><use xlink:href="#r" transform="matrix(1,0,0,1,920.2973494952985,146.3146981414947) translate(14.543209876543212 23.997777777777763)"/><use xlink:href="#q" transform="matrix(1,0,0,1,920.2973494952985,146.3146981414947) translate(0 47.304444444444435)"/><use xlink:href="#s" transform="matrix(1,0,0,1,920.2973494952985,146.3146981414947) translate(14.543209876543212 47.304444444444435)"/><use xlink:href="#q" transform="matrix(1,0,0,1,920.2973494952985,146.3146981414947) translate(0 70.6111111111111)"/><use xlink:href="#t" transform="matrix(1,0,0,1,920.2973494952985,146.3146981414947) translate(14.543209876543212 70.6111111111111)"/><use xlink:href="#q" transform="matrix(1,0,0,1,920.2973494952985,146.3146981414947) translate(0 93.91777777777776)"/><use xlink:href="#u" transform="matrix(1,0,0,1,920.2973494952985,146.3146981414947) translate(14.543209876543212 93.91777777777776)"/><use xlink:href="#q" transform="matrix(1,0,0,1,920.2973494952985,146.3146981414947) translate(0 117.22444444444443)"/><use xlink:href="#v" transform="matrix(1,0,0,1,920.2973494952985,146.3146981414947) translate(14.543209876543212 117.22444444444443)"/><use xlink:href="#q" transform="matrix(1,0,0,1,920.2973494952985,146.3146981414947) translate(0 140.5311111111111)"/><use xlink:href="#w" transform="matrix(1,0,0,1,920.2973494952985,146.3146981414947) translate(14.543209876543212 140.5311111111111)"/><use xlink:href="#q" transform="matrix(1,0,0,1,920.2973494952985,146.3146981414947) translate(0 163.83777777777777)"/><use xlink:href="#x" transform="matrix(1,0,0,1,920.2973494952985,146.3146981414947) translate(14.543209876543212 163.83777777777777)"/><use xlink:href="#q" transform="matrix(1,0,0,1,920.2973494952985,146.3146981414947) translate(0 187.14444444444445)"/><use xlink:href="#y" transform="matrix(1,0,0,1,920.2973494952985,146.3146981414947) translate(14.543209876543212 187.14444444444445)"/><use xlink:href="#q" transform="matrix(1,0,0,1,920.2973494952985,146.3146981414947) translate(0 210.45111111111112)"/><use xlink:href="#z" transform="matrix(1,0,0,1,920.2973494952985,146.3146981414947) translate(14.543209876543212 210.45111111111112)"/><use xlink:href="#A" transform="matrix(1,0,0,1,920.2973494952985,146.3146981414947) translate(0 233.7577777777778)"/><use xlink:href="#c" transform="matrix(1,0,0,1,920.2973494952985,412.8413648081614) translate(0 25.1)"/><use xlink:href="#B" transform="matrix(1,0,0,1,920.2973494952985,412.8413648081614) translate(15.5 25.1)"/><path d="M952.32 588.76h300v175h-300z" stroke="#333" stroke-width="2" fill="#fff"/><path d="M952.32 626.36h300m-300 79.7h300" stroke="#333" stroke-width="2" fill="none"/><use xlink:href="#C" transform="matrix(1,0,0,1,960.3224089749592,596.7598272831267) translate(106.125 14.6)"/><use xlink:href="#c" transform="matrix(1,0,0,1,964.3224089749592,634.3598272831267) translate(0 24.799999999999997)"/><use xlink:href="#D" transform="matrix(1,0,0,1,964.3224089749592,634.3598272831267) translate(15.5 24.799999999999997)"/><use xlink:href="#c" transform="matrix(1,0,0,1,964.3224089749592,634.3598272831267) translate(0 46.4)"/><use xlink:href="#E" transform="matrix(1,0,0,1,964.3224089749592,634.3598272831267) translate(15.5 46.4)"/><path d="M792.36 276.1H716.9v-1h75.46zm114.44 0h-75.44v-1h75.44z" stroke="#333" stroke-width=".05" fill="#333"/><path d="M716.93 276.1h-.52v-1h.53z" fill="#333"/><path d="M716.95 276.13h-.56v-1.05h.55zm-.5-1v.95h.45v-.94z" stroke="#333" stroke-width=".05" fill="#333"/><path d="M907.3 276.1h-.52v-1h.52z" fill="#333"/><path d="M907.32 276.13h-.56v-1.05h.56zm-.5-1v.95h.45v-.94z" stroke="#333" stroke-width=".05" fill="#333"/><g><use xlink:href="#F" transform="matrix(1,0,0,1,744.657478107959,250.010406416058) translate(0 14.4)"/></g><g><use xlink:href="#G" transform="matrix(1,0,0,1,861.9834071971734,250.01040641605795) translate(0 14.4)"/></g><g><use xlink:href="#H" transform="matrix(1,0,0,1,792.3555226009229,264.810406416058) translate(0 14.4)"/></g><path d="M952.32 888.94h300v154h-300z" stroke="#333" stroke-width="2" fill="#fff"/><path d="M952.32 926.54h300m-300 58.1h300" stroke="#333" stroke-width="2" fill="none"/><g><use xlink:href="#I" transform="matrix(1,0,0,1,960.3224089749592,896.943302176752) translate(74.85 14.6)"/></g><g><use xlink:href="#c" transform="matrix(1,0,0,1,964.3224089749592,934.543302176752) translate(0 25.1)"/><use xlink:href="#J" transform="matrix(1,0,0,1,964.3224089749592,934.543302176752) translate(15.5 25.1)"/></g><path d="M1315.68 888.94h300v154h-300z" stroke="#333" stroke-width="2" fill="#fff"/><path d="M1315.68 926.54h300m-300 58.1h300" stroke="#333" stroke-width="2" fill="none"/><g><use xlink:href="#K" transform="matrix(1,0,0,1,1323.6840535384172,896.943302176752) translate(103.85 14.6)"/></g><g><use xlink:href="#c" transform="matrix(1,0,0,1,1327.6840535384172,934.543302176752) translate(0 25.1)"/><use xlink:href="#J" transform="matrix(1,0,0,1,1327.6840535384172,934.543302176752) translate(15.5 25.1)"/></g><path d="M738.96 887.44v-49.1a12 12 0 0 1 12-12h339.36a12 12 0 0 0 12-12v-33.2" stroke="#333" fill="none"/><path d="M739.46 887.94h-1v-.5h1z" stroke="#333" stroke-width=".05" fill="#333"/><path d="M1102.32 766.38l4.64 14.26h-9.27z" stroke="#333" fill="#fff"/><path d="M1102.32 887.44V783.67" stroke="#333" fill="none"/><path d="M1102.82 887.94h-1v-.5h1z" stroke="#333" stroke-width=".05" fill="#333"/><path d="M1102.32 768.9l4.64 14.27h-9.27z" stroke="#333" fill="#fff"/><path d="M1465.68 887.44v-49.1a12 12 0 0 0-12-12h-339.36a12 12 0 0 1-12-12v-33.2" stroke="#333" fill="none"/><path d="M1466.18 887.94h-1v-.5h1z" stroke="#333" stroke-width=".05" fill="#333"/><path d="M1102.32 766.38l4.64 14.26h-9.27z" stroke="#333" fill="#fff"/><path d="M375.6 887.44v-50.08a12 12 0 0 1 12-12h702.72a12 12 0 0 0 12-12v-32.22" stroke="#333" fill="none"/><path d="M376.1 887.94h-1v-.5h1z" stroke="#333" stroke-width=".05" fill="#333"/><path d="M1102.32 766.38l4.64 14.26h-9.27z" stroke="#333" fill="#fff"/><path d="M565.9 543.26h-1V481h1zm0-83.88h-1V397.1h1z" stroke="#333" stroke-width=".05" fill="#333"/><path d="M565.9 543.76h-1v-.5h1z" fill="#333"/><path d="M565.94 543.8h-1.05v-.58h1.04zm-1-.53v.47h.95v-.47z" stroke="#333" stroke-width=".05" fill="#333"/><path d="M565.9 397.12h-1v-.5h1z" fill="#333"/><path d="M565.94 397.15h-1.05v-.56l1.04-.02zm-1-.5v.45h.95v-.47z" stroke="#333" stroke-width=".05" fill="#333"/><g><use xlink:href="#L" transform="matrix(1,0,0,1,550.4136955969128,507.332680952345) translate(0 14.4)"/></g><g><use xlink:href="#L" transform="matrix(1,0,0,1,550.4136955969129,410.3363098939022) translate(0 14.4)"/></g><g><use xlink:href="#M" transform="matrix(1,0,0,1,537.4136955969128,459.3851168495923) translate(0 14.4)"/></g><defs><path fill="#333" d="M169-182c-1-43-94-46-97-3 18 66 151 10 154 114 3 95-165 93-204 36-6-8-10-19-12-30l50-8c3 46 112 56 116 5-17-69-150-10-154-114-4-87 153-88 188-35 5 8 8 18 10 28" id="N"/><path fill="#333" d="M85 4C-2 5 27-109 22-190h50c7 57-23 150 33 157 60-5 35-97 40-157h50l1 190h-47c-2-12 1-28-3-38-12 25-28 42-61 42" id="O"/><path fill="#333" d="M135-194c53 0 70 44 70 98 0 56-19 98-73 100-31 1-45-17-59-34 3 33 2 69 2 105H25l-1-265h48c2 10 0 23 3 31 11-24 29-35 60-35zM114-30c33 0 39-31 40-66 0-38-9-64-40-64-56 0-55 130 0 130" id="P"/><path fill="#333" d="M185-48c-13 30-37 53-82 52C43 2 14-33 14-96s30-98 90-98c62 0 83 45 84 108H66c0 31 8 55 39 56 18 0 30-7 34-22zm-45-69c5-46-57-63-70-21-2 6-4 13-4 21h74" id="Q"/><path fill="#333" d="M135-150c-39-12-60 13-60 57V0H25l-1-190h47c2 13-1 29 3 40 6-28 27-53 61-41v41" id="R"/><path fill="#333" d="M147 0H94L2-248h55l64 206c17-72 42-137 63-206h54" id="S"/><path fill="#333" d="M25-224v-37h50v37H25zM25 0v-190h50V0H25" id="T"/><path fill="#333" d="M137-138c1-29-70-34-71-4 15 46 118 7 119 86 1 83-164 76-172 9l43-7c4 19 20 25 44 25 33 8 57-30 24-41C81-84 22-81 20-136c-2-80 154-74 161-7" id="U"/><g id="a"><use transform="matrix(0.05,0,0,0.05,0,0)" xlink:href="#N"/><use transform="matrix(0.05,0,0,0.05,12,0)" xlink:href="#O"/><use transform="matrix(0.05,0,0,0.05,22.950000000000003,0)" xlink:href="#P"/><use transform="matrix(0.05,0,0,0.05,33.900000000000006,0)" xlink:href="#Q"/><use transform="matrix(0.05,0,0,0.05,43.900000000000006,0)" xlink:href="#R"/><use transform="matrix(0.05,0,0,0.05,50.900000000000006,0)" xlink:href="#S"/><use transform="matrix(0.05,0,0,0.05,62.550000000000004,0)" xlink:href="#T"/><use transform="matrix(0.05,0,0,0.05,67.55000000000001,0)" xlink:href="#U"/><use transform="matrix(0.05,0,0,0.05,77.55000000000001,0)" xlink:href="#Q"/><use transform="matrix(0.05,0,0,0.05,87.55000000000001,0)" xlink:href="#R"/></g><path fill="#333" d="M128 0H69L1-190h53L99-40l48-150h52" id="V"/><g id="b"><use transform="matrix(0.05,0,0,0.05,0,0)" xlink:href="#N"/><use transform="matrix(0.05,0,0,0.05,12,0)" xlink:href="#Q"/><use transform="matrix(0.05,0,0,0.05,22,0)" xlink:href="#R"/><use transform="matrix(0.05,0,0,0.05,29,0)" xlink:href="#V"/><use transform="matrix(0.05,0,0,0.05,39,0)" xlink:href="#Q"/><use transform="matrix(0.05,0,0,0.05,49,0)" xlink:href="#R"/></g><path fill="#333" d="M118-107v75H92v-75H18v-26h74v-75h26v75h74v26h-74" id="W"/><use transform="matrix(0.05,0,0,0.05,0,0)" xlink:href="#W" id="c"/><path fill="#333" d="M141-36C126-15 110 5 73 4 37 3 15-17 15-53c-1-64 63-63 125-63 3-35-9-54-41-54-24 1-41 7-42 31l-33-3c5-37 33-52 76-52 45 0 72 20 72 64v82c-1 20 7 32 28 27v20c-31 9-61-2-59-35zM48-53c0 20 12 33 32 33 41-3 63-29 60-74-43 2-92-5-92 41" id="X"/><path fill="#333" d="M59-47c-2 24 18 29 38 22v24C64 9 27 4 27-40v-127H5v-23h24l9-43h21v43h35v23H59v120" id="Y"/><path fill="#333" d="M114-163C36-179 61-72 57 0H25l-1-190h30c1 12-1 29 2 39 6-27 23-49 58-41v29" id="Z"/><path fill="#333" d="M24-231v-30h32v30H24zM24 0v-190h32V0H24" id="aa"/><path fill="#333" d="M115-194c53 0 69 39 70 98 0 66-23 100-70 100C84 3 66-7 56-30L54 0H23l1-261h32v101c10-23 28-34 59-34zm-8 174c40 0 45-34 45-75 0-40-5-75-45-74-42 0-51 32-51 76 0 43 10 73 51 73" id="ab"/><path fill="#333" d="M84 4C-5 8 30-112 23-190h32v120c0 31 7 50 39 49 72-2 45-101 50-169h31l1 190h-30c-1-10 1-25-2-33-11 22-28 36-60 37" id="ac"/><path fill="#333" d="M100-194c63 0 86 42 84 106H49c0 40 14 67 53 68 26 1 43-12 49-29l28 8c-11 28-37 45-77 45C44 4 14-33 15-96c1-61 26-98 85-98zm52 81c6-60-76-77-97-28-3 7-6 17-6 28h103" id="ad"/><path fill="#333" d="M27 0v-27h64v-190l-56 39v-29l58-41h29v221h61V0H27" id="ae"/><path fill="#333" d="M33-154v-36h34v36H33zM33 0v-36h34V0H33" id="af"/><path fill="#333" d="M108 0H70L1-190h34L89-25l56-165h34" id="ag"/><g id="d"><use transform="matrix(0.05,0,0,0.05,0,0)" xlink:href="#X"/><use transform="matrix(0.05,0,0,0.05,10,0)" xlink:href="#Y"/><use transform="matrix(0.05,0,0,0.05,15,0)" xlink:href="#Y"/><use transform="matrix(0.05,0,0,0.05,20,0)" xlink:href="#Z"/><use transform="matrix(0.05,0,0,0.05,25.950000000000003,0)" xlink:href="#aa"/><use transform="matrix(0.05,0,0,0.05,29.899999999999995,0)" xlink:href="#ab"/><use transform="matrix(0.05,0,0,0.05,39.9,0)" xlink:href="#ac"/><use transform="matrix(0.05,0,0,0.05,49.9,0)" xlink:href="#Y"/><use transform="matrix(0.05,0,0,0.05,54.900000000000006,0)" xlink:href="#ad"/><use transform="matrix(0.05,0,0,0.05,64.9,0)" xlink:href="#ae"/><use transform="matrix(0.05,0,0,0.05,74.9,0)" xlink:href="#af"/><use transform="matrix(0.05,0,0,0.05,79.9,0)" xlink:href="#ag"/><use transform="matrix(0.05,0,0,0.05,88.9,0)" xlink:href="#X"/><use transform="matrix(0.05,0,0,0.05,98.9,0)" xlink:href="#Z"/></g><path fill="#333" d="M232-93c-1 65-40 97-104 97C67 4 28-28 28-90v-158h33c8 89-33 224 67 224 102 0 64-133 71-224h33v155" id="ah"/><path fill="#333" d="M135-143c-3-34-86-38-87 0 15 53 115 12 119 90S17 21 10-45l28-5c4 36 97 45 98 0-10-56-113-15-118-90-4-57 82-63 122-42 12 7 21 19 24 35" id="ai"/><path fill="#333" d="M33 0v-248h34V0H33" id="aj"/><path fill="#333" d="M85-194c31 0 48 13 60 33l-1-100h32l1 261h-30c-2-10 0-23-3-31C134-8 116 4 85 4 32 4 16-35 15-94c0-66 23-100 70-100zm9 24c-40 0-46 34-46 75 0 40 6 74 45 74 42 0 51-32 51-76 0-42-9-74-50-73" id="ak"/><g id="e"><use transform="matrix(0.05,0,0,0.05,0,0)" xlink:href="#ah"/><use transform="matrix(0.05,0,0,0.05,12.950000000000001,0)" xlink:href="#ai"/><use transform="matrix(0.05,0,0,0.05,21.950000000000003,0)" xlink:href="#ad"/><use transform="matrix(0.05,0,0,0.05,31.950000000000003,0)" xlink:href="#Z"/><use transform="matrix(0.05,0,0,0.05,37.900000000000006,0)" xlink:href="#aj"/><use transform="matrix(0.05,0,0,0.05,42.900000000000006,0)" xlink:href="#ak"/><use transform="matrix(0.05,0,0,0.05,52.900000000000006,0)" xlink:href="#af"/><use transform="matrix(0.05,0,0,0.05,57.900000000000006,0)" xlink:href="#ag"/><use transform="matrix(0.05,0,0,0.05,66.9,0)" xlink:href="#X"/><use transform="matrix(0.05,0,0,0.05,76.9,0)" xlink:href="#Z"/></g><path fill="#333" d="M177-190C167-65 218 103 67 71c-23-6-38-20-44-43l32-5c15 47 100 32 89-28v-30C133-14 115 1 83 1 29 1 15-40 15-95c0-56 16-97 71-98 29-1 48 16 59 35 1-10 0-23 2-32h30zM94-22c36 0 50-32 50-73 0-42-14-75-50-75-39 0-46 34-46 75s6 73 46 73" id="al"/><path fill="#333" d="M87 75C49 33 22-17 22-94c0-76 28-126 65-167h31c-38 41-64 92-64 168S80 34 118 75H87" id="am"/><path fill="#333" d="M33-261c38 41 65 92 65 168S71 34 33 75H2C39 34 66-17 66-93S39-220 2-261h31" id="an"/><g id="f"><use transform="matrix(0.05,0,0,0.05,0,0)" xlink:href="#al"/><use transform="matrix(0.05,0,0,0.05,10,0)" xlink:href="#ad"/><use transform="matrix(0.05,0,0,0.05,20,0)" xlink:href="#Y"/><use transform="matrix(0.05,0,0,0.05,25,0)" xlink:href="#ah"/><use transform="matrix(0.05,0,0,0.05,37.95,0)" xlink:href="#aa"/><use transform="matrix(0.05,0,0,0.05,41.900000000000006,0)" xlink:href="#ak"/><use transform="matrix(0.05,0,0,0.05,51.900000000000006,0)" xlink:href="#am"/><use transform="matrix(0.05,0,0,0.05,57.85,0)" xlink:href="#an"/><use transform="matrix(0.05,0,0,0.05,63.80000000000001,0)" xlink:href="#af"/><use transform="matrix(0.05,0,0,0.05,68.80000000000001,0)" xlink:href="#ag"/><use transform="matrix(0.05,0,0,0.05,77.80000000000001,0)" xlink:href="#X"/><use transform="matrix(0.05,0,0,0.05,87.80000000000001,0)" xlink:href="#Z"/></g><path fill="#333" d="M96-169c-40 0-48 33-48 73s9 75 48 75c24 0 41-14 43-38l32 2c-6 37-31 61-74 61-59 0-76-41-82-99-10-93 101-131 147-64 4 7 5 14 7 22l-32 3c-4-21-16-35-41-35" id="ao"/><path fill="#333" d="M106-169C34-169 62-67 57 0H25v-261h32l-1 103c12-21 28-36 61-36 89 0 53 116 60 194h-32v-121c2-32-8-49-39-48" id="ap"/><path fill="#333" d="M143 0L79-87 56-68V0H24v-261h32v163l83-92h37l-77 82L181 0h-38" id="aq"/><path fill="#333" d="M30-248c118-7 216 8 213 122C240-48 200 0 122 0H30v-248zM63-27c89 8 146-16 146-99s-60-101-146-95v194" id="ar"/><g id="g"><use transform="matrix(0.05,0,0,0.05,0,0)" xlink:href="#ao"/><use transform="matrix(0.05,0,0,0.05,9,0)" xlink:href="#ap"/><use transform="matrix(0.05,0,0,0.05,19,0)" xlink:href="#ad"/><use transform="matrix(0.05,0,0,0.05,29,0)" xlink:href="#ao"/><use transform="matrix(0.05,0,0,0.05,38,0)" xlink:href="#aq"/><use transform="matrix(0.05,0,0,0.05,47,0)" xlink:href="#ah"/><use transform="matrix(0.05,0,0,0.05,59.95,0)" xlink:href="#aj"/><use transform="matrix(0.05,0,0,0.05,64.95,0)" xlink:href="#ar"/><use transform="matrix(0.05,0,0,0.05,77.9,0)" xlink:href="#am"/><use transform="matrix(0.05,0,0,0.05,83.85000000000001,0)" xlink:href="#an"/><use transform="matrix(0.05,0,0,0.05,89.80000000000001,0)" xlink:href="#af"/><use transform="matrix(0.05,0,0,0.05,94.80000000000001,0)" xlink:href="#ag"/><use transform="matrix(0.05,0,0,0.05,103.80000000000001,0)" xlink:href="#X"/><use transform="matrix(0.05,0,0,0.05,113.80000000000001,0)" xlink:href="#Z"/></g><path fill="#333" d="M117-194c89-4 53 116 60 194h-32v-121c0-31-8-49-39-48C34-167 62-67 57 0H25l-1-190h30c1 10-1 24 2 32 11-22 29-35 61-36" id="as"/><path fill="#333" d="M210-169c-67 3-38 105-44 169h-31v-121c0-29-5-50-35-48C34-165 62-65 56 0H25l-1-190h30c1 10-1 24 2 32 10-44 99-50 107 0 11-21 27-35 58-36 85-2 47 119 55 194h-31v-121c0-29-5-49-35-48" id="at"/><g id="h"><use transform="matrix(0.05,0,0,0.05,0,0)" xlink:href="#ai"/><use transform="matrix(0.05,0,0,0.05,9,0)" xlink:href="#ad"/><use transform="matrix(0.05,0,0,0.05,19,0)" xlink:href="#Y"/><use transform="matrix(0.05,0,0,0.05,24,0)" xlink:href="#ah"/><use transform="matrix(0.05,0,0,0.05,36.95,0)" xlink:href="#ai"/><use transform="matrix(0.05,0,0,0.05,45.95,0)" xlink:href="#ad"/><use transform="matrix(0.05,0,0,0.05,55.95,0)" xlink:href="#Z"/><use transform="matrix(0.05,0,0,0.05,61.900000000000006,0)" xlink:href="#as"/><use transform="matrix(0.05,0,0,0.05,71.9,0)" xlink:href="#X"/><use transform="matrix(0.05,0,0,0.05,81.9,0)" xlink:href="#at"/><use transform="matrix(0.05,0,0,0.05,96.85000000000001,0)" xlink:href="#ad"/><use transform="matrix(0.05,0,0,0.05,106.85000000000001,0)" xlink:href="#am"/><use transform="matrix(0.05,0,0,0.05,112.80000000000001,0)" xlink:href="#an"/><use transform="matrix(0.05,0,0,0.05,118.75,0)" xlink:href="#af"/><use transform="matrix(0.05,0,0,0.05,123.75,0)" xlink:href="#ag"/><use transform="matrix(0.05,0,0,0.05,132.75,0)" xlink:href="#X"/><use transform="matrix(0.05,0,0,0.05,142.75,0)" xlink:href="#Z"/></g><path fill="#333" d="M101-234c-31-9-42 10-38 44h38v23H63V0H32v-167H5v-23h27c-7-52 17-82 69-68v24" id="au"/><path fill="#333" d="M24 0v-261h32V0H24" id="av"/><path fill="#333" d="M127-220V0H93v-220H8v-28h204v28h-85" id="aw"/><path fill="#333" d="M209 0H11v-25l151-195H24v-28h176v25L50-27h159V0" id="ax"/><path fill="#333" d="M100-194c62-1 85 37 85 99 1 63-27 99-86 99S16-35 15-95c0-66 28-99 85-99zM99-20c44 1 53-31 53-75 0-43-8-75-51-75s-53 32-53 75 10 74 51 75" id="ay"/><g id="i"><use transform="matrix(0.05,0,0,0.05,0,0)" xlink:href="#ai"/><use transform="matrix(0.05,0,0,0.05,9,0)" xlink:href="#ad"/><use transform="matrix(0.05,0,0,0.05,19,0)" xlink:href="#Y"/><use transform="matrix(0.05,0,0,0.05,24,0)" xlink:href="#ar"/><use transform="matrix(0.05,0,0,0.05,36.95,0)" xlink:href="#ad"/><use transform="matrix(0.05,0,0,0.05,46.95,0)" xlink:href="#au"/><use transform="matrix(0.05,0,0,0.05,51.95,0)" xlink:href="#X"/><use transform="matrix(0.05,0,0,0.05,61.95,0)" xlink:href="#ac"/><use transform="matrix(0.05,0,0,0.05,71.95,0)" xlink:href="#av"/><use transform="matrix(0.05,0,0,0.05,75.9,0)" xlink:href="#Y"/><use transform="matrix(0.05,0,0,0.05,80.9,0)" xlink:href="#aw"/><use transform="matrix(0.05,0,0,0.05,91.2,0)" xlink:href="#aa"/><use transform="matrix(0.05,0,0,0.05,95.15,0)" xlink:href="#at"/><use transform="matrix(0.05,0,0,0.05,110.10000000000001,0)" xlink:href="#ad"/><use transform="matrix(0.05,0,0,0.05,120.10000000000001,0)" xlink:href="#ax"/><use transform="matrix(0.05,0,0,0.05,131.05,0)" xlink:href="#ay"/><use transform="matrix(0.05,0,0,0.05,141.05,0)" xlink:href="#as"/><use transform="matrix(0.05,0,0,0.05,151.05,0)" xlink:href="#ad"/><use transform="matrix(0.05,0,0,0.05,161.05,0)" xlink:href="#am"/><use transform="matrix(0.05,0,0,0.05,167,0)" xlink:href="#an"/><use transform="matrix(0.05,0,0,0.05,172.95,0)" xlink:href="#af"/><use transform="matrix(0.05,0,0,0.05,177.95,0)" xlink:href="#ag"/><use transform="matrix(0.05,0,0,0.05,186.95,0)" xlink:href="#X"/><use transform="matrix(0.05,0,0,0.05,196.95,0)" xlink:href="#Z"/></g><path fill="#333" d="M199 0l-22-63H83L61 0H9l90-248h61L250 0h-51zm-33-102l-36-108c-10 38-24 72-36 108h72" id="az"/><path fill="#333" d="M190-63c-7 42-38 67-86 67-59 0-84-38-90-98-12-110 154-137 174-36l-49 2c-2-19-15-32-35-32-30 0-35 28-38 64-6 74 65 87 74 30" id="aA"/><g id="j"><use transform="matrix(0.05,0,0,0.05,0,0)" xlink:href="#az"/><use transform="matrix(0.05,0,0,0.05,12.950000000000001,0)" xlink:href="#aA"/><use transform="matrix(0.05,0,0,0.05,22.950000000000003,0)" xlink:href="#aA"/><use transform="matrix(0.05,0,0,0.05,32.95,0)" xlink:href="#Q"/><use transform="matrix(0.05,0,0,0.05,42.95,0)" xlink:href="#U"/><use transform="matrix(0.05,0,0,0.05,52.95,0)" xlink:href="#U"/></g><path fill="#333" d="M205 0l-28-72H64L36 0H1l101-248h38L239 0h-34zm-38-99l-47-123c-12 45-31 82-46 123h93" id="aB"/><g id="k"><use transform="matrix(0.05,0,0,0.05,0,0)" xlink:href="#ap"/><use transform="matrix(0.05,0,0,0.05,10,0)" xlink:href="#X"/><use transform="matrix(0.05,0,0,0.05,20,0)" xlink:href="#ai"/><use transform="matrix(0.05,0,0,0.05,29,0)" xlink:href="#aB"/><use transform="matrix(0.05,0,0,0.05,41,0)" xlink:href="#ao"/><use transform="matrix(0.05,0,0,0.05,50,0)" xlink:href="#ao"/><use transform="matrix(0.05,0,0,0.05,59,0)" xlink:href="#ad"/><use transform="matrix(0.05,0,0,0.05,69,0)" xlink:href="#ai"/><use transform="matrix(0.05,0,0,0.05,78,0)" xlink:href="#ai"/><use transform="matrix(0.05,0,0,0.05,87,0)" xlink:href="#am"/><use transform="matrix(0.05,0,0,0.05,92.95,0)" xlink:href="#an"/><use transform="matrix(0.05,0,0,0.05,98.9,0)" xlink:href="#af"/><use transform="matrix(0.05,0,0,0.05,103.9,0)" xlink:href="#ag"/><use transform="matrix(0.05,0,0,0.05,112.9,0)" xlink:href="#X"/><use transform="matrix(0.05,0,0,0.05,122.9,0)" xlink:href="#Z"/></g><path fill="#333" d="M212-179c-10-28-35-45-73-45-59 0-87 40-87 99 0 60 29 101 89 101 43 0 62-24 78-52l27 14C228-24 195 4 139 4 59 4 22-46 18-125c-6-104 99-153 187-111 19 9 31 26 39 46" id="aC"/><g id="l"><use transform="matrix(0.05,0,0,0.05,0,0)" xlink:href="#ap"/><use transform="matrix(0.05,0,0,0.05,10,0)" xlink:href="#X"/><use transform="matrix(0.05,0,0,0.05,20,0)" xlink:href="#ai"/><use transform="matrix(0.05,0,0,0.05,29,0)" xlink:href="#aB"/><use transform="matrix(0.05,0,0,0.05,41,0)" xlink:href="#ao"/><use transform="matrix(0.05,0,0,0.05,50,0)" xlink:href="#ao"/><use transform="matrix(0.05,0,0,0.05,59,0)" xlink:href="#ad"/><use transform="matrix(0.05,0,0,0.05,69,0)" xlink:href="#ai"/><use transform="matrix(0.05,0,0,0.05,78,0)" xlink:href="#ai"/><use transform="matrix(0.05,0,0,0.05,87,0)" xlink:href="#aw"/><use transform="matrix(0.05,0,0,0.05,95.95,0)" xlink:href="#ay"/><use transform="matrix(0.05,0,0,0.05,105.95,0)" xlink:href="#aC"/><use transform="matrix(0.05,0,0,0.05,118.9,0)" xlink:href="#ay"/><use transform="matrix(0.05,0,0,0.05,128.9,0)" xlink:href="#ac"/><use transform="matrix(0.05,0,0,0.05,138.9,0)" xlink:href="#Z"/><use transform="matrix(0.05,0,0,0.05,144.85,0)" xlink:href="#ai"/><use transform="matrix(0.05,0,0,0.05,153.85,0)" xlink:href="#ad"/><use transform="matrix(0.05,0,0,0.05,163.85,0)" xlink:href="#am"/><use transform="matrix(0.05,0,0,0.05,169.79999999999998,0)" xlink:href="#an"/><use transform="matrix(0.05,0,0,0.05,175.74999999999997,0)" xlink:href="#af"/><use transform="matrix(0.05,0,0,0.05,180.74999999999997,0)" xlink:href="#ag"/><use transform="matrix(0.05,0,0,0.05,189.74999999999997,0)" xlink:href="#X"/><use transform="matrix(0.05,0,0,0.05,199.74999999999997,0)" xlink:href="#Z"/></g><path fill="#333" d="M185-189c-5-48-123-54-124 2 14 75 158 14 163 119 3 78-121 87-175 55-17-10-28-26-33-46l33-7c5 56 141 63 141-1 0-78-155-14-162-118-5-82 145-84 179-34 5 7 8 16 11 25" id="aD"/><g id="m"><use transform="matrix(0.05,0,0,0.05,0,0)" xlink:href="#ao"/><use transform="matrix(0.05,0,0,0.05,9,0)" xlink:href="#ap"/><use transform="matrix(0.05,0,0,0.05,19,0)" xlink:href="#ad"/><use transform="matrix(0.05,0,0,0.05,29,0)" xlink:href="#ao"/><use transform="matrix(0.05,0,0,0.05,38,0)" xlink:href="#aq"/><use transform="matrix(0.05,0,0,0.05,47,0)" xlink:href="#ah"/><use transform="matrix(0.05,0,0,0.05,59.95,0)" xlink:href="#ai"/><use transform="matrix(0.05,0,0,0.05,68.95,0)" xlink:href="#ad"/><use transform="matrix(0.05,0,0,0.05,78.95,0)" xlink:href="#Z"/><use transform="matrix(0.05,0,0,0.05,84.9,0)" xlink:href="#aD"/><use transform="matrix(0.05,0,0,0.05,96.9,0)" xlink:href="#Y"/><use transform="matrix(0.05,0,0,0.05,101.9,0)" xlink:href="#X"/><use transform="matrix(0.05,0,0,0.05,111.9,0)" xlink:href="#Y"/><use transform="matrix(0.05,0,0,0.05,116.9,0)" xlink:href="#ac"/><use transform="matrix(0.05,0,0,0.05,126.9,0)" xlink:href="#ai"/><use transform="matrix(0.05,0,0,0.05,135.9,0)" xlink:href="#am"/><use transform="matrix(0.05,0,0,0.05,141.85,0)" xlink:href="#an"/><use transform="matrix(0.05,0,0,0.05,147.79999999999998,0)" xlink:href="#af"/><use transform="matrix(0.05,0,0,0.05,152.79999999999998,0)" xlink:href="#ag"/><use transform="matrix(0.05,0,0,0.05,161.79999999999998,0)" xlink:href="#X"/><use transform="matrix(0.05,0,0,0.05,171.79999999999998,0)" xlink:href="#Z"/></g><path fill="#333" d="M30 0v-248h33v221h125V0H30" id="aE"/><g id="n"><use transform="matrix(0.05,0,0,0.05,0,0)" xlink:href="#ao"/><use transform="matrix(0.05,0,0,0.05,9,0)" xlink:href="#ap"/><use transform="matrix(0.05,0,0,0.05,19,0)" xlink:href="#ad"/><use transform="matrix(0.05,0,0,0.05,29,0)" xlink:href="#ao"/><use transform="matrix(0.05,0,0,0.05,38,0)" xlink:href="#aq"/><use transform="matrix(0.05,0,0,0.05,47,0)" xlink:href="#aj"/><use transform="matrix(0.05,0,0,0.05,52,0)" xlink:href="#au"/><use transform="matrix(0.05,0,0,0.05,57,0)" xlink:href="#aE"/><use transform="matrix(0.05,0,0,0.05,67,0)" xlink:href="#ay"/><use transform="matrix(0.05,0,0,0.05,77,0)" xlink:href="#al"/><use transform="matrix(0.05,0,0,0.05,87,0)" xlink:href="#ad"/><use transform="matrix(0.05,0,0,0.05,97,0)" xlink:href="#ak"/><use transform="matrix(0.05,0,0,0.05,107,0)" xlink:href="#aj"/><use transform="matrix(0.05,0,0,0.05,112,0)" xlink:href="#as"/><use transform="matrix(0.05,0,0,0.05,122,0)" xlink:href="#am"/><use transform="matrix(0.05,0,0,0.05,127.95,0)" xlink:href="#an"/><use transform="matrix(0.05,0,0,0.05,133.9,0)" xlink:href="#af"/><use transform="matrix(0.05,0,0,0.05,138.9,0)" xlink:href="#ag"/><use transform="matrix(0.05,0,0,0.05,147.9,0)" xlink:href="#X"/><use transform="matrix(0.05,0,0,0.05,157.9,0)" xlink:href="#Z"/></g><path fill="#333" d="M67-125c0 54 23 88 75 88 28 0 53-7 68-21v-34h-60v-39h108v91C232-14 192 4 140 4 58 4 20-42 15-125 8-236 126-280 215-234c19 10 29 26 37 47l-47 15c-11-23-29-39-63-39-53 1-75 33-75 86" id="aF"/><path fill="#333" d="M115-3C79 11 28 4 28-45v-112H4v-33h27l15-45h31v45h36v33H77v99c-1 23 16 31 38 25v30" id="aG"/><g id="o"><use transform="matrix(0.05,0,0,0.05,0,0)" xlink:href="#aF"/><use transform="matrix(0.05,0,0,0.05,14,0)" xlink:href="#O"/><use transform="matrix(0.05,0,0,0.05,24.950000000000003,0)" xlink:href="#Q"/><use transform="matrix(0.05,0,0,0.05,34.95,0)" xlink:href="#U"/><use transform="matrix(0.05,0,0,0.05,44.95,0)" xlink:href="#aG"/></g><path fill="#333" d="M24-248c120-7 223 5 221 122C244-46 201 0 124 0H24v-248zM76-40c74 7 117-18 117-86 0-67-45-88-117-82v168" id="aH"/><path fill="#333" d="M133-34C117-15 103 5 69 4 32 3 11-16 11-54c-1-60 55-63 116-61 1-26-3-47-28-47-18 1-26 9-28 27l-52-2c7-38 36-58 82-57s74 22 75 68l1 82c-1 14 12 18 25 15v27c-30 8-71 5-69-32zm-48 3c29 0 43-24 42-57-32 0-66-3-65 30 0 17 8 27 23 27" id="aI"/><path fill="#333" d="M135-194c52 0 70 43 70 98 0 56-19 99-73 100-30 1-46-15-58-35L72 0H24l1-261h50v104c11-23 29-37 60-37zM114-30c31 0 40-27 40-66 0-37-7-63-39-63s-41 28-41 65c0 36 8 64 40 64" id="aJ"/><g id="p"><use transform="matrix(0.05,0,0,0.05,0,0)" xlink:href="#aH"/><use transform="matrix(0.05,0,0,0.05,12.950000000000001,0)" xlink:href="#aI"/><use transform="matrix(0.05,0,0,0.05,22.950000000000003,0)" xlink:href="#aG"/><use transform="matrix(0.05,0,0,0.05,28.900000000000002,0)" xlink:href="#aI"/><use transform="matrix(0.05,0,0,0.05,38.900000000000006,0)" xlink:href="#aJ"/><use transform="matrix(0.05,0,0,0.05,49.85000000000001,0)" xlink:href="#aI"/><use transform="matrix(0.05,0,0,0.05,59.85,0)" xlink:href="#U"/><use transform="matrix(0.05,0,0,0.05,69.85000000000001,0)" xlink:href="#Q"/></g><path d="M118-107v75H92v-75H18v-26h74v-75h26v75h74v26h-74" id="aK"/><use transform="matrix(0.04691358024691358,0,0,0.04691358024691358,0,0)" xlink:href="#aK" id="q"/><path d="M96-169c-40 0-48 33-48 73s9 75 48 75c24 0 41-14 43-38l32 2c-6 37-31 61-74 61-59 0-76-41-82-99-10-93 101-131 147-64 4 7 5 14 7 22l-32 3c-4-21-16-35-41-35" id="aL"/><path d="M24-231v-30h32v30H24zM24 0v-190h32V0H24" id="aM"/><path d="M85-194c31 0 48 13 60 33l-1-100h32l1 261h-30c-2-10 0-23-3-31C134-8 116 4 85 4 32 4 16-35 15-94c0-66 23-100 70-100zm9 24c-40 0-46 34-46 75 0 40 6 74 45 74 42 0 51-32 51-76 0-42-9-74-50-73" id="aN"/><path d="M33-154v-36h34v36H33zM33 0v-36h34V0H33" id="aO"/><path d="M108 0H70L1-190h34L89-25l56-165h34" id="aP"/><path d="M141-36C126-15 110 5 73 4 37 3 15-17 15-53c-1-64 63-63 125-63 3-35-9-54-41-54-24 1-41 7-42 31l-33-3c5-37 33-52 76-52 45 0 72 20 72 64v82c-1 20 7 32 28 27v20c-31 9-61-2-59-35zM48-53c0 20 12 33 32 33 41-3 63-29 60-74-43 2-92-5-92 41" id="aQ"/><path d="M114-163C36-179 61-72 57 0H25l-1-190h30c1 12-1 29 2 39 6-27 23-49 58-41v29" id="aR"/><g id="r"><use transform="matrix(0.04691358024691358,0,0,0.04691358024691358,0,0)" xlink:href="#aL"/><use transform="matrix(0.04691358024691358,0,0,0.04691358024691358,8.444444444444445,0)" xlink:href="#aM"/><use transform="matrix(0.04691358024691358,0,0,0.04691358024691358,12.150617283950618,0)" xlink:href="#aN"/><use transform="matrix(0.04691358024691358,0,0,0.04691358024691358,21.533333333333335,0)" xlink:href="#aO"/><use transform="matrix(0.04691358024691358,0,0,0.04691358024691358,26.224691358024693,0)" xlink:href="#aP"/><use transform="matrix(0.04691358024691358,0,0,0.04691358024691358,34.669135802469135,0)" xlink:href="#aQ"/><use transform="matrix(0.04691358024691358,0,0,0.04691358024691358,44.05185185185185,0)" xlink:href="#aR"/></g><path d="M100-194c62-1 85 37 85 99 1 63-27 99-86 99S16-35 15-95c0-66 28-99 85-99zM99-20c44 1 53-31 53-75 0-43-8-75-51-75s-53 32-53 75 10 74 51 75" id="aS"/><path d="M115-194c55 1 70 41 70 98S169 2 115 4C84 4 66-9 55-30l1 105H24l-1-265h31l2 30c10-21 28-34 59-34zm-8 174c40 0 45-34 45-75s-6-73-45-74c-42 0-51 32-51 76 0 43 10 73 51 73" id="aT"/><path d="M59-47c-2 24 18 29 38 22v24C64 9 27 4 27-40v-127H5v-23h24l9-43h21v43h35v23H59v120" id="aU"/><g id="s"><use transform="matrix(0.04691358024691358,0,0,0.04691358024691358,0,0)" xlink:href="#aS"/><use transform="matrix(0.04691358024691358,0,0,0.04691358024691358,9.382716049382717,0)" xlink:href="#aT"/><use transform="matrix(0.04691358024691358,0,0,0.04691358024691358,18.765432098765434,0)" xlink:href="#aU"/><use transform="matrix(0.04691358024691358,0,0,0.04691358024691358,23.45679012345679,0)" xlink:href="#aO"/><use transform="matrix(0.04691358024691358,0,0,0.04691358024691358,28.14814814814815,0)" xlink:href="#aP"/><use transform="matrix(0.04691358024691358,0,0,0.04691358024691358,36.592592592592595,0)" xlink:href="#aQ"/><use transform="matrix(0.04691358024691358,0,0,0.04691358024691358,45.97530864197531,0)" xlink:href="#aR"/></g><path d="M84 4C-5 8 30-112 23-190h32v120c0 31 7 50 39 49 72-2 45-101 50-169h31l1 190h-30c-1-10 1-25-2-33-11 22-28 36-60 37" id="aV"/><path d="M135-143c-3-34-86-38-87 0 15 53 115 12 119 90S17 21 10-45l28-5c4 36 97 45 98 0-10-56-113-15-118-90-4-57 82-63 122-42 12 7 21 19 24 35" id="aW"/><path d="M100-194c63 0 86 42 84 106H49c0 40 14 67 53 68 26 1 43-12 49-29l28 8c-11 28-37 45-77 45C44 4 14-33 15-96c1-61 26-98 85-98zm52 81c6-60-76-77-97-28-3 7-6 17-6 28h103" id="aX"/><g id="t"><use transform="matrix(0.04691358024691358,0,0,0.04691358024691358,0,0)" xlink:href="#aL"/><use transform="matrix(0.04691358024691358,0,0,0.04691358024691358,8.444444444444445,0)" xlink:href="#aS"/><use transform="matrix(0.04691358024691358,0,0,0.04691358024691358,17.82716049382716,0)" xlink:href="#aV"/><use transform="matrix(0.04691358024691358,0,0,0.04691358024691358,27.209876543209877,0)" xlink:href="#aR"/><use transform="matrix(0.04691358024691358,0,0,0.04691358024691358,32.7925925925926,0)" xlink:href="#aW"/><use transform="matrix(0.04691358024691358,0,0,0.04691358024691358,41.23703703703704,0)" xlink:href="#aX"/><use transform="matrix(0.04691358024691358,0,0,0.04691358024691358,50.619753086419756,0)" xlink:href="#aP"/><use transform="matrix(0.04691358024691358,0,0,0.04691358024691358,59.0641975308642,0)" xlink:href="#aX"/><use transform="matrix(0.04691358024691358,0,0,0.04691358024691358,68.44691358024691,0)" xlink:href="#aR"/><use transform="matrix(0.04691358024691358,0,0,0.04691358024691358,74.02962962962962,0)" xlink:href="#aW"/><use transform="matrix(0.04691358024691358,0,0,0.04691358024691358,82.47407407407407,0)" xlink:href="#aO"/><use transform="matrix(0.04691358024691358,0,0,0.04691358024691358,87.16543209876542,0)" xlink:href="#aP"/><use transform="matrix(0.04691358024691358,0,0,0.04691358024691358,95.60987654320986,0)" xlink:href="#aQ"/><use transform="matrix(0.04691358024691358,0,0,0.04691358024691358,104.99259259259257,0)" xlink:href="#aR"/></g><path d="M101-234c-31-9-42 10-38 44h38v23H63V0H32v-167H5v-23h27c-7-52 17-82 69-68v24" id="aY"/><g id="u"><use transform="matrix(0.04691358024691358,0,0,0.04691358024691358,0,0)" xlink:href="#aY"/><use transform="matrix(0.04691358024691358,0,0,0.04691358024691358,4.691358024691358,0)" xlink:href="#aM"/><use transform="matrix(0.04691358024691358,0,0,0.04691358024691358,8.397530864197531,0)" xlink:href="#aN"/><use transform="matrix(0.04691358024691358,0,0,0.04691358024691358,17.78024691358025,0)" xlink:href="#aO"/><use transform="matrix(0.04691358024691358,0,0,0.04691358024691358,22.471604938271607,0)" xlink:href="#aP"/><use transform="matrix(0.04691358024691358,0,0,0.04691358024691358,30.91604938271605,0)" xlink:href="#aQ"/><use transform="matrix(0.04691358024691358,0,0,0.04691358024691358,40.29876543209877,0)" xlink:href="#aR"/></g><path d="M24 0v-261h32V0H24" id="aZ"/><path d="M117-194c89-4 53 116 60 194h-32v-121c0-31-8-49-39-48C34-167 62-67 57 0H25l-1-190h30c1 10-1 24 2 32 11-22 29-35 61-36" id="ba"/><path d="M210-169c-67 3-38 105-44 169h-31v-121c0-29-5-50-35-48C34-165 62-65 56 0H25l-1-190h30c1 10-1 24 2 32 10-44 99-50 107 0 11-21 27-35 58-36 85-2 47 119 55 194h-31v-121c0-29-5-49-35-48" id="bb"/><g id="v"><use transform="matrix(0.04691358024691358,0,0,0.04691358024691358,0,0)" xlink:href="#aY"/><use transform="matrix(0.04691358024691358,0,0,0.04691358024691358,4.691358024691358,0)" xlink:href="#aM"/><use transform="matrix(0.04691358024691358,0,0,0.04691358024691358,8.397530864197531,0)" xlink:href="#aZ"/><use transform="matrix(0.04691358024691358,0,0,0.04691358024691358,12.103703703703705,0)" xlink:href="#aX"/><use transform="matrix(0.04691358024691358,0,0,0.04691358024691358,21.486419753086423,0)" xlink:href="#ba"/><use transform="matrix(0.04691358024691358,0,0,0.04691358024691358,30.86913580246914,0)" xlink:href="#aQ"/><use transform="matrix(0.04691358024691358,0,0,0.04691358024691358,40.25185185185185,0)" xlink:href="#bb"/><use transform="matrix(0.04691358024691358,0,0,0.04691358024691358,54.279012345679014,0)" xlink:href="#aX"/><use transform="matrix(0.04691358024691358,0,0,0.04691358024691358,63.66172839506173,0)" xlink:href="#aO"/><use transform="matrix(0.04691358024691358,0,0,0.04691358024691358,68.35308641975308,0)" xlink:href="#aP"/><use transform="matrix(0.04691358024691358,0,0,0.04691358024691358,76.79753086419753,0)" xlink:href="#aQ"/><use transform="matrix(0.04691358024691358,0,0,0.04691358024691358,86.18024691358025,0)" xlink:href="#aR"/></g><path d="M143 0L79-87 56-68V0H24v-261h32v163l83-92h37l-77 82L181 0h-38" id="bc"/><g id="w"><use transform="matrix(0.04691358024691358,0,0,0.04691358024691358,0,0)" xlink:href="#bc"/><use transform="matrix(0.04691358024691358,0,0,0.04691358024691358,8.444444444444445,0)" xlink:href="#aM"/><use transform="matrix(0.04691358024691358,0,0,0.04691358024691358,12.150617283950618,0)" xlink:href="#ba"/><use transform="matrix(0.04691358024691358,0,0,0.04691358024691358,21.533333333333335,0)" xlink:href="#aN"/><use transform="matrix(0.04691358024691358,0,0,0.04691358024691358,30.91604938271605,0)" xlink:href="#aO"/><use transform="matrix(0.04691358024691358,0,0,0.04691358024691358,35.607407407407415,0)" xlink:href="#aP"/><use transform="matrix(0.04691358024691358,0,0,0.04691358024691358,44.05185185185186,0)" xlink:href="#aQ"/><use transform="matrix(0.04691358024691358,0,0,0.04691358024691358,53.43456790123457,0)" xlink:href="#aR"/></g><g id="x"><use transform="matrix(0.04691358024691358,0,0,0.04691358024691358,0,0)" xlink:href="#aL"/><use transform="matrix(0.04691358024691358,0,0,0.04691358024691358,8.444444444444445,0)" xlink:href="#aS"/><use transform="matrix(0.04691358024691358,0,0,0.04691358024691358,17.82716049382716,0)" xlink:href="#ba"/><use transform="matrix(0.04691358024691358,0,0,0.04691358024691358,27.209876543209877,0)" xlink:href="#aU"/><use transform="matrix(0.04691358024691358,0,0,0.04691358024691358,31.901234567901238,0)" xlink:href="#aX"/><use transform="matrix(0.04691358024691358,0,0,0.04691358024691358,41.283950617283956,0)" xlink:href="#ba"/><use transform="matrix(0.04691358024691358,0,0,0.04691358024691358,50.66666666666667,0)" xlink:href="#aU"/><use transform="matrix(0.04691358024691358,0,0,0.04691358024691358,55.358024691358025,0)" xlink:href="#aW"/><use transform="matrix(0.04691358024691358,0,0,0.04691358024691358,63.802469135802475,0)" xlink:href="#aO"/><use transform="matrix(0.04691358024691358,0,0,0.04691358024691358,68.49382716049384,0)" xlink:href="#aP"/><use transform="matrix(0.04691358024691358,0,0,0.04691358024691358,76.93827160493828,0)" xlink:href="#aQ"/><use transform="matrix(0.04691358024691358,0,0,0.04691358024691358,86.320987654321,0)" xlink:href="#aR"/></g><path d="M115-194c53 0 69 39 70 98 0 66-23 100-70 100C84 3 66-7 56-30L54 0H23l1-261h32v101c10-23 28-34 59-34zm-8 174c40 0 45-34 45-75 0-40-5-75-45-74-42 0-51 32-51 76 0 43 10 73 51 73" id="bd"/><path d="M177-190C167-65 218 103 67 71c-23-6-38-20-44-43l32-5c15 47 100 32 89-28v-30C133-14 115 1 83 1 29 1 15-40 15-95c0-56 16-97 71-98 29-1 48 16 59 35 1-10 0-23 2-32h30zM94-22c36 0 50-32 50-73 0-42-14-75-50-75-39 0-46 34-46 75s6 73 46 73" id="be"/><g id="y"><use transform="matrix(0.04691358024691358,0,0,0.04691358024691358,0,0)" xlink:href="#aN"/><use transform="matrix(0.04691358024691358,0,0,0.04691358024691358,9.382716049382717,0)" xlink:href="#aX"/><use transform="matrix(0.04691358024691358,0,0,0.04691358024691358,18.765432098765434,0)" xlink:href="#bd"/><use transform="matrix(0.04691358024691358,0,0,0.04691358024691358,28.14814814814815,0)" xlink:href="#aV"/><use transform="matrix(0.04691358024691358,0,0,0.04691358024691358,37.53086419753087,0)" xlink:href="#be"/><use transform="matrix(0.04691358024691358,0,0,0.04691358024691358,46.91358024691358,0)" xlink:href="#aO"/><use transform="matrix(0.04691358024691358,0,0,0.04691358024691358,51.604938271604944,0)" xlink:href="#aP"/><use transform="matrix(0.04691358024691358,0,0,0.04691358024691358,60.04938271604939,0)" xlink:href="#aQ"/><use transform="matrix(0.04691358024691358,0,0,0.04691358024691358,69.4320987654321,0)" xlink:href="#aR"/></g><path d="M127-220V0H93v-220H8v-28h204v28h-85" id="bf"/><path d="M106-169C34-169 62-67 57 0H25v-261h32l-1 103c12-21 28-36 61-36 89 0 53 116 60 194h-32v-121c2-32-8-49-39-48" id="bg"/><g id="z"><use transform="matrix(0.04691358024691358,0,0,0.04691358024691358,0,0)" xlink:href="#aW"/><use transform="matrix(0.04691358024691358,0,0,0.04691358024691358,8.444444444444445,0)" xlink:href="#aU"/><use transform="matrix(0.04691358024691358,0,0,0.04691358024691358,13.135802469135804,0)" xlink:href="#aV"/><use transform="matrix(0.04691358024691358,0,0,0.04691358024691358,22.51851851851852,0)" xlink:href="#aN"/><use transform="matrix(0.04691358024691358,0,0,0.04691358024691358,31.901234567901238,0)" xlink:href="#aX"/><use transform="matrix(0.04691358024691358,0,0,0.04691358024691358,41.28395061728395,0)" xlink:href="#ba"/><use transform="matrix(0.04691358024691358,0,0,0.04691358024691358,50.66666666666666,0)" xlink:href="#aU"/><use transform="matrix(0.04691358024691358,0,0,0.04691358024691358,55.358024691358025,0)" xlink:href="#bf"/><use transform="matrix(0.04691358024691358,0,0,0.04691358024691358,63.75555555555556,0)" xlink:href="#aX"/><use transform="matrix(0.04691358024691358,0,0,0.04691358024691358,73.13827160493828,0)" xlink:href="#aQ"/><use transform="matrix(0.04691358024691358,0,0,0.04691358024691358,82.520987654321,0)" xlink:href="#aL"/><use transform="matrix(0.04691358024691358,0,0,0.04691358024691358,90.96543209876545,0)" xlink:href="#bg"/><use transform="matrix(0.04691358024691358,0,0,0.04691358024691358,100.34814814814817,0)" xlink:href="#aX"/><use transform="matrix(0.04691358024691358,0,0,0.04691358024691358,109.73086419753089,0)" xlink:href="#aR"/><use transform="matrix(0.04691358024691358,0,0,0.04691358024691358,115.3135802469136,0)" xlink:href="#aO"/><use transform="matrix(0.04691358024691358,0,0,0.04691358024691358,120.00493827160494,0)" xlink:href="#aP"/><use transform="matrix(0.04691358024691358,0,0,0.04691358024691358,128.4493827160494,0)" xlink:href="#aQ"/><use transform="matrix(0.04691358024691358,0,0,0.04691358024691358,137.8320987654321,0)" xlink:href="#aR"/></g><g id="B"><use transform="matrix(0.05,0,0,0.05,0,0)" xlink:href="#ak"/><use transform="matrix(0.05,0,0,0.05,10,0)" xlink:href="#ad"/><use transform="matrix(0.05,0,0,0.05,20,0)" xlink:href="#ab"/><use transform="matrix(0.05,0,0,0.05,30,0)" xlink:href="#ac"/><use transform="matrix(0.05,0,0,0.05,40,0)" xlink:href="#al"/><use transform="matrix(0.05,0,0,0.05,50,0)" xlink:href="#am"/><use transform="matrix(0.05,0,0,0.05,55.95,0)" xlink:href="#an"/><use transform="matrix(0.05,0,0,0.05,61.900000000000006,0)" xlink:href="#af"/><use transform="matrix(0.05,0,0,0.05,66.9,0)" xlink:href="#ag"/><use transform="matrix(0.05,0,0,0.05,75.9,0)" xlink:href="#X"/><use transform="matrix(0.05,0,0,0.05,85.9,0)" xlink:href="#Z"/></g><path fill="#333" d="M110-194c64 0 96 36 96 99 0 64-35 99-97 99-61 0-95-36-95-99 0-62 34-99 96-99zm-1 164c35 0 45-28 45-65 0-40-10-65-43-65-34 0-45 26-45 65 0 36 10 65 43 65" id="bh"/><path fill="#333" d="M135-194c87-1 58 113 63 194h-50c-7-57 23-157-34-157-59 0-34 97-39 157H25l-1-190h47c2 12-1 28 3 38 12-26 28-41 61-42" id="bi"/><g id="C"><use transform="matrix(0.05,0,0,0.05,0,0)" xlink:href="#az"/><use transform="matrix(0.05,0,0,0.05,12.950000000000001,0)" xlink:href="#aA"/><use transform="matrix(0.05,0,0,0.05,22.950000000000003,0)" xlink:href="#aA"/><use transform="matrix(0.05,0,0,0.05,32.95,0)" xlink:href="#bh"/><use transform="matrix(0.05,0,0,0.05,43.900000000000006,0)" xlink:href="#O"/><use transform="matrix(0.05,0,0,0.05,54.85,0)" xlink:href="#bi"/><use transform="matrix(0.05,0,0,0.05,65.80000000000001,0)" xlink:href="#aG"/></g><g id="D"><use transform="matrix(0.05,0,0,0.05,0,0)" xlink:href="#ac"/><use transform="matrix(0.05,0,0,0.05,10,0)" xlink:href="#aa"/><use transform="matrix(0.05,0,0,0.05,13.949999999999998,0)" xlink:href="#ak"/><use transform="matrix(0.05,0,0,0.05,23.95,0)" xlink:href="#af"/><use transform="matrix(0.05,0,0,0.05,28.950000000000003,0)" xlink:href="#ag"/><use transform="matrix(0.05,0,0,0.05,37.95,0)" xlink:href="#X"/><use transform="matrix(0.05,0,0,0.05,47.95,0)" xlink:href="#Z"/></g><g id="E"><use transform="matrix(0.05,0,0,0.05,0,0)" xlink:href="#ac"/><use transform="matrix(0.05,0,0,0.05,10,0)" xlink:href="#ai"/><use transform="matrix(0.05,0,0,0.05,19,0)" xlink:href="#ad"/><use transform="matrix(0.05,0,0,0.05,29,0)" xlink:href="#Z"/><use transform="matrix(0.05,0,0,0.05,34.95,0)" xlink:href="#aB"/><use transform="matrix(0.05,0,0,0.05,46.95,0)" xlink:href="#ao"/><use transform="matrix(0.05,0,0,0.05,55.95,0)" xlink:href="#ao"/><use transform="matrix(0.05,0,0,0.05,64.95,0)" xlink:href="#ad"/><use transform="matrix(0.05,0,0,0.05,74.95,0)" xlink:href="#ai"/><use transform="matrix(0.05,0,0,0.05,83.95,0)" xlink:href="#ai"/><use transform="matrix(0.05,0,0,0.05,92.95,0)" xlink:href="#af"/><use transform="matrix(0.05,0,0,0.05,97.95,0)" xlink:href="#ag"/><use transform="matrix(0.05,0,0,0.05,106.95,0)" xlink:href="#X"/><use transform="matrix(0.05,0,0,0.05,116.95,0)" xlink:href="#Z"/></g><use transform="matrix(0.05,0,0,0.05,0,0)" xlink:href="#ae" id="F"/><path fill="#333" d="M33 0v-38h34V0H33" id="bj"/><path fill="#333" d="M80-196l47-18 7 23-49 13 32 44-20 13-27-46-27 45-21-12 33-44-49-13 8-23 47 19-2-53h23" id="bk"/><g id="G"><use transform="matrix(0.05,0,0,0.05,0,0)" xlink:href="#ae"/><use transform="matrix(0.05,0,0,0.05,10,0)" xlink:href="#bj"/><use transform="matrix(0.05,0,0,0.05,15,0)" xlink:href="#bj"/><use transform="matrix(0.05,0,0,0.05,20,0)" xlink:href="#bk"/></g><g id="H"><use transform="matrix(0.05,0,0,0.05,0,0)" xlink:href="#ap"/><use transform="matrix(0.05,0,0,0.05,10,0)" xlink:href="#X"/><use transform="matrix(0.05,0,0,0.05,20,0)" xlink:href="#ag"/><use transform="matrix(0.05,0,0,0.05,29,0)" xlink:href="#ad"/></g><path fill="#333" d="M88-194c31-1 46 15 58 34l-1-101h50l1 261h-48c-2-10 0-23-3-31C134-8 116 4 84 4 32 4 16-41 15-95c0-56 19-97 73-99zm17 164c33 0 40-30 41-66 1-37-9-64-41-64s-38 30-39 65c0 43 13 65 39 65" id="bl"/><path fill="#333" d="M136-208V0H84v-208H4v-40h212v40h-80" id="bm"/><path fill="#333" d="M114-157C55-157 80-60 75 0H25v-261h50l-1 109c12-26 28-41 61-42 86-1 58 113 63 194h-50c-7-57 23-157-34-157" id="bn"/><g id="I"><use transform="matrix(0.05,0,0,0.05,0,0)" xlink:href="#N"/><use transform="matrix(0.05,0,0,0.05,12,0)" xlink:href="#aG"/><use transform="matrix(0.05,0,0,0.05,17.95,0)" xlink:href="#O"/><use transform="matrix(0.05,0,0,0.05,28.899999999999995,0)" xlink:href="#bl"/><use transform="matrix(0.05,0,0,0.05,39.85,0)" xlink:href="#Q"/><use transform="matrix(0.05,0,0,0.05,49.85,0)" xlink:href="#bi"/><use transform="matrix(0.05,0,0,0.05,60.800000000000004,0)" xlink:href="#aG"/><use transform="matrix(0.05,0,0,0.05,66.75,0)" xlink:href="#bm"/><use transform="matrix(0.05,0,0,0.05,76.35000000000001,0)" xlink:href="#Q"/><use transform="matrix(0.05,0,0,0.05,86.35000000000001,0)" xlink:href="#aI"/><use transform="matrix(0.05,0,0,0.05,96.35000000000001,0)" xlink:href="#aA"/><use transform="matrix(0.05,0,0,0.05,106.35000000000001,0)" xlink:href="#bn"/><use transform="matrix(0.05,0,0,0.05,117.30000000000001,0)" xlink:href="#Q"/><use transform="matrix(0.05,0,0,0.05,127.30000000000001,0)" xlink:href="#R"/></g><g id="J"><use transform="matrix(0.05,0,0,0.05,0,0)" xlink:href="#ao"/><use transform="matrix(0.05,0,0,0.05,9,0)" xlink:href="#aa"/><use transform="matrix(0.05,0,0,0.05,12.949999999999998,0)" xlink:href="#ak"/><use transform="matrix(0.05,0,0,0.05,22.95,0)" xlink:href="#af"/><use transform="matrix(0.05,0,0,0.05,27.950000000000003,0)" xlink:href="#ag"/><use transform="matrix(0.05,0,0,0.05,36.95,0)" xlink:href="#X"/><use transform="matrix(0.05,0,0,0.05,46.95,0)" xlink:href="#Z"/></g><path fill="#333" d="M275 0h-61l-44-196L126 0H64L0-248h53L97-49l45-199h58l43 199 44-199h52" id="bo"/><g id="K"><use transform="matrix(0.05,0,0,0.05,0,0)" xlink:href="#bo"/><use transform="matrix(0.05,0,0,0.05,16.3,0)" xlink:href="#aI"/><use transform="matrix(0.05,0,0,0.05,26.3,0)" xlink:href="#aA"/><use transform="matrix(0.05,0,0,0.05,36.3,0)" xlink:href="#aA"/><use transform="matrix(0.05,0,0,0.05,46.3,0)" xlink:href="#Q"/><use transform="matrix(0.05,0,0,0.05,56.29999999999999,0)" xlink:href="#U"/><use transform="matrix(0.05,0,0,0.05,66.3,0)" xlink:href="#U"/></g><use transform="matrix(0.05,0,0,0.05,0,0)" xlink:href="#bk" id="L"/><g id="M"><use transform="matrix(0.05,0,0,0.05,0,0)" xlink:href="#ao"/><use transform="matrix(0.05,0,0,0.05,9,0)" xlink:href="#ap"/><use transform="matrix(0.05,0,0,0.05,19,0)" xlink:href="#ad"/><use transform="matrix(0.05,0,0,0.05,29,0)" xlink:href="#ao"/><use transform="matrix(0.05,0,0,0.05,38,0)" xlink:href="#aq"/><use transform="matrix(0.05,0,0,0.05,47,0)" xlink:href="#ai"/></g></defs></g></svg>
