<svg xmlns="http://www.w3.org/2000/svg" xmlns:xlink="http://www.w3.org/1999/xlink" xmlns:lucid="lucid" width="473" height="1360"><g transform="translate(0 0)" lucid:page-tab-id="HWEp-vi-RSFO"><path d="M0 0h1760v1360H0z" fill="#fff"/><path d="M10 0h456v1350H10z" stroke="#333" stroke-width="2" fill="#fff"/><path d="M10 67.2h456M10 986.37h456" stroke="#333" stroke-width="2" fill="none"/><use xlink:href="#a" transform="matrix(1,0,0,1,18,8) translate(85.18518518518516 34.53333333333333)"/><use xlink:href="#b" transform="matrix(1,0,0,1,18,8) translate(212.8296296296296 34.53333333333333)"/><use xlink:href="#c" transform="matrix(1,0,0,1,22,75.20000000000002) translate(0 23.463541666666686)"/><use xlink:href="#d" transform="matrix(1,0,0,1,22,75.20000000000002) translate(0 45.685763888888914)"/><use xlink:href="#e" transform="matrix(1,0,0,1,22,75.20000000000002) translate(0 61.685763888888914)"/><use xlink:href="#f" transform="matrix(1,0,0,1,22,75.20000000000002) translate(0 77.68576388888891)"/><use xlink:href="#g" transform="matrix(1,0,0,1,22,75.20000000000002) translate(0 93.68576388888891)"/><use xlink:href="#h" transform="matrix(1,0,0,1,22,75.20000000000002) translate(0 109.68576388888891)"/><use xlink:href="#i" transform="matrix(1,0,0,1,22,75.20000000000002) translate(0 125.68576388888891)"/><use xlink:href="#j" transform="matrix(1,0,0,1,22,75.20000000000002) translate(0 141.6857638888889)"/><use xlink:href="#k" transform="matrix(1,0,0,1,22,75.20000000000002) translate(0 157.6857638888889)"/><use xlink:href="#l" transform="matrix(1,0,0,1,22,75.20000000000002) translate(0 173.6857638888889)"/><use xlink:href="#m" transform="matrix(1,0,0,1,22,75.20000000000002) translate(0 189.6857638888889)"/><use xlink:href="#n" transform="matrix(1,0,0,1,22,75.20000000000002) translate(0 205.6857638888889)"/><use xlink:href="#o" transform="matrix(1,0,0,1,22,75.20000000000002) translate(0 221.6857638888889)"/><use xlink:href="#p" transform="matrix(1,0,0,1,22,75.20000000000002) translate(0 237.6857638888889)"/><use xlink:href="#q" transform="matrix(1,0,0,1,22,75.20000000000002) translate(0 253.6857638888889)"/><use xlink:href="#r" transform="matrix(1,0,0,1,22,75.20000000000002) translate(0 269.6857638888889)"/><use xlink:href="#s" transform="matrix(1,0,0,1,22,75.20000000000002) translate(0 285.6857638888889)"/><use xlink:href="#t" transform="matrix(1,0,0,1,22,75.20000000000002) translate(0 301.6857638888889)"/><use xlink:href="#u" transform="matrix(1,0,0,1,22,75.20000000000002) translate(0 317.6857638888889)"/><use xlink:href="#v" transform="matrix(1,0,0,1,22,75.20000000000002) translate(0 333.6857638888889)"/><use xlink:href="#w" transform="matrix(1,0,0,1,22,75.20000000000002) translate(0 349.6857638888889)"/><use xlink:href="#x" transform="matrix(1,0,0,1,22,75.20000000000002) translate(0 365.6857638888889)"/><use xlink:href="#y" transform="matrix(1,0,0,1,22,75.20000000000002) translate(0 381.6857638888889)"/><use xlink:href="#n" transform="matrix(1,0,0,1,22,75.20000000000002) translate(0 397.6857638888889)"/><use xlink:href="#z" transform="matrix(1,0,0,1,22,75.20000000000002) translate(0 413.6857638888889)"/><use xlink:href="#A" transform="matrix(1,0,0,1,22,75.20000000000002) translate(0 429.6857638888889)"/><use xlink:href="#B" transform="matrix(1,0,0,1,22,75.20000000000002) translate(0 445.6857638888889)"/><use xlink:href="#C" transform="matrix(1,0,0,1,22,75.20000000000002) translate(0 461.6857638888889)"/><use xlink:href="#D" transform="matrix(1,0,0,1,22,75.20000000000002) translate(0 477.6857638888889)"/><use xlink:href="#E" transform="matrix(1,0,0,1,22,75.20000000000002) translate(0 493.6857638888889)"/><use xlink:href="#F" transform="matrix(1,0,0,1,22,75.20000000000002) translate(0 515.9079861111111)"/><use xlink:href="#G" transform="matrix(1,0,0,1,22,75.20000000000002) translate(0 538.1302083333333)"/><use xlink:href="#H" transform="matrix(1,0,0,1,22,75.20000000000002) translate(0 554.1302083333333)"/><use xlink:href="#I" transform="matrix(1,0,0,1,22,75.20000000000002) translate(0 570.1302083333333)"/><use xlink:href="#x" transform="matrix(1,0,0,1,22,75.20000000000002) translate(0 586.1302083333333)"/><use xlink:href="#J" transform="matrix(1,0,0,1,22,75.20000000000002) translate(0 602.1302083333333)"/><use xlink:href="#K" transform="matrix(1,0,0,1,22,75.20000000000002) translate(0 618.1302083333333)"/><use xlink:href="#L" transform="matrix(1,0,0,1,22,75.20000000000002) translate(0 634.1302083333333)"/><use xlink:href="#M" transform="matrix(1,0,0,1,22,75.20000000000002) translate(0 650.1302083333333)"/><use xlink:href="#N" transform="matrix(1,0,0,1,22,75.20000000000002) translate(0 666.1302083333333)"/><use xlink:href="#O" transform="matrix(1,0,0,1,22,75.20000000000002) translate(0 682.1302083333333)"/><use xlink:href="#P" transform="matrix(1,0,0,1,22,75.20000000000002) translate(0 698.1302083333333)"/><use xlink:href="#Q" transform="matrix(1,0,0,1,22,75.20000000000002) translate(0 714.1302083333333)"/><use xlink:href="#R" transform="matrix(1,0,0,1,22,75.20000000000002) translate(0 730.1302083333333)"/><use xlink:href="#S" transform="matrix(1,0,0,1,22,75.20000000000002) translate(0 746.1302083333333)"/><use xlink:href="#T" transform="matrix(1,0,0,1,22,75.20000000000002) translate(0 762.1302083333333)"/><use xlink:href="#U" transform="matrix(1,0,0,1,22,75.20000000000002) translate(0 778.1302083333333)"/><use xlink:href="#V" transform="matrix(1,0,0,1,22,75.20000000000002) translate(0 794.1302083333333)"/><use xlink:href="#W" transform="matrix(1,0,0,1,22,75.20000000000002) translate(0 810.1302083333333)"/><use xlink:href="#X" transform="matrix(1,0,0,1,22,75.20000000000002) translate(0 826.1302083333333)"/><use xlink:href="#Y" transform="matrix(1,0,0,1,22,75.20000000000002) translate(0 842.1302083333333)"/><use xlink:href="#Z" transform="matrix(1,0,0,1,22,75.20000000000002) translate(0 858.1302083333333)"/><use xlink:href="#s" transform="matrix(1,0,0,1,22,75.20000000000002) translate(0 874.1302083333333)"/><use xlink:href="#aa" transform="matrix(1,0,0,1,22,75.20000000000002) translate(0 890.1302083333333)"/><g><use xlink:href="#ab" transform="matrix(1,0,0,1,22,994.3666666666667) translate(0 23.06354166666665)"/><use xlink:href="#ac" transform="matrix(1,0,0,1,22,994.3666666666667) translate(0 45.28576388888888)"/><use xlink:href="#ad" transform="matrix(1,0,0,1,22,994.3666666666667) translate(0 67.50798611111111)"/><use xlink:href="#ae" transform="matrix(1,0,0,1,22,994.3666666666667) translate(0 89.73020833333332)"/><use xlink:href="#af" transform="matrix(1,0,0,1,22,994.3666666666667) translate(0 111.95243055555555)"/><use xlink:href="#ag" transform="matrix(1,0,0,1,22,994.3666666666667) translate(0 134.1746527777778)"/><use xlink:href="#ah" transform="matrix(1,0,0,1,22,994.3666666666667) translate(0 158.53333333333333)"/><use xlink:href="#ai" transform="matrix(1,0,0,1,22,994.3666666666667) translate(0 180.93333333333334)"/><use xlink:href="#aj" transform="matrix(1,0,0,1,22,994.3666666666667) translate(108.01 180.93333333333334)"/><use xlink:href="#ak" transform="matrix(1,0,0,1,22,994.3666666666667) translate(0 201.196875)"/><use xlink:href="#al" transform="matrix(1,0,0,1,22,994.3666666666667) translate(0 223.41909722222223)"/><use xlink:href="#am" transform="matrix(1,0,0,1,22,994.3666666666667) translate(0 245.64131944444446)"/><use xlink:href="#an" transform="matrix(1,0,0,1,22,994.3666666666667) translate(0 267.8635416666667)"/><use xlink:href="#ao" transform="matrix(1,0,0,1,22,994.3666666666667) translate(0 290.0857638888889)"/><use xlink:href="#ap" transform="matrix(1,0,0,1,22,994.3666666666667) translate(0 312.3079861111111)"/><use xlink:href="#aq" transform="matrix(1,0,0,1,22,994.3666666666667) translate(0 334.53020833333335)"/></g><defs><path fill="#1f2328" d="M63-220v92h138v28H63V0H30v-248h175v28H63" id="ar"/><path fill="#1f2328" d="M24-231v-30h32v30H24zM24 0v-190h32V0H24" id="as"/><path fill="#1f2328" d="M24 0v-261h32V0H24" id="at"/><path fill="#1f2328" d="M100-194c63 0 86 42 84 106H49c0 40 14 67 53 68 26 1 43-12 49-29l28 8c-11 28-37 45-77 45C44 4 14-33 15-96c1-61 26-98 85-98zm52 81c6-60-76-77-97-28-3 7-6 17-6 28h103" id="au"/><path fill="#1f2328" d="M85-194c31 0 48 13 60 33l-1-100h32l1 261h-30c-2-10 0-23-3-31C134-8 116 4 85 4 32 4 16-35 15-94c0-66 23-100 70-100zm9 24c-40 0-46 34-46 75 0 40 6 74 45 74 42 0 51-32 51-76 0-42-9-74-50-73" id="av"/><g id="a"><use transform="matrix(0.11851851851851854,0,0,0.11851851851851854,0,0)" xlink:href="#ar"/><use transform="matrix(0.11851851851851854,0,0,0.11851851851851854,25.95555555555556,0)" xlink:href="#as"/><use transform="matrix(0.11851851851851854,0,0,0.11851851851851854,35.31851851851852,0)" xlink:href="#at"/><use transform="matrix(0.11851851851851854,0,0,0.11851851851851854,44.681481481481484,0)" xlink:href="#au"/><use transform="matrix(0.11851851851851854,0,0,0.11851851851851854,68.3851851851852,0)" xlink:href="#au"/><use transform="matrix(0.11851851851851854,0,0,0.11851851851851854,92.0888888888889,0)" xlink:href="#av"/></g><path fill="#1f2328" d="M185-189c-5-48-123-54-124 2 14 75 158 14 163 119 3 78-121 87-175 55-17-10-28-26-33-46l33-7c5 56 141 63 141-1 0-78-155-14-162-118-5-82 145-84 179-34 5 7 8 16 11 25" id="aw"/><path fill="#1f2328" d="M114-163C36-179 61-72 57 0H25l-1-190h30c1 12-1 29 2 39 6-27 23-49 58-41v29" id="ax"/><path fill="#1f2328" d="M108 0H70L1-190h34L89-25l56-165h34" id="ay"/><path fill="#1f2328" d="M96-169c-40 0-48 33-48 73s9 75 48 75c24 0 41-14 43-38l32 2c-6 37-31 61-74 61-59 0-76-41-82-99-10-93 101-131 147-64 4 7 5 14 7 22l-32 3c-4-21-16-35-41-35" id="az"/><g id="b"><use transform="matrix(0.11851851851851854,0,0,0.11851851851851854,0,0)" xlink:href="#aw"/><use transform="matrix(0.11851851851851854,0,0,0.11851851851851854,28.44444444444445,0)" xlink:href="#au"/><use transform="matrix(0.11851851851851854,0,0,0.11851851851851854,52.14814814814815,0)" xlink:href="#ax"/><use transform="matrix(0.11851851851851854,0,0,0.11851851851851854,66.25185185185185,0)" xlink:href="#ay"/><use transform="matrix(0.11851851851851854,0,0,0.11851851851851854,87.5851851851852,0)" xlink:href="#as"/><use transform="matrix(0.11851851851851854,0,0,0.11851851851851854,96.94814814814816,0)" xlink:href="#az"/><use transform="matrix(0.11851851851851854,0,0,0.11851851851851854,118.2814814814815,0)" xlink:href="#au"/></g><path fill="#1f2328" d="M528 20c-247 0-343-132-343-381v-721h180v686c-4 177 45 284 224 277 194-8 279-136 279-336v-627h181c3 360-6 732 6 1082H885c-4-54-7-126-8-185h-3C809-64 714 20 528 20" id="aA"/><path fill="#1f2328" d="M873-819c-18-114-119-146-250-146-163 0-245 50-245 151 0 151 170 148 294 185 182 54 388 94 388 320 0 240-189 325-439 329-245 4-410-69-454-268l159-31c24 133 136 168 295 165 144-2 270-31 270-171 0-164-195-160-331-202-167-52-350-87-350-299 0-218 173-315 413-313 220 2 373 77 412 260" id="aB"/><path fill="#1f2328" d="M617-1102c355 0 481 238 477 599H322c5 222 84 388 301 388 144 0 244-59 284-166l158 45C1002-72 854 20 623 20c-342 0-490-220-490-568 0-346 151-554 484-554zm291 461c-18-192-90-328-289-328-194 0-287 128-295 328h584" id="aC"/><path fill="#1f2328" d="M839-1102c70 0 148 7 206 17v167c-112-18-268-36-363 15-129 69-208 203-208 395V0H294c-10-367 32-789-52-1082h171c21 75 41 161 48 250h5c67-152 152-270 373-270" id="aD"/><path fill="#1f2328" d="M745-142h380V0H143v-142h422v-798H246v-142h499v940zM545-1292v-192h200v192H545" id="aE"/><path fill="#1f2328" d="M865-914c-3-187-2-380-2-570h180v1261c0 76 1 155 6 223H877c-8-49-9-116-10-174h-5C801-44 708 26 530 26c-135 0-234-46-297-139s-95-232-95-419c0-377 131-566 392-566 176 0 271 63 335 184zm-286-51c-222 0-255 197-255 427 0 229 31 425 253 425 237 0 286-195 286-441 0-238-52-411-284-411" id="aF"/><g id="c"><use transform="matrix(0.0078125,0,0,0.0078125,0,0)" xlink:href="#aA"/><use transform="matrix(0.0078125,0,0,0.0078125,9.6015625,0)" xlink:href="#aB"/><use transform="matrix(0.0078125,0,0,0.0078125,19.203125,0)" xlink:href="#aC"/><use transform="matrix(0.0078125,0,0,0.0078125,28.8046875,0)" xlink:href="#aD"/><use transform="matrix(0.0078125,0,0,0.0078125,38.40625,0)" xlink:href="#aE"/><use transform="matrix(0.0078125,0,0,0.0078125,48.0078125,0)" xlink:href="#aF"/></g><g id="d"><use transform="matrix(0.0078125,0,0,0.0078125,0,0)" xlink:href="#aA"/><use transform="matrix(0.0078125,0,0,0.0078125,9.6015625,0)" xlink:href="#aE"/><use transform="matrix(0.0078125,0,0,0.0078125,19.203125,0)" xlink:href="#aF"/></g><path fill="#1f2328" d="M530 26c-303-6-392-228-392-558 0-187 33-329 98-424s162-142 293-142c178 0 273 69 334 184 1-56 3-122 12-169h175c-6 88-6 180-6 282V425H863c1-202-4-411 4-607h-2C805-59 713 29 530 26zm47-139c234 0 286-193 286-441 0-238-55-411-284-411-223 0-255 198-255 427 0 227 33 425 253 425" id="aG"/><path fill="#1f2328" d="M168 279c222 39 310-114 368-290L66-1082h192c120 299 249 590 362 896 115-301 235-597 351-896h190L705 0c-65 164-130 320-275 396-67 36-177 35-262 18V279" id="aH"/><g id="e"><use transform="matrix(0.0078125,0,0,0.0078125,0,0)" xlink:href="#aG"/><use transform="matrix(0.0078125,0,0,0.0078125,9.6015625,0)" xlink:href="#aA"/><use transform="matrix(0.0078125,0,0,0.0078125,19.203125,0)" xlink:href="#aC"/><use transform="matrix(0.0078125,0,0,0.0078125,28.8046875,0)" xlink:href="#aD"/><use transform="matrix(0.0078125,0,0,0.0078125,38.40625,0)" xlink:href="#aH"/></g><path fill="#1f2328" d="M698-1104c312 3 392 244 392 558 0 315-82 566-392 566-169 0-277-65-331-184h-5c8 188 2 394 4 589H185V-858c0-76-1-156-6-224h175c6 52 9 120 10 178h4c58-122 150-202 330-200zm-49 991c225 0 255-203 255-433 0-225-32-419-253-419-236 0-285 192-285 441 0 237 53 411 283 411" id="aI"/><path fill="#1f2328" d="M615-1102c343 0 484 203 482 560-1 347-147 562-488 562-336 0-475-219-479-562-4-349 156-560 485-560zm-8 989c240 0 301-180 301-429 0-245-55-427-290-427-236 0-299 181-299 427 0 243 61 429 288 429" id="aJ"/><g id="f"><use transform="matrix(0.0078125,0,0,0.0078125,0,0)" xlink:href="#aI"/><use transform="matrix(0.0078125,0,0,0.0078125,9.6015625,0)" xlink:href="#aF"/><use transform="matrix(0.0078125,0,0,0.0078125,19.203125,0)" xlink:href="#aJ"/></g><path fill="#1f2328" d="M1018 0H814c-67-224-138-444-200-673C552-442 476-224 407 0H204L21-1082h178c43 310 105 601 126 933 54-225 128-425 193-638h193c63 212 134 415 185 638 22-336 90-622 136-933h176" id="aK"/><g id="g"><use transform="matrix(0.0078125,0,0,0.0078125,0,0)" xlink:href="#aD"/><use transform="matrix(0.0078125,0,0,0.0078125,9.6015625,0)" xlink:href="#aJ"/><use transform="matrix(0.0078125,0,0,0.0078125,19.203125,0)" xlink:href="#aK"/></g><path fill="#1f2328" d="M706-1102c241 0 344 136 343 381V0H868v-695c1-168-57-273-220-268-190 6-283 138-283 336V0H185c-3-360 6-732-6-1082h170c4 54 7 126 8 185h3c63-121 164-204 346-205" id="aL"/><path fill="#1f2328" d="M1000-272c3 95 12 159 101 161 21 0 41-3 59-7V-6c-44 10-86 16-139 16-141 2-191-84-197-217h-6C748-76 648 20 446 20c-207 0-318-120-318-322 0-266 194-348 454-354l236-4c12-191-40-305-222-305-140 0-220 47-232 172l-188-17c33-204 181-292 423-292 255 0 401 118 401 364v466zm-683-27c0 109 63 184 175 182 166-3 259-96 306-217 24-65 20-120 20-200-232 7-501-28-501 235" id="aM"/><path fill="#1f2328" d="M904-1102c199 0 220 177 220 381V0H956v-686c-3-114 0-215-60-264-70-33-125-4-158 71-26 56-39 140-39 252V0H531v-686c-3-114-1-215-61-264-78-41-136 24-157 84-24 69-39 159-39 259V0H105c-3-360 6-732-6-1082h149c6 50 3 123 8 175 36-100 83-195 216-195 135 0 166 79 196 196 42-105 93-196 236-196" id="aN"/><g id="h"><use transform="matrix(0.0078125,0,0,0.0078125,0,0)" xlink:href="#aA"/><use transform="matrix(0.0078125,0,0,0.0078125,9.6015625,0)" xlink:href="#aB"/><use transform="matrix(0.0078125,0,0,0.0078125,19.203125,0)" xlink:href="#aC"/><use transform="matrix(0.0078125,0,0,0.0078125,28.8046875,0)" xlink:href="#aD"/><use transform="matrix(0.0078125,0,0,0.0078125,38.40625,0)" xlink:href="#aL"/><use transform="matrix(0.0078125,0,0,0.0078125,48.0078125,0)" xlink:href="#aM"/><use transform="matrix(0.0078125,0,0,0.0078125,57.609375,0)" xlink:href="#aN"/><use transform="matrix(0.0078125,0,0,0.0078125,67.2109375,0)" xlink:href="#aC"/></g><path fill="#1f2328" d="M631 20c-350 0-501-215-501-562 0-355 162-560 502-560 250 0 399 118 446 323l-192 14c-23-124-109-196-262-196-242 0-305 171-305 415 1 245 61 427 304 427 151 0 248-77 267-215l190 12C1039-107 883 20 631 20" id="aO"/><g id="i"><use transform="matrix(0.0078125,0,0,0.0078125,0,0)" xlink:href="#aO"/><use transform="matrix(0.0078125,0,0,0.0078125,9.6015625,0)" xlink:href="#aE"/><use transform="matrix(0.0078125,0,0,0.0078125,19.203125,0)" xlink:href="#aF"/></g><path fill="#1f2328" d="M682 16c-209 0-323-80-324-285v-671H190v-142h170l58-282h120v282h432v142H538v652c2 114 60 155 182 155 106 0 209-16 297-34v137C921-4 806 16 682 16" id="aP"/><g id="j"><use transform="matrix(0.0078125,0,0,0.0078125,0,0)" xlink:href="#aJ"/><use transform="matrix(0.0078125,0,0,0.0078125,9.6015625,0)" xlink:href="#aI"/><use transform="matrix(0.0078125,0,0,0.0078125,19.203125,0)" xlink:href="#aP"/></g><path fill="#1f2328" d="M715 0H502L69-1082h202c94 253 197 500 285 758 19 57 36 126 52 183 96-335 234-626 350-941h201" id="aQ"/><g id="k"><use transform="matrix(0.0078125,0,0,0.0078125,0,0)" xlink:href="#aO"/><use transform="matrix(0.0078125,0,0,0.0078125,9.6015625,0)" xlink:href="#aJ"/><use transform="matrix(0.0078125,0,0,0.0078125,19.203125,0)" xlink:href="#aA"/><use transform="matrix(0.0078125,0,0,0.0078125,28.8046875,0)" xlink:href="#aD"/><use transform="matrix(0.0078125,0,0,0.0078125,38.40625,0)" xlink:href="#aB"/><use transform="matrix(0.0078125,0,0,0.0078125,48.0078125,0)" xlink:href="#aC"/><use transform="matrix(0.0078125,0,0,0.0078125,57.609375,0)" xlink:href="#aB"/><use transform="matrix(0.0078125,0,0,0.0078125,67.2109375,0)" xlink:href="#aC"/><use transform="matrix(0.0078125,0,0,0.0078125,76.8125,0)" xlink:href="#aD"/><use transform="matrix(0.0078125,0,0,0.0078125,86.4140625,0)" xlink:href="#aQ"/><use transform="matrix(0.0078125,0,0,0.0078125,96.015625,0)" xlink:href="#aC"/><use transform="matrix(0.0078125,0,0,0.0078125,105.6171875,0)" xlink:href="#aD"/><use transform="matrix(0.0078125,0,0,0.0078125,115.21875,0)" xlink:href="#aB"/></g><path fill="#1f2328" d="M839-1335c-182-6-269 67-259 253h491v142H580V0H400v-940H138v-142h262c-15-293 132-408 418-402 94 2 200 7 281 21v145c-75-10-177-14-260-17" id="aR"/><g id="l"><use transform="matrix(0.0078125,0,0,0.0078125,0,0)" xlink:href="#aR"/><use transform="matrix(0.0078125,0,0,0.0078125,9.6015625,0)" xlink:href="#aE"/><use transform="matrix(0.0078125,0,0,0.0078125,19.203125,0)" xlink:href="#aF"/></g><path fill="#1f2328" d="M736-142h380V0H134v-142h422v-1200H267v-142h469v1342" id="aS"/><g id="m"><use transform="matrix(0.0078125,0,0,0.0078125,0,0)" xlink:href="#aR"/><use transform="matrix(0.0078125,0,0,0.0078125,9.6015625,0)" xlink:href="#aE"/><use transform="matrix(0.0078125,0,0,0.0078125,19.203125,0)" xlink:href="#aS"/><use transform="matrix(0.0078125,0,0,0.0078125,28.8046875,0)" xlink:href="#aC"/><use transform="matrix(0.0078125,0,0,0.0078125,38.40625,0)" xlink:href="#aL"/><use transform="matrix(0.0078125,0,0,0.0078125,48.0078125,0)" xlink:href="#aM"/><use transform="matrix(0.0078125,0,0,0.0078125,57.609375,0)" xlink:href="#aN"/><use transform="matrix(0.0078125,0,0,0.0078125,67.2109375,0)" xlink:href="#aC"/></g><path fill="#1f2328" d="M914 0L548-499l-132 98V0H236v-1484h180v927l475-525h211L663-617 1125 0H914" id="aT"/><g id="n"><use transform="matrix(0.0078125,0,0,0.0078125,0,0)" xlink:href="#aT"/><use transform="matrix(0.0078125,0,0,0.0078125,9.6015625,0)" xlink:href="#aE"/><use transform="matrix(0.0078125,0,0,0.0078125,19.203125,0)" xlink:href="#aL"/><use transform="matrix(0.0078125,0,0,0.0078125,28.8046875,0)" xlink:href="#aF"/></g><g id="o"><use transform="matrix(0.0078125,0,0,0.0078125,0,0)" xlink:href="#aO"/><use transform="matrix(0.0078125,0,0,0.0078125,9.6015625,0)" xlink:href="#aJ"/><use transform="matrix(0.0078125,0,0,0.0078125,19.203125,0)" xlink:href="#aL"/><use transform="matrix(0.0078125,0,0,0.0078125,28.8046875,0)" xlink:href="#aP"/><use transform="matrix(0.0078125,0,0,0.0078125,38.40625,0)" xlink:href="#aC"/><use transform="matrix(0.0078125,0,0,0.0078125,48.0078125,0)" xlink:href="#aL"/><use transform="matrix(0.0078125,0,0,0.0078125,57.609375,0)" xlink:href="#aP"/><use transform="matrix(0.0078125,0,0,0.0078125,67.2109375,0)" xlink:href="#aB"/></g><path fill="#1f2328" d="M365-904c58-129 161-200 334-200 130 0 228 46 293 138s98 233 98 420c0 189-34 331-102 425S824 20 698 20c-170 0-275-64-336-184 0 55-3 116-9 164H179c5-68 6-147 6-223v-1261h180c-2 193 4 394-4 580h4zm283 791c221 0 256-197 256-427 0-229-34-425-254-425-236 0-285 195-285 441 0 237 53 411 283 411" id="aU"/><path fill="#1f2328" d="M1048-32c-2 300-135 456-433 456-222-1-358-88-400-267l184-25c22 99 100 157 222 156 184-2 248-125 248-315 0-64 3-133-2-194C807-100 706-13 524-12c-306 0-381-228-381-537 0-318 85-550 400-550 164 0 271 83 325 202h3c1-60 3-134 12-185h171c-13 339-4 702-6 1050zM585-145c210-8 284-178 284-406 0-192-52-331-177-392-33-16-69-22-104-22-223 2-259 184-259 414 0 229 31 415 256 406" id="aV"/><g id="p"><use transform="matrix(0.0078125,0,0,0.0078125,0,0)" xlink:href="#aF"/><use transform="matrix(0.0078125,0,0,0.0078125,9.6015625,0)" xlink:href="#aC"/><use transform="matrix(0.0078125,0,0,0.0078125,19.203125,0)" xlink:href="#aU"/><use transform="matrix(0.0078125,0,0,0.0078125,28.8046875,0)" xlink:href="#aA"/><use transform="matrix(0.0078125,0,0,0.0078125,38.40625,0)" xlink:href="#aV"/></g><path fill="#1f2328" d="M709-1193V0H519v-1193H76v-156h1076v156H709" id="aW"/><path fill="#1f2328" d="M648-963c-190 6-283 138-283 336V0H185v-1484h181c-2 197 6 404-9 587h3c62-120 159-205 339-205 242 0 351 135 350 381V0H868v-695c1-168-57-273-220-268" id="aX"/><g id="q"><use transform="matrix(0.0078125,0,0,0.0078125,0,0)" xlink:href="#aB"/><use transform="matrix(0.0078125,0,0,0.0078125,9.6015625,0)" xlink:href="#aP"/><use transform="matrix(0.0078125,0,0,0.0078125,19.203125,0)" xlink:href="#aA"/><use transform="matrix(0.0078125,0,0,0.0078125,28.8046875,0)" xlink:href="#aF"/><use transform="matrix(0.0078125,0,0,0.0078125,38.40625,0)" xlink:href="#aC"/><use transform="matrix(0.0078125,0,0,0.0078125,48.0078125,0)" xlink:href="#aL"/><use transform="matrix(0.0078125,0,0,0.0078125,57.609375,0)" xlink:href="#aP"/><use transform="matrix(0.0078125,0,0,0.0078125,67.2109375,0)" xlink:href="#aW"/><use transform="matrix(0.0078125,0,0,0.0078125,76.8125,0)" xlink:href="#aC"/><use transform="matrix(0.0078125,0,0,0.0078125,86.4140625,0)" xlink:href="#aM"/><use transform="matrix(0.0078125,0,0,0.0078125,96.015625,0)" xlink:href="#aO"/><use transform="matrix(0.0078125,0,0,0.0078125,105.6171875,0)" xlink:href="#aX"/><use transform="matrix(0.0078125,0,0,0.0078125,115.21875,0)" xlink:href="#aC"/><use transform="matrix(0.0078125,0,0,0.0078125,124.8203125,0)" xlink:href="#aD"/></g><path fill="#1f2328" d="M-5 220v-96h1238v96H-5" id="aY"/><g id="r"><use transform="matrix(0.0078125,0,0,0.0078125,0,0)" xlink:href="#aS"/><use transform="matrix(0.0078125,0,0,0.0078125,9.6015625,0)" xlink:href="#aJ"/><use transform="matrix(0.0078125,0,0,0.0078125,19.203125,0)" xlink:href="#aV"/><use transform="matrix(0.0078125,0,0,0.0078125,28.8046875,0)" xlink:href="#aY"/><use transform="matrix(0.0078125,0,0,0.0078125,38.40625,0)" xlink:href="#aA"/><use transform="matrix(0.0078125,0,0,0.0078125,48.0078125,0)" xlink:href="#aA"/><use transform="matrix(0.0078125,0,0,0.0078125,57.609375,0)" xlink:href="#aE"/><use transform="matrix(0.0078125,0,0,0.0078125,67.2109375,0)" xlink:href="#aF"/></g><g id="s"><use transform="matrix(0.0078125,0,0,0.0078125,0,0)" xlink:href="#aE"/><use transform="matrix(0.0078125,0,0,0.0078125,9.6015625,0)" xlink:href="#aL"/><use transform="matrix(0.0078125,0,0,0.0078125,19.203125,0)" xlink:href="#aR"/><use transform="matrix(0.0078125,0,0,0.0078125,28.8046875,0)" xlink:href="#aJ"/></g><path fill="#1f2328" d="M1034 0L896-382H333L196 0H0l510-1349h217L1228 0h-194zM847-531c-77-225-157-447-231-674-69 231-154 451-232 674h463" id="aZ"/><g id="t"><use transform="matrix(0.0078125,0,0,0.0078125,0,0)" xlink:href="#aX"/><use transform="matrix(0.0078125,0,0,0.0078125,9.6015625,0)" xlink:href="#aM"/><use transform="matrix(0.0078125,0,0,0.0078125,19.203125,0)" xlink:href="#aB"/><use transform="matrix(0.0078125,0,0,0.0078125,28.8046875,0)" xlink:href="#aZ"/><use transform="matrix(0.0078125,0,0,0.0078125,38.40625,0)" xlink:href="#aO"/><use transform="matrix(0.0078125,0,0,0.0078125,48.0078125,0)" xlink:href="#aO"/><use transform="matrix(0.0078125,0,0,0.0078125,57.609375,0)" xlink:href="#aC"/><use transform="matrix(0.0078125,0,0,0.0078125,67.2109375,0)" xlink:href="#aB"/><use transform="matrix(0.0078125,0,0,0.0078125,76.8125,0)" xlink:href="#aB"/></g><path fill="#1f2328" d="M1065-1013c47 164 49 500-1 665C999-130 875 20 611 20c-377 0-484-300-487-695-2-245 41-425 141-551 77-98 191-144 352-144 261 0 386 140 448 357zM741-155c199-92 203-504 159-785-26-168-96-284-283-284-281 0-308 256-311 549-2 181 18 324 80 428 46 77 115 118 227 120 47 0 90-10 128-28" id="ba"/><g id="u"><use transform="matrix(0.0078125,0,0,0.0078125,0,0)" xlink:href="#aG"/><use transform="matrix(0.0078125,0,0,0.0078125,9.6015625,0)" xlink:href="#aA"/><use transform="matrix(0.0078125,0,0,0.0078125,19.203125,0)" xlink:href="#aC"/><use transform="matrix(0.0078125,0,0,0.0078125,28.8046875,0)" xlink:href="#aD"/><use transform="matrix(0.0078125,0,0,0.0078125,38.40625,0)" xlink:href="#aH"/><use transform="matrix(0.0078125,0,0,0.0078125,48.0078125,0)" xlink:href="#ba"/></g><g id="v"><use transform="matrix(0.0078125,0,0,0.0078125,0,0)" xlink:href="#aC"/><use transform="matrix(0.0078125,0,0,0.0078125,9.6015625,0)" xlink:href="#aD"/><use transform="matrix(0.0078125,0,0,0.0078125,19.203125,0)" xlink:href="#aD"/><use transform="matrix(0.0078125,0,0,0.0078125,28.8046875,0)" xlink:href="#aJ"/><use transform="matrix(0.0078125,0,0,0.0078125,38.40625,0)" xlink:href="#aD"/></g><g id="w"><use transform="matrix(0.0078125,0,0,0.0078125,0,0)" xlink:href="#aD"/><use transform="matrix(0.0078125,0,0,0.0078125,9.6015625,0)" xlink:href="#aC"/><use transform="matrix(0.0078125,0,0,0.0078125,19.203125,0)" xlink:href="#aB"/><use transform="matrix(0.0078125,0,0,0.0078125,28.8046875,0)" xlink:href="#aA"/><use transform="matrix(0.0078125,0,0,0.0078125,38.40625,0)" xlink:href="#aS"/><use transform="matrix(0.0078125,0,0,0.0078125,48.0078125,0)" xlink:href="#aP"/></g><g id="x"><use transform="matrix(0.0078125,0,0,0.0078125,0,0)" xlink:href="#aO"/><use transform="matrix(0.0078125,0,0,0.0078125,9.6015625,0)" xlink:href="#aA"/><use transform="matrix(0.0078125,0,0,0.0078125,19.203125,0)" xlink:href="#aD"/><use transform="matrix(0.0078125,0,0,0.0078125,28.8046875,0)" xlink:href="#aD"/><use transform="matrix(0.0078125,0,0,0.0078125,38.40625,0)" xlink:href="#aO"/><use transform="matrix(0.0078125,0,0,0.0078125,48.0078125,0)" xlink:href="#aK"/><use transform="matrix(0.0078125,0,0,0.0078125,57.609375,0)" xlink:href="#aF"/></g><g id="y"><use transform="matrix(0.0078125,0,0,0.0078125,0,0)" xlink:href="#aV"/><use transform="matrix(0.0078125,0,0,0.0078125,9.6015625,0)" xlink:href="#aC"/><use transform="matrix(0.0078125,0,0,0.0078125,19.203125,0)" xlink:href="#aP"/><use transform="matrix(0.0078125,0,0,0.0078125,28.8046875,0)" xlink:href="#aO"/><use transform="matrix(0.0078125,0,0,0.0078125,38.40625,0)" xlink:href="#aK"/><use transform="matrix(0.0078125,0,0,0.0078125,48.0078125,0)" xlink:href="#aF"/></g><g id="z"><use transform="matrix(0.0078125,0,0,0.0078125,0,0)" xlink:href="#aO"/><use transform="matrix(0.0078125,0,0,0.0078125,9.6015625,0)" xlink:href="#aJ"/><use transform="matrix(0.0078125,0,0,0.0078125,19.203125,0)" xlink:href="#aA"/><use transform="matrix(0.0078125,0,0,0.0078125,28.8046875,0)" xlink:href="#aL"/><use transform="matrix(0.0078125,0,0,0.0078125,38.40625,0)" xlink:href="#aP"/><use transform="matrix(0.0078125,0,0,0.0078125,48.0078125,0)" xlink:href="#aC"/><use transform="matrix(0.0078125,0,0,0.0078125,57.609375,0)" xlink:href="#aF"/></g><g id="A"><use transform="matrix(0.0078125,0,0,0.0078125,0,0)" xlink:href="#aG"/><use transform="matrix(0.0078125,0,0,0.0078125,9.6015625,0)" xlink:href="#aA"/><use transform="matrix(0.0078125,0,0,0.0078125,19.203125,0)" xlink:href="#aC"/><use transform="matrix(0.0078125,0,0,0.0078125,28.8046875,0)" xlink:href="#aD"/><use transform="matrix(0.0078125,0,0,0.0078125,38.40625,0)" xlink:href="#aH"/><use transform="matrix(0.0078125,0,0,0.0078125,48.0078125,0)" xlink:href="#aB"/><use transform="matrix(0.0078125,0,0,0.0078125,57.609375,0)" xlink:href="#aP"/><use transform="matrix(0.0078125,0,0,0.0078125,67.2109375,0)" xlink:href="#aD"/><use transform="matrix(0.0078125,0,0,0.0078125,76.8125,0)" xlink:href="#aE"/><use transform="matrix(0.0078125,0,0,0.0078125,86.4140625,0)" xlink:href="#aL"/><use transform="matrix(0.0078125,0,0,0.0078125,96.015625,0)" xlink:href="#aV"/></g><g id="B"><use transform="matrix(0.0078125,0,0,0.0078125,0,0)" xlink:href="#aF"/><use transform="matrix(0.0078125,0,0,0.0078125,9.6015625,0)" xlink:href="#aC"/><use transform="matrix(0.0078125,0,0,0.0078125,19.203125,0)" xlink:href="#aB"/><use transform="matrix(0.0078125,0,0,0.0078125,28.8046875,0)" xlink:href="#aO"/><use transform="matrix(0.0078125,0,0,0.0078125,38.40625,0)" xlink:href="#aD"/><use transform="matrix(0.0078125,0,0,0.0078125,48.0078125,0)" xlink:href="#aE"/><use transform="matrix(0.0078125,0,0,0.0078125,57.609375,0)" xlink:href="#aI"/><use transform="matrix(0.0078125,0,0,0.0078125,67.2109375,0)" xlink:href="#aP"/><use transform="matrix(0.0078125,0,0,0.0078125,76.8125,0)" xlink:href="#aE"/><use transform="matrix(0.0078125,0,0,0.0078125,86.4140625,0)" xlink:href="#aJ"/><use transform="matrix(0.0078125,0,0,0.0078125,96.015625,0)" xlink:href="#aL"/></g><path fill="#1f2328" d="M614-1226c-167 1-283 53-283 213 0 183 186 193 334 234 230 63 463 120 463 409 0 286-219 387-518 390C309 23 131-98 79-338l185-37c34 165 149 248 351 246 184-2 324-58 324-238 0-203-207-221-372-266-210-57-422-111-422-377 0-267 201-356 470-360 279-5 430 101 480 324l-188 33c-28-141-121-215-293-213" id="bb"/><path fill="#1f2328" d="M604-135c236 0 291-142 291-376v-838h190v859c5 340-142 510-480 510-326 0-463-164-463-492v-877h191v851c-3 222 46 363 271 363" id="bc"/><g id="C"><use transform="matrix(0.0078125,0,0,0.0078125,0,0)" xlink:href="#aE"/><use transform="matrix(0.0078125,0,0,0.0078125,9.6015625,0)" xlink:href="#aB"/><use transform="matrix(0.0078125,0,0,0.0078125,19.203125,0)" xlink:href="#bb"/><use transform="matrix(0.0078125,0,0,0.0078125,28.8046875,0)" xlink:href="#aA"/><use transform="matrix(0.0078125,0,0,0.0078125,38.40625,0)" xlink:href="#aI"/><use transform="matrix(0.0078125,0,0,0.0078125,48.0078125,0)" xlink:href="#aC"/><use transform="matrix(0.0078125,0,0,0.0078125,57.609375,0)" xlink:href="#aD"/><use transform="matrix(0.0078125,0,0,0.0078125,67.2109375,0)" xlink:href="#bc"/><use transform="matrix(0.0078125,0,0,0.0078125,76.8125,0)" xlink:href="#aB"/><use transform="matrix(0.0078125,0,0,0.0078125,86.4140625,0)" xlink:href="#aC"/><use transform="matrix(0.0078125,0,0,0.0078125,96.015625,0)" xlink:href="#aD"/></g><g id="D"><use transform="matrix(0.0078125,0,0,0.0078125,0,0)" xlink:href="#aQ"/><use transform="matrix(0.0078125,0,0,0.0078125,9.6015625,0)" xlink:href="#aC"/><use transform="matrix(0.0078125,0,0,0.0078125,19.203125,0)" xlink:href="#aD"/><use transform="matrix(0.0078125,0,0,0.0078125,28.8046875,0)" xlink:href="#aB"/></g><g id="E"><use transform="matrix(0.0078125,0,0,0.0078125,0,0)" xlink:href="#aC"/><use transform="matrix(0.0078125,0,0,0.0078125,9.6015625,0)" xlink:href="#aL"/><use transform="matrix(0.0078125,0,0,0.0078125,19.203125,0)" xlink:href="#aP"/><use transform="matrix(0.0078125,0,0,0.0078125,28.8046875,0)" xlink:href="#aD"/><use transform="matrix(0.0078125,0,0,0.0078125,38.40625,0)" xlink:href="#aE"/><use transform="matrix(0.0078125,0,0,0.0078125,48.0078125,0)" xlink:href="#aC"/><use transform="matrix(0.0078125,0,0,0.0078125,57.609375,0)" xlink:href="#aB"/></g><g id="F"><use transform="matrix(0.0078125,0,0,0.0078125,0,0)" xlink:href="#aR"/><use transform="matrix(0.0078125,0,0,0.0078125,9.6015625,0)" xlink:href="#aE"/><use transform="matrix(0.0078125,0,0,0.0078125,19.203125,0)" xlink:href="#aS"/><use transform="matrix(0.0078125,0,0,0.0078125,28.8046875,0)" xlink:href="#aC"/><use transform="matrix(0.0078125,0,0,0.0078125,38.40625,0)" xlink:href="#aB"/></g><g id="G"><use transform="matrix(0.0078125,0,0,0.0078125,0,0)" xlink:href="#aS"/><use transform="matrix(0.0078125,0,0,0.0078125,9.6015625,0)" xlink:href="#aR"/><use transform="matrix(0.0078125,0,0,0.0078125,19.203125,0)" xlink:href="#aE"/><use transform="matrix(0.0078125,0,0,0.0078125,28.8046875,0)" xlink:href="#aS"/><use transform="matrix(0.0078125,0,0,0.0078125,38.40625,0)" xlink:href="#aC"/><use transform="matrix(0.0078125,0,0,0.0078125,48.0078125,0)" xlink:href="#aB"/></g><g id="H"><use transform="matrix(0.0078125,0,0,0.0078125,0,0)" xlink:href="#aV"/><use transform="matrix(0.0078125,0,0,0.0078125,9.6015625,0)" xlink:href="#aR"/><use transform="matrix(0.0078125,0,0,0.0078125,19.203125,0)" xlink:href="#aE"/><use transform="matrix(0.0078125,0,0,0.0078125,28.8046875,0)" xlink:href="#aS"/><use transform="matrix(0.0078125,0,0,0.0078125,38.40625,0)" xlink:href="#aC"/><use transform="matrix(0.0078125,0,0,0.0078125,48.0078125,0)" xlink:href="#aB"/></g><g id="I"><use transform="matrix(0.0078125,0,0,0.0078125,0,0)" xlink:href="#aM"/><use transform="matrix(0.0078125,0,0,0.0078125,9.6015625,0)" xlink:href="#aO"/><use transform="matrix(0.0078125,0,0,0.0078125,19.203125,0)" xlink:href="#aO"/><use transform="matrix(0.0078125,0,0,0.0078125,28.8046875,0)" xlink:href="#aC"/><use transform="matrix(0.0078125,0,0,0.0078125,38.40625,0)" xlink:href="#aB"/><use transform="matrix(0.0078125,0,0,0.0078125,48.0078125,0)" xlink:href="#aB"/></g><g id="J"><use transform="matrix(0.0078125,0,0,0.0078125,0,0)" xlink:href="#aR"/><use transform="matrix(0.0078125,0,0,0.0078125,9.6015625,0)" xlink:href="#aE"/><use transform="matrix(0.0078125,0,0,0.0078125,19.203125,0)" xlink:href="#aS"/><use transform="matrix(0.0078125,0,0,0.0078125,28.8046875,0)" xlink:href="#aC"/><use transform="matrix(0.0078125,0,0,0.0078125,38.40625,0)" xlink:href="#aT"/><use transform="matrix(0.0078125,0,0,0.0078125,48.0078125,0)" xlink:href="#aE"/><use transform="matrix(0.0078125,0,0,0.0078125,57.609375,0)" xlink:href="#aL"/><use transform="matrix(0.0078125,0,0,0.0078125,67.2109375,0)" xlink:href="#aF"/></g><g id="K"><use transform="matrix(0.0078125,0,0,0.0078125,0,0)" xlink:href="#aB"/><use transform="matrix(0.0078125,0,0,0.0078125,9.6015625,0)" xlink:href="#aI"/><use transform="matrix(0.0078125,0,0,0.0078125,19.203125,0)" xlink:href="#aS"/><use transform="matrix(0.0078125,0,0,0.0078125,28.8046875,0)" xlink:href="#aE"/><use transform="matrix(0.0078125,0,0,0.0078125,38.40625,0)" xlink:href="#aP"/><use transform="matrix(0.0078125,0,0,0.0078125,48.0078125,0)" xlink:href="#aL"/><use transform="matrix(0.0078125,0,0,0.0078125,57.609375,0)" xlink:href="#aM"/><use transform="matrix(0.0078125,0,0,0.0078125,67.2109375,0)" xlink:href="#aN"/><use transform="matrix(0.0078125,0,0,0.0078125,76.8125,0)" xlink:href="#aC"/></g><path fill="#1f2328" d="M932 0L611-444 288 0H94l415-556-397-526h199l300 421 298-421h201L713-558 1133 0H932" id="bd"/><g id="L"><use transform="matrix(0.0078125,0,0,0.0078125,0,0)" xlink:href="#aC"/><use transform="matrix(0.0078125,0,0,0.0078125,9.6015625,0)" xlink:href="#bd"/><use transform="matrix(0.0078125,0,0,0.0078125,19.203125,0)" xlink:href="#aP"/><use transform="matrix(0.0078125,0,0,0.0078125,28.8046875,0)" xlink:href="#aC"/><use transform="matrix(0.0078125,0,0,0.0078125,38.40625,0)" xlink:href="#aL"/><use transform="matrix(0.0078125,0,0,0.0078125,48.0078125,0)" xlink:href="#aB"/><use transform="matrix(0.0078125,0,0,0.0078125,57.609375,0)" xlink:href="#aE"/><use transform="matrix(0.0078125,0,0,0.0078125,67.2109375,0)" xlink:href="#aJ"/><use transform="matrix(0.0078125,0,0,0.0078125,76.8125,0)" xlink:href="#aL"/></g><g id="M"><use transform="matrix(0.0078125,0,0,0.0078125,0,0)" xlink:href="#aB"/><use transform="matrix(0.0078125,0,0,0.0078125,9.6015625,0)" xlink:href="#aX"/><use transform="matrix(0.0078125,0,0,0.0078125,19.203125,0)" xlink:href="#aJ"/><use transform="matrix(0.0078125,0,0,0.0078125,28.8046875,0)" xlink:href="#aD"/><use transform="matrix(0.0078125,0,0,0.0078125,38.40625,0)" xlink:href="#aP"/><use transform="matrix(0.0078125,0,0,0.0078125,48.0078125,0)" xlink:href="#aR"/><use transform="matrix(0.0078125,0,0,0.0078125,57.609375,0)" xlink:href="#aE"/><use transform="matrix(0.0078125,0,0,0.0078125,67.2109375,0)" xlink:href="#aS"/><use transform="matrix(0.0078125,0,0,0.0078125,76.8125,0)" xlink:href="#aC"/><use transform="matrix(0.0078125,0,0,0.0078125,86.4140625,0)" xlink:href="#aL"/><use transform="matrix(0.0078125,0,0,0.0078125,96.015625,0)" xlink:href="#aM"/><use transform="matrix(0.0078125,0,0,0.0078125,105.6171875,0)" xlink:href="#aN"/><use transform="matrix(0.0078125,0,0,0.0078125,115.21875,0)" xlink:href="#aC"/></g><g id="N"><use transform="matrix(0.0078125,0,0,0.0078125,0,0)" xlink:href="#aR"/><use transform="matrix(0.0078125,0,0,0.0078125,9.6015625,0)" xlink:href="#aE"/><use transform="matrix(0.0078125,0,0,0.0078125,19.203125,0)" xlink:href="#aS"/><use transform="matrix(0.0078125,0,0,0.0078125,28.8046875,0)" xlink:href="#aC"/><use transform="matrix(0.0078125,0,0,0.0078125,38.40625,0)" xlink:href="#aI"/><use transform="matrix(0.0078125,0,0,0.0078125,48.0078125,0)" xlink:href="#aM"/><use transform="matrix(0.0078125,0,0,0.0078125,57.609375,0)" xlink:href="#aP"/><use transform="matrix(0.0078125,0,0,0.0078125,67.2109375,0)" xlink:href="#aX"/></g><g id="O"><use transform="matrix(0.0078125,0,0,0.0078125,0,0)" xlink:href="#aR"/><use transform="matrix(0.0078125,0,0,0.0078125,9.6015625,0)" xlink:href="#aE"/><use transform="matrix(0.0078125,0,0,0.0078125,19.203125,0)" xlink:href="#aS"/><use transform="matrix(0.0078125,0,0,0.0078125,28.8046875,0)" xlink:href="#aC"/><use transform="matrix(0.0078125,0,0,0.0078125,38.40625,0)" xlink:href="#aT"/><use transform="matrix(0.0078125,0,0,0.0078125,48.0078125,0)" xlink:href="#aE"/><use transform="matrix(0.0078125,0,0,0.0078125,57.609375,0)" xlink:href="#aL"/><use transform="matrix(0.0078125,0,0,0.0078125,67.2109375,0)" xlink:href="#aF"/><use transform="matrix(0.0078125,0,0,0.0078125,76.8125,0)" xlink:href="#aL"/><use transform="matrix(0.0078125,0,0,0.0078125,86.4140625,0)" xlink:href="#aM"/><use transform="matrix(0.0078125,0,0,0.0078125,96.015625,0)" xlink:href="#aN"/><use transform="matrix(0.0078125,0,0,0.0078125,105.6171875,0)" xlink:href="#aC"/></g><g id="P"><use transform="matrix(0.0078125,0,0,0.0078125,0,0)" xlink:href="#aB"/><use transform="matrix(0.0078125,0,0,0.0078125,9.6015625,0)" xlink:href="#aX"/><use transform="matrix(0.0078125,0,0,0.0078125,19.203125,0)" xlink:href="#aJ"/><use transform="matrix(0.0078125,0,0,0.0078125,28.8046875,0)" xlink:href="#aK"/><use transform="matrix(0.0078125,0,0,0.0078125,38.40625,0)" xlink:href="#aW"/><use transform="matrix(0.0078125,0,0,0.0078125,48.0078125,0)" xlink:href="#aD"/><use transform="matrix(0.0078125,0,0,0.0078125,57.609375,0)" xlink:href="#aM"/><use transform="matrix(0.0078125,0,0,0.0078125,67.2109375,0)" xlink:href="#aB"/><use transform="matrix(0.0078125,0,0,0.0078125,76.8125,0)" xlink:href="#aX"/><use transform="matrix(0.0078125,0,0,0.0078125,86.4140625,0)" xlink:href="#aO"/><use transform="matrix(0.0078125,0,0,0.0078125,96.015625,0)" xlink:href="#aM"/><use transform="matrix(0.0078125,0,0,0.0078125,105.6171875,0)" xlink:href="#aL"/></g><path fill="#1f2328" d="M162 0v-1349h919v156H353v422h668v154H353v461h769V0H162" id="be"/><g id="Q"><use transform="matrix(0.0078125,0,0,0.0078125,0,0)" xlink:href="#aB"/><use transform="matrix(0.0078125,0,0,0.0078125,9.6015625,0)" xlink:href="#aX"/><use transform="matrix(0.0078125,0,0,0.0078125,19.203125,0)" xlink:href="#aJ"/><use transform="matrix(0.0078125,0,0,0.0078125,28.8046875,0)" xlink:href="#aK"/><use transform="matrix(0.0078125,0,0,0.0078125,38.40625,0)" xlink:href="#be"/><use transform="matrix(0.0078125,0,0,0.0078125,48.0078125,0)" xlink:href="#aF"/><use transform="matrix(0.0078125,0,0,0.0078125,57.609375,0)" xlink:href="#aE"/><use transform="matrix(0.0078125,0,0,0.0078125,67.2109375,0)" xlink:href="#aP"/><use transform="matrix(0.0078125,0,0,0.0078125,76.8125,0)" xlink:href="#aJ"/><use transform="matrix(0.0078125,0,0,0.0078125,86.4140625,0)" xlink:href="#aD"/></g><g id="R"><use transform="matrix(0.0078125,0,0,0.0078125,0,0)" xlink:href="#aC"/><use transform="matrix(0.0078125,0,0,0.0078125,9.6015625,0)" xlink:href="#aL"/><use transform="matrix(0.0078125,0,0,0.0078125,19.203125,0)" xlink:href="#aP"/><use transform="matrix(0.0078125,0,0,0.0078125,28.8046875,0)" xlink:href="#aD"/><use transform="matrix(0.0078125,0,0,0.0078125,38.40625,0)" xlink:href="#aH"/></g><g id="S"><use transform="matrix(0.0078125,0,0,0.0078125,0,0)" xlink:href="#aC"/><use transform="matrix(0.0078125,0,0,0.0078125,9.6015625,0)" xlink:href="#aL"/><use transform="matrix(0.0078125,0,0,0.0078125,19.203125,0)" xlink:href="#aP"/><use transform="matrix(0.0078125,0,0,0.0078125,28.8046875,0)" xlink:href="#aD"/><use transform="matrix(0.0078125,0,0,0.0078125,38.40625,0)" xlink:href="#aE"/><use transform="matrix(0.0078125,0,0,0.0078125,48.0078125,0)" xlink:href="#aC"/><use transform="matrix(0.0078125,0,0,0.0078125,57.609375,0)" xlink:href="#aB"/></g><g id="T"><use transform="matrix(0.0078125,0,0,0.0078125,0,0)" xlink:href="#aO"/><use transform="matrix(0.0078125,0,0,0.0078125,9.6015625,0)" xlink:href="#aA"/><use transform="matrix(0.0078125,0,0,0.0078125,19.203125,0)" xlink:href="#aD"/><use transform="matrix(0.0078125,0,0,0.0078125,28.8046875,0)" xlink:href="#aD"/><use transform="matrix(0.0078125,0,0,0.0078125,38.40625,0)" xlink:href="#aO"/><use transform="matrix(0.0078125,0,0,0.0078125,48.0078125,0)" xlink:href="#aQ"/><use transform="matrix(0.0078125,0,0,0.0078125,57.609375,0)" xlink:href="#aF"/></g><g id="U"><use transform="matrix(0.0078125,0,0,0.0078125,0,0)" xlink:href="#aF"/><use transform="matrix(0.0078125,0,0,0.0078125,9.6015625,0)" xlink:href="#aE"/><use transform="matrix(0.0078125,0,0,0.0078125,19.203125,0)" xlink:href="#aD"/></g><g id="V"><use transform="matrix(0.0078125,0,0,0.0078125,0,0)" xlink:href="#aQ"/><use transform="matrix(0.0078125,0,0,0.0078125,9.6015625,0)" xlink:href="#aM"/><use transform="matrix(0.0078125,0,0,0.0078125,19.203125,0)" xlink:href="#aS"/><use transform="matrix(0.0078125,0,0,0.0078125,28.8046875,0)" xlink:href="#aA"/><use transform="matrix(0.0078125,0,0,0.0078125,38.40625,0)" xlink:href="#aC"/></g><g id="W"><use transform="matrix(0.0078125,0,0,0.0078125,0,0)" xlink:href="#aB"/><use transform="matrix(0.0078125,0,0,0.0078125,9.6015625,0)" xlink:href="#aA"/><use transform="matrix(0.0078125,0,0,0.0078125,19.203125,0)" xlink:href="#aI"/><use transform="matrix(0.0078125,0,0,0.0078125,28.8046875,0)" xlink:href="#aC"/><use transform="matrix(0.0078125,0,0,0.0078125,38.40625,0)" xlink:href="#aD"/><use transform="matrix(0.0078125,0,0,0.0078125,48.0078125,0)" xlink:href="#aA"/><use transform="matrix(0.0078125,0,0,0.0078125,57.609375,0)" xlink:href="#aB"/><use transform="matrix(0.0078125,0,0,0.0078125,67.2109375,0)" xlink:href="#aC"/><use transform="matrix(0.0078125,0,0,0.0078125,76.8125,0)" xlink:href="#aD"/></g><g id="X"><use transform="matrix(0.0078125,0,0,0.0078125,0,0)" xlink:href="#aB"/><use transform="matrix(0.0078125,0,0,0.0078125,9.6015625,0)" xlink:href="#aA"/><use transform="matrix(0.0078125,0,0,0.0078125,19.203125,0)" xlink:href="#aI"/><use transform="matrix(0.0078125,0,0,0.0078125,28.8046875,0)" xlink:href="#aC"/><use transform="matrix(0.0078125,0,0,0.0078125,38.40625,0)" xlink:href="#aD"/><use transform="matrix(0.0078125,0,0,0.0078125,48.0078125,0)" xlink:href="#aQ"/><use transform="matrix(0.0078125,0,0,0.0078125,57.609375,0)" xlink:href="#aE"/><use transform="matrix(0.0078125,0,0,0.0078125,67.2109375,0)" xlink:href="#aB"/><use transform="matrix(0.0078125,0,0,0.0078125,76.8125,0)" xlink:href="#aJ"/><use transform="matrix(0.0078125,0,0,0.0078125,86.4140625,0)" xlink:href="#aD"/></g><g id="Y"><use transform="matrix(0.0078125,0,0,0.0078125,0,0)" xlink:href="#aK"/><use transform="matrix(0.0078125,0,0,0.0078125,9.6015625,0)" xlink:href="#aM"/><use transform="matrix(0.0078125,0,0,0.0078125,19.203125,0)" xlink:href="#aO"/><use transform="matrix(0.0078125,0,0,0.0078125,28.8046875,0)" xlink:href="#aO"/><use transform="matrix(0.0078125,0,0,0.0078125,38.40625,0)" xlink:href="#aC"/><use transform="matrix(0.0078125,0,0,0.0078125,48.0078125,0)" xlink:href="#aB"/><use transform="matrix(0.0078125,0,0,0.0078125,57.609375,0)" xlink:href="#aB"/></g><g id="Z"><use transform="matrix(0.0078125,0,0,0.0078125,0,0)" xlink:href="#aM"/><use transform="matrix(0.0078125,0,0,0.0078125,9.6015625,0)" xlink:href="#aD"/><use transform="matrix(0.0078125,0,0,0.0078125,19.203125,0)" xlink:href="#aD"/><use transform="matrix(0.0078125,0,0,0.0078125,28.8046875,0)" xlink:href="#aM"/><use transform="matrix(0.0078125,0,0,0.0078125,38.40625,0)" xlink:href="#aH"/></g><path fill="#1f2328" d="M650-1214c-281 0-336 244-336 533 0 295 60 546 347 546 188 0 263-142 322-282l159 65C1058-155 935 20 659 20c-401 0-546-295-546-701 0-407 135-689 536-689 264 0 391 146 466 335l-168 65c-47-129-127-244-297-244" id="bf"/><path fill="#1f2328" d="M891-1484c-201 251-362 514-362 954 0 441 161 704 362 955H701C500 176 342-90 342-532c0-440 159-704 359-952h190" id="bg"/><path fill="#1f2328" d="M528-1484c201 248 357 511 357 952 0 442-156 709-357 957H336C537 174 700-89 700-530c0-440-163-703-364-954h192" id="bh"/><g id="ab"><use transform="matrix(0.0078125,0,0,0.0078125,0,0)" xlink:href="#aI"/><use transform="matrix(0.0078125,0,0,0.0078125,9.6015625,0)" xlink:href="#aF"/><use transform="matrix(0.0078125,0,0,0.0078125,19.203125,0)" xlink:href="#aJ"/><use transform="matrix(0.0078125,0,0,0.0078125,28.8046875,0)" xlink:href="#bf"/><use transform="matrix(0.0078125,0,0,0.0078125,38.40625,0)" xlink:href="#aJ"/><use transform="matrix(0.0078125,0,0,0.0078125,48.0078125,0)" xlink:href="#aL"/><use transform="matrix(0.0078125,0,0,0.0078125,57.609375,0)" xlink:href="#aL"/><use transform="matrix(0.0078125,0,0,0.0078125,67.2109375,0)" xlink:href="#aC"/><use transform="matrix(0.0078125,0,0,0.0078125,76.8125,0)" xlink:href="#aO"/><use transform="matrix(0.0078125,0,0,0.0078125,86.4140625,0)" xlink:href="#aP"/><use transform="matrix(0.0078125,0,0,0.0078125,96.015625,0)" xlink:href="#bg"/><use transform="matrix(0.0078125,0,0,0.0078125,105.6171875,0)" xlink:href="#bh"/></g><g id="ac"><use transform="matrix(0.0078125,0,0,0.0078125,0,0)" xlink:href="#aB"/><use transform="matrix(0.0078125,0,0,0.0078125,9.6015625,0)" xlink:href="#aC"/><use transform="matrix(0.0078125,0,0,0.0078125,19.203125,0)" xlink:href="#aB"/><use transform="matrix(0.0078125,0,0,0.0078125,28.8046875,0)" xlink:href="#aB"/><use transform="matrix(0.0078125,0,0,0.0078125,38.40625,0)" xlink:href="#aE"/><use transform="matrix(0.0078125,0,0,0.0078125,48.0078125,0)" xlink:href="#aJ"/><use transform="matrix(0.0078125,0,0,0.0078125,57.609375,0)" xlink:href="#aL"/><use transform="matrix(0.0078125,0,0,0.0078125,67.2109375,0)" xlink:href="#aY"/><use transform="matrix(0.0078125,0,0,0.0078125,76.8125,0)" xlink:href="#aB"/><use transform="matrix(0.0078125,0,0,0.0078125,86.4140625,0)" xlink:href="#aP"/><use transform="matrix(0.0078125,0,0,0.0078125,96.015625,0)" xlink:href="#aM"/><use transform="matrix(0.0078125,0,0,0.0078125,105.6171875,0)" xlink:href="#aD"/><use transform="matrix(0.0078125,0,0,0.0078125,115.21875,0)" xlink:href="#aP"/><use transform="matrix(0.0078125,0,0,0.0078125,124.8203125,0)" xlink:href="#bg"/><use transform="matrix(0.0078125,0,0,0.0078125,134.421875,0)" xlink:href="#bh"/></g><path fill="#1f2328" d="M147 0v-137l681-806H187v-139h844v137L349-139h719V0H147" id="bi"/><g id="ad"><use transform="matrix(0.0078125,0,0,0.0078125,0,0)" xlink:href="#aF"/><use transform="matrix(0.0078125,0,0,0.0078125,9.6015625,0)" xlink:href="#aM"/><use transform="matrix(0.0078125,0,0,0.0078125,19.203125,0)" xlink:href="#aP"/><use transform="matrix(0.0078125,0,0,0.0078125,28.8046875,0)" xlink:href="#aC"/><use transform="matrix(0.0078125,0,0,0.0078125,38.40625,0)" xlink:href="#aY"/><use transform="matrix(0.0078125,0,0,0.0078125,48.0078125,0)" xlink:href="#aF"/><use transform="matrix(0.0078125,0,0,0.0078125,57.609375,0)" xlink:href="#aC"/><use transform="matrix(0.0078125,0,0,0.0078125,67.2109375,0)" xlink:href="#aR"/><use transform="matrix(0.0078125,0,0,0.0078125,76.8125,0)" xlink:href="#aM"/><use transform="matrix(0.0078125,0,0,0.0078125,86.4140625,0)" xlink:href="#aA"/><use transform="matrix(0.0078125,0,0,0.0078125,96.015625,0)" xlink:href="#aS"/><use transform="matrix(0.0078125,0,0,0.0078125,105.6171875,0)" xlink:href="#aP"/><use transform="matrix(0.0078125,0,0,0.0078125,115.21875,0)" xlink:href="#aY"/><use transform="matrix(0.0078125,0,0,0.0078125,124.8203125,0)" xlink:href="#aP"/><use transform="matrix(0.0078125,0,0,0.0078125,134.421875,0)" xlink:href="#aE"/><use transform="matrix(0.0078125,0,0,0.0078125,144.0234375,0)" xlink:href="#aN"/><use transform="matrix(0.0078125,0,0,0.0078125,153.625,0)" xlink:href="#aC"/><use transform="matrix(0.0078125,0,0,0.0078125,163.2265625,0)" xlink:href="#bi"/><use transform="matrix(0.0078125,0,0,0.0078125,172.828125,0)" xlink:href="#aJ"/><use transform="matrix(0.0078125,0,0,0.0078125,182.4296875,0)" xlink:href="#aL"/><use transform="matrix(0.0078125,0,0,0.0078125,192.03125,0)" xlink:href="#aC"/><use transform="matrix(0.0078125,0,0,0.0078125,201.6328125,0)" xlink:href="#aY"/><use transform="matrix(0.0078125,0,0,0.0078125,211.234375,0)" xlink:href="#aB"/><use transform="matrix(0.0078125,0,0,0.0078125,220.8359375,0)" xlink:href="#aC"/><use transform="matrix(0.0078125,0,0,0.0078125,230.4375,0)" xlink:href="#aP"/><use transform="matrix(0.0078125,0,0,0.0078125,240.0390625,0)" xlink:href="#bg"/><use transform="matrix(0.0078125,0,0,0.0078125,249.640625,0)" xlink:href="#bh"/></g><g id="ae"><use transform="matrix(0.0078125,0,0,0.0078125,0,0)" xlink:href="#aC"/><use transform="matrix(0.0078125,0,0,0.0078125,9.6015625,0)" xlink:href="#bd"/><use transform="matrix(0.0078125,0,0,0.0078125,19.203125,0)" xlink:href="#aC"/><use transform="matrix(0.0078125,0,0,0.0078125,28.8046875,0)" xlink:href="#aO"/><use transform="matrix(0.0078125,0,0,0.0078125,38.40625,0)" xlink:href="#aA"/><use transform="matrix(0.0078125,0,0,0.0078125,48.0078125,0)" xlink:href="#aP"/><use transform="matrix(0.0078125,0,0,0.0078125,57.609375,0)" xlink:href="#aC"/><use transform="matrix(0.0078125,0,0,0.0078125,67.2109375,0)" xlink:href="#bg"/><use transform="matrix(0.0078125,0,0,0.0078125,76.8125,0)" xlink:href="#bh"/></g><path fill="#1f2328" d="M622-1349c296 4 497 117 497 404 0 282-193 424-485 431H353V0H162v-1349h460zm-15 684c195-3 320-88 320-277 0-184-129-255-328-254H353v531h254" id="bj"/><g id="af"><use transform="matrix(0.0078125,0,0,0.0078125,0,0)" xlink:href="#aU"/><use transform="matrix(0.0078125,0,0,0.0078125,9.6015625,0)" xlink:href="#aE"/><use transform="matrix(0.0078125,0,0,0.0078125,19.203125,0)" xlink:href="#aL"/><use transform="matrix(0.0078125,0,0,0.0078125,28.8046875,0)" xlink:href="#aF"/><use transform="matrix(0.0078125,0,0,0.0078125,38.40625,0)" xlink:href="#bj"/><use transform="matrix(0.0078125,0,0,0.0078125,48.0078125,0)" xlink:href="#aM"/><use transform="matrix(0.0078125,0,0,0.0078125,57.609375,0)" xlink:href="#aD"/><use transform="matrix(0.0078125,0,0,0.0078125,67.2109375,0)" xlink:href="#aM"/><use transform="matrix(0.0078125,0,0,0.0078125,76.8125,0)" xlink:href="#aN"/><use transform="matrix(0.0078125,0,0,0.0078125,86.4140625,0)" xlink:href="#bg"/><use transform="matrix(0.0078125,0,0,0.0078125,96.015625,0)" xlink:href="#bh"/></g><g id="ag"><use transform="matrix(0.0078125,0,0,0.0078125,0,0)" xlink:href="#aI"/><use transform="matrix(0.0078125,0,0,0.0078125,9.6015625,0)" xlink:href="#aD"/><use transform="matrix(0.0078125,0,0,0.0078125,19.203125,0)" xlink:href="#aC"/><use transform="matrix(0.0078125,0,0,0.0078125,28.8046875,0)" xlink:href="#aI"/><use transform="matrix(0.0078125,0,0,0.0078125,38.40625,0)" xlink:href="#aM"/><use transform="matrix(0.0078125,0,0,0.0078125,48.0078125,0)" xlink:href="#aD"/><use transform="matrix(0.0078125,0,0,0.0078125,57.609375,0)" xlink:href="#aC"/><use transform="matrix(0.0078125,0,0,0.0078125,67.2109375,0)" xlink:href="#bg"/><use transform="matrix(0.0078125,0,0,0.0078125,76.8125,0)" xlink:href="#bh"/></g><path fill="#1f2328" d="M101-234c-31-9-42 10-38 44h38v23H63V0H32v-167H5v-23h27c-7-52 17-82 69-68v24" id="bk"/><path fill="#1f2328" d="M59-47c-2 24 18 29 38 22v24C64 9 27 4 27-40v-127H5v-23h24l9-43h21v43h35v23H59v120" id="bl"/><path fill="#1f2328" d="M106-169C34-169 62-67 57 0H25v-261h32l-1 103c12-21 28-36 61-36 89 0 53 116 60 194h-32v-121c2-32-8-49-39-48" id="bm"/><path fill="#1f2328" d="M87 75C49 33 22-17 22-94c0-76 28-126 65-167h31c-38 41-64 92-64 168S80 34 118 75H87" id="bn"/><path fill="#1f2328" d="M33-261c38 41 65 92 65 168S71 34 33 75H2C39 34 66-17 66-93S39-220 2-261h31" id="bo"/><g id="ah"><use transform="matrix(0.05185185185185186,0,0,0.05185185185185186,0,0)" xlink:href="#bk"/><use transform="matrix(0.05185185185185186,0,0,0.05185185185185186,5.185185185185186,0)" xlink:href="#au"/><use transform="matrix(0.05185185185185186,0,0,0.05185185185185186,15.555555555555557,0)" xlink:href="#bl"/><use transform="matrix(0.05185185185185186,0,0,0.05185185185185186,20.740740740740744,0)" xlink:href="#az"/><use transform="matrix(0.05185185185185186,0,0,0.05185185185185186,30.074074074074076,0)" xlink:href="#bm"/><use transform="matrix(0.05185185185185186,0,0,0.05185185185185186,40.44444444444445,0)" xlink:href="#bn"/><use transform="matrix(0.05185185185185186,0,0,0.05185185185185186,46.61481481481482,0)" xlink:href="#bo"/></g><path fill="#1f2328" d="M100-194c62-1 85 37 85 99 1 63-27 99-86 99S16-35 15-95c0-66 28-99 85-99zM99-20c44 1 53-31 53-75 0-43-8-75-51-75s-53 32-53 75 10 74 51 75" id="bp"/><path fill="#1f2328" d="M33 0v-248h34V0H33" id="bq"/><path fill="#1f2328" d="M117-194c89-4 53 116 60 194h-32v-121c0-31-8-49-39-48C34-167 62-67 57 0H25l-1-190h30c1 10-1 24 2 32 11-22 29-35 61-36" id="br"/><g id="ai"><use transform="matrix(0.05185185185185186,0,0,0.05185185185185186,0,0)" xlink:href="#au"/><use transform="matrix(0.05185185185185186,0,0,0.05185185185185186,10.370370370370372,0)" xlink:href="#ax"/><use transform="matrix(0.05185185185185186,0,0,0.05185185185185186,16.540740740740745,0)" xlink:href="#ax"/><use transform="matrix(0.05185185185185186,0,0,0.05185185185185186,22.711111111111116,0)" xlink:href="#bp"/><use transform="matrix(0.05185185185185186,0,0,0.05185185185185186,33.08148148148149,0)" xlink:href="#ax"/><use transform="matrix(0.05185185185185186,0,0,0.05185185185185186,39.25185185185186,0)" xlink:href="#bq"/><use transform="matrix(0.05185185185185186,0,0,0.05185185185185186,44.437037037037044,0)" xlink:href="#br"/><use transform="matrix(0.05185185185185186,0,0,0.05185185185185186,54.80740740740741,0)" xlink:href="#bk"/><use transform="matrix(0.05185185185185186,0,0,0.05185185185185186,59.9925925925926,0)" xlink:href="#bp"/><use transform="matrix(0.05185185185185186,0,0,0.05185185185185186,70.36296296296297,0)" xlink:href="#bn"/><use transform="matrix(0.05185185185185186,0,0,0.05185185185185186,76.53333333333333,0)" xlink:href="#bo"/></g><g id="ak"><use transform="matrix(0.0078125,0,0,0.0078125,0,0)" xlink:href="#aR"/><use transform="matrix(0.0078125,0,0,0.0078125,9.6015625,0)" xlink:href="#aE"/><use transform="matrix(0.0078125,0,0,0.0078125,19.203125,0)" xlink:href="#aS"/><use transform="matrix(0.0078125,0,0,0.0078125,28.8046875,0)" xlink:href="#aC"/><use transform="matrix(0.0078125,0,0,0.0078125,38.40625,0)" xlink:href="#aY"/><use transform="matrix(0.0078125,0,0,0.0078125,48.0078125,0)" xlink:href="#aC"/><use transform="matrix(0.0078125,0,0,0.0078125,57.609375,0)" xlink:href="#bd"/><use transform="matrix(0.0078125,0,0,0.0078125,67.2109375,0)" xlink:href="#aE"/><use transform="matrix(0.0078125,0,0,0.0078125,76.8125,0)" xlink:href="#aB"/><use transform="matrix(0.0078125,0,0,0.0078125,86.4140625,0)" xlink:href="#aP"/><use transform="matrix(0.0078125,0,0,0.0078125,96.015625,0)" xlink:href="#aB"/><use transform="matrix(0.0078125,0,0,0.0078125,105.6171875,0)" xlink:href="#bg"/><use transform="matrix(0.0078125,0,0,0.0078125,115.21875,0)" xlink:href="#bh"/></g><g id="al"><use transform="matrix(0.0078125,0,0,0.0078125,0,0)" xlink:href="#aA"/><use transform="matrix(0.0078125,0,0,0.0078125,9.6015625,0)" xlink:href="#aL"/><use transform="matrix(0.0078125,0,0,0.0078125,19.203125,0)" xlink:href="#aS"/><use transform="matrix(0.0078125,0,0,0.0078125,28.8046875,0)" xlink:href="#aE"/><use transform="matrix(0.0078125,0,0,0.0078125,38.40625,0)" xlink:href="#aL"/><use transform="matrix(0.0078125,0,0,0.0078125,48.0078125,0)" xlink:href="#aT"/><use transform="matrix(0.0078125,0,0,0.0078125,57.609375,0)" xlink:href="#bg"/><use transform="matrix(0.0078125,0,0,0.0078125,67.2109375,0)" xlink:href="#bh"/></g><g id="am"><use transform="matrix(0.0078125,0,0,0.0078125,0,0)" xlink:href="#aO"/><use transform="matrix(0.0078125,0,0,0.0078125,9.6015625,0)" xlink:href="#aX"/><use transform="matrix(0.0078125,0,0,0.0078125,19.203125,0)" xlink:href="#aC"/><use transform="matrix(0.0078125,0,0,0.0078125,28.8046875,0)" xlink:href="#aO"/><use transform="matrix(0.0078125,0,0,0.0078125,38.40625,0)" xlink:href="#aT"/><use transform="matrix(0.0078125,0,0,0.0078125,48.0078125,0)" xlink:href="#aS"/><use transform="matrix(0.0078125,0,0,0.0078125,57.609375,0)" xlink:href="#aJ"/><use transform="matrix(0.0078125,0,0,0.0078125,67.2109375,0)" xlink:href="#aV"/><use transform="matrix(0.0078125,0,0,0.0078125,76.8125,0)" xlink:href="#aE"/><use transform="matrix(0.0078125,0,0,0.0078125,86.4140625,0)" xlink:href="#aL"/><use transform="matrix(0.0078125,0,0,0.0078125,96.015625,0)" xlink:href="#bg"/><use transform="matrix(0.0078125,0,0,0.0078125,105.6171875,0)" xlink:href="#bh"/></g><g id="an"><use transform="matrix(0.0078125,0,0,0.0078125,0,0)" xlink:href="#aB"/><use transform="matrix(0.0078125,0,0,0.0078125,9.6015625,0)" xlink:href="#aP"/><use transform="matrix(0.0078125,0,0,0.0078125,19.203125,0)" xlink:href="#aD"/><use transform="matrix(0.0078125,0,0,0.0078125,28.8046875,0)" xlink:href="#aO"/><use transform="matrix(0.0078125,0,0,0.0078125,38.40625,0)" xlink:href="#aN"/><use transform="matrix(0.0078125,0,0,0.0078125,48.0078125,0)" xlink:href="#aI"/><use transform="matrix(0.0078125,0,0,0.0078125,57.609375,0)" xlink:href="#bg"/><use transform="matrix(0.0078125,0,0,0.0078125,67.2109375,0)" xlink:href="#bh"/></g><g id="ao"><use transform="matrix(0.0078125,0,0,0.0078125,0,0)" xlink:href="#aF"/><use transform="matrix(0.0078125,0,0,0.0078125,9.6015625,0)" xlink:href="#aC"/><use transform="matrix(0.0078125,0,0,0.0078125,19.203125,0)" xlink:href="#aU"/><use transform="matrix(0.0078125,0,0,0.0078125,28.8046875,0)" xlink:href="#aA"/><use transform="matrix(0.0078125,0,0,0.0078125,38.40625,0)" xlink:href="#aV"/><use transform="matrix(0.0078125,0,0,0.0078125,48.0078125,0)" xlink:href="#bg"/><use transform="matrix(0.0078125,0,0,0.0078125,57.609375,0)" xlink:href="#bh"/></g><g id="ap"><use transform="matrix(0.0078125,0,0,0.0078125,0,0)" xlink:href="#aV"/><use transform="matrix(0.0078125,0,0,0.0078125,9.6015625,0)" xlink:href="#aC"/><use transform="matrix(0.0078125,0,0,0.0078125,19.203125,0)" xlink:href="#aP"/><use transform="matrix(0.0078125,0,0,0.0078125,28.8046875,0)" xlink:href="#aO"/><use transform="matrix(0.0078125,0,0,0.0078125,38.40625,0)" xlink:href="#aK"/><use transform="matrix(0.0078125,0,0,0.0078125,48.0078125,0)" xlink:href="#aF"/><use transform="matrix(0.0078125,0,0,0.0078125,57.609375,0)" xlink:href="#bg"/><use transform="matrix(0.0078125,0,0,0.0078125,67.2109375,0)" xlink:href="#bh"/></g><g id="aq"><use transform="matrix(0.0078125,0,0,0.0078125,0,0)" xlink:href="#aM"/><use transform="matrix(0.0078125,0,0,0.0078125,9.6015625,0)" xlink:href="#aD"/><use transform="matrix(0.0078125,0,0,0.0078125,19.203125,0)" xlink:href="#aD"/><use transform="matrix(0.0078125,0,0,0.0078125,28.8046875,0)" xlink:href="#aM"/><use transform="matrix(0.0078125,0,0,0.0078125,38.40625,0)" xlink:href="#aH"/><use transform="matrix(0.0078125,0,0,0.0078125,48.0078125,0)" xlink:href="#aY"/><use transform="matrix(0.0078125,0,0,0.0078125,57.609375,0)" xlink:href="#aI"/><use transform="matrix(0.0078125,0,0,0.0078125,67.2109375,0)" xlink:href="#aA"/><use transform="matrix(0.0078125,0,0,0.0078125,76.8125,0)" xlink:href="#aB"/><use transform="matrix(0.0078125,0,0,0.0078125,86.4140625,0)" xlink:href="#aX"/><use transform="matrix(0.0078125,0,0,0.0078125,96.015625,0)" xlink:href="#bg"/><use transform="matrix(0.0078125,0,0,0.0078125,105.6171875,0)" xlink:href="#bh"/></g></defs></g></svg>
