<svg xmlns="http://www.w3.org/2000/svg" xmlns:xlink="http://www.w3.org/1999/xlink" xmlns:lucid="lucid" width="862" height="562"><g transform="translate(0 0)" lucid:page-tab-id="HWEp-vi-RSFO"><path d="M0 0h1760v1360H0z" fill="#fff"/><path d="M550.85 0h300v547h-300z" stroke="#333" stroke-width="2" fill="#fff"/><path d="M550.85 41.6h300m-300 274.1h300" stroke="#333" stroke-width="2" fill="none"/><use xlink:href="#a" transform="matrix(1,0,0,1,558.8506403214813,8) translate(41.94074074074075 17.266666666666666)"/><use xlink:href="#b" transform="matrix(1,0,0,1,562.8506403214813,49.60000000000001) translate(0 25.100000000000016)"/><use xlink:href="#c" transform="matrix(1,0,0,1,562.8506403214813,49.60000000000001) translate(0 46.70000000000002)"/><use xlink:href="#d" transform="matrix(1,0,0,1,562.8506403214813,49.60000000000001) translate(0 68.30000000000003)"/><use xlink:href="#e" transform="matrix(1,0,0,1,562.8506403214813,49.60000000000001) translate(0 89.90000000000003)"/><use xlink:href="#f" transform="matrix(1,0,0,1,562.8506403214813,49.60000000000001) translate(0 111.50000000000003)"/><use xlink:href="#g" transform="matrix(1,0,0,1,562.8506403214813,49.60000000000001) translate(0 133.10000000000002)"/><use xlink:href="#h" transform="matrix(1,0,0,1,562.8506403214813,49.60000000000001) translate(0 154.70000000000002)"/><use xlink:href="#i" transform="matrix(1,0,0,1,562.8506403214813,49.60000000000001) translate(0 176.3)"/><use xlink:href="#j" transform="matrix(1,0,0,1,562.8506403214813,49.60000000000001) translate(0 197.9)"/><use xlink:href="#k" transform="matrix(1,0,0,1,562.8506403214813,49.60000000000001) translate(0 219.5)"/><use xlink:href="#l" transform="matrix(1,0,0,1,562.8506403214813,49.60000000000001) translate(0 241.1)"/><use xlink:href="#m" transform="matrix(1,0,0,1,562.8506403214813,323.7) translate(0 24.70000000000001)"/><use xlink:href="#n" transform="matrix(1,0,0,1,562.8506403214813,323.7) translate(0 46.30000000000001)"/><use xlink:href="#o" transform="matrix(1,0,0,1,562.8506403214813,323.7) translate(0 67.90000000000002)"/><use xlink:href="#p" transform="matrix(1,0,0,1,562.8506403214813,323.7) translate(0 89.50000000000003)"/><use xlink:href="#q" transform="matrix(1,0,0,1,562.8506403214813,323.7) translate(0 111.10000000000002)"/><use xlink:href="#r" transform="matrix(1,0,0,1,562.8506403214813,323.7) translate(0 132.70000000000002)"/><use xlink:href="#s" transform="matrix(1,0,0,1,562.8506403214813,323.7) translate(0 154.3)"/><use xlink:href="#t" transform="matrix(1,0,0,1,562.8506403214813,323.7) translate(0 175.9)"/><use xlink:href="#u" transform="matrix(1,0,0,1,562.8506403214813,323.7) translate(0 197.5)"/><path d="M0 78h300v158H0z" stroke="#333" stroke-width="2" fill="#fff"/><path d="M0 119.6h300M0 177.7h300" stroke="#333" stroke-width="2" fill="none"/><use xlink:href="#v" transform="matrix(1,0,0,1,8,85.99999999999983) translate(42.50370370370371 17.266666666666666)"/><path d="M18.2 376.9h300v152h-300z" stroke="#333" stroke-width="2" fill="#fff"/><path d="M18.2 418.5h300M18.2 471h300" stroke="#333" stroke-width="2" fill="none"/><g><use xlink:href="#w" transform="matrix(1,0,0,1,26.18807947019866,384.8859481654005) translate(57.318518518518516 17.266666666666666)"/></g><path d="M372.48 90.67h-55.1v-1h55.1zm176.87-3.33h-70.98v-1h70.98z" stroke="#333" stroke-width=".05" fill="#333"/><path d="M549.85 87.34h-.5v-1h.5z" fill="#333"/><path d="M549.88 87.36h-.57V86.3h.58zm-.52-1v.95h.47v-.94z" stroke="#333" stroke-width=".05" fill="#333"/><path d="M316.88 94.8l-14.26-4.63 14.26-4.63z" fill="#fff"/><path d="M317.38 95.5L301 90.17l16.38-5.32zm-13.14-5.33l12.14 3.95v-7.9z" stroke="#333" stroke-width=".05" fill="#333"/><g><use xlink:href="#x" transform="matrix(1,0,0,1,372.47532016074064,77.70601954292111) translate(0.005000000000002558 14.4)"/></g><g><use xlink:href="#y" transform="matrix(1,0,0,1,519.8506403214813,61.23909002686612) translate(0 14.4)"/></g><g><use xlink:href="#y" transform="matrix(1,0,0,1,300.99999999999994,98.80820397460032) translate(0 14.4)"/></g><path d="M400.96 464.76h-65.4v-1h65.4zm148.4 0h-42.5v-1h42.5z" stroke="#333" stroke-width=".05" fill="#333"/><path d="M549.85 464.76h-.5v-1h.5z" fill="#333"/><path d="M549.88 464.8h-.57v-1.06h.58zm-.52-1v.94h.47v-.95z" stroke="#333" stroke-width=".05" fill="#333"/><path d="M335.07 468.9l-14.26-4.63 14.27-4.64z" fill="#fff"/><path d="M335.57 469.6l-16.38-5.34 16.37-5.32zm-13.15-5.34l12.15 3.95v-7.88z" stroke="#333" stroke-width=".05" fill="#333"/><g><use xlink:href="#x" transform="matrix(1,0,0,1,400.96304939152657,453.46544083024634) translate(0.005000000000002558 14.4)"/></g><g><use xlink:href="#y" transform="matrix(1,0,0,1,519.8506403214813,438.6654408302464) translate(0 14.4)"/></g><g><use xlink:href="#y" transform="matrix(1,0,0,1,318.1880794701988,472.90069574587056) translate(0 14.4)"/></g><defs><path d="M115-194c55 1 70 41 70 98S169 2 115 4C84 4 66-9 55-30l1 105H24l-1-265h31l2 30c10-21 28-34 59-34zm-8 174c40 0 45-34 45-75s-6-73-45-74c-42 0-51 32-51 76 0 43 10 73 51 73" id="z"/><path d="M84 4C-5 8 30-112 23-190h32v120c0 31 7 50 39 49 72-2 45-101 50-169h31l1 190h-30c-1-10 1-25-2-33-11 22-28 36-60 37" id="A"/><path d="M135-143c-3-34-86-38-87 0 15 53 115 12 119 90S17 21 10-45l28-5c4 36 97 45 98 0-10-56-113-15-118-90-4-57 82-63 122-42 12 7 21 19 24 35" id="B"/><path d="M106-169C34-169 62-67 57 0H25v-261h32l-1 103c12-21 28-36 61-36 89 0 53 116 60 194h-32v-121c2-32-8-49-39-48" id="C"/><path d="M117-194c89-4 53 116 60 194h-32v-121c0-31-8-49-39-48C34-167 62-67 57 0H25l-1-190h30c1 10-1 24 2 32 11-22 29-35 61-36" id="D"/><path d="M100-194c62-1 85 37 85 99 1 63-27 99-86 99S16-35 15-95c0-66 28-99 85-99zM99-20c44 1 53-31 53-75 0-43-8-75-51-75s-53 32-53 75 10 74 51 75" id="E"/><path d="M59-47c-2 24 18 29 38 22v24C64 9 27 4 27-40v-127H5v-23h24l9-43h21v43h35v23H59v120" id="F"/><path d="M24-231v-30h32v30H24zM24 0v-190h32V0H24" id="G"/><path d="M101-234c-31-9-42 10-38 44h38v23H63V0H32v-167H5v-23h27c-7-52 17-82 69-68v24" id="H"/><path d="M96-169c-40 0-48 33-48 73s9 75 48 75c24 0 41-14 43-38l32 2c-6 37-31 61-74 61-59 0-76-41-82-99-10-93 101-131 147-64 4 7 5 14 7 22l-32 3c-4-21-16-35-41-35" id="I"/><path d="M141-36C126-15 110 5 73 4 37 3 15-17 15-53c-1-64 63-63 125-63 3-35-9-54-41-54-24 1-41 7-42 31l-33-3c5-37 33-52 76-52 45 0 72 20 72 64v82c-1 20 7 32 28 27v20c-31 9-61-2-59-35zM48-53c0 20 12 33 32 33 41-3 63-29 60-74-43 2-92-5-92 41" id="J"/><path d="M33 0v-38h34V0H33" id="K"/><g id="a"><use transform="matrix(0.05925925925925927,0,0,0.05925925925925927,0,0)" xlink:href="#z"/><use transform="matrix(0.05925925925925927,0,0,0.05925925925925927,11.851851851851853,0)" xlink:href="#A"/><use transform="matrix(0.05925925925925927,0,0,0.05925925925925927,23.703703703703706,0)" xlink:href="#B"/><use transform="matrix(0.05925925925925927,0,0,0.05925925925925927,34.370370370370374,0)" xlink:href="#C"/><use transform="matrix(0.05925925925925927,0,0,0.05925925925925927,46.22222222222223,0)" xlink:href="#D"/><use transform="matrix(0.05925925925925927,0,0,0.05925925925925927,58.07407407407408,0)" xlink:href="#E"/><use transform="matrix(0.05925925925925927,0,0,0.05925925925925927,69.92592592592594,0)" xlink:href="#F"/><use transform="matrix(0.05925925925925927,0,0,0.05925925925925927,75.85185185185186,0)" xlink:href="#G"/><use transform="matrix(0.05925925925925927,0,0,0.05925925925925927,80.53333333333335,0)" xlink:href="#H"/><use transform="matrix(0.05925925925925927,0,0,0.05925925925925927,86.45925925925927,0)" xlink:href="#G"/><use transform="matrix(0.05925925925925927,0,0,0.05925925925925927,91.14074074074075,0)" xlink:href="#I"/><use transform="matrix(0.05925925925925927,0,0,0.05925925925925927,101.80740740740742,0)" xlink:href="#J"/><use transform="matrix(0.05925925925925927,0,0,0.05925925925925927,113.65925925925927,0)" xlink:href="#F"/><use transform="matrix(0.05925925925925927,0,0,0.05925925925925927,119.5851851851852,0)" xlink:href="#G"/><use transform="matrix(0.05925925925925927,0,0,0.05925925925925927,124.26666666666668,0)" xlink:href="#E"/><use transform="matrix(0.05925925925925927,0,0,0.05925925925925927,136.11851851851853,0)" xlink:href="#D"/><use transform="matrix(0.05925925925925927,0,0,0.05925925925925927,147.97037037037038,0)" xlink:href="#B"/><use transform="matrix(0.05925925925925927,0,0,0.05925925925925927,158.63703703703703,0)" xlink:href="#K"/><use transform="matrix(0.05925925925925927,0,0,0.05925925925925927,164.56296296296296,0)" xlink:href="#z"/><use transform="matrix(0.05925925925925927,0,0,0.05925925925925927,176.4148148148148,0)" xlink:href="#C"/><use transform="matrix(0.05925925925925927,0,0,0.05925925925925927,188.26666666666665,0)" xlink:href="#z"/></g><path fill="#333" d="M115-194c55 1 70 41 70 98S169 2 115 4C84 4 66-9 55-30l1 105H24l-1-265h31l2 30c10-21 28-34 59-34zm-8 174c40 0 45-34 45-75s-6-73-45-74c-42 0-51 32-51 76 0 43 10 73 51 73" id="L"/><path fill="#333" d="M85-194c31 0 48 13 60 33l-1-100h32l1 261h-30c-2-10 0-23-3-31C134-8 116 4 85 4 32 4 16-35 15-94c0-66 23-100 70-100zm9 24c-40 0-46 34-46 75 0 40 6 74 45 74 42 0 51-32 51-76 0-42-9-74-50-73" id="M"/><path fill="#333" d="M100-194c62-1 85 37 85 99 1 63-27 99-86 99S16-35 15-95c0-66 28-99 85-99zM99-20c44 1 53-31 53-75 0-43-8-75-51-75s-53 32-53 75 10 74 51 75" id="N"/><g id="b"><use transform="matrix(0.05,0,0,0.05,0,0)" xlink:href="#L"/><use transform="matrix(0.05,0,0,0.05,10,0)" xlink:href="#M"/><use transform="matrix(0.05,0,0,0.05,20,0)" xlink:href="#N"/></g><path fill="#333" d="M100-194c63 0 86 42 84 106H49c0 40 14 67 53 68 26 1 43-12 49-29l28 8c-11 28-37 45-77 45C44 4 14-33 15-96c1-61 26-98 85-98zm52 81c6-60-76-77-97-28-3 7-6 17-6 28h103" id="O"/><path fill="#333" d="M117-194c89-4 53 116 60 194h-32v-121c0-31-8-49-39-48C34-167 62-67 57 0H25l-1-190h30c1 10-1 24 2 32 11-22 29-35 61-36" id="P"/><path fill="#333" d="M24-231v-30h32v30H24zM24 0v-190h32V0H24" id="Q"/><path fill="#333" d="M59-47c-2 24 18 29 38 22v24C64 9 27 4 27-40v-127H5v-23h24l9-43h21v43h35v23H59v120" id="R"/><g id="c"><use transform="matrix(0.05,0,0,0.05,0,0)" xlink:href="#O"/><use transform="matrix(0.05,0,0,0.05,10,0)" xlink:href="#P"/><use transform="matrix(0.05,0,0,0.05,20,0)" xlink:href="#M"/><use transform="matrix(0.05,0,0,0.05,30,0)" xlink:href="#L"/><use transform="matrix(0.05,0,0,0.05,40,0)" xlink:href="#N"/><use transform="matrix(0.05,0,0,0.05,50,0)" xlink:href="#Q"/><use transform="matrix(0.05,0,0,0.05,53.95,0)" xlink:href="#P"/><use transform="matrix(0.05,0,0,0.05,63.95,0)" xlink:href="#R"/></g><path fill="#333" d="M135-143c-3-34-86-38-87 0 15 53 115 12 119 90S17 21 10-45l28-5c4 36 97 45 98 0-10-56-113-15-118-90-4-57 82-63 122-42 12 7 21 19 24 35" id="S"/><path fill="#333" d="M84 4C-5 8 30-112 23-190h32v120c0 31 7 50 39 49 72-2 45-101 50-169h31l1 190h-30c-1-10 1-25-2-33-11 22-28 36-60 37" id="T"/><path fill="#333" d="M115-194c53 0 69 39 70 98 0 66-23 100-70 100C84 3 66-7 56-30L54 0H23l1-261h32v101c10-23 28-34 59-34zm-8 174c40 0 45-34 45-75 0-40-5-75-45-74-42 0-51 32-51 76 0 43 10 73 51 73" id="U"/><path fill="#333" d="M96-169c-40 0-48 33-48 73s9 75 48 75c24 0 41-14 43-38l32 2c-6 37-31 61-74 61-59 0-76-41-82-99-10-93 101-131 147-64 4 7 5 14 7 22l-32 3c-4-21-16-35-41-35" id="V"/><path fill="#333" d="M114-163C36-179 61-72 57 0H25l-1-190h30c1 12-1 29 2 39 6-27 23-49 58-41v29" id="W"/><g id="d"><use transform="matrix(0.05,0,0,0.05,0,0)" xlink:href="#S"/><use transform="matrix(0.05,0,0,0.05,9,0)" xlink:href="#T"/><use transform="matrix(0.05,0,0,0.05,19,0)" xlink:href="#U"/><use transform="matrix(0.05,0,0,0.05,29,0)" xlink:href="#S"/><use transform="matrix(0.05,0,0,0.05,38,0)" xlink:href="#V"/><use transform="matrix(0.05,0,0,0.05,47,0)" xlink:href="#W"/><use transform="matrix(0.05,0,0,0.05,52.95,0)" xlink:href="#Q"/><use transform="matrix(0.05,0,0,0.05,56.900000000000006,0)" xlink:href="#L"/><use transform="matrix(0.05,0,0,0.05,66.9,0)" xlink:href="#R"/><use transform="matrix(0.05,0,0,0.05,71.9,0)" xlink:href="#Q"/><use transform="matrix(0.05,0,0,0.05,75.85000000000001,0)" xlink:href="#N"/><use transform="matrix(0.05,0,0,0.05,85.85000000000001,0)" xlink:href="#P"/></g><path fill="#333" d="M141-36C126-15 110 5 73 4 37 3 15-17 15-53c-1-64 63-63 125-63 3-35-9-54-41-54-24 1-41 7-42 31l-33-3c5-37 33-52 76-52 45 0 72 20 72 64v82c-1 20 7 32 28 27v20c-31 9-61-2-59-35zM48-53c0 20 12 33 32 33 41-3 63-29 60-74-43 2-92-5-92 41" id="X"/><g id="e"><use transform="matrix(0.05,0,0,0.05,0,0)" xlink:href="#X"/><use transform="matrix(0.05,0,0,0.05,10,0)" xlink:href="#V"/><use transform="matrix(0.05,0,0,0.05,19,0)" xlink:href="#R"/><use transform="matrix(0.05,0,0,0.05,24,0)" xlink:href="#Q"/><use transform="matrix(0.05,0,0,0.05,27.950000000000003,0)" xlink:href="#N"/><use transform="matrix(0.05,0,0,0.05,37.95,0)" xlink:href="#P"/></g><path fill="#333" d="M145-31C134-9 116 4 85 4 32 4 16-35 15-94c0-59 17-99 70-100 32-1 48 14 60 33 0-11-1-24 2-32h30l-1 268h-32zM93-21c41 0 51-33 51-76s-8-73-50-73c-40 0-46 35-46 75s5 74 45 74" id="Y"/><path fill="#333" d="M179-190L93 31C79 59 56 82 12 73V49c39 6 53-20 64-50L1-190h34L92-34l54-156h33" id="Z"/><g id="f"><use transform="matrix(0.05,0,0,0.05,0,0)" xlink:href="#Y"/><use transform="matrix(0.05,0,0,0.05,10,0)" xlink:href="#T"/><use transform="matrix(0.05,0,0,0.05,20,0)" xlink:href="#O"/><use transform="matrix(0.05,0,0,0.05,30,0)" xlink:href="#W"/><use transform="matrix(0.05,0,0,0.05,35.95,0)" xlink:href="#Z"/></g><path fill="#333" d="M210-169c-67 3-38 105-44 169h-31v-121c0-29-5-50-35-48C34-165 62-65 56 0H25l-1-190h30c1 10-1 24 2 32 10-44 99-50 107 0 11-21 27-35 58-36 85-2 47 119 55 194h-31v-121c0-29-5-49-35-48" id="aa"/><g id="g"><use transform="matrix(0.05,0,0,0.05,0,0)" xlink:href="#S"/><use transform="matrix(0.05,0,0,0.05,9,0)" xlink:href="#R"/><use transform="matrix(0.05,0,0,0.05,14,0)" xlink:href="#aa"/><use transform="matrix(0.05,0,0,0.05,28.950000000000003,0)" xlink:href="#R"/></g><path fill="#333" d="M24 0v-261h32V0H24" id="ab"/><g id="h"><use transform="matrix(0.05,0,0,0.05,0,0)" xlink:href="#W"/><use transform="matrix(0.05,0,0,0.05,5.95,0)" xlink:href="#O"/><use transform="matrix(0.05,0,0,0.05,15.949999999999998,0)" xlink:href="#S"/><use transform="matrix(0.05,0,0,0.05,24.95,0)" xlink:href="#T"/><use transform="matrix(0.05,0,0,0.05,34.95,0)" xlink:href="#ab"/><use transform="matrix(0.05,0,0,0.05,38.900000000000006,0)" xlink:href="#R"/><use transform="matrix(0.05,0,0,0.05,43.900000000000006,0)" xlink:href="#S"/></g><g id="i"><use transform="matrix(0.05,0,0,0.05,0,0)" xlink:href="#O"/><use transform="matrix(0.05,0,0,0.05,10,0)" xlink:href="#W"/><use transform="matrix(0.05,0,0,0.05,15.949999999999998,0)" xlink:href="#W"/><use transform="matrix(0.05,0,0,0.05,21.9,0)" xlink:href="#N"/><use transform="matrix(0.05,0,0,0.05,31.899999999999995,0)" xlink:href="#W"/></g><path fill="#333" d="M143 0L79-87 56-68V0H24v-261h32v163l83-92h37l-77 82L181 0h-38" id="ac"/><g id="j"><use transform="matrix(0.05,0,0,0.05,0,0)" xlink:href="#ac"/><use transform="matrix(0.05,0,0,0.05,9,0)" xlink:href="#O"/><use transform="matrix(0.05,0,0,0.05,19,0)" xlink:href="#Z"/><use transform="matrix(0.05,0,0,0.05,28,0)" xlink:href="#S"/></g><g id="k"><use transform="matrix(0.05,0,0,0.05,0,0)" xlink:href="#W"/><use transform="matrix(0.05,0,0,0.05,5.95,0)" xlink:href="#O"/><use transform="matrix(0.05,0,0,0.05,15.949999999999998,0)" xlink:href="#S"/><use transform="matrix(0.05,0,0,0.05,24.95,0)" xlink:href="#L"/><use transform="matrix(0.05,0,0,0.05,34.95,0)" xlink:href="#N"/><use transform="matrix(0.05,0,0,0.05,44.95,0)" xlink:href="#P"/><use transform="matrix(0.05,0,0,0.05,54.95,0)" xlink:href="#S"/><use transform="matrix(0.05,0,0,0.05,63.95,0)" xlink:href="#O"/></g><path fill="#333" d="M-5 72V49h209v23H-5" id="ad"/><path fill="#333" d="M87 75C49 33 22-17 22-94c0-76 28-126 65-167h31c-38 41-64 92-64 168S80 34 118 75H87" id="ae"/><path fill="#333" d="M33-261c38 41 65 92 65 168S71 34 33 75H2C39 34 66-17 66-93S39-220 2-261h31" id="af"/><g id="m"><use transform="matrix(0.05,0,0,0.05,0,0)" xlink:href="#L"/><use transform="matrix(0.05,0,0,0.05,10,0)" xlink:href="#M"/><use transform="matrix(0.05,0,0,0.05,20,0)" xlink:href="#N"/><use transform="matrix(0.05,0,0,0.05,30,0)" xlink:href="#ad"/><use transform="matrix(0.05,0,0,0.05,40,0)" xlink:href="#V"/><use transform="matrix(0.05,0,0,0.05,49,0)" xlink:href="#N"/><use transform="matrix(0.05,0,0,0.05,59,0)" xlink:href="#P"/><use transform="matrix(0.05,0,0,0.05,69,0)" xlink:href="#P"/><use transform="matrix(0.05,0,0,0.05,79,0)" xlink:href="#O"/><use transform="matrix(0.05,0,0,0.05,89,0)" xlink:href="#V"/><use transform="matrix(0.05,0,0,0.05,98,0)" xlink:href="#R"/><use transform="matrix(0.05,0,0,0.05,103,0)" xlink:href="#ae"/><use transform="matrix(0.05,0,0,0.05,108.95,0)" xlink:href="#af"/></g><g id="n"><use transform="matrix(0.05,0,0,0.05,0,0)" xlink:href="#S"/><use transform="matrix(0.05,0,0,0.05,9,0)" xlink:href="#O"/><use transform="matrix(0.05,0,0,0.05,19,0)" xlink:href="#S"/><use transform="matrix(0.05,0,0,0.05,28,0)" xlink:href="#S"/><use transform="matrix(0.05,0,0,0.05,37,0)" xlink:href="#Q"/><use transform="matrix(0.05,0,0,0.05,40.95,0)" xlink:href="#N"/><use transform="matrix(0.05,0,0,0.05,50.95,0)" xlink:href="#P"/><use transform="matrix(0.05,0,0,0.05,60.95,0)" xlink:href="#ad"/><use transform="matrix(0.05,0,0,0.05,70.95,0)" xlink:href="#S"/><use transform="matrix(0.05,0,0,0.05,79.95,0)" xlink:href="#R"/><use transform="matrix(0.05,0,0,0.05,84.95,0)" xlink:href="#X"/><use transform="matrix(0.05,0,0,0.05,94.95,0)" xlink:href="#W"/><use transform="matrix(0.05,0,0,0.05,100.9,0)" xlink:href="#R"/><use transform="matrix(0.05,0,0,0.05,105.9,0)" xlink:href="#ae"/><use transform="matrix(0.05,0,0,0.05,111.85000000000001,0)" xlink:href="#af"/></g><path fill="#333" d="M141 0L90-78 38 0H4l68-98-65-92h35l48 74 47-74h35l-64 92 68 98h-35" id="ag"/><g id="o"><use transform="matrix(0.05,0,0,0.05,0,0)" xlink:href="#O"/><use transform="matrix(0.05,0,0,0.05,10,0)" xlink:href="#ag"/><use transform="matrix(0.05,0,0,0.05,19,0)" xlink:href="#O"/><use transform="matrix(0.05,0,0,0.05,29,0)" xlink:href="#V"/><use transform="matrix(0.05,0,0,0.05,38,0)" xlink:href="#T"/><use transform="matrix(0.05,0,0,0.05,48,0)" xlink:href="#R"/><use transform="matrix(0.05,0,0,0.05,53,0)" xlink:href="#O"/><use transform="matrix(0.05,0,0,0.05,63,0)" xlink:href="#ae"/><use transform="matrix(0.05,0,0,0.05,68.95,0)" xlink:href="#af"/></g><path fill="#333" d="M106-169C34-169 62-67 57 0H25v-261h32l-1 103c12-21 28-36 61-36 89 0 53 116 60 194h-32v-121c2-32-8-49-39-48" id="ah"/><path fill="#333" d="M177-190C167-65 218 103 67 71c-23-6-38-20-44-43l32-5c15 47 100 32 89-28v-30C133-14 115 1 83 1 29 1 15-40 15-95c0-56 16-97 71-98 29-1 48 16 59 35 1-10 0-23 2-32h30zM94-22c36 0 50-32 50-73 0-42-14-75-50-75-39 0-46 34-46 75s6 73 46 73" id="ai"/><g id="p"><use transform="matrix(0.05,0,0,0.05,0,0)" xlink:href="#V"/><use transform="matrix(0.05,0,0,0.05,9,0)" xlink:href="#ah"/><use transform="matrix(0.05,0,0,0.05,19,0)" xlink:href="#O"/><use transform="matrix(0.05,0,0,0.05,29,0)" xlink:href="#V"/><use transform="matrix(0.05,0,0,0.05,38,0)" xlink:href="#ac"/><use transform="matrix(0.05,0,0,0.05,47,0)" xlink:href="#ab"/><use transform="matrix(0.05,0,0,0.05,50.95,0)" xlink:href="#N"/><use transform="matrix(0.05,0,0,0.05,60.95,0)" xlink:href="#ai"/><use transform="matrix(0.05,0,0,0.05,70.95,0)" xlink:href="#Q"/><use transform="matrix(0.05,0,0,0.05,74.9,0)" xlink:href="#P"/><use transform="matrix(0.05,0,0,0.05,84.9,0)" xlink:href="#ae"/><use transform="matrix(0.05,0,0,0.05,90.85000000000001,0)" xlink:href="#af"/></g><g id="q"><use transform="matrix(0.05,0,0,0.05,0,0)" xlink:href="#O"/><use transform="matrix(0.05,0,0,0.05,10,0)" xlink:href="#ag"/><use transform="matrix(0.05,0,0,0.05,19,0)" xlink:href="#Q"/><use transform="matrix(0.05,0,0,0.05,22.95,0)" xlink:href="#R"/><use transform="matrix(0.05,0,0,0.05,27.950000000000003,0)" xlink:href="#ae"/><use transform="matrix(0.05,0,0,0.05,33.9,0)" xlink:href="#af"/></g><g id="r"><use transform="matrix(0.05,0,0,0.05,0,0)" xlink:href="#L"/><use transform="matrix(0.05,0,0,0.05,10,0)" xlink:href="#W"/><use transform="matrix(0.05,0,0,0.05,15.949999999999998,0)" xlink:href="#Q"/><use transform="matrix(0.05,0,0,0.05,19.9,0)" xlink:href="#P"/><use transform="matrix(0.05,0,0,0.05,29.899999999999995,0)" xlink:href="#R"/><use transform="matrix(0.05,0,0,0.05,34.9,0)" xlink:href="#ad"/><use transform="matrix(0.05,0,0,0.05,44.9,0)" xlink:href="#W"/><use transform="matrix(0.05,0,0,0.05,50.85,0)" xlink:href="#ae"/><use transform="matrix(0.05,0,0,0.05,56.800000000000004,0)" xlink:href="#af"/></g><path fill="#333" d="M33 0v-248h34V0H33" id="aj"/><path fill="#333" d="M101-234c-31-9-42 10-38 44h38v23H63V0H32v-167H5v-23h27c-7-52 17-82 69-68v24" id="ak"/><g id="s"><use transform="matrix(0.05,0,0,0.05,0,0)" xlink:href="#O"/><use transform="matrix(0.05,0,0,0.05,10,0)" xlink:href="#W"/><use transform="matrix(0.05,0,0,0.05,15.949999999999998,0)" xlink:href="#W"/><use transform="matrix(0.05,0,0,0.05,21.9,0)" xlink:href="#N"/><use transform="matrix(0.05,0,0,0.05,31.899999999999995,0)" xlink:href="#W"/><use transform="matrix(0.05,0,0,0.05,37.85,0)" xlink:href="#aj"/><use transform="matrix(0.05,0,0,0.05,42.85,0)" xlink:href="#P"/><use transform="matrix(0.05,0,0,0.05,52.85,0)" xlink:href="#ak"/><use transform="matrix(0.05,0,0,0.05,57.85,0)" xlink:href="#N"/><use transform="matrix(0.05,0,0,0.05,67.85,0)" xlink:href="#ae"/><use transform="matrix(0.05,0,0,0.05,73.8,0)" xlink:href="#af"/></g><path fill="#333" d="M205 0l-28-72H64L36 0H1l101-248h38L239 0h-34zm-38-99l-47-123c-12 45-31 82-46 123h93" id="al"/><g id="t"><use transform="matrix(0.05,0,0,0.05,0,0)" xlink:href="#ak"/><use transform="matrix(0.05,0,0,0.05,5,0)" xlink:href="#O"/><use transform="matrix(0.05,0,0,0.05,15,0)" xlink:href="#R"/><use transform="matrix(0.05,0,0,0.05,20,0)" xlink:href="#V"/><use transform="matrix(0.05,0,0,0.05,29,0)" xlink:href="#ah"/><use transform="matrix(0.05,0,0,0.05,39,0)" xlink:href="#al"/><use transform="matrix(0.05,0,0,0.05,51,0)" xlink:href="#ab"/><use transform="matrix(0.05,0,0,0.05,54.95,0)" xlink:href="#ab"/><use transform="matrix(0.05,0,0,0.05,58.900000000000006,0)" xlink:href="#ae"/><use transform="matrix(0.05,0,0,0.05,64.85000000000001,0)" xlink:href="#af"/></g><path fill="#333" d="M185-189c-5-48-123-54-124 2 14 75 158 14 163 119 3 78-121 87-175 55-17-10-28-26-33-46l33-7c5 56 141 63 141-1 0-78-155-14-162-118-5-82 145-84 179-34 5 7 8 16 11 25" id="am"/><path fill="#333" d="M232-93c-1 65-40 97-104 97C67 4 28-28 28-90v-158h33c8 89-33 224 67 224 102 0 64-133 71-224h33v155" id="an"/><g id="u"><use transform="matrix(0.05,0,0,0.05,0,0)" xlink:href="#Q"/><use transform="matrix(0.05,0,0,0.05,3.95,0)" xlink:href="#S"/><use transform="matrix(0.05,0,0,0.05,12.949999999999998,0)" xlink:href="#am"/><use transform="matrix(0.05,0,0,0.05,24.95,0)" xlink:href="#T"/><use transform="matrix(0.05,0,0,0.05,34.95,0)" xlink:href="#L"/><use transform="matrix(0.05,0,0,0.05,44.95,0)" xlink:href="#O"/><use transform="matrix(0.05,0,0,0.05,54.95,0)" xlink:href="#W"/><use transform="matrix(0.05,0,0,0.05,60.900000000000006,0)" xlink:href="#an"/><use transform="matrix(0.05,0,0,0.05,73.85000000000001,0)" xlink:href="#S"/><use transform="matrix(0.05,0,0,0.05,82.85000000000001,0)" xlink:href="#O"/><use transform="matrix(0.05,0,0,0.05,92.85000000000001,0)" xlink:href="#W"/><use transform="matrix(0.05,0,0,0.05,98.80000000000001,0)" xlink:href="#ae"/><use transform="matrix(0.05,0,0,0.05,104.75,0)" xlink:href="#af"/></g><path d="M185-189c-5-48-123-54-124 2 14 75 158 14 163 119 3 78-121 87-175 55-17-10-28-26-33-46l33-7c5 56 141 63 141-1 0-78-155-14-162-118-5-82 145-84 179-34 5 7 8 16 11 25" id="ao"/><path d="M114-163C36-179 61-72 57 0H25l-1-190h30c1 12-1 29 2 39 6-27 23-49 58-41v29" id="ap"/><path d="M100-194c63 0 86 42 84 106H49c0 40 14 67 53 68 26 1 43-12 49-29l28 8c-11 28-37 45-77 45C44 4 14-33 15-96c1-61 26-98 85-98zm52 81c6-60-76-77-97-28-3 7-6 17-6 28h103" id="aq"/><path d="M85-194c31 0 48 13 60 33l-1-100h32l1 261h-30c-2-10 0-23-3-31C134-8 116 4 85 4 32 4 16-35 15-94c0-66 23-100 70-100zm9 24c-40 0-46 34-46 75 0 40 6 74 45 74 42 0 51-32 51-76 0-42-9-74-50-73" id="ar"/><path d="M0 4l72-265h28L28 4H0" id="as"/><g id="v"><use transform="matrix(0.05925925925925927,0,0,0.05925925925925927,0,0)" xlink:href="#ao"/><use transform="matrix(0.05925925925925927,0,0,0.05925925925925927,14.222222222222225,0)" xlink:href="#C"/><use transform="matrix(0.05925925925925927,0,0,0.05925925925925927,26.074074074074076,0)" xlink:href="#J"/><use transform="matrix(0.05925925925925927,0,0,0.05925925925925927,37.92592592592593,0)" xlink:href="#ap"/><use transform="matrix(0.05925925925925927,0,0,0.05925925925925927,44.97777777777778,0)" xlink:href="#aq"/><use transform="matrix(0.05925925925925927,0,0,0.05925925925925927,56.829629629629636,0)" xlink:href="#ar"/><use transform="matrix(0.05925925925925927,0,0,0.05925925925925927,68.68148148148148,0)" xlink:href="#as"/><use transform="matrix(0.05925925925925927,0,0,0.05925925925925927,74.60740740740741,0)" xlink:href="#B"/><use transform="matrix(0.05925925925925927,0,0,0.05925925925925927,85.27407407407408,0)" xlink:href="#aq"/><use transform="matrix(0.05925925925925927,0,0,0.05925925925925927,97.12592592592593,0)" xlink:href="#B"/><use transform="matrix(0.05925925925925927,0,0,0.05925925925925927,107.7925925925926,0)" xlink:href="#B"/><use transform="matrix(0.05925925925925927,0,0,0.05925925925925927,118.45925925925927,0)" xlink:href="#G"/><use transform="matrix(0.05925925925925927,0,0,0.05925925925925927,123.14074074074075,0)" xlink:href="#E"/><use transform="matrix(0.05925925925925927,0,0,0.05925925925925927,134.99259259259262,0)" xlink:href="#D"/><use transform="matrix(0.05925925925925927,0,0,0.05925925925925927,146.84444444444446,0)" xlink:href="#B"/><use transform="matrix(0.05925925925925927,0,0,0.05925925925925927,157.51111111111112,0)" xlink:href="#K"/><use transform="matrix(0.05925925925925927,0,0,0.05925925925925927,163.43703703703704,0)" xlink:href="#z"/><use transform="matrix(0.05925925925925927,0,0,0.05925925925925927,175.2888888888889,0)" xlink:href="#C"/><use transform="matrix(0.05925925925925927,0,0,0.05925925925925927,187.14074074074074,0)" xlink:href="#z"/></g><path d="M179-190L93 31C79 59 56 82 12 73V49c39 6 53-20 64-50L1-190h34L92-34l54-156h33" id="at"/><path d="M206 0h-36l-40-164L89 0H53L-1-190h32L70-26l43-164h34l41 164 42-164h31" id="au"/><g id="w"><use transform="matrix(0.05925925925925927,0,0,0.05925925925925927,0,0)" xlink:href="#as"/><use transform="matrix(0.05925925925925927,0,0,0.05925925925925927,5.9259259259259265,0)" xlink:href="#I"/><use transform="matrix(0.05925925925925927,0,0,0.05925925925925927,16.592592592592595,0)" xlink:href="#E"/><use transform="matrix(0.05925925925925927,0,0,0.05925925925925927,28.44444444444445,0)" xlink:href="#A"/><use transform="matrix(0.05925925925925927,0,0,0.05925925925925927,40.296296296296305,0)" xlink:href="#ap"/><use transform="matrix(0.05925925925925927,0,0,0.05925925925925927,47.348148148148155,0)" xlink:href="#B"/><use transform="matrix(0.05925925925925927,0,0,0.05925925925925927,58.01481481481483,0)" xlink:href="#aq"/><use transform="matrix(0.05925925925925927,0,0,0.05925925925925927,69.86666666666667,0)" xlink:href="#B"/><use transform="matrix(0.05925925925925927,0,0,0.05925925925925927,80.53333333333335,0)" xlink:href="#at"/><use transform="matrix(0.05925925925925927,0,0,0.05925925925925927,91.20000000000002,0)" xlink:href="#B"/><use transform="matrix(0.05925925925925927,0,0,0.05925925925925927,101.86666666666669,0)" xlink:href="#z"/><use transform="matrix(0.05925925925925927,0,0,0.05925925925925927,113.71851851851854,0)" xlink:href="#au"/><use transform="matrix(0.05925925925925927,0,0,0.05925925925925927,127.8814814814815,0)" xlink:href="#K"/><use transform="matrix(0.05925925925925927,0,0,0.05925925925925927,133.80740740740742,0)" xlink:href="#z"/><use transform="matrix(0.05925925925925927,0,0,0.05925925925925927,145.65925925925927,0)" xlink:href="#C"/><use transform="matrix(0.05925925925925927,0,0,0.05925925925925927,157.51111111111112,0)" xlink:href="#z"/></g><g id="x"><use transform="matrix(0.05,0,0,0.05,0,0)" xlink:href="#Q"/><use transform="matrix(0.05,0,0,0.05,3.95,0)" xlink:href="#P"/><use transform="matrix(0.05,0,0,0.05,13.949999999999998,0)" xlink:href="#V"/><use transform="matrix(0.05,0,0,0.05,22.95,0)" xlink:href="#ab"/><use transform="matrix(0.05,0,0,0.05,26.899999999999995,0)" xlink:href="#T"/><use transform="matrix(0.05,0,0,0.05,36.9,0)" xlink:href="#M"/><use transform="matrix(0.05,0,0,0.05,46.9,0)" xlink:href="#O"/><use transform="matrix(0.05,0,0,0.05,56.900000000000006,0)" xlink:href="#ad"/><use transform="matrix(0.05,0,0,0.05,66.9,0)" xlink:href="#N"/><use transform="matrix(0.05,0,0,0.05,76.9,0)" xlink:href="#P"/><use transform="matrix(0.05,0,0,0.05,86.9,0)" xlink:href="#V"/><use transform="matrix(0.05,0,0,0.05,95.9,0)" xlink:href="#O"/></g><path d="M27 0v-27h64v-190l-56 39v-29l58-41h29v221h61V0H27" id="av"/><g id="y"><use transform="matrix(0.05,0,0,0.05,0,0)" xlink:href="#av"/><use transform="matrix(0.05,0,0,0.05,10,0)" xlink:href="#K"/><use transform="matrix(0.05,0,0,0.05,15,0)" xlink:href="#K"/><use transform="matrix(0.05,0,0,0.05,20,0)" xlink:href="#av"/></g></defs></g></svg>